<?xml version="1.0" encoding="utf-8"?>
<!-- Generator: Adobe Illustrator 24.3.0, SVG Export Plug-In . SVG Version: 6.00 Build 0)  -->
<svg version="1.1" id="Layer_1" xmlns="http://www.w3.org/2000/svg" xmlns:xlink="http://www.w3.org/1999/xlink" x="0px" y="0px"
	 viewBox="0 0 128.2 128.2" style="enable-background:new 0 0 128.2 128.2;" xml:space="preserve">
<style type="text/css">
	.st0{fill:#E06659;}
	.st1{fill:#F78C77;}
	.st2{fill:#883027;}
	.st3{fill:#F7941E;}
	.st4{fill:#5B1B1A;}
	.st5{fill:#FCB040;}
	.st6{fill:#7A271F;}
	.st7{fill:#60BB46;}
</style>
<g>
	<g>
		<path class="st0" d="M59.6,97.5c-0.2,1.1,0.7,2.1,1.6,2.5L60,99.8c-0.3,0.2-0.6,0.4-0.8,0.6c-1,0.7-1.6,1.1-1.8,2.9
			c-0.3,2.1,1.2,9.5,1.6,11.2c1.1,5.2,1.8,6,4,10.6c0.3,0.6,1,1.5,2.2,1.7c0.2,0,0.3,0,0.5,0c0.9,0,2.9-2.3,2.9-2.3
			c5-8.8,7.7-12.7,8.6-20.8c0.1-0.9,0.2-1.9-0.4-2.7l1.8,0.3c1.2,0.5,2.8,0.9,4.5,0.9c1,0,2-0.2,3-0.6s1.6-1.4,2.1-2.4
			c0.6,0.9,1.4,1.6,2.2,2.4c0.8,0.7,1.5,1.3,2.4,1.7c0.8,0.3,1.7,0.4,2.6,0.4c0.3,0,0.6,0,1,0c1.7,0,3.5-0.2,5-1.1s2.7-2.8,2.5-4.6
			c0.1,0,0.2,0,0.2,0c0.7,0,1.4-0.4,1.8-0.7c3.5-2.3,6.9-4.9,7.6-8.9c0.1-0.4,0.1-0.8-0.1-1.2c-0.1-0.3-0.4-0.5-0.6-0.7l0,0
			c1.3-0.3,2.1-1.6,2.5-2.5c0.6-1.5,0.8-3.1,1-4.7c0.2-1.8,0.4-3.5-0.1-5.2c-0.4-1.6-1.6-3.4-3.6-4c0,0,0.1,0,0.1-0.1
			c1-0.9,1.7-2.2,2.1-4c0.5-2.5,0.2-5.1-0.9-7.4c0.1-0.1,0.2-0.2,0.3-0.3c0.5-0.6,0.8-1.3,1-1.9c0.6-1.8,1.1-4.3,0-6.7
			c-0.4-0.9-1.1-1.7-2-2.2c1.2-0.7,2.3-1.9,2.9-3.4c1.5-3.3,0.7-7.4-1.8-10c0.2-0.1,0.4-0.2,0.5-0.3c1.4-0.9,2.7-1.8,3.4-3.2
			c0.4-0.8,0.7-1.8,0.7-2.9c0.2-3.4-1.4-7-4.4-9.8c-2.7-2.5-6-4.2-9.2-5.5c-2.2-1-4.7-1.9-7.2-1.7c-2.4,0.1-5.3,1.6-6,4.3l0.5,0.4
			c-1.9-1.6-4.6-1.2-6.5-0.6c-1.2,0.4-2.7,1-3.7,2.2c-0.9,1.1-1.4,3-0.4,4.3l0.2,0.3l-0.2,0c-2.9-1.3-6.7-0.2-8.5,2.4
			c-0.8-1.3-2-2.7-3.8-3.2c-1.1-0.3-2.3-0.2-3.3,0.4c-0.8,0.4-1.4,1.1-1.6,1.9"/>
	</g>
	<path class="st1" d="M63.6,30.7c3,2.6,6.8,1.8,9.9-0.6c3-2.4,5.3-7.6,9.1-8.3c1.1-0.2,4,1.2,4.8,2c0.7,0.8,1.2,2.6,1.2,3.7
		c0.1,2.4-1,4.4-0.9,6.8s0,5.3,1.9,6.8c1.9,1.4,4.6,1.4,6.5,0.1c1-0.7,1.7-1.7,2.5-2.6c1.7-1.8,4-3,6.4-3.3c1.2-0.2,2.6-0.2,3.6,0.6
		c1.8,1.3,1.6,4,0.5,5.9s-2.9,3.3-4.1,5c-0.1,0.2-0.3,0.4-0.3,0.6c-0.1,0.4,0.2,0.8,0.4,1.1c1.6,2.3,2.7,5,3.3,7.8
		c-1.6,3-2.1,5.4-3.6,8.4c-0.9,1.8-1.9,4-1.5,6c0.2,1.4-0.1,2.9-0.3,4.3c-0.1,0.9-0.7,1.9-0.3,2.7c0.2,0.4,0.7,0.6,1,0.9
		c0.4,0.5,1.4,1.7,1.5,2.4c0.2,1.6-0.5,2.7-1.2,4.1s-1.9,1.7-1.9,1.7c-0.7,2.2-2.4,5.5-4.3,6.7c-2,1.4-4.2,0.1-5.6-0.1
		s-1.4-1.9-1.4-3.3c-1.4,0.5-4.2,1.4-5.7,1.6c-0.6,0.1-1.2,0.1-1.8-0.1c-0.6-0.3-5.6-1.4-5.4-2c-2.3,1.8-1.3,2-2.5,2.9
		c-0.7,0.5-1.9,0.8-2.7,1.2c-0.7,0.4-1.6,0.1-2.4-0.1c-5.1-1.8-10.2-4-15.1-6.4c-0.4-0.2-0.9-0.5-1.2-0.8c-0.3-0.4-0.5-0.9-0.6-1.5
		C52,77.8,53,70.5,53.9,63.4c0.6-4.1,1.1-8.3,3-12c1.7-3.5,4.5-6.5,7.9-8.4c0.5-0.3,1.1-0.6,1.7-0.7c0.7-0.2,1.4-0.2,2.1-0.2
		c4.1,0,7.6-1.4,11.8-1c-0.6-4.7,0.4-7.9,1.5-12.4c-1.6,1.7-3.2,3.4-4.8,5.2c-1.4,1.4-2.8,2.9-4.5,3.9c-2.9,1.5-6.4,1.3-9.6,0.8
		c-2.1-0.4-4.5-1.2-5-3.3C57.7,32.6,61.2,30.9,63.6,30.7z"/>
	<g>
		<path class="st2" d="M83.1,21c-2.1-5.8,10.4-8.7,11-0.8c0,0,0,0.3,0.6,0.2C95.2,20.3,95,20,95,20c-0.3-4.3-3.6-7-8.7-5.3
			C80.8,16.4,80.7,22.9,83.1,21z"/>
		<path class="st2" d="M74.2,24.8c0.9-1.4,2.6-2.4,4.3-2.7c0.6-0.1,0.9,0.6,0.5,1c-2.2,1.9-4,5.7-4.8,2.1
			C74.1,25.1,74.1,24.9,74.2,24.8z M97.2,65.8c-0.2,0-0.4,0-0.6,0c7.5-1.9,6.5-9.8,7.6-15.7c0.1-0.5,0.8-0.6,1.1-0.2
			c5.5,7.5-0.6,11.2-2.2,18.3c-0.1,0.5-0.7,0.6-1,0.3C101,67,99.2,66,97.2,65.8z M94.7,72.5c1,0.4,2.1,0.8,3.2,1
			c0.5,0.1,0.6,0.9,0.1,1.1l-4,1.9c-0.5,0.2-1-0.2-0.8-0.7c0.3-0.9,0.6-1.8,0.7-2.8C93.9,72.5,94.4,72.3,94.7,72.5z M100.8,77.5
			c-0.1,0.1-0.2,0.2-0.2,0.2c-3.2,3.6-7.8,7.4-9.8,11.4c-0.3,0.5-0.7,0.9-1.2,1c-0.8,0.2-1.7,0.4-2.5,0.5c-1.9,0.2-3.2-1.7-2.4-3.4
			c0.2-0.4,0.4-0.7,0.5-0.9c2.2-2.5,6.7-7.7,6.9-7.8l7.1-3.3l0.8-0.6l1.7-1.6c-2.7,0.3-5.4-0.7-7.7-1.8c-0.4-0.2-0.8,0-0.8,0.5
			c-0.1,1.3-0.7,3.7-2.4,6c-2.9,4.1-7.6,8.8-7.9,11.7c-0.1,0.7-0.7,1.2-1.4,1c-0.9-0.2-1.8-0.6-2.7-0.8c-0.5-0.1-0.9-0.5-0.9-1
			c0-0.4-0.1-0.7-0.1-1c-0.1-0.4,0.1-0.9,0.5-1.1c4.3-2.8,12.3-9,3.9-11.6c-0.5-0.4-2,0-2.5,0.1c0.8-0.5,1.6-1.1,2.5-1.3
			c-0.5-2.8-4.8,3.1-7.1,1.5c-2.1-0.6,3.7-5.7,3.9-6.5l-0.8-0.6c-0.6,1.4-5.1,4.8-4.7,6.9c0.1,0.6-0.3,1.2-0.9,1.3l-0.7,0.1v1.2
			l8.9-1.6c0.7-0.1,1.5,0,2.1,0.4c3.4,1.9,0.8,5.2-1.9,6.7c-2.5,1.7-5.7,5.1-8.9,4.1c-1,2,2.6,1.1,3.8,0.6c2.2-0.7,0.7,3-0.7,3.7
			c-0.5,0.5-1.4,1-1.9,0.6c-0.5,0.5-0.7,0.8-0.3,1c0.5,0.3,0.7,0.8,0.5,1.2c-0.9,2.2-4.2,4.1-6.4,2.5c-2.1,3.2,8,1.2,7.5-2.9
			c-0.1-0.4,0.1-0.9,0.5-1.1c0.8-0.5,0.4-0.4,0.4-0.4c-3.8,8.1,8.1,12.7,12.1,8c0.4-0.5,1.2-0.5,1.6,0c1.6,1.9,3.7,3.6,6.3,3.4
			c3.9,0.5,8-1.4,8.6-5c0.1-0.4,0.3-0.7,0.6-0.8c4.1-1.7,8-5.3,8.8-9.4c0.1-0.3,0.1-0.7-0.1-1.1c-0.2-0.5-0.1-1,0.3-1.3
			c3.6-3,4.4-12.6,0.2-15.4c-0.5-0.3-0.7-1-0.3-1.5c1.9-2.6,1.9-6.8,0.7-9.8c-0.1-0.4-0.1-0.8,0.1-1.1c2-2.6,2.4-7.2-0.1-9.8
			c-0.4-0.4-0.4-1.1,0-1.5c0.8-0.7,1.4-1.6,1.9-2.6c1.3-2.9,0.8-6.5-1-9.1c-0.4-0.5-0.3-1.2,0.3-1.6c1.2-0.8,2.3-1.7,2.9-2.9
			C124.6,19.4,97.3,2.5,92,15.5l1.1,0.4c4.2-8.1,16-0.9,21,3c5.1,4.1,6.1,13.9-1.4,14.6c-0.1,0-0.2,0-0.3,0
			c-11.2-1.6-10,0.5-18.4,6.6c-6.9,3.5-3.8-8-4.3-12.8c-0.1-0.5,0.3-1,0.9-1.2c1.9-0.4,3.9-0.2,5.7,0.7c1.1-2.1-3.8-2.1-6.1-1.6
			c-0.5,0.1-1-0.1-1.2-0.6c-1.2-2.1-3.7-3.2-6.1-2.9c-0.2,0-0.4,0-0.6-0.1c-2.6-1.2-5.8-0.6-7.9,1.3c-0.5,0.4-1.2,0.4-1.6-0.2
			c-3.4-4.6-10-0.5-7,0.5c2.9-5,8.6,1.7,8,5.1c-0.6,4.9-8.5,4.8-11.5,1.8c0,0.2-1.1,0.9-0.3,1c-2.6,0.5,1.7,1.8,3.3,1.9
			c0.1,0,0.2,0,0.3,0.1c7.7,3,10.1-6.8,15.6-10c1.8-1.2,5.7-0.2,6.9,1.9c0.3,0.5,0.5,2,0.5,2.5c-0.1,4.4-2.8,16.5,4.9,14.1
			c4.1-1.6,6.9-6.9,11.2-7.6c0.7-0.1,1.1,0.5,1.1,1.1c0,0.2,0.1,0.4,0.4,0.7l0,0c1.3-0.9,3.3-0.1,3.5,1.6c0.4,2.9-2.3,6-4.3,8
			c0,0,0,0-0.1,0.1c-5.2,6.8,0.7,22.3-14.8,18.7c-0.5-0.1,0,0.5,0.6,1.1c0.6,0.5,0.4,1.5-0.3,1.8c-3.2,1.6-7.7,5.1-5.5,6.5
			C87,69.7,92,66.5,97,66.8c2.4,0.3,6.2,3.4,6.1,5.8C103,74.9,101.8,76.3,100.8,77.5z M100.7,86.5c1.6,6.6-8.1,10.7-9.8,4
			c-0.1-0.2,0-0.5,0.2-0.6c1.5-1.1,2.6-3.7,4.3-5c0.4-0.3,0.9-0.1,1,0.4c0.3,1.7-0.3,3.5-1.4,4.9l0.8,0.7c1.5-1.7,2.1-4.2,1.5-6.4
			c-0.1-0.3,0.1-0.7,0.4-0.7c1.4-0.4,2.4,0.6,2.9,2.1c1.8-0.4,0-2.6-1.7-3.1c-0.5-0.2-0.6-0.9-0.1-1.1c0.6-0.3,1.3-0.4,2.1-0.5
			c0.1,0.5,0.2,1,0.1,1.5c1.5,0.5,1.3-0.8,0.9-1.7c-0.6-1.3,0.3-2,0.9-2.3c0.2-0.1,0.5-0.1,0.6,0.1c1,0.9,1.7,2.2,1.6,3.5
			c-0.1,2.1-2.1,3.9-4.3,4C100.6,86,100.7,86.5,100.7,86.5z M100.2,80c-0.3,0.1-0.5,0.1-0.7,0.2c0.3-0.3,0.5-0.5,0.8-0.8
			C100.2,79.6,100.2,79.8,100.2,80z M115.4,44c-1.1,3.1-3.4,3-5.9,3.3c-0.5-0.4,0.4,1,1.1,1.2c0.1,0,0.2,0,0.2,0
			c1.6-0.4,3,0.5,3.6,2c1.6,4.1-0.1,9.4-5.1,8.5v1c8-3,5.2,12.5-0.5,10c-1.4,2,3,1.4,3.9,0.3l-1.2,0.3c1.3,0.3,3.3,2.1,3.8,3.8v0.1
			c0.3,3.4,0.6,8.9-2.6,11.1c-0.1,0.1-0.2,0.1-0.3,0.1c-1.2,0.2-2.5-1.4-3.2-2.2l-0.8,0.6c0.6,0.9,1.4,1.8,2.5,2.3
			c0.4,0.5,1.9,1.1,1.6,1.9c-0.6,3.7-4.6,7.2-8.3,8.7c-0.1,0.1-0.3,0.1-0.4,0c-1.7-0.5-1.5-3.3-2.8-4.3l-0.6,0.8
			c0.9,0.8,0.9,2.9,1.9,3.7c0.1,0.1,0.2,0.2,0.2,0.3c2.7,8.4-18,6.8-13.7-5c-2.2-1.6-1.2,4.4-1.2,5.8c0,0.1,0,0.2,0,0.2
			c-2.4,5.6-13.8,1.2-11.7-4l0.3,1.9c0,0,0.1,0.4,0.6,0.3s0.4-0.5,0.4-0.5c-0.1,0-0.4-3.5-0.7-4.4c-0.1-0.2,0-0.4,0.1-0.5
			c0.8-0.9,1.7-1.2,2.9-0.6c3.2,1.1,6.7,1.3,10,0.4c0.3-0.1,0.6,0.1,0.7,0.3c2.8,6.5,12.3,2.7,11.7-4.2c0-0.3,0.2-0.5,0.4-0.6
			c4.1-1.2,4.9-7.2,1.2-9.4c-0.3-0.2-0.3-0.5-0.2-0.8c0.7-0.9,0.9-2.1,0.9-3.2v-0.1c-1.8-12.1,9.7-12.3,1.1-25.6
			c-0.1-0.1-0.1-0.3-0.1-0.4c0.2-0.7,0.9-1.3,1.4-1.8c8.6-7.5-1.1-12.3,6.6-10.8c0.1,0,0.2,0.1,0.3,0.2
			C115.9,37.1,116.7,40.9,115.4,44z"/>
		<path class="st2" d="M60.5,99.9c1,0.3,3.8,1,3.3-0.7c-1.2,0.2-3.2,0-3.2-1.5C58.5,97,59.4,99.7,60.5,99.9z"/>
		<path class="st2" d="M75.3,99.8c-1.5-0.5-8.2-0.2-5.9-0.1c3.9,0.1,5.4,1.1,5.9,1.7c0.2,0.3,0.3,0.6,0.2,1c-1,4.6-3.2,8.8-6.4,12.3
			c0.5,0.4,1.1,0.2,1.8-0.4c1-0.9,2.5,0.2,1.9,1.4c-0.9,1.8-1.9,3.7-3,5.7c-0.8,1.4-1.4,2.5-2.9,4.1c-2.6,2.9-5.4-4.9-7-12
			c-0.3-1.4,1.6-2.1,2.3-0.8c1.4,2.8,2.8,5.1,3.6,4.6c-2.2-4.4-5.5-11.2-7.1-15.1c-0.1-0.2,0.3-1.1,0.9-1.7c0.9-1,2-1.7,0.6-1.2
			c-5.3,2.2-1.6,11.4-1.2,15c0,0.1,0,0.1,0,0.2c1.1,3.7,2,9.1,4.9,11.6c1,0.9,2.4,0.8,3.3,0C72.5,121.1,81,100.7,75.3,99.8z"/>
		<path class="st2" d="M82.8,27.8c0.2-0.7-0.7-1-1.1-0.4c-3.8,6.8-10,13.7-18.2,10.3c-0.8,2.3,4.9,1.9,7.3,1.4
			c0.3-0.1,0.7,0.1,0.7,0.5c0,0.3,0.1,0.5,0.1,0.8s-0.2,0.6-0.5,0.7c-1.7,0.3-4.9-0.3-4.4,1.5c4.1-1,9.5-0.6,13.2-1.5
			c0.3-0.1,0.6,0.1,0.7,0.4c0.1,0.5,0.4,1,0.6,1.4s-0.1,0.8-0.5,0.9C72.2,44.2,63,46,69.5,57l0.8-0.5c-6.7-11.1,4.5-11.3,12.3-11.9
			c0.1,0,0.2,0,0.2,0c4.2,1.2,2.2,3.7,4.3,3.4c0-1-0.4-1.9-1-2.6c-0.2-0.3-0.2-0.7,0.1-0.9c1.4-0.8,2.7-2.3,4.3-1.4l0.6-0.8
			c-2.6-2-4.7,1.8-7,1.7c-0.1,0-0.2,0-0.3-0.1C79.5,41,81.4,33.7,82.8,27.8z M79.8,40.3c-2.2,0.1-4.3,0.2-6.5,0.5
			c-0.3,0-0.6-0.2-0.6-0.5L72.5,39c0-0.3,0.1-0.5,0.3-0.6c2.8-1.3,5-3.5,6.8-6.1c0.4-0.5,1.1-0.2,1,0.4c-0.4,2.3-0.6,4.8-0.4,6.8
			C80.4,40,80.1,40.3,79.8,40.3z"/>
		<path class="st2" d="M92.6,60.1c0,0-0.2,0.3,0,0.7c0.2,0.3,0.7,0,0.7,0c8.3-5.3,4.2-17.4,4.2-17.4l-1,0.1
			C97.9,49.6,97.8,55.8,92.6,60.1z"/>
		<polygon class="st2" points="72.4,83.8 79.7,80.3 71.9,82.9 		"/>
		<path class="st2" d="M90,59.7c1.7-1.3,2.5-9.8-0.3-8.4C92.3,55.3,88.3,59.1,90,59.7z"/>
		<path class="st2" d="M72.7,69.9l-0.3-3.1l-1,0.1c-0.1,0.7,0.5,3.6,0.1,4.1c-1.5,0.2-1.2-3.7-1.7-4.6l-1,0.2
			c0.3,1.2,0.4,3.9,1.2,4.9C71.2,72.9,73.1,71.3,72.7,69.9z"/>
	</g>
	<g>
		<path class="st3" d="M90.2,63.6c-6.4-5.9-15.4-8.8-24.1-7.7h-0.3c-0.3,0-0.6,0.1-0.9,0.1c2.3-2.5,3.3-6.4,2.6-10.5
			c-0.6-3.5-3-8.4-5-12.1c0.2-0.2,0.3-0.4,0.4-0.6c2.3-3.3,3.4-7.6,3.1-12.3c-0.3-4-1.7-7.6-3.8-11.7c-0.2-0.4-0.6-0.6-1-0.6
			c-15.1,1.5-30.5-1-44.5-7c-0.4-0.2-0.8-0.1-1.1,0.2s-0.4,0.7-0.3,1.1c0.6,1.7,0.2,5.4,0,6.7c-0.6,1.8-2,3.2-3.6,4.7
			c-0.7,0.7-1.5,1.4-2.1,2.2c-3,3.5-4.3,8.3-3.5,12.8c0.4,2.4,1.3,4.1,2.8,5.2c0.4,0.3,0.8,0.5,1.3,0.7l-2.6,4.1
			c-1,1.5-2.1,3.3-2.4,5.3c-0.3,2.1,0.5,4.2,1.1,5.9c0.7,2,1.6,4.4,3.2,6.4c-1.5,2-2.2,4.6-2.2,6.9c0,4,1.7,7.8,3.1,11.2
			c0,0,0,0,0,0.1c-0.6,1.6-0.5,3.4-0.3,4.8c0.8,4.1,3.2,7.9,6.7,10.2c1.2,0.8,2.3,1.2,3.3,1.4c-1.3,2.4-2.3,6.8-1.2,11.2
			c1.1,4.5,4.3,8.2,9.2,10.5c0,0,0,0,0.1,0c0,0,0,0,0.1,0c0,0,0,0,0.1,0l0,0c0.1,0,0.1,0,0.2,0l0,0l0,0l0,0l0,0l0,0l0,0
			c0.1,0,0.2,0,0.3,0l0,0H29c0.1,0,0.1,0,0.2-0.1l0,0c0,0,0,0,0.1-0.1l0.1-0.1c0,0,0,0,0.1-0.1c0,0,0,0,0-0.1c0,0,0,0,0-0.1
			c0,0,0,0,0-0.1V112c1.6-5.4,6.6-10,13.3-12.3c5.9-2,12.2-2.1,19.2-2c2.6,0,5.4,0.1,7.9-0.9s5.1-3.4,5-6.6c0-1.6-0.7-3-1.7-4.1
			c0.1-0.3,0.1-0.5-0.1-0.8c-0.8-1.3-1.6-2.8-1.6-4.3c0-0.6,0.1-1.2,0.3-1.9c0.2-0.7,0.3-1.5,0.3-2.4c0-2.5-1.5-4.5-3-6.2L68.7,70
			c-1.1-1.2-2.1-2.3-2.6-3.6c2.9-0.2,5.8,1.4,8.1,2.8c3.7,2.4,7.2,5.2,10.4,8.3c0.2,0.2,0.4,0.3,0.7,0.3c0.1,0,0.2,0,0.3-0.1
			c0.4-0.1,0.6-0.4,0.7-0.8c0.6-4.2,1.2-9,3.9-12.5C90.7,64.5,90.6,64,90.2,63.6z"/>
		<path class="st4" d="M90.2,63.6c-6.4-5.9-15.4-8.8-24.1-7.7h-0.3c-0.3,0-0.6,0.1-0.9,0.1c2.3-2.5,3.3-6.4,2.6-10.5
			c-0.6-3.5-3-8.4-5-12.1c0.2-0.2,0.3-0.4,0.4-0.6c2.3-3.3,3.4-7.6,3.1-12.3c-0.3-4-1.7-7.6-3.8-11.7c-0.2-0.4-0.6-0.6-1-0.6
			c-15.1,1.5-30.5-1-44.5-7c-0.4-0.2-0.8-0.1-1.1,0.2s-0.4,0.7-0.3,1.1c0.6,1.7,0.2,5.4,0,6.7c-0.6,1.8-2,3.2-3.6,4.7
			c-0.7,0.7-1.5,1.4-2.1,2.2c-3,3.5-4.3,8.3-3.5,12.8c0.4,2.4,1.3,4.1,2.8,5.2c0.4,0.3,0.8,0.5,1.3,0.7l-2.6,4.1
			c-1,1.5-2.1,3.3-2.4,5.3c-0.3,2.1,0.5,4.2,1.1,5.9c0.7,2,1.6,4.4,3.2,6.4c-1.5,2-2.2,4.6-2.2,6.9c0,4,1.7,7.8,3.1,11.2
			c0,0,0,0,0,0.1c-0.6,1.6-0.5,3.4-0.3,4.8c0.8,4.1,3.2,7.9,6.7,10.2c1.2,0.8,2.3,1.2,3.3,1.4c-1.3,2.4-2.3,6.8-1.2,11.2
			c1.1,4.5,4.3,8.2,9.2,10.5c0,0,0,0,0.1,0c0,0,0,0,0.1,0c0,0,0,0,0.1,0l0,0c0.1,0,0.1,0,0.2,0l0,0l0,0l0,0l0,0l0,0l0,0
			c0.1,0,0.2,0,0.3,0l0,0H29c0.1,0,0.1,0,0.2-0.1l0,0c0,0,0,0,0.1-0.1l0.1-0.1c0,0,0,0,0.1-0.1c0,0,0,0,0-0.1c0,0,0,0,0-0.1
			c0,0,0,0,0-0.1V112c1.6-5.4,6.6-10,13.3-12.3c5.9-2,12.2-2.1,19.2-2c2.6,0,5.4,0.1,7.9-0.9s5.1-3.4,5-6.6c0-1.6-0.7-3-1.7-4.1
			c0.1-0.3,0.1-0.5-0.1-0.8c-0.8-1.3-1.6-2.8-1.6-4.3c0-0.6,0.1-1.2,0.3-1.9c0.2-0.7,0.3-1.5,0.3-2.4c0-2.5-1.5-4.5-3-6.2L68.7,70
			c-1.1-1.2-2.1-2.3-2.6-3.6c2.9-0.2,5.8,1.4,8.1,2.8c3.7,2.4,7.2,5.2,10.4,8.3c0.2,0.2,0.4,0.3,0.7,0.3c0.1,0,0.2,0,0.3-0.1
			c0.4-0.1,0.6-0.4,0.7-0.8c0.6-4.2,1.2-9,3.9-12.5C90.7,64.5,90.6,64,90.2,63.6z M84.8,75.2c-2.9-2.7-6-5.1-9.3-7.2
			c-2.7-1.7-6.3-3.6-10.1-3.1c-2.7,0.4-4.9,2-7,3.5c-0.6,0.4-1.2,0.9-1.9,1.3c-5.6,3.6-12.7,4.8-19.2,3.2c-0.5-0.1-1.1,0.2-1.2,0.7
			c-0.1,0.5,0.2,1.1,0.7,1.2c7,1.7,14.7,0.4,20.7-3.5c0.6-0.4,1.3-0.9,1.9-1.3c1.6-1.1,3.1-2.2,4.8-2.8c0.6,1.8,1.9,3.2,3.1,4.5
			l0.4,0.4c1.2,1.4,2.5,3.1,2.5,4.9c0,0.6-0.1,1.2-0.3,1.9c-0.2,0.7-0.3,1.5-0.3,2.3c0,1.1,0.3,2.1,0.7,3c-0.6-0.2-1.1-0.4-1.7-0.5
			c-2.9-0.5-5.8,0.2-9,1.2c-2.6,0.8-5.4,1.6-8,1.2c-0.5-0.1-1.1,0.3-1.1,0.8c-0.1,0.5,0.3,1.1,0.8,1.1c3.1,0.4,6-0.5,8.9-1.3
			c2.9-0.9,5.5-1.6,8-1.1c2.3,0.4,4.8,2.3,4.8,4.7c0,2.2-1.9,4-3.7,4.7c-2.2,0.9-4.7,0.8-7.1,0.8c-7.2-0.1-13.6,0-19.9,2.1
			c-4,1.3-7.5,3.5-10.1,6.2c2.6-4.4,5.3-8,9.3-9.9c0.5-0.2,0.7-0.8,0.5-1.3s-0.8-0.7-1.3-0.5c-5.8,2.6-9.2,8.8-11.6,13.3
			c-0.8,1.5-0.9,2.7-1,3.9c0,0.2,0,0.4-0.1,0.7c-3.7-2-6-4.9-6.9-8.5c-1.2-4.8,0.5-9.2,1.4-10.5c1.1-1.5,2.8-2.7,5.2-3.7
			c4.2-1.8,8.8-2.5,13.4-3.2c1-0.2,2-0.3,3-0.5c5.4-0.9,11.5-2.3,16.2-6c0.4-0.3,0.5-1,0.2-1.4s-1-0.5-1.4-0.2
			c-4.4,3.4-10.2,4.8-15.3,5.6c-1,0.2-2,0.3-2.9,0.5c-4.6,0.7-9.4,1.4-13.8,3.3c-2.2,0.9-3.9,2-5.2,3.3c-1.3,0.3-2.7-0.4-3.7-1.1
			c-3-2-5.2-5.3-5.8-8.9c-0.3-1.4-0.3-3.3,0.7-4.6c0.8-1.1,2.2-1.6,3.5-2c5.4-1.7,11.2-1.9,16.9-2.1l2.1-0.1
			c3.8-0.2,7.6-0.4,10.8-2.4c0.5-0.3,0.6-0.9,0.3-1.4s-0.9-0.6-1.4-0.3c-2.8,1.7-6.2,2-9.8,2.1l-2,0.1C27.6,68.8,21.6,69,16,70.8
			c-1.4,0.4-2.9,1-4,2.1c-1.2-2.9-2.5-6.1-2.5-9.3c0-2,0.6-4.3,2-6c0.1-0.1,0.2-0.1,0.3-0.2c0.1-0.1,0.2-0.2,0.2-0.4
			c0.7-0.7,1.4-1.2,2.4-1.5s2.1-0.4,3-0.4c3.4-0.1,6.9,0.5,10.2,1.1C32.2,57,37,57.9,41.8,57c0.5-0.1,0.9-0.6,0.8-1.2
			c-0.1-0.5-0.6-0.9-1.2-0.8c-4.4,0.8-8.8,0.1-13.5-0.8c-3.5-0.6-7-1.2-10.6-1.1c-1,0-2.3,0.1-3.6,0.5c-1,0.4-1.9,0.9-2.7,1.6
			c-1.3-1.6-2-3.7-2.7-5.5c-0.6-1.6-1.2-3.3-1-5c0.2-1.6,1.2-3.1,2.1-4.5l2.8-4.4c0-0.1,0.1-0.1,0.1-0.2c0.6,0.1,1.3,0.2,1.9,0.3
			c0.4,0.1,0.8,0.1,1.1,0.2c2.7,0.4,5.2,1.5,7.8,2.5c1.4,0.6,2.9,1.2,4.5,1.7c3.6,1.2,7.4,1.8,11.2,1.8c1.5,0,2.9-0.1,4.3-0.3
			c0.5-0.1,0.9-0.6,0.9-1.1c-0.1-0.5-0.6-0.9-1.1-0.9c-4.9,0.6-10,0.1-14.7-1.4c-1.5-0.5-2.9-1.1-4.3-1.6c-2.6-1.1-5.4-2.2-8.3-2.7
			c-0.4-0.1-0.8-0.1-1.2-0.2c-1.6-0.2-3.1-0.4-4.2-1.3c-1.3-1-1.8-2.7-2-4c-0.7-4,0.5-8.1,3.1-11.2c0.6-0.7,1.3-1.4,2-2.1
			c1.6-1.6,3.3-3.3,4.1-5.6V9.6c0-0.1,0-0.2,0-0.3c5.8,1.1,11.5,3.3,16.5,6.4c0.4,0.3,0.9,0.5,1.3,0.8c1.4,0.9,2.8,1.8,4.3,2.5
			c2.8,1.3,5.9,1.6,8.8,2h0.1c0.5,0,0.9-0.4,1-0.9s-0.3-1-0.9-1.1c-2.8-0.4-5.7-0.7-8.3-1.9c-1.4-0.6-2.7-1.5-4.1-2.3
			c-0.4-0.3-0.9-0.6-1.3-0.8c-5.2-3.3-11.2-5.6-17.2-6.7h-0.1c0.1-1.1,0.1-2.3,0-3.5c13.6,5.6,28.4,7.8,43.1,6.5
			c1.8,3.7,3,6.9,3.3,10.4c0.3,4.1-0.6,8-2.7,10.9c-0.2,0.2-0.4,0.5-0.5,0.6c-0.2,0.1-0.6,0.1-0.9,0.1c-7-0.2-14.1-0.8-21-1.8
			c-0.5-0.1-1.1,0.3-1.1,0.8c-0.1,0.5,0.3,1.1,0.8,1.1c7,1.1,14.2,1.7,21.3,1.8c0.3,0,0.6,0,0.9,0c1.7,3.1,4.2,8.1,4.8,11.5
			c0.5,2.8,0.1,6.6-2.3,9c-0.4-0.2-0.8-0.4-1.2-0.6c-0.1-0.1-0.2-0.1-0.3-0.2l0,0l0,0c-0.2-0.1-0.5-0.3-0.8-0.4
			c-0.7-0.3-1.3-0.6-2-1c-2.5-1.2-5.1-2.5-7.8-3.4c-4-1.3-7.9-1.3-11-0.2c-0.5,0.2-0.8,0.8-0.6,1.3s0.8,0.8,1.3,0.6
			c3.4-1.3,7.2-0.6,9.7,0.2c2.6,0.8,5.1,2.1,7.5,3.3c0.7,0.3,1.3,0.7,2,1c0.2,0.1,0.5,0.2,0.7,0.4c0.2,0.1,0.5,0.4,0.8,0.7
			c0.6,0.6,1.3,1.3,2.1,1.4c0.9,0.2,1.8,0,2.6-0.1h0.3c7.8-1,15.9,1.4,21.8,6.6C86.1,67.8,85.3,71.7,84.8,75.2z"/>
		<path class="st5" d="M20,6c11.2,4,22.9,8.1,34.7,7.6c1.8-0.1,3.5,1,4.1,2.8c0.3,0.9,0.7,1.9,1,2.8c0.4,1.2,0.8,2.4,0.6,3.7
			c-0.3,2.3-2.5,3.9-4.6,4.9c-5.7,2.8-12.4,3.9-18.7,2.9c0,0-0.1,0,0,0.1c0.7,1.1,1.7,2,2.9,2.5c6.2,2.5,12.5,4.7,19,6.5
			c1.5,0.4,2.6,1.6,2.9,3.1l0,0c0.5,2.6-1.5,5.1-4.1,5.1c-0.1,0-0.2,0-0.2,0l-16.2,0.3v0.1c6.7,1.8,13,4.7,18.7,8.7v0.1
			c-0.8,0-1.7,0.3-2.3,0.9c5.9,2.9,13,1.3,19.2,3.3c1.8,0.6,3.7,1.7,4.2,3.6c0.1,0.4,0.1,0.9-0.2,1.2c-0.6,0.5-1.5,0-2.1-0.5
			c-4.2-3.4-10-3.8-15.4-3.4c-0.7,0-1.4,0.1-2.1,0.3c-1,0.3-1.9,0.9-2.7,1.6c-2.4,2-4.3,4.4-6.7,6.4s-5.5,3.5-8.5,2.9
			c3.9,0.5,7.9,1.5,11.9,1.3c2.6-0.1,5.4-0.8,7.6-2.3c1.3-0.9,3-0.5,3.9,0.8c0.1,0.1,0.2,0.3,0.4,0.4c0.5,0.5,1.1,1,1.5,1.6
			c0.4,0.7,0.3,1.8-0.4,2.4c-1.9,1.8-4.5,3.2-6.7,4.4c-3,1.7-5.7,3.7-8.1,6.1v0.1l12.5-1.7c1.6-0.2,3.5-0.3,4.6,0.9l0,0
			c-0.9,1.9-1.6,3.9-2.5,5.8c-0.2,0.3-0.3,0.7-0.7,0.8c-0.3,0.1-0.5,0.1-0.8,0.1c-5.9-0.4-11.8-0.4-17.6,0.7
			c-5.6,1.1-11,3.2-15.3,6.9c0,0-0.1,0,0,0l8.4-9v-0.1c-7.4,0.5-14.3,5.1-17.8,11.6c0,0,0,0-0.1,0c-1.6-2.1-1.3-5.2,0.1-7.4
			c1.4-2.2,3.8-3.7,6.1-5c5.2-2.7,10.8-4.4,16.4-6c2.8-0.8,5.6-1.6,8.2-2.9c2.6-1.3,4.9-3.3,6.1-5.9V77c-4.9,1.5-9.8,3.1-14.8,3.7
			c-3.2,0.4-6.4,0.4-9.6,0.7c-4,0.4-7.9,1.4-11.6,2.8c-0.5,0.2-1,0.4-1.4,0.6c-2.3,0.9-5,0-6-2.3c-0.2-0.4-0.4-0.8-0.7-1.2
			c-0.4-0.5-0.8-1.1-0.9-1.7c0-0.9,0.8-1.5,1.6-2c5-2.9,10.9-3.6,16.3-5.4c3.8-1.2,7.4-3,10.7-5.2v-0.1c-4.5-1.2-9.2-2-13.9-2.4
			c-3.5-0.3-7-0.4-10.4,0.5c-3.3,0.9-6.3,2.6-9.3,4.3l0,0c-1-1-1-2.8-0.3-4.1c0.7-1.3,2-2.2,3.3-2.9c8-4.1,17.9-2.5,26.2-5.9
			c0,0,0,0,0-0.1c-0.4-1.1-1.8-1.7-2.8-2.3c-2.2-1.2-4.3-2.5-6.7-3.3c-6.5-2.4-13.7-1.5-20.3-3.4c-0.3-0.1-0.6-0.2-0.8-0.4
			c-0.2-0.3-0.2-0.6-0.2-1c0-3.3,1.7-6.5,4.3-8.5c0.6-0.5,1.3-0.9,2.1-0.8c0.5,0,0.9,0.3,1.4,0.5c4.7,2.3,9.7,3.9,14.9,4.9
			c3.4,0.6,7.1,0.9,10.1-0.7v-0.1c-5.3-2.4-10.2-5.6-15.4-8.1c-3.7-1.8-7.7-3.2-11.8-3.9c-2.5-0.4-3.8-3-2.7-5.2
			c2-3.8,4.6-7.3,8.4-9.3c1.3-0.6,2.7-1.1,4.1-1c2,0.1,3.8,1.4,5.6,2.5c5.3,3.2,11.4,5.2,17.5,5.7l0,0c0.3-0.4,0.5-0.9,0.5-1.4l0,0
			c-2.8-1.8-6-2.6-9.1-3.9c-5.4-2.2-10.1-5.9-15.7-7.7C22.3,8.7,20.4,7.8,20,6z"/>
		<path class="st6" d="M90.2,63.6c-6.4-5.9-15.4-8.8-24.1-7.7h-0.3c-0.3,0-0.6,0.1-0.9,0.1c2.3-2.5,3.3-6.4,2.6-10.5
			c-0.6-3.5-3-8.4-5-12.1c0.2-0.2,0.3-0.4,0.4-0.6c2.3-3.3,3.4-7.6,3.1-12.3c-0.3-4-1.7-7.6-3.8-11.7c-0.2-0.4-0.6-0.6-1-0.6
			c-15.1,1.5-30.5-1-44.5-7c-0.4-0.2-0.8-0.1-1.1,0.2s-0.4,0.7-0.3,1.1c0.6,1.7,0.2,5.4,0,6.7c-0.6,1.8-2,3.2-3.6,4.7
			c-0.7,0.7-1.5,1.4-2.1,2.2c-3,3.5-4.3,8.3-3.5,12.8c0.4,2.4,1.3,4.1,2.8,5.2c0.4,0.3,0.8,0.5,1.3,0.7l-2.6,4.1
			c-1,1.5-2.1,3.3-2.4,5.3c-0.3,2.1,0.5,4.2,1.1,5.9c0.7,2,1.6,4.4,3.2,6.4c-1.5,2-2.2,4.6-2.2,6.9c0,4,1.7,7.8,3.1,11.2
			c0,0,0,0,0,0.1c-0.6,1.6-0.5,3.4-0.3,4.8c0.8,4.1,3.2,7.9,6.7,10.2c1.2,0.8,2.3,1.2,3.3,1.4c-1.3,2.4-2.3,6.8-1.2,11.2
			c1.1,4.5,4.3,8.2,9.2,10.5c0,0,0,0,0.1,0c0,0,0,0,0.1,0c0,0,0,0,0.1,0l0,0c0.1,0,0.1,0,0.2,0l0,0l0,0l0,0l0,0l0,0l0,0
			c0.1,0,0.2,0,0.3,0l0,0H29c0.1,0,0.1,0,0.2-0.1l0,0c0,0,0,0,0.1-0.1l0.1-0.1c0,0,0,0,0.1-0.1c0,0,0,0,0-0.1c0,0,0,0,0-0.1
			c0,0,0,0,0-0.1V112c1.6-5.4,6.6-10,13.3-12.3c5.9-2,12.2-2.1,19.2-2c2.6,0,5.4,0.1,7.9-0.9s5.1-3.4,5-6.6c0-1.6-0.7-3-1.7-4.1
			c0.1-0.3,0.1-0.5-0.1-0.8c-0.8-1.3-1.6-2.8-1.6-4.3c0-0.6,0.1-1.2,0.3-1.9c0.2-0.7,0.3-1.5,0.3-2.4c0-2.5-1.5-4.5-3-6.2L68.7,70
			c-1.1-1.2-2.1-2.3-2.6-3.6c2.9-0.2,5.8,1.4,8.1,2.8c3.7,2.4,7.2,5.2,10.4,8.3c0.2,0.2,0.4,0.3,0.7,0.3c0.1,0,0.2,0,0.3-0.1
			c0.4-0.1,0.6-0.4,0.7-0.8c0.6-4.2,1.2-9,3.9-12.5C90.7,64.5,90.6,64,90.2,63.6z M84.8,75.2c-2.9-2.7-6-5.1-9.3-7.2
			c-2.7-1.7-6.3-3.6-10.1-3.1c-2.7,0.4-4.9,2-7,3.5c-0.6,0.4-1.2,0.9-1.9,1.3c-5.6,3.6-12.7,4.8-19.2,3.2c-0.5-0.1-1.1,0.2-1.2,0.7
			c-0.1,0.5,0.2,1.1,0.7,1.2c7,1.7,14.7,0.4,20.7-3.5c0.6-0.4,1.3-0.9,1.9-1.3c1.6-1.1,3.1-2.2,4.8-2.8c0.6,1.8,1.9,3.2,3.1,4.5
			l0.4,0.4c1.2,1.4,2.5,3.1,2.5,4.9c0,0.6-0.1,1.2-0.3,1.9c-0.2,0.7-0.3,1.5-0.3,2.3c0,1.1,0.3,2.1,0.7,3c-0.6-0.2-1.1-0.4-1.7-0.5
			c-2.9-0.5-5.8,0.2-9,1.2c-2.6,0.8-5.4,1.6-8,1.2c-0.5-0.1-1.1,0.3-1.1,0.8c-0.1,0.5,0.3,1.1,0.8,1.1c3.1,0.4,6-0.5,8.9-1.3
			c2.9-0.9,5.5-1.6,8-1.1c2.3,0.4,4.8,2.3,4.8,4.7c0,2.2-1.9,4-3.7,4.7c-2.2,0.9-4.7,0.8-7.1,0.8c-7.2-0.1-13.6,0-19.9,2.1
			c-4,1.3-7.5,3.5-10.1,6.2c2.6-4.4,5.3-8,9.3-9.9c0.5-0.2,0.7-0.8,0.5-1.3s-0.8-0.7-1.3-0.5c-5.8,2.6-9.2,8.8-11.6,13.3
			c-0.8,1.5-0.9,2.7-1,3.9c0,0.2,0,0.4-0.1,0.7c-3.7-2-6-4.9-6.9-8.5c-1.2-4.8,0.5-9.2,1.4-10.5c1.1-1.5,2.8-2.7,5.2-3.7
			c4.2-1.8,8.8-2.5,13.4-3.2c1-0.2,2-0.3,3-0.5c5.4-0.9,11.5-2.3,16.2-6c0.4-0.3,0.5-1,0.2-1.4s-1-0.5-1.4-0.2
			c-4.4,3.4-10.2,4.8-15.3,5.6c-1,0.2-2,0.3-2.9,0.5c-4.6,0.7-9.4,1.4-13.8,3.3c-2.2,0.9-3.9,2-5.2,3.3c-1.3,0.3-2.7-0.4-3.7-1.1
			c-3-2-5.2-5.3-5.8-8.9c-0.3-1.4-0.3-3.3,0.7-4.6c0.8-1.1,2.2-1.6,3.5-2c5.4-1.7,11.2-1.9,16.9-2.1l2.1-0.1
			c3.8-0.2,7.6-0.4,10.8-2.4c0.5-0.3,0.6-0.9,0.3-1.4s-0.9-0.6-1.4-0.3c-2.8,1.7-6.2,2-9.8,2.1l-2,0.1C27.6,68.8,21.6,69,16,70.8
			c-1.4,0.4-2.9,1-4,2.1c-1.2-2.9-2.5-6.1-2.5-9.3c0-2,0.6-4.3,2-6c0.1-0.1,0.2-0.1,0.3-0.2c0.1-0.1,0.2-0.2,0.2-0.4
			c0.7-0.7,1.4-1.2,2.4-1.5s2.1-0.4,3-0.4c3.4-0.1,6.9,0.5,10.2,1.1C32.2,57,37,57.9,41.8,57c0.5-0.1,0.9-0.6,0.8-1.2
			c-0.1-0.5-0.6-0.9-1.2-0.8c-4.4,0.8-8.8,0.1-13.5-0.8c-3.5-0.6-7-1.2-10.6-1.1c-1,0-2.3,0.1-3.6,0.5c-1,0.4-1.9,0.9-2.7,1.6
			c-1.3-1.6-2-3.7-2.7-5.5c-0.6-1.6-1.2-3.3-1-5c0.2-1.6,1.2-3.1,2.1-4.5l2.8-4.4c0-0.1,0.1-0.1,0.1-0.2c0.6,0.1,1.3,0.2,1.9,0.3
			c0.4,0.1,0.8,0.1,1.1,0.2c2.7,0.4,5.2,1.5,7.8,2.5c1.4,0.6,2.9,1.2,4.5,1.7c3.6,1.2,7.4,1.8,11.2,1.8c1.5,0,2.9-0.1,4.3-0.3
			c0.5-0.1,0.9-0.6,0.9-1.1c-0.1-0.5-0.6-0.9-1.1-0.9c-4.9,0.6-10,0.1-14.7-1.4c-1.5-0.5-2.9-1.1-4.3-1.6c-2.6-1.1-5.4-2.2-8.3-2.7
			c-0.4-0.1-0.8-0.1-1.2-0.2c-1.6-0.2-3.1-0.4-4.2-1.3c-1.3-1-1.8-2.7-2-4c-0.7-4,0.5-8.1,3.1-11.2c0.6-0.7,1.3-1.4,2-2.1
			c1.6-1.6,3.3-3.3,4.1-5.6V9.6c0-0.1,0-0.2,0-0.3c5.8,1.1,11.5,3.3,16.5,6.4c0.4,0.3,0.9,0.5,1.3,0.8c1.4,0.9,2.8,1.8,4.3,2.5
			c2.8,1.3,5.9,1.6,8.8,2h0.1c0.5,0,0.9-0.4,1-0.9s-0.3-1-0.9-1.1c-2.8-0.4-5.7-0.7-8.3-1.9c-1.4-0.6-2.7-1.5-4.1-2.3
			c-0.4-0.3-0.9-0.6-1.3-0.8c-5.2-3.3-11.2-5.6-17.2-6.7h-0.1c0.1-1.1,0.1-2.3,0-3.5c13.6,5.6,28.4,7.8,43.1,6.5
			c1.8,3.7,3,6.9,3.3,10.4c0.3,4.1-0.6,8-2.7,10.9c-0.2,0.2-0.4,0.5-0.5,0.6c-0.2,0.1-0.6,0.1-0.9,0.1c-7-0.2-14.1-0.8-21-1.8
			c-0.5-0.1-1.1,0.3-1.1,0.8c-0.1,0.5,0.3,1.1,0.8,1.1c7,1.1,14.2,1.7,21.3,1.8c0.3,0,0.6,0,0.9,0c1.7,3.1,4.2,8.1,4.8,11.5
			c0.5,2.8,0.1,6.6-2.3,9c-0.4-0.2-0.8-0.4-1.2-0.6c-0.1-0.1-0.2-0.1-0.3-0.2l0,0l0,0c-0.2-0.1-0.5-0.3-0.8-0.4
			c-0.7-0.3-1.3-0.6-2-1c-2.5-1.2-5.1-2.5-7.8-3.4c-4-1.3-7.9-1.3-11-0.2c-0.5,0.2-0.8,0.8-0.6,1.3s0.8,0.8,1.3,0.6
			c3.4-1.3,7.2-0.6,9.7,0.2c2.6,0.8,5.1,2.1,7.5,3.3c0.7,0.3,1.3,0.7,2,1c0.2,0.1,0.5,0.2,0.7,0.4c0.2,0.1,0.5,0.4,0.8,0.7
			c0.6,0.6,1.3,1.3,2.1,1.4c0.9,0.2,1.8,0,2.6-0.1h0.3c7.8-1,15.9,1.4,21.8,6.6C86.1,67.8,85.3,71.7,84.8,75.2z"/>
	</g>
	<path class="st7" d="M98.4,1.4c0,0,1.1,18.8-3.3,29.5S83.3,50,83.3,50l-7.8-8.5L70.8,64h24.3l-6.7-7c0,0,11.6-11.8,17.7-21.2
		s16.7-34.5,16.7-34.5H98.4V1.4z"/>
</g>
</svg>
