<svg id="Layer_1" data-name="Layer 1" xmlns="http://www.w3.org/2000/svg" viewBox="0 0 160.3 160.04"><defs><style>.cls-1{fill:#f18a00;}.cls-2{fill:#fff;}</style></defs><circle class="cls-1" cx="37.67" cy="37.67" r="35.51"/><path class="cls-2" d="M37.8,75.34A37.67,37.67,0,1,1,75.47,37.67,37.71,37.71,0,0,1,37.8,75.34Zm0-71A33.35,33.35,0,1,0,71.15,37.67,33.39,33.39,0,0,0,37.8,4.32Z" transform="translate(-0.13 0)"/><path class="cls-2" d="M16,40.51C16,41.25,16.55,42,18,42H57.31c1.42,0,1.93-.79,1.93-1.53a2.67,2.67,0,0,0-.77-1.7L40,17.5a3,3,0,0,0-4.64,0L16.81,38.81A2.67,2.67,0,0,0,16,40.51Z" transform="translate(-0.13 0)"/><rect class="cls-2" x="26.19" y="36.21" width="22.65" height="22.65" rx="3.38"/><circle class="cls-1" cx="122.63" cy="37.67" r="35.51"/><path class="cls-2" d="M122.76,0A37.67,37.67,0,1,1,85.09,37.67,37.71,37.71,0,0,1,122.76,0Zm0,71A33.35,33.35,0,1,0,89.41,37.67,33.39,33.39,0,0,0,122.76,71Z" transform="translate(-0.13 0)"/><path class="cls-2" d="M144.52,34.83c0-.74-.51-1.53-1.93-1.53H103.25c-1.42,0-1.93.79-1.93,1.53a2.67,2.67,0,0,0,.77,1.7L120.6,57.84a3,3,0,0,0,4.64,0l18.51-21.31A2.67,2.67,0,0,0,144.52,34.83Z" transform="translate(-0.13 0)"/><rect class="cls-2" x="111.46" y="16.48" width="22.65" height="22.65" rx="3.38"/><circle class="cls-1" cx="37.67" cy="122.37" r="35.51"/><path class="cls-2" d="M37.8,160a37.67,37.67,0,1,1,37.67-37.67A37.71,37.71,0,0,1,37.8,160Zm0-71a33.35,33.35,0,1,0,33.35,33.35A33.39,33.39,0,0,0,37.8,89Z" transform="translate(-0.13 0)"/><path class="cls-2" d="M37.73,111v-7.84A3.08,3.08,0,0,0,32.49,101l-16.8,16.58a3.43,3.43,0,0,0,0,4.9L32.49,139a3.07,3.07,0,0,0,4.34,0,3,3,0,0,0,.9-2.16v-7.63c8.42.21,17.63,1.73,24.52,12.22v-3.06A27.59,27.59,0,0,0,37.73,111Z" transform="translate(-0.13 0)"/><circle class="cls-1" cx="122.63" cy="122.37" r="35.51"/><path class="cls-2" d="M122.76,160a37.67,37.67,0,1,1,37.67-37.67A37.71,37.71,0,0,1,122.76,160Zm0-71a33.35,33.35,0,1,0,33.35,33.35A33.39,33.39,0,0,0,122.76,89Z" transform="translate(-0.13 0)"/><polygon class="cls-2" points="127.41 140.86 117.85 140.86 117.85 126.92 104.14 126.92 104.14 117.7 117.85 117.7 117.85 103.88 127.41 103.88 127.41 117.7 141.12 117.7 141.12 126.92 127.41 126.92 127.41 140.86"/></svg>