<svg id="Layer_1" data-name="Layer 1" xmlns="http://www.w3.org/2000/svg" viewBox="0 0 128.16 128.16"><defs><style>.cls-1{fill:#00aeef;}.cls-2{fill:#62bb46;}</style></defs><path class="cls-1" d="M82.43,38.51A45,45,0,0,1,108.55,47L113,44.54l2.41-1.21a21.25,21.25,0,0,0,7.24-29.74A21.62,21.62,0,0,0,92.88,6L56.3,25.24l8.44,16.88A43.56,43.56,0,0,1,82.43,38.51Z"/><path class="cls-1" d="M76.8,63.83v-6A7.49,7.49,0,0,1,84.44,51a7.39,7.39,0,0,1,6.43,5.22l5.22-2.81A34.25,34.25,0,0,0,82,50.16h0a32.41,32.41,0,0,0-12,2.41L76.8,63.83Z"/><path class="cls-2" d="M51.48,28.06,15.31,47.35Z"/><polygon class="cls-2" points="71.58 66.24 49.07 78.3 49.07 78.3 71.58 66.24"/><polygon class="cls-2" points="35.4 85.53 37.01 84.73 37.01 84.73 35.4 85.53"/><path class="cls-2" d="M51.48,28.06,15.31,47.35C4.46,52.57.44,65.84,6.06,76.69A21.45,21.45,0,0,0,35.4,85.53l1.61-.8v-.81a45.66,45.66,0,0,1,9.25-27.33A40.86,40.86,0,0,1,60.32,44.54Z"/><path class="cls-2" d="M70.37,63.83l-4.82-9.25a25,25,0,0,0-7.24,5.63A34,34,0,0,0,49.07,78.3L71.58,66.24Z"/><path class="cls-1" d="M105.74,48.56a41.4,41.4,0,0,0-22.91-6.84h0a42.51,42.51,0,0,0-16.08,3.22l-2.41,1.2-2.41,1.21A37.91,37.91,0,0,0,49.87,57.8a41.93,41.93,0,0,0-9.24,25.72h0v.81a42.2,42.2,0,0,0,84.4,0A44.21,44.21,0,0,0,105.74,48.56ZM82.43,120.5c-20.1,0-36.58-16.48-37-36.58a13.77,13.77,0,0,1,.4-4h0A37,37,0,0,1,63.94,51.77l2.41-1.21a5.73,5.73,0,0,1,2.41-.8A35.35,35.35,0,0,1,82,47.35h0a35.68,35.68,0,0,1,17.29,4.42A36.28,36.28,0,0,1,118.6,83.92h0A36.11,36.11,0,0,1,82.43,120.5Z"/><path class="cls-1" d="M88.05,57.4a4.13,4.13,0,0,0-4.42-4h-.4a3.48,3.48,0,0,0-3.62,4V81.51H59.92a4.44,4.44,0,1,0,.8,8.84H83.63a4.13,4.13,0,0,0,4-4.42l.4-28.53Z"/></svg>