<svg id="Layer_1" data-name="Layer 1" xmlns="http://www.w3.org/2000/svg" xmlns:xlink="http://www.w3.org/1999/xlink" viewBox="0 0 128.16 128.16"><defs><style>.cls-1,.cls-8,.cls-9{fill:none;}.cls-2{clip-path:url(#clip-path);}.cls-3{fill:#e6e7e8;}.cls-4{fill:#62bb46;}.cls-5{fill:#b1d89b;}.cls-6{fill:#00aeef;}.cls-7{fill:#6dcff6;}.cls-8{stroke:#fff;stroke-width:5.62px;}.cls-8,.cls-9{stroke-miterlimit:10;}.cls-9{stroke:#6d6e70;stroke-width:1.28px;}.cls-10{fill:#fff;}</style><clipPath id="clip-path"><rect class="cls-1" x="3.65" y="3.35" width="122.2" height="122.7" rx="7.9"/></clipPath></defs><g id="Simulation-4"><g id="Simulation-5"><g id="Simulation-6"><g class="cls-2"><path class="cls-3" d="M19.45,41.85c-.3-.4,0-1.3,0-1.3,5-13.7,10.5-24.4,16.9-30.4,5.2-4.9,10.4-7,15.6-6.2l.1-3.9L-4.55,4v7.5L19,41.25"/><path class="cls-4" d="M60.25,76.35c-13.4-7.7-31-21.7-32.2-23-4.7-5.4-9.7-10.9-9.8-10.7C12.75,59,8,79.05,3.55,100.45v17.7a7.85,7.85,0,0,0,7.9,7.9h106.4a7.85,7.85,0,0,0,7.9-7.9V91.25C109.85,90.25,71.85,83.05,60.25,76.35Z"/><path class="cls-5" d="M-8.95,115.75V7.15s7.6-4.8,10.3,3.7,18.2,30.6,18.2,30.6c-5.9,16.4-11,37-15.6,59v17.7Z"/><path class="cls-6" d="M48.35,4.75c7.3,1.1,13.5,9.3,16.4,14.5.8,1.5,3.3,5.7,4.2,7.2,4.5,8.4,9.5,14.5,20.8,23.2,10.6,8.1,26.4,13.4,36.1,15.6v-54a7.85,7.85,0,0,0-7.9-7.9H50.85"/><path class="cls-7" d="M125.85,90.45V65.25c-9.7-2.3-26.7-9-37.3-17.2-11.3-8.7-23-26.3-24.5-29-2.9-5.1-7.5-12.3-14.8-13.3-5.2-.8-7.3.6-12.4,5.5-6.3,6-11.6,17-16.5,30.7a4.66,4.66,0,0,0,.2,1.9c6.8,8.5,11.6,14.2,20.2,20.6,29.9,22.5,59.2,23.8,77,25.7,3.5.4,8.2.8,8.2.8Z"/><path class="cls-8" d="M1.45,124.15c7-38.1,17.5-93.9,36.2-112.2,11.5-11.2,18.7-2.1,24.9,6.1,4,5.3,9.1,14.2,17.6,25.1,17,21.7,59.2,23.9,59.2,23.9"/><path class="cls-8" d="M-.95,6.15s14.2,37.7,41.7,58.3c29.9,22.5,59.2,23.8,77,25.7s14.1.9,14.1.9"/></g></g><path class="cls-9" d="M118,126.05H11.55a7.85,7.85,0,0,1-7.9-7.9V11.25a7.85,7.85,0,0,1,7.9-7.9H118a7.85,7.85,0,0,1,7.9,7.9v106.9A7.85,7.85,0,0,1,118,126.05Z"/></g></g><path class="cls-10" d="M117.85,27.35a15.7,15.7,0,1,1-15.7-15.7h0a15.6,15.6,0,0,1,15.7,15.7Zm-35.9,0a20.2,20.2,0,1,0,20.2-20.2h0A20.21,20.21,0,0,0,82,27.35Z"/><path class="cls-10" d="M103.85,15.05a2,2,0,0,1,2,2v13.3a2,2,0,0,1-2,2h-11a2,2,0,0,1,0-4H102V17.15a2,2,0,0,1,1.9-2.1Z"/></svg>