<svg id="Layer_1" data-name="Layer 1" xmlns="http://www.w3.org/2000/svg" viewBox="0 0 128.16 128.16"><defs><style>.cls-1{fill:#62bb46;}.cls-2{fill:#f18a00;}.cls-3{fill:gray;}</style></defs><path class="cls-1" d="M9,119.46V10H93.66V38.09h8V9.49c0-4.29-3.09-7.78-6.9-7.78H7.9C4.1,1.71,1,5.2,1,9.49V120c0,4.29,3.1,7.78,6.9,7.78H57.16v-8.29Z"/><path class="cls-1" d="M16.06,19.93H27.75L33.84,30.5l5.91-10.57H51.33L40.64,36.57l11.7,17.72H40.41l-6.78-11-6.79,11H15L26.83,36.38Z"/><path class="cls-2" d="M95.11,64.69a5.18,5.18,0,0,1-3.74-1.34c-1.08-1.05-1.63-2.72-1.63-5A8.35,8.35,0,0,1,90.33,55a4.72,4.72,0,0,1,1.81-2.15,5.53,5.53,0,0,1,3-.75,6,6,0,0,1,2.28.41,4.39,4.39,0,0,1,1.7,1.22h0a5.6,5.6,0,0,1,1,1.87,9.19,9.19,0,0,1,.36,2.83,8.71,8.71,0,0,1-.57,3.4,4.75,4.75,0,0,1-1.82,2.15A5.44,5.44,0,0,1,95.11,64.69Zm0-10.15a1.85,1.85,0,0,0-1.44.57c-.33.37-.73,1.24-.73,3.27s.41,2.89.65,3.15a2.07,2.07,0,0,0,3.07,0c.24-.27.65-1,.65-3.15s-.4-2.9-.64-3.16A2,2,0,0,0,95.09,54.54Z"/><path d="M116,64.5h-3.27V59.3h-6.09v5.2H103.4V52.1h3.27v4.53h6.09V52.1H116Z"/><path class="cls-2" d="M62.07,64.69a5.15,5.15,0,0,1-3.73-1.34c-1.08-1.05-1.63-2.72-1.63-5A8.54,8.54,0,0,1,57.29,55a4.81,4.81,0,0,1,1.82-2.15,5.51,5.51,0,0,1,3-.75,6,6,0,0,1,2.29.41,4.39,4.39,0,0,1,1.7,1.22h0a5.78,5.78,0,0,1,1,1.87,9.19,9.19,0,0,1,.36,2.83,8.69,8.69,0,0,1-.58,3.4,4.67,4.67,0,0,1-1.81,2.15A5.45,5.45,0,0,1,62.07,64.69Zm0-10.15a1.84,1.84,0,0,0-1.43.57c-.33.37-.73,1.24-.73,3.27s.4,2.89.64,3.15a2,2,0,0,0,1.54.68,2,2,0,0,0,1.54-.68h0c.24-.27.65-1,.65-3.15s-.41-2.9-.65-3.16A2,2,0,0,0,62.05,54.54Z"/><path class="cls-2" d="M106.07,82.74a5.15,5.15,0,0,1-3.73-1.34c-1.08-1.05-1.63-2.72-1.63-5a8.54,8.54,0,0,1,.58-3.43,4.74,4.74,0,0,1,1.82-2.15,5.49,5.49,0,0,1,3-.75,6,6,0,0,1,2.29.41,4.39,4.39,0,0,1,1.7,1.22,5.78,5.78,0,0,1,1,1.87,9.55,9.55,0,0,1,.35,2.83,8.71,8.71,0,0,1-.57,3.4A4.67,4.67,0,0,1,109.05,82,5.45,5.45,0,0,1,106.07,82.74Zm0-10.15a1.84,1.84,0,0,0-1.43.57c-.33.37-.74,1.24-.74,3.27s.41,2.89.65,3.15a2.08,2.08,0,0,0,3.08,0c.24-.27.65-1,.65-3.15s-.41-2.9-.65-3.16A2,2,0,0,0,106.05,72.59Z"/><path class="cls-2" d="M119.05,127.82a5.15,5.15,0,0,1-3.73-1.34c-1.08-1-1.63-2.73-1.63-5a8.6,8.6,0,0,1,.58-3.43,4.78,4.78,0,0,1,1.82-2.14,5.51,5.51,0,0,1,3-.75,5.85,5.85,0,0,1,2.29.41,4.39,4.39,0,0,1,1.7,1.22h0a5.84,5.84,0,0,1,1,1.86,9.19,9.19,0,0,1,.36,2.83,8.75,8.75,0,0,1-.58,3.41,4.72,4.72,0,0,1-1.81,2.15A5.54,5.54,0,0,1,119.05,127.82Zm0-10.15a1.83,1.83,0,0,0-1.43.56c-.33.37-.73,1.24-.73,3.27s.4,2.89.65,3.15a2.05,2.05,0,0,0,3.07,0c.24-.26.65-1,.65-3.15s-.41-2.9-.65-3.16A2,2,0,0,0,119,117.67Z"/><path class="cls-3" d="M67.07,79.45a1.8,1.8,0,1,0,2.48-2.6L64.07,71.6a1.8,1.8,0,0,0-2.49,2.6Z"/><path class="cls-3" d="M100.75,86.51,92.4,94.6,79.58,87.27V75.18l8.8-8.54a1.79,1.79,0,0,0,.05-2.54,1.81,1.81,0,0,0-2.55,0l-8.1,7.85-8.1-7.85a1.8,1.8,0,1,0-2.51,2.58L76,75.17v12.1L62.17,95.16a2.2,2.2,0,0,0-.25.17l-.15.12a1.84,1.84,0,0,0-.65,1.39v14.5a1.82,1.82,0,0,0,.7,1.43l.14.11.21.14,14.72,8.41a1.84,1.84,0,0,0,1.78,0L93.39,113l.21-.14.14-.11a.46.46,0,0,0,.07-.07l.17-.16a1.47,1.47,0,0,0,.1-.13l.12-.19a.54.54,0,0,0,.07-.13,2.18,2.18,0,0,0,.09-.23s0-.09,0-.13a1.73,1.73,0,0,0,0-.32s0,0,0-.07V97.63l8.81-8.53a1.8,1.8,0,0,0-2.5-2.59Zm-23,31.28-13.06-7.46V97.85l13.06-7.47,13.06,7.47v12.48Z"/><path class="cls-3" d="M129.75,86.55a1.81,1.81,0,0,0-2.55,0l-8.1,7.85L111,86.51a1.8,1.8,0,1,0-2.5,2.59l8.8,8.53v13.71a1.8,1.8,0,0,0,3.6,0V97.63l8.81-8.53A1.81,1.81,0,0,0,129.75,86.55Z"/><path class="cls-3" d="M109,99.48a1.8,1.8,0,0,0-1.79,1.8v9.19a1.8,1.8,0,1,0,3.59,0v-9.19A1.8,1.8,0,0,0,109,99.48Z"/><path class="cls-3" d="M84.82,99.07l-6-3.36a1.8,1.8,0,1,0-1.75,3.14l6,3.36a1.83,1.83,0,0,0,.87.23,1.8,1.8,0,0,0,.88-3.37Z"/><path class="cls-3" d="M71.66,98.71a1.8,1.8,0,0,0-1.77,1.83l.13,6.89a1.81,1.81,0,0,0,1.8,1.77h0a1.8,1.8,0,0,0,1.76-1.84l-.13-6.89A1.79,1.79,0,0,0,71.66,98.71Z"/><path class="cls-3" d="M82.65,106.16l-6,3.43a1.8,1.8,0,0,0,.89,3.36,1.84,1.84,0,0,0,.9-.24l6-3.43a1.8,1.8,0,1,0-1.79-3.12Z"/></svg>