<svg id="Layer_1" data-name="Layer 1" xmlns="http://www.w3.org/2000/svg" viewBox="0 0 128.16 128.16"><defs><style>.cls-1{fill:#00aeef;}.cls-2{fill:#f18a00;}</style></defs><rect class="cls-1" x="14.9" y="87.38" width="11.94" height="19.35"/><rect class="cls-1" x="32.2" y="72.96" width="11.94" height="33.76"/><polygon class="cls-1" points="75.43 47.43 56.08 61.02 37.55 54.02 36.73 53.61 35.9 54.43 15.32 65.96 17.38 69.26 37.14 58.14 55.67 65.14 56.9 65.55 57.73 65.14 77.9 50.73 75.43 47.43"/><rect class="cls-1" x="14.9" y="14.9" width="62.59" height="7.82"/><rect class="cls-1" x="14.9" y="27.26" width="62.59" height="7.82"/><rect class="cls-1" x="14.9" y="39.61" width="38.71" height="7.82"/><path class="cls-1" d="M59.79,112.9H14.9a5.45,5.45,0,0,1-5.35-5.35V14.9A5.45,5.45,0,0,1,14.9,9.55h63a5.45,5.45,0,0,1,5.36,5.35V56.08a25.94,25.94,0,0,1,7.82-1.23V7.08a5.45,5.45,0,0,0-5.35-5.35H7.08A5.45,5.45,0,0,0,1.73,7.08V115.79a5.19,5.19,0,0,0,5.35,5.35h59.3A63,63,0,0,1,59.79,112.9Z"/><path class="cls-1" d="M56.49,81.61H49.08v24.71H56.9a35.83,35.83,0,0,1-2.47-13.18A38,38,0,0,1,56.49,81.61Z"/><path class="cls-2" d="M59.38,93.55A34.18,34.18,0,1,0,93.55,59.38,34.09,34.09,0,0,0,59.38,93.55Zm13.17,1.24L91.49,73A2.94,2.94,0,0,1,94,71.73,3.55,3.55,0,0,1,96.43,73l18.95,21.83a3.11,3.11,0,0,1,.82,1.64c0,.83-.41,1.65-2.06,1.65h-8.65v14a3.25,3.25,0,0,1-3.29,3.3H85.73a3.26,3.26,0,0,1-3.3-3.3v-14H73.79c-1.65,0-2.06-.82-2.06-1.65A3.11,3.11,0,0,1,72.55,94.79Z"/></svg>