<svg id="Layer_1" data-name="Layer 1" xmlns="http://www.w3.org/2000/svg" viewBox="0 0 128.16 128.16"><defs><style>.cls-1{fill:#00aeef;}.cls-2{fill:#62bb46;}.cls-3{fill:#c32a1f;opacity:0.9;isolation:isolate;}.cls-4{fill:#fff;}</style></defs><path class="cls-1" d="M83.3,37.69a45.09,45.09,0,0,1,26.13,8.44l4.42-2.41,2.41-1.2a21.25,21.25,0,0,0,7.23-29.74A21.62,21.62,0,0,0,93.75,5.14L57.18,24.43l8.44,16.88A43.49,43.49,0,0,1,83.3,37.69Z"/><path class="cls-1" d="M77.67,63V57a7.5,7.5,0,0,1,7.64-6.84,7.36,7.36,0,0,1,6.43,5.23L97,52.56A34.27,34.27,0,0,0,82.9,49.35h0a32.22,32.22,0,0,0-12.06,2.41L77.67,63Z"/><path class="cls-2" d="M52.35,27.24,16.18,46.54Z"/><polygon class="cls-2" points="72.45 65.42 49.94 77.48 49.94 77.48 72.45 65.42"/><polygon class="cls-2" points="36.28 84.72 37.89 83.91 37.89 83.91 36.28 84.72"/><path class="cls-2" d="M52.35,27.24,16.18,46.54C5.33,51.76,1.31,65,6.94,75.87a21.45,21.45,0,0,0,29.34,8.85l1.61-.81v-.8a45.66,45.66,0,0,1,9.24-27.33A41,41,0,0,1,61.2,43.72Z"/><path class="cls-2" d="M71.24,63l-4.82-9.24a25.14,25.14,0,0,0-7.23,5.63,34,34,0,0,0-9.25,18.08l22.51-12Z"/><path class="cls-1" d="M106.61,47.74A41.45,41.45,0,0,0,83.7,40.91h0a42.46,42.46,0,0,0-16.07,3.21l-2.41,1.21L62.8,46.54A37.64,37.64,0,0,0,50.75,57,41.85,41.85,0,0,0,41.5,82.71h0v.8a42.2,42.2,0,0,0,84.4,0A44.21,44.21,0,0,0,106.61,47.74ZM83.3,119.68c-20.09,0-36.57-16.48-37-36.57a13.74,13.74,0,0,1,.4-4h0A38.28,38.28,0,0,1,56,58.19,38.83,38.83,0,0,1,64.81,51l2.42-1.21a5.68,5.68,0,0,1,2.41-.8A35.35,35.35,0,0,1,82.9,46.54h0A35.53,35.53,0,0,1,100.18,51a36.25,36.25,0,0,1,19.29,32.15h0C119.88,103.2,103.4,119.68,83.3,119.68Z"/><path class="cls-1" d="M88.93,56.58a4.13,4.13,0,0,0-4.42-4h-.4a3.48,3.48,0,0,0-3.62,4V80.7H60.79a4.44,4.44,0,0,0,.81,8.84H84.51a4.13,4.13,0,0,0,4-4.42l.4-28.54Z"/><circle class="cls-3" cx="29.16" cy="100.83" r="26.51"/><path class="cls-4" d="M38.25,86l-9.09,9.09L20.07,86a4.08,4.08,0,1,0-5.77,5.77l9.09,9.09-9.09,9.09a4.08,4.08,0,1,0,5.77,5.77h0l9.09-9.09,9.09,9.09h0A4.08,4.08,0,1,0,44,109.92l-9.09-9.09L44,91.74h0A4.08,4.08,0,1,0,38.25,86Z"/></svg>