<?xml version="1.0" encoding="utf-8"?>
<!-- Generator: Adobe Illustrator 24.3.0, SVG Export Plug-In . SVG Version: 6.00 Build 0)  -->
<svg version="1.1" id="Layer_1" xmlns="http://www.w3.org/2000/svg" xmlns:xlink="http://www.w3.org/1999/xlink" x="0px" y="0px"
	 viewBox="0 0 128.2 128.2" style="enable-background:new 0 0 128.2 128.2;" xml:space="preserve">
<style type="text/css">
	.st0{fill:#00AEEF;}
</style>
<g>
	<g>
		<path class="st0" d="M17.9,77.1h6.8l10.2,28.8h-6.5l-1.9-5.9H15.9l-2,5.9H7.7L17.9,77.1z M17.5,95.1h7.4l-3.6-11.3L17.5,95.1z"/>
		<path class="st0" d="M38.6,77.1h6v23.6H59v5.2H38.6V77.1z"/>
		<path class="st0" d="M63,77.1h6v23.6h14.4v5.2H63V77.1z"/>
	</g>
	<g>
		<path class="st0" d="M110.6,89.1c1.7-5.2,2.6-10.7,2.6-16.2c0-28.5-23.2-51.7-51.7-51.7c-26.3,0-48.1,19.8-51.3,45.3h15.4
			c3-17.1,18-30.1,35.9-30.1C81.7,36.4,98,52.8,98,72.9c0,2.6-0.3,5.2-0.8,7.7L84,72.2l7.4,33.1l33.1-7.4L110.6,89.1z"/>
	</g>
</g>
</svg>
