<svg id="Layer_1" data-name="Layer 1" xmlns="http://www.w3.org/2000/svg" viewBox="0 0 128.16 128.16"><defs><style>.cls-1{fill:gray;}.cls-2{fill:#00aeef;}.cls-3{fill:#62bb46;}</style></defs><path class="cls-1" d="M64.13,91.57l-.91,6.37-.84,5.86a5.16,5.16,0,0,0,3.2,5.36l.3.1-3.83,10.63,2.11,8.21,6.35-17.16.29.11a5.26,5.26,0,0,0,5.93-2l1.29-2,4.18-9.13Z"/><path class="cls-2" d="M83.8,16.46A4.19,4.19,0,0,0,78.43,19a4.15,4.15,0,0,0,2.46,5.34h0l.8.28L61.65,79a6.92,6.92,0,0,0,4.12,8.89h0l18.66,6.78a7,7,0,0,0,8.94-4.15l20.06-54.45.8.29a4.17,4.17,0,1,0,2.89-7.83h0M70.4,79.8a2,2,0,0,1-1.18-2.52L86.28,31l2.26.82,15,5.47,2.26.82-17,46.28a2,2,0,0,1-2.53,1.18"/><path class="cls-1" d="M112.71,16.52l2.23.81a4.17,4.17,0,0,0,2.88-7.83L96.12,1.65a4.17,4.17,0,0,0-3.46,7.59,5.54,5.54,0,0,0,.57.21L95,10.1"/><rect class="cls-1" x="99.83" y="2.45" width="7.45" height="23.75" transform="translate(55.13 106.97) rotate(-70.28)"/><path class="cls-3" d="M51.06,12.09A32.57,32.57,0,0,0,9.91,32.79v0a32.05,32.05,0,0,0,3.65,27.93L64.46,20.47A31.92,31.92,0,0,0,51.06,12.09Z"/><path class="cls-3" d="M68.94,27c-.35-.61-.71-1.21-1.1-1.8L16.93,65.51a32,32,0,0,0,13.41,8.38A32.42,32.42,0,0,0,51.9,73.5a1.22,1.22,0,0,1,.12-.4Z"/></svg>