<svg id="Layer_1" data-name="Layer 1" xmlns="http://www.w3.org/2000/svg" viewBox="0 0 128.16 128.16"><defs><style>.cls-1{fill:#00aeef;}.cls-2,.cls-6{fill:#fff;}.cls-2{opacity:0.8;}.cls-2,.cls-5{isolation:isolate;}.cls-3{fill:#f18a00;}.cls-4{fill:gray;}.cls-5{fill:#c32a1f;opacity:0.9;}</style></defs><path class="cls-1" d="M4.55,31.35h3.7a3.12,3.12,0,0,1,3.1,3.1v3.7a3.12,3.12,0,0,1-3.1,3.1H4.55a3.12,3.12,0,0,1-3.1-3.1v-3.7A3,3,0,0,1,4.55,31.35Z"/><path class="cls-1" d="M4.55,55.25h3.7a3.12,3.12,0,0,1,3.1,3.1v3.7a3.12,3.12,0,0,1-3.1,3.1H4.55a3.12,3.12,0,0,1-3.1-3.1v-3.7A3,3,0,0,1,4.55,55.25Z"/><path class="cls-1" d="M4.55,79h3.7a3.12,3.12,0,0,1,3.1,3.1v3.7a3.12,3.12,0,0,1-3.1,3.1H4.55a3.12,3.12,0,0,1-3.1-3.1v-3.7A3,3,0,0,1,4.55,79Z"/><path class="cls-1" d="M21.05,31.35h72.2a3.12,3.12,0,0,1,3.1,3.1v3.7a3.12,3.12,0,0,1-3.1,3.1H21.05a3.12,3.12,0,0,1-3.1-3.1v-3.7A3.12,3.12,0,0,1,21.05,31.35Z"/><path class="cls-1" d="M21.05,55.25h72.2a3.12,3.12,0,0,1,3.1,3.1v3.7a3.12,3.12,0,0,1-3.1,3.1H21.05a3.12,3.12,0,0,1-3.1-3.1v-3.7A3.12,3.12,0,0,1,21.05,55.25Z"/><path class="cls-1" d="M21.05,79h72.2a3.12,3.12,0,0,1,3.1,3.1v3.7a3.12,3.12,0,0,1-3.1,3.1H21.05a3.12,3.12,0,0,1-3.1-3.1v-3.7A3.12,3.12,0,0,1,21.05,79Z"/><path class="cls-1" d="M6.35.65h85a5,5,0,0,1,5,5v9.7a5,5,0,0,1-5,5h-85a5,5,0,0,1-5-5V5.65A5,5,0,0,1,6.35.65Z"/><path class="cls-2" d="M46.75,30.75h66a15.3,15.3,0,0,1,15.3,15.3v66a15.3,15.3,0,0,1-15.3,15.3h-66a15.3,15.3,0,0,1-15.3-15.3v-66A15.36,15.36,0,0,1,46.75,30.75Z"/><polygon points="104.74 35.64 104.74 41.04 97.56 41.04 97.56 35.64 93.74 35.64 93.74 50.36 97.66 50.36 97.66 44.16 104.84 44.16 104.84 50.36 108.66 50.36 108.66 35.64 104.74 35.64"/><path class="cls-3" d="M88.52,37.28a6,6,0,0,0-2-1.39,7.61,7.61,0,0,0-2.68-.45,7.35,7.35,0,0,0-3.53.92A5.78,5.78,0,0,0,78.18,39a13,13,0,0,0-.64,4.06c0,2.91.66,4.82,2,5.8a6.1,6.1,0,0,0,4,1.62H84a6.28,6.28,0,0,0,3.53-.93,5.73,5.73,0,0,0,2.14-2.63A12.29,12.29,0,0,0,90.26,43a11.54,11.54,0,0,0-.47-3.42A8.28,8.28,0,0,0,88.52,37.28Zm-7.26,5.77a6.56,6.56,0,0,1,.9-4,2.33,2.33,0,0,1,1.69-.63,2.43,2.43,0,0,1,1.83.86c.28.29.76,1.15.76,3.73s-.48,3.44-.76,3.73L85.5,47A2.49,2.49,0,0,1,82,46.78C81.51,46.27,81.26,45,81.26,43.05Z"/><path class="cls-3" d="M49.32,37.28a6,6,0,0,0-2-1.39,7.61,7.61,0,0,0-2.68-.45,6.67,6.67,0,0,0-3.63.92,5.74,5.74,0,0,0-2.12,2.58,9,9,0,0,0-.66,4.14c0,2.81.72,4.76,2.06,5.77a6.1,6.1,0,0,0,4.05,1.62h.4a6.28,6.28,0,0,0,3.53-.93,5.73,5.73,0,0,0,2.14-2.63A12.33,12.33,0,0,0,51.06,43a11.71,11.71,0,0,0-.47-3.43A8.5,8.5,0,0,0,49.32,37.28Zm-7.26,5.77c0-2,.28-3.28.86-3.93a2.38,2.38,0,0,1,1.73-.66,2.43,2.43,0,0,1,1.83.86c.28.29.76,1.15.76,3.73s-.48,3.44-.81,3.77a2.44,2.44,0,0,1-3.61,0C42.31,46.27,42.06,45,42.06,43.05Z"/><path class="cls-3" d="M101.52,58.78a6,6,0,0,0-2-1.39,7.61,7.61,0,0,0-2.68-.45,7.35,7.35,0,0,0-3.53.92,5.78,5.78,0,0,0-2.14,2.63,13,13,0,0,0-.64,4.06c0,2.62.68,4.63,2,5.8a6.1,6.1,0,0,0,4,1.62H97a6.28,6.28,0,0,0,3.53-.93,5.73,5.73,0,0,0,2.14-2.63,12.29,12.29,0,0,0,.64-4,11.54,11.54,0,0,0-.47-3.42A8.28,8.28,0,0,0,101.52,58.78Zm-7.26,5.77c0-2.56.56-3.58.86-3.93A2.34,2.34,0,0,1,96.85,60a2.43,2.43,0,0,1,1.83.86c.28.29.76,1.15.76,3.73S99,68,98.68,68.28l-.18.17A2.49,2.49,0,0,1,95,68.28C94.74,68,94.26,67.13,94.26,64.55Z"/><path class="cls-3" d="M118.19,114.63a8,8,0,0,0-1.27-2.25,6,6,0,0,0-2-1.39,7.61,7.61,0,0,0-2.68-.45,7.35,7.35,0,0,0-3.53.92,5.78,5.78,0,0,0-2.14,2.63,12.39,12.39,0,0,0-.64,4c0,2.69.68,4.73,2,5.9a6.08,6.08,0,0,0,4,1.62h.4a6.28,6.28,0,0,0,3.53-.93A5.73,5.73,0,0,0,118,122a12.33,12.33,0,0,0,.64-4A11.59,11.59,0,0,0,118.19,114.63Zm-7.67,7.15c-.51-.51-.76-1.77-.76-3.73s.28-3.28.86-3.93a2.34,2.34,0,0,1,1.73-.66,2.43,2.43,0,0,1,1.83.86c.28.29.76,1.15.76,3.73s-.48,3.44-.81,3.77A2.44,2.44,0,0,1,110.52,121.78Z"/><path class="cls-4" d="M50.57,68.1a2.17,2.17,0,0,0,1.48.59A2.14,2.14,0,0,0,53.52,65L47,58.8a2.14,2.14,0,0,0-3,3.1Z"/><path class="cls-4" d="M90.56,76.51l-9.89,9.62L65.39,77.41V63.09l10.54-10.2a2.14,2.14,0,1,0-3-3.08L63.3,59.12l-9.67-9.31a2.14,2.14,0,0,0-3,3.08L61.11,63V77.41L44.84,86.76l-.15.07a2.15,2.15,0,0,0-1.18,1.92v17.3A2.14,2.14,0,0,0,44.69,108l17.49,10a2.15,2.15,0,0,0,1.07.29,2.24,2.24,0,0,0,1.06-.28l17.45-10,.15-.08.06,0a2.31,2.31,0,0,0,.36-.25l.09-.07a3.19,3.19,0,0,0,.33-.4l0-.1a1.71,1.71,0,0,0,.17-.39.5.5,0,0,0,0-.13,1.89,1.89,0,0,0,.08-.53V89.75L93.54,79.58a2.14,2.14,0,0,0-3-3.07ZM63.25,113.68l-15.46-8.89V90l15.46-8.89L78.81,90v14.79Z"/><path class="cls-4" d="M125.09,76.56a2.15,2.15,0,0,0-3,0l-9.66,9.31-9.67-9.31a2.14,2.14,0,0,0-3,3.08l10.55,10.16v16.3a2.14,2.14,0,0,0,4.28,0V89.65L125,79.59A2.15,2.15,0,0,0,125.09,76.56Z"/><path class="cls-4" d="M100.35,91.91a2.14,2.14,0,0,0-2.14,2.14V105a2.14,2.14,0,1,0,4.28,0V94.05A2.14,2.14,0,0,0,100.35,91.91Z"/><path class="cls-4" d="M71.67,91.37l-7.2-3.9a2.14,2.14,0,0,0-2,3.76l7.2,3.9a2.18,2.18,0,0,0,1,.26,2.14,2.14,0,0,0,1-4Z"/><path class="cls-4" d="M56,91a2.14,2.14,0,0,0-2.09,2.19l.2,8.2a2.15,2.15,0,0,0,2.14,2.09h0a2.14,2.14,0,0,0,2.09-2.19l-.2-8.2A2.14,2.14,0,0,0,56,91Z"/><path class="cls-4" d="M69.1,99.88l-7.1,4a2.14,2.14,0,0,0,1,4,2.09,2.09,0,0,0,1-.28l7.1-4a2.14,2.14,0,0,0-2.1-3.73Z"/><circle class="cls-5" cx="29.16" cy="100.83" r="26.51"/><path class="cls-6" d="M38.25,86l-9.09,9.09L20.07,86a4.08,4.08,0,1,0-5.77,5.77l9.09,9.09-9.09,9.09a4.08,4.08,0,1,0,5.77,5.77h0l9.09-9.09,9.09,9.09h0A4.08,4.08,0,1,0,44,109.92l-9.09-9.09L44,91.74h0A4.08,4.08,0,1,0,38.25,86Z"/></svg>