<svg id="Layer_1" data-name="Layer 1" xmlns="http://www.w3.org/2000/svg" viewBox="0 0 128.16 128.16"><defs><style>.cls-1{fill:#00aeef;}.cls-2{fill:#fff;}.cls-3{opacity:0.9;}.cls-4{fill:#c32a1f;}</style></defs><g id="Beagle"><path class="cls-1" d="M116.81,126.6H12.66A9.6,9.6,0,0,1,3.07,117V12.44a9.6,9.6,0,0,1,9.59-9.58H116.81a9.59,9.59,0,0,1,9.58,9.58V117A9.6,9.6,0,0,1,116.81,126.6Z"/><path class="cls-2" d="M119,56.71A7.5,7.5,0,0,0,115,51.34l-1.26-.59c-4.81-2.27-11.41-5.39-16.79-7.79a18.54,18.54,0,0,1-3.29-1.72,6.6,6.6,0,0,0,0-.8v-.2c.08-2.56.3-10.35-17.89-17.91-16.67-6.91-29-7.41-41.12-1.66-8.34,3.95-9,10.77-8.46,14.93A18.59,18.59,0,0,0,22,37.67c-5.65,3.52-11.32,11.72-11.55,12.07A2.48,2.48,0,0,0,10,51.23c0,1,.79,24.26,6.54,38.92,5.19,13.21,16,22.67,19.83,22.67h.07A2.73,2.73,0,0,0,39,110.91a13.68,13.68,0,0,0,.44-2.37c.11-.78.37-2.84.81-3.08,0,0,.72-.31,3,.81,7,3.38,12.86,3.57,17.57.57,7.83-5,9.62-17.54,10-23.68,2.87.92,7.55,2.36,13.59,4C96.3,90.3,107,83.24,113.1,75.58,117.88,69.55,120.27,62,119,56.71Z"/><path d="M119,56.71A7.5,7.5,0,0,0,115,51.34l-1.26-.59c-4.81-2.27-11.41-5.39-16.79-7.79a18.54,18.54,0,0,1-3.29-1.72,6.6,6.6,0,0,0,0-.8v-.2c.08-2.56.3-10.35-17.89-17.91-16.67-6.91-29-7.41-41.12-1.66-8.34,3.95-9,10.77-8.46,14.93A18.59,18.59,0,0,0,22,37.67c-5.65,3.52-11.32,11.72-11.55,12.07A2.48,2.48,0,0,0,10,51.23c0,1,.79,24.26,6.54,38.92,5.19,13.21,16,22.67,19.83,22.67h.07A2.73,2.73,0,0,0,39,110.91a13.68,13.68,0,0,0,.44-2.37c.11-.78.37-2.84.81-3.08,0,0,.72-.31,3,.81,7,3.38,12.86,3.57,17.57.57,7.83-5,9.62-17.54,10-23.68,2.87.92,7.55,2.36,13.59,4C96.3,90.3,107,83.24,113.1,75.58,117.88,69.55,120.27,62,119,56.71ZM66,79.76c.07,4.93-1.21,18.65-7.83,22.86-3.14,2-7.42,1.72-12.7-.85a13.1,13.1,0,0,0-3.88-1.26C34.82,94.4,27.06,82.75,30.13,71.9c.5-1.76,1-3.55,1.48-5.32,2.91-10.51,5.92-21.38,9.27-24.41,1.34-1.21,4.9-4,8.85-3.3,2.91.49,5.51,2.76,7.73,6.76,5.89,10.64,9,21.49,9.33,32.26A2.5,2.5,0,0,0,66,79.76Zm43.21-7.29C99.4,84.79,88.77,83.12,85.74,82.31c-8-2.15-13.69-4-15.66-4.68C69.73,66.38,66.46,55.09,60.34,44c-2.73-4.93-6.11-7.76-10.07-8.41-5.36-.9-9.9,2.57-11.59,4.1-4.07,3.67-7.06,14.5-10.24,26C28,67.47,27.46,69.25,27,71c-3.2,11.31,3.74,23.17,10.63,30.22-2,1.23-2.64,3.47-3,5.38A43.75,43.75,0,0,1,21.17,88.32C16.32,76,15.19,56.18,15,51.91c1.4-1.93,5.67-7.55,9.6-10A11.45,11.45,0,0,1,28,40.3a2.5,2.5,0,0,0,3.68-3,9.26,9.26,0,0,1,5.13-12.08C47.72,20,58.46,20.55,73.89,27c10,4.14,15,8.56,14.81,13.14v.35c0,.14,0,.27,0,.39a.86.86,0,0,0,0,.16c-1.19.47-2.83,1.13-4.81,2a13.58,13.58,0,0,0-6.34,5.28,1.11,1.11,0,0,0,1.57,1.51l3.39-2.35a6.22,6.22,0,0,0,3,2.77,4,4,0,0,0,1.27.22,4.3,4.3,0,0,0,2.11-.59c1.64-.92,3-1.86,3.39-3.6.76.42,1.65.85,2.68,1.31,5.18,2.31,11.52,5.3,16.27,7.54-1,1.17-2.25,2.57-3.09,3.58a2.92,2.92,0,0,0-.78,2.44c.26,1.47,1.76,2.32,3.08,3.08l.55.32a13.71,13.71,0,0,0,2.28.87A26.14,26.14,0,0,1,109.18,72.47Z"/></g><g class="cls-3"><circle class="cls-4" cx="27.16" cy="102.3" r="26.51"/></g><rect class="cls-2" x="22.21" y="81.19" width="9.9" height="27.23" rx="2.48"/><circle class="cls-2" cx="27.16" cy="118.32" r="4.95"/></svg>