<svg id="Layer_1" data-name="Layer 1" xmlns="http://www.w3.org/2000/svg" viewBox="0 0 128.16 128.16"><defs><style>.cls-1{fill:#00aeef;}.cls-2{fill:#fff;}.cls-3{fill:#62bb46;opacity:0.9;isolation:isolate;}</style></defs><g id="Beagle"><path class="cls-1" d="M116.8,126.6H12.65A9.6,9.6,0,0,1,3.07,117V12.44a9.59,9.59,0,0,1,9.58-9.58H116.8a9.6,9.6,0,0,1,9.59,9.58V117A9.6,9.6,0,0,1,116.8,126.6Z"/><path class="cls-2" d="M119,56.71A7.54,7.54,0,0,0,115,51.34l-1.25-.59c-4.82-2.27-11.42-5.39-16.8-7.79a18.25,18.25,0,0,1-3.28-1.72c0-.25,0-.51,0-.8v-.2c.07-2.56.3-10.35-17.9-17.91-16.67-6.91-29-7.41-41.12-1.66-8.34,3.95-9,10.77-8.46,14.93A18.59,18.59,0,0,0,22,37.67C16.3,41.19,10.64,49.39,10.4,49.74A2.55,2.55,0,0,0,10,51.23c0,1,.79,24.26,6.55,38.92,5.18,13.21,16,22.67,19.82,22.67h.07A2.75,2.75,0,0,0,39,110.91a14.69,14.69,0,0,0,.44-2.37c.1-.78.37-2.84.81-3.08,0,0,.71-.31,3,.81,7,3.38,12.87,3.57,17.58.57,7.83-5,9.62-17.54,10-23.68,2.87.92,7.55,2.36,13.6,4C96.3,90.3,107,83.24,113.09,75.58,117.88,69.55,120.26,62,119,56.71Z"/><path d="M119,56.71A7.54,7.54,0,0,0,115,51.34l-1.25-.59c-4.82-2.27-11.42-5.39-16.8-7.79a18.25,18.25,0,0,1-3.28-1.72c0-.25,0-.51,0-.8v-.2c.07-2.56.3-10.35-17.9-17.91-16.67-6.91-29-7.41-41.12-1.66-8.34,3.95-9,10.77-8.46,14.93A18.59,18.59,0,0,0,22,37.67C16.3,41.19,10.64,49.39,10.4,49.74A2.55,2.55,0,0,0,10,51.23c0,1,.79,24.26,6.55,38.92,5.18,13.21,16,22.67,19.82,22.67h.07A2.75,2.75,0,0,0,39,110.91a14.69,14.69,0,0,0,.44-2.37c.1-.78.37-2.84.81-3.08,0,0,.71-.31,3,.81,7,3.38,12.87,3.57,17.58.57,7.83-5,9.62-17.54,10-23.68,2.87.92,7.55,2.36,13.6,4C96.3,90.3,107,83.24,113.09,75.58,117.88,69.55,120.26,62,119,56.71ZM66,79.76c.07,4.93-1.2,18.65-7.82,22.86-3.15,2-7.42,1.72-12.71-.85a13,13,0,0,0-3.87-1.26C34.82,94.4,27.05,82.75,30.13,71.9l1.48-5.32c2.91-10.51,5.91-21.38,9.26-24.41,1.35-1.21,4.91-4,8.86-3.3,2.91.49,5.51,2.76,7.72,6.76,5.9,10.64,9,21.49,9.34,32.26A2.51,2.51,0,0,0,66,79.76Zm43.21-7.29C99.4,84.79,88.76,83.12,85.74,82.31c-8-2.15-13.69-4-15.67-4.68C69.72,66.38,66.45,55.09,60.33,44c-2.72-4.93-6.11-7.76-10.06-8.41-5.37-.9-9.9,2.57-11.6,4.1-4.06,3.67-7.06,14.5-10.23,26C28,67.47,27.46,69.25,27,71c-3.2,11.31,3.73,23.17,10.62,30.22-2,1.23-2.63,3.47-2.95,5.38A43.75,43.75,0,0,1,21.16,88.32C16.31,76,15.19,56.18,15,51.91c1.39-1.93,5.67-7.55,9.59-10A11.45,11.45,0,0,1,28,40.3a2.5,2.5,0,0,0,3.68-3,9.27,9.27,0,0,1,5.13-12.08C47.71,20,58.45,20.55,73.88,27c10,4.14,15,8.56,14.82,13.14,0,.13,0,.25,0,.35s0,.27,0,.39a.86.86,0,0,1,0,.16c-1.19.47-2.83,1.13-4.81,2a13.5,13.5,0,0,0-6.33,5.28,1.09,1.09,0,0,0,.16,1.39,1.11,1.11,0,0,0,1.4.12l3.39-2.35a6.25,6.25,0,0,0,3,2.77,3.94,3.94,0,0,0,1.27.22,4.33,4.33,0,0,0,2.11-.59c1.64-.92,3-1.86,3.38-3.6.77.42,1.66.85,2.68,1.31,5.19,2.31,11.52,5.3,16.28,7.54-1,1.17-2.26,2.57-3.09,3.58a2.93,2.93,0,0,0-.79,2.44c.27,1.47,1.77,2.32,3.09,3.08l.55.32a13.28,13.28,0,0,0,2.27.87A25.88,25.88,0,0,1,109.17,72.47Z"/></g><circle class="cls-3" cx="27.15" cy="102.31" r="26.5"/><path class="cls-2" d="M45,96.22a4.09,4.09,0,0,0-5.78-5.78L22.5,107.18l-7.32-7.32a4.09,4.09,0,0,0-5.77,5.79h0l11.17,11.18a2.69,2.69,0,0,0,3.8,0h0L45,96.23Z"/></svg>