<svg id="Layer_1" data-name="Layer 1" xmlns="http://www.w3.org/2000/svg" viewBox="0 0 128.16 128.16"><defs><style>.cls-1{fill:gray;}.cls-2{fill:#00aeef;}.cls-3{fill:none;stroke:#f18a00;stroke-miterlimit:10;stroke-width:5px;}.cls-4{fill:#f18a00;}</style></defs><rect class="cls-1" x="-0.06" y="50.21" width="33" height="27.75"/><rect class="cls-1" x="95.22" y="50.21" width="33" height="27.75"/><path class="cls-2" d="M120.49,112.53,106.62,63.59l13.82-47.93a4.08,4.08,0,0,0-3.84-5.44H89.53V117.94h27.12A4.07,4.07,0,0,0,120.49,112.53Z"/><path class="cls-2" d="M11.43,10.22a4.08,4.08,0,0,0-3.84,5.44L21.41,63.59,7.54,112.53a4.08,4.08,0,0,0,3.85,5.41H38.5V10.22Z"/><line class="cls-3" x1="55.89" y1="34.05" x2="55.89" y2="84.21"/><polygon class="cls-4" points="40.93 38.43 55.89 12.53 70.85 38.43 40.93 38.43"/><line class="cls-3" x1="72.64" y1="94.93" x2="72.64" y2="47.22"/><polygon class="cls-4" points="87.59 90.56 72.64 116.46 57.68 90.56 87.59 90.56"/></svg>