<svg id="Layer_1" data-name="Layer 1" xmlns="http://www.w3.org/2000/svg" viewBox="0 0 128.16 128.16"><defs><style>.cls-1{fill:gray;}.cls-2{fill:#00aeef;}.cls-3{fill:#f18a00;}</style></defs><polygon class="cls-1" points="18.2 50.85 0.58 50.85 0.58 78.6 17.99 78.6 22.06 64.23 18.2 50.85"/><polygon class="cls-1" points="128.87 50.85 111.13 50.85 107.27 64.23 111.34 78.6 128.87 78.6 128.87 50.85"/><path class="cls-2" d="M121.14,113.17l-9.8-34.57-4.07-14.37,3.86-13.38,10-34.54a4.08,4.08,0,0,0-3.84-5.44H90.18V118.58h27.11A4.07,4.07,0,0,0,121.14,113.17Z"/><path class="cls-2" d="M12.08,10.87a4.08,4.08,0,0,0-3.84,5.44l10,34.54,3.86,13.38L18,78.6l-9.8,34.57A4.07,4.07,0,0,0,12,118.58H39.15V10.87Z"/><polygon class="cls-3" points="88.6 61.32 64.67 19.87 40.73 61.32 60.66 61.32 60.66 109.58 68.67 109.58 68.67 61.32 88.6 61.32"/></svg>