<svg id="Layer_1" data-name="Layer 1" xmlns="http://www.w3.org/2000/svg" viewBox="0 0 128.16 128.16"><defs><style>.cls-1{fill:#00aeef;}.cls-2{fill:#fff;opacity:0.8;isolation:isolate;}.cls-3{fill:#f18a00;}.cls-4{fill:gray;}</style></defs><rect class="cls-1" x="1.37" y="36.74" width="59.12" height="59.12" rx="7.48"/><path class="cls-1" d="M47.17,17.61A16.25,16.25,0,0,1,30.93,33.86h0A16.26,16.26,0,0,1,14.65,17.64h0A16.23,16.23,0,0,1,30.86,1.37h0A16.24,16.24,0,0,1,47.17,17.54v.07Z"/><rect class="cls-2" x="31.49" y="31.49" width="96.6" height="96.6" rx="15.28"/><polygon points="104.84 36.33 104.84 41.71 97.62 41.71 97.62 36.33 93.75 36.33 93.75 51.07 97.62 51.07 97.62 44.88 104.84 44.88 104.84 51.07 108.72 51.07 108.72 36.33 104.84 36.33"/><path class="cls-3" d="M88.61,38.2a5.09,5.09,0,0,0-2-1.45,6.92,6.92,0,0,0-2.67-.48,6.65,6.65,0,0,0-3.56.9,5.69,5.69,0,0,0-2.16,2.58,10.16,10.16,0,0,0-.68,4c0,2.64.65,4.64,2,6a6.08,6.08,0,0,0,4,1.58h.34a6.43,6.43,0,0,0,3.56-.91,5.5,5.5,0,0,0,2.18-2.58,10.24,10.24,0,0,0,.66-4,11.27,11.27,0,0,0-.42-3.36A6.47,6.47,0,0,0,88.61,38.2Zm-7.33,5.59c0-2.41.48-3.43.88-3.87a2.19,2.19,0,0,1,1.63-.68h.1a2.41,2.41,0,0,1,1.84.8c.29.31.78,1.21.78,3.76s-.5,3.42-.81,3.76l-.13.13a2.49,2.49,0,0,1-3.51-.15C81.7,47.15,81.28,46.19,81.28,43.79Z"/><path class="cls-3" d="M49.37,38.2a5.13,5.13,0,0,0-2-1.45,6.74,6.74,0,0,0-2.67-.48,6.57,6.57,0,0,0-3.61.89,5.53,5.53,0,0,0-2.18,2.59,10.06,10.06,0,0,0-.64,4.06c0,2.62.65,4.62,2,6a6.11,6.11,0,0,0,4.05,1.58h.34a6.43,6.43,0,0,0,3.56-.91,5.46,5.46,0,0,0,2.16-2.58,9.88,9.88,0,0,0,.68-4,11.07,11.07,0,0,0-.43-3.37A6.51,6.51,0,0,0,49.37,38.2Zm-6.43,1.71a2.2,2.2,0,0,1,1.72-.68,2.26,2.26,0,0,1,1.82.81c.29.3.78,1.19.78,3.75s-.49,3.42-.8,3.76a2.27,2.27,0,0,1-1.83.79,2.38,2.38,0,0,1-1.82-.81c-.36-.37-.78-1.33-.78-3.74C42,41.84,42.33,40.54,42.94,39.91Z"/><path class="cls-3" d="M101.64,59.65a5.09,5.09,0,0,0-2-1.45,7.35,7.35,0,0,0-2.67-.48,6.61,6.61,0,0,0-3.56.9,5.69,5.69,0,0,0-2.16,2.58,10.19,10.19,0,0,0-.68,4q0,4,2,6a6.16,6.16,0,0,0,4.06,1.58h.32a6.49,6.49,0,0,0,3.56-.91,5.5,5.5,0,0,0,2.18-2.58,10.24,10.24,0,0,0,.66-4,11.31,11.31,0,0,0-.42-3.36A6.51,6.51,0,0,0,101.64,59.65Zm-7.33,5.59c0-2.41.48-3.44.88-3.87a2.19,2.19,0,0,1,1.63-.68h.09a2.38,2.38,0,0,1,1.85.8c.29.31.78,1.21.78,3.76S99,68.67,98.78,69l-.21.21a2.38,2.38,0,0,1-1.77.63A2.46,2.46,0,0,1,95.09,69C94.73,68.6,94.31,67.64,94.31,65.24Z"/><path class="cls-3" d="M118.29,115.52a6.47,6.47,0,0,0-1.22-2.3,5.09,5.09,0,0,0-2-1.45,6.92,6.92,0,0,0-2.67-.48,6.63,6.63,0,0,0-3.56.9,5.66,5.66,0,0,0-2.17,2.58,10,10,0,0,0-.67,4c0,2.68.65,4.68,2,6a6.16,6.16,0,0,0,4.06,1.58h.32a6.53,6.53,0,0,0,3.56-.91,5.5,5.5,0,0,0,2.18-2.58,10.29,10.29,0,0,0,.66-4A11.2,11.2,0,0,0,118.29,115.52Zm-7.67-.6a2.19,2.19,0,0,1,1.63-.68h.1a2.39,2.39,0,0,1,1.84.81c.29.31.78,1.21.78,3.75s-.5,3.43-.8,3.76a2.5,2.5,0,0,1-1.84.8,2.35,2.35,0,0,1-1.81-.82c-.36-.37-.78-1.33-.78-3.74S110.22,115.35,110.62,114.92Z"/><path class="cls-4" d="M50.56,68.83a2.14,2.14,0,1,0,3-3.1L47,59.5a2.14,2.14,0,1,0-3,3.1Z"/><path class="cls-4" d="M90.58,77.22l-9.92,9.61L65.43,78.12V63.74L75.9,53.61a2.14,2.14,0,1,0-3-3.08l-9.63,9.32-9.63-9.32a2.14,2.14,0,1,0-3,3.08L61.15,63.74V78.12L44.74,87.5a1.61,1.61,0,0,0-.3.21l-.17.14a2.11,2.11,0,0,0-.78,1.65v17.23a2.12,2.12,0,0,0,.78,1.65l.17.14a1.61,1.61,0,0,0,.3.21l17.49,10a2.21,2.21,0,0,0,1.06.28,2.24,2.24,0,0,0,1.06-.28l17.49-10a2.2,2.2,0,0,0,.25-.17l.18-.14a1.42,1.42,0,0,1,.13-.12.57.57,0,0,1,.11-.11l.19-.23.06-.1a2.69,2.69,0,0,0,.16-.29s0,0,0,0a2.21,2.21,0,0,0,.17-.8V90.43L93.56,80.29a2.14,2.14,0,1,0-3-3.07ZM63.29,114.39l-15.52-8.86V90.7l15.52-8.88L78.81,90.7v14.83Z"/><path class="cls-4" d="M125.05,77.27a2.15,2.15,0,0,0-3,0l-9.63,9.33-9.62-9.33a2.14,2.14,0,1,0-3,3.07l10.47,10.15v16.29a2.14,2.14,0,1,0,4.28,0V90.43L125,80.29A2.13,2.13,0,0,0,125.05,77.27Z"/><path class="cls-4" d="M100.35,92.64a2.14,2.14,0,0,0-2.14,2.14V105.7a2.14,2.14,0,1,0,4.28,0V94.78A2.14,2.14,0,0,0,100.35,92.64Z"/><path class="cls-4" d="M71.66,92.14l-7.16-4a2.14,2.14,0,1,0-2.08,3.74l7.16,4a2.14,2.14,0,0,0,2.08-3.74Z"/><path class="cls-4" d="M56,91.71a2.14,2.14,0,0,0-2.1,2.18l.16,8.19a2.13,2.13,0,0,0,2.14,2.1h0a2.15,2.15,0,0,0,2.1-2.18l-.16-8.19A2.16,2.16,0,0,0,56,91.71Z"/><path class="cls-4" d="M69.08,100.56,62,104.65a2.14,2.14,0,0,0,1.07,4,2,2,0,0,0,1.06-.29l7.11-4.09a2.14,2.14,0,1,0-2.13-3.71Z"/></svg>