<svg id="Layer_1" data-name="Layer 1" xmlns="http://www.w3.org/2000/svg" viewBox="0 0 128.16 128.16"><defs><style>.cls-1{fill:#00aeef;}.cls-2,.cls-7{fill:#fff;}.cls-2{opacity:0.8;isolation:isolate;}.cls-3{fill:#f18a00;}.cls-4{fill:gray;}.cls-5{opacity:0.9;}.cls-6{fill:#c32a1f;}</style></defs><rect class="cls-1" x="1.73" y="36.38" width="59.12" height="59.12" rx="7.48"/><path class="cls-1" d="M47.53,17.25A16.25,16.25,0,0,1,31.29,33.5h0A16.26,16.26,0,0,1,15,17.28h0A16.23,16.23,0,0,1,31.22,1h0A16.24,16.24,0,0,1,47.53,17.18v.07Z"/><rect class="cls-2" x="31.85" y="31.13" width="96.6" height="96.6" rx="15.28"/><polygon points="105.2 35.97 105.2 41.35 97.98 41.35 97.98 35.97 94.11 35.97 94.11 50.71 97.98 50.71 97.98 44.52 105.2 44.52 105.2 50.71 109.08 50.71 109.08 35.97 105.2 35.97"/><path class="cls-3" d="M89,37.84a5.09,5.09,0,0,0-2-1.45,6.92,6.92,0,0,0-2.67-.48,6.65,6.65,0,0,0-3.56.9,5.69,5.69,0,0,0-2.16,2.58,10.16,10.16,0,0,0-.68,4c0,2.64.65,4.64,2,6a6.08,6.08,0,0,0,4,1.58h.34a6.43,6.43,0,0,0,3.56-.91A5.5,5.5,0,0,0,90,47.49a10.24,10.24,0,0,0,.66-4,11.27,11.27,0,0,0-.42-3.36A6.47,6.47,0,0,0,89,37.84Zm-7.33,5.59c0-2.41.48-3.43.88-3.87a2.19,2.19,0,0,1,1.63-.68h.1a2.41,2.41,0,0,1,1.84.8c.29.31.78,1.21.78,3.76s-.5,3.42-.81,3.76l-.13.13a2.49,2.49,0,0,1-3.51-.15C82.06,46.79,81.64,45.83,81.64,43.43Z"/><path class="cls-3" d="M49.73,37.84a5.13,5.13,0,0,0-2-1.45A6.74,6.74,0,0,0,45,35.91a6.57,6.57,0,0,0-3.61.89,5.53,5.53,0,0,0-2.18,2.59,10.06,10.06,0,0,0-.64,4.06c0,2.62.65,4.62,2,6a6.06,6.06,0,0,0,4,1.58H45a6.43,6.43,0,0,0,3.56-.91,5.46,5.46,0,0,0,2.16-2.58,9.88,9.88,0,0,0,.68-4A11.07,11.07,0,0,0,51,40.13,6.51,6.51,0,0,0,49.73,37.84ZM43.3,39.55A2.2,2.2,0,0,1,45,38.87a2.26,2.26,0,0,1,1.82.81c.29.3.78,1.19.78,3.75s-.49,3.42-.8,3.76A2.27,2.27,0,0,1,45,48a2.38,2.38,0,0,1-1.82-.81c-.36-.37-.78-1.33-.78-3.74C42.39,41.48,42.69,40.18,43.3,39.55Z"/><path class="cls-3" d="M102,59.29a5.09,5.09,0,0,0-2-1.45,7.35,7.35,0,0,0-2.67-.48,6.61,6.61,0,0,0-3.56.9,5.69,5.69,0,0,0-2.16,2.58,10.19,10.19,0,0,0-.68,4q0,4,2,6a6.16,6.16,0,0,0,4.06,1.58h.32a6.49,6.49,0,0,0,3.56-.91A5.5,5.5,0,0,0,103,68.93a10.24,10.24,0,0,0,.66-4,11.31,11.31,0,0,0-.42-3.36A6.51,6.51,0,0,0,102,59.29Zm-7.33,5.59c0-2.41.48-3.44.88-3.87a2.19,2.19,0,0,1,1.63-.68h.09a2.38,2.38,0,0,1,1.85.8c.29.31.78,1.21.78,3.76s-.5,3.42-.76,3.71l-.21.21a2.38,2.38,0,0,1-1.77.63,2.46,2.46,0,0,1-1.71-.81C95.09,68.24,94.67,67.28,94.67,64.88Z"/><path class="cls-3" d="M118.65,115.16a6.47,6.47,0,0,0-1.22-2.3,5.09,5.09,0,0,0-2-1.45,6.92,6.92,0,0,0-2.67-.48,6.63,6.63,0,0,0-3.56.9,5.66,5.66,0,0,0-2.17,2.58,10,10,0,0,0-.67,4c0,2.68.65,4.68,2,6a6.16,6.16,0,0,0,4.06,1.58h.32a6.53,6.53,0,0,0,3.56-.91,5.5,5.5,0,0,0,2.18-2.58,10.29,10.29,0,0,0,.66-4A11.2,11.2,0,0,0,118.65,115.16Zm-7.67-.6a2.19,2.19,0,0,1,1.63-.68h.1a2.39,2.39,0,0,1,1.84.81c.29.31.78,1.21.78,3.75s-.5,3.43-.8,3.76a2.5,2.5,0,0,1-1.84.8,2.35,2.35,0,0,1-1.81-.82c-.36-.37-.78-1.33-.78-3.74S110.58,115,111,114.56Z"/><path class="cls-4" d="M50.92,68.47a2.14,2.14,0,1,0,3-3.1l-6.52-6.23a2.14,2.14,0,1,0-3,3.1Z"/><path class="cls-4" d="M90.94,76.86,81,86.47,65.79,77.76V63.38L76.26,53.25a2.14,2.14,0,1,0-3-3.08l-9.63,9.32L54,50.17a2.14,2.14,0,1,0-3,3.08L61.51,63.38V77.76L45.1,87.14a1.61,1.61,0,0,0-.3.21l-.17.14a2.11,2.11,0,0,0-.78,1.65v17.23a2.12,2.12,0,0,0,.78,1.65l.17.14a1.61,1.61,0,0,0,.3.21l17.49,10a2.21,2.21,0,0,0,1.06.28,2.24,2.24,0,0,0,1.06-.28l17.49-10a2.2,2.2,0,0,0,.25-.17l.18-.14a1.42,1.42,0,0,1,.13-.12.57.57,0,0,1,.11-.11l.19-.23.06-.1a2.69,2.69,0,0,0,.16-.29s0,0,0,0a2.21,2.21,0,0,0,.17-.8V90.07L93.92,79.94a2.14,2.14,0,1,0-3-3.08ZM63.65,114l-15.52-8.86V90.34l15.52-8.88,15.52,8.88v14.83Z"/><path class="cls-4" d="M125.41,76.91a2.15,2.15,0,0,0-3,0l-9.63,9.33-9.62-9.33a2.14,2.14,0,0,0-3,3.08l10.47,10.14v16.29a2.14,2.14,0,0,0,4.28,0V90.07l10.46-10.13A2.15,2.15,0,0,0,125.41,76.91Z"/><path class="cls-4" d="M100.71,92.28a2.14,2.14,0,0,0-2.14,2.14v10.92a2.14,2.14,0,0,0,4.28,0V94.42A2.14,2.14,0,0,0,100.71,92.28Z"/><path class="cls-4" d="M72,91.78l-7.16-4a2.14,2.14,0,1,0-2.08,3.74l7.16,4A2.14,2.14,0,0,0,72,91.78Z"/><path class="cls-4" d="M56.37,91.35a2.14,2.14,0,0,0-2.1,2.18l.16,8.19a2.13,2.13,0,0,0,2.14,2.1h0a2.15,2.15,0,0,0,2.1-2.18l-.16-8.19A2.16,2.16,0,0,0,56.37,91.35Z"/><path class="cls-4" d="M69.44,100.2l-7.11,4.09a2.14,2.14,0,0,0,1.07,4,2,2,0,0,0,1.06-.29l7.11-4.09a2.14,2.14,0,1,0-2.13-3.71Z"/><g class="cls-5"><circle class="cls-6" cx="27.52" cy="101.94" r="26.51"/></g><rect class="cls-7" x="22.57" y="80.83" width="9.9" height="27.23" rx="2.48"/><circle class="cls-7" cx="27.52" cy="117.96" r="4.95"/></svg>