<svg id="Layer_1" data-name="Layer 1" xmlns="http://www.w3.org/2000/svg" viewBox="0 0 128.16 128.16"><defs><style>.cls-1{fill:#6d6e70;}.cls-2{fill:#00aeef;}.cls-3{fill:#f18a00;}.cls-4{fill:#62bb46;}.cls-5{opacity:0.9;}.cls-6{fill:#c32a1f;}.cls-7{fill:#fff;}</style></defs><g id="Simulation"><path class="cls-1" d="M117.93,126.73H11.52a8.65,8.65,0,0,1-8.63-8.64V11.36a8.64,8.64,0,0,1,8.63-8.63H117.93a8.65,8.65,0,0,1,8.64,8.63V118.17A8.67,8.67,0,0,1,117.93,126.73ZM11.52,4a7.36,7.36,0,0,0-7.35,7.35V118.09a7.36,7.36,0,0,0,7.35,7.36H117.93a7.38,7.38,0,0,0,7.36-7.28V11.36A7.36,7.36,0,0,0,117.93,4Z"/></g><polygon class="cls-1" points="24.91 88.43 21.32 88.43 21.32 90.15 32.47 90.15 32.47 88.43 28.91 88.43 28.91 80.36 24.91 80.36 24.91 88.43"/><polygon class="cls-1" points="28.91 29.31 32.47 29.31 32.47 27.59 21.32 27.59 21.32 29.31 24.91 29.31 24.91 37.43 28.91 37.43 28.91 29.31"/><polygon class="cls-1" points="66.73 41.1 70.28 41.1 70.28 39.38 59.13 39.38 59.13 41.1 62.73 41.1 62.73 49.18 66.73 49.18 66.73 41.1"/><polygon class="cls-1" points="62.73 100.22 59.13 100.22 59.13 101.94 70.28 101.94 70.28 100.22 66.73 100.22 66.73 92.19 62.73 92.19 62.73 100.22"/><polygon class="cls-1" points="104.66 29.31 108.22 29.31 108.22 27.59 97.07 27.59 97.07 29.31 100.67 29.31 100.67 37.35 104.66 37.35 104.66 29.31"/><polygon class="cls-1" points="100.67 88.43 97.07 88.43 97.07 90.15 108.22 90.15 108.22 88.43 104.66 88.43 104.66 80.36 100.67 80.36 100.67 88.43"/><path class="cls-2" d="M107.06,37.35H98.31a4.36,4.36,0,0,0-4,4.51v34a4.36,4.36,0,0,0,4,4.52h8.75a4.36,4.36,0,0,0,4-4.52v-34A4.36,4.36,0,0,0,107.06,37.35Z"/><path class="cls-3" d="M31.31,37.43H22.56a4.35,4.35,0,0,0-4,4.43v34a4.36,4.36,0,0,0,4,4.52h8.75a4.36,4.36,0,0,0,4-4.44v-34A4.36,4.36,0,0,0,31.31,37.43Z"/><path class="cls-4" d="M69.09,49.18H60.37a4.36,4.36,0,0,0-4.2,4.52v34h0a4.37,4.37,0,0,0,4.2,4.51h8.8a4.36,4.36,0,0,0,4.19-4.52V53.61A4.35,4.35,0,0,0,69.09,49.18Z"/><g class="cls-5"><circle class="cls-6" cx="27.16" cy="102.3" r="26.51"/></g><rect class="cls-7" x="22.21" y="81.19" width="9.9" height="27.23" rx="2.48"/><circle class="cls-7" cx="27.16" cy="118.32" r="4.95"/></svg>