<svg id="Layer_1" data-name="Layer 1" xmlns="http://www.w3.org/2000/svg" viewBox="0 0 128.16 128.16"><defs><style>.cls-1{fill:#62bb46;fill-rule:evenodd;}.cls-2{fill:#6d6e70;}</style></defs><path class="cls-1" d="M30.08,43.4a2.9,2.9,0,0,0,4.08,0L46.38,31.17a2.88,2.88,0,0,0-4.07-4.07L32.12,37.28,26,31.17a2.88,2.88,0,1,0-4.07,4.08ZM34.16,60A25.93,25.93,0,1,0,8.23,34.05,25.93,25.93,0,0,0,34.16,60Z"/><g id="Scatter"><g id="Simulation"><path class="cls-2" d="M118,126.72H11.51A8.57,8.57,0,0,1,3,118.17V11.29a8.56,8.56,0,0,1,8.56-8.55H118a8.57,8.57,0,0,1,8.56,8.55V118.17A8.58,8.58,0,0,1,118,126.72ZM11.51,4a7.29,7.29,0,0,0-7.28,7.27V118.17a7.29,7.29,0,0,0,7.28,7.27H118a7.29,7.29,0,0,0,7.28-7.27V11.29A7.29,7.29,0,0,0,118,4Z"/></g></g><path class="cls-1" d="M91.23,43.4a2.89,2.89,0,0,0,4.07,0l12.22-12.23a2.88,2.88,0,0,0-3.92-4.23l-.15.16L93.26,37.28l-6.11-6.11a2.88,2.88,0,1,0-4.07,4.08ZM95.3,60A25.93,25.93,0,1,0,69.37,34.05h0A25.93,25.93,0,0,0,95.3,60Z"/><path class="cls-1" d="M30.08,104.75a2.9,2.9,0,0,0,4.08,0L46.38,92.53a2.88,2.88,0,0,0-4.07-4.08L32.12,98.65,26,92.54a2.89,2.89,0,1,0-4.07,4.11Zm4.08,16.59A25.93,25.93,0,1,0,8.23,95.41,25.93,25.93,0,0,0,34.16,121.34Z"/><path class="cls-1" d="M91.23,104.75a2.89,2.89,0,0,0,4.07,0l12.22-12.22a2.88,2.88,0,0,0-4.07-4.08L93.26,98.65l-6.11-6.12a2.9,2.9,0,1,0-4.07,4.12h0Zm4.07,16.59A25.93,25.93,0,1,0,69.37,95.41h0A25.93,25.93,0,0,0,95.3,121.34Z"/></svg>