<svg id="Layer_1" data-name="Layer 1" xmlns="http://www.w3.org/2000/svg" viewBox="0 0 128.16 128.16"><defs><style>.cls-1{fill:#00aeef;fill-rule:evenodd;}.cls-2{fill:#f18a00;}.cls-3{fill:#fff;}</style></defs><path class="cls-1" d="M5.74,125.09H17.28a4,4,0,0,0,4-4V109.69a4,4,0,0,0-4-4H13.91v-4.16a2,2,0,0,1,2-2.07h25c1.62,0,1.86,2.22,1.86,2.22v4H38.48a4,4,0,0,0-4,4V121.2a4,4,0,0,0,4,4H50a4,4,0,0,0,4-4V109.69a4,4,0,0,0-4-4H46.85v-4.2s.28-6-5.08-6H30.14V87.55h8.34a4,4,0,0,0,4-4v-21a4,4,0,0,0-4-4H30.14V54a2.07,2.07,0,0,1,2-2.1H61.93V58.7h-9a4,4,0,0,0-4,4V83.82a4,4,0,0,0,4,4H74.07a4,4,0,0,0,4-4V62.55a4,4,0,0,0-4-4H66.14V51.87H95.07c1.62,0,2.18,2,2.18,2V58.7H88.52a4,4,0,0,0-4,4V83.82a4,4,0,0,0,4,4h8.13v7.93H86c-5.16,0-5.08,6.11-5.08,6.11v4.25h-4a4,4,0,0,0-4,4V121.6a4,4,0,0,0,4,4H88.52a4,4,0,0,0,4-4V109.69a4,4,0,0,0-4-4H85v-4.16a2,2,0,0,1,2-2.07h25.24c1.59,0,1.87,2.22,1.87,2.22v4h-4.33a4,4,0,0,0-4,4V121.2a4,4,0,0,0,4,4h11.55a4,4,0,0,0,4-4V109.69a4,4,0,0,0-4-4h-3.18v-4.2s.28-6-5.08-6H101.22V87.55h8.33a4,4,0,0,0,4-4v-21a4,4,0,0,0-4-4h-8.33V53.81s.28-6.19-5.2-6.19H66.26V40H80.11A3.09,3.09,0,0,0,83.2,37h0V5.2a3.09,3.09,0,0,0-3.09-3.09H48.36a3.09,3.09,0,0,0-3.1,3.09V37A3.09,3.09,0,0,0,48.36,40H62.25v7.7H31.17c-5.35,0-5.35,6.27-5.35,6.27V58.7H17.28a4,4,0,0,0-4,4V83.82a4,4,0,0,0,4,4h8.14v7.93H14.74c-5.15,0-5.07,6.11-5.07,6.11v4.25h-4a4,4,0,0,0-4,4V121.6A4,4,0,0,0,5.74,125.09Z"/><circle class="cls-2" cx="90.34" cy="89.97" r="35.24"/><path class="cls-3" d="M90.34,127.35A37.39,37.39,0,1,1,127.73,90h0A37.39,37.39,0,0,1,90.34,127.35Zm0-70.44A33.1,33.1,0,1,0,123.44,90v0A33.09,33.09,0,0,0,90.34,56.91Z"/><path class="cls-3" d="M110.86,91.24,92.49,70a2.94,2.94,0,0,0-2.3-1.08A3.07,3.07,0,0,0,87.88,70L69.47,91.12a2.68,2.68,0,0,0-.71,1.78c0,.76.51,1.51,1.94,1.51H79v13.26A3.33,3.33,0,0,0,82.29,111H98.08a3.34,3.34,0,0,0,3.34-3.33V94.41h8.29c1.43,0,1.91-.75,1.91-1.51A2.54,2.54,0,0,0,110.86,91.24Z"/></svg>