<svg id="Layer_1" data-name="Layer 1" xmlns="http://www.w3.org/2000/svg" viewBox="0 0 128.16 128.16"><defs><style>.cls-1{fill:#62bb46;}</style></defs><path class="cls-1" d="M96,107.46H18.32V22H78.94L98.09,2.84H11.73C5.73,2.84.88,8.16.88,14.73v100c0,6.57,4.85,11.89,10.85,11.89h90.93c6,0,10.81-5.32,10.81-11.89V49.55L96,68.73Z"/><path class="cls-1" d="M125.13,8,125,7.82a12.45,12.45,0,0,0-17.6,0l-49,49.05L42.73,41.22a11.61,11.61,0,0,0-16.42,0h0l-.17.17a12.44,12.44,0,0,0,0,17.58h0l6.7,6.7L43.5,76.46,52,85A9.87,9.87,0,0,0,66,85l.05,0,59.19-60.41A11.76,11.76,0,0,0,125.13,8Z"/></svg>