<svg id="Layer_1" data-name="Layer 1" xmlns="http://www.w3.org/2000/svg" viewBox="0 0 128.16 128.16"><defs><style>.cls-1{fill:#62bb46;}.cls-2{opacity:0.9;}.cls-3{fill:#c32a1f;}.cls-4{fill:#fff;}</style></defs><path class="cls-1" d="M96,107.46H18.31V22H78.94L98.09,2.84H11.69C5.72,2.84.88,8.16.88,14.73v100c0,6.57,4.84,11.89,10.81,11.89h90.92c6,0,10.82-5.32,10.82-11.89V49.55L96,68.73Z"/><path class="cls-1" d="M125.13,8,125,7.82a12.45,12.45,0,0,0-17.6,0l-49,49.05L42.68,41.22a11.61,11.61,0,0,0-16.42,0h0l-.17.17a12.43,12.43,0,0,0,0,17.58h0l6.7,6.7L43.5,76.46,52,85A9.86,9.86,0,0,0,66,85l.06,0L125.2,24.56A11.75,11.75,0,0,0,125.13,8Z"/><g class="cls-2"><path class="cls-3" d="M6,126.62c-4.52,0-6.37-3.16-4.11-7L26.51,77.46c2.26-3.86,6-3.86,8.22,0l24.66,42.12c2.26,3.86.41,7-4.11,7Z"/></g><rect class="cls-4" x="26.9" y="89.45" width="7.43" height="20.44" rx="1.86"/><circle class="cls-4" cx="30.62" cy="117.33" r="3.72"/></svg>