<svg id="Layer_1" data-name="Layer 1" xmlns="http://www.w3.org/2000/svg" xmlns:xlink="http://www.w3.org/1999/xlink" viewBox="0 0 128.16 128.16"><defs><style>.cls-1{fill:#fcc900;}.cls-2{opacity:0.8;fill:url(#linear-gradient);}.cls-3,.cls-4{fill:#fff;}.cls-4{stroke:#fff;stroke-miterlimit:10;stroke-width:5.98px;}.cls-5{fill:#00aeef;}.cls-6{fill:#62bb46;}.cls-7{fill:#929497;}.cls-8{fill:#f18a00;}.cls-9{opacity:0.34;}.cls-10{fill:gray;}</style><linearGradient id="linear-gradient" x1="9.21" y1="57.8" x2="92.7" y2="57.8" gradientUnits="userSpaceOnUse"><stop offset="0.54" stop-color="#fff"/><stop offset="1" stop-color="#fff" stop-opacity="0"/></linearGradient></defs><polygon class="cls-1" points="9.21 1.73 92.7 5.97 92.7 113.88 9.21 94.74 9.21 1.73"/><path class="cls-2" d="M9.21,1.73,92.7,6V113.88L9.21,94.74Z"/><g id="IndividualSimulationComparison"><path class="cls-3" d="M120.5,62.13,77.33,59.86V16.7a5,5,0,0,0-10,0V59.34L24.71,57.11a5,5,0,0,0-.52,10l43.18,2.26v43.17a5,5,0,0,0,10,0V69.84L120,72.08h.27a5,5,0,0,0,.25-10Z"/><path class="cls-4" d="M38.06,33.46a2.19,2.19,0,0,0-2.32,2.2V53.73a2.47,2.47,0,0,0,2.32,2.43l18.07,1a2.17,2.17,0,0,0,2.31-2.19V36.85a2.47,2.47,0,0,0-2.31-2.44Z"/><path class="cls-4" d="M47.09,19.46a5.54,5.54,0,0,0-5.89,5.59,6.3,6.3,0,0,0,5.89,6.21A5.55,5.55,0,0,0,53,25.67,6.29,6.29,0,0,0,47.09,19.46Z"/><path class="cls-4" d="M88.57,36.11a2.18,2.18,0,0,0-2.32,2.19V56.38a2.47,2.47,0,0,0,2.32,2.43l18.07.95A2.18,2.18,0,0,0,109,57.57V39.49a2.46,2.46,0,0,0-2.31-2.43Z"/><path class="cls-4" d="M97.6,22.1a5.55,5.55,0,0,0-5.9,5.59,6.29,6.29,0,0,0,5.9,6.21,5.54,5.54,0,0,0,5.9-5.59A6.29,6.29,0,0,0,97.6,22.1Z"/><path class="cls-4" d="M38.06,83.91a2.17,2.17,0,0,0-2.32,2.19v18.07a2.48,2.48,0,0,0,2.32,2.44l18.07,1a2.18,2.18,0,0,0,2.31-2.2V87.29a2.47,2.47,0,0,0-2.31-2.44Z"/><path class="cls-4" d="M47.09,69.9a5.54,5.54,0,0,0-5.89,5.59,6.29,6.29,0,0,0,5.89,6.21A5.55,5.55,0,0,0,53,76.11,6.29,6.29,0,0,0,47.09,69.9Z"/><path class="cls-4" d="M88.57,86.55a2.19,2.19,0,0,0-2.32,2.2v18.07a2.48,2.48,0,0,0,2.32,2.44l18.07.94A2.17,2.17,0,0,0,109,108V89.94a2.47,2.47,0,0,0-2.31-2.44Z"/><path class="cls-4" d="M97.6,72.55a5.55,5.55,0,0,0-5.9,5.59,6.3,6.3,0,0,0,5.9,6.21,5.55,5.55,0,0,0,5.9-5.59A6.29,6.29,0,0,0,97.6,72.55Z"/></g><g id="IndividualSimulationComparison-2" data-name="IndividualSimulationComparison"><path class="cls-5" d="M120.36,65,74.49,62.56V16.7a2.14,2.14,0,1,0-4.28,0V62.34L24.57,60a2.14,2.14,0,0,0-.23,4.27l45.87,2.4v45.87a2.14,2.14,0,1,0,4.28,0V66.85l45.64,2.39h.12a2.14,2.14,0,0,0,.11-4.27Z"/><path class="cls-6" d="M38.06,33.46a2.19,2.19,0,0,0-2.32,2.2V53.73a2.47,2.47,0,0,0,2.32,2.43l18.07,1a2.17,2.17,0,0,0,2.31-2.19V36.85a2.47,2.47,0,0,0-2.31-2.44Z"/><path class="cls-6" d="M47.09,19.46a5.54,5.54,0,0,0-5.89,5.59,6.3,6.3,0,0,0,5.89,6.21A5.55,5.55,0,0,0,53,25.67,6.29,6.29,0,0,0,47.09,19.46Z"/><path class="cls-5" d="M88.57,36.11a2.18,2.18,0,0,0-2.32,2.19V56.38a2.47,2.47,0,0,0,2.32,2.43l18.07.95A2.18,2.18,0,0,0,109,57.57V39.49a2.46,2.46,0,0,0-2.31-2.43Z"/><path class="cls-5" d="M97.6,22.1a5.55,5.55,0,0,0-5.9,5.59,6.29,6.29,0,0,0,5.9,6.21,5.54,5.54,0,0,0,5.9-5.59A6.29,6.29,0,0,0,97.6,22.1Z"/><path class="cls-7" d="M38.06,83.91a2.17,2.17,0,0,0-2.32,2.19v18.07a2.48,2.48,0,0,0,2.32,2.44l18.07,1a2.18,2.18,0,0,0,2.31-2.2V87.29a2.47,2.47,0,0,0-2.31-2.44Z"/><path class="cls-7" d="M47.09,69.9a5.54,5.54,0,0,0-5.89,5.59,6.29,6.29,0,0,0,5.89,6.21A5.55,5.55,0,0,0,53,76.11,6.29,6.29,0,0,0,47.09,69.9Z"/><path class="cls-8" d="M88.57,86.55a2.19,2.19,0,0,0-2.32,2.2v18.07a2.48,2.48,0,0,0,2.32,2.44l18.07.94A2.17,2.17,0,0,0,109,108V89.94a2.47,2.47,0,0,0-2.31-2.44Z"/><path class="cls-8" d="M97.6,72.55a5.55,5.55,0,0,0-5.9,5.59,6.3,6.3,0,0,0,5.9,6.21,5.55,5.55,0,0,0,5.9-5.59A6.29,6.29,0,0,0,97.6,72.55Z"/></g><polygon class="cls-1" points="9.21 1.73 39.4 21.56 39.4 119.2 39.4 127.73 9.21 99.36 9.21 1.73"/><g class="cls-9"><polyline class="cls-1" points="10.66 2.68 39.4 21.56 39.4 119.2 39.4 127.73 10.12 100.4"/><polygon class="cls-10" points="38.85 128.32 8.97 100.44 10.08 99.25 38.59 125.86 38.59 22 9.54 2.91 10.43 1.56 39.85 20.88 40.21 21.56 40.21 127.73 38.85 128.32"/></g></svg>