<?xml version="1.0" encoding="utf-8"?>
<!-- Generator: Adobe Illustrator 24.3.0, SVG Export Plug-In . SVG Version: 6.00 Build 0)  -->
<svg version="1.1" id="Layer_1" xmlns="http://www.w3.org/2000/svg" xmlns:xlink="http://www.w3.org/1999/xlink" x="0px" y="0px"
	 viewBox="0 0 128.2 128.2" style="enable-background:new 0 0 128.2 128.2;" xml:space="preserve">
<style type="text/css">
	.st0{fill:#00AEEF;}
	.st1{fill:url(#SVGID_1_);}
	.st2{fill:#62BB46;}
	.st3{fill:url(#SVGID_2_);}
	.st4{fill:url(#SVGID_3_);}
</style>
<path class="st0" d="M31,57.3c0,0,0-27.1,0-32.4s9.5-14,31-14s28.5,4.7,28.5,17.3c0,3.3,0,27.1,0,27.1H75.1V36.7h-26v20.6
	C49.1,57.3,31,57.3,31,57.3z"/>
<polygon class="st0" points="51.7,55.9 57,51.1 57,39.1 51.7,39.1 "/>
<radialGradient id="SVGID_1_" cx="69.2191" cy="105.8333" r="28.501" fx="83.3595" fy="81.0875" gradientTransform="matrix(1 0 0 -1 0 130)" gradientUnits="userSpaceOnUse">
	<stop  offset="0.1235" style="stop-color:#FFFFFF"/>
	<stop  offset="1" style="stop-color:#00AEEF"/>
</radialGradient>
<path class="st1" d="M36.8,14.4c0,0,7.4-6.5,9.1-7.3s5.8-4,21.2-4c18.4,0,23.2,3.1,26.8,5.6c3.6,2.5,3.9,9.6,3.9,9.6v32.6l-4.2,5
	c0,0,0.9-24.9,0.3-32.4C93.2,14.8,86,8.7,64.8,8.7S36.8,14.4,36.8,14.4z"/>
<path class="st2" d="M26.1,69.7c0.4-1.2-1.1-2.1-1.9-1.2C20,73.1,14.6,81.1,15.1,91c0.8,15.9,9.5,35.7,43.5,35.7
	s45.5-12.8,49.1-16.5s6.7-13.7,5-22.9s-9.5-13.1-11.7-13.1s-4.2,1.4-4.4,4.2c-0.2,2-0.1,8.4-0.1,11.8c0,1.9-0.5,3.8-1.7,5.4
	c-1.5,2.1-4.2,4.4-8.6,4.9c-6,0.6-9.9-0.3-12.4-1.4c-2.5-1.2-4.1-3.7-4.1-6.5c-0.1-3.4-0.2-8.7-0.2-11.1c0-3.6-4.5-5.9-7.3-5.9
	s-6.9,1.3-6.9,5s-1.1,9.3-1.1,12.1c0,2.8-5.4,8.8-14.4,8.8c-8,0-12.5-4.1-13.9-8.2c-1.8-5.4-1.4-11.5-1.4-15.9
	C24.6,74.6,25.3,71.9,26.1,69.7z"/>
<radialGradient id="SVGID_2_" cx="39.9071" cy="155.6141" r="14.8655" fx="36.2878" fy="142.5821" gradientTransform="matrix(1 0 0 -1.4777 0 311.3427)" gradientUnits="userSpaceOnUse">
	<stop  offset="0" style="stop-color:#FFFFFF"/>
	<stop  offset="0.7297" style="stop-color:#62BB46"/>
</radialGradient>
<path class="st3" d="M36.8,64.7c0,0-1.9-1-4.9,1c-5.7,3.9-4.3,15.7-4.2,22c0.1,3.6,4.2,11.2,12,10.6s11-3.8,12.7-9.6
	c0,0-15.6,3.8-15.6-5.1C36.8,71.6,36.8,64.7,36.8,64.7L36.8,64.7z"/>
<radialGradient id="SVGID_3_" cx="75.9913" cy="48.8925" r="17.535" fx="74.5571" fy="49.4649" gradientTransform="matrix(1 0 0 -1 0 130)" gradientUnits="userSpaceOnUse">
	<stop  offset="0" style="stop-color:#FFFFFF"/>
	<stop  offset="0.1085" style="stop-color:#F9FCF8"/>
	<stop  offset="0.2702" style="stop-color:#E8F5E3"/>
	<stop  offset="0.4649" style="stop-color:#CBE9C2"/>
	<stop  offset="0.6855" style="stop-color:#A4D894"/>
	<stop  offset="0.9248" style="stop-color:#73C25A"/>
	<stop  offset="1" style="stop-color:#62BB46"/>
</radialGradient>
<path class="st4" d="M58,74.2l7.1-7.8c1.4-1.6,3.4-2.4,5.6-2.4c0.6,0,1.4,0,2.2,0.1c4.5,0.2,6.8,2.8,6.8,5.9c0,2.2-0.1,11.3,0,13.5
	s1.3,6.4,5.3,6.7c4,0.3,8.9-1.1,8.9-1.1s0.3,6.4-7,8.4S73,97.2,72.5,91.9c-0.6-6.4-0.8-9.7-1.1-12.6c-0.3-2.9-3.1-6.1-7.4-6
	C61.3,73.4,58,74.2,58,74.2z"/>
</svg>
