<svg id="Layer_1" data-name="Layer 1" xmlns="http://www.w3.org/2000/svg" xmlns:xlink="http://www.w3.org/1999/xlink" viewBox="0 0 31.68 31.68"><defs><style>.cls-1,.cls-10{fill:#fcc900;}.cls-2{opacity:0.8;fill:url(#linear-gradient);}.cls-3,.cls-5{fill:none;stroke-linecap:round;stroke-linejoin:round;}.cls-3,.cls-4{stroke:#fff;}.cls-3{stroke-width:2.5px;}.cls-4{fill:#fff;stroke-miterlimit:10;stroke-width:1.5px;}.cls-5{stroke:#00aeef;stroke-width:1.07px;}.cls-6{fill:#62bb46;}.cls-7{fill:#00aeef;}.cls-8{fill:#929497;}.cls-9{fill:#f18a00;}.cls-10{stroke:gray;stroke-linecap:square;stroke-linejoin:bevel;stroke-width:0.41px;opacity:0.34;}</style><linearGradient id="linear-gradient" y1="14.14" x2="23.5" y2="14.14" gradientUnits="userSpaceOnUse"><stop offset="0.54" stop-color="#fff"/><stop offset="1" stop-color="#fff" stop-opacity="0"/></linearGradient></defs><polygon class="cls-1" points="0 0.07 20.95 1.13 20.95 28.21 0 23.4 0 0.07"/><polygon class="cls-1" points="20.95 17.16 23.5 17.61 23.5 27.17 20.95 26.73 20.95 17.16"/><path class="cls-2" d="M0,.07,21,1.13V28.21L0,23.4ZM21,26.73l2.55.44V17.61L21,17.16Z"/><g id="IndividualSimulationComparison"><line class="cls-3" x1="3.82" y1="15.21" x2="27.86" y2="16.47"/><line class="cls-3" x1="15.84" y1="3.82" x2="15.84" y2="27.86"/><path class="cls-4" d="M7.24,8a.54.54,0,0,0-.58.55v4.53a.63.63,0,0,0,.58.62l4.53.23a.54.54,0,0,0,.58-.55V8.88a.61.61,0,0,0-.58-.61Z"/><path class="cls-4" d="M9.5,4.52A1.39,1.39,0,0,0,8,5.92,1.6,1.6,0,0,0,9.5,7.48,1.39,1.39,0,0,0,11,6.07,1.57,1.57,0,0,0,9.5,4.52Z"/><path class="cls-4" d="M19.91,8.69a.55.55,0,0,0-.58.55v4.54a.62.62,0,0,0,.58.61l4.53.24a.55.55,0,0,0,.58-.55V9.54a.62.62,0,0,0-.58-.61Z"/><path class="cls-4" d="M22.18,5.18a1.39,1.39,0,0,0-1.48,1.4,1.57,1.57,0,0,0,1.48,1.56,1.4,1.4,0,0,0,1.48-1.4A1.58,1.58,0,0,0,22.18,5.18Z"/><path class="cls-4" d="M7.24,20.69a.54.54,0,0,0-.58.55v4.53a.62.62,0,0,0,.58.61l4.53.24a.54.54,0,0,0,.58-.55V21.53a.62.62,0,0,0-.58-.61Z"/><path class="cls-4" d="M9.5,17.17A1.4,1.4,0,0,0,8,18.57,1.58,1.58,0,0,0,9.5,20.13,1.39,1.39,0,0,0,11,18.73,1.57,1.57,0,0,0,9.5,17.17Z"/><path class="cls-4" d="M19.91,21.35a.54.54,0,0,0-.58.55v4.53a.63.63,0,0,0,.58.62l4.53.23a.54.54,0,0,0,.58-.55V22.2a.61.61,0,0,0-.58-.61Z"/><path class="cls-4" d="M22.18,17.84a1.38,1.38,0,0,0-1.48,1.4,1.59,1.59,0,0,0,1.48,1.56,1.4,1.4,0,0,0,1.48-1.41A1.58,1.58,0,0,0,22.18,17.84Z"/></g><g id="IndividualSimulationComparison-2" data-name="IndividualSimulationComparison"><line class="cls-5" x1="3.82" y1="15.21" x2="27.86" y2="16.47"/><line class="cls-5" x1="15.84" y1="3.82" x2="15.84" y2="27.86"/><path class="cls-6" d="M7.24,8a.54.54,0,0,0-.58.55v4.53a.63.63,0,0,0,.58.62l4.53.23a.54.54,0,0,0,.58-.55V8.88a.61.61,0,0,0-.58-.61Z"/><path class="cls-6" d="M9.5,4.52A1.39,1.39,0,0,0,8,5.92,1.6,1.6,0,0,0,9.5,7.48,1.39,1.39,0,0,0,11,6.07,1.57,1.57,0,0,0,9.5,4.52Z"/><path class="cls-7" d="M19.91,8.69a.55.55,0,0,0-.58.55v4.54a.62.62,0,0,0,.58.61l4.53.24a.55.55,0,0,0,.58-.55V9.54a.62.62,0,0,0-.58-.61Z"/><path class="cls-7" d="M22.18,5.18a1.39,1.39,0,0,0-1.48,1.4,1.57,1.57,0,0,0,1.48,1.56,1.4,1.4,0,0,0,1.48-1.4A1.58,1.58,0,0,0,22.18,5.18Z"/><path class="cls-8" d="M7.24,20.69a.54.54,0,0,0-.58.55v4.53a.62.62,0,0,0,.58.61l4.53.24a.54.54,0,0,0,.58-.55V21.53a.62.62,0,0,0-.58-.61Z"/><path class="cls-8" d="M9.5,17.17A1.4,1.4,0,0,0,8,18.57,1.58,1.58,0,0,0,9.5,20.13,1.39,1.39,0,0,0,11,18.73,1.57,1.57,0,0,0,9.5,17.17Z"/><path class="cls-9" d="M19.91,21.35a.54.54,0,0,0-.58.55v4.53a.63.63,0,0,0,.58.62l4.53.23a.54.54,0,0,0,.58-.55V22.2a.61.61,0,0,0-.58-.61Z"/><path class="cls-9" d="M22.18,17.84a1.38,1.38,0,0,0-1.48,1.4,1.59,1.59,0,0,0,1.48,1.56,1.4,1.4,0,0,0,1.48-1.41A1.58,1.58,0,0,0,22.18,17.84Z"/></g><polygon class="cls-1" points="0 0.07 7.57 5.04 7.57 29.54 7.57 31.68 0 24.56 0 0.07"/><polyline class="cls-10" points="0.36 0.31 7.57 5.04 7.57 29.54 7.57 31.68 0.23 24.82"/></svg>