<svg id="Layer_1" data-name="Layer 1" xmlns="http://www.w3.org/2000/svg" viewBox="0 0 128.16 128.16"><defs><style>.cls-1{fill:gray;}.cls-2{fill:#fff;}.cls-3{fill:#f18a00;}</style></defs><g id="Simulation_Run_Ribbon" data-name="Simulation Run Ribbon"><path class="cls-1" d="M64.37,1.73A62.64,62.64,0,1,0,127,64.37,62.63,62.63,0,0,0,64.37,1.73Z"/><path class="cls-2" d="M48.25,105c-1.4,0-2.88-1-2.88-3.64V27.29c0-2.68,1.48-3.6,2.88-3.6a4.91,4.91,0,0,1,3.2,1.44L91.45,60a5.63,5.63,0,0,1,0,8.72l-40,34.88A5,5,0,0,1,48.25,105Z"/><circle class="cls-3" cx="90.05" cy="90.05" r="35.52"/><path class="cls-2" d="M90.05,127.73a37.68,37.68,0,1,1,37.68-37.68h0A37.68,37.68,0,0,1,90.05,127.73Zm0-71a33.36,33.36,0,1,0,33.36,33.36v0A33.36,33.36,0,0,0,90.05,56.73Z"/><polygon class="cls-2" points="95.05 77.57 86.57 77.57 87.45 68.69 94.21 68.69 95.05 77.57"/><polygon class="cls-2" points="84.61 78.05 78.61 84.05 72.93 77.17 77.73 72.41 84.61 78.05"/><polygon class="cls-2" points="96.25 102.81 102.25 96.81 107.93 103.69 103.17 108.45 96.25 102.81"/><polygon class="cls-2" points="77.57 85.81 77.57 94.29 68.69 93.45 68.69 86.69 77.57 85.81"/><polygon class="cls-2" points="103.29 95.05 103.29 86.57 112.17 87.45 112.17 94.21 103.29 95.05"/><polygon class="cls-2" points="78.05 96.25 84.05 102.25 77.17 107.93 72.41 103.17 78.05 96.25"/><polygon class="cls-2" points="102.81 84.61 96.81 78.61 103.69 72.93 108.45 77.73 102.81 84.61"/><polygon class="cls-2" points="85.81 103.29 94.29 103.29 93.45 112.17 86.69 112.17 85.81 103.29"/><polygon class="cls-2" points="95.05 77.57 86.57 77.57 87.45 68.69 94.21 68.69 95.05 77.57"/><path class="cls-2" d="M101.65,79.21A16,16,0,1,1,79,79.39l.19-.18a15.8,15.8,0,0,1,22.34-.1Zm-17,5.48a8,8,0,1,0,.21-.21Z"/></g></svg>