<svg id="Layer_1" data-name="Layer 1" xmlns="http://www.w3.org/2000/svg" viewBox="0 0 128.16 128.16"><defs><style>.cls-1{fill:#c7eafb;}.cls-2{fill:#00aeef;}.cls-3{fill:#f18a00;}</style></defs><path class="cls-1" d="M21.64,124.77a11.88,11.88,0,0,1-11.74-12h0V19A11.87,11.87,0,0,1,21.64,7h91.23a11.87,11.87,0,0,1,11.74,12h0v93.83a11.86,11.86,0,0,1-11.74,12h0Z"/><path class="cls-2" d="M112.86,9.83a9,9,0,0,1,8.92,9.08V112.8a9,9,0,0,1-8.86,9.14H21.64a9,9,0,0,1-8.91-9.09V19a9,9,0,0,1,8.86-9.14h91.28m0-5.65H21.64A14.68,14.68,0,0,0,7.07,19h0V112.8a14.68,14.68,0,0,0,14.57,14.79h91.23a14.68,14.68,0,0,0,14.56-14.79V19A14.68,14.68,0,0,0,112.86,4.18h0Z"/><path class="cls-3" d="M16,19.32H5.25A3.26,3.26,0,0,1,2,16.05H2V5.15A3.25,3.25,0,0,1,5.24,1.87H16A3.25,3.25,0,0,1,19.2,5.15V16A3.26,3.26,0,0,1,16,19.32Z"/></svg>