<svg id="Layer_1" data-name="Layer 1" xmlns="http://www.w3.org/2000/svg" viewBox="0 0 128.16 128.16"><defs><style>.cls-1{fill:#c7eafb;}.cls-2{fill:#00aeef;}.cls-3{fill:#f18a00;}.cls-4{fill:#fff;}</style></defs><path class="cls-1" d="M21.65,124.76a11.86,11.86,0,0,1-11.74-12V19A11.86,11.86,0,0,1,21.65,7h91.23a11.87,11.87,0,0,1,11.74,12h0v93.83a11.86,11.86,0,0,1-11.72,12h0Z"/><path class="cls-2" d="M112.87,9.83a9,9,0,0,1,8.92,9.08V112.8a9,9,0,0,1-8.86,9.14H21.65a9,9,0,0,1-8.91-9.09V19A9,9,0,0,1,21.6,9.83h91.28m0-5.65H21.65A14.68,14.68,0,0,0,7.08,19h0V112.8a14.68,14.68,0,0,0,14.57,14.79h91.23a14.69,14.69,0,0,0,14.56-14.79V19A14.68,14.68,0,0,0,112.87,4.18h0Z"/><path class="cls-3" d="M16,19.32H5.26A3.25,3.25,0,0,1,2,16.05H2V5.15A3.24,3.24,0,0,1,5.25,1.87H16a3.26,3.26,0,0,1,3.23,3.28V16A3.27,3.27,0,0,1,16,19.32Z"/><circle class="cls-2" cx="84.08" cy="84.08" r="42.17"/><path class="cls-4" d="M84.08,128.81a44.73,44.73,0,1,1,44.73-44.73A44.73,44.73,0,0,1,84.08,128.81Zm0-84.33a39.6,39.6,0,1,0,39.57,39.63v0A39.64,39.64,0,0,0,84.08,44.48Z"/><path class="cls-4" d="M83.89,99.87A16.61,16.61,0,1,1,100.5,83.26h0A16.61,16.61,0,0,1,83.89,99.87Zm0-41.52c-17,0-33.24,19.3-33.24,24.91s16.19,24.92,33.22,24.92,33.22-19.3,33.22-24.92S100.92,58.35,83.89,58.35Zm0,16.61a8.32,8.32,0,0,1-8.31,8.3A8.31,8.31,0,1,0,83.9,75Z"/></svg>