<svg id="Layer_1" data-name="Layer 1" xmlns="http://www.w3.org/2000/svg" viewBox="0 0 128.16 128.16"><defs><style>.cls-1{fill:gray;fill-rule:evenodd;}.cls-2{fill:#f18a00;}</style></defs><path class="cls-1" d="M75.51,25.58V10.83A10.22,10.22,0,0,0,65.56.65H10.65a10.22,10.22,0,0,0-10,10.18V91.14a9.92,9.92,0,0,0,10,9.84H43.38V95.65H10.65A4.58,4.58,0,0,1,6,91.15V10.83A4.87,4.87,0,0,1,10.65,6h55a4.88,4.88,0,0,1,4.61,4.84V25.58Z"/><path class="cls-2" d="M104.74,128.81H91.45v-5.22h13.29Zm-26.57,0H64.88v-5.22H78.17Zm40.34-.21-1-5.14a6.8,6.8,0,0,0,5.62-6.64h5.36a12.1,12.1,0,0,1-10,11.83Zm-67.72-5a11.68,11.68,0,0,1-2.14-6.78v-7.36H54v7.36a6.64,6.64,0,0,0,1.2,3.8Zm77.7-19.74h-5.36v-13h5.36ZM54,96.5H48.65v-13H54Zm74.47-18.6h-5.36v-13h5.36ZM54,70.59H48.65V57.65H54ZM128.49,52h-5.36V44.65a6.68,6.68,0,0,0-1.2-3.82l4.42-3a11.78,11.78,0,0,1,2.14,6.82ZM48.65,44.65h0a12.08,12.08,0,0,1,10-11.78l1,5.14A6.81,6.81,0,0,0,54,44.65Zm63.59-6.79H99V32.65h13.29Zm-26.59,0H72.4V32.65H85.65Z"/></svg>