<svg id="Layer_1" data-name="Layer 1" xmlns="http://www.w3.org/2000/svg" viewBox="0 0 128.16 128.16"><defs><style>.cls-1,.cls-2{fill:gray;}.cls-1,.cls-3{fill-rule:evenodd;}.cls-3,.cls-4{fill:#f18a00;}</style></defs><path class="cls-1" d="M80.79,27.46V25A10.19,10.19,0,0,0,78,17.88L64.85,4A10.47,10.47,0,0,0,57.43.65H10.65a10.22,10.22,0,0,0-10,10.18V91.14a9.92,9.92,0,0,0,10,9.84H43.38V95.65H10.65A4.58,4.58,0,0,1,6,91.15V10.83A4.87,4.87,0,0,1,10.65,6H56a4.43,4.43,0,0,1,2.82,4.22v9.66a4.69,4.69,0,0,0,4.82,4.53h8a3.86,3.86,0,0,1,3.74,3,.17.17,0,0,1,0,.1Z"/><rect class="cls-2" x="12.07" y="37.6" width="31.26" height="4.86"/><rect class="cls-2" x="12.07" y="50.55" width="31.26" height="4.86"/><rect class="cls-2" x="12.07" y="63.51" width="31.26" height="4.86"/><rect class="cls-2" x="12.07" y="76.46" width="31.26" height="4.86"/><path class="cls-3" d="M119.13,123.47H58.65A4.57,4.57,0,0,1,54,119V43a4.87,4.87,0,0,1,4.61-4.84h45.4a4.45,4.45,0,0,1,2.83,4.22V52a4.68,4.68,0,0,0,4.82,4.53h8a3.82,3.82,0,0,1,3.82,3.69V119a4.35,4.35,0,0,1-4.19,4.49ZM126,50,112.87,36.14a10.47,10.47,0,0,0-7.42-3.34H58.65A10.22,10.22,0,0,0,48.65,43v76a9.92,9.92,0,0,0,10,9.83h60.51a9.7,9.7,0,0,0,9.68-9.7V57.18A10.2,10.2,0,0,0,126,50Z"/><rect class="cls-4" x="62.32" y="61.73" width="52.84" height="5.34"/><rect class="cls-4" x="62.32" y="75.97" width="52.84" height="5.34"/><rect class="cls-4" x="62.32" y="90.22" width="52.84" height="5.34"/><rect class="cls-4" x="62.32" y="104.47" width="52.84" height="5.34"/></svg>