<svg id="Layer_1" data-name="Layer 1" xmlns="http://www.w3.org/2000/svg" viewBox="0 0 128.16 128.16"><defs><style>.cls-1{fill:#6d6e70;}.cls-2,.cls-5,.cls-9{fill:#62bb46;}.cls-2{opacity:0.4;}.cls-3{opacity:0.8;}.cls-4{fill:#00aeef;}.cls-6{opacity:0.2;}.cls-7{opacity:0.5;}.cls-8{fill:#929497;}.cls-9{opacity:0.9;}.cls-10{fill:#fff;}</style></defs><path class="cls-1" d="M118.94,126.07H12.49a8.56,8.56,0,0,1-8.55-8.55V10.64a8.56,8.56,0,0,1,8.55-8.55H118.94a8.57,8.57,0,0,1,8.56,8.55V117.52A8.57,8.57,0,0,1,118.94,126.07ZM12.49,3.37a7.29,7.29,0,0,0-7.28,7.27V117.52a7.29,7.29,0,0,0,7.28,7.27H118.94a7.29,7.29,0,0,0,7.28-7.27V10.64a7.29,7.29,0,0,0-7.28-7.27Z"/><rect class="cls-2" x="38.76" y="10.08" width="27" height="27"/><rect class="cls-2" x="11.84" y="37.08" width="27" height="27"/><g class="cls-3"><rect class="cls-4" x="65.68" y="10.08" width="27" height="27"/><rect class="cls-4" x="11.84" y="64.08" width="27" height="27"/></g><rect class="cls-5" x="65.68" y="37.08" width="27" height="27"/><rect class="cls-5" x="38.76" y="64.08" width="27" height="27"/><g class="cls-6"><rect class="cls-5" x="92.6" y="10.08" width="27" height="27"/><rect class="cls-5" x="11.84" y="91.08" width="27" height="27"/></g><g class="cls-7"><rect class="cls-5" x="92.6" y="37.08" width="27" height="27"/><rect class="cls-5" x="38.76" y="91.08" width="27" height="27"/></g><rect class="cls-4" x="92.6" y="64.08" width="27" height="27"/><rect class="cls-4" x="65.68" y="91.08" width="27" height="27"/><rect class="cls-8" x="11.84" y="10.08" width="27" height="27"/><rect class="cls-8" x="38.76" y="37.08" width="27" height="27"/><rect class="cls-8" x="65.68" y="64.08" width="27" height="27"/><rect class="cls-8" x="92.6" y="91.08" width="27" height="27"/><circle class="cls-9" cx="28.14" cy="101.66" r="26.5"/><path class="cls-10" d="M46,95.57a4.08,4.08,0,0,0-5.77-5.78L23.48,106.53l-7.32-7.32A4.08,4.08,0,0,0,10.39,105h0l11.17,11.18a2.68,2.68,0,0,0,3.81,0L46,95.57Z"/></svg>