<svg id="Layer_1" data-name="Layer 1" xmlns="http://www.w3.org/2000/svg" viewBox="0 0 128.16 128.16"><defs><style>.cls-1{fill:#6d6e70;}.cls-2{fill:#f18a00;}.cls-3{fill:#00aeef;}.cls-4{fill:#62bb46;opacity:0.9;isolation:isolate;}.cls-5{fill:#fff;}</style></defs><path class="cls-1" d="M117.61,2H11.07a8.66,8.66,0,0,0-8.65,8.65V117.51a8.66,8.66,0,0,0,8.65,8.65H117.61a8.68,8.68,0,0,0,8.65-8.57V10.65A8.66,8.66,0,0,0,117.61,2ZM125,61.34v56.25a7.4,7.4,0,0,1-7.37,7.29H11.07a7.38,7.38,0,0,1-7.37-7.37V10.65a7.38,7.38,0,0,1,7.37-7.37H117.61A7.38,7.38,0,0,1,125,10.65Z"/><ellipse class="cls-2" cx="66.86" cy="63.3" rx="57.27" ry="32.55" transform="translate(-25.05 68.81) rotate(-46.87)"/><circle class="cls-3" cx="49.48" cy="25.39" r="2.85"/><circle class="cls-3" cx="64.72" cy="28.24" r="2.85"/><circle class="cls-3" cx="80.05" cy="22.54" r="2.85"/><circle class="cls-3" cx="109.03" cy="18.29" r="2.85"/><circle class="cls-3" cx="94.71" cy="31.09" r="2.85"/><circle class="cls-3" cx="77.2" cy="37.08" r="2.85"/><circle class="cls-3" cx="87.24" cy="37.08" r="2.85"/><circle class="cls-3" cx="91.86" cy="45.35" r="2.85"/><circle class="cls-3" cx="106.18" cy="45.35" r="2.85"/><circle class="cls-3" cx="97.56" cy="58.55" r="2.85"/><circle class="cls-3" cx="111.89" cy="74.73" r="2.85"/><circle class="cls-3" cx="101.7" cy="99.14" r="2.85"/><circle class="cls-3" cx="87.24" cy="107.4" r="2.85"/><circle class="cls-3" cx="15.34" cy="91.08" r="2.85"/><circle class="cls-3" cx="24.31" cy="66.93" r="2.85"/><circle class="cls-3" cx="39.94" cy="51.05" r="2.85"/><circle class="cls-3" cx="44.33" cy="45.35" r="2.85"/><circle class="cls-3" cx="48.11" cy="55.7" r="2.85"/><circle class="cls-3" cx="59.02" cy="39.65" r="2.85"/><circle class="cls-3" cx="56.52" cy="49.99" r="2.85"/><circle class="cls-3" cx="63.23" cy="48.2" r="2.85"/><circle class="cls-3" cx="73.06" cy="48.2" r="2.85"/><circle class="cls-3" cx="80.05" cy="49.22" r="2.85"/><circle class="cls-3" cx="64.51" cy="55.7" r="2.85"/><circle class="cls-3" cx="41.48" cy="66.93" r="2.85"/><circle class="cls-3" cx="38.63" cy="72.63" r="2.85"/><circle class="cls-3" cx="45.26" cy="72.99" r="2.85"/><circle class="cls-3" cx="46.63" cy="82.45" r="2.85"/><circle class="cls-3" cx="52.33" cy="78.81" r="2.85"/><circle class="cls-3" cx="52.33" cy="91.91" r="2.85"/><circle class="cls-3" cx="59.37" cy="93.93" r="2.85"/><circle class="cls-3" cx="32.11" cy="91.08" r="2.85"/><circle class="cls-3" cx="37.09" cy="99.14" r="2.85"/><circle class="cls-3" cx="45.64" cy="104.84" r="2.85"/><circle class="cls-3" cx="71.5" cy="99.63" r="2.85"/><circle class="cls-3" cx="74.35" cy="93.93" r="2.85"/><circle class="cls-3" cx="81.54" cy="85.38" r="2.85"/><circle class="cls-3" cx="77.2" cy="75.96" r="2.85"/><circle class="cls-3" cx="64.51" cy="75.48" r="2.85"/><circle class="cls-3" cx="68.1" cy="70.14" r="2.85"/><circle class="cls-3" cx="71.5" cy="63.04" r="2.85"/><circle class="cls-3" cx="59.37" cy="67.29" r="2.85"/><circle class="cls-3" cx="80.05" cy="56.81" r="2.85"/><circle class="cls-3" cx="87.24" cy="58.55" r="2.85"/><circle class="cls-3" cx="84.39" cy="65.89" r="2.85"/><circle class="cls-3" cx="89.01" cy="70.14" r="2.85"/><circle class="cls-3" cx="94.71" cy="79.6" r="2.85"/><circle class="cls-3" cx="53.67" cy="64.44" r="2.85"/><circle class="cls-4" cx="27.15" cy="102.31" r="26.5"/><path class="cls-5" d="M45,96.22a4.09,4.09,0,0,0-5.78-5.78L22.5,107.18l-7.32-7.32a4.09,4.09,0,0,0-5.77,5.79h0l11.17,11.18a2.69,2.69,0,0,0,3.8,0h0L45,96.23Z"/></svg>