<svg id="Layer_1" data-name="Layer 1" xmlns="http://www.w3.org/2000/svg" viewBox="0 0 128.16 128.16"><defs><style>.cls-1,.cls-4{fill:gray;}.cls-1{fill-rule:evenodd;}.cls-2{fill:none;}.cls-3{fill:#00aeef;}.cls-5{opacity:0.9;}.cls-6{fill:#c32a1f;}.cls-7{fill:#fff;}</style></defs><path class="cls-1" d="M62.06,52.74h61.23v63.65a10.34,10.34,0,0,1-10.36,10.36H72.42a10.34,10.34,0,0,1-10.36-10.36ZM84.2,35.41h17a2.06,2.06,0,0,1,2.06,2.06v4h22.12a2.41,2.41,0,0,1,2.42,2.41v3.8A2.41,2.41,0,0,1,125.33,50H60a2.41,2.41,0,0,1-2.42-2.41v-3.8A2.41,2.41,0,0,1,60,41.42H82.15v-4A2,2,0,0,1,84.2,35.41ZM74.69,55.55a3.26,3.26,0,0,0-3.22,3.29l-.23,58.46a3.26,3.26,0,1,0,6.51,0L78,58.87a3.27,3.27,0,0,0-1-2.35,3.23,3.23,0,0,0-2.34-1Zm18.06,0a3.26,3.26,0,0,0-3.21,3.29l-.23,58.46a3.26,3.26,0,1,0,6.51,0L96,58.87a3.26,3.26,0,0,0-3.29-3.32Zm18.69,0a3.26,3.26,0,0,0-3.22,3.29L108,117.3a3.26,3.26,0,1,0,6.51,0l.23-58.46a3.26,3.26,0,0,0-3.29-3.32Z"/><path class="cls-2" d="M1,53.81H58.56v-.45a5.93,5.93,0,0,1-4.46-5.73v-.12H1Z"/><rect class="cls-3" x="1.02" y="3.05" width="95.94" height="10.87"/><rect class="cls-3" x="1.02" y="19.59" width="95.94" height="10.87"/><path class="cls-4" d="M1,47.51H54.1V43.83A5.92,5.92,0,0,1,60,37.92H78.65v-.45a5.83,5.83,0,0,1,.06-.84H1Z"/><rect class="cls-4" x="1.02" y="53.81" width="57.55" height="10.87"/><g class="cls-5"><circle class="cls-6" cx="26.01" cy="26.01" r="25.36"/></g><rect class="cls-7" x="21.27" y="5.81" width="9.47" height="26.05" rx="2.37"/><circle class="cls-7" cx="26.01" cy="41.33" r="4.74"/></svg>