<svg id="Layer_1" data-name="Layer 1" xmlns="http://www.w3.org/2000/svg" viewBox="0 0 128.16 128.16"><defs><style>.cls-1{fill:#00aeef;}.cls-2{fill:gray;fill-rule:evenodd;}</style></defs><path class="cls-1" d="M90.27,31.61l.17-2.6c.2-2.58,0-4.19-4.08-4.19H6.21c-4.1,0-4.3,2.12-4.07,4.72l3,42.13c.21,2.58.8,4.72,4.86,4.72H58.21v-23a6,6,0,0,1-4.46-5.73V43.81a5.93,5.93,0,0,1,5.91-5.91H78.27v-.45a5.58,5.58,0,0,1,5.55-5.56h6.39Z"/><path class="cls-1" d="M85.46,13.6c-.11-2.85-1-3.52-3.47-3.52H49c-5,0-5.62.07-9.42-4-3.13-3.41-1.88-3.37-8.36-3.37H13.83c-4,0-5.43-.34-5.8,3.83-.35,3.84-1.15,13.17-1.27,14.59H85.83Z"/><path class="cls-2" d="M61.69,52.74h61.22v63.65a10.33,10.33,0,0,1-10.32,10.36H72a10.34,10.34,0,0,1-10.35-10.31V52.74ZM83.82,35.41h17a2.06,2.06,0,0,1,2.06,2.06v4H125a2.4,2.4,0,0,1,2.37,2.34v3.8A2.4,2.4,0,0,1,125,50H59.64a2.4,2.4,0,0,1-2.43-2.37V43.81A2.41,2.41,0,0,1,59.6,41.4H81.77v-4A2.06,2.06,0,0,1,83.82,35.41ZM74.31,55.55a3.27,3.27,0,0,0-3.22,3.26l-.23,58.46a3.27,3.27,0,0,0,3.23,3.31,3.19,3.19,0,0,0,1.66-.43,3.25,3.25,0,0,0,1.62-2.85l.23-58.46a3.25,3.25,0,0,0-3.19-3.32h-.1Zm18.07,0a3.27,3.27,0,0,0-3.17,3.26L89,117.27a3.26,3.26,0,1,0,6.51.36,2.16,2.16,0,0,0,0-.36l.23-58.46a3.33,3.33,0,0,0-3.29-3.35Zm18.68,0a3.28,3.28,0,0,0-3.22,3.26l-.23,58.46a3.26,3.26,0,1,0,6.51.36,2.16,2.16,0,0,0,0-.36l.23-58.46a3.25,3.25,0,0,0-3.19-3.32h-.1Z"/></svg>