<svg id="Layer_1" data-name="Layer 1" xmlns="http://www.w3.org/2000/svg" viewBox="0 0 128.16 128.16"><defs><style>.cls-1,.cls-5{fill:gray;}.cls-1,.cls-4{fill-rule:evenodd;}.cls-2{fill:none;}.cls-3{fill:#62bb46;}.cls-4{fill:#fff;}</style></defs><path class="cls-1" d="M61.69,52.74h61.23v63.65a10.34,10.34,0,0,1-10.36,10.36H72.05a10.34,10.34,0,0,1-10.36-10.36ZM83.83,35.41h17a2.06,2.06,0,0,1,2.06,2.06v4H125a2.41,2.41,0,0,1,2.42,2.41v3.8A2.41,2.41,0,0,1,125,50H59.65a2.41,2.41,0,0,1-2.42-2.41v-3.8a2.41,2.41,0,0,1,2.42-2.41H81.78v-4A2,2,0,0,1,83.83,35.41ZM74.32,55.55a3.26,3.26,0,0,0-3.22,3.29l-.23,58.46a3.26,3.26,0,1,0,6.51,0l.23-58.46a3.27,3.27,0,0,0-1-2.35,3.23,3.23,0,0,0-2.34-1Zm18.06,0a3.27,3.27,0,0,0-3.22,3.29l-.22,58.46a3.26,3.26,0,1,0,6.51,0l.22-58.46a3.26,3.26,0,0,0-3.29-3.32Zm18.69,0a3.26,3.26,0,0,0-3.22,3.29l-.23,58.46a3.26,3.26,0,1,0,6.51,0l.23-58.46a3.28,3.28,0,0,0-3.29-3.32Z"/><path class="cls-2" d="M5.52,27.11a.65.65,0,0,0,.91,0l2.72-2.73a.64.64,0,0,0-.91-.9L6,25.74,4.61,24.38a.64.64,0,0,0-.91.91Z"/><path class="cls-2" d="M5.52,10.57a.65.65,0,0,0,.91,0L9.15,7.84a.64.64,0,0,0-.91-.91L6,9.2,4.61,7.84a.64.64,0,0,0-.91.91Z"/><path class="cls-2" d="M96.59,30.46H16.25V19.59H96.59Zm0-16.54H16.25V3.05H96.59Z"/><path class="cls-3" d="M6.43,14.26A5.78,5.78,0,1,0,.65,8.48,5.77,5.77,0,0,0,6.43,14.26ZM3.7,7.84a.65.65,0,0,1,.91,0L6,9.2,8.24,6.93a.64.64,0,0,1,.91.91L6.43,10.57a.65.65,0,0,1-.91,0L3.7,8.75A.65.65,0,0,1,3.7,7.84Z"/><rect class="cls-3" x="16.25" y="3.05" width="80.33" height="10.87"/><path class="cls-3" d="M6.43,30.8A5.78,5.78,0,1,0,.65,25,5.77,5.77,0,0,0,6.43,30.8ZM3.7,24.38a.65.65,0,0,1,.91,0L6,25.74l2.27-2.26a.64.64,0,0,1,.91.9L6.43,27.11a.65.65,0,0,1-.91,0L3.7,25.29A.65.65,0,0,1,3.7,24.38Z"/><rect class="cls-3" x="16.25" y="19.59" width="80.33" height="10.87"/><path class="cls-4" d="M6.43,46.85a4.78,4.78,0,1,1,4.77-4.78A4.79,4.79,0,0,1,6.43,46.85Z"/><path class="cls-5" d="M6.43,38.29a3.78,3.78,0,1,1-3.78,3.78,3.78,3.78,0,0,1,3.78-3.78m0-2a5.78,5.78,0,1,0,5.77,5.78,5.78,5.78,0,0,0-5.77-5.78Z"/><path class="cls-5" d="M16.25,47.51H53.73V43.83a5.92,5.92,0,0,1,5.92-5.91H78.27v-.45a5.83,5.83,0,0,1,.07-.84H16.25Z"/><path class="cls-5" d="M6.43,55.47a3.78,3.78,0,1,1-3.78,3.78,3.77,3.77,0,0,1,3.78-3.78m0-2a5.78,5.78,0,1,0,5.77,5.78,5.78,5.78,0,0,0-5.77-5.78Z"/><rect class="cls-5" x="16.25" y="53.81" width="41.94" height="10.87"/></svg>