<svg id="Layer_1" data-name="Layer 1" xmlns="http://www.w3.org/2000/svg" viewBox="0 0 128.16 128.16"><defs><style>.cls-1{fill:#6d6e70;}.cls-2{fill:#00aeef;}.cls-3{fill:#929497;}.cls-4{fill:#bbbdbf;}.cls-5{fill:#e6e7e8;}.cls-6{fill:#fff;stroke:#fff;stroke-miterlimit:10;stroke-width:6px;}.cls-7{fill:#f18a00;}</style></defs><rect class="cls-1" x="4.7" y="20.72" width="120.06" height="27.13"/><rect class="cls-2" x="4.7" y="11.08" width="120.06" height="9.65"/><polygon class="cls-2" points="92.73 12.36 36.73 12.36 41.23 2.72 88.23 2.72 92.73 12.36"/><rect class="cls-3" x="4.7" y="46.74" width="120.06" height="28.42"/><rect class="cls-4" x="4.7" y="72.75" width="120.06" height="27.44"/><rect class="cls-5" x="4.7" y="98.76" width="120.06" height="25.68"/><path class="cls-6" d="M64.36,59.31h0a10,10,0,0,1-8-4.18L39.48,32.81a5.18,5.18,0,0,1,8.26-6.25l16.62,22L81,26.56a5.18,5.18,0,0,1,8.26,6.25L72.36,55.13A10.12,10.12,0,0,1,64.36,59.31Z"/><path class="cls-6" d="M64.36,89.36h0a10.07,10.07,0,0,1-8-4.17L39.48,62.86a5.18,5.18,0,0,1,7.82-6.8,5,5,0,0,1,.44.59l16.62,22L81,56.65a5.18,5.18,0,1,1,8.5,5.91,4,4,0,0,1-.24.33L72.36,85.19A10.08,10.08,0,0,1,64.36,89.36Z"/><path class="cls-6" d="M64.36,119.42h0a10,10,0,0,1-8-4.18L39.48,92.92a5.19,5.19,0,1,1,8.26-6.27h0l16.62,22L81,86.65a5.18,5.18,0,1,1,8.5,5.91,4,4,0,0,1-.24.33L72.36,115.24A10.05,10.05,0,0,1,64.36,119.42Z"/><path class="cls-7" d="M64.36,59.31h0a10,10,0,0,1-8-4.18L39.48,32.81a5.18,5.18,0,0,1,8.26-6.25l16.62,22L81,26.56a5.18,5.18,0,0,1,8.26,6.25L72.36,55.13A10.12,10.12,0,0,1,64.36,59.31Z"/><path class="cls-7" d="M64.36,89.36h0a10.07,10.07,0,0,1-8-4.17L39.48,62.86a5.18,5.18,0,0,1,7.82-6.8,5,5,0,0,1,.44.59l16.62,22L81,56.65a5.18,5.18,0,1,1,8.5,5.91,4,4,0,0,1-.24.33L72.36,85.19A10.08,10.08,0,0,1,64.36,89.36Z"/><path class="cls-7" d="M64.36,119.42h0a10,10,0,0,1-8-4.18L39.48,92.92a5.19,5.19,0,1,1,8.26-6.27h0l16.62,22L81,86.65a5.18,5.18,0,1,1,8.5,5.91,4,4,0,0,1-.24.33L72.36,115.24A10.05,10.05,0,0,1,64.36,119.42Z"/></svg>