<?xml version="1.0" encoding="utf-8"?>
<!-- Generator: Adobe Illustrator 24.3.0, SVG Export Plug-In . SVG Version: 6.00 Build 0)  -->
<svg version="1.1" id="Layer_1" xmlns="http://www.w3.org/2000/svg" xmlns:xlink="http://www.w3.org/1999/xlink" x="0px" y="0px"
	 viewBox="0 0 128.2 128.2" style="enable-background:new 0 0 128.2 128.2;" xml:space="preserve">
<style type="text/css">
	.st0{fill:#62BB46;}
	.st1{fill:#00AEEF;}
	.st2{fill:#808080;}
</style>
<g>
	<g>
		<path class="st0" d="M52.2,26.6c-0.9-3.7-1.7-10.5-2-13.4h10.9L48.6,0.7L36.1,13.2h9.1c-0.3,3-1,9.7-2,13.4
			c-0.5,1.9-1.1,3.5-1.6,4.8c3.4-1.4,7.2-2.3,11.2-2.7C52.6,28,52.4,27.3,52.2,26.6z"/>
		<path class="st0" d="M33.4,36c-2.4-4.6-7.7-11.7-19.3-18.6l7.7-7.7H4.1v17.7l6.5-6.5c10.3,7.4,13.7,17.7,14.9,23.8
			C27.4,41.4,30.1,38.4,33.4,36z"/>
		<path class="st0" d="M84.7,19.7l7.7,7.7V9.7H74.7l6.5,6.5c-6.5,3.4-11.4,9.1-14.4,13.3c3,0.7,5.8,1.6,8.3,2.8
			C76.6,28.7,79.5,23.8,84.7,19.7z"/>
	</g>
	<g>
		<polygon class="st0" points="66.4,39.2 66.4,44.4 59.4,44.4 59.4,39.2 55.7,39.2 55.7,53.5 59.4,53.5 59.4,47.5 66.4,47.5 
			66.4,53.5 70.1,53.5 70.1,39.2 		"/>
		<path class="st1" d="M50.7,41c-0.5-0.6-1.2-1.1-2-1.4c-0.8-0.3-1.7-0.5-2.6-0.5c-1.2,0-2.4,0.3-3.4,0.9c-0.9,0.6-1.6,1.5-2.1,2.5
			c-0.5,1.3-0.7,2.6-0.7,3.9c0,2.6,0.6,4.5,1.9,5.8c1.1,1,2.5,1.5,3.9,1.5c0.1,0,0.2,0,0.3,0c1.2,0,2.4-0.3,3.4-0.9
			c0.9-0.6,1.7-1.5,2.1-2.5c0.5-1.3,0.7-2.6,0.6-3.9c0-1.1-0.1-2.2-0.4-3.3C51.6,42.5,51.2,41.7,50.7,41z M43.6,46.5
			c0-2.3,0.5-3.3,0.9-3.7s1-0.7,1.6-0.7h0.1c0.7,0,1.3,0.3,1.8,0.8c0.3,0.3,0.8,1.2,0.8,3.6c0,2.4-0.5,3.3-0.8,3.6l-0.1,0.1
			c-0.5,0.4-1.1,0.7-1.7,0.6c-0.6,0-1.2-0.3-1.7-0.8C44,49.7,43.6,48.8,43.6,46.5z"/>
		<path class="st1" d="M12.8,41c-0.5-0.6-1.2-1.1-2-1.4c-0.8-0.3-1.7-0.5-2.6-0.5c-1.2,0-2.4,0.3-3.5,0.9c-0.9,0.6-1.7,1.5-2.1,2.5
			c-0.5,1.3-0.7,2.6-0.6,3.9c0,2.5,0.6,4.5,1.9,5.8c1.1,1,2.5,1.5,3.9,1.5c0.1,0,0.2,0,0.3,0c1.2,0,2.4-0.3,3.4-0.9
			c0.9-0.6,1.7-1.5,2.1-2.5c0.5-1.3,0.7-2.6,0.7-3.9c0-1.1-0.1-2.2-0.4-3.3C13.7,42.5,13.3,41.7,12.8,41z M6.5,42.7
			c0.4-0.4,1-0.7,1.7-0.7s1.3,0.3,1.8,0.8c0.3,0.3,0.7,1.2,0.7,3.6c0,2.4-0.5,3.3-0.8,3.6c-0.4,0.5-1.1,0.8-1.8,0.8S6.8,50.5,6.3,50
			c-0.3-0.4-0.8-1.3-0.8-3.6C5.6,44.6,5.9,43.3,6.5,42.7z"/>
		<path class="st1" d="M63.3,61.8c-0.5-0.6-1.2-1.1-2-1.4c-0.8-0.3-1.7-0.5-2.6-0.5c-1.2,0-2.4,0.3-3.4,0.9
			c-0.9,0.6-1.6,1.5-2.1,2.5c-0.5,1.3-0.7,2.6-0.7,3.9c0,2.6,0.6,4.5,1.9,5.8c1.1,1,2.5,1.5,3.9,1.5c0.1,0,0.2,0,0.3,0
			c1.2,0,2.4-0.3,3.4-0.9c0.9-0.6,1.7-1.5,2.1-2.5c0.5-1.3,0.7-2.6,0.6-3.9c0-1.1-0.1-2.2-0.4-3.2C64.2,63.2,63.8,62.5,63.3,61.8z
			 M56.2,67.2c0-2.3,0.5-3.3,0.9-3.7s1-0.7,1.6-0.7h0.1c0.7,0,1.3,0.3,1.8,0.8c0.3,0.3,0.8,1.2,0.8,3.6s-0.5,3.3-0.7,3.6L60.3,71
			c-0.5,0.4-1.1,0.6-1.7,0.6c-0.6,0-1.2-0.3-1.7-0.8C56.6,70.4,56.2,69.5,56.2,67.2z"/>
		<path class="st1" d="M79.4,115.8c-0.2-0.8-0.6-1.5-1.2-2.2c-0.5-0.6-1.2-1.1-2-1.4s-1.7-0.5-2.6-0.5c-1.2,0-2.4,0.3-3.4,0.9
			c-0.9,0.6-1.7,1.5-2.1,2.5c-0.5,1.3-0.7,2.6-0.7,3.9c0,2.6,0.6,4.5,1.9,5.8c1.1,1,2.5,1.5,3.9,1.5c0.1,0,0.2,0,0.3,0
			c1.2,0,2.4-0.3,3.4-0.9c0.9-0.6,1.7-1.5,2.1-2.5c0.5-1.3,0.7-2.6,0.6-3.9C79.8,118,79.7,116.9,79.4,115.8z M72,115.2
			c0.4-0.4,1-0.7,1.6-0.7h0.1c0.7,0,1.3,0.3,1.8,0.8c0.3,0.3,0.8,1.2,0.8,3.6s-0.5,3.3-0.8,3.6c-0.4,0.5-1.1,0.8-1.8,0.8
			c-0.7,0-1.3-0.3-1.8-0.8c-0.3-0.4-0.8-1.3-0.8-3.6C71.1,116.6,71.6,115.7,72,115.2z"/>
		<g>
			<path class="st2" d="M13.9,70.7c0.4,0.4,0.9,0.6,1.4,0.6s1.1-0.2,1.5-0.6c0.8-0.8,0.8-2.1-0.1-2.9l-6.3-6C9.6,61,8.3,61,7.5,61.9
				c-0.8,0.8-0.8,2.1,0.1,2.9L13.9,70.7z"/>
			<path class="st2" d="M52.6,78.8L43,88.1l-14.7-8.4v-14l10.1-9.8c0.8-0.8,0.8-2.1,0-2.9c-0.8-0.8-2.1-0.8-2.9,0l-9.3,9l-9.3-9
				c-0.8-0.8-2.1-0.8-2.9,0c-0.8,0.8-0.8,2.1,0,2.9l10.1,9.8v13.9L8.3,88.7c-0.1,0.1-0.2,0.1-0.3,0.2L7.8,89C7.3,89.4,7,90,7,90.6
				v16.7c0,0.6,0.3,1.2,0.8,1.6L8,109c0.1,0.1,0.2,0.1,0.3,0.2l16.9,9.7c0.3,0.2,0.7,0.3,1,0.3s0.7-0.1,1-0.3l16.9-9.7
				c0.1,0,0.2-0.1,0.2-0.2l0.2-0.1l0.1-0.1l0.1-0.1c0.1-0.1,0.1-0.1,0.2-0.2c0,0,0-0.1,0.1-0.1c0.1-0.1,0.1-0.2,0.2-0.3l0,0
				c0.1-0.2,0.2-0.5,0.2-0.8V91.6l10.1-9.8c0.8-0.8,0.8-2.1,0-2.9C54.7,78,53.4,78,52.6,78.8z M26.2,114.7l-15-8.6V91.8l15-8.6
				l15,8.6v14.3L26.2,114.7z"/>
			<path class="st2" d="M85.9,78.8c-0.8-0.8-2.1-0.8-2.9,0l-9.3,9l-9.3-9c-0.8-0.8-2.1-0.8-2.9,0c-0.8,0.8-0.8,2.1,0,2.9l10.1,9.8
				v15.8c0,1.1,0.9,2.1,2.1,2.1c1.1,0,2.1-0.9,2.1-2.1V91.6l10.1-9.8C86.7,81,86.7,79.6,85.9,78.8z"/>
			<path class="st2" d="M62,93.7c-1.1,0-2.1,0.9-2.1,2.1v10.6c0,1.1,0.9,2.1,2.1,2.1c1.1,0,2.1-0.9,2.1-2.1V95.8
				C64.1,94.6,63.2,93.7,62,93.7z"/>
			<path class="st2" d="M34.3,93.2l-6.9-3.9c-1-0.6-2.3-0.2-2.8,0.8c-0.6,1-0.2,2.3,0.8,2.8l6.9,3.9c0.3,0.2,0.7,0.3,1,0.3
				c0.7,0,1.4-0.4,1.8-1.1C35.7,95,35.3,93.8,34.3,93.2z"/>
			<path class="st2" d="M19.2,92.8c-1.1,0-2.1,1-2,2.1l0.2,7.9c0,1.1,0.9,2,2.1,2l0,0c1.1,0,2.1-1,2-2.1l-0.2-7.9
				C21.3,93.7,20.3,92.8,19.2,92.8z"/>
			<path class="st2" d="M31.8,101.4l-6.9,4c-1,0.6-1.3,1.8-0.8,2.8c0.4,0.7,1.1,1,1.8,1c0.3,0,0.7-0.1,1-0.3l6.9-4
				c1-0.6,1.3-1.8,0.8-2.8S32.8,100.8,31.8,101.4z"/>
		</g>
	</g>
</g>
<path d="M120.2,93.5l-0.4,0.8c-1.6,3.2-3.6,5.4-6,6.5c-2.5,1.2-7,1.8-13.3,1.8H86.1L105.3,80L87.4,54.9h11c6,0,10.3,0.7,12.9,2.2
	c2.5,1.4,4.6,4.1,6.2,8.1l0.4,1h6.3l-1.5-9.8l0,0c-0.6-3.6-1.4-5.6-2.8-6.4c-0.8-0.5-2.4-1.1-7.5-1.1H79c-3,0-4.6,3.4-2.8,5.8
	l21,25.4l-19.9,23.5c-2.7,2.9-0.6,7.6,3.3,7.6h32.6c6.8,0,9.4-3.9,10.3-7.1l3.3-10.6C126.8,93.5,120.2,93.5,120.2,93.5z"/>
</svg>
