<?xml version="1.0" encoding="utf-8"?>
<!-- Generator: Adobe Illustrator 24.3.0, SVG Export Plug-In . SVG Version: 6.00 Build 0)  -->
<svg version="1.1" id="Layer_1" xmlns="http://www.w3.org/2000/svg" xmlns:xlink="http://www.w3.org/1999/xlink" x="0px" y="0px"
	 viewBox="0 0 128.2 128.2" style="enable-background:new 0 0 128.2 128.2;" xml:space="preserve">
<style type="text/css">
	.st0{fill:#62BB46;}
	.st1{fill:#00AEEF;}
</style>
<g>
	<g>
		<path class="st0" d="M69.1,27.2c-0.9-3.7-1.7-10.5-2-13.4H78L65.4,1.3L52.9,13.8H62c-0.3,3-1,9.7-2,13.4c-0.5,1.9-1.1,3.5-1.6,4.8
			c3.4-1.4,7.2-2.3,11.2-2.7C69.5,28.6,69.2,27.9,69.1,27.2z"/>
		<path class="st0" d="M50.3,36.6C47.9,32,42.5,24.9,31,18l7.7-7.7H21V28l6.5-6.5c10.3,7.4,13.7,17.7,14.9,23.8
			C44.3,42,47,39,50.3,36.6z"/>
		<path class="st0" d="M101.6,20.3l7.7,7.7V10.3H91.6l6.5,6.5c-6.5,3.4-11.4,9.1-14.4,13.3c3,0.7,5.8,1.6,8.3,2.8
			C93.5,29.3,96.4,24.4,101.6,20.3z"/>
	</g>
	<g>
		<polygon class="st0" points="83.3,39.8 83.3,45 76.3,45 76.3,39.8 72.5,39.8 72.5,54.1 76.3,54.1 76.3,48.1 83.3,48.1 83.3,54.1 
			87,54.1 87,39.8 		"/>
		<path class="st1" d="M67.6,41.7c-0.5-0.6-1.2-1.1-2-1.4c-0.8-0.3-1.7-0.5-2.6-0.5c-1.2,0-2.4,0.3-3.4,0.9
			c-0.9,0.6-1.6,1.5-2.1,2.5c-0.5,1.3-0.7,2.6-0.7,3.9c0,2.6,0.6,4.5,1.9,5.8c1.1,1,2.5,1.5,3.9,1.5c0.1,0,0.2,0,0.3,0
			c1.2,0,2.4-0.3,3.4-0.9c0.9-0.6,1.7-1.5,2.1-2.5c0.5-1.3,0.7-2.6,0.6-3.9c0-1.1-0.1-2.2-0.4-3.3C68.5,43.1,68.1,42.3,67.6,41.7z
			 M60.5,47.1c0-2.3,0.5-3.3,0.9-3.7s1-0.7,1.6-0.7h0.1c0.7,0,1.3,0.3,1.8,0.8c0.3,0.3,0.8,1.2,0.8,3.6c0,2.4-0.5,3.3-0.8,3.6
			l-0.1,0.1c-0.5,0.4-1.1,0.7-1.7,0.6c-0.6,0-1.2-0.3-1.7-0.8C60.9,50.3,60.5,49.4,60.5,47.1z"/>
		<path class="st1" d="M29.6,41.7c-0.5-0.6-1.2-1.1-2-1.4c-0.8-0.3-1.7-0.5-2.6-0.5c-1.2-0.1-2.4,0.2-3.5,0.9
			c-0.9,0.6-1.7,1.5-2.1,2.5c-0.5,1.3-0.7,2.6-0.6,3.9c0,2.5,0.6,4.5,1.9,5.8c1.1,1,2.5,1.5,3.9,1.5c0.1,0,0.2,0,0.3,0
			c1.2,0,2.4-0.3,3.4-0.9c0.9-0.6,1.7-1.5,2.1-2.5c0.5-1.3,0.7-2.6,0.7-3.9c0-1.1-0.1-2.2-0.4-3.3C30.6,43.1,30.2,42.3,29.6,41.7z
			 M23.4,43.3c0.4-0.4,1-0.7,1.7-0.7s1.3,0.3,1.8,0.8c0.3,0.3,0.7,1.2,0.7,3.6c0,2.4-0.5,3.3-0.8,3.6c-0.4,0.5-1.1,0.8-1.8,0.8
			c-0.7,0-1.3-0.3-1.8-0.8c-0.3-0.4-0.8-1.3-0.8-3.6C22.5,45.2,22.8,43.9,23.4,43.3z"/>
		<path class="st1" d="M80.2,62.4c-0.5-0.6-1.2-1.1-2-1.4c-0.8-0.3-1.7-0.5-2.6-0.5c-1.2,0-2.4,0.3-3.4,0.9
			c-0.9,0.6-1.6,1.5-2.1,2.5c-0.5,1.3-0.7,2.6-0.7,3.9c0,2.6,0.6,4.5,1.9,5.8c1.1,1,2.5,1.5,3.9,1.5c0.1,0,0.2,0,0.3,0
			c1.2,0,2.4-0.3,3.4-0.9c0.9-0.6,1.7-1.5,2.1-2.5c0.5-1.3,0.7-2.6,0.6-3.9c0-1.1-0.1-2.2-0.4-3.2C81.1,63.8,80.7,63.1,80.2,62.4z
			 M73.1,67.8c0-2.3,0.5-3.3,0.9-3.7c0.4-0.4,1-0.7,1.6-0.7h0.1c0.7,0,1.3,0.3,1.8,0.8c0.3,0.3,0.8,1.2,0.8,3.6s-0.5,3.3-0.7,3.6
			l-0.2,0.2c-0.5,0.4-1.1,0.6-1.7,0.6s-1.2-0.3-1.7-0.8C73.5,71,73.1,70.1,73.1,67.8z"/>
		<path class="st1" d="M96.3,116.4c-0.2-0.8-0.6-1.5-1.2-2.2c-0.5-0.6-1.2-1.1-2-1.4s-1.7-0.5-2.6-0.5c-1.2,0-2.4,0.3-3.4,0.9
			c-0.9,0.6-1.7,1.5-2.1,2.5c-0.5,1.3-0.7,2.6-0.7,3.9c0,2.6,0.6,4.5,1.9,5.8c1.1,1,2.5,1.5,3.9,1.5c0.1,0,0.2,0,0.3,0
			c1.2,0,2.4-0.3,3.4-0.9c0.9-0.6,1.7-1.5,2.1-2.5c0.5-1.3,0.7-2.6,0.6-3.9C96.7,118.6,96.6,117.5,96.3,116.4z M88.9,115.8
			c0.4-0.4,1-0.7,1.6-0.7h0.1c0.7,0,1.3,0.3,1.8,0.8c0.3,0.3,0.8,1.2,0.8,3.6s-0.5,3.3-0.8,3.6c-0.4,0.5-1.1,0.8-1.8,0.8
			c-0.7,0-1.3-0.3-1.8-0.8c-0.3-0.4-0.8-1.3-0.8-3.6C88,117.3,88.5,116.3,88.9,115.8z"/>
		<path d="M30.8,71.3c0.4,0.4,0.9,0.6,1.4,0.6c0.5,0,1.1-0.2,1.5-0.6c0.8-0.8,0.8-2.1-0.1-2.9l-6.3-6c-0.8-0.8-2.1-0.8-2.9,0.1
			c-0.8,0.8-0.8,2.1,0.1,2.9L30.8,71.3z"/>
		<path d="M69.5,79.4l-9.6,9.3l-14.7-8.4v-14l10.1-9.8c0.8-0.8,0.8-2.1,0-2.9c-0.8-0.8-2.1-0.8-2.9,0l-9.3,9l-9.3-9
			c-0.8-0.8-2.1-0.8-2.9,0s-0.8,2.1,0,2.9L41,66.3v13.9l-15.9,9.1c-0.1,0.1-0.2,0.1-0.3,0.2l-0.2,0.1c-0.5,0.4-0.8,1-0.8,1.6v16.7
			c0,0.6,0.3,1.2,0.8,1.6l0.2,0.1c0.1,0.1,0.2,0.1,0.3,0.2l16.9,9.7c0.3,0.2,0.7,0.3,1,0.3s0.7-0.1,1-0.3l16.9-9.7
			c0.1,0,0.2-0.1,0.2-0.2l0.2-0.1l0.1-0.1l0.1-0.1c0.1-0.1,0.1-0.1,0.2-0.2c0,0,0-0.1,0.1-0.1c0.1-0.1,0.1-0.2,0.2-0.3l0,0
			c0.1-0.2,0.2-0.5,0.2-0.8V92.2l10.1-9.8c0.8-0.8,0.8-2.1,0-2.9C71.6,78.6,70.3,78.6,69.5,79.4z M43.1,115.3l-15-8.6V92.4l15-8.6
			l15,8.6v14.3L43.1,115.3z"/>
		<path d="M102.8,79.4c-0.8-0.8-2.1-0.8-2.9,0l-9.3,9l-9.3-9c-0.8-0.8-2.1-0.8-2.9,0s-0.8,2.1,0,2.9l10.1,9.8v15.8
			c0,1.1,0.9,2.1,2.1,2.1c1.1,0,2.1-0.9,2.1-2.1V92.2l10.1-9.8C103.6,81.6,103.6,80.2,102.8,79.4z"/>
		<path d="M78.9,94.3c-1.1,0-2.1,0.9-2.1,2.1V107c0,1.1,0.9,2.1,2.1,2.1c1.1,0,2.1-0.9,2.1-2.1V96.4C81,95.2,80.1,94.3,78.9,94.3z"
			/>
		<path d="M51.2,93.8l-6.9-3.9c-1-0.6-2.3-0.2-2.8,0.8c-0.6,1-0.2,2.3,0.8,2.8l6.9,3.9c0.3,0.2,0.7,0.3,1,0.3c0.7,0,1.4-0.4,1.8-1.1
			C52.5,95.6,52.2,94.4,51.2,93.8z"/>
		<path d="M36,93.4c-1.1,0-2.1,1-2,2.1l0.2,7.9c0,1.1,0.9,2,2.1,2l0,0c1.1,0,2.1-1,2-2.1l-0.2-7.9C38.1,94.3,37.2,93.4,36,93.4z"/>
		<path d="M48.7,102l-6.9,4c-1,0.6-1.3,1.8-0.8,2.8c0.4,0.7,1.1,1,1.8,1c0.3,0,0.7-0.1,1-0.3l6.9-4c1-0.6,1.3-1.8,0.8-2.8
			C50.9,101.7,49.7,101.4,48.7,102z"/>
	</g>
</g>
<text transform="matrix(1 0 0 1 100.7979 -35.1094)" style="display:none;enable-background:new    ; font-family:'MyriadPro-Regular'; font-size:12px;">£¢</text>
</svg>
