<svg id="Layer_1" data-name="Layer 1" xmlns="http://www.w3.org/2000/svg" viewBox="0 0 128.16 128.16"><defs><style>.cls-1{fill:#00aeef;}.cls-2{fill:#fff;}.cls-3{opacity:0.9;}.cls-4{fill:#c32a1f;}</style></defs><rect class="cls-1" x="3.07" y="2.86" width="123.32" height="123.74" rx="9.58"/><path class="cls-2" d="M14.29,72.2s18.54-18,22.8-25.37,8.66-16.25,22.1-17.53,28.18,5.1,30,9.83,0,6.11,4.34,10.09,22.62,14.85,22.14,21.11S112,84.88,97.13,83.64s-32-2.75-36.07.43-9,13.08-7.94,15.78-6-7.39-23.36-11.32-16-15.19-16-15.19Z"/><path d="M100.71,51.55c-2.39-1.73-4.45-3.22-5.49-4.17-2.16-2-2.28-2.81-2.56-4.61a20.18,20.18,0,0,0-1.13-4.53C88.75,31,70.83,25.69,59,26.81c-14,1.34-19.22,10.38-23.38,17.63l-.65,1.14c-4,7-22.2,24.65-22.38,24.83l-.33.32-.89,1.92-.05.39c0,.14-1.41,13.55,17.93,17.93A49.35,49.35,0,0,1,50.27,101.3a5.2,5.2,0,0,0,2.95,1.53,2.39,2.39,0,0,0,1.45-.52,2.66,2.66,0,0,0,.81-3.3C55.23,97.14,59,88.88,62.6,86c3.2-2.5,21.3-1,33.27,0l1.06.08c6.86.58,12.19-.71,15.85-3.83,3.18-2.71,5-6.67,5.39-11.78C118.59,65,110.86,58.9,100.71,51.55Zm-3.37,29.6-1.06-.09-4.65-.38c-4.59-2.16-8.52-7-8.57-7.06a1.81,1.81,0,0,0-2.82,2.26,36.35,36.35,0,0,0,4.2,4.28c-12.8-.85-21.48-.75-24.92,1.94-3,2.37-7,8.51-8.45,13.47a54.27,54.27,0,0,0-20.76-9.48C17,83.07,16.23,75.62,16.23,74l.14-.29C19,71.12,35.14,55.2,39.26,48.08l.66-1.15,0,0c2.45,8.37,8.34,23.79,18.39,23.79l.8,0C73.26,69.51,73.59,43.3,73.6,42.18a1.81,1.81,0,0,0-1.79-1.81h0A1.8,1.8,0,0,0,70,42.16c0,6.68-2.15,24.17-11.14,24.89-8.43.69-14.3-16.09-16.34-24.46,3.42-5.3,7.87-9.94,16.92-10.8C72.7,30.52,85.69,37,86.86,40a15.53,15.53,0,0,1,.86,3.49c.4,2.64.9,4.59,4.12,7.55,1.25,1.14,3.32,2.64,5.94,4.53a130.93,130.93,0,0,1,11.51,9.08,10.49,10.49,0,0,0-3.73,2.51c-2.07,2.45,1.13,7,4.58,10.7-.19.2-.38.42-.6.61C106.94,80.72,102.83,81.61,97.34,81.15Z"/><path d="M88.78,51.56a6.46,6.46,0,0,1-.55-2.49c-.15-1.51-.33-3.23-1.93-3.73s-3.19,1.16-4,2.08a12.78,12.78,0,0,1-2.16,1.88c-1.48,1.1-3.5,2.61-2.56,5.14s3,2.55,4.62,2.47a18.47,18.47,0,0,1,2.27,0A7.58,7.58,0,0,1,87.67,58,9.5,9.5,0,0,0,91,59.25l.39,0a2.22,2.22,0,0,0,2.24-1.54C94.32,55.37,90.58,52.5,88.78,51.56Z"/><g class="cls-3"><circle class="cls-4" cx="27.16" cy="102.3" r="26.51"/></g><rect class="cls-2" x="22.21" y="81.19" width="9.9" height="27.23" rx="2.48"/><circle class="cls-2" cx="27.16" cy="118.32" r="4.95"/></svg>