<?xml version="1.0" encoding="utf-8"?>
<!-- Generator: Adobe Illustrator 24.3.0, SVG Export Plug-In . SVG Version: 6.00 Build 0)  -->
<svg version="1.1" id="Layer_1" xmlns="http://www.w3.org/2000/svg" xmlns:xlink="http://www.w3.org/1999/xlink" x="0px" y="0px"
	 viewBox="0 0 128.2 128.2" style="enable-background:new 0 0 128.2 128.2;" xml:space="preserve">
<style type="text/css">
	.st0{fill:#FFB9A3;}
	.st1{fill:#F5A787;}
	.st2{fill:#E69676;}
	.st3{fill:#FFB496;}
	.st4{fill:#FFCDBA;}
	.st5{fill:url(#SVGID_1_);}
	.st6{fill:url(#SVGID_2_);}
	.st7{fill:url(#SVGID_3_);}
	.st8{fill:url(#SVGID_4_);}
	.st9{fill:url(#SVGID_5_);}
	.st10{fill:url(#SVGID_6_);}
	.st11{fill:url(#SVGID_7_);}
	.st12{opacity:0.39;fill:url(#SVGID_8_);enable-background:new    ;}
	.st13{opacity:0.39;fill:#FFECAA;enable-background:new    ;}
	.st14{fill:url(#SVGID_9_);}
	.st15{opacity:0.39;fill:url(#SVGID_10_);enable-background:new    ;}
	.st16{opacity:0.39;fill:url(#SVGID_11_);enable-background:new    ;}
	.st17{fill:url(#SVGID_12_);}
	.st18{fill:#C74126;}
	.st19{fill:url(#SVGID_13_);}
	.st20{fill:url(#SVGID_14_);}
	.st21{fill:none;stroke:#000000;stroke-width:0.25;stroke-miterlimit:10;}
</style>
<g>
	<g id="Layer_1_1_">
		<path class="st0" d="M103.7,38.4c-4,1.5-11,0.4-14.3-1.1c-0.3,1.3-0.5,1.7-0.8,3.3c2.8-1.2,8.4,0.1,14.5,1.7
			C102.8,41,103.1,39.6,103.7,38.4z"/>
		<path class="st1" d="M122.6,38.2c0.1,1.8-0.6,3.6-1.8,4.8c-1.4,1.3-2.2,1-2.9,1.5s-1,1.5-3.1,1.9c-1.6,0.3-2.6-0.4-3.7-0.4
			s-1.9,0.8-4,0.2c-1.9-0.5-1.9-2-2.6-2.5c-0.9-0.6-2.7-1.3-2.7-3.4c0-2.8,1.5-3.1,2.7-4.8c0.8-1.1-0.2-2.2,1.8-4
			c1.7-1.5,2.7-0.9,4-1.5s1.2-1.5,3.6-1.5c1.8,0,2.7,1,3.6,1.2s2.5-0.1,3.5,0.5C123.1,31.6,122.6,35.5,122.6,38.2z"/>
		<path class="st2" d="M110.8,31.9c0.6,0.5,1.2,2.9,0.3,3.2c-0.8,0.2-1.4,0.6-2,1.2c-0.4,0.8-1.3,1.1-2,0.7
			c-0.2-0.1-0.4-0.3-0.6-0.5c-1.1-1-0.8-2.9,0.4-4.2C107.9,31.2,109.6,31,110.8,31.9z"/>
		<path class="st2" d="M118.1,33.6c-0.3,0.7-1.9,2.1-2.7,1.7c-0.7-0.4-1.4-0.7-2.1-0.8c-1.4-0.3-1.8-2.6-1.3-3.7
			c0.7-1.4,2.6-1.6,4.2-0.9S118.6,32.5,118.1,33.6z"/>
		<path class="st2" d="M105.9,37.2c1.4,0.2,2.3,1.5,2.1,2.8c-0.1,0.7-0.5,1.3-1,1.7c-1,1-1.2,1.8-2.3,1.5c-1.5-0.4-2.2-2.1-1.8-3.8
			C103.2,38,104.5,37,105.9,37.2L105.9,37.2z"/>
		<path class="st2" d="M106.6,44.7c-0.4-1.3,0.8-2.8,1.7-2.6c0.8,0.2,1.7,0.2,2.5-0.1c1.3-0.5,2,0.1,2.2,1.2
			c0.1,1.5-1.3,2.8-3.1,2.9S107,45.8,106.6,44.7z"/>
		<path class="st2" d="M118.2,40.5c1.5,0.7,1.4,2.9,0.5,3.2c-0.8,0.2-1.6,0.6-2.1,1.3c-0.7,1.2-1.6,1.3-2.4,0.5
			c-1.1-1.1-0.7-3,0.6-4.2S117.1,40,118.2,40.5z"/>
		<path class="st2" d="M114.1,36c0.5,0.8,0.7,1.7,0.6,2.6c-0.1,1.2-0.9,1.5-1.6,2.1c-1.2,0.8-2.9,1.1-3.7,0.2c-1-1.1-0.6-3,0.7-4.2
			S113.3,35.2,114.1,36z"/>
		<path class="st2" d="M121.5,38c0,0.8-0.4,2.1-1.2,2.2s-2.1-0.6-2.9-0.9c-1.4-0.4-1.7-1.1-1.5-2.2c0.3-1.5,1.6-2.3,3.3-1.9
			C120.4,35.5,121.4,36.7,121.5,38z"/>
		<path class="st3" d="M110.4,31.7c0.6,0.5,1,2.6,0.2,3c-0.7,0.2-1.4,0.7-1.8,1.4c-0.3,0.8-1.2,1.2-2,0.9c-0.3-0.1-0.5-0.3-0.7-0.5
			c-1.1-1-0.8-3,0.4-4.3C107.5,31,109.2,30.8,110.4,31.7z"/>
		<path class="st3" d="M117.7,33.4c-0.3,0.7-1.8,1.9-2.5,1.5s-1.4-0.7-2.2-0.9c-1.4-0.3-1.8-2.4-1.3-3.4c0.7-1.4,2.6-1.6,4.2-0.9
			S118.2,32.3,117.7,33.4z"/>
		<path class="st3" d="M105.5,37c1.1,0.2,1.9,1.2,1.9,2.4c0,0.8-0.4,1.6-1,2.1c-1,1-1,1.8-2.1,1.5c-1.5-0.4-2.2-2.2-1.8-3.8
			C102.8,37.7,104.1,36.8,105.5,37L105.5,37z"/>
		<path class="st3" d="M106.2,44.5c-0.4-1.3,0.8-2.8,1.7-2.6c0.8,0.2,1.6,0.3,2.5,0.1c1.3-0.5,2.1-0.1,2.2,1.1
			c0.1,1.5-1.3,2.8-3.1,2.9S106.6,45.6,106.2,44.5z"/>
		<path class="st3" d="M117.8,40.2c1.5,0.7,1.4,2.9,0.5,3.2c-0.8,0.2-1.6,0.6-2.1,1.3c-0.7,1.2-1.6,1.3-2.4,0.5
			c-1-1.1-0.7-3,0.6-4.2S116.8,39.7,117.8,40.2z"/>
		<path class="st3" d="M113.7,35.8c0.5,0.5,0.4,1.7,0.4,2.6c-0.1,0.9-0.6,1.6-1.4,2c-1.2,0.8-2.9,1.1-3.7,0.2c-1-1.1-0.6-3,0.7-4.2
			S112.9,35,113.7,35.8z"/>
		<path class="st3" d="M120.9,38c0,0.8-0.4,2.1-1.3,2.2s-2.1-0.6-2.9-0.9c-1.4-0.4-1.7-1.1-1.5-2.2c0.2-1.3,1.5-2.2,2.8-2
			c0.2,0,0.3,0.1,0.5,0.1C119.8,35.5,120.8,36.6,120.9,38z"/>
		<path class="st4" d="M108.9,32.2c0,0.5-0.2,0.9-0.6,1.1c-0.4,0.3-0.8,0.7-1,1.1c-0.4,0.8-0.8,1.1-1.1,0.8s-0.2-1.8,0.6-2.6
			S108.8,31.9,108.9,32.2z"/>
		<path class="st4" d="M114,29.8c0,0.4-0.2,0.8-0.6,1.1c-0.4,0.2-0.3,0.5-0.6,1c-0.4,0.8-0.8,1.1-1.1,0.8s-0.2-1.8,0.6-2.6
			S113.9,29.5,114,29.8z"/>
		<path class="st4" d="M105,37.8c0.3,0.1,0.9,0.5,0.1,1.4c-0.4,0.4-0.7,1-0.7,1.6c0,1-0.4,1.4-0.9,1.3c-0.7-0.2-0.8-1.4-0.5-2.7
			C103.2,38.5,104.1,37.8,105,37.8z"/>
		<path class="st4" d="M110.6,42.3c0.3-0.1,1.7,1-0.5,1.3c-0.7,0-1.4,0.3-2,0.7c-0.6,0.8-1.4,0.5-1.5,0c-0.2-0.9,0.3-1.5,1.5-1.8
			S109.2,42.6,110.6,42.3z"/>
		<path class="st4" d="M111.3,36.3c0.3,0.1,0.7,0.6-0.1,1.4c-0.5,0.4-0.8,0.9-0.9,1.5c-0.1,0.9-0.6,1.3-1,1.2s-0.5-1.5,0-2.7
			C109.6,36.9,110.4,36.3,111.3,36.3z"/>
		<path class="st4" d="M116.1,40.7c0.3,0.1,0.7,0.6-0.1,1.4c-0.5,0.4-0.8,0.9-0.9,1.5c-0.1,0.9-0.6,1.3-1,1.2
			c-0.6-0.2-0.5-1.5,0-2.7C114.4,41.2,115.2,40.7,116.1,40.7z"/>
		<path class="st4" d="M117.9,35.7c0.3,0,0.5,0.4-0.5,0.8c-0.6,0.2-1,0.3-1.4,0.9c-0.4,0.8-0.6,0.5-0.6,0
			C115.7,36.3,116.7,35.6,117.9,35.7z"/>
		
			<radialGradient id="SVGID_1_" cx="110.3786" cy="698.2368" r="18.81" gradientTransform="matrix(0.99 0 0 0.99 -4.46 -661.64)" gradientUnits="userSpaceOnUse">
			<stop  offset="0.65" style="stop-color:#B62209"/>
			<stop  offset="0.99" style="stop-color:#71210D"/>
		</radialGradient>
		<path class="st5" d="M126.1,32.5c0.3-2.2,1.8-5.2,0.5-9.6c-1.6-5.4-9.3-12.3-21.1-4.9c-2.7,1.7-8.3,7.7-22,8.3
			c2,3.2,5.4,10.7,5.9,14.4c0.8-3.2,3.8-8.2,6.7-10c0.8-0.5,8.1-6.5,11.3-8.9c8.3-6.1,15.2-2.4,15.2,2.9c0,5.6-5.4,4.8-6.7,4.9
			s-2.1,1-0.6,1.3c0.9,0.1,1.7,0.2,2.6,0.4c0.3,0.1,0.4,0.5,0.1,0.6c-0.8,0.4-1.6,0.8-2.3,1.4c-0.6,0.5-0.8,1.6,0.4,1.1
			c0.9-0.4,1.9-0.6,2.9-0.6c0.4,0.1,0.7,0.3,0.7,0.5c-0.6,1.4-1.6,2.5-3,3.1c-0.8,0.3-1.2,1.1,0.4,1.1c1.3-0.1,2.5-0.6,3.4-1.5
			c0.4-0.4,0.9-0.2,0.4,0.8c-0.5,1.1-1.4,2.1-2.5,2.7c-1.1,0.9-0.6,1.4,0.3,1.2c1.1-0.4,2.1-1,2.9-1.9c0.2-0.3,0.5,0.3,0.1,1
			c-0.8,1.2-1.8,1.2-2.4,2.6c-0.5,1.1,0.1,2.1,1.2,0.9c0.4-0.5,3-1.7,4.2-4.1C126.9,35.9,125.6,35.8,126.1,32.5z"/>
		
			<radialGradient id="SVGID_2_" cx="105.51" cy="689.21" r="17.93" gradientTransform="matrix(1 0 0 1 0 -662)" gradientUnits="userSpaceOnUse">
			<stop  offset="0.65" style="stop-color:#B62209"/>
			<stop  offset="0.99" style="stop-color:#71210D"/>
		</radialGradient>
		<path class="st6" d="M125.2,32.5c0.6-4.6,1.6-4.6,0.3-9.5c-1.8-6.9-11.1-9.7-19.3-4.1c-6.4,4.4-11.1,9.5-21.7,9.2
			c-0.4-0.7-0.7-1.3-1.1-1.8c13.7-0.5,19.3-6.6,22-8.3c11.8-7.4,19.5-0.6,21.1,4.8c1.2,4.4-0.2,7.4-0.5,9.6
			c-0.5,3.3,0.8,3.4-1.4,7.6C126.1,35.7,124.9,35.2,125.2,32.5z"/>
		
			<radialGradient id="SVGID_3_" cx="104.46" cy="690.91" r="15.54" gradientTransform="matrix(1 0 0 1 0 -662)" gradientUnits="userSpaceOnUse">
			<stop  offset="0.65" style="stop-color:#B62209"/>
			<stop  offset="0.99" style="stop-color:#71210D"/>
		</radialGradient>
		<path class="st7" d="M94.6,29.1c6.1-3,10.2-8.2,16.4-10.7c3.6-1.4,8.7-1.4,10.8,2c0.8,1.3,1.1,2.9,0.8,4.4c0-5.3-6.8-9-15.2-2.9
			c-3.3,2.4-9.9,8.1-11.2,9c-2.7,2.1-6.1,6.6-6.8,9.8c-0.3-2.5-2-6.7-3.7-10.2C88.8,30.6,91.8,30.5,94.6,29.1z"/>
		<path class="st0" d="M24.4,38.4c4,1.5,11,0.4,14.3-1.1c0.3,1.3,0.5,1.7,0.8,3.3c-2.8-1.2-8.4,0.1-14.5,1.7
			C25.3,41,25.1,39.6,24.4,38.4z"/>
		<path class="st1" d="M5.6,38.2C5.5,40,6.2,41.8,7.4,43c1.4,1.3,2.1,1,2.9,1.5s1,1.5,3.1,1.9C15,46.7,16,46,17,46s1.9,0.8,4,0.2
			s1.9-2,2.6-2.5c0.9-0.6,2.7-1.3,2.7-3.4c0-2.8-1.5-3.1-2.7-4.8c-0.8-1.1,0.2-2.2-1.8-4c-1.7-1.5-2.7-0.9-4-1.5s-1.2-1.5-3.6-1.5
			c-1.8,0-2.6,1-3.6,1.2s-2.5-0.1-3.5,0.5C5.1,31.6,5.6,35.5,5.6,38.2z"/>
		<path class="st2" d="M17.4,31.9c-0.6,0.5-1.2,2.9-0.4,3.2c0.8,0.2,1.4,0.7,2,1.2c0.4,0.8,1.3,1.1,2,0.7c0.2-0.1,0.4-0.3,0.6-0.5
			c1.1-1,0.9-2.9-0.4-4.2C20.3,31.2,18.6,31,17.4,31.9z"/>
		<path class="st2" d="M10.1,33.6c0.3,0.7,1.9,2.1,2.7,1.7c0.7-0.4,1.4-0.6,2.1-0.8c1.4-0.3,1.8-2.6,1.3-3.7
			c-0.7-1.4-2.6-1.6-4.2-0.9S9.6,32.5,10.1,33.6z"/>
		<path class="st2" d="M22.2,37.2c-1.4,0.2-2.3,1.5-2.1,2.8c0.1,0.7,0.5,1.3,1,1.7c1,1,1.2,1.8,2.3,1.5c1.5-0.4,2.2-2.1,1.8-3.8
			C25,38,23.7,37,22.2,37.2C22.3,37.2,22.3,37.2,22.2,37.2z"/>
		<path class="st2" d="M21.5,44.7c0.4-1.3-0.8-2.8-1.7-2.6c-0.8,0.2-1.7,0.1-2.5-0.1c-1.4-0.5-2.1,0.1-2.1,1.2
			c-0.1,1.5,1.3,2.8,3,2.9S21.2,45.8,21.5,44.7z"/>
		<path class="st2" d="M10,40.5c-1.5,0.7-1.4,2.9-0.5,3.2c0.8,0.2,1.6,0.6,2.1,1.3c0.7,1.2,1.6,1.3,2.4,0.5c1.1-1.1,0.7-3-0.5-4.2
			S11,40,10,40.5z"/>
		<path class="st2" d="M14.1,36c-0.5,0.8-0.7,1.7-0.6,2.6c0.1,1.2,0.9,1.5,1.6,2.1c1.2,0.8,2.9,1.1,3.7,0.2c1-1.1,0.6-3-0.7-4.2
			S14.9,35.2,14.1,36z"/>
		<path class="st2" d="M6.7,38c0,0.8,0.4,2.1,1.3,2.2s2.1-0.6,2.9-0.9c1.4-0.4,1.7-1.1,1.5-2.2c-0.2-1.3-1.5-2.2-2.9-2
			c-0.1,0-0.3,0.1-0.4,0.1C7.7,35.5,6.7,36.7,6.7,38z"/>
		<path class="st3" d="M17.8,31.7c-0.5,0.5-1,2.6-0.2,3c0.8,0.2,1.4,0.7,1.8,1.4c0.3,0.8,1.2,1.2,2,0.9c0.3-0.1,0.5-0.3,0.6-0.5
			c1.1-1,0.8-3-0.4-4.3C20.7,31,19,30.8,17.8,31.7z"/>
		<path class="st3" d="M10.5,33.4c0.3,0.7,1.8,1.9,2.5,1.5s1.4-0.7,2.2-0.9c1.4-0.3,1.8-2.4,1.3-3.4c-0.7-1.4-2.6-1.6-4.2-0.9
			S10,32.3,10.5,33.4z"/>
		<path class="st3" d="M22.7,37c-1.1,0.2-2,1.2-2,2.4c0,0.8,0.4,1.6,1,2.1c1,1,1,1.8,2.1,1.5c1.5-0.4,2.2-2.2,1.8-3.8
			C25.3,37.8,24,36.8,22.7,37z"/>
		<path class="st3" d="M21.9,44.5c0.4-1.3-0.8-2.8-1.7-2.6c-0.8,0.2-1.6,0.3-2.5,0.1c-1.4-0.5-2.1-0.1-2.2,1.1
			c-0.1,1.5,1.3,2.8,3,2.9S21.6,45.6,21.9,44.5z"/>
		<path class="st3" d="M10.4,40.2C8.9,41,9,43.1,9.8,43.4c0.8,0.2,1.6,0.6,2.1,1.3c0.7,1.2,1.6,1.3,2.4,0.5c1.1-1.1,0.7-3-0.6-4.2
			S11.4,39.7,10.4,40.2z"/>
		<path class="st3" d="M14.5,35.8c-0.5,0.5-0.4,1.7-0.4,2.6c0.1,0.9,0.6,1.6,1.4,2c1.2,0.8,2.9,1.1,3.7,0.2c1-1.1,0.6-3-0.7-4.2
			S15.3,35,14.5,35.8z"/>
		<path class="st3" d="M7.3,38c0,0.8,0.4,2.1,1.2,2.2s2.1-0.6,2.9-0.9c1.4-0.4,1.7-1.1,1.5-2.2c-0.2-1.3-1.5-2.2-2.9-2
			c-0.1,0-0.3,0.1-0.4,0.1C8.4,35.5,7.3,36.6,7.3,38z"/>
		<path class="st4" d="M19.2,32.2c0,0.5,0.2,0.9,0.6,1.1c0.4,0.3,0.8,0.7,1,1.1c0.4,0.8,0.8,1.1,1.1,0.8s0.2-1.8-0.6-2.6
			S19.3,31.9,19.2,32.2z"/>
		<path class="st4" d="M14.1,29.8c0,0.4,0.2,0.8,0.6,1.1c0.4,0.2,0.3,0.5,0.6,1c0.4,0.8,0.8,1.1,1.1,0.8s0.2-1.8-0.6-2.6
			S14.2,29.5,14.1,29.8z"/>
		<path class="st4" d="M23.2,37.8c-0.3,0.1-0.9,0.5-0.1,1.4c0.4,0.4,0.7,1,0.7,1.6c0,1,0.4,1.4,0.9,1.3c0.6-0.2,0.8-1.4,0.5-2.7
			C25,38.5,24.1,37.8,23.2,37.8z"/>
		<path class="st4" d="M17.6,42.3c-0.3-0.1-1.7,1,0.5,1.3c0.7,0,1.4,0.3,2,0.7c0.6,0.8,1.4,0.5,1.5,0c0.2-0.9-0.4-1.5-1.5-1.8
			S19,42.6,17.6,42.3z"/>
		<path class="st4" d="M16.8,36.3c-0.3,0.1-0.7,0.6,0.1,1.4c0.5,0.4,0.8,0.9,0.9,1.5c0.1,0.9,0.6,1.3,1,1.2s0.5-1.5,0-2.7
			C18.6,36.9,17.7,36.3,16.8,36.3z"/>
		<path class="st4" d="M12.1,40.7c-0.3,0.1-0.7,0.6,0.1,1.4c0.5,0.4,0.8,0.9,0.8,1.5c0.1,0.9,0.6,1.3,1,1.2s0.5-1.5,0-2.7
			C13.8,41.2,12.9,40.7,12.1,40.7z"/>
		<path class="st4" d="M10.3,35.7c-0.3,0-0.5,0.4,0.5,0.8c0.6,0.1,1.1,0.4,1.4,0.9c0.4,0.8,0.6,0.5,0.6,0
			C12.5,36.3,11.4,35.6,10.3,35.7z"/>
		
			<radialGradient id="SVGID_4_" cx="22.65" cy="691.55" r="18.81" gradientTransform="matrix(1 0 0 1 0 -662)" gradientUnits="userSpaceOnUse">
			<stop  offset="0.65" style="stop-color:#B62209"/>
			<stop  offset="0.99" style="stop-color:#71210D"/>
		</radialGradient>
		<path class="st8" d="M2.1,32.5c-0.3-2.2-1.8-5.2-0.5-9.6c1.6-5.4,9.3-12.3,21.1-4.9c2.7,1.7,8.3,7.7,22,8.3
			c-2,3.2-5.4,10.7-5.9,14.4c-0.8-3.2-3.8-8.2-6.7-10c-0.8-0.5-8.1-6.5-11.3-8.9c-8.3-6.1-15.2-2.4-15.2,2.9c0,5.6,5.4,4.8,6.7,4.9
			s2.1,1,0.6,1.3c-0.9,0.1-1.7,0.2-2.6,0.4c-0.3,0.1-0.4,0.5-0.1,0.6c0.8,0.4,1.6,0.8,2.3,1.4c0.6,0.5,0.8,1.6-0.4,1.1
			c-0.9-0.4-1.9-0.6-2.9-0.6c-0.4,0.1-0.7,0.3-0.7,0.5c0.6,1.4,1.6,2.5,3,3.1c0.8,0.3,1.2,1.1-0.4,1.1c-1.3-0.1-2.5-0.6-3.4-1.5
			c-0.4-0.4-0.9-0.2-0.4,0.8c0.5,1.1,1.4,2.1,2.5,2.7c1.1,0.9,0.6,1.4-0.3,1.2c-1.1-0.4-2.1-1-2.9-1.9c-0.2-0.3-0.5,0.3-0.1,1
			C7.3,42,8.3,42,9,43.4c0.5,1.1-0.1,2.1-1.2,0.9c-0.4-0.5-2.9-1.7-4.2-4.1C1.2,35.9,2.5,35.8,2.1,32.5z"/>
		
			<radialGradient id="SVGID_5_" cx="22.65" cy="689.21" r="17.9358" gradientTransform="matrix(1 0 0 1 0 -662)" gradientUnits="userSpaceOnUse">
			<stop  offset="0.65" style="stop-color:#B62209"/>
			<stop  offset="0.99" style="stop-color:#71210D"/>
		</radialGradient>
		<path class="st9" d="M3,32.5c-0.6-4.6-1.6-4.6-0.3-9.5c1.8-6.9,11.1-9.7,19.3-4.1c6.4,4.4,11.1,9.5,21.7,9.2
			c0.4-0.7,0.7-1.3,1-1.8c-13.7-0.5-19.3-6.6-22-8.3c-11.8-7.4-19.5-0.6-21.1,4.8c-1.2,4.4,0.2,7.4,0.5,9.6c0.5,3.3-0.9,3.4,1.4,7.6
			C2.1,35.7,3.3,35.2,3,32.5z"/>
		
			<radialGradient id="SVGID_6_" cx="23.7" cy="690.91" r="15.54" gradientTransform="matrix(1 0 0 1 0 -662)" gradientUnits="userSpaceOnUse">
			<stop  offset="0.65" style="stop-color:#B62209"/>
			<stop  offset="0.99" style="stop-color:#71210D"/>
		</radialGradient>
		<path class="st10" d="M33.5,29.1c-6.1-3-10.2-8.2-16.4-10.7c-3.6-1.4-8.7-1.4-10.8,2c-0.8,1.3-1.1,2.9-0.8,4.4
			c0-5.3,6.9-9,15.2-2.9c3.3,2.4,10,8.1,11.2,9c2.7,2.1,6.1,6.6,6.8,9.8c0.3-2.5,2-6.7,3.7-10.2C39.4,30.6,36.3,30.5,33.5,29.1z"/>
		
			<radialGradient id="SVGID_7_" cx="68.9486" cy="735.0568" r="38.47" gradientTransform="matrix(0.99 0 0 0.99 -4.46 -661.64)" gradientUnits="userSpaceOnUse">
			<stop  offset="0.65" style="stop-color:#C74126"/>
			<stop  offset="0.99" style="stop-color:#71210D"/>
		</radialGradient>
		<path class="st11" d="M80,53.8C84.8,46,90.8,44,90.8,35.4c0-4-1.9-6.7-6-10c-5-4.1-13-6.1-20.7-6.1s-15.7,2.1-20.7,6.1
			c-4,3.3-6,6-6,10c0,8.6,6,10.6,10.8,18.4c0.9,1.5,1.3,3.4,1,5.2c-1,3.2-1.2,5-0.9,7.5c0.3,3,1.3,5.9,3.1,8.4c1.6,2,2.4,3.3,2.8,5
			c0.7,3-0.8,13.9,0.4,20.7c0.8,4.5,2,5.8,4.4,8.2c1.1,1.1,0.5,2.7,0.6,3.4c0.2,1.2,0.8,1.5,1.6,0.8c0.7-0.8,1.7-1.3,2.8-1.5
			c1.1,0,2.2,0.6,2.9,1.4c0.8,0.6,1.5,0.4,1.7-0.8c0.1-0.7-0.5-2.3,0.6-3.4c2.4-2.4,3.7-3.8,4.5-8.2c1.2-6.8-0.3-17.7,0.4-20.7
			c0.4-1.7,1.5-2.7,2.8-5c1.5-2.6,2.5-5.5,3-8.4C80.2,64,80,62.2,79,59C78.7,57.2,79.1,55.4,80,53.8z"/>
		
			<radialGradient id="SVGID_8_" cx="60.7886" cy="697.9768" r="9.15" gradientTransform="matrix(0.99 0 0 0.99 -4.46 -661.64)" gradientUnits="userSpaceOnUse">
			<stop  offset="0.1" style="stop-color:#C74126"/>
			<stop  offset="0.35" style="stop-color:#BC4029"/>
		</radialGradient>
		<path class="st12" d="M45,34.7c1.1,0.8,4.6,0.6,7.2-1c2.5-1.6,5.4-2.7,8.3-3.1c5.1-0.6,7.5-2.3,6.8-4.1c-1-2.4-9.2-4-15.4-1.2
			C44.3,28.7,43.5,33.6,45,34.7z"/>
		<path class="st13" d="M85.1,38.9c-0.8,0-3.1,2.3-4.5,3.7s-3,2.6-4.9,3.5c-3.2,1.6-4.5,1.6-3.7,2.2c1.1,0.7,6.6-0.7,10.2-3.6
			C86.5,41.2,86.2,38.9,85.1,38.9z"/>
		<path class="st13" d="M75.6,67.2c-0.4,0-1.6,1.3-2.4,2c-0.7,0.7-1.6,1.4-2.6,1.9c-1.7,0.9-2.4,0.9-2,1.2c0.6,0.4,3.5-0.4,5.4-1.9
			C76.4,68.5,76.2,67.2,75.6,67.2z"/>
		
			<radialGradient id="SVGID_9_" cx="68.3" cy="708.92" r="17.8529" gradientTransform="matrix(1 0 0 1 0 -662)" gradientUnits="userSpaceOnUse">
			<stop  offset="0.65" style="stop-color:#C74126"/>
			<stop  offset="0.99" style="stop-color:#71210D"/>
		</radialGradient>
		<path class="st14" d="M80,53.8c4.2-6.8,10.8-9.5,10.8-17.9c-1.7,6.2-6.8,9.8-9.8,11.6c-5.3,3.1-11.3,4.9-17.4,5.2
			c-6,0.4-12.4,0.6-17.8-2.2c0.9,1.1,1.7,2.2,2.4,3.4c0.6,1.1,1,2.2,1.1,3.5c10.1-4.2,24.4-1.7,29.7,0.8
			C78.8,56.6,79.2,55.1,80,53.8z"/>
		
			<radialGradient id="SVGID_10_" cx="59.4603" cy="725.89" r="5.8735" gradientTransform="matrix(1 0 0 1 0 -662)" gradientUnits="userSpaceOnUse">
			<stop  offset="0.1" style="stop-color:#C74126"/>
			<stop  offset="0.35" style="stop-color:#BC4029"/>
		</radialGradient>
		<path class="st15" d="M55.1,67c1.9-1.5,4.9-1.9,7.1-1.9c3.5-0.1,5.1-0.3,4.4-2.1c-0.4-1.1-1.9-2-3.7-2.6c-2.1-0.6-7.2-1-9.8,2.5
			C51.5,65.2,51.8,69.6,55.1,67z"/>
		
			<radialGradient id="SVGID_11_" cx="59.02" cy="755.07" r="6.44" gradientTransform="matrix(1 0 0 1 0 -662)" gradientUnits="userSpaceOnUse">
			<stop  offset="0.1" style="stop-color:#C74126"/>
			<stop  offset="0.35" style="stop-color:#BC4029"/>
		</radialGradient>
		<path class="st16" d="M60.9,86.3c0.4-2.7-2.1-3.1-2.8-0.3c-1.2,4.1-1.3,8.5-0.3,12.7c1.2,4.4,2.6,3.5,2.5,1.2
			C60.1,95.3,60.2,90.8,60.9,86.3z"/>
		
			<radialGradient id="SVGID_12_" cx="63.453" cy="773.67" r="2.6381" gradientTransform="matrix(1 0 0 1 0 -662)" gradientUnits="userSpaceOnUse">
			<stop  offset="0.1" style="stop-color:#C74126"/>
			<stop  offset="0.35" style="stop-color:#BC4029"/>
		</radialGradient>
		<path class="st17" d="M66.4,111.8c0.5,0.4,0.9-0.2-0.1-1c-1.5-1-3.3-1.1-5.4,0.4c-1.3,0.9-0.9,2.4,0.4,1.2
			C63.3,110.2,65.1,110.8,66.4,111.8z"/>
		<path class="st18" d="M69.2,108.8c0.6-0.6,1.1-1.2,1.6-1.7c-3.9,2.1-8.5,2.5-12.6,0.9l0.8,0.8c0.6,0.8,0.9,1.9,0.6,2.9
			c0.5-0.8,1.2-1.4,2-1.7c2.3-1.2,5.2-0.7,7,1.2C68.4,110.3,68.7,109.5,69.2,108.8z"/>
		
			<radialGradient id="SVGID_13_" cx="65.46" cy="736.27" r="11.96" gradientTransform="matrix(1 0 0 1 0 -662)" gradientUnits="userSpaceOnUse">
			<stop  offset="0.65" style="stop-color:#C74126"/>
			<stop  offset="0.99" style="stop-color:#71210D"/>
		</radialGradient>
		<path class="st19" d="M74.1,79.9c0.4-1.7,1.5-2.7,2.8-5c1.6-2.8,2.6-6,3-9.2c-3.5,10.4-22.5,12.2-29,8.7c0.1,0.2,0.3,0.4,0.4,0.6
			c1.6,2,2.4,3.3,2.8,5c0.1,0.3,0.1,0.7,0.1,1c3.2-1.8,15.1-1.4,19.7,1.8C73.9,81.8,74,80.8,74.1,79.9z"/>
		
			<radialGradient id="SVGID_14_" cx="65.415" cy="738.52" r="9.6501" gradientTransform="matrix(1 0 0 1 0 -662)" gradientUnits="userSpaceOnUse">
			<stop  offset="0.65" style="stop-color:#C74126"/>
			<stop  offset="0.99" style="stop-color:#71210D"/>
		</radialGradient>
		<path class="st20" d="M76.9,74.9c0.5-0.9,1-1.8,1.4-2.8c-4.4,5.5-16.8,7.7-25.7,4.4c0.5,0.8,1,1.6,1.3,2.5
			c5.2-0.6,13.7-0.5,20.1,1.8c0-0.3,0.1-0.6,0.1-0.9C74.5,78.2,75.7,77.2,76.9,74.9z"/>
		<path class="st21" d="M80,53.8C84.8,46,90.8,44,90.8,35.4c0-4-1.9-6.7-6-10c-5-4.1-13-6.1-20.7-6.1s-15.7,2.1-20.7,6.1
			c-4,3.3-6,6-6,10c0,8.6,6,10.6,10.8,18.4c0.9,1.5,1.3,3.4,1,5.2c-1,3.2-1.2,5-0.9,7.5c0.3,3,1.3,5.9,3.1,8.4c1.6,2,2.4,3.3,2.8,5
			c0.7,3-0.8,13.9,0.4,20.7c0.8,4.5,2,5.8,4.4,8.2c1.1,1.1,0.5,2.7,0.6,3.4c0.2,1.2,0.8,1.5,1.6,0.8c0.7-0.8,1.7-1.3,2.8-1.5
			c1.1,0,2.2,0.6,2.9,1.4c0.8,0.6,1.5,0.4,1.7-0.8c0.1-0.7-0.5-2.3,0.6-3.4c2.4-2.4,3.7-3.8,4.5-8.2c1.2-6.8-0.3-17.7,0.4-20.7
			c0.4-1.7,1.5-2.7,2.8-5c1.5-2.6,2.5-5.5,3-8.4C80.2,64,80,62.2,79,59C78.7,57.2,79.1,55.4,80,53.8z"/>
	</g>
</g>
</svg>
