<?xml version="1.0" encoding="utf-8"?>
<!-- Generator: Adobe Illustrator 24.3.0, SVG Export Plug-In . SVG Version: 6.00 Build 0)  -->
<svg version="1.1" id="Layer_1" xmlns="http://www.w3.org/2000/svg" xmlns:xlink="http://www.w3.org/1999/xlink" x="0px" y="0px"
	 viewBox="0 0 128.2 128.2" style="enable-background:new 0 0 128.2 128.2;" xml:space="preserve">
<style type="text/css">
	.st0{fill:url(#SVGID_1_);}
	.st1{fill:#BB3485;stroke:#000000;stroke-width:0.34;stroke-miterlimit:10;}
	.st2{opacity:0.39;fill:#FF7FF4;enable-background:new    ;}
</style>
<g>
	<g id="Layer_1_1_">
		
			<radialGradient id="SVGID_1_" cx="64.1092" cy="726.0878" r="83.6207" gradientTransform="matrix(1 0 0 1 0 -662)" gradientUnits="userSpaceOnUse">
			<stop  offset="4.000000e-02" style="stop-color:#7F3F97"/>
			<stop  offset="0.25" style="stop-color:#7C3F97"/>
			<stop  offset="0.4" style="stop-color:#743E96"/>
			<stop  offset="0.52" style="stop-color:#653D94"/>
			<stop  offset="0.63" style="stop-color:#4F3B92"/>
			<stop  offset="0.73" style="stop-color:#343990"/>
			<stop  offset="0.75" style="stop-color:#2B388F"/>
		</radialGradient>
		<path class="st0" d="M71.1,126c0,0,19.8,1,35.7-18.3s20.3-37.2,20.3-51.3S116.5,11.9,84.3,4.5c-30-7-59.8,2.6-71.6,17.5
			s-14.8,34.8-8,55.4c9.9,29.7,37.7,44.1,37.7,44.1s1.8-10,15.8-8.7S71.1,126,71.1,126z"/>
		<circle class="st1" cx="24.8" cy="56.4" r="12.1"/>
		<circle class="st1" cx="44.6" cy="27.9" r="12.1"/>
		<circle class="st1" cx="87" cy="27.9" r="12.1"/>
		<circle class="st1" cx="68.9" cy="58.5" r="12.1"/>
		<circle class="st1" cx="103.5" cy="63" r="12.1"/>
		<circle class="st1" cx="83.2" cy="100.7" r="12.1"/>
		<circle class="st1" cx="36.9" cy="91.7" r="12.1"/>
		<path class="st2" d="M35.7,25.9c0.7,0.5,2.9,0.4,4.5-0.6s3.4-1.7,5.2-1.9c3.2-0.4,4.7-1.4,4.3-2.6C49.1,19.2,44,18.2,40,20
			C35.2,22.1,34.7,25.2,35.7,25.9z"/>
		<path class="st2" d="M16,54.7c0.7,0.5,2.9,0.4,4.5-0.6s3.4-1.7,5.2-1.9c3.2-0.4,4.7-1.4,4.3-2.6c-0.6-1.5-5.8-2.5-9.7-0.8
			C15.6,50.9,15,54,16,54.7z"/>
		<path class="st2" d="M78.8,25.9c0.7,0.5,2.9,0.4,4.5-0.6s3.4-1.7,5.2-1.9c3.2-0.4,4.7-1.4,4.3-2.6c-0.6-1.5-5.8-2.5-9.7-0.8
			C78.3,22.1,77.8,25.2,78.8,25.9z"/>
		<path class="st2" d="M59.7,56.8c0.7,0.5,2.9,0.4,4.5-0.6c1.6-1,3.4-1.7,5.2-1.9c3.2-0.4,4.7-1.4,4.3-2.6c-0.6-1.5-5.8-2.5-9.7-0.8
			C59.2,53,58.7,56.1,59.7,56.8z"/>
		<path class="st2" d="M95.7,61.8c0.7,0.5,2.9,0.4,4.5-0.7c1.6-1,3.4-1.7,5.2-1.9c3.2-0.4,4.7-1.4,4.3-2.6c-0.6-1.5-5.8-2.5-9.7-0.8
			C95.3,58,94.8,61,95.7,61.8z"/>
		<path class="st2" d="M28.4,90.8c0.7,0.5,2.9,0.4,4.5-0.6c1.6-1,3.4-1.7,5.2-2c3.2-0.4,4.7-1.4,4.3-2.6c-0.6-1.5-5.8-2.5-9.7-0.8
			C28,87,27.5,90.1,28.4,90.8z"/>
		<path class="st2" d="M75.2,99.1c0.7,0.5,2.9,0.4,4.5-0.6s3.4-1.7,5.2-1.9c3.2-0.4,4.7-1.4,4.3-2.6c-0.6-1.5-5.8-2.5-9.7-0.8
			C74.8,95.3,74.3,98.4,75.2,99.1z"/>
	</g>
</g>
</svg>
