<svg id="Layer_1" data-name="Layer 1" xmlns="http://www.w3.org/2000/svg" xmlns:xlink="http://www.w3.org/1999/xlink" viewBox="0 0 128.16 128.16"><defs><style>.cls-1{fill:url(#linear-gradient);}.cls-2{fill:#ffbeab;}.cls-3{fill:#dd7365;}.cls-4{fill:#f8ddad;}.cls-5{fill:#fff3dd;}.cls-6{fill:none;}.cls-7{fill:#fff;opacity:0.45;isolation:isolate;}.cls-8{fill:url(#linear-gradient-2);}.cls-9{fill:#9f452b;}.cls-10{fill:url(#linear-gradient-3);}</style><linearGradient id="linear-gradient" x1="29.55" y1="1351.62" x2="100.62" y2="1436.33" gradientTransform="matrix(1, 0, 0, -1, 0, 1463.04)" gradientUnits="userSpaceOnUse"><stop offset="0.44" stop-color="#9f452b"/><stop offset="0.49" stop-color="#a34b31"/><stop offset="0.57" stop-color="#ae5d42"/><stop offset="0.66" stop-color="#c0795d"/><stop offset="0.75" stop-color="#d8a183"/><stop offset="0.83" stop-color="#eec4a5"/><stop offset="0.86" stop-color="#ebc0a1"/><stop offset="0.89" stop-color="#e4b395"/><stop offset="0.92" stop-color="#d79f81"/><stop offset="0.95" stop-color="#c58165"/><stop offset="0.98" stop-color="#ae5c41"/><stop offset="1" stop-color="#9f452b"/></linearGradient><linearGradient id="linear-gradient-2" x1="70.66" y1="1358.63" x2="70.66" y2="1428.4" gradientTransform="matrix(1, 0, 0, -1, 0, 1463.04)" gradientUnits="userSpaceOnUse"><stop offset="0.28" stop-color="#eec4a5"/><stop offset="0.34" stop-color="#e6b899"/><stop offset="0.79" stop-color="#b3654a"/><stop offset="1" stop-color="#9f452b"/></linearGradient><linearGradient id="linear-gradient-3" x1="21.69" y1="1398.52" x2="114.72" y2="1398.52" gradientTransform="matrix(1, 0, 0, -1, 0, 1463.04)" gradientUnits="userSpaceOnUse"><stop offset="0" stop-color="#eec4a5"/><stop offset="0.14" stop-color="#e8ba9c"/><stop offset="0.39" stop-color="#d7a082"/><stop offset="0.7" stop-color="#bd7559"/><stop offset="1" stop-color="#9f452b"/></linearGradient></defs><g id="Layer_1-2" data-name="Layer 1"><path d="M62.18,126.82c-39.2,0-40.47-43-40.48-43.46V83l.34-.12c.27-.1,27.19-9.82,34.44-25.32,8-17.23-3.68-23.54-5-24.2-3.61-1.76-9.85-5.81-11-13.17A15.83,15.83,0,0,1,44.67,7c2.78-2.81,8.11-5.84,17.75-4.37A100.17,100.17,0,0,1,77,8.85C84.3,12.65,94.13,19,99.77,27.57c0,.08.34.38.62.67a28.75,28.75,0,0,1,6,8.15,38.23,38.23,0,0,1,2.76,11.81,58.74,58.74,0,0,1,4.12,13.36,115.81,115.81,0,0,1,1.42,21.52C114.65,83.54,111.17,126.82,62.18,126.82ZM22.71,83.69c.21,4.09,3.13,42.08,39.47,42.13,13.86,0,32.73-3.71,44-21.36A51.21,51.21,0,0,0,113.68,83a114.36,114.36,0,0,0-1.41-21.3,57.75,57.75,0,0,0-4.08-13.21l0-.17a37.38,37.38,0,0,0-2.68-11.56,28,28,0,0,0-5.79-7.85,7.92,7.92,0,0,1-.75-.81C88.36,12,62.46,3.66,62.2,3.57,55,2.48,49.13,3.89,45.38,7.67a14.8,14.8,0,0,0-4,12.36C42.5,27,48.43,30.79,51.87,32.46c1.45.71,13.95,7.43,5.5,25.52C53.48,66.3,44.16,72.89,37,77A105.54,105.54,0,0,1,22.71,83.69Z"/><path class="cls-1" d="M22.2,83.35s27.3-9.7,34.72-25.58-1.57-23.06-5.27-24.86S42,27.11,40.88,20.11,44.37.35,62.35,3.1c0,0,26.21,8.28,37,24.75.38.57,4.5,4.08,6.58,8.75a38.06,38.06,0,0,1,2.72,11.72,58.66,58.66,0,0,1,4.12,13.33,115.48,115.48,0,0,1,1.41,21.42s-2.91,43.25-52,43.25C23,126.27,22.2,83.35,22.2,83.35Z"/><path d="M62.18,126.82c-39.2,0-40.47-43-40.48-43.46V83l.34-.12c.27-.1,27.19-9.82,34.44-25.32,8-17.23-3.68-23.54-5-24.2-3.61-1.76-9.85-5.81-11-13.17A15.83,15.83,0,0,1,44.67,7c2.78-2.81,8.11-5.84,17.75-4.37A100.17,100.17,0,0,1,77,8.85C84.3,12.65,94.13,19,99.77,27.57c0,.08.34.38.62.67a28.75,28.75,0,0,1,6,8.15,38.23,38.23,0,0,1,2.76,11.81,58.74,58.74,0,0,1,4.12,13.36,115.81,115.81,0,0,1,1.42,21.52C114.65,83.54,111.17,126.82,62.18,126.82ZM22.71,83.69c.21,4.09,3.13,42.08,39.47,42.13,13.86,0,32.73-3.71,44-21.36A51.21,51.21,0,0,0,113.68,83a114.36,114.36,0,0,0-1.41-21.3,57.75,57.75,0,0,0-4.08-13.21l0-.17a37.38,37.38,0,0,0-2.68-11.56,28,28,0,0,0-5.79-7.85,7.92,7.92,0,0,1-.75-.81C88.36,12,62.46,3.66,62.2,3.57,55,2.48,49.13,3.89,45.38,7.67a14.8,14.8,0,0,0-4,12.36C42.5,27,48.43,30.79,51.87,32.46c1.45.71,13.95,7.43,5.5,25.52C53.48,66.3,44.16,72.89,37,77A105.54,105.54,0,0,1,22.71,83.69Z"/><path class="cls-2" d="M99.35,27.85c.38.57,4.5,4.08,6.58,8.75a38.06,38.06,0,0,1,2.72,11.72,58.66,58.66,0,0,1,4.12,13.33,115.48,115.48,0,0,1,1.41,21.42s-2.91,43.25-52,43.25c-39.16,0-40-42.92-40-42.92S49.5,73.65,56.92,57.77c2.67-5.71,3.22-10.29,2.65-13.9,0,0,1.84-12.29,13-17.94C86.77,18.65,99.35,27.85,99.35,27.85Z"/><path class="cls-3" d="M27.47,83.65s.48,12,6.21,20.32c8.54,12.43,36.3,25.59,60.67,4.18,6.21-5.46,12-15.22,12.71-24.62.26-3.38-1.15-29-2.34-34.38,0,0-.09-4.65-.12-5.12-.13-2-1.38-14.24-13.75-17.75-1.26-.36-13.7-2-20.88,5.26-8,8.11-4,16.11-10.62,27.31C46.06,81.08,27.47,83.65,27.47,83.65Z"/><path class="cls-4" d="M91.22,94.85c2.25-3.37,2.88-7.37,5.63-19.25s2-23.12,1.87-29.25a14.42,14.42,0,0,0-7.07-12c-6-3.7-15.38-4.17-19,4.3-.42,1-4.22,16.66-11.79,26.7a68.6,68.6,0,0,1-21,18.13s.64,19.72,18.9,23.87C80.47,112.29,91.22,94.85,91.22,94.85Z"/><path class="cls-5" d="M42.22,84.23c.88-1.58,4.88-2.58,10.43-6.88A56.91,56.91,0,0,0,69.38,55.48c4-9.63,3.72-15.3,6.64-19,3.89-4.83,13.25-4.54,17.83,1.37s4.62,18.25,3.5,25.63S94.1,95,82.1,101.35s-20.38,5.75-26,2.75a32.15,32.15,0,0,1-12.25-13A21.49,21.49,0,0,1,42.22,84.23Z"/><path class="cls-6" d="M105.93,36.6c-2.08-4.67-6.2-8.18-6.58-8.75-10.79-16.47-37-24.75-37-24.75-18-2.75-22.61,10-21.47,17s7.07,11,10.77,12.8C54.48,34.29,60.4,38.82,59.7,48h48.92A38.11,38.11,0,0,0,105.93,36.6Z"/><path class="cls-6" d="M22.21,83.64c.16,3.74,2.69,42.63,40,42.68,45.78,0,51.39-37.61,51.94-42.68Z"/><path class="cls-7" d="M114.18,83.07a115.48,115.48,0,0,0-1.41-21.42,58.66,58.66,0,0,0-4.12-13.33l0-.34H59.7a28.26,28.26,0,0,1-2.78,9.79C49.5,73.65,22.2,83.35,22.2,83.35s0,.1,0,.29h91.91Z"/><path class="cls-8" d="M45,83.85s12.52-7.49,18.5-15.2c12.38-16,10-29.34,17.55-33.24,4.51-2.33,15.45,1,15.33,15s.2,18.81-3.7,32.57l-1.2.49a4.48,4.48,0,0,0-1.18,2,9.06,9.06,0,0,0,0,2.75S87.65,90.48,87.1,92a15.9,15.9,0,0,0-.63,2.37,7.13,7.13,0,0,0-2.37,2.2,3.83,3.83,0,0,1-2,2,33.08,33.08,0,0,0-3.75,3.13,26,26,0,0,0-2.75.75,12.74,12.74,0,0,0-2.5,1.12h-3a8.56,8.56,0,0,0-2.62.75,8.4,8.4,0,0,1-2.74,0,4,4,0,0,0-2.26.11,1.78,1.78,0,0,0-1.37-.73h-.88a6,6,0,0,0-2.37-1.25,3.78,3.78,0,0,0-2.25-.25s0-.5-1.13-1-2.25-.88-2.25-.88a1.45,1.45,0,0,0-.37-1.87,22.78,22.78,0,0,0-2.13-1.38,6.27,6.27,0,0,0-1.5-2.5l-.87-.62a5.82,5.82,0,0,0-.25-2.75,6.84,6.84,0,0,0-1.46-2.83,3.3,3.3,0,0,1-.63-2.5A3,3,0,0,0,45,83.85Z"/><ellipse class="cls-5" cx="42.5" cy="86.44" rx="0.92" ry="2.39" transform="translate(-10.89 6.27) rotate(-7.48)"/><path class="cls-9" d="M42.76,89c-.68,0-1.21-1.23-1.37-2.43s0-2.61.77-2.71h0c.71-.08,1.28,1.18,1.45,2.42a5.18,5.18,0,0,1,0,1.78c-.14.56-.39.89-.72.93Zm-.54-4.74c-.3,0-.61.94-.43,2.26s.68,2.08,1,2.08h0c.15,0,.3-.26.39-.63a4.64,4.64,0,0,0,0-1.64c-.17-1.29-.68-2.07-1-2.07Z"/><path class="cls-9" d="M42.13,86.51v.17c.09.67,1.16.68,1.07,0v-.17C43.11,85.84,42,85.83,42.13,86.51Z"/><ellipse class="cls-5" cx="44.06" cy="91.01" rx="0.92" ry="2.38" transform="translate(-30.84 23.08) rotate(-21.96)"/><path class="cls-9" d="M44.81,93.44c-.64,0-1.37-1-1.79-2a4.8,4.8,0,0,1-.39-1.74c0-.57.15-1,.46-1.07h0c.32-.13.7,0,1.09.45a5.53,5.53,0,0,1,1.31,3.25c0,.57-.16,1-.47,1.08A.52.52,0,0,1,44.81,93.44ZM43.31,89l-.07,0h0c-.14.05-.22.32-.21.7a4.44,4.44,0,0,0,.36,1.59c.5,1.23,1.21,1.86,1.48,1.75s.23-.32.22-.7a4.44,4.44,0,0,0-.36-1.59,4.76,4.76,0,0,0-.84-1.4A1,1,0,0,0,43.31,89Z"/><path class="cls-9" d="M43.54,91.15l.07.16c.25.62,1.28.35,1-.29l-.06-.15c-.25-.63-1.29-.35-1,.28Z"/><ellipse class="cls-5" cx="81.79" cy="101.41" rx="2.7" ry="0.94" transform="translate(-40.81 57.34) rotate(-31.34)"/><path class="cls-9" d="M80,103.24a.8.8,0,0,1-.73-.31c-.39-.65.66-1.75,1.89-2.51s2.7-1.17,3.09-.53-.65,1.75-1.89,2.51A5.2,5.2,0,0,1,80,103.24ZM83.56,100a4.65,4.65,0,0,0-2.14.79c-1.3.79-1.9,1.66-1.75,1.91s1.21.12,2.5-.67,1.9-1.66,1.75-1.91Q83.85,100,83.56,100Z"/><path class="cls-9" d="M82.09,101.9l.16-.09a.58.58,0,0,0-.58-1l-.16.09C80.88,101.28,81.51,102.28,82.09,101.9Z"/><ellipse class="cls-5" cx="85.78" cy="97.95" rx="2.35" ry="0.94" transform="translate(-43.15 79.81) rotate(-40.78)"/><path class="cls-9" d="M84.43,99.84a.73.73,0,0,1-.58-.22c-.48-.56.25-1.72,1.19-2.53h0c.93-.81,2.19-1.36,2.67-.8s-.25,1.72-1.18,2.53a4.9,4.9,0,0,1-1.51.91A1.73,1.73,0,0,1,84.43,99.84Zm.87-2.45c-1,.87-1.35,1.73-1.15,2s.39.11.74,0a4.23,4.23,0,0,0,1.38-.84c1-.87,1.34-1.73,1.14-2s-1.1,0-2.11.84Z"/><path class="cls-9" d="M86.15,98.32l.13-.1c.52-.45-.24-1.2-.76-.75l-.12.1C84.88,98,85.63,98.77,86.15,98.32Z"/><ellipse class="cls-5" cx="91.14" cy="90.73" rx="2.63" ry="1.03" transform="translate(-32.18 127.18) rotate(-61.34)"/><path class="cls-9" d="M90.09,93.29a.65.65,0,0,1-.31-.08c-.7-.38-.38-1.87.28-3.07h0c.66-1.21,1.74-2.28,2.43-1.9.32.18.45.61.38,1.23a5.72,5.72,0,0,1-.65,1.85A5.59,5.59,0,0,1,91,92.86,1.53,1.53,0,0,1,90.09,93.29Zm.32-3c-.72,1.32-.74,2.36-.44,2.53s.46,0,.79-.31a4.89,4.89,0,0,0,1.1-1.42,5,5,0,0,0,.61-1.71c0-.42,0-.74-.17-.83s-1.17.42-1.89,1.74Z"/><path class="cls-9" d="M91.59,91l.09-.16c.33-.6-.59-1.14-.92-.54l-.09.16C90.34,91.06,91.26,91.6,91.59,91Z"/><ellipse class="cls-5" cx="92.68" cy="86.09" rx="2.22" ry="1.02" transform="translate(-17.46 148.29) rotate(-72.34)"/><path class="cls-9" d="M92.16,88.42a.76.76,0,0,1-.21,0c-.66-.21-.85-1.36-.43-2.67h0a4,4,0,0,1,.8-1.48,1.08,1.08,0,0,1,1.1-.46c.34.11.56.46.63,1a4.26,4.26,0,0,1-.2,1.68C93.47,87.63,92.78,88.42,92.16,88.42Zm-.26-2.58c-.36,1.13-.2,2,.17,2.17s1-.54,1.4-1.68a3.71,3.71,0,0,0,.18-1.5c-.05-.37-.18-.61-.35-.67s-.43.07-.68.35a3.65,3.65,0,0,0-.72,1.33Z"/><path class="cls-9" d="M93.2,86.24v-.15a.52.52,0,0,0-1-.28V86A.52.52,0,0,0,93.2,86.24Z"/><ellipse class="cls-5" cx="88.61" cy="94.72" rx="2.01" ry="1.02" transform="translate(-39.23 116.6) rotate(-56.62)"/><path class="cls-9" d="M87.83,96.68a.71.71,0,0,1-.43-.13A1.06,1.06,0,0,1,87,95.48a3.38,3.38,0,0,1,.56-1.43h0a2.85,2.85,0,0,1,1.57-1.27.83.83,0,0,1,.65.1A1.06,1.06,0,0,1,90.18,94a3.38,3.38,0,0,1-.56,1.43,3.32,3.32,0,0,1-1.1,1.08A1.32,1.32,0,0,1,87.83,96.68Zm1.56-3.54h-.14a2.48,2.48,0,0,0-1.33,1.11h0a2.91,2.91,0,0,0-.5,1.27.55.55,0,0,0,.92.6,2.92,2.92,0,0,0,1-1,3.06,3.06,0,0,0,.51-1.27c0-.34,0-.6-.2-.7A.38.38,0,0,0,89.39,93.14Z"/><path class="cls-9" d="M89.06,95l.08-.12c.36-.54-.52-1-.88-.51l-.07.12C87.82,95,88.7,95.52,89.06,95Z"/><ellipse class="cls-5" cx="46.31" cy="95.18" rx="0.93" ry="2.37" transform="matrix(0.86, -0.51, 0.51, 0.86, -41.78, 36.49)"/><path class="cls-9" d="M47.3,97.48c-.62,0-1.43-.81-2-1.72-.63-1.08-1-2.42-.33-2.79h0c.63-.37,1.65.57,2.28,1.64a5,5,0,0,1,.63,1.66c.09.56,0,1-.31,1.13A.58.58,0,0,1,47.3,97.48Zm-2.09-4.17c-.25.15-.2,1.1.47,2.24s1.47,1.66,1.73,1.51.18-.36.12-.73a4.44,4.44,0,0,0-.59-1.51c-.68-1.16-1.47-1.66-1.73-1.51Z"/><path class="cls-9" d="M45.85,95.46l.08.14a.53.53,0,1,0,.92-.54l-.08-.14a.53.53,0,0,0-.92.54Z"/><ellipse class="cls-5" cx="69.58" cy="105.9" rx="2.32" ry="0.95" transform="translate(-4.8 3.32) rotate(-2.64)"/><path class="cls-9" d="M69.38,107.06c-1.14,0-2.28-.35-2.32-1s1.25-1.21,2.47-1.27h0c1.21,0,2.53.29,2.57,1s-1.24,1.2-2.47,1.26Zm.17-1.91c-1.31.06-2.1.54-2.08.85s.83.71,2.15.65,2.1-.53,2.08-.85-.84-.7-2.15-.65Z"/><path class="cls-9" d="M69.58,106.44h.16c.69,0,.69-1.1,0-1.07h-.16C68.9,105.37,68.89,106.47,69.58,106.44Z"/><ellipse class="cls-5" cx="74.22" cy="104.94" rx="2.32" ry="0.8" transform="translate(-26.57 25.17) rotate(-16.37)"/><path class="cls-9" d="M73,106.15c-.59,0-1-.14-1.15-.49-.18-.63.94-1.32,2.14-1.67h0c1.2-.36,2.51-.38,2.7.24s-.94,1.32-2.14,1.67A5.56,5.56,0,0,1,73,106.15Zm1.1-1.78c-1.31.39-1.92,1-1.86,1.17s.89.37,2.2,0,1.92-1,1.87-1.17-.89-.37-2.21,0Z"/><path class="cls-9" d="M74.36,105.46h.15c.66-.2.38-1.23-.28-1h-.15a.53.53,0,0,0-.23.71A.55.55,0,0,0,74.36,105.46Z"/><ellipse class="cls-5" cx="49.17" cy="98.79" rx="0.93" ry="2.08" transform="translate(-49.58 49.53) rotate(-37.03)"/><path class="cls-9" d="M50.12,100.75a2.8,2.8,0,0,1-1.86-1.27,3.91,3.91,0,0,1-.7-1.42A1,1,0,0,1,47.79,97h0a1,1,0,0,1,1.11.08,4,4,0,0,1,1.17,1.06,3.91,3.91,0,0,1,.7,1.42,1,1,0,0,1-.23,1.08A.68.68,0,0,1,50.12,100.75Zm-1.9-3.51a.36.36,0,0,0-.19.05h0c-.12.1-.16.35-.08.68a3.46,3.46,0,0,0,.63,1.26c.65.86,1.44,1.28,1.72,1.07s.16-.35.08-.68a3.46,3.46,0,0,0-.63-1.26,3.41,3.41,0,0,0-1-1A1.15,1.15,0,0,0,48.22,97.24Z"/><path class="cls-9" d="M48.71,99.06l.08.12c.42.53,1.34,0,.93-.54l-.07-.11c-.41-.54-1.34,0-.92.53Z"/><ellipse class="cls-5" cx="52.11" cy="101.79" rx="0.94" ry="2.05" transform="translate(-58.63 73.25) rotate(-48.44)"/><path class="cls-9" d="M53.18,103.52a1.85,1.85,0,0,1-.49-.08,3.81,3.81,0,0,1-1.34-.8c-1-.85-1.36-1.86-.93-2.34h0c.43-.49,1.48-.21,2.44.64a3.75,3.75,0,0,1,1,1.23,1,1,0,0,1,0,1.11A.78.78,0,0,1,53.18,103.52Zm-2.46-3c-.23.26.1,1.08.9,1.78a3.3,3.3,0,0,0,1.19.72c.31.09.57.08.68,0s.09-.38,0-.69a3.31,3.31,0,0,0-.85-1.09c-.8-.71-1.65-.94-1.88-.68Z"/><path class="cls-9" d="M51.73,102.17l.11.09c.52.45,1.27-.3.76-.75l-.11-.1C52,101,51.22,101.71,51.73,102.17Z"/><ellipse class="cls-5" cx="55.54" cy="104.05" rx="0.94" ry="2.04" transform="translate(-62.4 102.87) rotate(-61.33)"/><path class="cls-9" d="M56.62,105.53h-.14a3.61,3.61,0,0,1-1.48-.48,3.54,3.54,0,0,1-1.2-1,1,1,0,0,1-.22-1.08,1,1,0,0,1,1-.4,3.79,3.79,0,0,1,1.48.47,3.9,3.9,0,0,1,1.2,1,1,1,0,0,1,.22,1.09A1,1,0,0,1,56.62,105.53ZM54.47,103c-.28,0-.47.07-.54.19s0,.39.19.66a3.2,3.2,0,0,0,1.07.87,3.35,3.35,0,0,0,1.31.43c.33,0,.58,0,.66-.19s0-.39-.19-.66a3.28,3.28,0,0,0-1.07-.87,3.39,3.39,0,0,0-1.32-.43Z"/><path class="cls-9" d="M55.27,104.53l.12.06c.61.33,1.15-.59.54-.92l-.12-.06C55.2,103.28,54.66,104.2,55.27,104.53Z"/><ellipse class="cls-5" cx="59.43" cy="105.53" rx="0.95" ry="2.03" transform="translate(-58.69 132.29) rotate(-73.38)"/><path class="cls-9" d="M60.25,106.81a3.8,3.8,0,0,1-1.15-.18,2.93,2.93,0,0,1-1.72-1.14.82.82,0,0,1-.09-.6h0c.19-.62,1.25-.82,2.47-.46s2,1.11,1.81,1.74C61.44,106.59,60.93,106.81,60.25,106.81Zm-1.63-2.16c-.51,0-.88.14-.94.36h0a.36.36,0,0,0,0,.29,2.57,2.57,0,0,0,1.49,1c1,.3,1.86.15,2-.19s-.53-1-1.54-1.25A3.64,3.64,0,0,0,58.62,104.65Z"/><path class="cls-9" d="M59.29,106.05h.13a.53.53,0,0,0,.56-.49.52.52,0,0,0-.28-.51h-.13A.52.52,0,0,0,59.29,106.05Z"/><ellipse class="cls-5" cx="63.52" cy="106.66" rx="0.85" ry="1.81" transform="translate(-51.45 153.48) rotate(-81.38)"/><path class="cls-9" d="M64,107.74a4,4,0,0,1-.59,0,3.28,3.28,0,0,1-1.31-.47.94.94,0,0,1-.52-.87c0-.31.31-.55.75-.68a3.23,3.23,0,0,1,1.4-.06c1.13.17,1.92.75,1.83,1.34-.05.31-.32.55-.76.68A2.83,2.83,0,0,1,64,107.74ZM63.09,106a2.42,2.42,0,0,0-.69.08c-.28.09-.46.22-.48.36h0c0,.14.11.32.35.48a3,3,0,0,0,1.15.4,2.87,2.87,0,0,0,1.22,0c.27-.08.45-.21.47-.35,0-.3-.58-.75-1.49-.88A3.32,3.32,0,0,0,63.09,106Z"/><path class="cls-9" d="M63,106.65h.13c.67.09,1-.93.28-1H63.3C62.62,105.55,62.3,106.58,63,106.65Z"/><ellipse class="cls-5" cx="66.22" cy="106.32" rx="1.29" ry="0.6" transform="translate(-7.7 5.2) rotate(-4.25)"/><path class="cls-9" d="M66.06,107.12a1.78,1.78,0,0,1-1.12-.31.55.55,0,0,1-.21-.38.57.57,0,0,1,.15-.41,2.33,2.33,0,0,1,2.62-.19.55.55,0,0,1,.2.38c0,.45-.58.84-1.42.9Zm.32-1.21h-.19a1.65,1.65,0,0,0-1,.36.26.26,0,0,0-.05.12.14.14,0,0,0,.07.1,1.55,1.55,0,0,0,1,.22c.65,0,1.07-.32,1-.48s0-.08-.06-.11A1.42,1.42,0,0,0,66.38,105.91Z"/><path class="cls-9" d="M66.23,106.56h.09c.32,0,.32-.53,0-.5h-.09C65.91,106.06,65.91,106.59,66.23,106.56Z"/><ellipse class="cls-5" cx="77.92" cy="103.79" rx="1.29" ry="0.6" transform="translate(-34.05 38.17) rotate(-22.73)"/><path class="cls-9" d="M77.3,104.73h-.06a.7.7,0,0,1-.69-.37c-.18-.42.28-1,1.07-1.31a2.49,2.49,0,0,1,1-.21.73.73,0,0,1,.69.37c.17.42-.28,1-1.07,1.32A2.51,2.51,0,0,1,77.3,104.73Zm1.25-1.49a2.19,2.19,0,0,0-.78.18c-.6.25-.91.64-.85.79s.16.12.34.12a1.91,1.91,0,0,0,.82-.17c.6-.26.91-.65.85-.79s-.16-.12-.34-.13Z"/><path class="cls-9" d="M78,104h.08c.3-.12.17-.6-.13-.48h-.08c-.29.13-.17.61.13.49Z"/><path class="cls-10" d="M62.18,126.82c-39.2,0-40.47-43-40.48-43.46V83l.34-.12c.27-.1,27.19-9.82,34.44-25.32,8-17.23-3.68-23.54-5-24.2-3.61-1.76-9.85-5.81-11-13.17A15.83,15.83,0,0,1,44.67,7c2.78-2.81,8.11-5.84,17.75-4.37A100.17,100.17,0,0,1,77,8.85C84.3,12.65,94.13,19,99.77,27.57c0,.08.34.38.62.67a28.75,28.75,0,0,1,6,8.15,38.23,38.23,0,0,1,2.76,11.81,58.74,58.74,0,0,1,4.12,13.36,115.81,115.81,0,0,1,1.42,21.52C114.65,83.54,111.17,126.82,62.18,126.82ZM22.71,83.69c.21,4.09,3.13,42.08,39.47,42.13,13.86,0,32.73-3.71,44-21.36A51.21,51.21,0,0,0,113.68,83a114.36,114.36,0,0,0-1.41-21.3,57.75,57.75,0,0,0-4.08-13.21l0-.17a37.38,37.38,0,0,0-2.68-11.56,28,28,0,0,0-5.79-7.85,7.92,7.92,0,0,1-.75-.81C88.36,12,62.46,3.66,62.2,3.57,55,2.48,49.13,3.89,45.38,7.67a14.8,14.8,0,0,0-4,12.36C42.5,27,48.43,30.79,51.87,32.46c1.45.71,13.95,7.43,5.5,25.52C53.48,66.3,44.16,72.89,37,77A105.54,105.54,0,0,1,22.71,83.69Z"/></g></svg>