<?xml version="1.0" encoding="UTF-8" standalone="no"?>
<svg
   id="Layer_1"
   data-name="Layer 1"
   viewBox="0 0 128.16 128.16"
   version="1.1"
   sodipodi:docname="EnzymeRed.svg"
   inkscape:version="1.3 (0e150ed6c4, 2023-07-21)"
   xmlns:inkscape="http://www.inkscape.org/namespaces/inkscape"
   xmlns:sodipodi="http://sodipodi.sourceforge.net/DTD/sodipodi-0.dtd"
   xmlns="http://www.w3.org/2000/svg"
   xmlns:svg="http://www.w3.org/2000/svg">
  <sodipodi:namedview
     id="namedview2"
     pagecolor="#ffffff"
     bordercolor="#000000"
     borderopacity="0.25"
     inkscape:showpageshadow="2"
     inkscape:pageopacity="0.0"
     inkscape:pagecheckerboard="0"
     inkscape:deskcolor="#d1d1d1"
     inkscape:zoom="14.770599"
     inkscape:cx="64.080002"
     inkscape:cy="64.080002"
     inkscape:window-width="3840"
     inkscape:window-height="2089"
     inkscape:window-x="-8"
     inkscape:window-y="-8"
     inkscape:window-maximized="1"
     inkscape:current-layer="Layer_1" />
  <defs
     id="defs1">
    <style
       id="style1">.cls-1{fill:gray;}.cls-2{fill:#00aeef;}.cls-3{fill:#f18a00;}</style>
  </defs>
  <rect
     class="cls-1"
     x="87.12"
     y="81.64"
     width="35.74"
     height="35.74"
     id="rect1" />
  <polygon
     class="cls-1"
     points="104.99 5.24 82.77 40.48 127.21 40.48 104.99 5.24"
     id="polygon1" />
  <path
     class="cls-2"
     d="M52.89,44.78C49.27,22,39.65,5.65,28.33,5.65,13.92,5.65,2.25,32.1,2.25,64.73s11.67,59.09,26.08,59.09c11.32,0,20.94-16.33,24.56-39.17l-17.35-20Z"
     id="path1" />
  <path
     class="cls-3"
     d="M82.74,102.89,80.28,72.53,69.53,85.17C60,69.35,65,48.69,76.65,39.56a4.43,4.43,0,1,0-5.45-7C63.05,38.94,57.54,49.2,56.08,60.72a44.81,44.81,0,0,0,7.46,31.49L52.38,105.35Z"
     id="path2" />
  <g
     class="cls-8"
     id="g6"
     style="opacity:0.9"
     transform="translate(0.49622777,-0.63305857)">
    <circle
       class="cls-9"
       cx="26.51"
       cy="101.65"
       r="26.51"
       id="circle5"
       style="fill:#c32a1f" />
  </g>
  <rect
     class="cls-10"
     x="22.056225"
     y="79.906944"
     width="9.8999996"
     height="27.23"
     rx="2.48"
     id="rect6"
     style="fill:#ffffff" />
  <circle
     class="cls-10"
     cx="27.006229"
     cy="117.03694"
     r="4.9499998"
     id="circle6"
     style="fill:#ffffff" />
</svg>
