<?xml version="1.0" encoding="utf-8"?>
<!-- Generator: Adobe Illustrator 24.3.0, SVG Export Plug-In . SVG Version: 6.00 Build 0)  -->
<svg version="1.1" id="Layer_1" xmlns="http://www.w3.org/2000/svg" xmlns:xlink="http://www.w3.org/1999/xlink" x="0px" y="0px"
	 viewBox="0 0 128.2 128.2" style="enable-background:new 0 0 128.2 128.2;" xml:space="preserve">
<style type="text/css">
	.st0{fill:#E2E7EA;}
	.st1{fill:#CBCCCC;}
	.st2{fill:#C32A1F;}
	.st3{fill:#FFFFFF;}
</style>
<g>
	<ellipse class="st0" cx="64.1" cy="64.1" rx="52.4" ry="52.4"/>
	<ellipse class="st0" cx="64.1" cy="64.1" rx="42.4" ry="42.4"/>
	<path class="st1" d="M64.1,11.7c-28.9,0-52.4,23.5-52.4,52.4s23.5,52.4,52.4,52.4s52.4-23.5,52.4-52.4S93,11.7,64.1,11.7L64.1,11.7
		z"/>
	<path class="st2" d="M64.1,106.5c-23.4,0-42.4-19-42.4-42.4s19-42.4,42.4-42.4s42.4,19,42.4,42.4S87.5,106.5,64.1,106.5L64.1,106.5
		z"/>
	<path class="st3" d="M64.1,13.7c-27.8,0-50.4,22.6-50.4,50.4s22.6,50.4,50.4,50.4s50.4-22.6,50.4-50.4S91.9,13.7,64.1,13.7z
		 M64.1,108.5c-24.5,0-44.4-19.9-44.4-44.4s19.9-44.4,44.4-44.4s44.4,19.9,44.4,44.4S88.6,108.5,64.1,108.5z"/>
</g>
<g>
	<g>
		<g>
			<g>
				<g>
					<circle class="st3" cx="64.1" cy="89.7" r="7.9"/>
				</g>
			</g>
		</g>
	</g>
</g>
<g>
	<path class="st3" d="M56.2,34.3c0-2.2,1.8-4,4-4H68c2.2,0,4,1.8,4,4v35.6c0,2.2-1.8,4-4,4h-7.9c-2.2,0-4-1.8-4-4V34.3H56.2z"/>
</g>
</svg>
