<svg id="Layer_1" data-name="Layer 1" xmlns="http://www.w3.org/2000/svg" viewBox="0 0 128.16 128.16"><defs><style>.cls-1{fill:none;}.cls-2{fill:#00aeef;}.cls-3{fill:#b9e5fb;}.cls-4{fill:#f18a00;}.cls-5{fill:#fff;}</style></defs><path class="cls-1" d="M90.7,38a4.67,4.67,0,0,0,4-4V11.87a4.42,4.42,0,0,0-4.62-4.14V7.65a4.41,4.41,0,0,0-4.61,4V34A4.65,4.65,0,0,0,90.7,38Z"/><path class="cls-1" d="M38.17,37.93a4.43,4.43,0,0,0,4.62-4V11.87a4.42,4.42,0,0,0-4.58-4.14V7.65a4.42,4.42,0,0,0-4.65,4.17V34A4.42,4.42,0,0,0,38.17,37.93Z"/><path class="cls-1" d="M7,52.21v59.12a11.46,11.46,0,0,0,11.92,11h91.72a11.42,11.42,0,0,0,11.93-10.88V52.21H7Z"/><path class="cls-2" d="M110.62,19.39h-10.5V11.87a9.95,9.95,0,0,0-19.9,0v7.52h-32V11.87a9.95,9.95,0,0,0-19.9,0v7.52H18.87A16.74,16.74,0,0,0,1.73,35.74v75.43a2.26,2.26,0,0,0,0,.26,16.74,16.74,0,0,0,17.37,16.09h91.51a16.75,16.75,0,0,0,17.11-16.19V35.74A16.75,16.75,0,0,0,110.62,19.39Zm-25.14,0V11.63a4.41,4.41,0,0,1,4.61-4v.08a4.42,4.42,0,0,1,4.62,4.14V34a4.65,4.65,0,0,1-9.23,0Zm-51.92,0V11.82a4.42,4.42,0,0,1,4.65-4.17v.08a4.42,4.42,0,0,1,4.58,4.14V34a4.43,4.43,0,0,1-4.62,4,4.42,4.42,0,0,1-4.61-4Zm89,91.94v.1a11.42,11.42,0,0,1-11.93,10.88H18.9A11.46,11.46,0,0,1,7,111.33V52.05l115.58.16Z"/><rect class="cls-3" x="14.54" y="58.14" width="16.55" height="15.6"/><rect class="cls-3" x="35.51" y="58.14" width="16.55" height="15.6"/><rect class="cls-3" x="56.47" y="58.14" width="16.55" height="15.6"/><rect class="cls-3" x="77.44" y="58.14" width="16.55" height="15.6"/><rect class="cls-3" x="98.41" y="58.14" width="16.55" height="15.6"/><rect class="cls-3" x="14.54" y="79.38" width="16.55" height="15.6"/><rect class="cls-4" x="35.51" y="79.38" width="16.55" height="15.6"/><rect class="cls-3" x="56.47" y="79.38" width="16.55" height="15.6"/><rect class="cls-3" x="77.44" y="79.38" width="16.55" height="15.6"/><rect class="cls-3" x="98.41" y="79.38" width="16.55" height="15.6"/><rect class="cls-3" x="14.54" y="100.47" width="16.55" height="15.6"/><rect class="cls-3" x="35.51" y="100.47" width="16.55" height="15.6"/><rect class="cls-3" x="56.47" y="100.47" width="16.55" height="15.6"/><rect class="cls-3" x="77.44" y="100.47" width="16.55" height="15.6"/><circle class="cls-4" cx="90.34" cy="89.97" r="35.24"/><path class="cls-5" d="M90.34,127.35A37.39,37.39,0,1,1,127.73,90h0A37.39,37.39,0,0,1,90.34,127.35Zm0-70.44A33.1,33.1,0,1,0,123.44,90v0A33.09,33.09,0,0,0,90.34,56.91Z"/><path class="cls-5" d="M110.86,91.24,92.49,70a2.94,2.94,0,0,0-2.3-1.08A3.07,3.07,0,0,0,87.88,70L69.47,91.12a2.68,2.68,0,0,0-.71,1.78c0,.76.51,1.51,1.94,1.51H79v13.26A3.33,3.33,0,0,0,82.29,111H98.08a3.34,3.34,0,0,0,3.34-3.33V94.41h8.29c1.43,0,1.91-.75,1.91-1.51A2.54,2.54,0,0,0,110.86,91.24Z"/></svg>