<svg id="Layer_1" data-name="Layer 1" xmlns="http://www.w3.org/2000/svg" viewBox="0 0 128.16 128.16"><defs><style>.cls-1{fill:#00aeef;}.cls-2{isolation:isolate;}.cls-3{fill:gray;}</style></defs><path class="cls-1" d="M112.65,5H101.06a11,11,0,0,0-11,11V52.27H10.62a5.5,5.5,0,0,0,0,11H90.06V67.4H6.65c4,17.32,22.93,28.52,22.93,28.52v28.53h73.27v-28c14.13-6.93,20.8-16.51,20.8-29V16A11,11,0,0,0,112.65,5Z"/><g class="cls-2"><g class="cls-2"><path class="cls-3" d="M17,45,9.45,13.51H16l4.75,21.64,5.75-21.64H34l5.52,22,4.83-22h6.4L43.14,45H36.39L30.12,21.46,23.86,45Z"/></g><g class="cls-2"><path class="cls-3" d="M75.9,33.43l6.17,2A13.85,13.85,0,0,1,77.35,43,13.45,13.45,0,0,1,69,45.55a13.54,13.54,0,0,1-10.31-4.29q-4-4.29-4-11.72,0-7.86,4.06-12.21A13.91,13.91,0,0,1,69.37,13a13.11,13.11,0,0,1,9.39,3.42A12.41,12.41,0,0,1,82,22.19L75.69,23.7a6.51,6.51,0,0,0-6.64-5.29,7.16,7.16,0,0,0-5.68,2.51c-1.46,1.68-2.19,4.39-2.19,8.15q0,6,2.15,8.5a7,7,0,0,0,5.59,2.54,6.39,6.39,0,0,0,4.36-1.61A9.38,9.38,0,0,0,75.9,33.43Z"/></g></g></svg>