<svg id="Layer_1" data-name="Layer 1" xmlns="http://www.w3.org/2000/svg" viewBox="0 0 128.16 128.16"><defs><style>.cls-1{fill:gray;}.cls-2{fill:#f18a00;}.cls-3{fill:#fff;}</style></defs><path class="cls-1" d="M94.19,119.6H9V9.52H94.19v6.25h8V9c0-4.31-3.11-7.82-6.94-7.82H8C4.12,1.18,1,4.69,1,9V120.11c0,4.31,3.11,7.82,6.94,7.82H95.28c3.83,0,6.94-3.51,6.94-7.82V78.57h-8Z"/><path class="cls-1" d="M39.3,38.8l8.58,2.59a15.8,15.8,0,0,1-2.72,6,11.84,11.84,0,0,1-4.62,3.65,17.24,17.24,0,0,1-7,1.23,20.33,20.33,0,0,1-8.43-1.5,13.38,13.38,0,0,1-5.66-5.28,17.94,17.94,0,0,1-2.37-9.68q0-7.85,4.18-12.08t11.83-4.22q6,0,9.41,2.42a14.3,14.3,0,0,1,5.09,7.44l-8.64,1.92A7.66,7.66,0,0,0,38,29.2a5.74,5.74,0,0,0-2-1.73,5.84,5.84,0,0,0-2.66-.6,5.75,5.75,0,0,0-5.1,2.67q-1.34,2-1.34,6.24,0,5.27,1.6,7.22A5.47,5.47,0,0,0,33,45a5.47,5.47,0,0,0,4.25-1.57A9.76,9.76,0,0,0,39.3,38.8Z"/><path class="cls-1" d="M50.93,41.28l9.31-.58a7.05,7.05,0,0,0,1.23,3.45,5.16,5.16,0,0,0,4.32,1.93,4.79,4.79,0,0,0,3.24-1,2.94,2.94,0,0,0,1.13-2.28,2.9,2.9,0,0,0-1.08-2.2q-1.08-1-5-1.84-6.44-1.44-9.18-3.84a7.75,7.75,0,0,1-2.76-6.12,8.32,8.32,0,0,1,1.41-4.61,9.33,9.33,0,0,1,4.26-3.41,19.81,19.81,0,0,1,7.79-1.25c4,0,7.13.76,9.26,2.26s3.39,3.9,3.79,7.19l-9.23.54a5,5,0,0,0-1.54-3.12,5,5,0,0,0-3.25-1,3.86,3.86,0,0,0-2.57.73,2.21,2.21,0,0,0-.87,1.76,1.78,1.78,0,0,0,.71,1.36,8,8,0,0,0,3.29,1.17,41.16,41.16,0,0,1,9.19,2.79,9.75,9.75,0,0,1,4,3.51,8.94,8.94,0,0,1,1.27,4.69A10.08,10.08,0,0,1,78,47.07,10.43,10.43,0,0,1,73.27,51a19,19,0,0,1-7.63,1.33q-8.07,0-11.19-3.11A12.29,12.29,0,0,1,50.93,41.28Z"/><path class="cls-1" d="M81.48,20.08H91.71l7.13,22.8,7-22.8h9.93L104.05,51.76H93.44Z"/><circle class="cls-2" cx="90.56" cy="90.39" r="35.71"/><path class="cls-3" d="M90.56,128.28a37.89,37.89,0,1,1,37.89-37.89A37.93,37.93,0,0,1,90.56,128.28Zm0-71.42A33.54,33.54,0,1,0,124.1,90.39,33.57,33.57,0,0,0,90.56,56.86Z"/><rect class="cls-3" x="83.86" y="81.17" width="29.49" height="29.49" rx="3.01"/><path class="cls-3" d="M83,110.78a4.91,4.91,0,0,1-1.12-3.13V84.17a5.13,5.13,0,0,1,.21-1.42h-12a2.94,2.94,0,0,0-2.93,2.94v22.18a2.94,2.94,0,0,0,2.93,2.94H82.49Z"/><path class="cls-3" d="M98.61,62.36A7.66,7.66,0,1,0,106.27,70,7.67,7.67,0,0,0,98.61,62.36Z"/><path class="cls-3" d="M81.24,65a7.34,7.34,0,1,0,7.33,7.34A7.35,7.35,0,0,0,81.24,65Z"/><path class="cls-2" d="M86.58,97.56c0,.41.28.85,1.07.85h21.91c.8,0,1.08-.44,1.08-.85a1.48,1.48,0,0,0-.43-.94L99.9,84.75a1.68,1.68,0,0,0-1.29-.62,1.72,1.72,0,0,0-1.3.62L87,96.62A1.46,1.46,0,0,0,86.58,97.56Z"/><rect class="cls-2" x="92.3" y="95.17" width="12.62" height="12.62" rx="1.88"/></svg>