<svg id="Layer_1" data-name="Layer 1" xmlns="http://www.w3.org/2000/svg" viewBox="0 0 128.16 128.16"><defs><style>.cls-1{fill:#62bb46;}.cls-2{fill:#f18a00;}.cls-3{fill:#fff;}</style></defs><path class="cls-1" d="M95.3,127.9H8a7.4,7.4,0,0,1-7-7.8V8.88A7.41,7.41,0,0,1,8,1.19H95.3a7.41,7.41,0,0,1,6.92,7.69V120.1A7.4,7.4,0,0,1,95.3,127.9ZM9.06,119.57H94.18V9.52H9.06Z"/><circle class="cls-2" cx="90.56" cy="90.37" r="35.72"/><path class="cls-3" d="M90.56,128.26a37.89,37.89,0,1,1,37.89-37.89h0A37.89,37.89,0,0,1,90.56,128.26Zm0-71.4A33.55,33.55,0,1,0,124.1,90.41v0A33.54,33.54,0,0,0,90.56,56.86Z"/><path class="cls-3" d="M111.35,91.66,92.73,70.1A3,3,0,0,0,90.4,69a3.06,3.06,0,0,0-2.34,1.09L69.4,91.54a2.75,2.75,0,0,0-.72,1.81c0,.76.52,1.53,2,1.53H79v13.43a3.38,3.38,0,0,0,3.38,3.38h16a3.38,3.38,0,0,0,3.38-3.38V94.88h8.41c1.44,0,1.93-.77,1.93-1.53A2.58,2.58,0,0,0,111.35,91.66Z"/><path class="cls-1" d="M16.06,19.93H27.75L33.84,30.5l5.91-10.57H51.33L40.64,36.57l11.7,17.72H40.41l-6.78-11-6.79,11H15L26.83,36.38Z"/></svg>