<svg id="Layer_1" data-name="Layer 1" xmlns="http://www.w3.org/2000/svg" viewBox="0 0 128.16 128.16"><defs><style>.cls-1{fill:#f18a00;}.cls-2{fill:gray;}.cls-3{fill:#62bb46;}.cls-3,.cls-4{opacity:0.85;}.cls-4,.cls-6{fill:#fff;}.cls-5{isolation:isolate;}</style></defs><path class="cls-1" d="M76,6.56a10,10,0,0,0-1.72-3.15,7.51,7.51,0,0,0-2.88-2.07A10.18,10.18,0,0,0,67.49.65a9.42,9.42,0,0,0-5,1.27,8,8,0,0,0-3.08,3.63,14.67,14.67,0,0,0-1,5.79c0,3.81.92,6.64,2.75,8.42A8.74,8.74,0,0,0,67.48,22a9.25,9.25,0,0,0,5-1.28,8,8,0,0,0,3.07-3.64,14.52,14.52,0,0,0,1-5.76A16.08,16.08,0,0,0,76,6.56Zm-8.51-1.7A3.42,3.42,0,0,1,70.08,6c.4.44,1.09,1.74,1.09,5.34s-.69,4.88-1.1,5.33a3,3,0,0,1-.25.25,3.51,3.51,0,0,1-4.94-.25c-.41-.44-1.1-1.72-1.1-5.33,0-3.43.68-4.9,1.24-5.52A3.06,3.06,0,0,1,67.44,4.86Z"/><polygon points="97.32 0.73 97.32 8.39 87.02 8.39 87.02 0.73 81.5 0.73 81.5 21.7 87.02 21.7 87.02 12.9 97.32 12.9 97.32 21.7 102.84 21.7 102.84 0.73 97.32 0.73"/><path class="cls-1" d="M20.12,6.56a9.7,9.7,0,0,0-1.73-3.15,7.48,7.48,0,0,0-2.87-2.07A10.23,10.23,0,0,0,11.65.65a9.42,9.42,0,0,0-5,1.27A8,8,0,0,0,3.59,5.55a14.32,14.32,0,0,0-1,5.79c0,3.81.92,6.64,2.75,8.42A8.73,8.73,0,0,0,11.65,22a9.33,9.33,0,0,0,5-1.28,8,8,0,0,0,3.07-3.64,14.89,14.89,0,0,0,1-5.76A16.08,16.08,0,0,0,20.12,6.56ZM11.65,17.82A3.32,3.32,0,0,1,9,16.67c-.4-.44-1.09-1.72-1.09-5.33,0-3.43.71-4.9,1.29-5.48a3.06,3.06,0,0,1,2.42-1A3.41,3.41,0,0,1,14.24,6c.41.44,1.09,1.72,1.09,5.32s-.69,4.88-1.1,5.33A3.37,3.37,0,0,1,11.65,17.82Z"/><path class="cls-1" d="M94.48,37.07a9.49,9.49,0,0,0-1.72-3.15,7.51,7.51,0,0,0-2.88-2.07A10.18,10.18,0,0,0,86,31.16a9.42,9.42,0,0,0-5,1.27A8,8,0,0,0,78,36.06a14.32,14.32,0,0,0-1,5.79c0,3.8.92,6.64,2.75,8.42A8.73,8.73,0,0,0,86,52.53a9.28,9.28,0,0,0,5-1.28,8,8,0,0,0,3.07-3.64,14.89,14.89,0,0,0,1-5.76A15.77,15.77,0,0,0,94.48,37.07Zm-10.93-.7a3.1,3.1,0,0,1,2.43-1,3.4,3.4,0,0,1,2.63,1.18c.41.44,1.09,1.74,1.09,5.34s-.68,4.89-1.09,5.33l-.24.24a3.51,3.51,0,0,1-5-.24c-.41-.44-1.09-1.72-1.09-5.33C82.32,38.46,83,37,83.55,36.37Z"/><path class="cls-2" d="M20.08,47a3.13,3.13,0,0,0,4.42-.15,3,3,0,0,0-.22-4.24L15,33.7a3,3,0,1,0-4.2,4.39Z"/><path class="cls-2" d="M77,58.91,62.91,72.57,41.23,60.21V39.74L56.11,25.32A3,3,0,1,0,51.88,21L38.17,34.21,24.49,21a3,3,0,0,0-4.23,4.37L35.19,39.73V60.15L11.8,73.52a3.3,3.3,0,0,0-.43.3l-.24.2A3.05,3.05,0,0,0,10,76.37v24.51a3,3,0,0,0,1.18,2.4l.25.19a2.71,2.71,0,0,0,.35.24l24.88,14.21a3.07,3.07,0,0,0,1.51.4,3,3,0,0,0,1.46-.4l24.92-14.21.35-.23.07-.06A3.09,3.09,0,0,0,66,102.23v0a3.07,3.07,0,0,0,.22-.6.43.43,0,0,1,0,0,3.07,3.07,0,0,0,.07-.6s0,0,0-.08V77.65L81.24,63.27A3,3,0,0,0,77,58.91ZM60.27,99.16,38.19,111.78,16.1,99.16V78.07L38.19,65.45,60.27,78.07Z"/><path class="cls-2" d="M126.06,59a3,3,0,0,0-4.29-.07L108,72.18,94.34,58.91a3,3,0,1,0-4.23,4.36L105,77.65v23.27a3,3,0,0,0,3,3h.12a1.26,1.26,0,0,0,.27,0c.1,0,.2,0,.3,0l.3-.1a2.67,2.67,0,0,0,.26-.09,2.49,2.49,0,0,0,.28-.15l.22-.13a2.52,2.52,0,0,0,.25-.21l.19-.16a2.65,2.65,0,0,0,.21-.26l.15-.19c.06-.1.11-.2.16-.3s.08-.14.11-.21.07-.23.1-.34a2,2,0,0,0,.06-.23,2.2,2.2,0,0,0,0-.36c0-.07,0-.14,0-.22V77.65L126,63.25A3,3,0,0,0,126.06,59Z"/><path class="cls-2" d="M90.94,80.83a3,3,0,0,0-3,3V99.45a3,3,0,0,0,3,3H91a3,3,0,0,0,3-3V83.87A3,3,0,0,0,90.94,80.83Z"/><path class="cls-2" d="M35.79,75.6A3,3,0,0,0,37,79.75l10.22,5.69a3,3,0,0,0,1.48.38,3,3,0,0,0,1.48-5.69L40,74.44A3.05,3.05,0,0,0,35.79,75.6Z"/><path class="cls-2" d="M27.83,79.55a3,3,0,0,0-3,3.1l.26,11.6a3,3,0,0,0,3,3l.05,0h.1a3,3,0,0,0,2.9-3.1l-.23-11.65A3,3,0,0,0,27.83,79.55Z"/><path class="cls-2" d="M46.42,92.16,36.32,98a3,3,0,0,0,1.52,5.68,3.08,3.08,0,0,0,1.48-.41l10.1-5.8a3,3,0,0,0-3-5.28Z"/><path class="cls-3" d="M94,51.8a7.65,7.65,0,0,0,7.64-7.64V22.92A7.66,7.66,0,0,0,94,15.28H.65v-1.5h0V53.3h0V51.8Z"/><path class="cls-4" d="M94,12.28H.65v3H94a7.66,7.66,0,0,1,7.64,7.64V44.16A7.65,7.65,0,0,1,94,51.8H.65v3H94a10.65,10.65,0,0,0,10.64-10.64V22.92A10.67,10.67,0,0,0,94,12.28Z"/><g class="cls-5"><path class="cls-6" d="M10.46,45.79V22.88h6.93l4.15,15.63,4.11-15.63h6.94V45.79h-4.3v-18l-4.55,18H19.29l-4.53-18v18Z"/><path class="cls-6" d="M39.53,38.34,44,37.9a5.49,5.49,0,0,0,1.65,3.33A5,5,0,0,0,49,42.29a5.11,5.11,0,0,0,3.37-.95,2.8,2.8,0,0,0,1.13-2.21,2.07,2.07,0,0,0-.48-1.38,3.74,3.74,0,0,0-1.66-1c-.54-.19-1.78-.52-3.7-1a12.58,12.58,0,0,1-5.22-2.27,6,6,0,0,1-1.12-7.88,6.2,6.2,0,0,1,2.86-2.32,11.48,11.48,0,0,1,4.51-.8c2.87,0,5,.63,6.49,1.89a6.69,6.69,0,0,1,2.29,5.05l-4.63.2a3.93,3.93,0,0,0-1.27-2.54,4.7,4.7,0,0,0-2.93-.77,5.29,5.29,0,0,0-3.15.83,1.67,1.67,0,0,0-.74,1.42A1.75,1.75,0,0,0,45.47,30a12.1,12.1,0,0,0,4.25,1.53,22.24,22.24,0,0,1,5,1.65,6.48,6.48,0,0,1,2.53,2.33,7.18,7.18,0,0,1-.18,7.34A6.61,6.61,0,0,1,54,45.36a13,13,0,0,1-5,.84c-2.89,0-5.12-.67-6.67-2A8.74,8.74,0,0,1,39.53,38.34Z"/><path class="cls-6" d="M71.41,45.79,63.22,22.88h5l5.79,17,5.61-17h4.91l-8.2,22.91Z"/></g><circle class="cls-1" cx="91.14" cy="91.14" r="35.51"/><path class="cls-6" d="M91.14,53.47A37.67,37.67,0,1,1,53.47,91.14h0A37.7,37.7,0,0,1,91.14,53.47Zm0,71A33.35,33.35,0,1,0,57.79,91.12v0a33.39,33.39,0,0,0,33.35,33.35Z"/><path class="cls-6" d="M109.24,78.06a22,22,0,0,0-39.75,8.59H81.34a10.48,10.48,0,0,1,19.48-.16l-4,4H113V74.25Z"/><path class="cls-6" d="M80.42,90.46H69v16.19l3.93-3.92a22,22,0,0,0,39.83-8.46H100.89a10.49,10.49,0,0,1-19.54,0l3.85-3.84H80.42Z"/></svg>