<svg id="Layer_1" data-name="Layer 1" xmlns="http://www.w3.org/2000/svg" viewBox="0 0 128.16 128.16"><defs><style>.cls-1{fill:#00aeef;}.cls-2{fill:#404040;}.cls-3{fill:gray;}.cls-4{fill:#ffbeab;}</style></defs><path class="cls-1" d="M28.56,8.9A91.91,91.91,0,0,0,.65,13.21v9.72a82.84,82.84,0,0,1,110.71,78,82.53,82.53,0,0,1-4.84,27.92h9.72A92,92,0,0,0,28.56,8.9Z"/><path class="cls-2" d="M28.56,18.1A82.71,82.71,0,0,0,.65,22.93V31.8a74.53,74.53,0,0,1,102.43,69.09,74.26,74.26,0,0,1-5.43,27.92h8.87a82.81,82.81,0,0,0-78-110.71Z"/><path class="cls-3" d="M28.56,26.38A74.2,74.2,0,0,0,.65,31.8v8.12a67.06,67.06,0,0,1,95,61,66.77,66.77,0,0,1-6.09,27.92h8.11A74.51,74.51,0,0,0,28.56,26.38Z"/><path class="cls-4" d="M28.56,33.83A66.76,66.76,0,0,0,.65,39.92V66a44.7,44.7,0,0,1,62.83,62.83H89.54a66.77,66.77,0,0,0,6.09-27.92A67.06,67.06,0,0,0,28.56,33.83Z"/><path class="cls-3" d="M28.56,56.18A44.48,44.48,0,0,0,.65,66v62.83H63.48A44.71,44.71,0,0,0,28.56,56.18ZM13.14,112.82a3.32,3.32,0,1,1,3.32-3.32A3.32,3.32,0,0,1,13.14,112.82Zm3.32-14.56a3.32,3.32,0,1,1,3.32-3.32A3.32,3.32,0,0,1,16.46,98.26Zm8.78-22.62A3.32,3.32,0,1,1,28.56,79,3.32,3.32,0,0,1,25.24,75.64Zm8.89,46.85a3.32,3.32,0,1,1,3.32-3.32A3.32,3.32,0,0,1,34.13,122.49Zm0-13.11a3.32,3.32,0,1,1,3.32-3.32A3.32,3.32,0,0,1,34.13,109.38Zm3.32-16.21a3.32,3.32,0,1,1,3.32-3.32A3.31,3.31,0,0,1,37.45,93.17Zm6.64-11.88A3.32,3.32,0,1,1,47.4,78,3.32,3.32,0,0,1,44.09,81.29Zm10.63,41.2A3.32,3.32,0,1,1,58,119.17,3.32,3.32,0,0,1,54.72,122.49Zm0-15A3.32,3.32,0,1,1,58,104.21,3.32,3.32,0,0,1,54.72,107.53Z"/><path class="cls-4" d="M31.88,75.64A3.32,3.32,0,1,0,28.56,79,3.31,3.31,0,0,0,31.88,75.64Z"/><path class="cls-4" d="M37.45,86.53a3.32,3.32,0,1,0,3.32,3.32A3.32,3.32,0,0,0,37.45,86.53Z"/><path class="cls-4" d="M44.09,74.65A3.32,3.32,0,1,0,47.4,78,3.32,3.32,0,0,0,44.09,74.65Z"/><path class="cls-4" d="M54.72,100.89A3.32,3.32,0,1,0,58,104.21,3.32,3.32,0,0,0,54.72,100.89Z"/><path class="cls-4" d="M34.13,102.74a3.32,3.32,0,1,0,3.32,3.32A3.32,3.32,0,0,0,34.13,102.74Z"/><circle class="cls-4" cx="16.46" cy="94.94" r="3.32"/><path class="cls-4" d="M13.14,106.19a3.32,3.32,0,1,0,3.32,3.31A3.32,3.32,0,0,0,13.14,106.19Z"/><path class="cls-4" d="M34.13,115.85a3.32,3.32,0,1,0,3.32,3.32A3.31,3.31,0,0,0,34.13,115.85Z"/><path class="cls-4" d="M54.72,115.85A3.32,3.32,0,1,0,58,119.17,3.32,3.32,0,0,0,54.72,115.85Z"/></svg>