<svg id="Layer_1" data-name="Layer 1" xmlns="http://www.w3.org/2000/svg" viewBox="0 0 128.16 128.16"><defs><style>.cls-1{fill:#00aeef;fill-rule:evenodd;}.cls-2{fill:#f18a00;}.cls-3{fill:#fff;}</style></defs><path class="cls-1" d="M62.06,3,45.31,36.8,3.55,40.4h0c-1.27-.29-3.31.73-2.25,1.71L32.72,74.39,24.8,114.84h0c0,.57,0,.94.49,1.1,1.06.49,34.72-20.1,38-22.06v.2h.21v-.2c3.39,2,37,22.55,38.08,22.06a1.07,1.07,0,0,0,.49-1.1h0L94.17,74.39l31.42-32.28c1.06-1-1-2-2.25-1.71h0L82.08,36.8,65.33,3h0c-.37-.57-.94-1.34-1.6-1.34h-.24c-.62,0-1.19.57-1.51,1.43h0Z"/><circle class="cls-2" cx="89.96" cy="89.3" r="36.28"/><path class="cls-3" d="M90,50.82A38.49,38.49,0,1,1,51.48,89.3h0A38.48,38.48,0,0,1,90,50.82Zm0,72.52A34.08,34.08,0,1,0,55.89,89.26v0A34.07,34.07,0,0,0,90,123.34Z"/><path class="cls-3" d="M70.06,93.67h8.5v13.9A3.44,3.44,0,0,0,82,111H98.26a3.44,3.44,0,0,0,3.43-3.43V93.67h8.54c1.47,0,2-.81,2-1.55a2.9,2.9,0,0,0-.78-1.75l-19-21.58a3.14,3.14,0,0,0-2.36-1.14,3,3,0,0,0-2.37,1.14L68.84,90.37a2.72,2.72,0,0,0-.74,1.75C68.1,92.86,68.59,93.67,70.06,93.67Z"/></svg>