<svg id="Layer_1" data-name="Layer 1" xmlns="http://www.w3.org/2000/svg" viewBox="0 0 128.16 128.16"><defs><style>.cls-1{fill:#00aeef;fill-rule:evenodd;}.cls-2{fill:#f18a00;}.cls-3{fill:#fff;}</style></defs><path class="cls-1" d="M62.06,3,45.31,36.8,3.55,40.4h0c-1.27-.29-3.31.73-2.25,1.71L32.72,74.39,24.8,114.84h0c0,.57,0,.94.49,1.1,1.06.49,34.72-20.1,38-22.06v.2h.21v-.2c3.39,2,37,22.55,38.08,22.06a1.07,1.07,0,0,0,.49-1.1h0L94.17,74.39l31.42-32.28c1.06-1-1-2-2.25-1.71h0L82.08,36.8,65.33,3h0c-.37-.57-.94-1.34-1.6-1.34h-.24c-.62,0-1.19.57-1.51,1.43h0Z"/><circle class="cls-2" cx="89.96" cy="89.3" r="36.28"/><path class="cls-3" d="M90,127.79A38.49,38.49,0,1,1,128.45,89.3h0A38.49,38.49,0,0,1,90,127.79Zm0-72.52A34.08,34.08,0,1,0,124,89.34v0A34.08,34.08,0,0,0,90,55.27Z"/><path class="cls-3" d="M109.86,84.93h-8.5V71a3.43,3.43,0,0,0-3.43-3.43H81.67A3.42,3.42,0,0,0,78.24,71V84.93H69.7c-1.47,0-2,.82-2,1.55a2.89,2.89,0,0,0,.77,1.76l19,21.57A3.15,3.15,0,0,0,89.8,111a3.09,3.09,0,0,0,2.37-1.15l18.91-21.57a2.69,2.69,0,0,0,.74-1.76C111.82,85.75,111.33,84.93,109.86,84.93Z"/></svg>