<?xml version="1.0" encoding="utf-8"?>
<!-- Generator: Adobe Illustrator 24.3.0, SVG Export Plug-In . SVG Version: 6.00 Build 0)  -->
<svg version="1.1" id="Layer_1" xmlns="http://www.w3.org/2000/svg" xmlns:xlink="http://www.w3.org/1999/xlink" x="0px" y="0px"
	 viewBox="0 0 128.2 128.2" style="enable-background:new 0 0 128.2 128.2;" xml:space="preserve">
<style type="text/css">
	.st0{fill:#F56867;}
	.st1{fill:#F1726B;}
	.st2{fill:#EA5B49;}
	.st3{fill-rule:evenodd;clip-rule:evenodd;fill:#F47E72;}
	.st4{fill-rule:evenodd;clip-rule:evenodd;fill:url(#SVGID_1_);}
	.st5{fill-rule:evenodd;clip-rule:evenodd;fill:#606060;}
	.st6{fill-rule:evenodd;clip-rule:evenodd;fill:#FCBCA1;}
	.st7{fill-rule:evenodd;clip-rule:evenodd;fill:#D98D82;}
</style>
<g>
	<g id="Layer_1_1_">
		<path class="st0" d="M62,15.1c15.1-4.9,28.8-3.9,39.3,1.1c4.3,2.1,8.2,5,11.4,8.5c3.2,3.5,5.5,7.7,7,12.2
			c3.1,9.5,2.3,21.1-3.7,33.5c-5,10-12.1,18.7-20.9,25.6c-8.6,6.8-18.6,11.8-28.7,13.7c-12.4,2.5-25.2,2.9-37.8,1.3
			c-2.8-0.3-5.3-0.6-7.4-0.6c-1.6-0.1-3.1,0.5-4,1.8c-0.4,0.6-0.6,1.3-0.7,2c-0.1,0.8,0,1.5,0.2,2.2l0,0c0.4,1.5,1.6,2.6,3.1,3
			c5,1.2,12.6,0.8,20.7-0.2c9.9-1.3,19.6-3.5,29.1-6.5c26.9-9,43.8-25.7,51.4-43.1c3.6-7.9,5.1-16.6,4.6-25.2
			c-0.5-7.8-3.4-15.3-8.2-21.5c-7-8.8-18.2-14.6-33.6-15c-12.6-0.4-21.5,1.8-28.2,5.6s-11.1,9.4-15,16c-3,5.2-7.5,12.7-12.1,19.3
			S19.3,61.4,16,63.3c-4.6,2.6-8.4,16.5-11.2,27c-0.5,1.9-1,3.7-1.5,5.3c-0.1,0.3-0.2,0.7-0.3,1c-1.2,4.6-0.8,7.9,0.2,10.2
			c0.6,1.7,2,3.1,3.7,3.7H7c0.5,0.1,1,0.1,1.4,0c0.9-0.2,1.7-0.6,2.4-1.2c0.8-0.7,1.3-1.7,1.6-2.7c0.2-0.9,0.2-1.9,0-2.8
			c-1.2-6.1-1.4-12.4-0.6-18.6c0.7-5.8,2.5-11.4,5.2-16.6c1.6-2.6,3.6-5,5.8-7.2c3-3.1,6.2-5.9,9.6-8.5c5-3.7,5.4-3.8,14.3-4.9
			c2-0.2,4.3-0.5,6.9-0.9c2.5-0.3,5-0.5,7.5-0.5c2.6,0,5.1,0.2,7.7,0.5c2.2,0.3,4.4,0.8,6.5,1.5c1.6,0.5,3.2,1.2,4.5,2.3
			c0.3,0.2,0.7,0.3,1,0.1c0.2-0.1,0.3-0.2,0.5-0.3c0.1-0.1,0.2-0.2,0.3-0.4c0.2-0.3,0.2-0.7-0.1-1C80,48,78.3,47,76.4,46.4
			c-2.3-0.9-4.8-1.6-7.3-1.9c-2.7-0.3-5.3-0.5-8-0.5c-2.6,0-5.2,0.2-7.8,0.5l0,0c-4.3,0.4-7.2-0.3-8.7-2.4s-1.4-5.6,0.3-11
			c0.6-2,3.1-6.3,7-10.1C54.9,18.4,58.3,16.4,62,15.1z"/>
		<path class="st1" d="M12.8,109.2l3.3,2.3v-0.1c1.2-1.6,3.1-2.5,5.1-2.4c2.3,0,4.7,0.3,7.6,0.6c12.5,1.6,25.1,1.1,37.4-1.3
			c9.9-1.8,19.7-6.7,28.2-13.4c8.6-6.7,15.6-15.2,20.5-25c5.8-12.1,6.6-23.3,3.6-32.5c-1.4-4.3-3.7-8.3-6.7-11.7
			c-3.1-3.4-6.8-6.2-11-8.2c-10.2-4.9-23.6-5.8-38.3-1c-3.5,1.2-6.7,3.1-9.4,5.7c-3.8,3.6-6.1,7.6-6.7,9.5c-1.5,4.9-1.7,8.1-0.5,9.8
			s3.7,2.2,7.5,1.8l0,0c2.7-0.3,5.3-0.5,8-0.5s5.5,0.2,8.2,0.5c2.6,0.4,5.1,1,7.6,2c2,0.7,3.9,1.8,5.5,3.2c0.7,0.7,0.8,1.7,0.3,2.5
			c-0.2,0.3-0.4,0.5-0.6,0.8c-0.2,0.2-0.5,0.4-0.8,0.5c-0.8,0.5-1.9,0.3-2.5-0.4c-1.2-0.9-2.6-1.5-4-1.9c-2-0.7-4.1-1.2-6.2-1.5
			c-2.5-0.3-5-0.5-7.5-0.5s-4.9,0.1-7.3,0.5c-3.1,0.5-5.3,0.8-7.1,1c-8.6,1-9,1.1-13.7,4.6c-3.3,2.6-6.5,5.4-9.5,8.4
			c-2.1,2.1-4,4.4-5.6,6.9c-2.7,5-4.3,10.4-5,16.1c-0.8,6.1-0.6,12.2,0.6,18.2c0.2,1.1,0.2,2.3-0.1,3.4
			C13.6,107.8,13.3,108.5,12.8,109.2L12.8,109.2z"/>
		<path class="st2" d="M83.8,6.6c15.8,0.4,27.4,6.5,34.6,15.5c5,6.4,7.9,14.1,8.5,22.2c0.6,8.9-1,17.8-4.7,25.9
			C114.5,87.9,97.3,104.8,70,114c-9.6,3-19.4,5.2-29.3,6.6c-8.2,1.1-16,1.4-21.2,0.2c-1.9-0.5-3.5-2-4.1-3.9l0,0
			c-0.3-0.9-0.4-1.8-0.3-2.8c0.1-0.7,0.2-1.3,0.5-1.9l0,0l-3.4-2.3c-0.1,0.2-0.3,0.3-0.4,0.4c-0.8,0.8-1.9,1.4-3,1.6
			c-0.7,0.1-1.3,0.1-2,0l0,0h0l0,0c-2.1-0.7-3.8-2.3-4.6-4.4C1,105,0.6,101.3,1.9,96.4c0.1-0.3,0.2-0.7,0.3-1
			c0.5-1.6,0.9-3.4,1.5-5.3c2.9-10.7,6.7-24.9,11.8-27.8c3.1-1.8,7.6-7.5,12.1-14.1s9-14.1,12-19.2C43.4,22.2,48,16.4,55,12.4
			S71,6.3,83.8,6.6"/>
		<path class="st3" d="M62.2,15.7c40.6-13.2,71.6,16.4,53.3,54.4c-8.9,18.6-28.8,35-49.2,38.8c-24.2,4.5-36.5,0.8-45.1,0.8
			c-7.2,0-6.7,9.2-1.5,10.4c11.9,2.8,38.8-3,50.1-6.8c73-24.5,72.8-104.4,14-106c-25.5-0.7-36,8.6-43.8,21.9
			c-6,10.3-18,29.9-24.3,33.5C10,66.1,5.8,85,2.8,95.5s1.2,15,4.2,15.7s7.2-2.5,6.2-7.5C11,92.4,12.1,79.2,17.8,69
			c2.8-5,11.8-13,15.2-15.5c5.9-4.4,5.2-3.5,20.9-5.5c5-0.6,10-0.6,15,0c4.4,0.6,9.6,2.4,10.6,3.6c1.2,1.3,4.1-0.9,2.6-2.5
			c-1.7-1.9-7.5-4.3-12.7-5c-5.3-0.7-10.7-0.7-16,0c-8.1,0.7-10.9-2.2-7.7-12.5C46.7,28.3,52.7,18.9,62.2,15.7L62.2,15.7z"/>
		
			<radialGradient id="SVGID_1_" cx="65.75" cy="726.95" r="56.5303" gradientTransform="matrix(1 0 0 1 0 -662)" gradientUnits="userSpaceOnUse">
			<stop  offset="0.65" style="stop-color:#C74126"/>
			<stop  offset="0.99" style="stop-color:#71210D"/>
		</radialGradient>
		<path class="st4" d="M7.4,105.6l1.7-22.1l5.3-14.8l5.9-6.9c0,0,13.2-14.5,13.6-15.2s11.3-20,11.3-20l12.9-12l16-4.1l14.6-0.2
			l15.6,4.3l9.3,7.3l10.5,17.7l-2.5,26.7l-11.5,19.2L93.8,100l-25.6,12.2l-34.1,7.4L21,114.8L7.4,105.6z"/>
		<polygon class="st5" points="32.7,69.4 43.2,67.7 64.6,70.3 66,68.8 67.1,68.7 67.7,68.6 69,67.3 61.5,56 57.5,50.1 68.2,48.8 
			69.3,50.4 70.8,50.1 72.3,47.9 74.3,48.8 77.6,45.1 81.4,42.9 83.4,40 83.1,38.2 66.7,39.2 62.4,37.9 63.2,30.6 81.8,22.4 
			92.3,22.2 98.1,24 104.8,28.5 105.8,29.5 109.3,44.8 112.6,54.8 112.6,65 95.1,87.9 89,92.2 71.6,90.5 44.2,90.3 34.9,82.9 
			33.9,77.8 		"/>
		<path class="st6" d="M43.4,65.2c-2.4,1.1-7.2-0.6-10.5,1.3c-16.2,9.3-14,36.3,8,34.8c9.9-0.7,19.4-3.7,22.8-6s6.2,0.2,11.8,0.7
			s6.9-0.5,13.6-2.1c11.5-2.7,26.1-25.7,26.7-44.1c0.2-8-3.7-16.6-9.2-19.8c-0.3-0.2-0.6-0.4-0.8-0.6c-0.3,0.6-0.7,1.1-1.2,1.5l0,0
			l-0.1,0.1l0,0c-1.5,1.4-2.5,2.4-4.3,1.3c-0.4-0.3-0.8-0.6-1.2-0.8l0,0c-0.7-0.6-1.6-1-2.4-1.3c-0.7-0.2-1.4-0.3-2.1-0.4
			c0.6,3.5,1.7,6.9,3.3,10.1c0.8,1.9,1.7,4,2.6,6.6c0.5,1.3,0.8,2.6,0.8,3.9c0,1.5-0.4,3-1.1,4.4l-1-0.4c0.6-1.2,1-2.6,1-4l0,0
			c-0.1-1.2-0.3-2.5-0.8-3.6c-0.8-2.6-1.7-4.6-2.6-6.5c-1.8-3.7-3-7.7-3.6-11.8c-0.1-1.3-0.5-2.6-1.1-3.8c-0.5-0.8-1.4-1.2-2.3-1
			c-1.7,0.4-3.3,1-4.8,1.8c-1.3,0.6-2.7,1.3-4.3,1.9c-1.8,0.7-3.7,1.1-5.6,1.2c-1.4,0.1-2.8,0.4-4.2,0.8c-1.3,0.4-2.6,0.9-3.8,1.6
			c-0.7,0.5-1.1,1.3-1,2.2s0,1.7-0.3,2.6l0,0c0,0.2-0.1,0.3-0.1,0.5c-0.1,0.4-0.1,0.6,0.3,0.7c0.7,0.1,1.4-0.2,2-0.6
			c1-0.6,2.1-1,3.3-1.2c2-0.2,7.3,0,10.5,0.2c1.2,0,2.1,0.1,2.5,0.1c0.9,0,0.9,2.5,1,6.2c0,6.3,0.1,16.2,2.6,22.3
			c1.6,3.9,4.3,6.1,8.7,4.3c2.9-1.1,5.6-2.7,8-4.7c2.2-2.1,4.1-4.4,5.8-6.9l0.8,0.6c-1.7,2.5-3.7,4.9-6,7c-2.5,2.1-5.3,3.8-8.3,4.9
			c-5.1,2.1-8.2-0.4-10-4.9c-2.6-6.2-2.7-16.4-2.7-22.6c0-3.1,0.2-5.1,0.1-5.1c-0.3,0-1.3,0-2.5-0.1c-3.2-0.1-8.4-0.3-10.4-0.2
			c-1,0.1-2,0.5-2.9,1c-0.8,0.6-1.7,0.8-2.7,0.7c-1.3-0.2-1.4-0.9-1.2-1.9l0.1-0.6l0,0c0.2-0.7,0.3-1.5,0.3-2.2
			c-0.1-1.2,0.4-2.4,1.4-3.1c1.2-0.8,2.6-1.4,4-1.8c1.4-0.5,2.9-0.8,4.4-0.9c1.8-0.1,3.6-0.5,5.4-1.2c1.6-0.6,3-1.3,4.2-1.9
			c1.6-0.9,3.3-1.6,5.1-1.9c1.3-0.2,2.6,0.4,3.3,1.5c0.7,1.3,1.2,2.8,1.3,4.2l0.1,0.4c0.9,0.1,1.7,0.2,2.5,0.4
			c1,0.3,1.9,0.8,2.8,1.4l0,0c0.3,0.2,0.7,0.5,1.2,0.8c1.1,0.7,1.9,0,3.1-1.1l0,0l0.1-0.1l0,0c1.8-1.7,2.2-8.1-1.3-8.5
			c-2.5-0.3-11.3-3.8-15-2.9c-6.1,1.5-13.6-0.1-20,3.2c-12.8,6.7-14.8,20.7-0.2,19.5c5.3-0.5,9.4-1,14.6-1.1c-1.3,1.3-2.8,3-4.4,4.8
			c1.7,0.5,3.3,1.4,4.6,2.7c1.5,1.6,2.1,3,0.6,4.2c-1.2,1.2-3.1,1.3-4.3,0.1c-0.1-0.1-0.2-0.3-0.4-0.4c-0.4-0.5-2.3-1.2-4.6-1.8
			l-0.7,0.8c-1.2,1.4-2.2,2.9-2.9,4.6c0.8,2.7,2.6,5,5.1,6.4c1.1,0.6,2.1,1.2,3,1.7c5.4,3,8,4.4,13.2,9.9c1.6,1.7,1.9,4.7,1.5,7.9
			c-0.4,3.5-1.7,6.7-3.7,9.6L88,90.1c1.9-2.7,3.1-5.8,3.5-9c0.4-2.9,0.1-5.6-1.2-7c-5-5.4-7.6-6.8-12.9-9.7l-3-1.7
			c-2.6-1.5-4.5-3.9-5.4-6.8c-0.2-0.3-0.4-0.6-0.6-0.9c-0.8-1.4-0.9-3-1.8-3.5c-3.4-2.3-7.4,1.8-7.6,3.7c-0.3,2.1,0.2,4.2,2.3,5.4
			c1.1,0.6,1.5,1.8,2.7,2.8c1.2,1,2.2,2,2.9,2.7l0,0l0,0c0.4,0.4,0.8,0.8,1,1.1c0.9,0.9,1.8,1.8,2.8,2.6c1.3,1.1,2.8,2.1,4.3,2.9
			c1.1,0.6,2.1,1.3,3.1,2.1c0.8,0.7,1.5,1.5,2.1,2.5c1,1.9-0.8,3.8-2.6,5.6c-1.2,1.2-2.5,2.5-2.5,3.6l-1-0.1
			c0.1-1.4,1.5-2.8,2.8-4.2c1.5-1.6,3-3.1,2.3-4.3c-0.5-0.8-1.1-1.6-1.9-2.2c-0.9-0.8-1.8-1.4-2.9-2c-1.6-0.9-3-1.9-4.4-3
			c-0.9-0.7-1.7-1.5-2.5-2.3l-0.6,0.2c0.6,1.6,0.9,3.3,0.9,5c0,1.9-0.2,3.7-0.5,5.6c-0.2,1.3-0.4,2.5-0.7,3.7
			c-0.4,1.5-0.8,2.9-1.2,3.9l-1-0.3c0.3-1,0.8-2.3,1.2-3.8c0.3-1.2,0.5-2.4,0.7-3.6c0.3-1.8,0.5-3.6,0.5-5.5c0.1-1.7-0.3-3.4-1-4.9
			c-0.1,0-0.2,0-0.3-0.1c-0.8-1.4-2.2-2.5-3.7-3c-2.6-1-3.7-1.7-5.5-1.5c-1.8,0.2-3.2-0.2-6.6-1.5S45.7,64,43.4,65.2z M55.2,47.8
			c0.2,0.7,0.3,2.3,0.7,2.7c1.3,1.2,3,2,4.8,0.8s2.9-1.8,3.9-1.8c1.3,0.1,2.5,0.7,3.4,1.7s1.3,2.1,2.1,1s1.9-2.5,2.5-3.4
			C68.9,47.6,61.4,47.2,55.2,47.8L55.2,47.8z M38.2,70.1c0.2-0.2,0.5-0.2,0.7,0s0.2,0.5,0,0.7l0,0c-2.4,2.7,0.9,5.7,0.9,5.8
			c0.2,0.2,0.2,0.5,0,0.7s-0.5,0.2-0.7,0C39.2,77.4,35.1,73.6,38.2,70.1L38.2,70.1z"/>
		<path class="st7" d="M62.2,15.7c40.6-13.2,71.6,16.4,53.3,54.4c-8.9,18.6-28.8,35-49.2,38.8c-24.2,4.5-36.5,0.8-45.1,0.8
			c-7.2,0-6.7,9.2-1.5,10.4c11.9,2.8,38.8-3,50.1-6.8c73-24.5,72.8-104.4,14-106c-25.5-0.7-36,8.6-43.8,21.9
			c-6,10.3-18,29.9-24.3,33.5C10,66.1,5.8,85,2.8,95.5s1.2,15,4.2,15.7s7.2-2.5,6.2-7.5C11,92.4,12.1,79.2,17.8,69
			c2.8-5,11.8-13,15.2-15.5c5.9-4.4,5.2-3.5,20.9-5.5c5-0.6,10-0.6,15,0c4.4,0.6,9.6,2.4,10.6,3.6c1.2,1.3,4.1-0.9,2.6-2.5
			c-1.7-1.9-7.5-4.3-12.7-5c-5.3-0.7-10.7-0.7-16,0c-8.1,0.7-10.9-2.2-7.7-12.5C46.7,28.3,52.7,18.9,62.2,15.7L62.2,15.7z"/>
	</g>
</g>
</svg>
