<svg id="Layer_1" data-name="Layer 1" xmlns="http://www.w3.org/2000/svg" viewBox="0 0 128.16 128.16"><defs><style>.cls-1{fill:#f18a00;}.cls-2{fill:#00aeef;}</style></defs><path class="cls-1" d="M31,36,36.26,31a2.07,2.07,0,0,0,.07-2.93L36.26,28,24.23,16a2.08,2.08,0,0,1-.06-2.88l6.34-6.95a2.08,2.08,0,0,0-.14-2.94A2.06,2.06,0,0,0,29,2.65H4.73A2.08,2.08,0,0,0,2.65,4.73V29a2.08,2.08,0,0,0,2.09,2.07,2.1,2.1,0,0,0,1.39-.54l7-6.37a2.09,2.09,0,0,1,2.85,0l12.15,11.8A2.08,2.08,0,0,0,31,36Z"/><path class="cls-1" d="M97.58,6.17l6.61,6.91a2.08,2.08,0,0,1,0,2.91L92.06,28.08a2.08,2.08,0,0,0,0,2.94l4.87,4.87a2.08,2.08,0,0,0,2.89,0L113,23.65a2.07,2.07,0,0,1,2.82,0l7.52,6.89A2.08,2.08,0,0,0,126.81,29V4.73a2.08,2.08,0,0,0-2.08-2.08H99.08a2.08,2.08,0,0,0-1.5,3.52Z"/><path class="cls-1" d="M98.45,92l-5.32,5a2.07,2.07,0,0,0-.1,2.91L105.36,113a2.07,2.07,0,0,1,0,2.76l-6.66,7.61a2.06,2.06,0,0,0,1.55,3.41h24.45a2.06,2.06,0,0,0,2.06-2.06V99A2.06,2.06,0,0,0,124.75,97a2,2,0,0,0-1.42.57l-7,6.67a2.05,2.05,0,0,1-2.87,0L101.31,92A2.06,2.06,0,0,0,98.45,92Z"/><path class="cls-1" d="M29.53,92.07l-13,12.19a2.17,2.17,0,0,1-2.9,0L6.24,97.87A2.17,2.17,0,0,0,2.65,99.5v25.15a2.17,2.17,0,0,0,2.17,2.17H30.33a2.17,2.17,0,0,0,2.15-2.19,2.13,2.13,0,0,0-.56-1.44l-6.68-7.29a2.16,2.16,0,0,1,0-3l12.19-12.55a2.16,2.16,0,0,0,0-3l-4.88-5.2A2.15,2.15,0,0,0,29.53,92.07Z"/><path class="cls-2" d="M90.65,52.93V44a4.89,4.89,0,0,0-4.58-5.18H76.56V44h8.86v8.89Z"/><path class="cls-2" d="M76.56,90.65h8.86a4.9,4.9,0,0,0,5.23-4.53c0-.23,0-.47,0-.7V76.59H85.42v8.83H76.56Z"/><path class="cls-2" d="M52.9,85.42H44V76.59H38.86v8.83a4.88,4.88,0,0,0,4.53,5.22,4.68,4.68,0,0,0,.65,0H52.9Z"/><path class="cls-2" d="M52.9,38.86H44a4.88,4.88,0,0,0-5.18,4.58q0,.3,0,.6v8.89H44V44H52.9Z"/></svg>