<svg xmlns="http://www.w3.org/2000/svg" viewBox="0 0 128.16 128.16"><defs><style>.cls-1{isolation:isolate;}.cls-2,.cls-4{fill:#fcc900;}.cls-3{fill:gray;opacity:0.15;mix-blend-mode:multiply;}.cls-4{stroke:gray;stroke-linecap:square;stroke-linejoin:bevel;stroke-width:1.62px;opacity:0.34;}</style></defs><g class="cls-1"><g id="Layer_1" data-name="Layer 1"><polygon class="cls-2" points="17.9 1.73 101.38 5.97 101.38 113.88 17.9 94.74 17.9 1.73"/><polygon class="cls-3" points="17.9 1.73 101.38 5.97 101.38 113.88 17.9 94.74 17.9 1.73"/><polygon class="cls-2" points="101.38 69.87 111.56 71.64 111.56 109.75 101.38 107.98 101.38 69.87"/><polygon class="cls-3" points="101.38 69.87 111.56 71.64 111.56 109.75 101.38 107.98 101.38 69.87"/><polygon class="cls-2" points="17.9 1.73 48.09 21.56 48.09 119.2 48.09 127.73 17.9 99.36 17.9 1.73"/><polyline class="cls-4" points="19.34 2.68 48.09 21.56 48.09 119.2 48.09 127.73 18.8 100.4"/></g></g></svg>