<svg id="Layer_1" data-name="Layer 1" xmlns="http://www.w3.org/2000/svg" xmlns:xlink="http://www.w3.org/1999/xlink" viewBox="0 0 128.16 128.16"><defs><style>.cls-1{fill:#fcc900;}.cls-2{opacity:0.8;fill:url(#linear-gradient);}.cls-3{fill:#00aeef;}.cls-4{fill:#fff;}.cls-5{fill:#62bb46;}.cls-6{fill:#bfbfbf;}.cls-7{fill:gray;}.cls-8{opacity:0.34;}</style><linearGradient id="linear-gradient" x1="8.38" y1="57.8" x2="102.05" y2="57.8" gradientUnits="userSpaceOnUse"><stop offset="0.54" stop-color="#fff"/><stop offset="1" stop-color="#fff" stop-opacity="0"/></linearGradient></defs><polygon class="cls-1" points="8.38 1.73 91.87 5.97 91.87 113.88 8.38 94.74 8.38 1.73"/><polygon class="cls-1" points="91.87 69.87 102.05 71.64 102.05 109.75 91.87 107.98 91.87 69.87"/><path class="cls-2" d="M8.38,1.73,91.87,6V113.88L8.38,94.74ZM91.87,108l10.18,1.78V71.64L91.87,69.87Z"/><path class="cls-3" d="M111.51,81.47l-63.37,30.2c-8.73,4.16-19.55.3-24.13-8.6S22.8,83.55,31.52,79.39L94.9,49.19c8.72-4.16,19.55-.3,24.13,8.6S120.24,77.31,111.51,81.47Z"/><path class="cls-4" d="M40.71,117.32a22.93,22.93,0,0,1-20.24-12.43,21.7,21.7,0,0,1-1.37-17A20.54,20.54,0,0,1,29.81,75.79l63.38-30.2C103.83,40.52,117,45.17,122.57,56a21.74,21.74,0,0,1,1.37,17,20.55,20.55,0,0,1-10.71,12.08L49.85,115.27A21.21,21.21,0,0,1,40.71,117.32Zm61.66-65.83a13.29,13.29,0,0,0-5.75,1.3L33.24,83a12.65,12.65,0,0,0-6.59,7.44,13.78,13.78,0,0,0,.91,10.81c3.6,7,12.06,10.07,18.86,6.83l63.38-30.2a12.68,12.68,0,0,0,6.59-7.44,13.8,13.8,0,0,0-.91-10.82A14.91,14.91,0,0,0,102.37,51.49Z"/><path class="cls-5" d="M79.83,96.57l-31.69,15.1c-8.73,4.16-19.55.3-24.13-8.6S22.8,83.55,31.52,79.39l31.69-15.1ZM31.52,79.39l31.69-15.1L79.83,96.57M63.21,64.29,79.83,96.57M63.21,64.29,79.83,96.57"/><path class="cls-4" d="M40.71,117.32a22.93,22.93,0,0,1-20.24-12.43,21.7,21.7,0,0,1-1.37-17A20.54,20.54,0,0,1,29.81,75.79L65,59,85.25,98.4l-35.4,16.87A21.21,21.21,0,0,1,40.71,117.32ZM61.44,69.55,33.24,83a12.65,12.65,0,0,0-6.59,7.44,13.78,13.78,0,0,0,.91,10.81c3.6,7,12.06,10.07,18.86,6.83l28-13.33Z"/><rect class="cls-4" x="69.23" y="58.68" width="3.99" height="42.93" transform="translate(-28.78 41.48) rotate(-27.23)"/><path class="cls-3" d="M79.83,50.06A24,24,0,0,1,54.26,74.14,27.18,27.18,0,0,1,28.69,47.38,24,24,0,0,1,54.26,23.29,27.19,27.19,0,0,1,79.83,50.06Z"/><path class="cls-4" d="M52.89,23.26c.46,0,.91,0,1.37,0A27.19,27.19,0,0,1,79.83,50.06a23.92,23.92,0,0,1-24.2,24.12c-.46,0-.91,0-1.37,0A27.18,27.18,0,0,1,28.69,47.38a23.92,23.92,0,0,1,24.2-24.12m0-4h0A27.85,27.85,0,0,0,24.71,47.38c0,16.1,13.16,29.9,29.34,30.74.53,0,1.06,0,1.58,0a27.84,27.84,0,0,0,28.18-28.1c0-16.11-13.16-29.9-29.34-30.75-.53,0-1.06,0-1.58,0Z"/><path class="cls-6" d="M79.83,50.06A24,24,0,0,1,54.26,74.14,27.18,27.18,0,0,1,28.69,47.38,24,24,0,0,1,54.26,23.29,27.19,27.19,0,0,1,79.83,50.06Z"/><path class="cls-7" d="M76.94,42.64A23.89,23.89,0,0,1,51.51,66.73C37.47,66,27.82,54,26.08,40c-1.56-12.71,9.35-23.1,25.43-24.1C65.46,15,76.94,28.6,76.94,42.64Z"/><path class="cls-4" d="M52.78,15.84c13.37,0,24.16,13.19,24.16,26.8A23.86,23.86,0,0,1,52.86,66.77c-.44,0-.89,0-1.35,0C37.47,66,27.82,54,26.08,40c-1.56-12.71,9.35-23.1,25.43-24.1.43,0,.85,0,1.27,0m0-4h0c-.5,0-1,0-1.52,0-9.92.62-18.64,4.63-23.93,11a22.9,22.9,0,0,0-5.2,17.57c2.1,17,14.1,29.46,29.17,30.25.52,0,1.05.05,1.56.05A27.79,27.79,0,0,0,80.92,42.64c0-16.4-13.15-30.78-28.14-30.78Z"/><path class="cls-3" d="M111.51,81.47l-63.37,30.2c-8.73,4.16-19.55.3-24.13-8.6S22.8,83.55,31.52,79.39L94.9,49.19c8.72-4.16,19.55-.3,24.13,8.6S120.24,77.31,111.51,81.47Z"/><path class="cls-5" d="M79.83,96.57l-31.69,15.1c-8.73,4.16-19.55.3-24.13-8.6S22.8,83.55,31.52,79.39l31.69-15.1ZM31.52,79.39l31.69-15.1L79.83,96.57M63.21,64.29,79.83,96.57M63.21,64.29,79.83,96.57"/><rect class="cls-4" x="69.04" y="58.68" width="4.36" height="42.93" transform="translate(-28.78 41.48) rotate(-27.23)"/><path class="cls-3" d="M79.83,50.06A24,24,0,0,1,54.26,74.14,27.18,27.18,0,0,1,28.69,47.38,24,24,0,0,1,54.26,23.29,27.19,27.19,0,0,1,79.83,50.06Z"/><path class="cls-4" d="M52.89,23.26c.46,0,.91,0,1.37,0A27.19,27.19,0,0,1,79.83,50.06a23.92,23.92,0,0,1-24.2,24.12c-.46,0-.91,0-1.37,0A27.18,27.18,0,0,1,28.69,47.38a23.92,23.92,0,0,1,24.2-24.12m0-3.61v0h0a27.47,27.47,0,0,0-27.8,27.73c0,15.9,13,29.53,29,30.36.52,0,1,0,1.56,0a27.46,27.46,0,0,0,27.8-27.72c0-15.91-13-29.53-29-30.37-.52,0-1,0-1.56,0Z"/><path class="cls-6" d="M79.83,50.06A24,24,0,0,1,54.26,74.14,27.18,27.18,0,0,1,28.69,47.38,24,24,0,0,1,54.26,23.29,27.19,27.19,0,0,1,79.83,50.06Z"/><path class="cls-7" d="M76.94,42.64A23.89,23.89,0,0,1,51.51,66.73C37.47,66,27.82,54,26.08,40c-1.56-12.71,9.35-23.1,25.43-24.1C65.46,15,76.94,28.6,76.94,42.64Z"/><path class="cls-4" d="M52.78,15.84c13.37,0,24.16,13.19,24.16,26.8A23.86,23.86,0,0,1,52.86,66.77c-.44,0-.89,0-1.35,0C37.47,66,27.82,54,26.08,40c-1.56-12.71,9.35-23.1,25.43-24.1.43,0,.85,0,1.27,0m0-1.49h0c-.45,0-.91,0-1.36,0-9.24.58-17.32,4.26-22.17,10.1A20.12,20.12,0,0,0,24.6,40.16c1.95,15.8,13,27.34,26.83,28.07l1.43,0A25.32,25.32,0,0,0,78.43,42.64c0-15.07-12-28.29-25.65-28.29Z"/><polygon class="cls-1" points="8.38 1.73 38.57 21.56 38.57 119.2 38.57 127.73 8.38 99.36 8.38 1.73"/><g class="cls-8"><polyline class="cls-1" points="9.83 2.68 38.57 21.56 38.57 119.2 38.57 127.73 9.29 100.4"/><polygon class="cls-7" points="38.02 128.32 8.15 100.44 9.25 99.25 37.76 125.86 37.76 22 8.71 2.91 9.6 1.56 39.02 20.88 39.38 21.56 39.38 127.73 38.02 128.32"/></g></svg>