<svg id="Layer_1" data-name="Layer 1" xmlns="http://www.w3.org/2000/svg" xmlns:xlink="http://www.w3.org/1999/xlink" viewBox="0 0 31.68 31.68"><defs><style>.cls-1,.cls-12{fill:#fcc900;}.cls-2{opacity:0.8;fill:url(#linear-gradient);}.cls-3,.cls-6{fill:#00aeef;}.cls-11,.cls-3,.cls-4,.cls-5{stroke:#fff;stroke-miterlimit:10;}.cls-3,.cls-4{stroke-width:2px;}.cls-10,.cls-4{fill:#62bb46;}.cls-11,.cls-5{fill:none;}.cls-7{fill:#fff;}.cls-8{fill:#bfbfbf;}.cls-9{fill:gray;}.cls-11{stroke-width:1.1px;}.cls-12{stroke:gray;stroke-linecap:square;stroke-linejoin:bevel;stroke-width:0.41px;opacity:0.34;}</style><linearGradient id="linear-gradient" y1="14.14" x2="23.5" y2="14.14" gradientUnits="userSpaceOnUse"><stop offset="0.54" stop-color="#fff"/><stop offset="1" stop-color="#fff" stop-opacity="0"/></linearGradient></defs><polygon class="cls-1" points="0 0.07 20.95 1.13 20.95 28.21 0 23.4 0 0.07"/><polygon class="cls-1" points="20.95 17.16 23.5 17.61 23.5 27.17 20.95 26.73 20.95 17.16"/><path class="cls-2" d="M0,.07,21,1.13V28.21L0,23.4ZM21,26.73l2.55.44V17.61L21,17.16Z"/><path class="cls-3" d="M25.87,20.07,10,27.65a4.65,4.65,0,0,1-6.05-2.16,4.32,4.32,0,0,1,1.89-5.94L21.71,12a4.66,4.66,0,0,1,6.05,2.16A4.32,4.32,0,0,1,25.87,20.07Z"/><path class="cls-4" d="M17.92,23.86l-8,3.79a4.65,4.65,0,0,1-6.05-2.16,4.32,4.32,0,0,1,1.89-5.94l8-3.79ZM5.81,19.55l8-3.79,4.16,8.1m-4.16-8.1,4.16,8.1m-4.16-8.1,4.16,8.1"/><line class="cls-5" x1="13.3" y1="14.95" x2="18.23" y2="24.53"/><path class="cls-6" d="M11.85,18.74h-.37A7.34,7.34,0,0,1,4.6,11.52,6.49,6.49,0,0,1,11.17,5h.37a7.33,7.33,0,0,1,6.88,7.21A6.48,6.48,0,0,1,11.85,18.74Z"/><path class="cls-7" d="M11.17,5.47h.34a6.81,6.81,0,0,1,6.41,6.71,6,6,0,0,1-6.07,6.06h-.34A6.83,6.83,0,0,1,5.1,11.52a6,6,0,0,1,6.07-6m0-1h0A7,7,0,0,0,4.1,11.52a7.83,7.83,0,0,0,7.36,7.71l.39,0a7,7,0,0,0,7.07-7.06,7.83,7.83,0,0,0-7.36-7.71Z"/><path class="cls-8" d="M17.92,12.19a6,6,0,0,1-6.41,6A6.83,6.83,0,0,1,5.1,11.52a6,6,0,0,1,6.41-6A6.81,6.81,0,0,1,17.92,12.19Z"/><path class="cls-9" d="M11.16,16.89h-.37c-3.53-.19-6.35-3.13-6.85-7.15a5.2,5.2,0,0,1,1.2-4,8,8,0,0,1,5.65-2.58h.35c3.49,0,6.56,3.37,6.56,7.22A6.48,6.48,0,0,1,11.16,16.89Z"/><path class="cls-7" d="M11.14,3.61c3.35,0,6.06,3.31,6.06,6.72a6,6,0,0,1-6,6.06h-.34c-3.52-.19-5.94-3.2-6.38-6.72-.39-3.18,2.35-5.79,6.38-6h.32m0-1h-.38a8.45,8.45,0,0,0-6,2.76,5.75,5.75,0,0,0-1.3,4.41C4,14.06,7,17.18,10.77,17.38h.39a7,7,0,0,0,7-7.06c0-4.11-3.3-7.72-7.06-7.72Z"/><path class="cls-6" d="M25.87,20.07,10,27.65a4.65,4.65,0,0,1-6.05-2.16,4.32,4.32,0,0,1,1.89-5.94L21.71,12a4.66,4.66,0,0,1,6.05,2.16A4.32,4.32,0,0,1,25.87,20.07Z"/><path class="cls-10" d="M17.92,23.86l-8,3.79a4.65,4.65,0,0,1-6.05-2.16,4.32,4.32,0,0,1,1.89-5.94l8-3.79ZM5.81,19.55l8-3.79,4.16,8.1m-4.16-8.1,4.16,8.1m-4.16-8.1,4.16,8.1"/><line class="cls-11" x1="13.3" y1="14.95" x2="18.23" y2="24.53"/><path class="cls-6" d="M11.85,18.7h-.36a7.29,7.29,0,0,1-6.85-7.17A6.44,6.44,0,0,1,11.17,5h.36a7.28,7.28,0,0,1,6.85,7.16A6.45,6.45,0,0,1,11.85,18.7Z"/><path class="cls-7" d="M11.17,5.47h.34a6.81,6.81,0,0,1,6.41,6.71,6,6,0,0,1-6.07,6.06h-.34A6.83,6.83,0,0,1,5.1,11.52a6,6,0,0,1,6.07-6m0-.91h0a6.9,6.9,0,0,0-7,7,7.74,7.74,0,0,0,7.27,7.62h.39a6.9,6.9,0,0,0,7-7,7.74,7.74,0,0,0-7.27-7.62Z"/><path class="cls-8" d="M17.92,12.19a6,6,0,0,1-6.41,6A6.83,6.83,0,0,1,5.1,11.52a6,6,0,0,1,6.41-6A6.81,6.81,0,0,1,17.92,12.19Z"/><path class="cls-9" d="M11.16,16.57h-.35c-3.38-.17-6.08-3-6.56-6.87A4.86,4.86,0,0,1,5.38,5.9a7.58,7.58,0,0,1,5.43-2.47h.33c3.33,0,6.25,3.23,6.25,6.91A6.17,6.17,0,0,1,11.16,16.57Z"/><path class="cls-7" d="M11.14,3.61c3.35,0,6.06,3.31,6.06,6.72a6,6,0,0,1-6,6.06h-.34c-3.52-.19-5.94-3.2-6.38-6.72-.39-3.18,2.35-5.79,6.38-6h.32m0-.38-.34,0A7.78,7.78,0,0,0,5.23,5.78,5,5,0,0,0,4.07,9.71c.49,4,3.26,6.86,6.73,7h.36a6.35,6.35,0,0,0,6.41-6.43c0-3.78-3-7.1-6.43-7.1Z"/><polygon class="cls-1" points="0 0.07 7.57 5.04 7.57 29.54 7.57 31.68 0 24.56 0 0.07"/><polyline class="cls-12" points="0.36 0.31 7.57 5.04 7.57 29.54 7.57 31.68 0.23 24.82"/></svg>