<svg id="Layer_1" data-name="Layer 1" xmlns="http://www.w3.org/2000/svg" viewBox="0 0 128.16 128.16"><defs><style>.cls-1{fill:#62bb46;}.cls-2{fill:gray;}</style></defs><path class="cls-1" d="M8.55,119.46V10H93.22V38.09h8V9.49c0-4.29-3.1-7.78-6.9-7.78H7.46C3.66,1.71.56,5.2.56,9.49V120c0,4.29,3.1,7.78,6.9,7.78H56.72v-8.29Z"/><path class="cls-1" d="M15.62,19.93h11.7L33.4,30.5l5.92-10.57H50.9L40.2,36.57,51.9,54.29H40l-6.78-11-6.79,11H14.54L26.4,36.38Z"/><path class="cls-2" d="M83.52,71.6c0,14.62-8.34,22.26-17.45,22.26-9.6,0-17.16-8-17.16-21.08,0-12.47,6.88-21.94,17.64-21.94S83.52,59.66,83.52,71.6Zm-23.66.75c0,7.31,2.23,12.58,6.5,12.58s6.2-4.73,6.2-12.58c0-7.1-1.74-12.58-6.3-12.58C61.9,59.77,59.86,65.36,59.86,72.35Zm7,50.75L103,50.84H111L74.69,123.1Zm62-22.47c0,14.62-8.34,22.26-17.45,22.26-9.5,0-17.06-8-17.16-21.08,0-12.47,6.88-21.93,17.64-21.93S128.89,88.69,128.89,100.63Zm-23.56.75c-.09,7.31,2.13,12.58,6.4,12.58s6.21-4.73,6.21-12.58c0-7.09-1.65-12.58-6.21-12.58S105.33,94.39,105.33,101.38Z"/></svg>