<svg id="Layer_1" data-name="Layer 1" xmlns="http://www.w3.org/2000/svg" viewBox="0 0 128.16 128.16"><defs><style>.cls-1{fill:#c32a1f;}.cls-2{fill:#e5c66e;}.cls-3,.cls-6{fill:#fff;}.cls-3,.cls-5{stroke:#fff;}.cls-3{stroke-linecap:round;stroke-linejoin:round;}.cls-4,.cls-5{fill:none;}.cls-4{stroke:#000;stroke-miterlimit:10;stroke-width:6px;}.cls-5{stroke-width:3px;}</style></defs><path class="cls-1" d="M16.9,64.53A235,235,0,0,0,3.15,128.61H23.09a233.5,233.5,0,0,1,6.25-39.54S31.56,78.42,37,78.25,51.65,94.08,71.65,94.67c5.54.16,30.58-6,30.58-29.94v-.2c0-23.9-25-30.1-30.58-29.94C51.65,35.17,42.4,51.17,37,51s-7.64-10.81-7.64-10.81A233.66,233.66,0,0,1,23.09.65H3.15A235,235,0,0,0,16.9,64.73Z"/><path class="cls-2" d="M32.48,31.42c2-6,12.33-17.83,36-17.83s31,10.66,33.75,15.16,7.58,18.67,16.25,21.17,10.33,2.33,10.33,2.33v29.5s-12.16.5-19.33,11-12.67,27.34-38.83,27.34S32,105.42,30.48,100.92s.17-20.17,13.33-11.33,18.84,10.16,26,10.16S106,96.25,106,68.59s-21.83-37.5-33.83-37.5-26,10.16-30,13.5-9.17,1.66-10-4A21.49,21.49,0,0,1,32.48,31.42Z"/><path class="cls-3" d="M52,46.59s6.33-4,16.33-4a44.56,44.56,0,0,1,18,4,75.1,75.1,0,0,1-17.16,2.5A75.12,75.12,0,0,1,52,46.59Z"/><path class="cls-3" d="M45.48,59.92s7.67-4.5,22-4.67a62.09,62.09,0,0,1,24.67,4.67s-14.67,2-23,2S45.48,59.92,45.48,59.92Z"/><path class="cls-3" d="M85.65,82.87a32.88,32.88,0,0,1-16.34,4,44.56,44.56,0,0,1-18-4,75.12,75.12,0,0,1,17.17-2.5A75.12,75.12,0,0,1,85.65,82.87Z"/><path class="cls-3" d="M92.15,69.54s-7.67,4.5-22,4.66a61.93,61.93,0,0,1-24.67-4.66s14.67-2,23-2S92.15,69.54,92.15,69.54Z"/><line class="cls-4" x1="112.65" y1="64.73" x2="92.39" y2="64.73"/><polygon points="109.59 54.26 127.72 64.73 109.59 75.2 109.59 54.26"/><path class="cls-5" d="M14.34,117.09s2.93-17.8,6.12-31"/><polygon class="cls-6" points="26.49 89.78 23.09 76.75 13.51 86.21 26.49 89.78"/><path class="cls-5" d="M23.22,51.08S18.4,33.7,15.75,20.39"/><polygon class="cls-6" points="22.77 21.2 14.21 10.8 9.49 23.41 22.77 21.2"/></svg>