<?xml version="1.0" encoding="utf-8"?>
<!-- Generator: Adobe Illustrator 24.3.0, SVG Export Plug-In . SVG Version: 6.00 Build 0)  -->
<svg version="1.1" id="Layer_1" xmlns="http://www.w3.org/2000/svg" xmlns:xlink="http://www.w3.org/1999/xlink" x="0px" y="0px"
	 viewBox="0 0 128.2 128.2" style="enable-background:new 0 0 128.2 128.2;" xml:space="preserve">
<style type="text/css">
	.st0{fill:#D01614;}
	.st1{fill:url(#path3007_1_);}
</style>
<path id="path3005" class="st0" d="M42.2,71.5c-7.6-0.9-13.7-4.1-18.4-9.6S16.7,50.1,16.7,43c0-7.9,2.8-14.7,8.4-20.3
	s12.4-8.4,20.3-8.4s14.6,2.8,20.3,8.5c5.6,5.7,8.5,12.4,8.5,20.3c0,7.1-2.4,13.4-7.1,18.9c-4.8,5.5-10.9,8.7-18.5,9.6v35.3H64v6.4
	H48.6v13.9h-6.4v-13.9H26.7v-6.4h15.6L42.2,71.5z M45.5,65.4c6.1,0,11.4-2.2,15.8-6.6s6.6-9.6,6.6-15.8s-2.2-11.4-6.6-15.8
	c-4.3-4.4-9.6-6.5-15.8-6.5s-11.4,2.2-15.8,6.6s-6.5,9.6-6.5,15.8s2.2,11.4,6.5,15.8C34,63.2,39.3,65.4,45.5,65.4z"/>
<linearGradient id="path3007_1_" gradientUnits="userSpaceOnUse" x1="44.4" y1="85.6" x2="123.5844" y2="85.6" gradientTransform="matrix(1 0 0 -1 0 130)">
	<stop  offset="0" style="stop-color:#034AA6"/>
	<stop  offset="1" style="stop-color:#069ACD"/>
</linearGradient>
<path id="path3007" class="st1" d="M116.7,42.8l-7.3-1.8l2.8-20.3L95.6,37.3c4.2,5.3,6.3,11.3,6.3,18c0,7.9-2.8,14.7-8.5,20.3
	C87.8,81.2,81,84,73.2,84s-14.7-2.8-20.3-8.5s-8.5-12.4-8.5-20.3s2.8-14.6,8.5-20.2c5.6-5.6,12.4-8.4,20.3-8.4
	c6.7,0,12.7,2.1,18,6.2l16.6-16.6l-21,3l-1.1-6.9l38-7.5L116.7,42.8z M73.2,77.7c6.1,0,11.4-2.2,15.8-6.6s6.6-9.7,6.6-15.9
	S93.3,43.8,89,39.5c-4.4-4.4-9.6-6.5-15.8-6.5c-6.1,0-11.4,2.2-15.8,6.6s-6.6,9.6-6.6,15.8s2.2,11.5,6.6,15.9
	C61.8,75.5,67,77.7,73.2,77.7z"/>
</svg>
