<svg id="Layer_1" data-name="Layer 1" xmlns="http://www.w3.org/2000/svg" viewBox="0 0 128.16 128.16"><defs><style>.cls-1{fill:#00aeef;}</style></defs><path class="cls-1" d="M2.17,80.42V56.07c0-26.62,19-50.42,45.48-54.19a53.18,53.18,0,0,1,60.42,44.78,52.65,52.65,0,0,1,.58,7.63V82.53h11.7c5.12,0,6.94,2.89,6.94,5.35a7.69,7.69,0,0,1-2.23,5l-28.23,31.9a9.5,9.5,0,0,1-13.39,1.07,9,9,0,0,1-1.07-1.07L54.13,92.89a7.64,7.64,0,0,1-2.23-5c0-2.47,1.82-5.36,6.94-5.36h11V61c-1.3-36.35-62-43.75-67.57,22.4Z"/></svg>