<svg id="Layer_1" data-name="Layer 1" xmlns="http://www.w3.org/2000/svg" viewBox="0 0 128.16 128.16"><defs><style>.cls-1{fill:#6d6e70;}.cls-2,.cls-3{fill:#00aeef;}.cls-3,.cls-4{fill-rule:evenodd;}.cls-4{fill:#62bb46;}.cls-5{fill:#f18a00;}</style></defs><path class="cls-1" d="M51.65,123.75A2.68,2.68,0,0,1,49,126.42H5.49a2.66,2.66,0,0,1-2.67-2.65V80.07A2.66,2.66,0,0,1,5.49,77.4H49a2.68,2.68,0,0,1,2.65,2.67v6.46a21.83,21.83,0,0,0,1.13-2V80.07a3.8,3.8,0,0,0-3.8-3.8H5.49a3.8,3.8,0,0,0-3.84,3.78v43.7a3.82,3.82,0,0,0,3.81,3.81H49a3.81,3.81,0,0,0,3.8-3.81v-15.1c-.38.12-.76.24-1.13.34Z"/><circle class="cls-2" cx="14.75" cy="89.37" r="10.6"/><path class="cls-3" d="M41.51,83.06c1.81,0,3.76,1.45,3.76,4.65v4.14a10.94,10.94,0,0,0,3.63-2.07,13.12,13.12,0,0,0,1.39-1.4,10.6,10.6,0,0,0-21.15,1,11.08,11.08,0,0,0,.23,2.22l9.42-7.49A4.39,4.39,0,0,1,41.51,83.06Z"/><circle class="cls-2" cx="14.75" cy="114.45" r="10.6"/><path class="cls-3" d="M45.27,114.9c0,3.2-1.94,4.66-3.76,4.66a4.39,4.39,0,0,1-2.72-1l-9.14-7.32a10.6,10.6,0,1,0,19.51-1.65,33.88,33.88,0,0,1-3.88.56Z"/><path class="cls-4" d="M84.65,89.78a10.84,10.84,0,0,0,3.63,2.07V87.71c0-3.2,2-4.65,3.76-4.65a4.32,4.32,0,0,1,2.72,1l5.56,4.42a10.59,10.59,0,0,0-19.76-4.4A16.52,16.52,0,0,0,84.65,89.78Z"/><path class="cls-4" d="M114.71,78.77a10.6,10.6,0,0,0-10.59,10.6,10,10,0,0,0,.29,2.43l7,5.57a5.15,5.15,0,0,1,1.73,2.47,11.73,11.73,0,0,0,1.57.13,10.6,10.6,0,1,0,0-21.2Z"/><path class="cls-4" d="M92,119.56a3.52,3.52,0,0,1-3-1.72,5.42,5.42,0,0,1-.74-2.94v-4.75a33.38,33.38,0,0,1-7.41-1.5,10.6,10.6,0,1,0,19.47,5.79v-.37l-5.58,4.44A4.38,4.38,0,0,1,92,119.56Z"/><path class="cls-4" d="M114.71,103.85a10.34,10.34,0,0,0-2.22.24,6.25,6.25,0,0,1-1.08,1.16l-6.49,5.16a10.39,10.39,0,0,0-.8,4,10.6,10.6,0,1,0,10.6-10.6h0Z"/><path class="cls-1" d="M124,76.27H80.46a3.77,3.77,0,0,0-2.2.71c.09.42.18.84.28,1.25a2.63,2.63,0,0,1,1.92-.83H124a2.67,2.67,0,0,1,2.68,2.66h0v43.68a2.67,2.67,0,0,1-2.65,2.67H80.46a2.67,2.67,0,0,1-2.67-2.67V107.51c-.37-.17-.75-.34-1.13-.53v16.77a3.81,3.81,0,0,0,3.8,3.81H124a3.83,3.83,0,0,0,3.81-3.81V80.07A3.81,3.81,0,0,0,124,76.27Z"/><path class="cls-1" d="M123.17,1.9H6.29A4.62,4.62,0,0,0,1.65,6.5h0V61.12a4.62,4.62,0,0,0,4.61,4.61h50V64.65h-50a3.48,3.48,0,0,1-3.47-3.48V6.51A3.48,3.48,0,0,1,6.28,3H123.17a3.48,3.48,0,0,1,3.48,3.47V61.12a3.48,3.48,0,0,1-3.43,3.53h-46v1.13h45.92a4.63,4.63,0,0,0,4.61-4.61V6.51A4.62,4.62,0,0,0,123.17,1.9Z"/><path class="cls-3" d="M17.87,31.39A13.25,13.25,0,1,0,4.65,18.11v0A13.25,13.25,0,0,0,17.87,31.39Z"/><path class="cls-3" d="M49.11,31.39A13.25,13.25,0,1,0,35.86,18.14,13.25,13.25,0,0,0,49.11,31.39Z"/><path class="cls-3" d="M17.87,62.74A13.25,13.25,0,1,0,4.65,49.46v0A13.25,13.25,0,0,0,17.87,62.74Z"/><path class="cls-3" d="M49.11,62.74A13.25,13.25,0,1,0,35.86,49.49,13.25,13.25,0,0,0,49.11,62.74Z"/><path class="cls-4" d="M80.35,31.39A13.25,13.25,0,1,0,67.1,18.14,13.25,13.25,0,0,0,80.35,31.39Z"/><path class="cls-4" d="M111.59,31.39A13.25,13.25,0,1,0,98.34,18.14,13.25,13.25,0,0,0,111.59,31.39Z"/><path class="cls-4" d="M80.35,62.74A13.25,13.25,0,1,0,67.1,49.49,13.25,13.25,0,0,0,80.35,62.74Z"/><path class="cls-4" d="M111.59,62.74A13.25,13.25,0,1,0,98.34,49.49,13.25,13.25,0,0,0,111.59,62.74Z"/><path class="cls-5" d="M58.65,64.7v-2H74.87v3.84c.13,11.81,3,20.6,8.21,25.06a12.17,12.17,0,0,0,7.57,3.05v-7c0-2.09,1.17-2.87,2.6-1.74l16.69,13.27a2.52,2.52,0,0,1,.62,3.51,2.61,2.61,0,0,1-.62.62L93.23,116.65c-1.43,1.14-2.6.35-2.6-1.74v-7a30.3,30.3,0,0,1-19.27-7.16,31,31,0,0,1-4.61-5.1,30.67,30.67,0,0,1-4.6,5.06,30.3,30.3,0,0,1-19.27,7.16v7c0,2.1-1.17,2.88-2.6,1.74L23.59,103.37A2.54,2.54,0,0,1,23,99.84a2.48,2.48,0,0,1,.61-.6L40.28,86c1.43-1.13,2.6-.35,2.6,1.74v7a12.2,12.2,0,0,0,7.57-3.06c5.2-4.51,8.08-13.3,8.2-25.11Z"/></svg>