<svg id="Layer_1" data-name="Layer 1" xmlns="http://www.w3.org/2000/svg" viewBox="0 0 128.16 128.16"><defs><style>.cls-1{fill:#00aeef;}.cls-2{fill:#fff;}</style></defs><title>Help</title><circle class="cls-1" cx="64.08" cy="64.08" r="62.66"/><path class="cls-2" d="M72.65,79.41H52.24v-2a25.2,25.2,0,0,1,1.18-8.46A18.79,18.79,0,0,1,56.94,63a106.29,106.29,0,0,1,10.5-9.45c2.9-2.37,4.35-4.53,4.35-6.5A6,6,0,0,0,70,42.43c-1.16-1.09-2.93-1.63-5.29-1.63a8.51,8.51,0,0,0-6.31,2.52q-2.5,2.52-3.2,8.81L34.4,49.55q1.08-11.49,8.36-18.5t22.31-7Q76.79,24,84,28.93q9.78,6.6,9.78,17.61a17,17,0,0,1-2.53,8.81Q88.71,59.6,80.92,65.72q-5.43,4.29-6.85,6.9A14.12,14.12,0,0,0,72.65,79.41ZM51.54,84.84H73.4v19.28H51.54Z"/></svg>