<svg id="Layer_1" data-name="Layer 1" xmlns="http://www.w3.org/2000/svg" viewBox="0 0 128.16 128.16"><defs><style>.cls-1{fill:#00aeef;}.cls-2{fill:#fff;}</style></defs><circle class="cls-1" cx="64.73" cy="64.73" r="62.66"/><path class="cls-2" d="M73.29,80.06H52.88V78a25.17,25.17,0,0,1,1.19-8.46,18.76,18.76,0,0,1,3.51-5.93,109.85,109.85,0,0,1,10.5-9.46q4.36-3.54,4.36-6.5a6,6,0,0,0-1.75-4.59,7.5,7.5,0,0,0-5.29-1.64A8.52,8.52,0,0,0,59.09,44q-2.51,2.52-3.2,8.81L35.05,50.2q1.08-11.49,8.36-18.5t22.31-7q11.72,0,18.91,4.88,9.77,6.61,9.77,17.62A17,17,0,0,1,91.88,56q-2.52,4.24-10.31,10.37-5.43,4.29-6.85,6.9A14.08,14.08,0,0,0,73.29,80.06Zm-21.1,5.43H74.05v19.28H52.19Z"/></svg>