<svg id="Layer_1" data-name="Layer 1" xmlns="http://www.w3.org/2000/svg" xmlns:xlink="http://www.w3.org/1999/xlink" viewBox="0 0 128.16 128.16"><defs><style>.cls-1,.cls-12,.cls-8,.cls-9{fill:none;}.cls-2{clip-path:url(#clip-path);}.cls-3{fill:#e6e7e8;}.cls-4{fill:#62bb46;}.cls-5{fill:#b1d89b;}.cls-6{fill:#00aeef;}.cls-7{fill:#6dcff6;}.cls-12,.cls-8{stroke:#fff;}.cls-12,.cls-8,.cls-9{stroke-miterlimit:10;}.cls-8{stroke-width:5.63px;}.cls-9{stroke:#6d6e70;stroke-width:1.28px;}.cls-10{fill:#f18a00;}.cls-11{fill:#fff;}.cls-12{stroke-width:6.15px;}</style><clipPath id="clip-path"><path class="cls-1" d="M117.86,126H11.6a8,8,0,0,1-8-8V11.44a8,8,0,0,1,8-8H117.86a8,8,0,0,1,8,8V118.1A8,8,0,0,1,117.86,126Z"/></clipPath></defs><g id="Simulation"><g id="Simulation-2"><g id="Simulation-3"><g class="cls-2"><path class="cls-3" d="M19.5,42c-.32-.4,0-1.36,0-1.36C24.45,27,30,16.27,36.39,10.24A18.68,18.68,0,0,1,52,4.09V.1l-56.44,4v7.47L19,41.46"/><path class="cls-4" d="M60.22,76.38A254.27,254.27,0,0,1,28.28,53.47c-4.67-5.39-9.7-10.86-9.74-10.7A482.2,482.2,0,0,0,3.7,100.45V118.1a8,8,0,0,0,8,8H117.86a8,8,0,0,0,8-8V91.23C109.75,90.23,71.79,83,60.22,76.38Z"/><path class="cls-5" d="M-8.76,115.66V7.25A6.51,6.51,0,0,1,.36,8.52,6.59,6.59,0,0,1,1.5,11c2.67,8.5,18.2,30.5,18.2,30.5a453.35,453.35,0,0,0-15.61,59V118.1Z"/><path class="cls-6" d="M48.4,4.89C55.63,6,61.81,14.23,64.73,19.38c.84,1.48,3.35,5.63,4,7.19a66.67,66.67,0,0,0,20.8,23.11,103.06,103.06,0,0,0,35.92,15.61V11.44a8,8,0,0,0-8-8H50.88"/><path class="cls-7" d="M125.76,90.39v-25A114.41,114.41,0,0,1,88.48,48.28,128.72,128.72,0,0,1,64,19.38C61.06,14.11,56.51,7,49.4,5.89c-5.15-.76-7.3.64-12.37,5.51C30.64,17.51,25.45,28.32,20.46,42v1.87a103.16,103.16,0,0,0,20,20.56c29.82,22.43,59,23.71,76.8,25.63l8.18.83Z"/><path class="cls-8" d="M1.5,124.08c7-38,17.4-93.76,36.12-111.76,11.46-11.18,18.61-2.08,24.79,6.1,4,5.27,9.06,14.18,17.53,25,16.92,21.64,59.15,24,59.15,24"/><path class="cls-8" d="M-.78,6.29S13.48,43.85,40.78,64.45c29.82,22.43,59,23.71,76.8,25.63s14,.91,14,.91"/></g></g><path class="cls-9" d="M117.86,126H11.6a8,8,0,0,1-8-8V11.44a8,8,0,0,1,8-8H117.86a8,8,0,0,1,8,8V118.1A8,8,0,0,1,117.86,126Z"/></g></g><circle class="cls-10" cx="89.76" cy="90.15" r="35.92"/><path class="cls-11" d="M89.76,128.25a38.11,38.11,0,1,1,38.1-38.1h0A38.1,38.1,0,0,1,89.76,128.25Zm0-71.8A33.74,33.74,0,1,0,123.5,90.19v0A33.74,33.74,0,0,0,89.76,56.45Z"/><polyline class="cls-12" points="59.34 107.98 65.53 107.98 65.53 90.15 74.35 90.15 74.35 107.98 83.13 107.98 83.13 81.25 92.23 81.25 92.23 107.98 101.13 107.98 101.13 72.35 110.11 72.35 110.11 107.98 119.86 107.98"/></svg>