<svg id="Layer_1" data-name="Layer 1" xmlns="http://www.w3.org/2000/svg" viewBox="0 0 128.16 128.16"><defs><style>.cls-1{fill:#00aeef;}.cls-2{fill:#f18a00;}.cls-3{fill:#fff;}</style></defs><g id="Show_Hide_Ribbon" data-name="Show Hide Ribbon"><path class="cls-1" d="M31.62,29.17H23.17V20.64h8.45Zm71.77,0H37.21V20.64h66.18ZM31.62,53.91H23.17V45.46h8.45Zm0,24.78H23.17V70.28h8.45Zm0,24.82H23.17V95.06h8.45Zm71.77-49.6H37.21V45.46h66.18Zm0,24.78H37.21V70.28h66.18Zm0,24.82H37.21V95.06h66.18ZM12.07,8.41V121.05a7.4,7.4,0,0,0,7.4,7.4H110a7.41,7.41,0,0,0,7.41-7.4h0V8.41A7.4,7.4,0,0,0,110,1H19.47a7.4,7.4,0,0,0-7.4,7.4Z"/></g><circle class="cls-2" cx="89.96" cy="89.3" r="36.28"/><path class="cls-3" d="M90,50.82A38.49,38.49,0,1,1,51.48,89.3h0A38.48,38.48,0,0,1,90,50.82Zm0,72.52A34.08,34.08,0,1,0,55.89,89.26v0A34.07,34.07,0,0,0,90,123.34Z"/><path class="cls-3" d="M70.06,93.67h8.5v13.9A3.44,3.44,0,0,0,82,111H98.26a3.44,3.44,0,0,0,3.43-3.43V93.67h8.54c1.47,0,2-.81,2-1.55a2.9,2.9,0,0,0-.78-1.75l-19-21.58a3.14,3.14,0,0,0-2.36-1.14,3,3,0,0,0-2.37,1.14L68.84,90.37a2.72,2.72,0,0,0-.74,1.75C68.1,92.86,68.59,93.67,70.06,93.67Z"/></svg>