<svg id="Layer_1" data-name="Layer 1" xmlns="http://www.w3.org/2000/svg" viewBox="0 0 128.16 128.16"><defs><style>.cls-1{fill:#f18a00;}.cls-2{fill:#62bb46;}</style></defs><path class="cls-1" d="M117.31,119.27a9.21,9.21,0,0,1-9.19,9.21H21.35a9.2,9.2,0,0,1-9.2-9.2h0v-23a9.19,9.19,0,0,1,9.19-9.21h86.77a9.2,9.2,0,0,1,9.2,9.2h0Zm-92.78,3.07h6.39L33.17,116H43.9l2.17,6.39h6.58L41.89,93.65H35.42Zm14-21.62h.12l3.6,10.53H34.82Zm19.4,21.62H78.25V117h-14V93.65H58Zm26.67,0h20.3V117h-14V93.65H84.65Z"/><path class="cls-2" d="M101.91,32.44H86.14V7A6.38,6.38,0,0,0,79.76.65H49.71A6.37,6.37,0,0,0,43.33,7V32.44H27.55c-2.64,0-3.64,1.48-3.64,2.87a5,5,0,0,0,1.43,3.22l35,40.27a5.56,5.56,0,0,0,.84.84,5.64,5.64,0,0,0,7.92-.84l35-40.27a5,5,0,0,0,1.45-3.22C105.55,33.92,104.59,32.44,101.91,32.44Z"/></svg>