<svg id="Layer_1" data-name="Layer 1" xmlns="http://www.w3.org/2000/svg" viewBox="0 0 128.16 128.16"><defs><style>.cls-1{fill:#f18a00;}.cls-2{fill:#fff;}</style></defs><circle class="cls-1" cx="64.73" cy="64.73" r="59.39"/><path class="cls-2" d="M64.73,127.73a63,63,0,1,1,63-63A63,63,0,0,1,64.73,127.73ZM64.73,9A55.78,55.78,0,1,0,120.5,64.76v0A55.84,55.84,0,0,0,64.73,9Z"/><path class="cls-2" d="M64.61,45.66V32.55a5.15,5.15,0,0,0-8.76-3.63L27.75,56.65a5.73,5.73,0,0,0-.08,8.11l.08.09,28.1,27.71a5.14,5.14,0,0,0,7.26,0,5,5,0,0,0,1.5-3.62V76.18c14.08.36,29.49,2.9,41,20.44V91.5A46.15,46.15,0,0,0,64.61,45.66Z"/></svg>