<svg id="Layer_1" data-name="Layer 1" xmlns="http://www.w3.org/2000/svg" viewBox="0 0 128.16 128.16"><defs><style>.cls-1{fill:#00aeef;}.cls-2{fill:#f18a00;}.cls-3{fill:#fff;}</style></defs><rect class="cls-1" x="47.97" y="50.6" width="76.99" height="76.99" rx="7.85"/><path class="cls-2" d="M45.79,127.9a12.92,12.92,0,0,1-2.9-8.16V58.45a13,13,0,0,1,.54-3.72H12.16A7.66,7.66,0,0,0,4.5,62.39v57.92A7.67,7.67,0,0,0,12.16,128H44.4Z"/><path class="cls-1" d="M86.46,1.49a20,20,0,1,0,20,20,20,20,0,0,0-20-20Z"/><path class="cls-2" d="M41.12,8.32A19.15,19.15,0,1,0,60.27,27.47h0A19.17,19.17,0,0,0,41.12,8.32Z"/><circle class="cls-2" cx="91.14" cy="91.14" r="35.51"/><path class="cls-3" d="M91.14,128.81a37.67,37.67,0,1,1,37.67-37.67A37.67,37.67,0,0,1,91.14,128.81Zm0-71a33.35,33.35,0,1,0,33.35,33.35h0A33.38,33.38,0,0,0,91.14,57.79Z"/><path class="cls-3" d="M110.65,86.69h-8.34V73.25a3.38,3.38,0,0,0-3.38-3.38H83a3.38,3.38,0,0,0-3.38,3.38V86.69H71.31c-1.42,0-1.93.79-1.93,1.52a2.65,2.65,0,0,0,.77,1.71l18.51,21.3a2.78,2.78,0,0,0,.42.42,3,3,0,0,0,4.22-.42l18.51-21.3a2.7,2.7,0,0,0,.77-1.71C112.58,87.48,112.07,86.69,110.65,86.69Z"/></svg>