<svg id="Layer_1" data-name="Layer 1" xmlns="http://www.w3.org/2000/svg" xmlns:xlink="http://www.w3.org/1999/xlink" viewBox="0 0 128.16 128.16"><defs><style>.cls-1,.cls-7{fill:#fcc900;}.cls-2{opacity:0.8;fill:url(#linear-gradient);}.cls-3,.cls-5{fill:#fff;}.cls-4{fill:none;}.cls-4,.cls-5{stroke:#fff;stroke-miterlimit:10;stroke-width:5.98px;}.cls-6{fill:#00aeef;}.cls-7{stroke:gray;stroke-linecap:square;stroke-linejoin:bevel;stroke-width:1.62px;opacity:0.34;}</style><linearGradient id="linear-gradient" x1="17.45" y1="57.8" x2="111.11" y2="57.8" gradientUnits="userSpaceOnUse"><stop offset="0.54" stop-color="#fff"/><stop offset="1" stop-color="#fff" stop-opacity="0"/></linearGradient></defs><polygon class="cls-1" points="17.45 1.73 100.93 5.97 100.93 113.88 17.45 94.74 17.45 1.73"/><polygon class="cls-1" points="100.93 69.87 111.11 71.64 111.11 109.75 100.93 107.98 100.93 69.87"/><path class="cls-2" d="M17.45,1.73,100.93,6V113.88L17.45,94.74ZM100.93,108l10.18,1.78V71.64l-10.18-1.77Z"/><path class="cls-3" d="M112,107.69a7.49,7.49,0,0,1-8,7.54l-46.95-2.46a8.5,8.5,0,0,1-8-8.37V57.47a7.49,7.49,0,0,1,8-7.54l47,2.46a8.51,8.51,0,0,1,8,8.37Z"/><path class="cls-4" d="M112,107.69a7.49,7.49,0,0,1-8,7.54l-46.95-2.46a8.5,8.5,0,0,1-8-8.37V57.47a7.49,7.49,0,0,1,8-7.54l47,2.46a8.51,8.51,0,0,1,8,8.37Z"/><path class="cls-5" d="M97.85,31.73A16.22,16.22,0,0,1,80.59,48.09h0A18.41,18.41,0,0,1,63.32,29.92h0A16.22,16.22,0,0,1,80.59,13.56h0A18.41,18.41,0,0,1,97.85,31.73Z"/><path class="cls-6" d="M112,107.69a7.49,7.49,0,0,1-8,7.54l-46.95-2.46a8.5,8.5,0,0,1-8-8.37V57.47a7.49,7.49,0,0,1,8-7.54l47,2.46a8.51,8.51,0,0,1,8,8.37Z"/><path class="cls-6" d="M97.85,31.73A16.22,16.22,0,0,1,80.59,48.09h0A18.41,18.41,0,0,1,63.32,29.92h0A16.22,16.22,0,0,1,80.59,13.56h0A18.41,18.41,0,0,1,97.85,31.73Z"/><polygon class="cls-1" points="17.45 1.73 47.64 21.56 47.64 119.2 47.64 127.73 17.45 99.36 17.45 1.73"/><polyline class="cls-7" points="18.9 2.68 47.64 21.56 47.64 119.2 47.64 127.73 18.36 100.4"/></svg>