<svg id="Layer_1" data-name="Layer 1" xmlns="http://www.w3.org/2000/svg" xmlns:xlink="http://www.w3.org/1999/xlink" viewBox="0 0 31.68 31.68"><defs><style>.cls-1,.cls-7{fill:#fcc900;}.cls-2{opacity:0.8;fill:url(#linear-gradient);}.cls-3,.cls-5{fill:#fff;}.cls-4{fill:none;}.cls-4,.cls-5{stroke:#fff;stroke-miterlimit:10;stroke-width:1.5px;}.cls-6{fill:#00aeef;}.cls-7{stroke:gray;stroke-linecap:square;stroke-linejoin:bevel;stroke-width:0.41px;opacity:0.34;}</style><linearGradient id="linear-gradient" y1="14.14" x2="23.5" y2="14.14" gradientUnits="userSpaceOnUse"><stop offset="0.54" stop-color="#fff"/><stop offset="1" stop-color="#fff" stop-opacity="0"/></linearGradient></defs><polygon class="cls-1" points="0 0.07 20.95 1.13 20.95 28.21 0 23.4 0 0.07"/><polygon class="cls-1" points="20.95 17.16 23.5 17.61 23.5 27.17 20.95 26.73 20.95 17.16"/><path class="cls-2" d="M0,.07,21,1.13V28.21L0,23.4ZM21,26.73l2.55.44V17.61L21,17.16Z"/><path class="cls-3" d="M23.72,26.65a1.87,1.87,0,0,1-2,1.89L10,27.93a2.13,2.13,0,0,1-2-2.1V14.05a1.88,1.88,0,0,1,2-1.89l11.78.62a2.13,2.13,0,0,1,2,2.1Z"/><path class="cls-4" d="M23.72,26.65a1.87,1.87,0,0,1-2,1.89L10,27.93a2.13,2.13,0,0,1-2-2.1V14.05a1.88,1.88,0,0,1,2-1.89l11.78.62a2.13,2.13,0,0,1,2,2.1Z"/><path class="cls-5" d="M20.17,7.6a4.07,4.07,0,0,1-4.33,4.1h0a4.62,4.62,0,0,1-4.33-4.56h0A4.06,4.06,0,0,1,15.84,3h0A4.61,4.61,0,0,1,20.17,7.6Z"/><path class="cls-6" d="M23.72,26.65a1.87,1.87,0,0,1-2,1.89L10,27.93a2.13,2.13,0,0,1-2-2.1V14.05a1.88,1.88,0,0,1,2-1.89l11.78.62a2.13,2.13,0,0,1,2,2.1Z"/><path class="cls-6" d="M20.17,7.6a4.07,4.07,0,0,1-4.33,4.1h0a4.62,4.62,0,0,1-4.33-4.56h0A4.06,4.06,0,0,1,15.84,3h0A4.61,4.61,0,0,1,20.17,7.6Z"/><polygon class="cls-1" points="0 0.07 7.57 5.04 7.57 29.54 7.57 31.68 0 24.56 0 0.07"/><polyline class="cls-7" points="0.36 0.31 7.57 5.04 7.57 29.54 7.57 31.68 0.23 24.82"/></svg>