<svg id="Layer_1" data-name="Layer 1" xmlns="http://www.w3.org/2000/svg" viewBox="0 0 128.16 128.16"><defs><style>.cls-1{fill:#00aeef;}.cls-2{fill:#62bb46;opacity:0.9;isolation:isolate;}.cls-3{fill:#fff;}</style></defs><g id="Create_Ribbon" data-name="Create Ribbon"><g id="Individual"><rect class="cls-1" x="25.31" y="48.89" width="78.84" height="78.84" rx="9.96"/><path class="cls-1" d="M86.35,23.37A21.68,21.68,0,0,1,64.71,45.05h0A21.68,21.68,0,0,1,43.07,23.37h0A21.64,21.64,0,0,1,64.71,1.73h0A21.64,21.64,0,0,1,86.35,23.37Z"/></g></g><circle class="cls-2" cx="27.15" cy="102.31" r="26.5"/><path class="cls-3" d="M45,96.22a4.09,4.09,0,0,0-5.78-5.78L22.5,107.18l-7.32-7.32a4.09,4.09,0,0,0-5.77,5.79h0l11.17,11.18a2.69,2.69,0,0,0,3.8,0h0L45,96.23Z"/></svg>