<?xml version="1.0" encoding="utf-8"?>
<!-- Generator: Adobe Illustrator 24.3.0, SVG Export Plug-In . SVG Version: 6.00 Build 0)  -->
<svg version="1.1" id="Layer_1" xmlns="http://www.w3.org/2000/svg" xmlns:xlink="http://www.w3.org/1999/xlink" x="0px" y="0px"
	 viewBox="0 0 128.2 128.2" style="enable-background:new 0 0 128.2 128.2;" xml:space="preserve">
<style type="text/css">
	.st0{fill:#00AEEF;}
	.st1{fill:#62BB46;}
</style>
<g>
	<g>
		<circle class="st0" cx="23.3" cy="23.7" r="22.8"/>
		<circle class="st1" cx="104.8" cy="23.7" r="22.8"/>
		<polygon points="75.5,22.7 50.4,37 57.4,23.3 50.4,9.6 		"/>
		<g>
			<path d="M50.9,62.8l13.2-14.5l12.7,14.5c0.4,0.5,0.9,0.7,1.5,0.7c0.5,0,0.9-0.2,1.3-0.5c0.8-0.7,0.9-2,0.2-2.8L65.7,44
				c-0.4-0.4-0.9-0.7-1.5-0.7s-1.1,0.2-1.5,0.7L48,60.2c-0.7,0.8-0.7,2.1,0.1,2.8C48.9,63.7,50.2,63.7,50.9,62.8z"/>
			<path d="M89.8,73.4H66.2V60.8l7.1,8.1c0.4,0.5,0.9,0.7,1.5,0.7c0.5,0,0.9-0.2,1.3-0.5c0.8-0.7,0.9-2,0.2-2.8L65.7,54.2
				c-0.4-0.4-0.9-0.7-1.5-0.7s-1.1,0.2-1.5,0.7l-11,12.2c-0.7,0.8-0.7,2.1,0.1,2.8c0.8,0.7,2.1,0.7,2.8-0.1l7.6-8.3v12.7H37.9
				c-0.6,0-1,0.4-1,1v51.9c0,0.6,0.4,1,1,1h51.9c0.6,0,1-0.4,1-1v-52C90.8,73.9,90.3,73.4,89.8,73.4z M88.8,125.3H38.9V75.4h49.9
				V125.3z"/>
		</g>
	</g>
</g>
</svg>
