<svg id="Layer_1" data-name="Layer 1" xmlns="http://www.w3.org/2000/svg" viewBox="0 0 128.16 128.16"><defs><style>.cls-1{fill:gray;}.cls-2{fill:#00aeef;}.cls-3{fill:#f18a00;}</style></defs><polygon class="cls-1" points="111.33 78.6 128.94 78.6 128.94 50.85 111.54 50.85 107.47 65.22 111.33 78.6"/><polygon class="cls-1" points="0.65 78.6 18.39 78.6 22.25 65.22 18.18 50.85 0.65 50.85 0.65 78.6"/><path class="cls-2" d="M8.38,16.28l9.8,34.57,4.07,14.37L18.39,78.6l-10,34.55a4.08,4.08,0,0,0,2.48,5.2,4,4,0,0,0,1.36.24H39.34V10.87H12.23A4.07,4.07,0,0,0,8.16,15,4,4,0,0,0,8.38,16.28Z"/><path class="cls-2" d="M117.45,118.59a4.09,4.09,0,0,0,3.84-5.44l-10-34.55-3.86-13.38,4.07-14.37,9.8-34.57a4.09,4.09,0,0,0-2.53-5.19,3.93,3.93,0,0,0-1.32-.22H90.38V118.59Z"/><polygon class="cls-3" points="40.93 68.14 64.86 109.59 88.79 68.14 68.86 68.14 68.86 19.87 60.86 19.87 60.86 68.14 40.93 68.14"/></svg>