<?xml version="1.0" encoding="UTF-8"?><svg id="Layer_1" xmlns="http://www.w3.org/2000/svg" xmlns:xlink="http://www.w3.org/1999/xlink" viewBox="0 0 128.16 128.16"><defs><style>.cls-1{stroke-width:5.98px;}.cls-1,.cls-2,.cls-3,.cls-4{stroke-miterlimit:10;}.cls-1,.cls-3{stroke:#fff;}.cls-1,.cls-5{fill:none;}.cls-2{stroke:#000;stroke-width:1.82px;}.cls-6,.cls-7,.cls-3{fill:#fff;}.cls-6,.cls-8{opacity:.85;}.cls-9{fill:url(#linear-gradient);opacity:.8;}.cls-3{stroke-width:5.98px;}.cls-4{fill:#f18a00;stroke:#f18a00;stroke-width:1.82px;}.cls-8{fill:#62bb46;}.cls-10,.cls-11{fill:#fcc900;}.cls-11{opacity:.34;stroke-linecap:square;stroke-linejoin:bevel;stroke-width:1.62px;}.cls-11,.cls-5{stroke:gray;}.cls-5{stroke-linecap:round;stroke-linejoin:round;stroke-width:4.78px;}</style><linearGradient id="linear-gradient" x1="8.51" y1="57.16" x2="102.17" y2="57.16" gradientUnits="userSpaceOnUse"><stop offset=".54" stop-color="#fff"/><stop offset="1" stop-color="#fff" stop-opacity="0"/></linearGradient></defs><polygon class="cls-10" points="8.51 1.08 91.99 5.33 91.99 113.23 8.51 94.09 8.51 1.08"/><polygon class="cls-10" points="91.99 69.22 102.17 70.99 102.17 109.11 91.99 107.34 91.99 69.22"/><path class="cls-9" d="M8.51,1.08l83.48,4.25v107.91L8.51,94.09V1.08ZM91.99,107.34l10.18,1.77v-38.11l-10.18-1.77v38.11Z"/><path class="cls-1" d="M67.86,22.62c0-1.74.23-3.12.7-4.15.46-1.03,1.15-1.81,2.07-2.34.92-.53,2.07-.75,3.46-.68,1.02.05,1.92.26,2.69.62.77.36,1.41.85,1.91,1.47s.9,1.37,1.19,2.24c.28.87.43,2.04.43,3.49,0,1.72-.23,3.1-.69,4.13-.46,1.03-1.15,1.81-2.06,2.34-.92.53-2.07.76-3.47.68-1.84-.1-3.28-.68-4.34-1.75-1.26-1.29-1.89-3.31-1.89-6.06ZM70.27,22.75c0,2.41.37,4.03,1.1,4.87.73.84,1.64,1.28,2.71,1.34s1.98-.3,2.71-1.06c.73-.76,1.1-2.35,1.1-4.75s-.37-4.04-1.1-4.87c-.73-.83-1.65-1.28-2.74-1.34s-1.93.25-2.58.92c-.81.85-1.21,2.48-1.21,4.89Z"/><path class="cls-1" d="M86.02,30.81v-14.68l2.52.13v6.03l9.92.52v-6.03l2.52.13v14.68l-2.52-.13v-6.92l-9.92-.52v6.92l-2.52-.13Z"/><path class="cls-1" d="M23.94,20.32c0-1.74.23-3.12.7-4.15.46-1.03,1.15-1.81,2.07-2.34.92-.53,2.07-.75,3.46-.68,1.02.05,1.92.26,2.69.62.77.36,1.41.85,1.91,1.47s.9,1.37,1.19,2.24c.28.87.43,2.04.43,3.49,0,1.72-.23,3.1-.69,4.13-.46,1.03-1.15,1.81-2.06,2.34-.92.53-2.07.76-3.47.68-1.84-.1-3.28-.68-4.34-1.75-1.26-1.29-1.89-3.31-1.89-6.06ZM26.34,20.45c0,2.41.37,4.03,1.1,4.87.73.84,1.64,1.28,2.71,1.34s1.98-.3,2.71-1.06c.73-.76,1.1-2.35,1.1-4.75s-.37-4.04-1.1-4.87-1.65-1.28-2.74-1.34c-1.08-.06-1.93.25-2.58.92-.81.85-1.21,2.48-1.21,4.89Z"/><path class="cls-1" d="M82.44,47.39c0-1.74.23-3.12.7-4.15.46-1.03,1.15-1.81,2.07-2.34.92-.53,2.07-.75,3.46-.68,1.02.05,1.92.26,2.69.62.77.36,1.41.85,1.91,1.47.5.62.9,1.37,1.19,2.24.28.87.43,2.04.43,3.49,0,1.72-.23,3.1-.69,4.13-.46,1.03-1.15,1.81-2.06,2.34-.92.53-2.07.76-3.47.68-1.84-.1-3.28-.68-4.34-1.75-1.26-1.29-1.89-3.31-1.89-6.06ZM84.84,47.51c0,2.41.37,4.03,1.1,4.87.73.84,1.64,1.28,2.71,1.34s1.98-.3,2.71-1.06c.73-.76,1.1-2.35,1.1-4.75s-.37-4.04-1.1-4.87c-.73-.83-1.65-1.28-2.74-1.34s-1.93.25-2.58.92c-.81.85-1.21,2.48-1.21,4.89Z"/><path class="cls-1" d="M99.7,108.22c0-1.74.23-3.12.7-4.15.46-1.03,1.15-1.81,2.07-2.34.92-.53,2.07-.75,3.46-.68,1.02.05,1.92.26,2.69.62.77.36,1.41.85,1.91,1.47.5.62.9,1.37,1.19,2.24.28.87.43,2.04.43,3.49,0,1.72-.23,3.1-.69,4.13-.46,1.03-1.15,1.81-2.06,2.34-.92.53-2.07.76-3.47.68-1.84-.1-3.28-.68-4.34-1.75-1.26-1.29-1.89-3.31-1.89-6.06ZM102.11,108.35c0,2.41.37,4.03,1.1,4.87.73.84,1.64,1.28,2.71,1.34s1.98-.3,2.71-1.06c.73-.76,1.1-2.35,1.1-4.75s-.37-4.04-1.1-4.87c-.73-.83-1.65-1.28-2.74-1.34s-1.93.25-2.58.92c-.81.85-1.21,2.48-1.21,4.89Z"/><path class="cls-3" d="M51.04,64.54c-1.65,0-2.99-1.34-2.99-2.99v-17.27l-11.59-11.82c-1.15-1.18-1.13-3.07.04-4.23,1.18-1.15,3.07-1.14,4.23.04l12.25,12.5c.26.27.47.59.62.93l.19.46c.16.37.23.76.23,1.16v18.22c0,1.65-1.34,2.99-2.99,2.99Z"/><path class="cls-3" d="M38.45,50.36c-.77,0-1.54-.3-2.13-.89l-7.29-7.36c-1.16-1.17-1.15-3.07.02-4.23,1.18-1.17,3.07-1.15,4.23.02l7.29,7.36c1.16,1.17,1.15,3.07-.02,4.23-.58.58-1.35.87-2.11.87Z"/><path class="cls-3" d="M51.04,46.31c-.4,0-.81-.08-1.21-.25-1.51-.67-2.2-2.43-1.53-3.94l.19-.44c.17-.38.41-.72.72-1l12.24-11.21c1.23-1.11,3.12-1.03,4.22.18,1.12,1.22,1.04,3.11-.18,4.23l-11.79,10.8c-.52,1.03-1.57,1.64-2.67,1.64Z"/><path class="cls-3" d="M70.81,96.19c-1.65,0-2.99-1.34-2.99-2.99v-18.99c0-.41.08-.81.25-1.19l.19-.44c.17-.39.41-.73.72-1.02l12.25-11.22c1.22-1.12,3.12-1.03,4.22.19,1.12,1.22,1.04,3.11-.18,4.22l-11.47,10.5v17.94c0,1.65-1.34,2.99-2.99,2.99Z"/><path class="cls-3" d="M105.99,98.04c-1.65,0-2.99-1.34-2.99-2.99v-18.99c0-.41.09-.83.25-1.2l.19-.44c.17-.38.41-.72.72-1l12.24-11.21c1.22-1.11,3.11-1.03,4.22.18,1.12,1.22,1.04,3.11-.18,4.23l-11.47,10.5v17.93c0,1.65-1.34,2.99-2.99,2.99Z"/><path class="cls-3" d="M105.99,98.04c-1.65,0-2.99-1.34-2.99-2.99v-18.03l-11.59-11.83c-1.15-1.18-1.13-3.07.05-4.23,1.18-1.15,3.07-1.13,4.23.04l12.25,12.5c.26.27.47.58.62.93l.19.46c.15.37.23.76.23,1.16v18.99c0,1.65-1.34,2.99-2.99,2.99Z"/><path class="cls-3" d="M92.51,96.17c-1.65,0-2.99-1.34-2.99-2.99v-12.22c0-1.65,1.34-2.99,2.99-2.99s2.99,1.34,2.99,2.99v12.22c0,1.65-1.34,2.99-2.99,2.99Z"/><path class="cls-3" d="M51.04,106.49c-.55,0-1.1-.15-1.58-.45l-19.57-12.2c-.12-.08-.24-.16-.35-.25-.67-.57-1.25-1.56-1.25-2.44v-19.28c0-.91.42-1.77,1.13-2.34.15-.12.5-.38.67-.47l19.57-10.16c.93-.49,2.06-.45,2.96.12l19.57,12.21c.14.09.27.18.39.29.65.57,1.21,1.56,1.21,2.42v19.28c0,.96-.46,1.86-1.24,2.43-.12.08-.44.3-.56.37l-19.57,10.16c-.43.23-.91.34-1.38.34ZM34.27,89.51l16.91,10.55,16.64-8.63v-15.89l-16.91-10.55-16.64,8.63v15.89Z"/><path class="cls-3" d="M59.23,81.35c-.53,0-1.07-.14-1.55-.44l-8-4.89c-1.41-.86-1.86-2.7-.99-4.11.86-1.41,2.69-1.86,4.11-.99l8,4.89c1.41.86,1.86,2.7.99,4.11-.56.92-1.55,1.43-2.55,1.43Z"/><path class="cls-3" d="M43.12,89.5c-1.63,0-2.96-1.3-2.99-2.93l-.18-9.17c-.03-1.65,1.28-3.01,2.93-3.05,1.65-.09,3.02,1.28,3.05,2.93l.18,9.17c.03,1.65-1.28,3.01-2.93,3.05h-.06Z"/><path class="cls-3" d="M50.77,94.89c-1.08,0-2.12-.58-2.65-1.61-.76-1.46-.2-3.27,1.27-4.03l7.94-4.15c1.48-.77,3.27-.2,4.04,1.27.76,1.46.2,3.27-1.27,4.03l-7.94,4.15c-.44.23-.92.34-1.38.34Z"/><path class="cls-4" d="M67.86,22.62c0-1.74.23-3.12.7-4.15.46-1.03,1.15-1.81,2.07-2.34.92-.53,2.07-.75,3.46-.68,1.02.05,1.92.26,2.69.62.77.36,1.41.85,1.91,1.47s.9,1.37,1.19,2.24c.28.87.43,2.04.43,3.49,0,1.72-.23,3.1-.69,4.13-.46,1.03-1.15,1.81-2.06,2.34-.92.53-2.07.76-3.47.68-1.84-.1-3.28-.68-4.34-1.75-1.26-1.29-1.89-3.31-1.89-6.06ZM70.27,22.75c0,2.41.37,4.03,1.1,4.87.73.84,1.64,1.28,2.71,1.34s1.98-.3,2.71-1.06c.73-.76,1.1-2.35,1.1-4.75s-.37-4.04-1.1-4.87c-.73-.83-1.65-1.28-2.74-1.34s-1.93.25-2.58.92c-.81.85-1.21,2.48-1.21,4.89Z"/><path class="cls-2" d="M86.02,30.81v-14.68l2.52.13v6.03l9.92.52v-6.03l2.52.13v14.68l-2.52-.13v-6.92l-9.92-.52v6.92l-2.52-.13Z"/><path class="cls-4" d="M23.94,20.32c0-1.74.23-3.12.7-4.15.46-1.03,1.15-1.81,2.07-2.34.92-.53,2.07-.75,3.46-.68,1.02.05,1.92.26,2.69.62.77.36,1.41.85,1.91,1.47s.9,1.37,1.19,2.24c.28.87.43,2.04.43,3.49,0,1.72-.23,3.1-.69,4.13-.46,1.03-1.15,1.81-2.06,2.34-.92.53-2.07.76-3.47.68-1.84-.1-3.28-.68-4.34-1.75-1.26-1.29-1.89-3.31-1.89-6.06ZM26.34,20.45c0,2.41.37,4.03,1.1,4.87.73.84,1.64,1.28,2.71,1.34s1.98-.3,2.71-1.06c.73-.76,1.1-2.35,1.1-4.75s-.37-4.04-1.1-4.87-1.65-1.28-2.74-1.34c-1.08-.06-1.93.25-2.58.92-.81.85-1.21,2.48-1.21,4.89Z"/><path class="cls-4" d="M82.44,47.39c0-1.74.23-3.12.7-4.15.46-1.03,1.15-1.81,2.07-2.34.92-.53,2.07-.75,3.46-.68,1.02.05,1.92.26,2.69.62.77.36,1.41.85,1.91,1.47.5.62.9,1.37,1.19,2.24.28.87.43,2.04.43,3.49,0,1.72-.23,3.1-.69,4.13-.46,1.03-1.15,1.81-2.06,2.34-.92.53-2.07.76-3.47.68-1.84-.1-3.28-.68-4.34-1.75-1.26-1.29-1.89-3.31-1.89-6.06ZM84.84,47.51c0,2.41.37,4.03,1.1,4.87.73.84,1.64,1.28,2.71,1.34s1.98-.3,2.71-1.06c.73-.76,1.1-2.35,1.1-4.75s-.37-4.04-1.1-4.87c-.73-.83-1.65-1.28-2.74-1.34s-1.93.25-2.58.92c-.81.85-1.21,2.48-1.21,4.89Z"/><path class="cls-4" d="M99.7,108.22c0-1.74.23-3.12.7-4.15.46-1.03,1.15-1.81,2.07-2.34.92-.53,2.07-.75,3.46-.68,1.02.05,1.92.26,2.69.62.77.36,1.41.85,1.91,1.47.5.62.9,1.37,1.19,2.24.28.87.43,2.04.43,3.49,0,1.72-.23,3.1-.69,4.13-.46,1.03-1.15,1.81-2.06,2.34-.92.53-2.07.76-3.47.68-1.84-.1-3.28-.68-4.34-1.75-1.26-1.29-1.89-3.31-1.89-6.06ZM102.11,108.35c0,2.41.37,4.03,1.1,4.87.73.84,1.64,1.28,2.71,1.34s1.98-.3,2.71-1.06c.73-.76,1.1-2.35,1.1-4.75s-.37-4.04-1.1-4.87c-.73-.83-1.65-1.28-2.74-1.34s-1.93.25-2.58.92c-.81.85-1.21,2.48-1.21,4.89Z"/><polyline class="cls-5" points="38.6 30.36 50.85 42.86 51.04 43.32 51.04 61.55"/><line class="cls-5" x1="31.16" y1="40.01" x2="38.45" y2="47.37"/><polyline class="cls-5" points="63.48 31.67 51.24 42.88 51.04 43.32"/><polyline class="cls-5" points="83.24 62.56 71 73.77 70.8 74.22 70.8 93.2"/><polyline class="cls-5" points="118.42 64.4 106.18 75.62 105.98 76.06 105.98 95.05"/><polyline class="cls-5" points="93.55 63.1 105.79 75.6 105.98 76.06 105.98 95.05"/><line class="cls-5" x1="92.51" y1="80.96" x2="92.51" y2="93.19"/><polyline class="cls-5" points="51.04 61.55 70.61 73.75 70.8 73.92 70.8 93.2 70.61 93.34 51.04 103.5 31.47 91.29 31.28 91.13 31.28 71.85 31.47 71.7 51.04 61.55"/><line class="cls-5" x1="51.24" y1="73.47" x2="59.24" y2="78.36"/><line class="cls-5" x1="43.12" y1="86.51" x2="42.95" y2="77.33"/><line class="cls-5" x1="58.71" y1="87.75" x2="50.77" y2="91.9"/><path class="cls-8" d="M78.32,54.05c3.37.29,6.11-2.21,6.11-5.58v-16.99c0-3.37-2.74-6.35-6.11-6.65l-45.84-4.01v-1.2h0s0,31.61,0,31.61h0s0-1.2,0-1.2l45.84,4.01Z"/><path class="cls-6" d="M78.32,22.44l-45.84-4.01v2.4l45.84,4.01c3.37.29,6.11,3.28,6.11,6.65v16.99c0,3.37-2.74,5.87-6.11,5.58l-45.84-4.01v2.4l45.84,4.01c4.69.41,8.51-3.07,8.51-7.77v-16.99c0-4.69-3.82-8.85-8.51-9.26Z"/><path class="cls-7" d="M42.92,28.02l5.7.5v18.4l-5.7-.5v-18.4Z"/><path class="cls-7" d="M66.54,40.96l4.98,1.94c-.33,1.37-.86,2.49-1.58,3.36-.72.87-1.61,1.5-2.68,1.89s-2.42.5-4.07.36c-2-.17-3.63-.61-4.9-1.3-1.27-.69-2.36-1.81-3.28-3.35-.92-1.54-1.38-3.46-1.38-5.74,0-3.04.81-5.31,2.43-6.8s3.91-2.11,6.87-1.85c2.32.2,4.14.83,5.47,1.88,1.33,1.05,2.31,2.58,2.95,4.57l-5.02.68c-.18-.58-.36-1-.55-1.28-.32-.46-.71-.83-1.17-1.11s-.97-.44-1.54-.49c-1.29-.11-2.28.32-2.96,1.29-.52.72-.78,1.91-.78,3.55,0,2.04.31,3.46.93,4.27.62.81,1.49,1.26,2.61,1.36s1.91-.14,2.47-.7.96-1.41,1.21-2.55Z"/><polygon class="cls-10" points="8.51 1.08 38.7 20.91 38.7 118.55 38.7 127.08 8.51 98.72 8.51 1.08"/><polyline class="cls-11" points="9.95 2.03 38.7 20.91 38.7 118.55 38.7 127.08 9.41 99.75"/></svg>