<?xml version="1.0" encoding="UTF-8"?><svg id="Layer_1" xmlns="http://www.w3.org/2000/svg" viewBox="0 0 128.16 128.16"><defs><style>.cls-1{fill:gray;}.cls-2,.cls-3{fill:#fff;}.cls-2,.cls-4{opacity:.85;}.cls-4{fill:#62bb46;}.cls-5{fill:#f18a00;}</style></defs><path class="cls-5" d="M74.47,7.51c-.41-1.21-.98-2.25-1.69-3.1-.75-.88-1.7-1.57-2.83-2.03-1.1-.45-2.38-.68-3.8-.68-1.94,0-3.6.42-4.93,1.25-1.33.84-2.35,2.04-3.02,3.57-.65,1.48-.97,3.35-.97,5.7,0,3.75.91,6.53,2.71,8.28,1.53,1.47,3.62,2.22,6.21,2.22,1.96,0,3.62-.42,4.95-1.26,1.34-.84,2.35-2.05,3.02-3.58.63-1.47.96-3.37.96-5.67,0-1.92-.2-3.51-.6-4.7ZM63.73,6.78c.58-.64,1.36-.95,2.38-.95s1.89.37,2.59,1.13c.4.43,1.07,1.69,1.07,5.25s-.68,4.8-1.08,5.24c-.7.76-1.53,1.13-2.56,1.13s-1.86-.37-2.56-1.13c-.4-.44-1.08-1.7-1.08-5.25s.67-4.82,1.22-5.43Z"/><polygon points="95.51 1.77 95.51 9.31 85.38 9.31 85.38 1.77 79.95 1.77 79.95 22.4 85.38 22.4 85.38 13.75 95.51 13.75 95.51 22.4 100.94 22.4 100.94 1.77 95.51 1.77"/><path class="cls-5" d="M19.53,7.51c-.41-1.21-.98-2.25-1.69-3.1-.75-.88-1.7-1.57-2.83-2.03-1.1-.45-2.38-.68-3.8-.68-1.94,0-3.6.42-4.93,1.25-1.33.84-2.35,2.04-3.02,3.57-.65,1.48-.97,3.35-.97,5.7,0,3.75.91,6.53,2.71,8.28,1.53,1.47,3.62,2.22,6.21,2.22,1.96,0,3.62-.42,4.95-1.26,1.33-.84,2.35-2.05,3.02-3.58.63-1.47.96-3.37.96-5.67,0-1.92-.2-3.51-.6-4.7ZM8.79,6.78c.58-.64,1.36-.95,2.38-.95s1.89.37,2.59,1.13c.4.43,1.07,1.69,1.07,5.25s-.68,4.8-1.08,5.24c-.7.76-1.54,1.13-2.56,1.13s-1.86-.37-2.56-1.13c-.4-.44-1.08-1.7-1.08-5.25s.67-4.82,1.22-5.43Z"/><path class="cls-5" d="M92.7,37.53c-.41-1.21-.98-2.25-1.69-3.1-.75-.88-1.7-1.57-2.83-2.03-1.1-.45-2.38-.68-3.8-.68-1.94,0-3.6.42-4.93,1.25-1.33.84-2.35,2.04-3.02,3.57-.65,1.48-.97,3.35-.97,5.7,0,3.75.91,6.53,2.71,8.28,1.53,1.47,3.62,2.22,6.21,2.22,1.96,0,3.62-.42,4.95-1.26,1.33-.84,2.35-2.05,3.02-3.58.63-1.47.96-3.37.96-5.67,0-1.92-.2-3.51-.6-4.7ZM81.96,36.8c.58-.64,1.36-.95,2.38-.95s1.89.37,2.59,1.13c.4.43,1.07,1.69,1.07,5.25s-.67,4.8-1.08,5.24c-.7.76-1.53,1.13-2.56,1.13s-1.86-.37-2.56-1.13c-.4-.44-1.08-1.7-1.08-5.25s.67-4.82,1.22-5.43Z"/><path class="cls-5" d="M114.29,112.49c-.41-1.21-.97-2.25-1.69-3.1-.75-.88-1.7-1.57-2.83-2.03-1.1-.45-2.38-.68-3.8-.68-1.94,0-3.6.42-4.93,1.25-1.33.84-2.35,2.04-3.02,3.57-.65,1.48-.97,3.35-.97,5.7,0,3.75.91,6.53,2.71,8.28,1.53,1.47,3.62,2.22,6.21,2.22,1.96,0,3.62-.42,4.95-1.26,1.34-.84,2.35-2.05,3.02-3.58.63-1.47.96-3.37.96-5.67,0-1.92-.2-3.5-.6-4.7ZM103.55,111.76c.58-.64,1.36-.95,2.38-.95s1.89.37,2.59,1.12c.4.43,1.07,1.69,1.07,5.25s-.68,4.8-1.08,5.24c-.7.76-1.53,1.13-2.56,1.13s-1.86-.37-2.56-1.13c-.4-.44-1.08-1.7-1.08-5.25s.67-4.82,1.22-5.43Z"/><path class="cls-1" d="M19.51,47.26c.58.55,1.32.83,2.07.83.79,0,1.57-.31,2.16-.92,1.14-1.19,1.1-3.09-.09-4.23l-9.12-8.72c-1.19-1.14-3.09-1.1-4.23.09-1.14,1.19-1.1,3.09.09,4.23l9.12,8.72Z"/><path class="cls-1" d="M75.52,59.01l-13.88,13.44-21.32-12.18v-20.11l14.65-14.19c1.19-1.15,1.22-3.04.07-4.23-1.15-1.19-3.04-1.22-4.23-.07l-13.48,13.05-13.48-13.05c-1.19-1.15-3.08-1.12-4.23.07-1.15,1.19-1.12,3.08.07,4.23l14.65,14.18v20.12l-22.97,13.12c-.15.08-.29.18-.42.29l-.24.2c-.69.57-1.09,1.42-1.09,2.31v24.11c0,.93.43,1.8,1.16,2.37l.24.19c.11.09.23.16.35.23l24.48,13.98c.46.26.97.39,1.48.39s1.02-.13,1.48-.39l24.47-13.98c.12-.07.24-.15.35-.23l.24-.19s.07-.08.12-.11c.1-.08.19-.17.27-.27.06-.07.12-.13.17-.2.07-.1.14-.21.2-.32.04-.07.09-.15.12-.23.06-.12.1-.25.13-.38.02-.08.05-.15.07-.22.04-.16.05-.33.06-.5,0-.05.02-.09.02-.13v-22.81l14.64-14.18c1.19-1.15,1.22-3.04.07-4.23-1.15-1.19-3.04-1.22-4.23-.07ZM37.33,111.03l-21.73-12.41v-20.75l21.73-12.41,21.72,12.41v20.76l-21.72,12.41Z"/><path class="cls-1" d="M123.75,59.08c-1.15-1.19-3.04-1.22-4.23-.07l-13.48,13.05-13.48-13.05c-1.19-1.15-3.08-1.12-4.23.07-1.15,1.19-1.12,3.08.07,4.23l14.65,14.18v22.81c0,1.65,1.34,2.99,2.99,2.99s2.99-1.34,2.99-2.99v-22.81l14.65-14.18c1.19-1.15,1.22-3.04.07-4.23Z"/><path class="cls-1" d="M89.19,80.58c-1.65,0-2.99,1.34-2.99,2.99v15.29c0,1.65,1.34,2.99,2.99,2.99s2.99-1.34,2.99-2.99v-15.29c0-1.65-1.34-2.99-2.99-2.99Z"/><path class="cls-1" d="M49.04,79.89l-10.01-5.59c-1.45-.8-3.27-.29-4.07,1.15-.81,1.44-.29,3.26,1.15,4.07l10.01,5.59c.46.26.96.38,1.46.38,1.05,0,2.07-.55,2.61-1.53.81-1.44.29-3.26-1.15-4.07Z"/><path class="cls-1" d="M27.2,79.29s-.04,0-.06,0c-1.65.03-2.97,1.4-2.93,3.05l.22,11.46c.03,1.63,1.36,2.93,2.99,2.93.02,0,.04,0,.06,0,1.65-.03,2.97-1.4,2.93-3.05l-.22-11.46c-.03-1.63-1.36-2.93-2.99-2.93Z"/><path class="cls-1" d="M45.43,91.68l-9.94,5.71c-1.43.82-1.93,2.65-1.1,4.08.55.96,1.56,1.5,2.6,1.5.51,0,1.02-.13,1.49-.4l9.94-5.71c1.43-.82,1.93-2.65,1.1-4.08-.82-1.43-2.65-1.93-4.08-1.1Z"/><path class="cls-4" d="M57.94,51.8c4.21,0,7.64-3.43,7.64-7.64v-21.23c0-4.21-3.43-7.64-7.64-7.64H.65v-1.5h0v39.52h0v-1.5h57.29Z"/><path class="cls-2" d="M57.94,12.28H.65v3h57.29c4.21,0,7.64,3.43,7.64,7.64v21.23c0,4.21-3.43,7.64-7.64,7.64H.65v3h57.29c5.87,0,10.64-4.77,10.64-10.64v-21.23c0-5.87-4.77-10.64-10.64-10.64Z"/><path class="cls-3" d="M13.7,23.14h7.12v23h-7.12v-23Z"/><path class="cls-3" d="M43.22,36.72l6.23,1.88c-.42,1.75-1.08,3.21-1.98,4.38-.9,1.17-2.02,2.06-3.35,2.65s-3.03.89-5.09.89c-2.5,0-4.54-.36-6.13-1.09-1.58-.73-2.95-2-4.1-3.83-1.15-1.83-1.73-4.17-1.73-7.02,0-3.8,1.01-6.73,3.04-8.77s4.89-3.06,8.59-3.06c2.9,0,5.17.59,6.83,1.76,1.66,1.17,2.89,2.97,3.69,5.4l-6.27,1.4c-.22-.7-.45-1.21-.69-1.54-.4-.54-.88-.96-1.46-1.25s-1.22-.44-1.93-.44c-1.61,0-2.84.65-3.7,1.94-.65.96-.97,2.47-.97,4.53,0,2.55.39,4.3,1.16,5.24.77.95,1.86,1.42,3.26,1.42s2.39-.38,3.08-1.14,1.2-1.87,1.51-3.33Z"/></svg>