<svg id="Layer_1" data-name="Layer 1" xmlns="http://www.w3.org/2000/svg" xmlns:xlink="http://www.w3.org/1999/xlink" viewBox="0 0 128.16 128.16"><defs><style>.cls-1,.cls-3{fill-rule:evenodd;}.cls-1{fill:url(#linear-gradient);}.cls-2{fill:url(#linear-gradient-2);}.cls-3{fill:url(#linear-gradient-3);}</style><linearGradient id="linear-gradient" x1="1.43" y1="509.37" x2="128.03" y2="509.37" gradientTransform="matrix(1, 0, 0, -1, 0, 574.08)" gradientUnits="userSpaceOnUse"><stop offset="0" stop-color="#c32a1f"/><stop offset="0.41" stop-color="#d73f23"/><stop offset="1" stop-color="#f05a28"/></linearGradient><linearGradient id="linear-gradient-2" x1="0.86" y1="509.37" x2="128.5" y2="509.37" gradientTransform="matrix(1, 0, 0, -1, 0, 574.08)" gradientUnits="userSpaceOnUse"><stop offset="0" stop-color="#f05a28"/><stop offset="0.59" stop-color="#d73f23"/><stop offset="1" stop-color="#c32a1f"/></linearGradient><linearGradient id="linear-gradient-3" x1="34.19" y1="509.36" x2="95.27" y2="509.36" gradientTransform="matrix(1, 0, 0, -1, 0, 574.08)" gradientUnits="userSpaceOnUse"><stop offset="0" stop-color="#005496"/><stop offset="1" stop-color="#00aeef"/></linearGradient></defs><path class="cls-1" d="M9,29.55l14.45-4.4L9,4.42l4.09-1H16.2V1.28h5.65s-1.26,6.28,1.57,11.3,6.91,12.57,21.36,17,29.53,7.85,37.38,4.71,31.1-27.64,31.1-27.64,4.4-4.09,7.23-.63,0,8.79,0,8.79-11,7.23-10.68,17.59,9.11,8.17,13.19,6.29a8.85,8.85,0,0,1,1.94-.65,2.33,2.33,0,0,1,3,1.44,2.44,2.44,0,0,1,.13.8s-12.57,12.83-20.38,14.37-15.39-4.09-16.34-2.52,3.34,21.08,19.13,17.63A42.06,42.06,0,0,0,120.8,66s4.71,2.52-1.88,6-9.74,5-14.77,3.77A104.29,104.29,0,0,1,92.84,72S91.9,75,90,76.15,82.16,84.52,81.85,87s6.06,3.46,12.8,1.89,6.71-5.34,16.44-5.66,14.14,1,15.71,4.72-.63,8.79-6.91,9.11-17.28,0-17.28,0l12.57,16.33-4.71,1.88S98,98.65,94.65,96.77s-6.8.94-2.72,5,8.8,14.13,8.48,18.53-.94,7.85-.94,7.85H94.65s-.52-10.36-3.66-17.9S80,96.43,80,96.43v-21s5.34,3.14,7.85-5.65,1.25-14.14-.63-16-11.62,7.85-11.62,7.85L71.5,54.4,84.65,41.17s-14.14,2.2-25.76,0-22-6.6-27,0-1.88,16,8.8,20.42S53,77.3,53,77.3l-6.28-5S45.1,66.65,32.85,66s-17.91,2.21-17.91,2.21-4.6-5.66-.63-5.66c5,0,10.68-3.77,3.77-4.71a36.86,36.86,0,0,1-7.5-2.12s.53-7.85,2.21-7.46a8.36,8.36,0,0,1,2.46,1.1c2.52,1.57,6.29,4.71,8.49,4.71s-.32-5,0-10.68,3.14-7.23,6-8.8,2.83-2.51-4.08-2.51-10,.31-13.19,2.2S9,29.55,9,29.55ZM102.74,49c8.64.63,10.21-4.08,10.21-4.08s-1.57,1.26-6-2.83-1.57-17.9-1.57-17.9-1.57.63-5.34,4.71-6.28,7.85-7.54,13.19C92.53,42.11,94.1,48.4,102.74,49Zm0,43.35a45.25,45.25,0,0,0,16.49,0c8.48-1.72-.63-4.39-9.42-4.08s-10.68,4.08-10.68,4.08Zm-63-19.18s-2.2,6.62-7.23,7.87-4.71,1-11.62-2.35S3.32,68.19,3.32,68.19L1.43,73.53S19.24,85.46,22.28,85.46s8.37,1.19,4.28,2.8-3.14,4.86-9.42,2.44A62.54,62.54,0,0,1,4.26,83.26l-1.88,5s10.68,8.2,13.5,8.51,5.66,1.26,7.86,0-.32,3.46-5,4.4S9,99.65,6.15,99s2.66,6.28,2.66,6.28,8,2.83,10.53,1.57,6.6-2.82,6.6-2.82,3.14,3.45-6.6,8.48C12.56,116,8.68,119,6.94,121.39c-.76,1,1.29,3.77,1.29,3.77a82.37,82.37,0,0,0,8.28-4.83c7.85-5.34,14.14-9.11,14.14-9.11s2.82,3.77-1.57,10.37a15.46,15.46,0,0,0-1.62,3.5s3.66,2.78,4.68,2a11.07,11.07,0,0,0,3.22-3.65c1.88-3.45,3.45-7.85,1.57-13.19s-7.42-21.34.49-25.42"/><path class="cls-2" d="M99.86,128.62H94.2l0-.45c0-.1-.55-10.37-3.63-17.74S79.77,96.86,79.69,96.8l-.17-.15v-22l.7.41a4.12,4.12,0,0,0,3.35.21c1.67-.67,3-2.55,3.82-5.58,2.31-8.1,1.41-13.64-.51-15.54-.93-.91-6.42,3.32-11,7.85l-.44.44-4.57-8.08,12.43-12.5c-3.86.48-15.08,1.6-24.54-.19-2.37-.45-4.68-1-6.92-1.51-8.49-2-15.82-3.68-19.62,1.33a10.52,10.52,0,0,0-1.84,9.29c1.18,4.36,5,8.15,10.45,10.41,10.8,4.47,12.53,16,12.54,16.08l.17,1.17-7.32-5.83,0-.15s-1.7-5.33-13.4-6c-11.94-.65-17.61,2.13-17.67,2.16l-.34.17-.24-.3c-.5-.62-3-3.81-2.19-5.49a1.93,1.93,0,0,1,1.93-.93c3.26,0,6.44-1.61,6.5-2.58,0-.37-.69-.91-2.8-1.2a37.76,37.76,0,0,1-7.61-2.15L10.09,56l0-.34c.07-1.1.52-6.65,1.93-7.7a1,1,0,0,1,.85-.19A8.83,8.83,0,0,1,15.51,49c.64.39,1.37.9,2.13,1.43,2.05,1.43,4.61,3.2,6.1,3.2.21,0,.27-.07.29-.1.32-.38.07-1.84-.19-3.4a29.79,29.79,0,0,1-.57-6.74c.33-5.94,3.34-7.59,6.24-9.18,1.42-.78,1.54-1.11,1.55-1.14s-.78-.49-5.4-.49c-6.9,0-9.89.32-12.95,2.13a2.1,2.1,0,0,1-2.17.19c-1.79-1-2-4.84-2-5.28l0-.37,14.18-4.31L8.19,4.12,13.06,3h2.67V.81h6.69l-.11.56c0,.06-1.19,6.17,1.52,11l.12.21c2.75,4.88,6.9,12.26,21,16.57C63.53,34.84,75.66,36.38,82,33.85c7.67-3.06,30.71-27.28,30.94-27.53S115.47,4,118,4.17a3.94,3.94,0,0,1,2.86,1.55c3,3.66.17,9.08.05,9.31l-.05.1-.1.07c-.11.07-10.78,7.21-10.47,17.18.1,3.24,1.06,5.45,2.85,6.56,3.25,2,8.22,0,9.67-.68a9.78,9.78,0,0,1,2-.68,2.78,2.78,0,0,1,3.5,1.75,2.85,2.85,0,0,1,.16,1v.18l-.13.14c-.51.52-12.76,13-20.62,14.5-4.83,1-9.57-.76-12.7-1.9-1.26-.45-3.15-1.14-3.33-.84-.36.72.63,7,4.4,11.8a13.42,13.42,0,0,0,14.23,5.13,41.51,41.51,0,0,0,10.24-3.74l.22-.11.22.11a3.53,3.53,0,0,1,1.88,2.72c0,1.41-1.27,2.8-3.76,4.11C112.4,76,109.21,77.47,104,76.2a105.83,105.83,0,0,1-10.92-3.63,8.35,8.35,0,0,1-2.86,4c-1.88,1.14-7.66,8.26-8,10.54a1,1,0,0,0,.39.88c1.41,1.27,6.23,1.8,11.84.49a17.74,17.74,0,0,0,5.79-2.54c2.36-1.44,4.8-2.94,10.74-3.13,10-.33,14.5,1.07,16.16,5a6.75,6.75,0,0,1-.51,6.2,8.18,8.18,0,0,1-6.81,3.56c-5.13.26-13.48.09-16.33,0l12.35,16-5.62,2.25-.22-.29C110,115.41,97.6,99,94.42,97.18c-1.55-.88-3-.57-3.56.18s-.49,2.2,1.4,4.08c4.27,4.24,8.94,14.48,8.62,18.89s-.94,7.87-.95,7.9Zm-4.77-.94h4c.17-1,.62-3.93.87-7.42.3-4.12-4.3-14.14-8.34-18.16-2.92-2.9-1.87-4.8-1.48-5.31,1-1.27,3-1.45,4.76-.43,3.15,1.79,14,16.08,15.75,18.37l3.8-1.52-12.8-16.62,1,0c.11,0,11.06.31,17.24,0a7.26,7.26,0,0,0,6.06-3.12,5.78,5.78,0,0,0,.44-5.34c-1.47-3.5-5.76-4.75-15.26-4.43-5.69.19-7.92,1.55-10.28,3a18.59,18.59,0,0,1-6.07,2.66c-5.38,1.25-10.83,1-12.67-.71a1.9,1.9,0,0,1-.7-1.7c.34-2.72,6.47-10.06,8.39-11.22,1.71-1,2.61-3.91,2.62-3.94l.15-.49.47.19a104.08,104.08,0,0,0,11.26,3.78c4.83,1.19,7.91-.29,14.43-3.73,2.13-1.12,3.25-2.25,3.26-3.27a2.4,2.4,0,0,0-1.18-1.77,42.38,42.38,0,0,1-10.24,3.7c-8.06,1.76-13-2.36-15.65-6.12-3.56-5-4.63-11.14-4-12.22s2-.42,4.45.45c3,1.1,7.63,2.76,12.2,1.86,7.14-1.41,18.6-12.7,20-14.1a1.79,1.79,0,0,0-.09-.46,1.87,1.87,0,0,0-.95-1.06,1.84,1.84,0,0,0-1.42-.09,8.92,8.92,0,0,0-1.89.63c-1.56.72-6.92,2.89-10.56.63-2.08-1.29-3.19-3.75-3.3-7.33-.31-10.07,9.57-17.1,10.78-17.92.36-.74,2.4-5.25,0-8.17a3,3,0,0,0-2.19-1.21C115.8,5,113.6,7,113.58,7c-.93,1-23.39,24.59-31.25,27.73-6.62,2.65-18.6,1.16-37.69-4.69C30.22,25.61,26,18,23.13,13L23,12.81c-2.42-4.29-2-9.38-1.72-11.06H16.67V3.89H13.11l-3.36.82,14.42,20.7L9.46,29.89c.13,1.47.61,3.64,1.52,4.13.13.07.51.27,1.25-.17,3.24-1.92,6.34-2.26,13.43-2.26,5,0,6.12.48,6.31,1.25s-.66,1.4-2,2.14c-2.8,1.54-5.45,3-5.75,8.41a28.89,28.89,0,0,0,.56,6.54c.35,2.07.58,3.45,0,4.16a1.27,1.27,0,0,1-1,.43c-1.79,0-4.36-1.79-6.63-3.37-.76-.52-1.47-1-2.11-1.41a7.77,7.77,0,0,0-2.33-1.05c-.82.59-1.4,4.15-1.6,6.7a36.36,36.36,0,0,0,7.09,2c2.45.34,3.67,1.07,3.59,2.19C21.62,61.4,17.55,63,14.31,63c-.59,0-1,.13-1.08.4-.37.79.79,2.83,1.85,4.21,1.42-.62,7.1-2.69,17.79-2.1,11.46.63,13.84,5.54,14.2,6.51l5.14,4.09c-.77-3-3.48-10.69-11.7-14.09-5.73-2.37-9.74-6.39-11-11a11.48,11.48,0,0,1,2-10.11c4.17-5.5,11.78-3.73,20.58-1.67,2.23.51,4.53,1,6.89,1.5,11.4,2.16,25.45,0,25.6,0L86,40.48l-13.91,14,3.61,6.38c2.78-2.72,9.91-9.33,11.85-7.42s3.33,7.42.75,16.47c-1,3.33-2.43,5.42-4.38,6.2a4.94,4.94,0,0,1-3.45,0v20c1.21,1,8,6.84,11,13.87C94.19,116.71,95,125.6,95.09,127.68Zm-63.42,0c-1.44,0-3.73-1.64-4.5-2.23l-.26-.2.1-.32a16.12,16.12,0,0,1,1.67-3.6c3.43-5.15,2.34-8.42,1.81-9.48-1.51.92-7.09,4.35-13.72,8.86a83.38,83.38,0,0,1-8.33,4.86l-.35.18-.24-.32c-.38-.51-2.21-3.12-1.29-4.34,2-2.71,6.34-5.84,12.56-9,5.15-2.66,6.53-4.79,6.78-6.11a2.14,2.14,0,0,0-.15-1.38c-1,.41-4.15,1.65-6.2,2.67-2.63,1.31-10.06-1.25-10.9-1.55l-.13,0-.08-.11c-1.59-2-4.15-5.57-3.42-6.7.15-.25.5-.51,1.24-.33s1.5.43,2.42.74c2.76.9,6.53,2.15,10,1.46a8.52,8.52,0,0,0,5.26-3.5c-1.82,1-4,.65-6.15.31-.64-.11-1.29-.21-1.93-.28C13,96.92,3.2,89.48,2.09,88.63l-.27-.21L4,82.51l.5.37a62.13,62.13,0,0,0,12.78,7.39c3.88,1.49,4.69.76,6-.46a9.32,9.32,0,0,1,3-2c1.1-.44,1.18-.72,1.18-.72-.14-.43-2.67-1.17-5.29-1.17-3.1,0-19.28-10.78-21.11-12l-.31-.2,2.22-6.26.5.34c.11.07,10.71,7.19,17.51,10.49l1.85.9c5,2.45,5.09,2.5,9.45,1.41,4.72-1.17,6.88-7.5,6.9-7.56l.89.3c-.09.28-2.34,6.88-7.56,8.17-4.7,1.17-5,1-10.09-1.48l-1.85-.9A184.42,184.42,0,0,1,3.56,68.91L2,73.34C9.12,78.1,20.18,85,22.28,85c1.16,0,5.91.35,6.22,2,.17.88-.93,1.42-1.77,1.76A8.44,8.44,0,0,0,24,90.51c-1.6,1.45-2.8,2.25-7,.63A63.23,63.23,0,0,1,4.48,84L2.94,88.1c3.14,2.39,10.85,8,13,8.2.66.07,1.33.18,2,.29,2.08.34,4.05.65,5.59-.23.2-.11.81-.46,1.24-.14A.72.72,0,0,1,25,97c-.26,1.2-2.67,3.9-6.15,4.6-3.68.74-7.59-.55-10.44-1.49-.91-.3-1.69-.56-2.35-.72a.57.57,0,0,0-.29,0c-.1.45,1.4,3,3.34,5.45,2.28.79,8.15,2.49,10,1.55,2.52-1.26,6.6-2.83,6.64-2.84l.3-.12.22.24a3,3,0,0,1,.55,2.41c-.41,2.23-2.86,4.52-7.29,6.81-7.7,4-10.9,6.95-12.23,8.77-.31.39.28,1.74,1.06,2.89a82.65,82.65,0,0,0,7.87-4.62c7.76-5.29,14.09-9.09,14.16-9.13l.36-.21.25.34c.13.16,3,4.11-1.55,10.91A15.08,15.08,0,0,0,28,124.91c1.69,1.24,3.48,2.09,3.84,1.8a10.61,10.61,0,0,0,3.1-3.5c1.71-3.14,3.43-7.43,1.53-12.81s-7.63-21.68.72-26l.43.84c-5.06,2.61-5.14,11-.26,24.84,2,5.79.06,10.52-1.6,13.57a11.6,11.6,0,0,1-3.36,3.81A1.2,1.2,0,0,1,31.67,127.69ZM111,93.6a45.42,45.42,0,0,1-8.29-.76H98.37l.34-.68c.08-.17,2.12-4,11.08-4.34,5.39-.19,13,.8,13.28,2.85.11.94-1,1.61-3.75,2.16A46,46,0,0,1,111,93.6Zm-10.89-1.7h2.73a44.33,44.33,0,0,0,16.32,0c2.81-.57,3-1.13,3-1.13-.11-.73-5.4-2.26-12.32-2C103.79,89,101.12,90.86,100.09,91.9Zm4.21-42.35c-.51,0-1,0-1.6-.06-7.45-.54-9.87-5.13-10.53-6.91H91.9L92,42c1.15-4.88,3.37-8.77,7.65-13.4,3.8-4.11,5.44-4.8,5.51-4.83l.82-.32-.18.85c0,.14-2.76,13.6,1.43,17.46,4,3.66,5.39,2.81,5.4,2.8l1.25-1-.53,1.53C113.33,45.28,111.81,49.55,104.3,49.55ZM93,42.08c.5,1.48,2.62,6,9.78,6.47h0c6,.44,8.42-1.73,9.29-3-1-.05-2.76-.67-5.43-3.14-3.89-3.58-2.49-13.91-1.91-17.28a31.86,31.86,0,0,0-4.34,4.07C96.89,33,94.3,36.65,93,42.08Z"/><path class="cls-3" d="M81.88,108.5c-15.83,14-42.56,3.7-42.56-20.57a41.23,41.23,0,0,1,3.2-14.44c.2,23,13.08,32.75,28.57,35a10.75,10.75,0,0,0,3.38.52h4a11.37,11.37,0,0,0,3.32-.5Zm-17-99.34S95.27,63.65,95.27,87.84c0,43.27-61.08,43.27-61.08,0,0-24.19,30.38-78.68,30.38-78.68l.16.56Z"/></svg>