<svg id="Layer_1" data-name="Layer 1" xmlns="http://www.w3.org/2000/svg" viewBox="0 0 128.16 128.16"><defs><style>.cls-1{fill:#00aeef;}.cls-2{fill:#f18a00;}.cls-3{fill:#fff;}.cls-4{isolation:isolate;}</style></defs><g id="Journal_Ribbon" data-name="Journal Ribbon"><path class="cls-1" d="M107.35,1.73H17.46a7.46,7.46,0,0,0-7.17,7.74V25.16h-3a5.79,5.79,0,1,0,0,11.57h3v10.5h-3a5.79,5.79,0,1,0,0,11.57h3V69.54h-3a5.79,5.79,0,1,0,0,11.57h3v8.78h-3a5.79,5.79,0,0,0,0,11.58h3v18.28h0a7.46,7.46,0,0,0,7.18,7.73h89.88a7.51,7.51,0,0,0,7.15-7.74V9.47A7.51,7.51,0,0,0,107.35,1.73Zm-1,117.5H18.55V101.47H21a5.79,5.79,0,1,0,0-11.58H18.55V81.11H21a5.79,5.79,0,1,0,0-11.57H18.55V58.8H21a5.79,5.79,0,1,0,0-11.57H18.55V36.73H21a5.79,5.79,0,0,0,0-11.57H18.55V10h87.8Z"/><circle class="cls-2" cx="90.35" cy="90.13" r="35.44"/><path class="cls-3" d="M90.35,127.73A37.6,37.6,0,1,1,128,90.13h0A37.6,37.6,0,0,1,90.35,127.73Zm0-70.84a33.29,33.29,0,1,0,33.29,33.28v0A33.29,33.29,0,0,0,90.35,56.89Z"/><path class="cls-3" d="M111,91.41,92.51,70.14a2.93,2.93,0,0,0-2.32-1.08,3,3,0,0,0-2.31,1.08L69.4,91.41a2.72,2.72,0,0,0-.76,1.67c0,.76.52,1.52,2,1.52H78.9v13.33a3.35,3.35,0,0,0,3.35,3.35H98.13a3.36,3.36,0,0,0,3.36-3.35V94.6h8.34c1.43,0,1.91-.76,1.91-1.52A2.48,2.48,0,0,0,111,91.41Z"/><g class="cls-4"><path class="cls-1" d="M39.35,54.29,31.16,20h7.09l5.17,23.55L49.69,20h8.23l6,23.94L69.19,20h7L67.83,54.29H60.49L53.66,28.66l-6.8,25.63Z"/></g></g></svg>