<svg id="Layer_1" data-name="Layer 1" xmlns="http://www.w3.org/2000/svg" viewBox="0 0 128.16 128.16"><defs><style>.cls-1{fill:#00aeef;}.cls-2{fill:#f18a00;}.cls-3{fill:#fff;}</style></defs><path class="cls-1" d="M90.94,127.73H12.86A11.14,11.14,0,0,1,1.72,116.59h0v-68A20.69,20.69,0,0,1,8.45,34.22L43.93,4.42a13.1,13.1,0,0,1,15.91,0l35.44,29.8A20.54,20.54,0,0,1,102,48.61v68a11.1,11.1,0,0,1-11.06,11.14ZM51.88,23a9.63,9.63,0,1,0,9.51,9.74v-.12A9.62,9.62,0,0,0,51.88,23Z"/><circle class="cls-2" cx="90.26" cy="90.26" r="35.32"/><path class="cls-3" d="M90.26,127.73a37.47,37.47,0,1,1,37.47-37.47h0A37.47,37.47,0,0,1,90.26,127.73Zm0-70.6A33.17,33.17,0,1,0,123.44,90.3v0A33.18,33.18,0,0,0,90.26,57.13Z"/><polygon class="cls-3" points="95.04 108.67 85.53 108.67 85.53 94.79 71.89 94.79 71.89 85.64 85.53 85.64 85.53 71.88 95.04 71.88 95.04 85.64 108.68 85.64 108.68 94.79 95.04 94.79 95.04 108.67"/></svg>