<svg id="Layer_1" data-name="Layer 1" xmlns="http://www.w3.org/2000/svg" viewBox="0 0 128.16 128.16"><defs><style>.cls-1{fill:#00aeef;}.cls-2{fill:#fff;}</style></defs><circle class="cls-1" cx="63.3" cy="66.15" r="55.8"/><path class="cls-2" d="M63.3,66.39a5.3,5.3,0,0,1,5.3,5.27v0a5.31,5.31,0,0,1-3,4.8v4.37a2.25,2.25,0,0,1-4.49,0V76.5A5.3,5.3,0,0,1,63.3,66.39Zm-24.66-13V96.57H88V53.35Z"/><path class="cls-2" d="M63.3,29.33A18.22,18.22,0,0,0,45.08,47.48v3.91h6.17V47.48a12.06,12.06,0,0,1,24.11,0h0v3.91h6.17v-4A18.23,18.23,0,0,0,63.3,29.33Z"/></svg>