<svg id="Layer_1" data-name="Layer 1" xmlns="http://www.w3.org/2000/svg" viewBox="0 0 128.16 128.16"><defs><style>.cls-1{fill:#00aeef;}.cls-2{fill:#fff;}</style></defs><title>LicenseRegister</title><circle class="cls-1" cx="64.08" cy="64.08" r="62.66"/><path class="cls-2" d="M64.08,64.35a6,6,0,0,1,6,5.92v0a5.93,5.93,0,0,1-3.43,5.39V80.6a2.52,2.52,0,0,1-5,0V75.69a6,6,0,0,1,2.52-11.34ZM36.38,49.7V98.23h55.4V49.7Z"/><path class="cls-2" d="M64.08,22.73A20.47,20.47,0,0,0,43.62,43.11V47.5h6.93V43.11a13.53,13.53,0,0,1,27.06,0h0V47.5h6.93V43.07A20.47,20.47,0,0,0,64.08,22.73Z"/></svg>