<?xml version="1.0" encoding="utf-8"?>
<!-- Generator: Adobe Illustrator 24.3.0, SVG Export Plug-In . SVG Version: 6.00 Build 0)  -->
<svg version="1.1" id="Layer_1" xmlns="http://www.w3.org/2000/svg" xmlns:xlink="http://www.w3.org/1999/xlink" x="0px" y="0px"
	 viewBox="0 0 128.2 128.2" style="enable-background:new 0 0 128.2 128.2;" xml:space="preserve">
<style type="text/css">
	.st0{fill:url(#SVGID_1_);}
	.st1{fill:none;stroke:#362922;stroke-linecap:round;stroke-linejoin:round;stroke-miterlimit:10;}
	.st2{fill:url(#SVGID_2_);stroke:url(#SVGID_3_);stroke-miterlimit:10;}
	.st3{fill:url(#SVGID_4_);stroke:url(#SVGID_5_);stroke-miterlimit:10;}
	.st4{fill:url(#SVGID_6_);}
	.st5{fill:none;stroke:#362922;stroke-miterlimit:10;}
	.st6{fill:#C39789;}
	.st7{fill:#362922;}
</style>
<g>
	<g>
		
			<linearGradient id="SVGID_1_" gradientUnits="userSpaceOnUse" x1="61.4413" y1="93.0077" x2="91.4487" y2="93.0077" gradientTransform="matrix(1 0 0 -1 0 130)">
			<stop  offset="0" style="stop-color:#773F2F"/>
			<stop  offset="1" style="stop-color:#A85F46"/>
		</linearGradient>
		<path class="st0" d="M61.4,32.5c0,0,2.6-2.8,11.4-3.5s14.7,1.9,17.7,4.7s-2.4,8.5-2.4,8.5l-13.9,2.9L61.4,32.5z"/>
		<path class="st1" d="M61.4,32.5c0,0,2.6-2.8,11.4-3.5s14.7,1.9,17.7,4.7"/>
	</g>
	<g>
		
			<linearGradient id="SVGID_2_" gradientUnits="userSpaceOnUse" x1="76.525" y1="74.7167" x2="124.5374" y2="74.7167" gradientTransform="matrix(1 0 0 -1 0 130)">
			<stop  offset="0" style="stop-color:#773F2F"/>
			<stop  offset="0.8022" style="stop-color:#B57355"/>
		</linearGradient>
		
			<linearGradient id="SVGID_3_" gradientUnits="userSpaceOnUse" x1="76.025" y1="74.5784" x2="125.0374" y2="74.5784" gradientTransform="matrix(1 0 0 -1 0 130)">
			<stop  offset="0" style="stop-color:#773F2F"/>
			<stop  offset="1" style="stop-color:#A85F46"/>
		</linearGradient>
		<path class="st2" d="M94.1,31.3c4-2.9,7.4-2.6,12.8-6.2s8.1-5.9,10.7-7.7c2.7-1.8,7.1-2.1,6.8,6.3s-1,26.8-2.4,32.2
			s-4.6,11-10.7,17.4S99.4,85.9,92.5,88.9c-7,3.1-10.3,4.3-12.1,4.5s-3.6,0.8-3.6,0.8s2.9-9.9,2.2-15c-0.7-5.1-2.2-21.6-2.2-21.6
			s-1.1-14,1.1-17C80.2,37.8,94.1,31.3,94.1,31.3z"/>
		<path class="st1" d="M94.1,31.3c4-2.9,7.4-2.6,12.8-6.2s8.1-5.9,10.7-7.7c2.7-1.8,7.1-2.1,6.8,6.3s-1,26.8-2.4,32.2
			s-4.6,11-10.7,17.4S99.4,85.9,92.5,88.9c-7,3.1-10.3,4.3-12.1,4.5s-3.6,0.8-3.6,0.8s2.9-9.9,2.2-15c-0.7-5.1-2.2-21.6-2.2-21.6
			s-1.1-14,1.1-17C80.2,37.8,94.1,31.3,94.1,31.3z"/>
	</g>
	
		<linearGradient id="SVGID_4_" gradientUnits="userSpaceOnUse" x1="22.9379" y1="59.6575" x2="74.7533" y2="59.6575" gradientTransform="matrix(1 0 0 -1 0 130)">
		<stop  offset="0" style="stop-color:#773F2F"/>
		<stop  offset="0.8022" style="stop-color:#B57355"/>
	</linearGradient>
	
		<linearGradient id="SVGID_5_" gradientUnits="userSpaceOnUse" x1="3.0579" y1="59.6575" x2="79.4183" y2="59.6575" gradientTransform="matrix(1 0 0 -1 0 130)">
		<stop  offset="0" style="stop-color:#773F2F"/>
		<stop  offset="1" style="stop-color:#A85F46"/>
	</linearGradient>
	<path class="st3" d="M60.1,99.1c0,0-6.3,10.8-23.8,12.3s-29-1.5-30.9-12.3s-4.5-23.8,4.8-45.4s27.5-24.6,27.5-24.6
		s10.4-1.1,20.5,2.2s18.6,6.7,19.7,9.3c1.1,2.6,0.7,6,0,12.3s-0.4,7.6-0.5,11.5c-0.2,6.7,3.9,25.7-0.6,29.8
		c-4.5,4.1-15.3,10.2-18.9,7.6C54.3,99.3,60.1,99.1,60.1,99.1z"/>
	<path class="st1" d="M60.1,99.1c0,0-6.3,10.8-23.8,12.3s-29-1.5-30.9-12.3s-4.5-23.8,4.8-45.4s27.5-24.6,27.5-24.6
		s10.4-1.1,20.5,2.2s18.6,6.7,19.7,9.3c1.1,2.6,0.7,6,0,12.3s-1.1,4.7-0.5,11.5c0.6,6.7,3.9,25.7-0.6,29.8
		c-4.5,4.1-16.6,11.4-18.9,7.6L60.1,99.1z"/>
	
		<linearGradient id="SVGID_6_" gradientUnits="userSpaceOnUse" x1="40.9286" y1="64.3875" x2="74.2367" y2="64.3875" gradientTransform="matrix(1 0 0 -1 0 130)">
		<stop  offset="0" style="stop-color:#773F2F"/>
		<stop  offset="1" style="stop-color:#C27E5C"/>
	</linearGradient>
	<path class="st4" d="M51.7,34.3c0,0-0.8,10.6-5.6,16.5S40,66.7,41.4,73.4S47,88.2,51.7,91.8s7.3,4.5,7.3,4.5s0.8,2.5,8.4-2.5
		c7.5-5,7.8-14,5.9-24.6s-0.6-14-1.4-19.5c-0.8-5.6-5.3-10.3-10-12.8S51.7,34.3,51.7,34.3z"/>
	<path class="st5" d="M51.7,34.3c0,0-0.8,10.6-5.6,16.5S40,66.7,41.4,73.4S47,88.2,51.7,91.8s7.3,4.5,7.3,4.5"/>
	<path class="st6" d="M13.5,94.3c0,0-2.5-3.6,0-19s1.4-18.7,7.8-26.8s12.3-10,12.3-10s2.5-0.6-3.1,4.2S20.2,51,19.1,58.3
		s-2.5,15.9-1.4,22.9s3.9,13,1.1,15.7S13.5,94.3,13.5,94.3z"/>
	<path class="st6" d="M87.7,58.3c-0.5,1.2-2.3,1-2.5-0.3c-0.6-4.8-0.8-12.2,2.9-15.7c5.7-5.4,12.4-8,12.4-8s0.3,0.2-3.4,4.2
		s-8.1,3.8-9.5,9.9C86.3,54.5,89.4,54.1,87.7,58.3L87.7,58.3z"/>
	<path class="st7" d="M78.5,93.8c-0.8,0-0.1-4-0.2-4.8c0-0.2,0.1-15.2-0.9-24.5c-1.1-9.5-0.1-24.1-0.1-24.7c0.1-0.8,0.8-1.4,1.7-1.3
		c0.8,0.1,1.4,0.8,1.3,1.7c0,0.1-4.5,14.6-3.5,23.8c1.1,9.4,4.5,24.9,4.5,25c0,0.8-0.6,1.5-1.5,1.5C79.9,90.5,78.6,93.8,78.5,93.8z"
		/>
</g>
</svg>
