<svg id="Layer_1" data-name="Layer 1" xmlns="http://www.w3.org/2000/svg" viewBox="0 0 128.16 128.16"><defs><style>.cls-1{fill:#f18a00;}.cls-2{fill:#62bb46;}.cls-3{fill:#00aeef;}</style></defs><path class="cls-1" d="M43.83,70.76H58.67V85.61A2.4,2.4,0,0,0,61,88h7.24a2.4,2.4,0,0,0,2.36-2.35V70.76H85.46a2.4,2.4,0,0,0,2.36-2.35V61.17a2.41,2.41,0,0,0-2.36-2.36H70.62V44a2.4,2.4,0,0,0-2.36-2.35H61A2.39,2.39,0,0,0,58.67,44V58.81H43.83a2.4,2.4,0,0,0-2.36,2.36v7.24A2.4,2.4,0,0,0,43.83,70.76Z"/><path class="cls-2" d="M.56,41.81v44.3a5.68,5.68,0,0,0,5.68,5.67H35.68V40.17a5.92,5.92,0,0,1,1.6-4h-31A5.68,5.68,0,0,0,.56,41.81Z"/><path class="cls-2" d="M13.93,15.11A14.46,14.46,0,1,0,28.38.65,14.47,14.47,0,0,0,13.93,15.11Z"/><path class="cls-3" d="M128.72,123.14V78.84a5.67,5.67,0,0,0-5.67-5.67H95.78v18a6,6,0,0,1-6,6H73.08v26a5.68,5.68,0,0,0,5.67,5.67h44.3A5.68,5.68,0,0,0,128.72,123.14Z"/><path class="cls-3" d="M115.36,52.13a14.41,14.41,0,0,0-19.58-13.5v27a14.43,14.43,0,0,0,19.58-13.51Z"/></svg>