<svg id="Layer_1" data-name="Layer 1" xmlns="http://www.w3.org/2000/svg" viewBox="0 0 128.16 128.16"><defs><style>.cls-1{fill:none;}.cls-2{fill:gray;}.cls-3{fill:#00aeef;}.cls-4{fill:#f18a00;}</style></defs><path class="cls-1" d="M1.08,1.08v126h126V1.08ZM124.38,113.4a9.68,9.68,0,0,1-9.72,9.72H45a9.68,9.68,0,0,1-9.72-9.72V96.48H89.1A6,6,0,0,0,95,90.54V33.84H41.22a6,6,0,0,0-5.94,5.94V96.3h-22A9.68,9.68,0,0,1,3.6,86.58V14.76A9.68,9.68,0,0,1,13.32,5h72A9.68,9.68,0,0,1,95,14.76V33.84h19.8a9.42,9.42,0,0,1,9.54,9.72ZM84.78,58.14a2.38,2.38,0,0,1,2.34,2.34v7.2A2.38,2.38,0,0,1,84.78,70H70V84.78a2.38,2.38,0,0,1-2.34,2.34h-7.2a2.38,2.38,0,0,1-2.34-2.34V70H43.38A2.38,2.38,0,0,1,41,67.68v-7.2a2.38,2.38,0,0,1,2.34-2.34H58.14V43.38A2.38,2.38,0,0,1,60.48,41h7.2A2.38,2.38,0,0,1,70,43.38V58.14Z"/><path class="cls-2" d="M85.32,5h-72A9.68,9.68,0,0,0,3.6,14.76V86.58a9.68,9.68,0,0,0,9.72,9.72h22V39.78a6,6,0,0,1,5.94-5.94H95V14.76A9.68,9.68,0,0,0,85.32,5Z"/><path class="cls-3" d="M114.84,33.84H95v56.7a6,6,0,0,1-5.94,5.94H35.28V113.4A9.68,9.68,0,0,0,45,123.12h69.66a9.68,9.68,0,0,0,9.72-9.72V43.56A9.42,9.42,0,0,0,114.84,33.84Z"/><path class="cls-4" d="M67.68,41h-7.2a2.38,2.38,0,0,0-2.34,2.34V58.14H43.38A2.38,2.38,0,0,0,41,60.48v7.2A2.38,2.38,0,0,0,43.38,70H58.14V84.78a2.38,2.38,0,0,0,2.34,2.34h7.2A2.38,2.38,0,0,0,70,84.78V70H84.78a2.38,2.38,0,0,0,2.34-2.34v-7.2a2.38,2.38,0,0,0-2.34-2.34H70V43.38A2.38,2.38,0,0,0,67.68,41Z"/></svg>