<svg id="Layer_1" data-name="Layer 1" xmlns="http://www.w3.org/2000/svg" viewBox="0 0 128.16 128.16"><defs><style>.cls-1{fill:gray;}.cls-2{fill:#62bb46;}.cls-3{fill:#f18a00;}</style></defs><polygon class="cls-1" points="18.12 50.85 0.5 50.85 0.5 78.6 17.9 78.6 21.98 64.23 18.12 50.85"/><polygon class="cls-1" points="128.79 50.85 111.05 50.85 107.19 64.23 111.26 78.6 128.79 78.6 128.79 50.85"/><path class="cls-2" d="M121.06,113.17l-9.8-34.57-4.07-14.37,3.86-13.38,10-34.54a4.08,4.08,0,0,0-3.84-5.44H90.1V118.58h27.11A4.07,4.07,0,0,0,121.06,113.17Z"/><path class="cls-2" d="M12,10.87a4.08,4.08,0,0,0-3.84,5.44l10,34.54L22,64.23,17.9,78.6,8.1,113.17A4.07,4.07,0,0,0,12,118.58H39.07V10.87Z"/><polygon class="cls-3" points="68.58 68.14 68.58 19.87 60.58 19.87 60.58 68.14 40.65 68.14 64.58 109.58 88.52 68.14 68.58 68.14"/></svg>