<svg id="Layer_1" data-name="Layer 1" xmlns="http://www.w3.org/2000/svg" viewBox="0 0 128.16 128.16"><defs><style>.cls-1{fill:#00aeef;}.cls-2{fill:#fff;}.cls-3{fill:none;}.cls-4{opacity:0.9;}.cls-5{fill:#c32a1f;}</style></defs><rect class="cls-1" x="4.28" y="1.75" width="123.32" height="123.74" rx="9.58"/><path class="cls-2" d="M32.86,114.48s5.14-8.25,18.32-11.35,23.93-3.19,34.32-4c15.86-1.26,20.56-6.94,20.56-6.94s5.82,1.72,10.41-5.47c1.31-2,4-11.63-.28-13a8.71,8.71,0,0,0-3-.45,3.51,3.51,0,0,0-.55,0l-.28,0S100.8,66.46,92.46,56.9c-7-8.06-13.91-14.11-21.58-17.1v-.39c0-18.45-4.13-19.57-7-23.26S50.66,10.92,53.25,16c3.79,7.51-4.76,20.7-4.78,20.74h-.25a17.47,17.47,0,0,0-4.67,1l-.28.13-.35-.24A36,36,0,0,0,36.25,34c-11.39-4.86-15.52-2.67-15.52-2.67a143.17,143.17,0,0,1,.13,14.94v.64s-1.54.81-7.48-.64c0,0,1.89,19.14,11,32.72,13.38,19.84,8.48,35.47,8.48,35.47"/><path class="cls-3" d="M68.36,37.57c-.22-13.07-2.73-15.76-5-18.15-.5-.53-1-1.09-1.52-1.73-1.2-1.55-4.61-2.48-6.24-2.44,3,6.42-.9,15.34-3.43,20a68.34,68.34,0,0,1,14.59,1.87C67.33,37.29,67.85,37.42,68.36,37.57Z"/><path class="cls-3" d="M51,91.34a1.88,1.88,0,1,1,2.79-2.52c.07.08,6.73,7.27,16.21,8.89,3-.26,5.93-.45,8.81-.63,2.18-.14,4.33-.28,6.46-.44,7.52-.6,12.3-2,15.15-3.3-8.93-2.1-17.77-8.16-18.22-8.47a1.88,1.88,0,0,1,2.14-3.09c.12.08,11.08,7.59,20.08,8.43.07,0,.19,0,.45,0s.6,0,.89,0a11.32,11.32,0,0,0,9.31-5c.87-1.66,2-5.64,1.25-8a2.21,2.21,0,0,0-.58-.73l-.09-.08a2.12,2.12,0,0,0-.46-.18c-1.83-.59-3.27-.48-4.39.33-2.63,1.9-2.87,6.45-2.9,8.37a1.88,1.88,0,0,1-1.88,1.86h0a1.88,1.88,0,0,1-1.86-1.9c0-.83.19-7.79,4-11.45a91.52,91.52,0,0,1-17.56-15C83.07,49.89,76.52,44.68,70,42.13a2.13,2.13,0,0,1-.42-.23A30.17,30.17,0,0,0,66,40.84C56.5,38.69,51,39,48,39.61,56.37,48.31,53,58,53,58.09a1.89,1.89,0,0,1-2.42,1.11,1.87,1.87,0,0,1-1.11-2.4c.19-.55,3.37-12.9-14.88-20.79-5.82-2.38-9.37-2.72-11.2-2.64a68.82,68.82,0,0,1-.09,6.89,46.86,46.86,0,0,1,0,7.52c-.58,5,1.43,9.83,5.54,14.9,5.16,6.37,8.1,6.37,9.87,5.81C41.43,67.61,42,65.87,42,65.8a1.85,1.85,0,0,1,2.26-1.36,1.9,1.9,0,0,1,1.38,2.29c-.34,1.41-2,4.11-5.9,5.35a8.24,8.24,0,0,1-2.54.4c-4.74,0-8.68-4.1-11.38-7.43-3.44-4.25-7-9.24-7.06-15.35-.63-.05-1.42-.13-2.42-.28,1,6,3.69,18.63,10.11,28.2,8.25,12.23,9.88,23,9.79,29.8a36.75,36.75,0,0,1,14.36-6.73c3.7-.87,7.19-1.49,10.53-2A36.25,36.25,0,0,1,51,91.34Zm63.51-11.51a1.3,1.3,0,1,1-1.3,1.3A1.3,1.3,0,0,1,114.55,79.83Zm-3.71-.62a1.3,1.3,0,1,1-1.3,1.3A1.3,1.3,0,0,1,110.84,79.21ZM73.5,62.09C77.05,61,79.24,63.32,78,65.37s-3.15,2.32-6.15,1.37a14.16,14.16,0,0,1-5.36-3.56A25.5,25.5,0,0,0,73.5,62.09ZM43.89,56.73a1.87,1.87,0,0,1-1.84,1.5,2.58,2.58,0,0,1-.38,0A1.88,1.88,0,0,1,40.21,56c.06-.29,1.26-6.66-4.06-9.12-1.21-.56-2.1-.92-2.74-1.17a8.57,8.57,0,0,0,.78,3.72,1.9,1.9,0,0,1,0,2.66,1.87,1.87,0,0,1-2.64,0c-1.79-1.79-1.94-6-1.92-7.77a2.18,2.18,0,0,1,.39-2c1.1-1.32,2.91-1,7.73,1.18C44.18,46.42,44.58,53.44,43.89,56.73Z"/><path d="M104.46,90.21l.45,0C104.65,90.17,104.53,90.17,104.46,90.21Z"/><path d="M116.36,77.33l0-.09a1.25,1.25,0,0,0-.64-.72l.09.08A2.21,2.21,0,0,1,116.36,77.33Z"/><path d="M120.49,74.93A5.44,5.44,0,0,0,117,71.35a11.19,11.19,0,0,0-3.87-.58h0c-2.38-1.47-11.77-7.54-18.72-15.51-7.48-8.61-14.19-14.1-21-17.13-.16-14.37-2.83-18.4-6.3-22.12-.45-.48-.87-.93-1.24-1.4-2.61-3.34-10.08-5.69-13.59-3.46-1.56,1-2.7,3.09-1.22,6,2.24,4.44-1.36,12.68-4,17.23a19.38,19.38,0,0,0-3.38.73,39.15,39.15,0,0,0-6.39-3.4c-11.88-5.07-16.8-3-17.67-2.58a2.5,2.5,0,0,0-1.32,2.36c.26,4.35.32,8.76.18,13.12A26.62,26.62,0,0,1,14,43.86a2.5,2.5,0,0,0-3.09,2.67C11,47.34,13,66.46,22.31,80.41c12.45,18.45,8.22,33.13,8.16,33.33a2.51,2.51,0,0,0,1.34,3,2.46,2.46,0,0,0,1.05.23A2.53,2.53,0,0,0,35,115.81c.19-.3,4.87-7.45,16.78-10.25,10.25-2.41,19-3,27.4-3.49,2.21-.14,4.38-.28,6.54-.45,12.9-1,18.94-4.86,21.21-6.78,2.52.18,7.59-.38,11.65-6.75C119.81,86.19,122,79.23,120.49,74.93ZM55.65,15.25c1.63,0,5,.89,6.24,2.44.51.64,1,1.2,1.52,1.73,2.22,2.39,4.73,5.08,5,18.15-.51-.15-1-.28-1.55-.4A68.34,68.34,0,0,0,52.22,35.3C54.75,30.59,58.6,21.67,55.65,15.25Zm59.46,70.07a11.32,11.32,0,0,1-9.31,5c-.29,0-.59,0-.89,0l-.45,0c-9-.84-20-8.35-20.08-8.43a1.88,1.88,0,0,0-2.14,3.09c.45.31,9.29,6.37,18.22,8.47-2.85,1.25-7.63,2.7-15.15,3.3-2.13.16-4.28.3-6.46.44-2.88.18-5.81.37-8.81.63-9.48-1.62-16.14-8.81-16.21-8.89A1.88,1.88,0,1,0,51,91.34a36.25,36.25,0,0,0,10.1,7.38c-3.34.48-6.83,1.1-10.53,2a36.75,36.75,0,0,0-14.36,6.73c.09-6.84-1.54-17.57-9.79-29.8C20,68.05,17.33,55.39,16.35,49.42c1,.15,1.79.23,2.42.28,0,6.11,3.62,11.1,7.06,15.35,2.7,3.33,6.64,7.43,11.38,7.43a8.24,8.24,0,0,0,2.54-.4c3.93-1.24,5.56-3.94,5.9-5.35a1.9,1.9,0,0,0-1.38-2.29A1.85,1.85,0,0,0,42,65.8c0,.07-.58,1.81-3.39,2.69-1.77.56-4.71.56-9.87-5.81-4.11-5.07-6.12-9.92-5.54-14.9a46.86,46.86,0,0,0,0-7.52,68.82,68.82,0,0,0,.09-6.89c1.83-.08,5.38.26,11.2,2.64C52.79,43.9,49.61,56.25,49.42,56.8a1.87,1.87,0,0,0,1.11,2.4A1.89,1.89,0,0,0,53,58.09C53,58,56.37,48.31,48,39.61c2.93-.6,8.48-.92,18,1.23a30.17,30.17,0,0,1,3.57,1.06,2.13,2.13,0,0,0,.42.23c6.55,2.55,13.1,7.76,20.61,16.41a91.52,91.52,0,0,0,17.56,15c-3.77,3.66-4,10.62-4,11.45A1.88,1.88,0,0,0,106,86.9h0A1.88,1.88,0,0,0,107.94,85c0-1.92.27-6.47,2.9-8.37,1.12-.81,2.56-.92,4.39-.33a2.12,2.12,0,0,1,.46.18,1.25,1.25,0,0,1,.64.72l0,.09C117.14,79.68,116,83.66,115.11,85.32Z"/><path d="M37.73,43.44c-4.82-2.23-6.63-2.5-7.73-1.18a2.18,2.18,0,0,0-.39,2c0,1.79.13,6,1.92,7.77a1.87,1.87,0,0,0,2.64,0,1.9,1.9,0,0,0,0-2.66,8.57,8.57,0,0,1-.78-3.72c.64.25,1.53.61,2.74,1.17,5.32,2.46,4.12,8.83,4.06,9.12a1.88,1.88,0,0,0,1.46,2.22,2.58,2.58,0,0,0,.38,0,1.87,1.87,0,0,0,1.84-1.5C44.58,53.44,44.18,46.42,37.73,43.44Z"/><path d="M78,65.37c1.23-2.05-1-4.37-4.51-3.28a25.5,25.5,0,0,1-7,1.09,14.16,14.16,0,0,0,5.36,3.56C74.86,67.69,76.78,67.42,78,65.37Z"/><path d="M110.84,81.81a1.3,1.3,0,1,0-1.3-1.3A1.3,1.3,0,0,0,110.84,81.81Z"/><path d="M114.55,82.43a1.3,1.3,0,1,0-1.3-1.3A1.3,1.3,0,0,0,114.55,82.43Z"/><g class="cls-4"><circle class="cls-5" cx="28.37" cy="101.19" r="26.51"/></g><rect class="cls-2" x="23.42" y="80.08" width="9.9" height="27.23" rx="2.48"/><circle class="cls-2" cx="28.37" cy="117.21" r="4.95"/></svg>