<?xml version="1.0" encoding="utf-8"?>
<!-- Generator: Adobe Illustrator 24.3.0, SVG Export Plug-In . SVG Version: 6.00 Build 0)  -->
<svg version="1.1" id="Layer_1" xmlns="http://www.w3.org/2000/svg" xmlns:xlink="http://www.w3.org/1999/xlink" x="0px" y="0px"
	 viewBox="0 0 128.2 128.2" style="enable-background:new 0 0 128.2 128.2;" xml:space="preserve">
<style type="text/css">
	.st0{fill:#00AEEF;}
	.st1{fill:#62BB46;}
</style>
<g>
	<circle class="st0" cx="23.3" cy="23.7" r="22.8"/>
	<circle class="st1" cx="104.8" cy="23.7" r="22.8"/>
	<polygon points="75.5,22.7 50.4,37 57.4,23.3 50.4,9.6 	"/>
	<path d="M89.8,73.4H65.6V60.2H82c0.8,0,1.5-0.7,1.5-1.5s-0.7-1.5-1.5-1.5H46.2c-0.8,0-1.5,0.7-1.5,1.5s0.7,1.5,1.5,1.5h16.4v13.2
		H37.9c-0.6,0-1,0.4-1,1v51.9c0,0.6,0.4,1,1,1h51.9c0.6,0,1-0.4,1-1V74.4C90.8,73.9,90.3,73.4,89.8,73.4z M88.8,125.3H38.9V75.4
		h49.9V125.3z"/>
</g>
<g>
	<path d="M51.5,113.5V86.9h8l4.8,18.1l4.8-18.1h8v26.6h-5V92.6l-5.3,20.9h-5.2l-5.3-20.9v20.9H51.5z"/>
</g>
</svg>
