<svg id="Layer_1" data-name="Layer 1" xmlns="http://www.w3.org/2000/svg" viewBox="0 0 128.16 128.16"><defs><style>.cls-1{fill:#b1d89b;}.cls-2{fill:#62bb46;}.cls-3{fill:#00aeef;}.cls-4{fill:#fff;}.cls-5{fill:#6d6e70;}</style></defs><path class="cls-1" d="M125.91,10.8a7.43,7.43,0,0,0-7.43-7.43H11A7.44,7.44,0,0,0,3.54,10.8V40H125.91ZM98,31.92c-8.33,0-15.11-5.24-15.11-11.67S89.64,8.58,98,8.58s15.1,5.23,15.1,11.67S106.29,31.92,98,31.92Z"/><rect class="cls-2" x="3.54" y="46.14" width="122.37" height="37.24"/><path class="cls-3" d="M3.54,118.63A7.44,7.44,0,0,0,11,126.06h107.5a7.45,7.45,0,0,0,7.43-7.36V89.51H3.54Z"/><path class="cls-3" d="M98,12.62c-6,0-11.07,3.49-11.07,7.63S92,27.88,98,27.88,109,24.39,109,20.25,104,12.62,98,12.62Z"/><path class="cls-4" d="M98,8.58c-8.33,0-15.11,5.23-15.11,11.67S89.64,31.92,98,31.92s15.1-5.24,15.1-11.67S106.29,8.58,98,8.58ZM86.9,20.25c0-4.14,5.07-7.63,11.07-7.63S109,16.11,109,20.25,104,27.88,98,27.88,86.9,24.39,86.9,20.25Z"/><path class="cls-5" d="M118.48,2.07H11A8.74,8.74,0,0,0,2.25,10.8V118.63A8.74,8.74,0,0,0,11,127.35h107.5a8.74,8.74,0,0,0,8.72-8.64V10.8A8.74,8.74,0,0,0,118.48,2.07Zm7.43,38V118.7a7.45,7.45,0,0,1-7.43,7.36H11a7.44,7.44,0,0,1-7.44-7.43V10.8A7.44,7.44,0,0,1,11,3.37h107.5a7.43,7.43,0,0,1,7.43,7.43Z"/></svg>