<?xml version="1.0" encoding="UTF-8"?><svg id="Layer_1" xmlns="http://www.w3.org/2000/svg" xmlns:xlink="http://www.w3.org/1999/xlink" viewBox="0 0 128.16 128.16"><defs><style>.cls-1{fill:#62bb46;}.cls-2{fill:url(#linear-gradient);opacity:.8;}.cls-3{fill:#fff;stroke:#fff;stroke-miterlimit:10;stroke-width:5.98px;}.cls-4,.cls-5{fill:#fcc900;}.cls-5{opacity:.34;stroke:gray;stroke-linecap:square;stroke-linejoin:bevel;stroke-width:1.62px;}.cls-6{fill:#f18a00;}.cls-7{fill:#f18a00;}</style><linearGradient id="linear-gradient" x1="8.51" y1="57.16" x2="102.17" y2="57.16" gradientUnits="userSpaceOnUse"><stop offset=".54" stop-color="#fff"/><stop offset="1" stop-color="#fff" stop-opacity="0"/></linearGradient></defs><polygon class="cls-4" points="8.51 1.08 91.99 5.33 91.99 113.23 8.51 94.09 8.51 1.08"/><polygon class="cls-4" points="91.99 69.22 102.17 70.99 102.17 109.11 91.99 107.34 91.99 69.22"/><path class="cls-2" d="M8.51,1.08l83.48,4.25v107.91L8.51,94.09V1.08ZM91.99,107.34l10.18,1.77v-38.11l-10.18-1.77v38.11Z"/><path class="cls-3" d="M108.33,19.06l-36.91-3.23c-2.77-.24-4.61,1.44-4.61,4.21v36.91c0,2.77,1.85,4.78,4.61,5.02l36.91,3.23c2.77.24,4.61-1.44,4.61-4.21V24.08c0-2.77-1.85-4.78-4.61-5.02ZM108.33,60.59l-36.91-3.23V20.44l36.91,3.23v36.91Z"/><path class="cls-3" d="M98.26,69.79l-36.91-3.23s0,0,0,0V29.64c0-2.77-1.85-4.78-4.61-5.02l-36.91-3.23c-2.77-.24-4.61,1.44-4.61,4.21v78.44c0,2.77,1.85,4.78,4.61,5.02l78.44,6.86c2.77.24,4.61-1.44,4.61-4.21v-36.91c0-2.77-1.85-4.78-4.61-5.02ZM56.74,107.68l-36.91-3.23v-36.91l36.91,3.23v36.91ZM56.74,66.15l-36.91-3.23V26.01l36.91,3.23v36.91ZM98.26,111.32l-36.91-3.23v-36.91l36.91,3.23v36.91Z"/><polygon class="cls-3" points="94.21 36.56 85.55 35.81 85.55 44.47 94.21 45.22 94.21 36.56"/><path class="cls-1" d="M108.33,19.06l-36.91-3.23c-2.77-.24-4.61,1.44-4.61,4.21v36.91c0,2.77,1.85,4.78,4.61,5.02l36.91,3.23c2.77.24,4.61-1.44,4.61-4.21V24.08c0-2.77-1.85-4.78-4.61-5.02ZM108.33,60.59l-36.91-3.23V20.44l36.91,3.23v36.91Z"/><path class="cls-6" d="M98.26,69.79l-36.91-3.23s0,0,0,0V29.64c0-2.77-1.85-4.78-4.61-5.02l-36.91-3.23c-2.77-.24-4.61,1.44-4.61,4.21v78.44c0,2.77,1.85,4.78,4.61,5.02l78.44,6.86c2.77.24,4.61-1.44,4.61-4.21v-36.91c0-2.77-1.85-4.78-4.61-5.02ZM56.74,107.68l-36.91-3.23v-36.91l36.91,3.23v36.91ZM56.74,66.15l-36.91-3.23V26.01l36.91,3.23v36.91ZM98.26,111.32l-36.91-3.23v-36.91l36.91,3.23v36.91Z"/><polygon class="cls-7" points="94.21 36.56 85.55 35.81 85.55 44.47 94.21 45.22 94.21 36.56"/><polygon class="cls-4" points="8.51 1.08 38.7 20.91 38.7 118.55 38.7 127.08 8.51 98.72 8.51 1.08"/><polyline class="cls-5" points="9.95 2.03 38.7 20.91 38.7 118.55 38.7 127.08 9.41 99.75"/></svg>