<?xml version="1.0" encoding="UTF-8"?><svg id="Layer_1" xmlns="http://www.w3.org/2000/svg" viewBox="0 0 128.16 128.16"><defs><style>.cls-1{fill:#62bb46;}.cls-2{fill:#f18a00;}</style></defs><rect class="cls-2" x="88.8" y="24.54" width="14.91" height="14.91"/><path class="cls-1" d="M119.4,2.97h-46.14c-3.46,0-5.77,2.31-5.77,5.77v46.14c0,3.46,2.31,5.77,5.77,5.77h46.14c3.46,0,5.77-2.31,5.77-5.77V8.74c0-3.46-2.31-5.77-5.77-5.77ZM119.4,54.88h-46.14V8.74h46.14v46.14Z"/><path class="cls-2" d="M106.81,67.48h-46.14s0,0,0,0V21.34c0-3.46-2.31-5.77-5.77-5.77H8.76c-3.46,0-5.77,2.31-5.77,5.77v98.06c0,3.46,2.31,5.77,5.77,5.77h98.05c3.46,0,5.77-2.31,5.77-5.77v-46.14c0-3.46-2.31-5.77-5.77-5.77ZM54.9,119.39H8.76v-46.14h46.14v46.14ZM54.9,67.48H8.76V21.34h46.14v46.14ZM106.81,119.39h-46.14v-46.14h46.14v46.14Z"/></svg>