<svg id="Layer_1" data-name="Layer 1" xmlns="http://www.w3.org/2000/svg" viewBox="0 0 128.16 128.16"><defs><style>.cls-1{fill:#f18a00;}.cls-2{fill:gray;}.cls-3{fill:#62bb46;stroke:#fff;stroke-miterlimit:10;stroke-width:3px;opacity:0.85;}.cls-4{font-size:32px;font-family:Arial-Black, Arial Black;letter-spacing:0.11em;}.cls-4,.cls-7{fill:#fff;}.cls-5{opacity:0.9;}.cls-6{fill:#c32a1f;}</style></defs><title>MoleculeStartValuesRed</title><path class="cls-1" d="M58.92,10.69a13.46,13.46,0,0,1,.88-5.33,6.82,6.82,0,0,1,2.63-3.11,8.16,8.16,0,0,1,4.4-1.09,9,9,0,0,1,3.42.6A6.26,6.26,0,0,1,72.68,3.5a8.51,8.51,0,0,1,1.51,2.78,14.47,14.47,0,0,1,.55,4.41,13.52,13.52,0,0,1-.88,5.3,6.78,6.78,0,0,1-2.62,3.12,8.19,8.19,0,0,1-4.41,1.1,7.62,7.62,0,0,1-5.52-1.93C59.72,16.72,58.92,14.2,58.92,10.69Zm3,0q0,4.59,1.41,6.12a4.66,4.66,0,0,0,6.9,0q1.39-1.53,1.39-6.11T70.28,4.57a4.58,4.58,0,0,0-3.49-1.52,4.21,4.21,0,0,0-3.27,1.34Q62,6.1,62,10.69Z"/><path class="cls-1" d="M66.83,21.37a8.76,8.76,0,0,1-6.32-2.26c-1.83-1.78-2.75-4.61-2.75-8.42a14.64,14.64,0,0,1,1-5.79,8,8,0,0,1,3.08-3.63,9.34,9.34,0,0,1,5-1.27,10.14,10.14,0,0,1,3.86.69,7.48,7.48,0,0,1,2.88,2.07,9.81,9.81,0,0,1,1.72,3.15,15.73,15.73,0,0,1,.6,4.78,14.6,14.6,0,0,1-1,5.76,8,8,0,0,1-3.07,3.64A9.27,9.27,0,0,1,66.83,21.37ZM63.06,3.22h0a5.66,5.66,0,0,0-2.18,2.6,12.43,12.43,0,0,0-.79,4.86c0,3.16.69,5.44,2,6.76a5.11,5.11,0,0,0,1.17.84,5.53,5.53,0,0,1-.76-.7c-1.15-1.25-1.71-3.5-1.71-6.9s.6-5.7,1.84-7.08C62.79,3.48,62.92,3.34,63.06,3.22Zm7.34-.11a6.43,6.43,0,0,1,.72.67c1.15,1.25,1.71,3.51,1.71,6.91s-.56,5.64-1.7,6.89a6.61,6.61,0,0,1-.73.68l.22-.13a5.55,5.55,0,0,0,2.18-2.6,12.45,12.45,0,0,0,.78-4.84,13.23,13.23,0,0,0-.49-4A7.18,7.18,0,0,0,71.8,4.25,4.87,4.87,0,0,0,70.4,3.11Zm-3.61,1.1a3.07,3.07,0,0,0-2.42,1c-.56.62-1.24,2.09-1.24,5.52,0,3.61.69,4.89,1.1,5.33a3.5,3.5,0,0,0,5.19,0c.41-.45,1.1-1.73,1.1-5.33s-.69-4.9-1.09-5.34A3.42,3.42,0,0,0,66.79,4.21Z"/><path d="M82,19.89V1.23h3.21V8.9H97.83V1.23H101V19.89H97.83V11.1H85.22v8.79Z"/><path d="M102.19,21.05H96.67v-8.8H86.37v8.8H80.85V.08h5.52V7.74h10.3V.08h5.52ZM99,18.74h.9V2.39H99Zm-15.82,0h.9V2.39h-.9Z"/><path class="cls-1" d="M3.07,10.69A13.44,13.44,0,0,1,4,5.36,6.82,6.82,0,0,1,6.59,2.25,8.16,8.16,0,0,1,11,1.16a9,9,0,0,1,3.42.6A6.26,6.26,0,0,1,16.84,3.5a8.51,8.51,0,0,1,1.51,2.78,14.47,14.47,0,0,1,.55,4.41A13.52,13.52,0,0,1,18,16a6.78,6.78,0,0,1-2.62,3.12A8.19,8.19,0,0,1,11,20.21a7.62,7.62,0,0,1-5.52-1.93C3.88,16.72,3.07,14.2,3.07,10.69Zm3.06,0q0,4.59,1.41,6.12A4.51,4.51,0,0,0,11,18.33a4.48,4.48,0,0,0,3.44-1.53c.94-1,1.4-3.06,1.4-6.11s-.46-5.11-1.4-6.12A4.54,4.54,0,0,0,11,3.05,4.21,4.21,0,0,0,7.68,4.39Q6.14,6.1,6.13,10.69Z"/><path class="cls-1" d="M11,21.37a8.75,8.75,0,0,1-6.32-2.26c-1.83-1.78-2.75-4.61-2.75-8.42a14.43,14.43,0,0,1,1-5.79A8,8,0,0,1,6,1.27,9.34,9.34,0,0,1,11,0a10.14,10.14,0,0,1,3.86.69,7.37,7.37,0,0,1,2.87,2.07,9.64,9.64,0,0,1,1.73,3.15,15.78,15.78,0,0,1,.6,4.78,14.78,14.78,0,0,1-1,5.76A8,8,0,0,1,16,20.09,9.29,9.29,0,0,1,11,21.37ZM7.22,3.22h0A5.61,5.61,0,0,0,5,5.83a12.43,12.43,0,0,0-.79,4.86c0,3.16.69,5.44,2.05,6.76a5.24,5.24,0,0,0,1.17.85,7.28,7.28,0,0,1-.77-.71C5.54,16.34,5,14.09,5,10.69S5.58,5,6.82,3.61C7,3.48,7.08,3.34,7.22,3.22Zm7.33-.11a5.74,5.74,0,0,1,.73.67C16.43,5,17,7.28,17,10.69s-.56,5.64-1.7,6.89a6.61,6.61,0,0,1-.73.68l.22-.13A5.61,5.61,0,0,0,17,15.53a12.45,12.45,0,0,0,.78-4.84,13.23,13.23,0,0,0-.49-4A7.36,7.36,0,0,0,16,4.25,4.91,4.91,0,0,0,14.55,3.11ZM11,4.21a3.07,3.07,0,0,0-2.42,1C8,5.79,7.29,7.26,7.29,10.69c0,3.61.69,4.89,1.09,5.33A3.35,3.35,0,0,0,11,17.17,3.33,3.33,0,0,0,13.58,16c.41-.45,1.1-1.73,1.1-5.33S14,5.79,13.59,5.35A3.42,3.42,0,0,0,11,4.21Z"/><path class="cls-1" d="M77.45,41.2a13.48,13.48,0,0,1,.89-5.33A6.76,6.76,0,0,1,81,32.76a8.1,8.1,0,0,1,4.39-1.09,9.09,9.09,0,0,1,3.43.6A6.28,6.28,0,0,1,91.22,34a8.46,8.46,0,0,1,1.51,2.77,14.51,14.51,0,0,1,.54,4.41,13.33,13.33,0,0,1-.88,5.3,6.72,6.72,0,0,1-2.62,3.12,8.06,8.06,0,0,1-4.41,1.1,7.6,7.6,0,0,1-5.51-1.93Q77.45,46.47,77.45,41.2Zm3.06,0c0,3.07.47,5.1,1.4,6.12a4.66,4.66,0,0,0,6.9,0c.93-1,1.4-3.05,1.4-6.11s-.47-5.11-1.4-6.12a4.54,4.54,0,0,0-3.48-1.52,4.24,4.24,0,0,0-3.28,1.34C81,36,80.51,38.14,80.51,41.2Z"/><path class="cls-1" d="M85.36,51.88a8.72,8.72,0,0,1-6.31-2.26C77.22,47.84,76.3,45,76.3,41.2a14.43,14.43,0,0,1,1-5.79,8,8,0,0,1,3.07-3.63,9.36,9.36,0,0,1,5-1.27,10.07,10.07,0,0,1,3.86.69,7.4,7.4,0,0,1,2.88,2.07,9.45,9.45,0,0,1,1.72,3.15,15.74,15.74,0,0,1,.61,4.78,14.78,14.78,0,0,1-1,5.76,8,8,0,0,1-3.07,3.64A9.3,9.3,0,0,1,85.36,51.88ZM81.59,33.73h0a5.62,5.62,0,0,0-2.19,2.6,12.45,12.45,0,0,0-.78,4.86c0,3.17.69,5.44,2,6.76a5.47,5.47,0,0,0,1.17.85,7.19,7.19,0,0,1-.76-.71c-1.15-1.24-1.71-3.5-1.71-6.9s.61-5.7,1.84-7.07C81.32,34,81.46,33.86,81.59,33.73Zm7.34-.11a6.61,6.61,0,0,1,.73.68c1.15,1.24,1.7,3.5,1.7,6.9s-.55,5.64-1.7,6.89a5.83,5.83,0,0,1-.73.68l.23-.13A5.61,5.61,0,0,0,91.34,46a12.64,12.64,0,0,0,.78-4.84,13.55,13.55,0,0,0-.49-4.05,7.36,7.36,0,0,0-1.29-2.39A5.05,5.05,0,0,0,88.93,33.62Zm-3.6,1.1a3.11,3.11,0,0,0-2.43,1c-.56.62-1.23,2.09-1.23,5.52,0,3.61.68,4.89,1.09,5.33a3.51,3.51,0,0,0,5.2,0c.41-.44,1.09-1.73,1.09-5.33s-.68-4.9-1.09-5.34A3.4,3.4,0,0,0,85.33,34.72Z"/><path class="cls-1" d="M99.4,117.4a13.46,13.46,0,0,1,.88-5.33,6.82,6.82,0,0,1,2.63-3.11,8.16,8.16,0,0,1,4.4-1.1,9,9,0,0,1,3.42.61,6.26,6.26,0,0,1,2.43,1.74,8.16,8.16,0,0,1,1.51,2.78,14.47,14.47,0,0,1,.55,4.41,13.52,13.52,0,0,1-.88,5.3,6.77,6.77,0,0,1-2.62,3.12,8.19,8.19,0,0,1-4.41,1.1,7.63,7.63,0,0,1-5.52-1.94Q99.41,122.66,99.4,117.4Zm3.06,0c0,3.06.46,5.1,1.4,6.12a4.66,4.66,0,0,0,6.9,0q1.39-1.53,1.39-6.11t-1.39-6.12a4.56,4.56,0,0,0-3.49-1.52A4.22,4.22,0,0,0,104,111.1Q102.46,112.81,102.46,117.4Z"/><path class="cls-1" d="M107.31,128.08a8.76,8.76,0,0,1-6.32-2.26c-1.82-1.78-2.75-4.61-2.75-8.42a14.24,14.24,0,0,1,1-5.79A7.89,7.89,0,0,1,102.3,108a9.34,9.34,0,0,1,5-1.27,10.14,10.14,0,0,1,3.86.69,7.38,7.38,0,0,1,2.88,2.07,9.63,9.63,0,0,1,1.72,3.15,15.73,15.73,0,0,1,.6,4.78,14.6,14.6,0,0,1-1,5.76,7.93,7.93,0,0,1-3.06,3.63A9.3,9.3,0,0,1,107.31,128.08Zm-3.77-18.15h0a5.66,5.66,0,0,0-2.18,2.6,12.4,12.4,0,0,0-.79,4.86c0,3.16.69,5.44,2,6.76a5.43,5.43,0,0,0,1.17.84,5.53,5.53,0,0,1-.76-.7c-1.15-1.25-1.71-3.5-1.71-6.9s.6-5.7,1.84-7.08A4.89,4.89,0,0,1,103.54,109.93Zm7.34-.11a7.51,7.51,0,0,1,.73.67c1.14,1.25,1.7,3.5,1.7,6.91s-.56,5.64-1.7,6.89a6.61,6.61,0,0,1-.73.68l.22-.13a5.55,5.55,0,0,0,2.18-2.6,12.45,12.45,0,0,0,.78-4.84,13.23,13.23,0,0,0-.49-4.05,7.08,7.08,0,0,0-1.29-2.39A4.71,4.71,0,0,0,110.88,109.82Zm-3.61,1.1a3.09,3.09,0,0,0-2.42,1c-.56.62-1.24,2.09-1.24,5.52,0,3.61.69,4.89,1.1,5.33a3.5,3.5,0,0,0,5.19,0c.41-.45,1.1-1.73,1.1-5.33s-.69-4.9-1.09-5.34A3.4,3.4,0,0,0,107.27,110.92Z"/><path class="cls-2" d="M37.54,64.34a3,3,0,0,1-3-3V39.08L19.61,24.67a3,3,0,0,1,4.23-4.37L39.4,35.37a3,3,0,0,1,.68,1l.25.58a3.11,3.11,0,0,1,.25,1.2V61.3A3,3,0,0,1,37.54,64.34Z"/><path class="cls-2" d="M21.53,47.15a3,3,0,0,1-2.1-.84l-9.27-8.87a3,3,0,1,1,4.2-4.39l9.27,8.87a3,3,0,0,1-2.1,5.23Z"/><path class="cls-2" d="M37.53,41.17a3,3,0,0,1-1.19-.25,3,3,0,0,1-1.6-4l.25-.57a3.07,3.07,0,0,1,.68-1L51.23,20.3a3,3,0,1,1,4.23,4.37L40.33,39.33A3,3,0,0,1,37.53,41.17Z"/><path class="cls-2" d="M62.66,103.27a3,3,0,0,1-3-3V76.09a2.93,2.93,0,0,1,.25-1.2l.24-.58a3,3,0,0,1,.68-1L76.36,58.26a3,3,0,1,1,4.23,4.36L65.7,77v23.19A3,3,0,0,1,62.66,103.27Z"/><path class="cls-2" d="M107.39,103.27a3,3,0,0,1-3-3V76.09a3.1,3.1,0,0,1,.24-1.2l.25-.58a3,3,0,0,1,.68-1l15.56-15.07a3,3,0,1,1,4.23,4.36L110.43,77v23.19A3,3,0,0,1,107.39,103.27Z"/><path class="cls-2" d="M107.39,103.27a3,3,0,0,1-3-3V77L89.46,62.62a3,3,0,1,1,4.23-4.36l15.56,15.07a3,3,0,0,1,.68,1l.25.58a3.11,3.11,0,0,1,.25,1.2v24.14A3,3,0,0,1,107.39,103.27Z"/><path class="cls-2" d="M90.25,101.8a3,3,0,0,1-3-3V83.22a3,3,0,0,1,6.08,0V98.76A3,3,0,0,1,90.25,101.8Z"/><path class="cls-2" d="M37.54,117.67a3,3,0,0,1-1.51-.4L11.15,103.06a2.71,2.71,0,0,1-.35-.24l-.25-.19a3,3,0,0,1-1.18-2.4V75.72a3.05,3.05,0,0,1,1.11-2.35l.24-.2a4.15,4.15,0,0,1,.43-.3L36,58.66a3,3,0,0,1,3,0L63.92,72.87a4.15,4.15,0,0,1,.43.3l.24.2a3.05,3.05,0,0,1,1.11,2.35v24.51a3,3,0,0,1-1.18,2.4l-.25.2-.35.23L39,117.27A3,3,0,0,1,37.54,117.67ZM15.45,98.51l22.09,12.62L59.62,98.51V77.42L37.54,64.8,15.45,77.42Z"/><path class="cls-2" d="M48,85.17a3,3,0,0,1-1.48-.38L36.3,79.1a3,3,0,0,1,3-5.31l10.18,5.69A3,3,0,0,1,48,85.17Z"/><path class="cls-2" d="M27.46,96.6a3,3,0,0,1-3-3L24.2,82a3,3,0,0,1,6.08-.12l.23,11.65a3,3,0,0,1-3,3.1Z"/><path class="cls-2" d="M37.19,103a3,3,0,0,1-1.52-5.68l10.1-5.81a3,3,0,0,1,3,5.28l-10.1,5.8A3,3,0,0,1,37.19,103Z"/><path class="cls-3" d="M0,13.13H93.3a9.15,9.15,0,0,1,9.14,9.14V43.51a9.14,9.14,0,0,1-9.14,9.14H0"/><text class="cls-4" transform="translate(7.55 45.14)">MSV</text><g class="cls-5"><circle class="cls-6" cx="26.51" cy="101.65" r="26.51"/></g><rect class="cls-7" x="21.56" y="80.54" width="9.9" height="27.23" rx="2.48" ry="2.48"/><circle class="cls-7" cx="26.51" cy="117.67" r="4.95"/></svg>