<svg id="Layer_1" data-name="Layer 1" xmlns="http://www.w3.org/2000/svg" viewBox="0 0 128.16 128.16"><defs><style>.cls-1{fill:#f18a00;}.cls-2{fill:gray;}.cls-3{fill:#62bb46;}.cls-3,.cls-4{opacity:0.85;}.cls-4,.cls-5{fill:#fff;}</style></defs><path class="cls-1" d="M74.47,7.51a9.61,9.61,0,0,0-1.69-3.1,7.29,7.29,0,0,0-2.83-2,10,10,0,0,0-3.8-.68A9.14,9.14,0,0,0,61.22,3a7.79,7.79,0,0,0-3,3.57,14,14,0,0,0-1,5.7c0,3.74.91,6.53,2.7,8.27a8.6,8.6,0,0,0,6.22,2.23,9.17,9.17,0,0,0,4.94-1.26,7.87,7.87,0,0,0,3-3.58,14.52,14.52,0,0,0,1-5.66A15.63,15.63,0,0,0,74.47,7.51ZM63.73,6.78a3.05,3.05,0,0,1,2.38-.94A3.32,3.32,0,0,1,68.7,7c.4.44,1.08,1.7,1.08,5.26S69.1,17,68.7,17.46a3.45,3.45,0,0,1-5.11,0c-.4-.44-1.08-1.7-1.08-5.24C62.51,8.84,63.18,7.39,63.73,6.78Z"/><polygon points="95.51 1.77 95.51 9.31 85.38 9.31 85.38 1.77 79.95 1.77 79.95 22.41 85.38 22.41 85.38 13.75 95.51 13.75 95.51 22.41 100.94 22.41 100.94 1.77 95.51 1.77"/><path class="cls-1" d="M19.53,7.51a9.24,9.24,0,0,0-1.69-3.1,7.29,7.29,0,0,0-2.83-2,10,10,0,0,0-3.8-.68A9.18,9.18,0,0,0,6.28,3a7.85,7.85,0,0,0-3,3.57,14.15,14.15,0,0,0-1,5.7c0,3.74.91,6.53,2.71,8.27a8.59,8.59,0,0,0,6.21,2.23,9.21,9.21,0,0,0,4.95-1.26,7.85,7.85,0,0,0,3-3.58,14.33,14.33,0,0,0,1-5.66A15.29,15.29,0,0,0,19.53,7.51ZM8.79,6.78a3.09,3.09,0,0,1,2.39-.94A3.34,3.34,0,0,1,13.77,7c.4.44,1.07,1.7,1.07,5.26s-.67,4.8-1.07,5.24a3.32,3.32,0,0,1-2.56,1.13,3.32,3.32,0,0,1-2.56-1.13c-.4-.44-1.08-1.7-1.08-5.24C7.57,8.84,8.24,7.39,8.79,6.78Z"/><path class="cls-1" d="M92.7,37.53A9.24,9.24,0,0,0,91,34.43a7.41,7.41,0,0,0-2.83-2,10,10,0,0,0-3.8-.68A9.19,9.19,0,0,0,79.45,33a7.78,7.78,0,0,0-3,3.56,14.21,14.21,0,0,0-1,5.7c0,3.75.91,6.54,2.71,8.28a8.59,8.59,0,0,0,6.21,2.22,9.21,9.21,0,0,0,5-1.25,7.85,7.85,0,0,0,3-3.58,14.38,14.38,0,0,0,1-5.67A15.26,15.26,0,0,0,92.7,37.53ZM82,36.8a3.06,3.06,0,0,1,2.39-.95A3.35,3.35,0,0,1,86.94,37c.4.43,1.07,1.69,1.07,5.25s-.67,4.81-1.07,5.25a3.46,3.46,0,0,1-5.12,0c-.4-.44-1.08-1.7-1.08-5.25C80.74,38.86,81.41,37.41,82,36.8Z"/><path class="cls-1" d="M114.29,112.49a9.34,9.34,0,0,0-1.69-3.1,7.29,7.29,0,0,0-2.83-2,10,10,0,0,0-3.8-.68,9.18,9.18,0,0,0-4.93,1.25,7.85,7.85,0,0,0-3,3.57,14.13,14.13,0,0,0-1,5.69c0,3.75.91,6.54,2.71,8.28A8.59,8.59,0,0,0,106,127.7a9.21,9.21,0,0,0,5-1.26,7.85,7.85,0,0,0,3-3.58,14.35,14.35,0,0,0,1-5.67A15.26,15.26,0,0,0,114.29,112.49Zm-10.74-.73a3.09,3.09,0,0,1,2.39-.94,3.34,3.34,0,0,1,2.59,1.12c.4.44,1.07,1.69,1.07,5.25s-.67,4.81-1.07,5.25a3.46,3.46,0,0,1-5.12,0c-.4-.44-1.08-1.7-1.08-5.25C102.33,113.82,103,112.37,103.55,111.76Z"/><path class="cls-2" d="M19.51,47.26a3,3,0,0,0,2.07.83,3,3,0,0,0,2.16-.93,3,3,0,0,0-.09-4.23l-9.12-8.72a3,3,0,1,0-4.13,4.32Z"/><path class="cls-2" d="M75.52,59,61.64,72.45,40.32,60.27V40.15L55,26a3,3,0,1,0-4.16-4.29l-13.48,13-13.48-13A3,3,0,1,0,19.69,26L34.34,40.15V60.27l-23,13.12a3.52,3.52,0,0,0-.42.29l-.24.2a3,3,0,0,0-1.09,2.31V100.3a3,3,0,0,0,1.16,2.37l.24.19.35.23,24.48,14a2.94,2.94,0,0,0,3,0l24.48-14,.35-.23.24-.19.11-.12a3.45,3.45,0,0,0,.28-.26l.17-.21a3.28,3.28,0,0,0,.2-.31,2.53,2.53,0,0,0,.12-.23,2.46,2.46,0,0,0,.14-.38c0-.07,0-.14.07-.22a2.76,2.76,0,0,0,0-.51.51.51,0,0,0,0-.13V77.49L79.68,63.31A3,3,0,0,0,75.52,59ZM37.33,111,15.6,98.61V77.86L37.33,65.45,59.06,77.86V98.62Z"/><path class="cls-2" d="M123.75,59.08a3,3,0,0,0-4.22-.07L106.05,72.06,92.57,59a3,3,0,0,0-4.16,4.3l14.65,14.18V100.3a3,3,0,0,0,6,0V77.49l14.65-14.18A3,3,0,0,0,123.75,59.08Z"/><path class="cls-2" d="M89.19,80.58a3,3,0,0,0-3,3V98.86a3,3,0,0,0,6,0V83.57A3,3,0,0,0,89.19,80.58Z"/><path class="cls-2" d="M49,79.89,39,74.3a3,3,0,0,0-2.92,5.22l10,5.59A3,3,0,0,0,49,79.89Z"/><path class="cls-2" d="M27.2,79.29h-.05a3,3,0,0,0-2.94,3l.22,11.46a3,3,0,0,0,3,2.93h.06a3,3,0,0,0,2.93-3l-.22-11.46A3,3,0,0,0,27.2,79.29Z"/><path class="cls-2" d="M45.43,91.68l-9.94,5.71a3,3,0,1,0,3,5.19l9.94-5.72a3,3,0,1,0-3-5.18Z"/><path class="cls-3" d="M93.94,51.8a7.65,7.65,0,0,0,7.65-7.64V22.92a7.65,7.65,0,0,0-7.65-7.64H.65v-1.5h0V53.3h0V51.8Z"/><path class="cls-4" d="M93.94,12.28H.65v3H93.94a7.65,7.65,0,0,1,7.65,7.64V44.16a7.65,7.65,0,0,1-7.65,7.64H.65v3H93.94a10.66,10.66,0,0,0,10.65-10.64V22.92A10.66,10.66,0,0,0,93.94,12.28Z"/><path class="cls-5" d="M10.47,22.89h9.31l3.59,13.93,3.56-13.93h9.3v22.9H30.44V28.32L26,45.79H20.72L16.26,28.32V45.79H10.47Z"/><path class="cls-5" d="M43.13,38.21l6.74-.42a5,5,0,0,0,.89,2.5,3.72,3.72,0,0,0,3.12,1.39A3.45,3.45,0,0,0,56.22,41,2.14,2.14,0,0,0,57,39.32a2.1,2.1,0,0,0-.78-1.59,9.14,9.14,0,0,0-3.63-1.33c-3.1-.7-5.32-1.62-6.64-2.78a5.61,5.61,0,0,1-2-4.42,6,6,0,0,1,1-3.34,6.89,6.89,0,0,1,3.08-2.47,14.56,14.56,0,0,1,5.63-.89q4.39,0,6.7,1.63a7,7,0,0,1,2.74,5.19l-6.67.39a3.6,3.6,0,0,0-1.12-2.25,3.64,3.64,0,0,0-2.35-.7,2.9,2.9,0,0,0-1.86.52,1.63,1.63,0,0,0-.62,1.28,1.28,1.28,0,0,0,.51,1,5.88,5.88,0,0,0,2.38.85,29.62,29.62,0,0,1,6.65,2A7,7,0,0,1,63,35a6.43,6.43,0,0,1,.91,3.39,7.2,7.2,0,0,1-1.22,4.06,7.58,7.58,0,0,1-3.4,2.82,13.8,13.8,0,0,1-5.52,1q-5.84,0-8.09-2.25A8.87,8.87,0,0,1,43.13,38.21Z"/><path class="cls-5" d="M68.84,22.89h7.4L81.4,39.37l5.09-16.48h7.18l-8.51,22.9H77.49Z"/></svg>