<svg id="Layer_1" data-name="Layer 1" xmlns="http://www.w3.org/2000/svg" xmlns:xlink="http://www.w3.org/1999/xlink" viewBox="0 0 31.68 31.68"><defs><style>.cls-1,.cls-8{fill:#fcc900;}.cls-2{opacity:0.8;fill:url(#linear-gradient);}.cls-3,.cls-7{fill:none;}.cls-3,.cls-4{stroke:#fff;}.cls-3,.cls-4,.cls-5,.cls-6{stroke-miterlimit:10;}.cls-3{stroke-width:1.5px;}.cls-4{fill:#fff;}.cls-5{fill:#f18a00;stroke:#f18a00;stroke-width:0.46px;}.cls-6{stroke:#000;stroke-width:0.46px;}.cls-7,.cls-8{stroke:gray;}.cls-7{stroke-linecap:round;stroke-linejoin:round;stroke-width:1.2px;}.cls-8{stroke-linecap:square;stroke-linejoin:bevel;stroke-width:0.41px;opacity:0.34;}</style><linearGradient id="linear-gradient" y1="14.14" x2="23.5" y2="14.14" gradientUnits="userSpaceOnUse"><stop offset="0.54" stop-color="#fff"/><stop offset="1" stop-color="#fff" stop-opacity="0"/></linearGradient></defs><polygon class="cls-1" points="0 0.07 20.95 1.13 20.95 28.21 0 23.4 0 0.07"/><polygon class="cls-1" points="20.95 17.16 23.5 17.61 23.5 27.17 20.95 26.73 20.95 17.16"/><path class="cls-2" d="M0,.07,21,1.13V28.21L0,23.4ZM21,26.73l2.55.44V17.61L21,17.16Z"/><path class="cls-3" d="M15,5.31a2.68,2.68,0,0,1,.17-1,1.25,1.25,0,0,1,.52-.59,1.56,1.56,0,0,1,.87-.17,1.74,1.74,0,0,1,.67.16,1.17,1.17,0,0,1,.48.36,1.72,1.72,0,0,1,.3.57,2.93,2.93,0,0,1,.11.87,2.68,2.68,0,0,1-.17,1,1.25,1.25,0,0,1-.52.59,1.81,1.81,0,0,1-2-.27A2.13,2.13,0,0,1,15,5.31Zm.6,0a1.88,1.88,0,0,0,.28,1.22,1,1,0,0,0,.68.34.87.87,0,0,0,.68-.27,1.83,1.83,0,0,0,.27-1.19,2,2,0,0,0-.27-1.22,1,1,0,0,0-.69-.34.85.85,0,0,0-.65.23A1.87,1.87,0,0,0,15.61,5.34Z"/><path class="cls-3" d="M19.56,7.36V3.68l.64,0V5.23l2.49.13V3.85l.63,0V7.56l-.63,0V5.79L20.2,5.66V7.4Z"/><path class="cls-3" d="M4,4.73a2.72,2.72,0,0,1,.17-1,1.3,1.3,0,0,1,.52-.59,1.56,1.56,0,0,1,.87-.17,1.89,1.89,0,0,1,.67.16,1.19,1.19,0,0,1,.48.37A1.58,1.58,0,0,1,7,4a3,3,0,0,1,.11.88,2.66,2.66,0,0,1-.17,1,1.25,1.25,0,0,1-.52.59,1.56,1.56,0,0,1-.87.17,1.55,1.55,0,0,1-1.09-.44A2.13,2.13,0,0,1,4,4.73Zm.6,0A1.91,1.91,0,0,0,4.87,6a.91.91,0,0,0,.68.33.82.82,0,0,0,.68-.26,1.86,1.86,0,0,0,.27-1.2,2,2,0,0,0-.27-1.22.91.91,0,0,0-.69-.33.75.75,0,0,0-.64.23A1.76,1.76,0,0,0,4.59,4.76Z"/><path class="cls-3" d="M18.66,11.52a2.52,2.52,0,0,1,.18-1,1.3,1.3,0,0,1,.52-.59,1.56,1.56,0,0,1,.87-.17,1.94,1.94,0,0,1,.67.16,1.19,1.19,0,0,1,.48.37,1.58,1.58,0,0,1,.3.56,3,3,0,0,1,.11.88,2.47,2.47,0,0,1-.18,1,1.19,1.19,0,0,1-.51.59,1.56,1.56,0,0,1-.87.17A1.54,1.54,0,0,1,19.14,13,2.08,2.08,0,0,1,18.66,11.52Zm.61,0a2,2,0,0,0,.27,1.23,1,1,0,0,0,.69.33.83.83,0,0,0,.68-.26,1.86,1.86,0,0,0,.27-1.2,2,2,0,0,0-.27-1.22,1,1,0,0,0-.69-.33.77.77,0,0,0-.65.23A1.82,1.82,0,0,0,19.27,11.55Z"/><path class="cls-3" d="M23,26.79a2.56,2.56,0,0,1,.17-1.05,1.28,1.28,0,0,1,.52-.58,1.56,1.56,0,0,1,.87-.17,1.74,1.74,0,0,1,.67.15,1.19,1.19,0,0,1,.48.37,1.77,1.77,0,0,1,.3.56,3,3,0,0,1,.11.88,2.52,2.52,0,0,1-.18,1,1.23,1.23,0,0,1-.51.59,1.56,1.56,0,0,1-.87.17,1.6,1.6,0,0,1-1.09-.44A2.08,2.08,0,0,1,23,26.79Zm.6,0A1.89,1.89,0,0,0,23.88,28a1,1,0,0,0,.68.34.87.87,0,0,0,.68-.27,1.83,1.83,0,0,0,.27-1.19,1.93,1.93,0,0,0-.27-1.22,1,1,0,0,0-.69-.34.8.8,0,0,0-.65.23A1.83,1.83,0,0,0,23.6,26.82Z"/><path class="cls-4" d="M10.79,15.83a.75.75,0,0,1-.75-.75V10.74l-2.91-3a.75.75,0,0,1,0-1.06.75.75,0,0,1,1.06,0l3.08,3.13a1,1,0,0,1,.15.24l.05.11a.75.75,0,0,1,.06.29v4.58A.76.76,0,0,1,10.79,15.83Z"/><path class="cls-4" d="M7.63,12.27a.77.77,0,0,1-.53-.22L5.27,10.2a.75.75,0,0,1,0-1.06.75.75,0,0,1,1.06,0L8.16,11a.75.75,0,0,1,0,1.06A.74.74,0,0,1,7.63,12.27Z"/><path class="cls-4" d="M10.79,11.25a.77.77,0,0,1-.3-.06.75.75,0,0,1-.39-1l.05-.11a.72.72,0,0,1,.18-.25L13.4,7a.75.75,0,0,1,1,1.1l-3,2.71A.75.75,0,0,1,10.79,11.25Z"/><path class="cls-4" d="M15.75,23.77A.75.75,0,0,1,15,23V18.25a.72.72,0,0,1,.06-.29l0-.11a.68.68,0,0,1,.18-.26l3.07-2.81a.75.75,0,0,1,1.06,0,.75.75,0,0,1-.05,1.06L16.5,18.52V23A.76.76,0,0,1,15.75,23.77Z"/><path class="cls-4" d="M24.57,24.23a.76.76,0,0,1-.75-.75V18.72a.67.67,0,0,1,.07-.31l0-.11a1.14,1.14,0,0,1,.18-.25l3.08-2.81a.75.75,0,0,1,1.06,0,.76.76,0,0,1-.05,1.06L25.32,19v4.5A.75.75,0,0,1,24.57,24.23Z"/><path class="cls-4" d="M24.57,24.23a.76.76,0,0,1-.75-.75V19l-2.9-3a.75.75,0,0,1,0-1.06.75.75,0,0,1,1.06,0l3.07,3.14a.51.51,0,0,1,.15.23l.05.12a.72.72,0,0,1,.06.29v4.76A.75.75,0,0,1,24.57,24.23Z"/><path class="cls-4" d="M21.19,23.76a.75.75,0,0,1-.75-.75V20a.75.75,0,0,1,1.5,0V23A.75.75,0,0,1,21.19,23.76Z"/><path class="cls-4" d="M10.79,26.35a.8.8,0,0,1-.4-.11L5.48,23.18l-.09-.07a.87.87,0,0,1-.31-.61V17.66a.76.76,0,0,1,.28-.59L5.53,17l4.91-2.55a.75.75,0,0,1,.74,0l4.91,3.06a.39.39,0,0,1,.1.08.9.9,0,0,1,.31.6V23a.75.75,0,0,1-.32.61l-.14.09-4.91,2.55A.77.77,0,0,1,10.79,26.35ZM6.58,22.09l4.24,2.65L15,22.57v-4l-4.25-2.65L6.58,18.1Z"/><path class="cls-4" d="M12.84,20a.72.72,0,0,1-.39-.11l-2-1.22a.75.75,0,0,1,.78-1.28l2,1.22a.75.75,0,0,1,.25,1A.73.73,0,0,1,12.84,20Z"/><path class="cls-4" d="M8.8,22.09a.75.75,0,0,1-.75-.74l0-2.3a.75.75,0,0,1,1.5,0l0,2.3a.75.75,0,0,1-.73.77Z"/><path class="cls-4" d="M10.72,23.44a.77.77,0,0,1-.67-.4.75.75,0,0,1,.32-1l2-1.05a.77.77,0,0,1,1,.32.75.75,0,0,1-.32,1l-2,1.05A.85.85,0,0,1,10.72,23.44Z"/><path class="cls-5" d="M15,5.31a2.68,2.68,0,0,1,.17-1,1.25,1.25,0,0,1,.52-.59,1.56,1.56,0,0,1,.87-.17,1.74,1.74,0,0,1,.67.16,1.17,1.17,0,0,1,.48.36,1.72,1.72,0,0,1,.3.57,2.93,2.93,0,0,1,.11.87,2.68,2.68,0,0,1-.17,1,1.25,1.25,0,0,1-.52.59,1.81,1.81,0,0,1-2-.27A2.13,2.13,0,0,1,15,5.31Zm.6,0a1.88,1.88,0,0,0,.28,1.22,1,1,0,0,0,.68.34.87.87,0,0,0,.68-.27,1.83,1.83,0,0,0,.27-1.19,2,2,0,0,0-.27-1.22,1,1,0,0,0-.69-.34.85.85,0,0,0-.65.23A1.87,1.87,0,0,0,15.61,5.34Z"/><path class="cls-6" d="M19.56,7.36V3.68l.64,0V5.23l2.49.13V3.85l.63,0V7.56l-.63,0V5.79L20.2,5.66V7.4Z"/><path class="cls-5" d="M4,4.73a2.72,2.72,0,0,1,.17-1,1.3,1.3,0,0,1,.52-.59,1.56,1.56,0,0,1,.87-.17,1.89,1.89,0,0,1,.67.16,1.19,1.19,0,0,1,.48.37A1.58,1.58,0,0,1,7,4a3,3,0,0,1,.11.88,2.66,2.66,0,0,1-.17,1,1.25,1.25,0,0,1-.52.59,1.56,1.56,0,0,1-.87.17,1.55,1.55,0,0,1-1.09-.44A2.13,2.13,0,0,1,4,4.73Zm.6,0A1.91,1.91,0,0,0,4.87,6a.91.91,0,0,0,.68.33.82.82,0,0,0,.68-.26,1.86,1.86,0,0,0,.27-1.2,2,2,0,0,0-.27-1.22.91.91,0,0,0-.69-.33.75.75,0,0,0-.64.23A1.76,1.76,0,0,0,4.59,4.76Z"/><path class="cls-5" d="M18.66,11.52a2.52,2.52,0,0,1,.18-1,1.3,1.3,0,0,1,.52-.59,1.56,1.56,0,0,1,.87-.17,1.94,1.94,0,0,1,.67.16,1.19,1.19,0,0,1,.48.37,1.58,1.58,0,0,1,.3.56,3,3,0,0,1,.11.88,2.47,2.47,0,0,1-.18,1,1.19,1.19,0,0,1-.51.59,1.56,1.56,0,0,1-.87.17A1.54,1.54,0,0,1,19.14,13,2.08,2.08,0,0,1,18.66,11.52Zm.61,0a2,2,0,0,0,.27,1.23,1,1,0,0,0,.69.33.83.83,0,0,0,.68-.26,1.86,1.86,0,0,0,.27-1.2,2,2,0,0,0-.27-1.22,1,1,0,0,0-.69-.33.77.77,0,0,0-.65.23A1.82,1.82,0,0,0,19.27,11.55Z"/><path class="cls-5" d="M23,26.79a2.56,2.56,0,0,1,.17-1.05,1.28,1.28,0,0,1,.52-.58,1.56,1.56,0,0,1,.87-.17,1.74,1.74,0,0,1,.67.15,1.19,1.19,0,0,1,.48.37,1.77,1.77,0,0,1,.3.56,3,3,0,0,1,.11.88,2.52,2.52,0,0,1-.18,1,1.23,1.23,0,0,1-.51.59,1.56,1.56,0,0,1-.87.17,1.6,1.6,0,0,1-1.09-.44A2.08,2.08,0,0,1,23,26.79Zm.6,0A1.89,1.89,0,0,0,23.88,28a1,1,0,0,0,.68.34.87.87,0,0,0,.68-.27,1.83,1.83,0,0,0,.27-1.19,1.93,1.93,0,0,0-.27-1.22,1,1,0,0,0-.69-.34.8.8,0,0,0-.65.23A1.83,1.83,0,0,0,23.6,26.82Z"/><polyline class="cls-7" points="7.67 7.25 10.74 10.39 10.79 10.5 10.79 15.08"/><line class="cls-7" x1="5.8" y1="9.67" x2="7.63" y2="11.52"/><polyline class="cls-7" points="13.91 7.58 10.84 10.39 10.79 10.5"/><polyline class="cls-7" points="18.87 15.33 15.79 18.14 15.75 18.25 15.75 23.02"/><polyline class="cls-7" points="27.69 15.79 24.62 18.61 24.57 18.72 24.57 23.48"/><polyline class="cls-7" points="21.45 15.46 24.52 18.6 24.57 18.72 24.57 23.48"/><line class="cls-7" x1="21.19" y1="19.95" x2="21.19" y2="23.01"/><polyline class="cls-7" points="10.79 15.08 15.7 18.14 15.75 18.18 15.75 23.02 15.7 23.05 10.79 25.6 5.88 22.54 5.83 22.5 5.83 17.66 5.88 17.62 10.79 15.08"/><line class="cls-7" x1="10.84" y1="18.07" x2="12.84" y2="19.29"/><line class="cls-7" x1="8.8" y1="21.34" x2="8.76" y2="19.04"/><line class="cls-7" x1="12.71" y1="21.65" x2="10.72" y2="22.69"/><polygon class="cls-1" points="0 0.07 7.57 5.04 7.57 29.54 7.57 31.68 0 24.56 0 0.07"/><polyline class="cls-8" points="0.36 0.31 7.57 5.04 7.57 29.54 7.57 31.68 0.23 24.82"/></svg>