<svg id="Layer_1" data-name="Layer 1" xmlns="http://www.w3.org/2000/svg" viewBox="0 0 128.16 128.16"><defs><style>.cls-1{fill:#f18a00;}.cls-2{fill:gray;}.cls-3{fill:#62bb46;stroke:#fff;stroke-miterlimit:10;stroke-width:3px;opacity:0.85;}.cls-4{font-size:32px;font-family:Arial-Black, Arial Black;letter-spacing:0.11em;}.cls-4,.cls-5{fill:#fff;}</style></defs><title>MoleculeStartValuesImport</title><path class="cls-1" d="M58.92,10.73a13.41,13.41,0,0,1,.88-5.32,6.8,6.8,0,0,1,2.63-3.12,8.16,8.16,0,0,1,4.4-1.09,9,9,0,0,1,3.42.6,6.28,6.28,0,0,1,2.43,1.75,8.46,8.46,0,0,1,1.51,2.77,14.47,14.47,0,0,1,.55,4.41,13.52,13.52,0,0,1-.88,5.3,6.78,6.78,0,0,1-2.62,3.12,8.11,8.11,0,0,1-4.41,1.1,7.62,7.62,0,0,1-5.52-1.93Q58.93,16,58.92,10.73Zm3,0c0,3.07.47,5.1,1.41,6.12a4.66,4.66,0,0,0,6.9,0c.93-1,1.39-3.05,1.39-6.11s-.46-5.11-1.39-6.12a4.58,4.58,0,0,0-3.49-1.52,4.21,4.21,0,0,0-3.27,1.34Q62,6.14,62,10.73Z"/><path class="cls-1" d="M66.83,21.41a8.76,8.76,0,0,1-6.32-2.26c-1.83-1.78-2.75-4.61-2.75-8.42a14.67,14.67,0,0,1,1-5.79,8,8,0,0,1,3.08-3.62,9.25,9.25,0,0,1,5-1.28,10.34,10.34,0,0,1,3.86.69A7.48,7.48,0,0,1,73.57,2.8,9.92,9.92,0,0,1,75.29,6a15.78,15.78,0,0,1,.6,4.78,14.6,14.6,0,0,1-1,5.76,8,8,0,0,1-3.07,3.64A9.27,9.27,0,0,1,66.83,21.41ZM63.06,3.26h0a5.66,5.66,0,0,0-2.18,2.6,12.43,12.43,0,0,0-.79,4.86c0,3.17.69,5.44,2,6.76a5.15,5.15,0,0,0,1.17.85,6.33,6.33,0,0,1-.76-.71c-1.15-1.24-1.71-3.5-1.71-6.9s.6-5.7,1.84-7.07Zm7.34-.11a6.54,6.54,0,0,1,.72.68c1.15,1.24,1.71,3.5,1.71,6.9s-.56,5.64-1.7,6.89a6.72,6.72,0,0,1-.73.69l.22-.14a5.55,5.55,0,0,0,2.18-2.6,12.45,12.45,0,0,0,.78-4.84,13.11,13.11,0,0,0-.49-4,7.13,7.13,0,0,0-1.29-2.4A4.87,4.87,0,0,0,70.4,3.15Zm-3.61,1.1a3.07,3.07,0,0,0-2.42,1c-.56.62-1.24,2.09-1.24,5.52,0,3.61.69,4.89,1.1,5.34a3.51,3.51,0,0,0,5.19,0c.41-.44,1.1-1.73,1.1-5.33s-.69-4.89-1.09-5.34A3.42,3.42,0,0,0,66.79,4.25Z"/><path d="M82,19.94V1.28h3.21V8.94H97.83V1.28H101V19.94H97.83v-8.8H85.22v8.8Z"/><path d="M102.19,21.09H96.67V12.3H86.37v8.79H80.85V.12h5.52V7.78h10.3V.12h5.52ZM99,18.78h.9V2.43H99Zm-15.82,0h.9V2.43h-.9Z"/><path class="cls-1" d="M3.07,10.73A13.39,13.39,0,0,1,4,5.41,6.8,6.8,0,0,1,6.59,2.29,8.16,8.16,0,0,1,11,1.2a9,9,0,0,1,3.42.6,6.28,6.28,0,0,1,2.43,1.75,8.46,8.46,0,0,1,1.51,2.77,14.47,14.47,0,0,1,.55,4.41A13.52,13.52,0,0,1,18,16a6.78,6.78,0,0,1-2.62,3.12A8.11,8.11,0,0,1,11,20.25a7.62,7.62,0,0,1-5.52-1.93C3.88,16.77,3.07,14.24,3.07,10.73Zm3.06,0c0,3.07.47,5.1,1.41,6.12A4.51,4.51,0,0,0,11,18.37a4.48,4.48,0,0,0,3.44-1.53c.94-1,1.4-3.05,1.4-6.11s-.46-5.11-1.4-6.12A4.54,4.54,0,0,0,11,3.09,4.21,4.21,0,0,0,7.68,4.43Q6.14,6.14,6.13,10.73Z"/><path class="cls-1" d="M11,21.41a8.75,8.75,0,0,1-6.32-2.26c-1.83-1.78-2.75-4.61-2.75-8.42a14.43,14.43,0,0,1,1-5.79A8,8,0,0,1,6,1.32,9.25,9.25,0,0,1,11,0a10.34,10.34,0,0,1,3.86.69A7.37,7.37,0,0,1,17.72,2.8,9.75,9.75,0,0,1,19.45,6a15.78,15.78,0,0,1,.6,4.78,14.78,14.78,0,0,1-1,5.76A8,8,0,0,1,16,20.13,9.29,9.29,0,0,1,11,21.41ZM7.22,3.26h0A5.61,5.61,0,0,0,5,5.87a12.43,12.43,0,0,0-.79,4.86c0,3.17.69,5.44,2.05,6.76a4.94,4.94,0,0,0,1.17.85,7.28,7.28,0,0,1-.77-.71C5.54,16.39,5,14.13,5,10.73S5.58,5,6.82,3.66Zm7.33-.11a5.83,5.83,0,0,1,.73.68C16.43,5.07,17,7.33,17,10.73s-.56,5.64-1.7,6.89a6.72,6.72,0,0,1-.73.69l.22-.14A5.61,5.61,0,0,0,17,15.57a12.45,12.45,0,0,0,.78-4.84,13.27,13.27,0,0,0-.49-4.05A7.36,7.36,0,0,0,16,4.29,4.91,4.91,0,0,0,14.55,3.15ZM11,4.25a3.07,3.07,0,0,0-2.42,1C8,5.83,7.29,7.3,7.29,10.73c0,3.61.69,4.89,1.09,5.34A3.37,3.37,0,0,0,11,17.21a3.33,3.33,0,0,0,2.59-1.15c.41-.44,1.1-1.73,1.1-5.33S14,5.84,13.59,5.39A3.42,3.42,0,0,0,11,4.25Z"/><path class="cls-1" d="M77.45,41.25a13.41,13.41,0,0,1,.89-5.33A6.71,6.71,0,0,1,81,32.81a8.1,8.1,0,0,1,4.39-1.1,9.09,9.09,0,0,1,3.43.6,6.28,6.28,0,0,1,2.43,1.75,8.46,8.46,0,0,1,1.51,2.77,14.53,14.53,0,0,1,.54,4.42,13.4,13.4,0,0,1-.88,5.3,6.74,6.74,0,0,1-2.62,3.11,8.06,8.06,0,0,1-4.41,1.11,7.6,7.6,0,0,1-5.51-1.94Q77.45,46.51,77.45,41.25Zm3.06,0q0,4.59,1.4,6.11a4.66,4.66,0,0,0,6.9,0c.93-1,1.4-3.05,1.4-6.1s-.47-5.12-1.4-6.13a4.53,4.53,0,0,0-3.48-1.51,4.24,4.24,0,0,0-3.28,1.33C81,36.08,80.51,38.18,80.51,41.25Z"/><path class="cls-1" d="M85.36,51.92a8.72,8.72,0,0,1-6.31-2.26c-1.83-1.77-2.75-4.6-2.75-8.42a14.43,14.43,0,0,1,1-5.79,8,8,0,0,1,3.07-3.62,9.28,9.28,0,0,1,5-1.28,10.26,10.26,0,0,1,3.86.69,7.51,7.51,0,0,1,2.88,2.07,9.6,9.6,0,0,1,1.72,3.16,15.63,15.63,0,0,1,.61,4.77,14.78,14.78,0,0,1-1,5.76,8,8,0,0,1-3.07,3.64A9.3,9.3,0,0,1,85.36,51.92ZM81.59,33.78h0a5.62,5.62,0,0,0-2.19,2.6,12.45,12.45,0,0,0-.78,4.86c0,3.17.69,5.44,2,6.76a5.15,5.15,0,0,0,1.17.85,7.19,7.19,0,0,1-.76-.71c-1.15-1.24-1.71-3.5-1.71-6.9s.61-5.7,1.84-7.07C81.32,34,81.46,33.9,81.59,33.78Zm7.34-.12a6.61,6.61,0,0,1,.73.68c1.15,1.24,1.7,3.5,1.7,6.9s-.55,5.64-1.7,6.89a5.92,5.92,0,0,1-.73.69l.23-.13a5.68,5.68,0,0,0,2.18-2.61,12.57,12.57,0,0,0,.78-4.84,13.47,13.47,0,0,0-.49-4,7.32,7.32,0,0,0-1.29-2.4A5.05,5.05,0,0,0,88.93,33.66Zm-3.6,1.1a3.14,3.14,0,0,0-2.43,1c-.56.63-1.23,2.1-1.23,5.52,0,3.61.68,4.89,1.09,5.34a3.5,3.5,0,0,0,5.2,0c.41-.44,1.09-1.73,1.09-5.33s-.68-4.89-1.09-5.33A3.41,3.41,0,0,0,85.33,34.76Z"/><path class="cls-2" d="M37.54,64.38a3,3,0,0,1-3-3V39.12L19.61,24.71a3,3,0,0,1,4.23-4.37L39.4,35.41a3.07,3.07,0,0,1,.68,1l.25.57a3.11,3.11,0,0,1,.25,1.2V61.34A3,3,0,0,1,37.54,64.38Z"/><path class="cls-2" d="M21.53,47.2a3,3,0,0,1-2.1-.85l-9.27-8.86a3,3,0,1,1,4.2-4.4L23.63,42a3,3,0,0,1-2.1,5.24Z"/><path class="cls-2" d="M37.53,41.21A3.12,3.12,0,0,1,36.34,41a3,3,0,0,1-1.6-4L35,36.4a3.07,3.07,0,0,1,.68-1L51.23,20.34a3,3,0,1,1,4.23,4.37L40.33,39.37A3,3,0,0,1,37.53,41.21Z"/><path class="cls-2" d="M62.66,103.31a3,3,0,0,1-3-3V76.13a2.93,2.93,0,0,1,.25-1.2l.24-.57a3.07,3.07,0,0,1,.68-1L76.36,58.3a3,3,0,0,1,4.23,4.37L65.7,77.08v23.19A3,3,0,0,1,62.66,103.31Z"/><path class="cls-2" d="M107.39,103.31a3,3,0,0,1-3-3V76.13a3.1,3.1,0,0,1,.24-1.2l.25-.58a3.14,3.14,0,0,1,.68-1L121.08,58.3a3,3,0,0,1,4.23,4.37L110.43,77.08v23.19A3,3,0,0,1,107.39,103.31Z"/><path class="cls-2" d="M107.39,103.31a3,3,0,0,1-3-3V77.08L89.46,62.67a3,3,0,1,1,4.23-4.37l15.56,15.07a3.07,3.07,0,0,1,.68,1l.25.57a3.11,3.11,0,0,1,.25,1.2v24.14A3,3,0,0,1,107.39,103.31Z"/><path class="cls-2" d="M90.25,101.84a3,3,0,0,1-3-3V83.26a3,3,0,0,1,6.08,0V98.8A3,3,0,0,1,90.25,101.84Z"/><path class="cls-2" d="M37.54,117.72a3.1,3.1,0,0,1-1.51-.4L11.15,103.1l-.35-.23-.25-.2a3,3,0,0,1-1.18-2.4V75.76a3.05,3.05,0,0,1,1.11-2.35l.24-.2a3,3,0,0,1,.43-.29L36,58.7a3,3,0,0,1,3,0L63.92,72.92a3,3,0,0,1,.43.29l.24.2a3.05,3.05,0,0,1,1.11,2.35v24.51a3,3,0,0,1-1.18,2.41l-.25.19-.35.23L39,117.32A3.06,3.06,0,0,1,37.54,117.72ZM15.45,98.56l22.09,12.62L59.62,98.56V77.46L37.54,64.84,15.45,77.46Z"/><path class="cls-2" d="M48,85.21a3,3,0,0,1-1.48-.38L36.3,79.15a3,3,0,0,1,3-5.31l10.18,5.68A3,3,0,0,1,48,85.21Z"/><path class="cls-2" d="M27.46,96.64a3,3,0,0,1-3-3L24.2,82a3,3,0,1,1,6.08-.12l.23,11.65a3,3,0,0,1-3,3.1Z"/><path class="cls-2" d="M37.19,103a3,3,0,0,1-1.52-5.68l10.1-5.81a3,3,0,0,1,3,5.28l-10.1,5.8A3,3,0,0,1,37.19,103Z"/><path class="cls-3" d="M0,13.17H93.3a9.15,9.15,0,0,1,9.14,9.15V43.55a9.14,9.14,0,0,1-9.14,9.14H0"/><text class="cls-4" transform="translate(7.55 45.19)">MSV</text><circle class="cls-1" cx="90.49" cy="90.49" r="35.51"/><path class="cls-5" d="M90.49,128.16a37.67,37.67,0,1,1,37.67-37.67A37.71,37.71,0,0,1,90.49,128.16Zm0-71a33.35,33.35,0,1,0,33.35,33.35A33.39,33.39,0,0,0,90.49,57.14Z"/><path class="cls-5" d="M90.42,79.1V71.25a3.08,3.08,0,0,0-5.24-2.17L68.38,85.66a3.43,3.43,0,0,0,0,4.9l16.8,16.57a3.07,3.07,0,0,0,4.34,0,3,3,0,0,0,.9-2.16V97.34c8.42.21,17.63,1.73,24.52,12.22V106.5A27.57,27.57,0,0,0,90.42,79.1Z"/></svg>