<svg id="Layer_1" data-name="Layer 1" xmlns="http://www.w3.org/2000/svg" viewBox="0 0 128.16 128.16"><defs><style>.cls-1{fill:#f18a00;}.cls-2{fill:gray;}.cls-3{fill:#62bb46;}.cls-3,.cls-4{opacity:0.85;}.cls-4,.cls-5{fill:#fff;}</style></defs><path class="cls-1" d="M74.47,7a9.5,9.5,0,0,0-1.69-3.1,7.31,7.31,0,0,0-2.83-2,10,10,0,0,0-3.8-.68,9.05,9.05,0,0,0-4.93,1.26A7.72,7.72,0,0,0,58.2,6a14,14,0,0,0-1,5.7c0,3.75.91,6.53,2.7,8.28a8.64,8.64,0,0,0,6.22,2.22,9.09,9.09,0,0,0,4.94-1.26,7.79,7.79,0,0,0,3-3.57,14.58,14.58,0,0,0,1-5.67A15.56,15.56,0,0,0,74.47,7ZM63.73,6.26a3,3,0,0,1,2.38-1A3.32,3.32,0,0,1,68.7,6.44c.4.43,1.08,1.69,1.08,5.25s-.68,4.8-1.08,5.24a3.44,3.44,0,0,1-5.11,0c-.4-.44-1.08-1.7-1.08-5.25C62.51,8.32,63.18,6.87,63.73,6.26Z"/><polygon points="95.51 1.25 95.51 8.79 85.38 8.79 85.38 1.25 79.95 1.25 79.95 21.88 85.38 21.88 85.38 13.23 95.51 13.23 95.51 21.88 100.94 21.88 100.94 1.25 95.51 1.25"/><path class="cls-1" d="M19.53,7a9.15,9.15,0,0,0-1.69-3.1,7.31,7.31,0,0,0-2.83-2,10,10,0,0,0-3.8-.68A9.1,9.1,0,0,0,6.28,2.43,7.78,7.78,0,0,0,3.26,6a14.21,14.21,0,0,0-1,5.7c0,3.75.91,6.53,2.71,8.28a8.63,8.63,0,0,0,6.21,2.22,9.12,9.12,0,0,0,4.95-1.26,7.77,7.77,0,0,0,3-3.57,14.38,14.38,0,0,0,1-5.67A15.22,15.22,0,0,0,19.53,7ZM8.79,6.26a3.06,3.06,0,0,1,2.39-1,3.35,3.35,0,0,1,2.59,1.13c.4.43,1.07,1.69,1.07,5.25s-.67,4.8-1.07,5.24a3.3,3.3,0,0,1-2.56,1.14,3.32,3.32,0,0,1-2.56-1.13c-.4-.44-1.08-1.7-1.08-5.25C7.57,8.32,8.24,6.87,8.79,6.26Z"/><path class="cls-1" d="M92.7,37A9.29,9.29,0,0,0,91,33.9a7.39,7.39,0,0,0-2.83-2,10,10,0,0,0-3.8-.68,9.18,9.18,0,0,0-4.93,1.25,7.85,7.85,0,0,0-3,3.57,14.18,14.18,0,0,0-1,5.7c0,3.75.91,6.53,2.71,8.28a8.63,8.63,0,0,0,6.21,2.22,9.12,9.12,0,0,0,5-1.26,7.8,7.8,0,0,0,3-3.58,14.33,14.33,0,0,0,1-5.66A15.17,15.17,0,0,0,92.7,37ZM82,36.28a3.06,3.06,0,0,1,2.39-1,3.38,3.38,0,0,1,2.59,1.12c.4.44,1.07,1.7,1.07,5.26s-.67,4.8-1.07,5.24a3.46,3.46,0,0,1-5.12,0c-.4-.43-1.08-1.69-1.08-5.24C80.74,38.33,81.41,36.89,82,36.28Z"/><path class="cls-1" d="M114.29,112a9.24,9.24,0,0,0-1.69-3.1,7.31,7.31,0,0,0-2.83-2,10,10,0,0,0-3.8-.68A9.18,9.18,0,0,0,101,107.4,7.85,7.85,0,0,0,98,111a14.21,14.21,0,0,0-1,5.7c0,3.75.91,6.53,2.71,8.28a8.63,8.63,0,0,0,6.21,2.22,9.12,9.12,0,0,0,5-1.26,7.77,7.77,0,0,0,3-3.57,14.38,14.38,0,0,0,1-5.67A15.22,15.22,0,0,0,114.29,112Zm-10.74-.73a3.06,3.06,0,0,1,2.39-.95,3.35,3.35,0,0,1,2.59,1.13c.4.43,1.07,1.69,1.07,5.25s-.67,4.8-1.07,5.24a3.45,3.45,0,0,1-5.12,0c-.4-.44-1.08-1.7-1.08-5.25C102.33,113.3,103,111.85,103.55,111.24Z"/><path class="cls-2" d="M19.51,46.73a3,3,0,0,0,4.14-4.32l-9.12-8.72A3,3,0,1,0,10.4,38Z"/><path class="cls-2" d="M75.52,58.48,61.64,71.92,40.32,59.74V39.63L55,25.44a3,3,0,1,0-4.16-4.3l-13.48,13-13.48-13a3,3,0,0,0-4.16,4.3L34.34,39.62V59.74l-23,13.12c-.14.09-.28.18-.42.29l-.24.2a3,3,0,0,0-1.09,2.31V99.78a3,3,0,0,0,1.16,2.36l.24.19a3.5,3.5,0,0,0,.35.23l24.48,14a3,3,0,0,0,3,0l24.48-14a3.5,3.5,0,0,0,.35-.23l.24-.19A1.14,1.14,0,0,0,64,102a2.37,2.37,0,0,0,.28-.27c.06-.06.11-.13.17-.2a3.45,3.45,0,0,0,.2-.32,1.55,1.55,0,0,0,.12-.22,2.46,2.46,0,0,0,.14-.38c0-.08,0-.15.07-.23a2.73,2.73,0,0,0,0-.5.59.59,0,0,0,0-.13V77L79.68,62.78a3,3,0,0,0-4.16-4.3Zm-38.19,52L15.6,98.09V77.34L37.33,64.92,59.06,77.34V98.09Z"/><path class="cls-2" d="M123.75,58.55a3,3,0,0,0-4.22-.07L106.05,71.53,92.57,58.48a3,3,0,0,0-4.16,4.3L103.06,77V99.78a3,3,0,0,0,6,0V77l14.65-14.18A3,3,0,0,0,123.75,58.55Z"/><path class="cls-2" d="M89.19,80.05a3,3,0,0,0-3,3V98.33a3,3,0,1,0,6,0V83A3,3,0,0,0,89.19,80.05Z"/><path class="cls-2" d="M49,79.36,39,73.77A3,3,0,0,0,36.11,79l10,5.58A3,3,0,1,0,49,79.36Z"/><path class="cls-2" d="M27.2,78.76h-.05a3,3,0,0,0-2.94,3l.22,11.46a3,3,0,0,0,3,2.94h.06a3,3,0,0,0,2.93-3L30.19,81.7A3,3,0,0,0,27.2,78.76Z"/><path class="cls-2" d="M45.43,91.15l-9.94,5.72a3,3,0,1,0,3,5.18l9.94-5.71a3,3,0,1,0-3-5.19Z"/><path class="cls-3" d="M93.94,51.27a7.65,7.65,0,0,0,7.65-7.64V22.4a7.65,7.65,0,0,0-7.65-7.64H.65v-1.5h0V52.77h0v-1.5Z"/><path class="cls-4" d="M93.94,11.76H.65v3H93.94a7.65,7.65,0,0,1,7.65,7.64V43.63a7.65,7.65,0,0,1-7.65,7.64H.65v3H93.94a10.66,10.66,0,0,0,10.65-10.64V22.4A10.66,10.66,0,0,0,93.94,11.76Z"/><path class="cls-5" d="M10.47,22.36h9.31L23.37,36.3l3.56-13.94h9.3V45.27H30.44V27.8L26,45.27H20.72L16.26,27.8V45.27H10.47Z"/><path class="cls-5" d="M43.13,37.69l6.74-.42a5.1,5.1,0,0,0,.89,2.5,3.75,3.75,0,0,0,3.12,1.39,3.5,3.5,0,0,0,2.34-.71A2.17,2.17,0,0,0,57,38.8a2.09,2.09,0,0,0-.78-1.59,9,9,0,0,0-3.63-1.33c-3.1-.7-5.32-1.63-6.64-2.78a5.61,5.61,0,0,1-2-4.43,6,6,0,0,1,1-3.33,6.82,6.82,0,0,1,3.08-2.47,14.35,14.35,0,0,1,5.63-.9c2.93,0,5.16.55,6.7,1.63a7,7,0,0,1,2.74,5.2l-6.67.39a3.12,3.12,0,0,0-3.47-3,2.85,2.85,0,0,0-1.86.52A1.61,1.61,0,0,0,50.54,28a1.28,1.28,0,0,0,.51,1,5.91,5.91,0,0,0,2.38.84,29.52,29.52,0,0,1,6.65,2A7,7,0,0,1,63,34.42a6.49,6.49,0,0,1,.91,3.4,7.22,7.22,0,0,1-1.22,4.06,7.58,7.58,0,0,1-3.4,2.82,13.8,13.8,0,0,1-5.52,1q-5.84,0-8.09-2.25A8.9,8.9,0,0,1,43.13,37.69Z"/><path class="cls-5" d="M68.84,22.36h7.4L81.4,38.85l5.09-16.49h7.18L85.16,45.27H77.49Z"/><circle class="cls-1" cx="90.32" cy="89.8" r="36.28"/><path class="cls-5" d="M90.32,51.31A38.49,38.49,0,1,1,51.84,89.8h0A38.48,38.48,0,0,1,90.32,51.31Zm0,72.52A34.08,34.08,0,1,0,56.25,89.76v0A34.07,34.07,0,0,0,90.32,123.83Z"/><path class="cls-5" d="M70.42,94.17h8.5v13.89a3.43,3.43,0,0,0,3.43,3.43H98.62a3.43,3.43,0,0,0,3.43-3.43V94.17h8.54c1.47,0,2-.82,2-1.55a2.9,2.9,0,0,0-.78-1.76l-19-21.57a3.15,3.15,0,0,0-2.36-1.15,3.06,3.06,0,0,0-2.37,1.15L69.2,90.86a2.74,2.74,0,0,0-.74,1.76C68.46,93.35,69,94.17,70.42,94.17Z"/></svg>