<?xml version="1.0" encoding="UTF-8"?><svg id="Layer_1" xmlns="http://www.w3.org/2000/svg" viewBox="0 0 128.16 128.16"><defs><style>.cls-1{fill:#f18a00;}.cls-1,.cls-2,.cls-3{fill-rule:evenodd;}.cls-2{fill:#62bb46;}.cls-3{fill:#00aeef;}</style></defs><path class="cls-3" d="M43.36,32.35l19.4-18.65c.74-.71,1.91-.7,2.64,0h0s.01.01.01.01l19.19,18.64h.01s.59.54.59.54c.42.37.63.89.63,1.41h0v27.61c0,1.05-.85,1.91-1.91,1.91h-12.74v-18.7c0-1.05-.85-1.91-1.91-1.91h-10.44c-1.05,0-1.91.85-1.91,1.91v18.7h-12.74c-1.05,0-1.91-.85-1.91-1.91v-27.76c0-.59.27-1.12.69-1.47l.36-.35Z"/><path class="cls-3" d="M64.08,9.14l-25.78,24.48c-1.14,1.08-2.95,1.04-4.03-.1-1.09-1.14-1.04-2.95.1-4.03L62.11,3.14c1.1-1.05,2.83-1.05,3.93,0l27.75,26.35c1.14,1.08,1.19,2.89.1,4.03-1.08,1.14-2.89,1.18-4.03.1l-25.78-24.48Z"/><path class="cls-1" d="M74.68,94.33l19.4-18.65c.74-.71,1.91-.7,2.64,0h0s.01.01.01.01l19.19,18.64h.01s.59.54.59.54c.42.37.63.89.63,1.41h0v27.61c0,1.05-.85,1.91-1.91,1.91h-12.74v-18.7c0-1.05-.85-1.91-1.91-1.91h-10.44c-1.05,0-1.91.85-1.91,1.91v18.7h-12.74c-1.05,0-1.91-.85-1.91-1.91v-27.76c0-.59.27-1.12.69-1.47l.36-.35Z"/><path class="cls-1" d="M95.4,71.12l-25.78,24.48c-1.14,1.08-2.95,1.04-4.03-.1-1.09-1.14-1.04-2.95.1-4.03l27.75-26.35c1.1-1.05,2.83-1.05,3.93,0l27.75,26.35c1.14,1.08,1.19,2.89.1,4.03-1.08,1.14-2.89,1.18-4.03.1l-25.78-24.48Z"/><path class="cls-2" d="M12.04,94.33l19.4-18.65c.74-.71,1.91-.7,2.64,0h0s.01.01.01.01l19.19,18.64h.01s.59.54.59.54c.42.37.63.89.63,1.41h0v27.61c0,1.05-.85,1.91-1.91,1.91h-12.74v-18.7c0-1.05-.85-1.91-1.91-1.91h-10.44c-1.05,0-1.91.85-1.91,1.91v18.7h-12.74c-1.05,0-1.91-.85-1.91-1.91v-27.76c0-.59.27-1.12.69-1.47l.36-.35Z"/><path class="cls-2" d="M32.76,71.12l-25.78,24.48c-1.14,1.08-2.95,1.04-4.03-.1-1.09-1.14-1.04-2.95.1-4.03l27.75-26.35c1.1-1.05,2.83-1.05,3.93,0l27.75,26.35c1.14,1.08,1.19,2.89.1,4.03-1.08,1.14-2.89,1.18-4.03.1l-25.78-24.48Z"/></svg>