<?xml version="1.0" encoding="UTF-8"?><svg id="Layer_1" xmlns="http://www.w3.org/2000/svg" viewBox="0 0 128.16 128.16"><defs><style>.cls-1{fill:#00aeef;fill-rule:evenodd;}</style></defs><path class="cls-1" d="M22.16,62.58L61.41,24.85c1.5-1.44,3.87-1.43,5.35.02h0s.02.02.02.02l38.83,37.71.02.02,1.19,1.07c.85.76,1.28,1.81,1.28,2.86h.02v55.87c0,2.13-1.73,3.86-3.86,3.86h-25.77v-37.83c0-2.13-1.73-3.86-3.86-3.86h-21.12c-2.13,0-3.86,1.73-3.86,3.86v37.83h-25.77c-2.13,0-3.86-1.73-3.86-3.86v-56.17c0-1.19.54-2.26,1.39-2.97l.73-.7Z"/><path class="cls-1" d="M64.08,15.62L11.91,65.16c-2.31,2.19-5.96,2.1-8.16-.2-2.2-2.31-2.11-5.97.2-8.16L60.1,3.47c2.23-2.12,5.73-2.12,7.96,0l56.15,53.32c2.31,2.2,2.4,5.85.2,8.16-2.2,2.31-5.85,2.4-8.16.2L64.08,15.62Z"/></svg>