<?xml version="1.0" encoding="utf-8"?>
<!-- Generator: Adobe Illustrator 24.3.0, SVG Export Plug-In . SVG Version: 6.00 Build 0)  -->
<svg version="1.1" id="Layer_1" xmlns="http://www.w3.org/2000/svg" xmlns:xlink="http://www.w3.org/1999/xlink" x="0px" y="0px"
	 viewBox="0 0 128.2 128.2" style="enable-background:new 0 0 128.2 128.2;" xml:space="preserve">
<style type="text/css">
	.st0{fill:#00AEEF;}
	.st1{fill:#62BB46;}
</style>
<g>
	<circle class="st0" cx="23.3" cy="23.7" r="22.8"/>
	<circle class="st1" cx="104.8" cy="23.7" r="22.8"/>
	<polygon points="75.5,22.7 50.4,37 57.4,23.3 50.4,9.6 	"/>
	<path d="M89.8,73.4H65.6V60.2H82c0.8,0,1.5-0.7,1.5-1.5s-0.7-1.5-1.5-1.5H46.2c-0.8,0-1.5,0.7-1.5,1.5s0.7,1.5,1.5,1.5h16.4v13.2
		H37.9c-0.6,0-1,0.4-1,1v51.9c0,0.6,0.4,1,1,1h51.9c0.6,0,1-0.4,1-1V74.4C90.8,73.9,90.3,73.4,89.8,73.4z M88.8,125.3H38.9V75.4
		h49.9V125.3z"/>
</g>
<g>
	<path d="M43.2,112.4V88H48l10,16.3V88h4.6v24.5h-5l-9.9-16v16L43.2,112.4L43.2,112.4z"/>
	<path d="M81.5,103.4l4.8,1.5c-0.7,2.7-2,4.7-3.7,5.9c-1.7,1.3-3.9,1.9-6.5,1.9c-3.2,0-5.9-1.1-8-3.3s-3.1-5.3-3.1-9.1
		c0-4.1,1.1-7.2,3.2-9.5s4.9-3.4,8.3-3.4c3,0,5.4,0.9,7.3,2.7c1.1,1,1.9,2.5,2.5,4.5l-4.9,1.2c-0.3-1.3-0.9-2.3-1.8-3
		s-2-1.1-3.3-1.1c-1.8,0-3.3,0.7-4.4,2s-1.7,3.4-1.7,6.3c0,3.1,0.6,5.3,1.7,6.6c1.1,1.3,2.6,2,4.3,2c1.3,0,2.4-0.4,3.4-1.3
		C80.4,106.5,81.1,105.2,81.5,103.4z"/>
</g>
</svg>
