<svg id="Layer_1" data-name="Layer 1" xmlns="http://www.w3.org/2000/svg" viewBox="0 0 128.16 128.16"><defs><style>.cls-1{fill:#00aeef;}.cls-2{fill:#f18a00;}.cls-3{fill:#fff;}</style></defs><path class="cls-1" d="M64.73,96.32A31.59,31.59,0,1,1,96.32,64.73h0A31.6,31.6,0,0,1,64.73,96.32Zm0-79c-32.4,0-63.18,36.73-63.18,47.41s30.78,47.39,63.18,47.39,63.18-36.71,63.18-47.39S97.13,17.34,64.73,17.34Zm0,31.59a15.82,15.82,0,0,1-15.8,15.8,15.8,15.8,0,1,0,15.8-15.8Z"/><circle class="cls-2" cx="91.14" cy="91.14" r="35.51"/><path class="cls-3" d="M91.14,128.81a37.67,37.67,0,1,1,37.67-37.67h0A37.71,37.71,0,0,1,91.14,128.81Zm0-71a33.35,33.35,0,1,0,33.35,33.35v0A33.39,33.39,0,0,0,91.14,57.79Z"/><path class="cls-3" d="M111.79,92.28,93.28,71a3,3,0,0,0-4.22-.42,2.78,2.78,0,0,0-.42.42L70.13,92.28a2.65,2.65,0,0,0-.75,1.7c0,.74.51,1.53,1.93,1.53h8.34v13.43A3.38,3.38,0,0,0,83,112.32H98.92a3.39,3.39,0,0,0,3.38-3.38V95.51h8.33c1.42,0,1.93-.79,1.93-1.53A2.71,2.71,0,0,0,111.79,92.28Z"/></svg>