<svg id="Layer_1" data-name="Layer 1" xmlns="http://www.w3.org/2000/svg" viewBox="0 0 128.16 128.16"><defs><style>.cls-1{fill:#00aeef;}.cls-2{fill:#f18a00;}.cls-3{fill:#fff;}</style></defs><path class="cls-1" d="M64.28,96.32A31.59,31.59,0,1,1,95.87,64.73h0A31.6,31.6,0,0,1,64.28,96.32Zm0-79C31.88,17.34,1.1,54.05,1.1,64.73s30.78,47.39,63.18,47.39,63.18-36.71,63.18-47.39S96.68,17.34,64.28,17.34Zm0,31.59a15.82,15.82,0,0,1-15.8,15.8,15.8,15.8,0,1,0,15.8-15.8Z"/><circle class="cls-2" cx="90.69" cy="91.14" r="35.51"/><path class="cls-3" d="M90.69,128.81a37.67,37.67,0,1,1,37.67-37.67A37.67,37.67,0,0,1,90.69,128.81Zm0-71A33.35,33.35,0,1,0,124,91.16h0A33.38,33.38,0,0,0,90.69,57.79Z"/><polygon class="cls-3" points="95.47 109.63 85.91 109.63 85.91 95.69 72.2 95.69 72.2 86.48 85.91 86.48 85.91 72.65 95.47 72.65 95.47 86.48 109.18 86.48 109.18 95.69 95.47 95.69 95.47 109.63"/></svg>