<svg id="Layer_1" data-name="Layer 1" xmlns="http://www.w3.org/2000/svg" xmlns:xlink="http://www.w3.org/1999/xlink" viewBox="0 0 31.68 31.68"><defs><style>.cls-1,.cls-9{fill:#fcc900;}.cls-2{opacity:0.8;fill:url(#linear-gradient);}.cls-3,.cls-7{fill:#fff;}.cls-3,.cls-4{stroke:#fff;stroke-miterlimit:10;stroke-width:1.5px;}.cls-4,.cls-8{font-size:9.6px;font-family:Arial-Black, Arial Black;font-weight:800;}.cls-4,.cls-5,.cls-8{fill:#62bb46;}.cls-6{fill:#f18a00;}.cls-9{stroke:gray;stroke-linecap:square;stroke-linejoin:bevel;stroke-width:0.41px;opacity:0.34;}</style><linearGradient id="linear-gradient" y1="14.14" x2="23.5" y2="14.14" gradientUnits="userSpaceOnUse"><stop offset="0.54" stop-color="#fff"/><stop offset="1" stop-color="#fff" stop-opacity="0"/></linearGradient></defs><polygon class="cls-1" points="0 0.07 20.95 1.13 20.95 28.21 0 23.4 0 0.07"/><polygon class="cls-1" points="20.95 17.16 23.5 17.61 23.5 27.17 20.95 26.73 20.95 17.16"/><path class="cls-2" d="M0,.07,21,1.13V28.21L0,23.4ZM21,26.73l2.55.44V17.61L21,17.16Z"/><path class="cls-3" d="M21.27,28.69,3.9,27.78a1.57,1.57,0,0,1-1.38-1.62V4.06A1.38,1.38,0,0,1,3.9,2.58l17.37.91a1.57,1.57,0,0,1,1.38,1.62v22.1A1.38,1.38,0,0,1,21.27,28.69Z"/><text class="cls-4" transform="matrix(1, 0.05, 0, 1, 5.3, 13.2)">X</text><path class="cls-5" d="M21.27,28.69,3.9,27.78a1.57,1.57,0,0,1-1.38-1.62V4.06A1.38,1.38,0,0,1,3.9,2.58l17.37.91a1.57,1.57,0,0,1,1.38,1.62v22.1A1.38,1.38,0,0,1,21.27,28.69ZM4.12,26.14,21.05,27V5.13L4.12,4.25Z"/><ellipse class="cls-6" cx="20.33" cy="21.18" rx="6.92" ry="7.29" transform="translate(-9.01 20.2) rotate(-44.25)"/><path class="cls-7" d="M20.33,28.71a8,8,0,0,1-7.53-7.93,7.08,7.08,0,0,1,7.53-7.13,8,8,0,0,1,7.54,7.92A7.08,7.08,0,0,1,20.33,28.71Zm0-14.2a6.28,6.28,0,0,0-6.67,6.32,7.12,7.12,0,0,0,6.67,7A6.27,6.27,0,0,0,27,21.53,7.11,7.11,0,0,0,20.33,14.51Z"/><path class="cls-7" d="M16,20.37c0-.15.1-.3.39-.29l7.87.41c.28,0,.38.18.38.33a.49.49,0,0,1-.15.33l-3.7,4.07a.61.61,0,0,1-.93,0l-3.7-4.46A.53.53,0,0,1,16,20.37Z"/><path class="cls-7" d="M18.71,16.84l3.18.17a.73.73,0,0,1,.68.71V20.9a.64.64,0,0,1-.68.64l-3.18-.17a.72.72,0,0,1-.67-.71V17.48A.63.63,0,0,1,18.71,16.84Z"/><text class="cls-8" transform="matrix(1, 0.05, 0, 1, 5.3, 13.2)">X</text><polygon class="cls-1" points="0 0.07 7.57 5.04 7.57 29.54 7.57 31.68 0 24.56 0 0.07"/><polyline class="cls-9" points="0.36 0.31 7.57 5.04 7.57 29.54 7.57 31.68 0.23 24.82"/></svg>