<svg id="Layer_1" data-name="Layer 1" xmlns="http://www.w3.org/2000/svg" viewBox="0 0 128.16 128.16"><defs><style>.cls-1{fill:#00aeef;}.cls-2{opacity:0.9;}.cls-3{fill:#c32a1f;}.cls-4{fill:#fff;}</style></defs><path class="cls-1" d="M65.18,96.32A31.59,31.59,0,1,1,96.77,64.73h0A31.6,31.6,0,0,1,65.18,96.32Zm0-79C32.78,17.34,2,54.05,2,64.73s30.78,47.39,63.18,47.39,63.18-36.71,63.18-47.39S97.58,17.34,65.18,17.34Zm0,31.59a15.82,15.82,0,0,1-15.8,15.8,15.8,15.8,0,1,0,15.8-15.8Z"/><g class="cls-2"><circle class="cls-3" cx="27.61" cy="102.3" r="26.51"/></g><rect class="cls-4" x="22.66" y="81.19" width="9.9" height="27.23" rx="2.48"/><circle class="cls-4" cx="27.61" cy="118.32" r="4.95"/></svg>