<svg id="Layer_1" data-name="Layer 1" xmlns="http://www.w3.org/2000/svg" viewBox="0 0 128.16 128.16"><defs><style>.cls-1{fill:#00aeef;}.cls-2{fill:#f18a00;}.cls-3{fill:#fff;}</style></defs><path class="cls-1" d="M64.73,96.32A31.59,31.59,0,1,1,96.32,64.73h0A31.6,31.6,0,0,1,64.73,96.32Zm0-79c-32.4,0-63.18,36.73-63.18,47.41s30.78,47.39,63.18,47.39,63.18-36.71,63.18-47.39S97.13,17.34,64.73,17.34Zm0,31.59a15.82,15.82,0,0,1-15.8,15.8,15.8,15.8,0,1,0,15.8-15.8Z"/><circle class="cls-2" cx="91.14" cy="91.14" r="35.51"/><path class="cls-3" d="M91.14,53.47A37.67,37.67,0,1,1,53.47,91.14h0A37.7,37.7,0,0,1,91.14,53.47Zm0,71A33.35,33.35,0,1,0,57.79,91.12v0a33.39,33.39,0,0,0,33.35,33.35Z"/><path class="cls-3" d="M111,86.77h-8.34V73.34A3.38,3.38,0,0,0,99.25,70H83.36A3.38,3.38,0,0,0,80,73.34V86.77H71.65c-1.42,0-1.93.79-1.93,1.53a2.68,2.68,0,0,0,.77,1.7L89,111.31a3,3,0,0,0,4.22.42,4.16,4.16,0,0,0,.42-.42L112.15,90a2.71,2.71,0,0,0,.75-1.7C112.9,87.56,112.39,86.77,111,86.77Z"/></svg>