<svg id="Layer_1" data-name="Layer 1" xmlns="http://www.w3.org/2000/svg" viewBox="0 0 128.16 128.16"><defs><style>.cls-1{fill:#00aeef;}.cls-2{fill:#6dbd45;opacity:0.9;isolation:isolate;}.cls-3{fill:#fff;}</style></defs><path class="cls-1" d="M65.18,96.32A31.59,31.59,0,1,1,96.77,64.73h0A31.6,31.6,0,0,1,65.18,96.32Zm0-79C32.78,17.34,2,54.05,2,64.73s30.78,47.39,63.18,47.39,63.18-36.71,63.18-47.39S97.58,17.34,65.18,17.34Zm0,31.59a15.82,15.82,0,0,1-15.8,15.8,15.8,15.8,0,1,0,15.8-15.8Z"/><circle class="cls-2" cx="27.6" cy="102.31" r="26.5"/><path class="cls-3" d="M45.46,96.22a4.09,4.09,0,0,0-5.78-5.78L23,107.18l-7.32-7.32a4.09,4.09,0,0,0-5.77,5.79h0L21,116.83a2.69,2.69,0,0,0,3.8,0h0l20.6-20.6Z"/></svg>