<svg id="Layer_1" data-name="Layer 1" xmlns="http://www.w3.org/2000/svg" viewBox="0 0 128.16 128.16"><defs><style>.cls-1{fill:#62bb46;}.cls-2{fill:#f18a00;}.cls-3{fill:gray;}</style></defs><path class="cls-1" d="M8.63,119.38V10h84.6V38.08h8V9.5c0-4.29-3.1-7.77-6.9-7.77H7.54C3.74,1.73.65,5.21.65,9.5V119.89c0,4.28,3.09,7.77,6.89,7.77H56.76v-8.28Z"/><path class="cls-1" d="M15.69,19.93H27.38l6.08,10.56,5.91-10.56H50.94L40.25,36.56l11.69,17.7H40l-6.77-11-6.78,11H14.62L26.46,36.37Z"/><path class="cls-2" d="M93.55,65.07a5.15,5.15,0,0,1-3.73-1.34c-1.08-1-1.63-2.72-1.63-5a8.52,8.52,0,0,1,.58-3.42,4.81,4.81,0,0,1,1.82-2.15,5.49,5.49,0,0,1,3-.75,6,6,0,0,1,2.28.41,4.32,4.32,0,0,1,1.7,1.22h0a5.47,5.47,0,0,1,1,1.86,9.19,9.19,0,0,1,.36,2.83,8.67,8.67,0,0,1-.57,3.4,4.75,4.75,0,0,1-1.82,2.15A5.48,5.48,0,0,1,93.55,65.07Zm0-10.14a1.81,1.81,0,0,0-1.43.57c-.33.36-.73,1.23-.73,3.26s.4,2.89.64,3.15a2.08,2.08,0,0,0,3.08,0c.24-.26.64-1,.64-3.15s-.4-2.9-.64-3.16A2,2,0,0,0,93.53,54.93Z"/><path d="M114.46,64.88h-3.27v-5.2H105.1v5.2h-3.26V52.49h3.26V57h6.09V52.49h3.27Z"/><path class="cls-2" d="M60.55,65.07a5.18,5.18,0,0,1-3.74-1.34c-1.08-1-1.62-2.72-1.62-5a8.52,8.52,0,0,1,.58-3.42,4.72,4.72,0,0,1,1.81-2.15,5.53,5.53,0,0,1,3-.75,6,6,0,0,1,2.28.41,4.39,4.39,0,0,1,1.7,1.22h0a5.84,5.84,0,0,1,1,1.86,9.55,9.55,0,0,1,.35,2.83,8.71,8.71,0,0,1-.57,3.4,4.67,4.67,0,0,1-1.81,2.15A5.53,5.53,0,0,1,60.55,65.07Zm0-10.14a1.81,1.81,0,0,0-1.43.57c-.33.36-.73,1.23-.73,3.26s.41,2.89.65,3.15a2.07,2.07,0,0,0,3.07,0h0c.24-.26.65-1,.65-3.15s-.41-2.9-.65-3.16A2,2,0,0,0,60.52,54.93Z"/><path class="cls-2" d="M104.51,83.1a5.21,5.21,0,0,1-3.74-1.33c-1.08-1-1.62-2.72-1.62-5a8.52,8.52,0,0,1,.58-3.42,4.65,4.65,0,0,1,1.81-2.14,5.53,5.53,0,0,1,3-.76,6,6,0,0,1,2.28.41,4.31,4.31,0,0,1,1.7,1.23,5.73,5.73,0,0,1,1,1.86,9.17,9.17,0,0,1,.36,2.82,8.71,8.71,0,0,1-.58,3.41,4.72,4.72,0,0,1-1.81,2.15A5.53,5.53,0,0,1,104.51,83.1Zm0-10.14a1.85,1.85,0,0,0-1.44.57c-.33.37-.73,1.24-.73,3.26s.41,2.89.65,3.16a2,2,0,0,0,1.54.67,2,2,0,0,0,1.53-.68c.24-.26.65-1,.65-3.15s-.41-2.89-.65-3.15A2,2,0,0,0,104.49,73Z"/><path class="cls-2" d="M117.48,128.14a5.17,5.17,0,0,1-3.73-1.33c-1.08-1-1.63-2.73-1.63-5a8.52,8.52,0,0,1,.58-3.42,4.67,4.67,0,0,1,1.82-2.14,5.49,5.49,0,0,1,3-.76,6,6,0,0,1,2.28.41,4.39,4.39,0,0,1,1.7,1.22h0a5.78,5.78,0,0,1,1,1.87,9.08,9.08,0,0,1,.36,2.82,8.75,8.75,0,0,1-.58,3.41,4.72,4.72,0,0,1-1.81,2.15A5.53,5.53,0,0,1,117.48,128.14Zm0-10.14a1.86,1.86,0,0,0-1.44.57c-.33.37-.73,1.24-.73,3.26s.41,2.89.65,3.15a2.07,2.07,0,0,0,3.07,0c.24-.26.65-1,.65-3.15s-.4-2.89-.64-3.15A2,2,0,0,0,117.46,118Z"/><path class="cls-3" d="M65.54,79.81a1.74,1.74,0,0,0,1.24.5A1.79,1.79,0,0,0,68,77.22L62.54,72a1.8,1.8,0,0,0-2.48,2.6Z"/><path class="cls-3" d="M99.18,86.87,90.85,95,78,87.63V75.55L86.83,67a1.8,1.8,0,1,0-2.5-2.58l-8.09,7.84-8.1-7.84A1.8,1.8,0,0,0,65.64,67l8.8,8.52V87.63l-13.8,7.88a1.44,1.44,0,0,0-.25.18l-.15.12a1.8,1.8,0,0,0-.65,1.38v14.49a1.79,1.79,0,0,0,.7,1.42l.14.12.21.14,14.71,8.4a1.74,1.74,0,0,0,.89.23,1.76,1.76,0,0,0,.89-.23l14.7-8.4.21-.14.15-.12.07-.06a1.29,1.29,0,0,0,.16-.17.4.4,0,0,0,.1-.12,1.27,1.27,0,0,0,.13-.19l.07-.13a2.09,2.09,0,0,0,.08-.23s0-.09,0-.13,0-.21,0-.32,0,0,0-.07V98l8.79-8.52a1.8,1.8,0,1,0-2.5-2.59ZM76.24,118.13l-13.06-7.46V98.2l13.06-7.46L89.29,98.2v12.47Z"/><path class="cls-3" d="M128.16,86.91a1.8,1.8,0,0,0-2.54,0l-8.09,7.84-8.1-7.84a1.8,1.8,0,0,0-2.5,2.59l8.8,8.52v13.7a1.8,1.8,0,1,0,3.59,0V98l8.8-8.52A1.81,1.81,0,0,0,128.16,86.91Z"/><path class="cls-3" d="M107.4,99.83a1.8,1.8,0,0,0-1.8,1.8v9.18a1.8,1.8,0,1,0,3.59,0v-9.18A1.8,1.8,0,0,0,107.4,99.83Z"/><path class="cls-3" d="M83.27,99.42l-6-3.36a1.8,1.8,0,1,0-1.75,3.14l6,3.35a1.75,1.75,0,0,0,.88.23,1.79,1.79,0,0,0,.87-3.36Z"/><path class="cls-3" d="M70.12,99.06a1.8,1.8,0,0,0-1.76,1.83l.13,6.88a1.8,1.8,0,0,0,1.8,1.77h0a1.8,1.8,0,0,0,1.76-1.83L72,100.82A1.79,1.79,0,0,0,70.12,99.06Z"/><path class="cls-3" d="M81.11,106.5l-6,3.43a1.8,1.8,0,0,0,.9,3.36,1.84,1.84,0,0,0,.9-.24l6-3.43a1.8,1.8,0,0,0-1.79-3.12Z"/></svg>