<svg id="Layer_1" data-name="Layer 1" xmlns="http://www.w3.org/2000/svg" xmlns:xlink="http://www.w3.org/1999/xlink" viewBox="0 0 31.68 31.68"><defs><style>.cls-1,.cls-5{fill:#fcc900;}.cls-2{opacity:0.8;fill:url(#linear-gradient);}.cls-3{fill:#fff;stroke:#fff;stroke-miterlimit:10;stroke-width:1.5px;}.cls-4{fill:#00aeef;}.cls-5{stroke:gray;stroke-linecap:square;stroke-linejoin:bevel;stroke-width:0.41px;opacity:0.34;}</style><linearGradient id="linear-gradient" y1="14.14" x2="23.5" y2="14.14" gradientUnits="userSpaceOnUse"><stop offset="0.54" stop-color="#fff"/><stop offset="1" stop-color="#fff" stop-opacity="0"/></linearGradient></defs><polygon class="cls-1" points="0 0.07 20.95 1.13 20.95 28.21 0 23.4 0 0.07"/><polygon class="cls-1" points="20.95 17.16 23.5 17.61 23.5 27.17 20.95 26.73 20.95 17.16"/><path class="cls-2" d="M0,.07,21,1.13V28.21L0,23.4ZM21,26.73l2.55.44V17.61L21,17.16Z"/><path class="cls-3" d="M15.84,22.16a6.73,6.73,0,0,1-6.32-6.65,5.94,5.94,0,0,1,6.32-6,6.73,6.73,0,0,1,6.32,6.65A5.94,5.94,0,0,1,15.84,22.16Zm0-15.8C9.36,6,3.2,13,3.2,15.18S9.36,25,15.84,25.32s12.64-6.68,12.64-8.82S22.32,6.7,15.84,6.36Zm0,6.32a3,3,0,0,1-3.16,3A3.37,3.37,0,0,0,15.84,19,3,3,0,0,0,19,16,3.37,3.37,0,0,0,15.84,12.68Z"/><path class="cls-4" d="M15.84,22.16a6.73,6.73,0,0,1-6.32-6.65,5.94,5.94,0,0,1,6.32-6,6.73,6.73,0,0,1,6.32,6.65A5.94,5.94,0,0,1,15.84,22.16Zm0-15.8C9.36,6,3.2,13,3.2,15.18S9.36,25,15.84,25.32s12.64-6.68,12.64-8.82S22.32,6.7,15.84,6.36Zm0,6.32a3,3,0,0,1-3.16,3A3.37,3.37,0,0,0,15.84,19,3,3,0,0,0,19,16,3.37,3.37,0,0,0,15.84,12.68Z"/><polygon class="cls-1" points="0 0.07 7.57 5.04 7.57 29.54 7.57 31.68 0 24.56 0 0.07"/><polyline class="cls-5" points="0.36 0.31 7.57 5.04 7.57 29.54 7.57 31.68 0.23 24.82"/></svg>