<svg id="Layer_1" data-name="Layer 1" xmlns="http://www.w3.org/2000/svg" viewBox="0 0 128.16 128.16"><defs><style>.cls-1{fill:none;}.cls-2{fill:#00aeef;}</style></defs><path class="cls-1" d="M65.75,105.86a.86.86,0,0,0-.83-.63.84.84,0,0,0-.83.63h-.3a23.74,23.74,0,0,0-.7,5.57,117.53,117.53,0,0,1-1.67,16.79h6.7a113.35,113.35,0,0,1-1.67-16.79A23.23,23.23,0,0,0,65.75,105.86Z"/><path class="cls-2" d="M85.2,114.11c-1-9.41-4.11-21.9-4.3-24.9a20.38,20.38,0,0,0-1.53-6,32.82,32.82,0,0,0,.89-8.08c-.09-4.1.38-9.91,1.91-13s1.53-4.55,1.53-4.55L88,68.14s4.83,12.23,9,17.37,3.67,8.14,3.67,8.14,1.21,6.55,1.52,7.76,2.45,7.58,3.31,7.86,1.12-1.1.45-2.87a40,40,0,0,1-1.21-4l.54.07s1.69,5.3,1.85,6,.6,3,1.65,2.86.1-3.11.1-3.11l-1.59-5.86.76-.22s1.27,4.54,1.4,5.15.64,4.2,1.69,4.33,1-1.12.86-1.53-.63-4.26-.93-5.18-1.3-3.72-1.3-3.72l.48-.29a57.7,57.7,0,0,1,2,5.57c.41,1.7.76,2.7,1.59,2.7s.71-1.23.42-2.54-1.41-6.78-1.82-7.7-1.08-3.18-1.08-3.18a8.25,8.25,0,0,0,1.65.63c.35,0,2.17,1.69,3.06,1.78.67,0,1.08-.63,1.24-1a.18.18,0,0,0,0-.25c-.54-.51-2.83-2.68-3.12-2.87s-4.33-3.3-7-3.78c0,0-4.59-11.86-4.78-14.12s-2.54-9.13-5.54-14c0,0-1.27-8-4.55-11.35,0,0,.24-11.77-5.35-15.33s-7.35-1.72-8.59-2.23-7-3.78-7-3.78v-7a6.21,6.21,0,0,0,.54-2.07l.1-1.18s.92,1.4,1.72.32a7.63,7.63,0,0,0,.7-4.9c-.31-.79-1.31-.28-1.31-.28s.7-5.32-.67-8.11c-3.31-6.72-12-6.72-15.31,0-1.43,2.78-.64,8.11-.64,8.11s-1-.51-1.3.28a7.63,7.63,0,0,0,.7,4.9c.8,1.08,1.72-.32,1.72-.32l.09,1.18a6.36,6.36,0,0,0,.57,2.1v7s-5.8,3.27-7.07,3.78-3-1.36-8.6,2.23-5.34,15.33-5.34,15.33C34,54.22,32.7,62.22,32.7,62.22c-3,4.84-5.45,11.73-5.65,14s-4.78,14.12-4.78,14.12c-2.64.48-6.71,3.62-7,3.78s-2.58,2.36-3.12,2.87a.23.23,0,0,0,0,.25c.13.32.55,1,1.25,1,.89-.06,2.7-1.78,3-1.78a12.32,12.32,0,0,0,1.66-.63S17.45,98,17,98.91s-1.53,6.43-1.82,7.7-.35,2.86.48,2.86,1.21-1.38,1.53-3a44,44,0,0,1,2-5.57l.48.29s-1,2.8-1.3,3.72-.78,4.8-.92,5.18-.16,1.63.86,1.53,1.57-3.7,1.69-4.33,1.4-5.15,1.4-5.15l.76.22-1.59,5.86s-.93,3,.09,3.11,1.5-2.2,1.66-2.86,1.85-6,1.85-6l.54-.07a40,40,0,0,1-1.21,4c-.67,1.87-.42,3.16.44,2.87s3-6.62,3.31-7.86,1.53-7.76,1.53-7.76-.47-3,3.66-8.14,9-17.37,9-17.37l4.38-10.59a12.07,12.07,0,0,0,1.52,4.55c1.53,3.07,2,8.89,1.91,13a33.32,33.32,0,0,0,.9,8.08,20.08,20.08,0,0,0-1.53,6c-.19,3-3.35,15.48-4.3,24.9a47.23,47.23,0,0,0,1.14,14.14H61.42a117.53,117.53,0,0,0,1.67-16.79,23.74,23.74,0,0,1,.7-5.57h.3a.84.84,0,0,1,.83-.63.86.86,0,0,1,.83.63,23.23,23.23,0,0,1,.7,5.57,113.35,113.35,0,0,0,1.67,16.79H84.07A46.75,46.75,0,0,0,85.2,114.11Z"/></svg>