<?xml version="1.0" encoding="utf-8"?>
<svg viewBox="0 0 500 500" xmlns="http://www.w3.org/2000/svg">
  <g transform="matrix(1, 0, 0, 1, 64.496384, 23.651379)"/>
  <path class="st0" d="M 218.913 174.551 L 211.413 174.551 L 211.413 155.351 L 217.313 155.351 C 218.013 155.351 218.513 154.451 218.513 153.351 L 218.513 71.451 C 218.513 70.351 218.013 69.451 217.313 69.451 L 210.513 69.451 L 210.513 65.951 C 210.513 64.851 210.013 63.951 209.313 63.951 L 208.713 63.951 L 208.713 25.751 L 207.113 34.051 L 207.113 63.951 L 206.513 63.951 C 205.813 63.951 205.313 64.851 205.313 65.951 L 205.313 69.451 L 198.513 69.451 C 197.813 69.451 197.313 70.351 197.313 71.451 L 197.313 153.351 C 197.313 154.451 197.813 155.351 198.513 155.351 L 204.413 155.351 L 204.413 174.551 L 196.913 174.551 C 196.313 174.551 195.913 175.351 195.913 176.251 L 195.913 182.551 C 195.913 183.551 196.413 184.251 196.913 184.251 L 205.613 184.251 L 210.113 184.251 L 218.813 184.251 C 219.413 184.251 219.813 183.451 219.813 182.551 L 219.813 176.251 C 219.913 175.351 219.513 174.551 218.913 174.551 Z M 206.413 123.651 L 206.413 150.551 L 200.513 150.551 C 200.013 150.551 199.513 149.651 199.513 148.551 L 199.513 76.151 C 199.513 75.051 199.913 74.151 200.513 74.151 L 206.413 74.151 L 206.413 118.751 L 215.313 118.751 C 215.713 118.751 216.013 119.251 216.013 119.951 L 216.013 122.551 C 216.013 123.151 215.713 123.751 215.313 123.751 L 206.413 123.651 Z" style="fill: rgb(0, 174, 239);"/>
  <path class="st0" d="M 87.613 99.551 L 18.613 99.551 L 18.613 58.251 C 18.613 58.251 18.413 23.951 53.113 23.951 C 87.913 23.951 87.613 58.251 87.613 58.251 L 87.613 99.551 Z M 35.313 68.051 C 35.313 61.751 37.713 55.651 42.113 51.151 C 46.913 46.251 51.213 40.151 43.813 40.151 C 31.313 40.151 31.413 57.351 31.413 57.351 L 31.413 88.351 L 35.413 88.351 L 35.413 68.051 L 35.313 68.051 Z" style="fill: rgb(0, 174, 239);"/>
  <path class="st1" d="M 18.613 118.251 L 87.613 118.251 L 87.613 151.651 C 87.613 151.651 87.813 185.951 53.113 185.951 C 18.313 185.951 18.613 151.651 18.613 151.651 L 18.613 118.251 Z M 35.313 128.251 L 31.313 128.251 L 31.313 152.651 C 31.313 152.651 31.213 169.851 43.713 169.851 C 51.113 169.851 46.813 163.851 42.013 158.851 C 37.613 154.351 35.213 148.251 35.213 141.951 L 35.213 128.251 L 35.313 128.251 Z" style="fill: rgb(98, 187, 70);"/>
  <path class="st1" d="M 142.313 23.951 C 173.513 23.351 178.513 48.351 178.513 66.051 L 153.113 68.251 C 153.113 57.651 151.413 45.351 142.813 45.351 C 136.113 45.551 133.913 52.051 133.913 61.051 C 133.913 71.851 144.213 83.951 154.313 97.051 C 166.313 113.251 178.513 128.951 178.513 146.051 C 178.513 167.151 170.813 185.951 142.513 185.951 C 109.213 185.951 104.913 163.351 104.913 139.751 L 130.313 137.551 C 130.313 150.751 131.713 164.551 142.513 164.551 C 150.213 164.551 153.013 157.051 153.013 147.051 C 153.013 136.451 142.013 123.751 132.113 110.351 C 119.913 94.151 108.413 77.951 108.413 60.951 C 108.513 43.751 117.813 24.351 142.313 23.951 Z" style="fill: rgb(98, 187, 70);"/>
  <path class="st0" d="M 195.913 25.651 L 226.113 25.651 C 248.613 25.651 271.613 36.651 271.613 73.151 C 271.613 109.651 248.613 120.851 226.113 120.851 L 226.113 97.051 C 242.413 97.051 245.513 91.651 245.513 73.951 C 245.513 56.251 242.513 49.351 226.213 49.351 L 195.913 49.351" style="fill: rgb(0, 174, 239);"/>
</svg>