<?xml version="1.0" encoding="utf-8"?>
<!-- Generator: Adobe Illustrator 22.0.1, SVG Export Plug-In . SVG Version: 6.00 Build 0)  -->
<svg version="1.1" id="Layer_1" xmlns="http://www.w3.org/2000/svg" xmlns:xlink="http://www.w3.org/1999/xlink" x="0px" y="0px"
	 viewBox="0 0 500 500" style="enable-background:new 0 0 500 500;" xml:space="preserve">
<style type="text/css">
	.st0{fill:#00AEEF;}
	.st1{fill:#2BACE2;}
	.st2{fill:#62BB46;}
	.st3{fill:#FFFFFF;}
</style>
<g>
	<g>
		<path class="st0" d="M393.5,385.5l-14.6,0l0-37.4l11.5,0c1.3,0,2.4-1.8,2.4-3.9l0-159.4c0-2.2-1.1-3.9-2.4-3.9l-13.2,0l0-6.9
			c0-2.2-1.1-3.9-2.4-3.9l-1.1,0l0-74.4l-3.2,16.1l0,58.2l-1.1,0c-1.3,0-2.4,1.8-2.4,3.9l0,6.9l-13.2,0c-1.3,0-2.4,1.8-2.4,3.9
			l0,159.4c0,2.2,1.1,3.9,2.4,3.9l11.5,0l0,37.4l-14.6,0c-1.1,0-2,1.5-2,3.4l0,12.3c0,1.9,0.9,3.4,2,3.4l16.9,0l8.8,0l16.9,0
			c1.1,0,2-1.5,2-3.4l0-12.3C395.5,387,394.6,385.5,393.5,385.5z M369.2,286.5l0,52.3l-11.5,0c-1,0-1.9-1.8-1.9-3.9l0-140.8
			c0-2.2,0.8-3.9,1.9-3.9l11.5,0l0,86.8l17.2,0c0.8,0,1.4,1,1.4,2.3l0,5c0,1.3-0.6,2.3-1.4,2.3L369.2,286.5z"/>
		<path class="st1" d="M138.1,159.1c0,0,0.5-66.7-67.2-66.7c-67.6,0-67.2,66.7-67.2,66.7v80.3h134.3V159.1z"/>
		<path class="st2" d="M3.7,340.9c0,0-0.5,66.7,67.2,66.7c67.6,0,67.2-66.7,67.2-66.7v-64.9H3.7V340.9z"/>
		<path class="st3" d="M36.2,178.3c0-12.2,4.6-24.1,13.2-32.9c9.3-9.6,17.7-21.3,3.3-21.3c-24.3,0-24.2,33.5-24.2,33.5v60.1h7.7
			V178.3z"/>
		<path class="st3" d="M36.2,322.3c0,12.2,4.6,24.1,13.2,32.9c9.3,9.6,17.7,21.3,3.3,21.3c-24.3,0-24.2-33.5-24.2-33.5v-47.5h7.7
			V322.3z"/>
		<path class="st2" d="M244.4,92.4c60.6-1.3,70.4,47.4,70.4,81.9l-49.4,4.2c0-20.6-3.3-44.5-20.1-44.5c-13.1,0.4-17.3,13-17.3,30.6
			c0,21,20.1,44.5,39.6,70.1c23.3,31.5,47.1,62.1,47.1,95.3c0,41.1-14.9,77.7-70,77.7c-64.8,0-73.2-44.1-73.2-89.8l49.4-4.2
			c0,25.6,2.8,52.5,23.8,52.5c14.9,0,20.5-14.7,20.5-34c0-20.6-21.5-45.3-40.6-71.4c-23.8-31.5-46.2-63-46.2-96.1
			C178.6,131,196.8,93.2,244.4,92.4z"/>
		<path class="st0" d="M348.8,95.7h58.8c43.8,0,88.6,21.4,88.6,92.3s-44.8,92.8-88.6,92.8v-46.2c31.7,0,37.8-10.5,37.8-44.9
			s-6.1-47.9-37.8-47.9h-58.8"/>
	</g>
</g>
</svg>
