<svg id="Layer_1" data-name="Layer 1" xmlns="http://www.w3.org/2000/svg" viewBox="0 0 128.16 128.16"><defs><style>.cls-1{fill:#00aeef;}.cls-2{fill:none;}.cls-3{fill:#f18a00;}</style></defs><rect class="cls-1" x="25.07" y="60.73" width="7.38" height="8"/><rect class="cls-1" x="60.76" y="97.04" width="8" height="7.38"/><rect class="cls-1" x="86.21" y="86.5" width="8" height="7.37" transform="translate(-37.35 90.2) rotate(-45)"/><rect class="cls-1" x="35.3" y="35.59" width="8" height="7.37" transform="translate(-16.26 39.29) rotate(-45)"/><rect class="cls-1" x="35.62" y="86.19" width="7.37" height="8" transform="translate(-52.26 54.21) rotate(-45)"/><path class="cls-2" d="M70.68,64.73A6.48,6.48,0,0,1,64,58.5V20.16A44.62,44.62,0,0,0,20.17,64.73h0a44.59,44.59,0,0,0,89.18,0s0-.1,0-.15a6.73,6.73,0,0,1-1.63.15Z"/><path class="cls-3" d="M64.76,20.14l-.8,0V58.5a6.48,6.48,0,0,0,6.72,6.23h37a6.73,6.73,0,0,0,1.63-.15A44.58,44.58,0,0,0,64.76,20.14Z"/><path class="cls-1" d="M64.73,4.68a60,60,0,1,0,60.05,60.05A60,60,0,0,0,64.73,4.68Zm0,104.64A44.59,44.59,0,0,1,20.14,64.73h0A44.62,44.62,0,0,1,64,20.16l.8,0a44.58,44.58,0,0,1,44.55,44.44s0,.1,0,.15A44.6,44.6,0,0,1,64.73,109.32Z"/></svg>