<svg id="Layer_1" data-name="Layer 1" xmlns="http://www.w3.org/2000/svg" viewBox="0 0 128.16 128.16"><defs><style>.cls-1{fill:#62bb46;fill-rule:evenodd;}.cls-2{fill:#6d6e70;}.cls-3{fill:gray;}.cls-4{fill:#f18a00;}.cls-5{fill:#fff;}</style></defs><path class="cls-1" d="M30.08,43.4a2.9,2.9,0,0,0,4.08,0L46.38,31.17a2.88,2.88,0,0,0-4.07-4.07L32.12,37.28,26,31.17a2.88,2.88,0,1,0-4.07,4.08ZM34.16,60A25.93,25.93,0,1,0,8.23,34.05,25.93,25.93,0,0,0,34.16,60Z"/><g id="Scatter"><g id="Simulation"><path class="cls-2" d="M118,126.72H11.51A8.57,8.57,0,0,1,3,118.17V11.29a8.56,8.56,0,0,1,8.56-8.55H118a8.57,8.57,0,0,1,8.56,8.55V118.17A8.58,8.58,0,0,1,118,126.72ZM11.51,4a7.29,7.29,0,0,0-7.28,7.27V118.17a7.29,7.29,0,0,0,7.28,7.27H118a7.29,7.29,0,0,0,7.28-7.27V11.29A7.29,7.29,0,0,0,118,4Z"/></g></g><path class="cls-3" d="M95.3,16.12A17.93,17.93,0,1,1,77.37,34.05,17.93,17.93,0,0,1,95.3,16.12m0-8a25.93,25.93,0,1,0,25.93,25.93A25.93,25.93,0,0,0,95.3,8.12Z"/><path class="cls-3" d="M34.16,77.48A17.93,17.93,0,1,1,16.23,95.41h0A18,18,0,0,1,34.16,77.48m0-8A25.93,25.93,0,1,0,60.09,95.41h0A25.93,25.93,0,0,0,34.16,69.48Z"/><path class="cls-3" d="M95.3,77.48A17.93,17.93,0,1,1,77.37,95.41h0A18,18,0,0,1,95.3,77.48m0-8a25.93,25.93,0,1,0,25.93,25.93h0A25.93,25.93,0,0,0,95.3,69.48Z"/><circle class="cls-4" cx="90.32" cy="90.32" r="36.28"/><path class="cls-5" d="M90.32,51.84A38.49,38.49,0,1,1,51.84,90.32h0A38.48,38.48,0,0,1,90.32,51.84Zm0,72.51A34.07,34.07,0,1,0,56.25,90.28v0A34.07,34.07,0,0,0,90.32,124.35Z"/><path class="cls-5" d="M70.42,94.69h8.5v13.89A3.44,3.44,0,0,0,82.35,112H98.62a3.44,3.44,0,0,0,3.43-3.44V94.69h8.54c1.47,0,2-.81,2-1.55a2.9,2.9,0,0,0-.78-1.76l-19-21.57a3.1,3.1,0,0,0-2.36-1.14,3,3,0,0,0-2.37,1.14L69.2,91.38a2.77,2.77,0,0,0-.74,1.76C68.46,93.88,69,94.69,70.42,94.69Z"/></svg>