<svg id="Layer_1" data-name="Layer 1" xmlns="http://www.w3.org/2000/svg" viewBox="0 0 128.16 128.16"><defs><style>.cls-1{fill:#00aeef;}.cls-2,.cls-6{fill:#f18a00;}.cls-3,.cls-4{fill:#fff;}.cls-4,.cls-6{stroke:#fff;}.cls-4,.cls-5,.cls-6{stroke-linecap:round;stroke-linejoin:round;}.cls-4,.cls-5{stroke-width:4.3px;}.cls-5{fill:none;stroke:#f18a00;}.cls-6{stroke-width:1.07px;}</style></defs><g id="Journal_Ribbon" data-name="Journal Ribbon"><path class="cls-1" d="M24.36,63.22H77a4,4,0,0,0,0-7.72H24.48a3.86,3.86,0,1,0-.12,7.72Z"/><path class="cls-1" d="M20.5,59.36v.12s0,0,0-.07S20.5,59.38,20.5,59.36Z"/><path class="cls-1" d="M20.5,80.8v.08a.43.43,0,0,1,0,0A0,0,0,0,1,20.5,80.8Z"/><path class="cls-1" d="M24.36,84.57H77a3.87,3.87,0,0,0,2.08,0A4,4,0,1,0,77,76.9H24.48a3.84,3.84,0,1,0-.12,7.67Z"/><path class="cls-1" d="M98.14,29.57,71.89,3.12A3.62,3.62,0,0,0,69,1.73H13.66A11.93,11.93,0,0,0,1.73,13.66v102a11.93,11.93,0,0,0,11.93,11.93H87.72a11.93,11.93,0,0,0,11.93-11.93v-83A4,4,0,0,0,98.14,29.57ZM73,28.69V15.09l13.72,13.6Zm-63.52-15a4.19,4.19,0,0,1,4.22-4H65V32.43a4,4,0,0,0,4,4h23v79.27a4.17,4.17,0,0,1-4.17,4.17H13.42a4.18,4.18,0,0,1-4-4.37Z"/><path class="cls-1" d="M24.36,106H77a3.87,3.87,0,0,0,2.08,0A4,4,0,1,0,77,98.3H24.48a3.84,3.84,0,1,0-.12,7.67Z"/><circle class="cls-2" cx="90.26" cy="90.26" r="35.32"/><path class="cls-3" d="M90.26,127.73a37.47,37.47,0,1,1,37.47-37.47h0A37.48,37.48,0,0,1,90.26,127.73Zm0-70.6A33.17,33.17,0,1,0,123.43,90.3v0A33.17,33.17,0,0,0,90.26,57.13Z"/><polyline class="cls-4" points="73.64 94.84 100.48 67.99 113.49 81 86.64 107.84"/><polyline class="cls-4" points="86.64 107.84 71.01 110.47 73.64 94.84"/><line class="cls-5" x1="86.6" y1="100.6" x2="105.85" y2="81.35"/><line class="cls-5" x1="80.48" y1="94.48" x2="99.73" y2="75.23"/><path class="cls-6" d="M76.46,98.93c-.44-.47-1.47,0-1.63.84l-1.51,7.12a.83.83,0,0,0,.64,1,.69.69,0,0,0,.35,0l7.32-1.23c.8,0,1.35-1.15.88-1.63Z"/></g></svg>