<svg id="Layer_1" data-name="Layer 1" xmlns="http://www.w3.org/2000/svg" viewBox="0 0 128.16 128.16"><defs><style>.cls-1{fill:#00aeef;}.cls-2{fill:#f18a00;}.cls-3{fill:#fff;}</style></defs><g id="Journal_Ribbon" data-name="Journal Ribbon"><path class="cls-1" d="M24.36,63.22H77a4,4,0,0,0,0-7.72H24.48a3.86,3.86,0,1,0-.12,7.72Z"/><path class="cls-1" d="M20.5,59.36v.12s0,0,0-.07S20.5,59.38,20.5,59.36Z"/><path class="cls-1" d="M24.36,84.57H77a3.87,3.87,0,0,0,2.08,0A4,4,0,1,0,77,76.9H24.48a3.84,3.84,0,1,0-.12,7.67Z"/><path class="cls-1" d="M20.5,80.8v.08a.43.43,0,0,1,0,0A0,0,0,0,1,20.5,80.8Z"/><path class="cls-1" d="M98.14,29.57,71.89,3.12A3.62,3.62,0,0,0,69,1.73H13.66A11.93,11.93,0,0,0,1.73,13.66v102a11.93,11.93,0,0,0,11.93,11.93H87.72a11.93,11.93,0,0,0,11.93-11.93v-83A4,4,0,0,0,98.14,29.57ZM73,28.69V15.09l13.72,13.6Zm-63.52-15a4.19,4.19,0,0,1,4.22-4H65V32.43a4,4,0,0,0,4,4h23v79.27a4.17,4.17,0,0,1-4.17,4.17H13.42a4.18,4.18,0,0,1-4-4.37Z"/><path class="cls-1" d="M24.36,106H77a3.87,3.87,0,0,0,2.08,0A4,4,0,1,0,77,98.3H24.48a3.84,3.84,0,1,0-.12,7.67Z"/><circle class="cls-2" cx="90.26" cy="90.26" r="35.32"/><path class="cls-3" d="M90.26,127.73a37.47,37.47,0,1,1,37.47-37.47h0A37.48,37.48,0,0,1,90.26,127.73Zm0-70.6A33.17,33.17,0,1,0,123.43,90.3v0A33.17,33.17,0,0,0,90.26,57.13Z"/><polygon class="cls-3" points="95.03 108.68 85.53 108.68 85.53 94.8 71.89 94.8 71.89 85.65 85.53 85.65 85.53 71.89 95.03 71.89 95.03 85.65 108.68 85.65 108.68 94.8 95.03 94.8 95.03 108.68"/></g></svg>