<svg id="Layer_1" data-name="Layer 1" xmlns="http://www.w3.org/2000/svg" viewBox="0 0 128.16 128.16"><defs><style>.cls-1{fill:#00aeef;}.cls-2{fill:#62bb46;stroke:#fff;stroke-miterlimit:10;stroke-width:3px;opacity:0.85;}.cls-3{font-size:32px;font-family:Arial-Black, Arial Black;letter-spacing:0.11em;}.cls-3,.cls-5{fill:#fff;}.cls-4{fill:#6dbd45;opacity:0.9;}</style></defs><title>ParameterStartValuesGreen</title><rect class="cls-1" x="0.73" y="41.84" width="13.33" height="13.33" rx="4.19" ry="4.19"/><rect class="cls-1" x="0.73" y="73.68" width="13.33" height="13.33" rx="4.19" ry="4.19"/><rect class="cls-1" x="0.73" y="105.33" width="13.33" height="13.33" rx="4.19" ry="4.19"/><rect class="cls-1" x="22.8" y="41.84" width="104.63" height="13.33" rx="4.19" ry="4.19"/><rect class="cls-1" x="22.8" y="73.68" width="104.63" height="13.33" rx="4.19" ry="4.19"/><rect class="cls-1" x="22.8" y="105.33" width="104.63" height="13.33" rx="4.19" ry="4.19"/><rect class="cls-1" x="0.73" y="0.91" width="126.71" height="26.26" rx="6.67" ry="6.67"/><path class="cls-2" d="M1,13.17H94.25a9.15,9.15,0,0,1,9.15,9.15V43.55a9.15,9.15,0,0,1-9.15,9.14H1"/><text class="cls-3" transform="translate(11.39 45.19)">PSV</text><circle class="cls-4" cx="26.5" cy="101.66" r="26.5"/><path class="cls-5" d="M44.36,95.57a4.09,4.09,0,0,0-5.78-5.78L21.85,106.53l-7.32-7.32A4.09,4.09,0,0,0,8.75,105h0l11.17,11.18a2.69,2.69,0,0,0,3.82,0l20.6-20.6Z"/></svg>