<?xml version="1.0" encoding="UTF-8"?><svg id="Layer_1" xmlns="http://www.w3.org/2000/svg" viewBox="0 0 128.16 128.16"><defs><style>.cls-1,.cls-2{fill:#fff;}.cls-1,.cls-3{opacity:.85;}.cls-4{fill:#00aeef;}.cls-3{fill:#62bb46;}.cls-5{fill:#f18a00;}</style></defs><rect class="cls-4" x=".9" y="1.52" width="126.35" height="26.28" rx="6.66" ry="6.66"/><rect class="cls-4" x=".9" y="74.24" width="13.33" height="13.33" rx="4.26" ry="4.26"/><rect class="cls-4" x="23.02" y="74.24" width="104.24" height="13.33" rx="4.26" ry="4.26"/><rect class="cls-4" x=".9" y="106.03" width="13.33" height="13.33" rx="4.26" ry="4.26"/><rect class="cls-4" x="23.02" y="106.03" width="104.24" height="13.33" rx="4.26" ry="4.26"/><rect class="cls-4" x=".9" y="42.46" width="13.33" height="13.33" rx="4.26" ry="4.26"/><rect class="cls-4" x="23.02" y="42.46" width="104.24" height="13.33" rx="4.26" ry="4.26"/><path class="cls-3" d="M71.7,44.11l-.08-21.23c-.02-4.2-3.43-7.62-7.61-7.67h-.06s-63.31,0-63.31,0l-.13,36.52h63.57c4.21.02,7.63-3.4,7.61-7.61Z"/><path class="cls-1" d="M74.63,22.88c-.01-2.84-1.13-5.52-3.14-7.54-2-2-4.64-3.11-7.46-3.14-.03,0-.05,0-.08,0H.67s-.01,3-.01,3h63.31s.04,0,.06,0c4.19.04,7.6,3.47,7.61,7.67l.08,21.23c.02,4.21-3.4,7.63-7.61,7.62H.52s-.01,2.99-.01,2.99h63.59c5.87.03,10.62-4.73,10.6-10.6l-.08-21.23Z"/><path class="cls-2" d="M13.77,22.78l11.76.04c2.56,0,4.48.62,5.76,1.85,1.28,1.22,1.92,2.96,1.93,5.21,0,2.31-.68,4.12-2.07,5.41-1.39,1.3-3.51,1.94-6.36,1.93h-3.87s.03,8.49.03,8.49l-7.11-.02-.08-22.91ZM20.91,32.57h1.73c1.36.01,2.32-.22,2.87-.69.55-.47.82-1.08.82-1.82,0-.72-.24-1.33-.72-1.83-.48-.5-1.38-.75-2.71-.76h-2.02s.02,5.1.02,5.1Z"/><path class="cls-2" d="M36.67,22.66l7.4.03,5.21,16.5,5.03-16.47,7.18.02-8.42,22.88-7.67-.03-8.73-22.94Z"/><circle class="cls-5" cx="90.26" cy="90.26" r="35.32"/><path class="cls-2" d="M90.26,127.73c-20.69,0-37.47-16.77-37.47-37.47s16.77-37.47,37.47-37.47,37.47,16.77,37.47,37.47h0c0,20.69-16.77,37.47-37.47,37.47ZM90.26,57.13c-18.32,0-33.17,14.85-33.17,33.17,0,18.32,14.85,33.17,33.17,33.17,18.32,0,33.17-14.85,33.17-33.17,0-.01,0-.03,0-.04-.02-18.3-14.87-33.13-33.17-33.13Z"/><polygon class="cls-2" points="95.03 108.68 85.53 108.68 85.53 94.8 71.89 94.8 71.89 85.65 85.53 85.65 85.53 71.89 95.03 71.89 95.03 85.65 108.68 85.65 108.68 94.8 95.03 94.8 95.03 108.68"/></svg>