<?xml version="1.0" encoding="UTF-8"?><svg id="Layer_1" xmlns="http://www.w3.org/2000/svg" xmlns:xlink="http://www.w3.org/1999/xlink" viewBox="0 0 128.16 128.16"><defs><style>.cls-1,.cls-2{fill:#fff;}.cls-1,.cls-3{opacity:.85;}.cls-4{fill:#00aeef;}.cls-5{fill:url(#linear-gradient);opacity:.8;}.cls-3{fill:#62bb46;}.cls-6,.cls-7{fill:#fcc900;}.cls-7{opacity:.34;stroke:gray;stroke-linecap:square;stroke-linejoin:bevel;stroke-width:1.62px;}</style><linearGradient id="linear-gradient" x1="8.51" y1="57.16" x2="102.17" y2="57.16" gradientUnits="userSpaceOnUse"><stop offset=".54" stop-color="#fff"/><stop offset="1" stop-color="#fff" stop-opacity="0"/></linearGradient></defs><polygon class="cls-6" points="8.51 1.08 91.99 5.33 91.99 113.23 8.51 94.09 8.51 1.08"/><polygon class="cls-6" points="91.99 69.22 102.17 70.99 102.17 109.11 91.99 107.34 91.99 69.22"/><path class="cls-5" d="M8.51,1.08l83.48,4.25v107.91L8.51,94.09V1.08ZM91.99,107.34l10.18,1.77v-38.11l-10.18-1.77v38.11Z"/><path class="cls-4" d="M25.26,53.52l-3.96-.32c-1.85-.15-3.36-1.77-3.37-3.62l-.03-3.96c-.01-1.85,1.48-3.23,3.33-3.08l3.96.32c1.85.15,3.36,1.77,3.37,3.62l.03,3.96c.01,1.85-1.48,3.23-3.33,3.08Z"/><path class="cls-4" d="M25.45,79l-3.96-.32c-1.85-.15-3.36-1.77-3.37-3.62l-.03-3.96c-.01-1.85,1.48-3.23,3.33-3.08l3.96.32c1.85.15,3.36,1.77,3.37,3.62l.03,3.96c.01,1.85-1.48,3.23-3.33,3.08Z"/><path class="cls-4" d="M25.63,104.34l-3.96-.32c-1.85-.15-3.36-1.77-3.37-3.62l-.03-3.96c-.01-1.85,1.48-3.23,3.33-3.08l3.96.32c1.85.15,3.36,1.77,3.37,3.62l.03,3.96c.01,1.85-1.48,3.23-3.33,3.08Z"/><path class="cls-4" d="M115.97,60.79l-77-6.17c-1.85-.15-3.36-1.77-3.37-3.62l-.03-3.96c-.01-1.85,1.48-3.23,3.33-3.08l77,6.17c1.85.15,3.36,1.77,3.37,3.62l.03,3.96c.01,1.85-1.48,3.23-3.33,3.08Z"/><path class="cls-4" d="M116.15,86.28l-77-6.17c-1.85-.15-3.36-1.77-3.37-3.62l-.03-3.96c-.01-1.85,1.48-3.23,3.33-3.08l77,6.17c1.85.15,3.36,1.77,3.37,3.62l.03,3.96c.01,1.85-1.48,3.23-3.33,3.08Z"/><path class="cls-4" d="M116.33,111.61l-77-6.17c-1.85-.15-3.36-1.77-3.37-3.62l-.03-3.96c-.01-1.85,1.48-3.23,3.33-3.08l77,6.17c1.85.15,3.36,1.77,3.37,3.62l.03,3.96c.01,1.85-1.48,3.23-3.33,3.08Z"/><path class="cls-4" d="M113.82,38.22l-90.7-7.27c-2.95-.24-5.35-2.82-5.37-5.77l-.07-10.34c-.02-2.95,2.35-5.15,5.3-4.91l90.7,7.27c2.95.24,5.35,2.82,5.37,5.77l.07,10.34c.02,2.95-2.35,5.15-5.3,4.91Z"/><path class="cls-3" d="M86.82,48l-.12-17c-.02-3.36-2.76-6.31-6.11-6.6h-.04s-50.64-3.89-50.64-3.89v29.21l50.85,3.91c3.37.27,6.09-2.25,6.07-5.63Z"/><path class="cls-1" d="M89.09,31.2c-.02-2.28-.92-4.49-2.54-6.22-1.6-1.72-3.72-2.78-5.97-2.97-.02,0-.04,0-.06,0l-50.63-3.89v2.4h0l50.64,3.89h.04c3.35.3,6.09,3.25,6.11,6.61l.12,17c.02,3.37-2.7,5.9-6.07,5.63l-50.85-3.91h0v2.4l50.87,3.91c4.69.38,8.49-3.14,8.45-7.84l-.12-17Z"/><path class="cls-2" d="M40.41,27.38l9.41.75c2.05.16,3.59.78,4.62,1.83,1.03,1.06,1.55,2.49,1.56,4.29.01,1.85-.53,3.25-1.64,4.21-1.11.95-2.8,1.34-5.08,1.15l-3.1-.25.05,6.8-5.69-.46-.13-18.34ZM46.15,35.65l1.39.11c1.09.09,1.86-.04,2.3-.38.44-.34.66-.81.65-1.4,0-.58-.2-1.08-.59-1.51-.39-.43-1.11-.69-2.17-.77l-1.61-.13.03,4.09Z"/><path class="cls-2" d="M58.73,28.68l5.92.47,4.22,13.53,3.98-12.87,5.75.46-6.67,17.79-6.14-.49-7.05-18.89Z"/><polygon class="cls-6" points="8.51 1.08 38.7 20.91 38.7 118.55 38.7 127.08 8.51 98.72 8.51 1.08"/><polyline class="cls-7" points="9.95 2.03 38.7 20.91 38.7 118.55 38.7 127.08 9.41 99.75"/></svg>