<svg id="Layer_1" data-name="Layer 1" xmlns="http://www.w3.org/2000/svg" xmlns:xlink="http://www.w3.org/1999/xlink" viewBox="0 0 128.16 128.16"><defs><style>.cls-1,.cls-6{fill:#fcc900;}.cls-2{opacity:0.8;fill:url(#linear-gradient);}.cls-3{fill:#00aeef;}.cls-4{fill:#f18a00;}.cls-5{fill:#fff;}.cls-6{stroke:gray;stroke-linecap:square;stroke-linejoin:bevel;stroke-width:1.63px;opacity:0.34;}</style><linearGradient id="linear-gradient" x1="7.66" y1="57.78" x2="101.66" y2="57.78" gradientUnits="userSpaceOnUse"><stop offset="0.54" stop-color="#fff"/><stop offset="1" stop-color="#fff" stop-opacity="0"/></linearGradient></defs><polygon class="cls-1" points="7.66 1.5 91.44 5.76 91.44 114.06 7.66 94.84 7.66 1.5"/><polygon class="cls-1" points="91.44 69.89 101.66 71.67 101.66 109.92 91.44 108.14 91.44 69.89"/><path class="cls-2" d="M7.66,1.5,91.45,5.76V114.05L7.66,94.84ZM91.45,108.14l10.21,1.78V71.67L91.45,69.89Z"/><path class="cls-3" d="M27.16,55.51l-4-.35a3.73,3.73,0,0,1-3.35-3.64v-4a3,3,0,0,1,3.35-3l4,.34a3.74,3.74,0,0,1,3.35,3.65v4A3,3,0,0,1,27.16,55.51Z"/><path class="cls-3" d="M27.16,81l-4-.35A3.73,3.73,0,0,1,19.84,77V73A3,3,0,0,1,23.19,70l4,.35A3.73,3.73,0,0,1,30.51,74v4A3,3,0,0,1,27.16,81Z"/><path class="cls-3" d="M27.16,106.3l-4-.35a3.73,3.73,0,0,1-3.35-3.64v-4a3,3,0,0,1,3.35-3.06l4,.35a3.73,3.73,0,0,1,3.35,3.64v4A3,3,0,0,1,27.16,106.3Z"/><path class="cls-3" d="M117.86,63.44l-77-6.74a3.73,3.73,0,0,1-3.35-3.64v-4A3,3,0,0,1,40.86,46l77,6.74a3.73,3.73,0,0,1,3.35,3.64v4A3,3,0,0,1,117.86,63.44Z"/><path class="cls-3" d="M117.86,88.91l-77-6.73a3.74,3.74,0,0,1-3.35-3.65v-4a3,3,0,0,1,3.35-3l77,6.73a3.74,3.74,0,0,1,3.35,3.65v4A3,3,0,0,1,117.86,88.91Z"/><path class="cls-3" d="M117.86,114.24l-77-6.74a3.73,3.73,0,0,1-3.35-3.64v-4a3,3,0,0,1,3.35-3l77,6.73a3.74,3.74,0,0,1,3.35,3.65v4A3,3,0,0,1,117.86,114.24Z"/><path class="cls-3" d="M115.88,40.87l-90.7-7.94a5.94,5.94,0,0,1-5.34-5.8V16.79a4.82,4.82,0,0,1,5.34-4.87l90.7,7.94a5.94,5.94,0,0,1,5.33,5.8V36A4.82,4.82,0,0,1,115.88,40.87Z"/><ellipse class="cls-4" cx="91.66" cy="85.97" rx="27.19" ry="29.68" transform="translate(-34 87.25) rotate(-43.75)"/><path class="cls-5" d="M91.66,116.11C75,114.65,61.52,100,61.52,83.33S75,54.38,91.66,55.83,121.79,72,121.79,88.61,108.27,117.56,91.66,116.11Zm0-56.82C77,58,65,68.92,65,83.64s12,27.72,26.68,29A24.09,24.09,0,0,0,118.34,88.3C118.34,73.59,106.37,60.58,91.66,59.29Z"/><path class="cls-4" d="M92.16,89.27a3.93,3.93,0,0,1-3.67-3.86,2.93,2.93,0,0,1,1-2l13.81-13.82-.2-3.77a2.47,2.47,0,0,1,.51-1.68l5.17-6.92a2,2,0,0,1,1.65-.82,2.59,2.59,0,0,1,.47.05,2.17,2.17,0,0,1,1.56,1.43l2.36,7.09,6.9,3A2.15,2.15,0,0,1,123,69.6a2.05,2.05,0,0,1-1,2l-7.38,4.54a2.59,2.59,0,0,1-1.33.37l-.36,0L109.17,76,94.09,88.54A2.85,2.85,0,0,1,92.16,89.27Z"/><path class="cls-5" d="M110.4,58h.11a.57.57,0,0,1,.4.37l2.59,7.78,7.56,3.26a.53.53,0,0,1,.33.42.46.46,0,0,1-.21.47l-7.39,4.53a1,1,0,0,1-.49.14h-.14l-4.46-.62-15.63,13a1.32,1.32,0,0,1-.91.36,2,2,0,0,1-1.45-.74,1.61,1.61,0,0,1-.17-2.37L104.9,70.19l-.24-4.49a.94.94,0,0,1,.19-.61L110,58.15a.45.45,0,0,1,.37-.18m0-3.2a3.64,3.64,0,0,0-2.91,1.43l-5.21,7a4.14,4.14,0,0,0-.81,2.7l.16,3.06L88.31,82.26a4.5,4.5,0,0,0-1.41,3.08,5.51,5.51,0,0,0,5.26,5.53,4.57,4.57,0,0,0,3-1.13l14.49-12.06,3.06.43a3.9,3.9,0,0,0,.59,0,4.13,4.13,0,0,0,2.16-.61l7.4-4.54a3.64,3.64,0,0,0,1.7-3.64,3.79,3.79,0,0,0-2.24-2.92l-6.23-2.68L114,57.34a3.76,3.76,0,0,0-2.73-2.48,3.68,3.68,0,0,0-.82-.09Z"/><path class="cls-5" d="M109.52,76.69l-3.7,3.07C108.93,86,108,93.36,103,97.89,96.89,103.49,87,102.62,80.83,96s-6.13-16.6,0-22.19c5-4.54,12.45-4.82,18.37-1.2l3.4-3.4v-.24c-8-5.48-18.5-5.38-25.38.91-8.13,7.41-8.13,20.59,0,29.42s21.3,10,29.42,2.58c6.89-6.29,7.92-16.7,3.13-25.11Z"/><path class="cls-5" d="M97.14,87l4.55-3.77a9.87,9.87,0,0,1-2.41,10.63C95.21,97.54,88.63,97,84.57,92.54s-4.07-11,0-14.71a10,10,0,0,1,10.84-1.47l-4.18,4.19c-1.11,0-1.07,1.83-1.93,2.61-2.07,1.88-2.07,2.55,0,4.8s3.2,3,5.27,1.16C95.42,88.34,97,88.08,97.14,87Z"/><polygon class="cls-1" points="7.66 1.5 37.96 21.41 37.96 119.39 37.96 127.95 7.66 99.49 7.66 1.5"/><polyline class="cls-6" points="9.12 2.46 37.96 21.41 37.96 119.39 37.96 127.95 8.57 100.53"/></svg>