<svg id="Layer_1" data-name="Layer 1" xmlns="http://www.w3.org/2000/svg" viewBox="0 0 128.16 128.16"><defs><style>.cls-1{fill:#f18a00;}.cls-2,.cls-3{fill:none;stroke:#62bb46;stroke-linecap:round;stroke-linejoin:round;stroke-width:4px;}.cls-2{opacity:0.4;}.cls-4{opacity:0.6;}.cls-5{fill:#ccc;}.cls-6{fill:#fff;}</style></defs><circle class="cls-1" cx="25.76" cy="114.61" r="9.98"/><path class="cls-1" d="M124.35,111.74H41.49a14,14,0,0,1,.3,2.87,13.2,13.2,0,0,1-.3,2.86h82.86a2.87,2.87,0,1,0,0-5.73Z"/><path class="cls-1" d="M8.13,114.61a13.29,13.29,0,0,1,.3-2.87h-4a2.87,2.87,0,0,0,0,5.73h4A13.2,13.2,0,0,1,8.13,114.61Z"/><line class="cls-2" x1="119.77" y1="10.01" x2="9.59" y2="85.84"/><path class="cls-3" d="M120,8.74C73,12.27,35.82,49,9.39,84.56"/><g class="cls-4"><path class="cls-3" d="M119.81,13.91C77.58,31.59,42.12,57.8,9.54,89.74"/></g><path class="cls-5" d="M122.33,6.65V87H7.12V6.65H122.33m6-6H1.12V93H128.33V.65Z"/><circle class="cls-1" cx="95.93" cy="72.59" r="30.54"/><path class="cls-6" d="M95.93,105a32.4,32.4,0,1,1,32.4-32.4A32.44,32.44,0,0,1,95.93,105Zm0-61.09a28.69,28.69,0,1,0,28.69,28.69A28.71,28.71,0,0,0,95.93,43.9Z"/><path class="cls-6" d="M95.8,82.46A10.46,10.46,0,1,1,106.26,72,10.46,10.46,0,0,1,95.8,82.46Zm0-26.15C85.07,56.31,74.87,68.46,74.87,72S85.07,87.69,95.8,87.69,116.72,75.54,116.72,72,106.52,56.31,95.8,56.31Zm0,10.46A5.24,5.24,0,0,1,90.56,72a5.24,5.24,0,1,0,5.24-5.23Z"/></svg>