<svg id="Layer_1" data-name="Layer 1" xmlns="http://www.w3.org/2000/svg" viewBox="0 0 128.16 128.16"><defs><style>.cls-1{fill:#00aeef;}.cls-2{fill:#62bb46;stroke:#fff;stroke-miterlimit:10;stroke-width:3px;opacity:0.85;}.cls-3{font-size:32px;fill:#fff;font-family:Arial-Black, Arial Black;letter-spacing:0.11em;}</style></defs><title>ParameterStartValues</title><rect class="cls-1" x="0.73" y="41.84" width="13.33" height="13.33" rx="4.19" ry="4.19"/><rect class="cls-1" x="0.73" y="73.68" width="13.33" height="13.33" rx="4.19" ry="4.19"/><rect class="cls-1" x="0.73" y="105.33" width="13.33" height="13.33" rx="4.19" ry="4.19"/><rect class="cls-1" x="22.8" y="41.84" width="104.63" height="13.33" rx="4.19" ry="4.19"/><rect class="cls-1" x="22.8" y="73.68" width="104.63" height="13.33" rx="4.19" ry="4.19"/><rect class="cls-1" x="22.8" y="105.33" width="104.63" height="13.33" rx="4.19" ry="4.19"/><rect class="cls-1" x="0.73" y="0.91" width="126.71" height="26.26" rx="6.67" ry="6.67"/><path class="cls-2" d="M1,13.17H94.25a9.15,9.15,0,0,1,9.15,9.15V43.55a9.15,9.15,0,0,1-9.15,9.14H1"/><text class="cls-3" transform="translate(11.39 45.19)">PSV</text></svg>