<svg id="Layer_1" data-name="Layer 1" xmlns="http://www.w3.org/2000/svg" viewBox="0 0 128.16 128.16"><defs><style>.cls-1{fill:#00aeef;}.cls-2{fill:#62bb46;stroke:#fff;stroke-miterlimit:10;stroke-width:3px;opacity:0.85;}.cls-3{font-size:32px;font-family:Arial-Black, Arial Black;letter-spacing:0.11em;}.cls-3,.cls-5{fill:#fff;}.cls-4{fill:#f18a00;}</style></defs><title>ParameterStartValuesLoad</title><rect class="cls-1" x="0.73" y="41.84" width="13.33" height="13.33" rx="4.19" ry="4.19"/><rect class="cls-1" x="0.73" y="73.68" width="13.33" height="13.33" rx="4.19" ry="4.19"/><rect class="cls-1" x="0.73" y="105.33" width="13.33" height="13.33" rx="4.19" ry="4.19"/><rect class="cls-1" x="22.8" y="41.84" width="104.63" height="13.33" rx="4.19" ry="4.19"/><rect class="cls-1" x="22.8" y="73.68" width="104.63" height="13.33" rx="4.19" ry="4.19"/><rect class="cls-1" x="22.8" y="105.33" width="104.63" height="13.33" rx="4.19" ry="4.19"/><rect class="cls-1" x="0.73" y="0.91" width="126.71" height="26.26" rx="6.67" ry="6.67"/><path class="cls-2" d="M1,13.17H94.25a9.15,9.15,0,0,1,9.15,9.15V43.55a9.15,9.15,0,0,1-9.15,9.14H1"/><text class="cls-3" transform="translate(11.39 45.19)">PSV</text><circle class="cls-4" cx="90.49" cy="90.49" r="35.51"/><path class="cls-5" d="M90.49,52.82A37.67,37.67,0,1,1,52.82,90.49,37.71,37.71,0,0,1,90.49,52.82Zm0,71A33.35,33.35,0,1,0,57.14,90.49,33.39,33.39,0,0,0,90.49,123.84Z"/><path class="cls-5" d="M112.25,87.65c0-.74-.51-1.53-1.93-1.53H71c-1.42,0-1.93.79-1.93,1.53a2.67,2.67,0,0,0,.77,1.7l18.51,21.31a3,3,0,0,0,4.64,0l18.51-21.31A2.67,2.67,0,0,0,112.25,87.65Z"/><rect class="cls-5" x="79.33" y="69.31" width="22.65" height="22.65" rx="3.38" ry="3.38"/></svg>