<svg id="Layer_1" data-name="Layer 1" xmlns="http://www.w3.org/2000/svg" viewBox="0 0 128.16 128.16"><defs><style>.cls-1{fill:#00aeef;}.cls-2{fill:#c32a1f;opacity:0.9;isolation:isolate;}.cls-3{fill:#fff;}</style></defs><rect class="cls-1" x="1.73" y="46.87" width="13.24" height="13.24" rx="4.18"/><rect class="cls-1" x="1.73" y="78.53" width="13.24" height="13.24" rx="4.18"/><rect class="cls-1" x="1.73" y="110.03" width="13.24" height="13.24" rx="4.18"/><rect class="cls-1" x="23.68" y="46.87" width="104.05" height="13.24" rx="4.18"/><rect class="cls-1" x="23.68" y="78.53" width="104.05" height="13.24" rx="4.18"/><rect class="cls-1" x="23.68" y="110.03" width="104.05" height="13.24" rx="4.18"/><rect class="cls-1" x="1.73" y="6.18" width="126" height="26.13" rx="6.64"/><circle class="cls-2" cx="29.16" cy="100.83" r="26.51"/><path class="cls-3" d="M38.25,86l-9.09,9.09L20.07,86a4.08,4.08,0,1,0-5.77,5.77l9.09,9.09-9.09,9.09a4.08,4.08,0,1,0,5.77,5.77h0l9.09-9.09,9.09,9.09h0A4.08,4.08,0,1,0,44,109.92l-9.09-9.09L44,91.74h0A4.08,4.08,0,1,0,38.25,86Z"/></svg>