<svg id="Layer_1" data-name="Layer 1" xmlns="http://www.w3.org/2000/svg" viewBox="0 0 128.16 128.16"><defs><style>.cls-1{fill:#00aeef;}.cls-2{fill:#62bb46;stroke:#fff;stroke-miterlimit:10;stroke-width:3px;opacity:0.85;}.cls-3{font-size:32px;font-family:Arial-Black, Arial Black;letter-spacing:0.11em;}.cls-3,.cls-6{fill:#fff;}.cls-4{opacity:0.9;}.cls-5{fill:#c32a1f;}</style></defs><title>ParameterStartValuesRed</title><rect class="cls-1" x="0.73" y="41.84" width="13.33" height="13.33" rx="4.19" ry="4.19"/><rect class="cls-1" x="0.73" y="73.68" width="13.33" height="13.33" rx="4.19" ry="4.19"/><rect class="cls-1" x="0.73" y="105.33" width="13.33" height="13.33" rx="4.19" ry="4.19"/><rect class="cls-1" x="22.8" y="41.84" width="104.63" height="13.33" rx="4.19" ry="4.19"/><rect class="cls-1" x="22.8" y="73.68" width="104.63" height="13.33" rx="4.19" ry="4.19"/><rect class="cls-1" x="22.8" y="105.33" width="104.63" height="13.33" rx="4.19" ry="4.19"/><rect class="cls-1" x="0.73" y="0.91" width="126.71" height="26.26" rx="6.67" ry="6.67"/><path class="cls-2" d="M1,13.17H94.25a9.15,9.15,0,0,1,9.15,9.15V43.55a9.15,9.15,0,0,1-9.15,9.14H1"/><text class="cls-3" transform="translate(11.39 45.19)">PSV</text><g class="cls-4"><circle class="cls-5" cx="26.51" cy="101.65" r="26.51"/></g><rect class="cls-6" x="21.56" y="80.54" width="9.9" height="27.23" rx="2.48" ry="2.48"/><circle class="cls-6" cx="26.51" cy="117.67" r="4.95"/></svg>