<?xml version="1.0" encoding="UTF-8"?><svg id="Layer_1" xmlns="http://www.w3.org/2000/svg" viewBox="0 0 128.16 128.16"><defs><style>.cls-1{fill:#62bb46;isolation:isolate;opacity:.9;}.cls-2,.cls-3{fill:#fff;}.cls-2,.cls-4{opacity:.85;}.cls-5{fill:#00aeef;}.cls-4{fill:#62bb46;}</style></defs><rect class="cls-5" x="1.1" y="1.52" width="126.35" height="26.28" rx="6.66" ry="6.66"/><rect class="cls-5" x="1.1" y="74.24" width="13.33" height="13.33" rx="4.26" ry="4.26"/><rect class="cls-5" x="23.21" y="74.24" width="104.24" height="13.33" rx="4.26" ry="4.26"/><rect class="cls-5" x="1.1" y="106.03" width="13.33" height="13.33" rx="4.26" ry="4.26"/><rect class="cls-5" x="23.21" y="106.03" width="104.24" height="13.33" rx="4.26" ry="4.26"/><rect class="cls-5" x="1.1" y="42.46" width="13.33" height="13.33" rx="4.26" ry="4.26"/><rect class="cls-5" x="23.21" y="42.46" width="104.24" height="13.33" rx="4.26" ry="4.26"/><path class="cls-4" d="M71.9,44.11l-.08-21.23c-.02-4.2-3.43-7.62-7.61-7.67h-.06s-63.31,0-63.31,0l-.13,36.52h63.57c4.21.02,7.63-3.4,7.61-7.61Z"/><path class="cls-2" d="M74.82,22.88c-.01-2.84-1.13-5.52-3.14-7.54-2-2-4.64-3.11-7.46-3.14-.03,0-.05,0-.08,0H.86s-.01,3-.01,3h63.31s.04,0,.06,0c4.19.04,7.6,3.47,7.61,7.67l.08,21.23c.02,4.21-3.4,7.63-7.61,7.62H.72s-.01,2.99-.01,2.99h63.59c5.87.03,10.62-4.73,10.6-10.6l-.08-21.23Z"/><path class="cls-3" d="M13.97,22.78l11.76.04c2.56,0,4.48.62,5.76,1.85,1.28,1.22,1.92,2.96,1.93,5.21,0,2.31-.68,4.12-2.07,5.41-1.39,1.3-3.51,1.94-6.36,1.93h-3.87s.03,8.49.03,8.49l-7.11-.02-.08-22.91ZM21.11,32.57h1.73c1.36.01,2.32-.22,2.87-.69.55-.47.82-1.08.82-1.82,0-.72-.24-1.33-.72-1.83-.48-.5-1.38-.75-2.71-.76h-2.02s.02,5.1.02,5.1Z"/><path class="cls-3" d="M36.86,22.66l7.4.03,5.21,16.5,5.03-16.47,7.18.02-8.42,22.88-7.67-.03-8.73-22.94Z"/><circle class="cls-1" cx="27.15" cy="101.16" r="26.5"/><path class="cls-3" d="M45.01,95.07c1.54-1.66,1.44-4.24-.22-5.78-1.57-1.45-3.99-1.45-5.56,0l-16.73,16.74-7.32-7.32c-1.6-1.59-4.19-1.59-5.78.01-1.59,1.6-1.59,4.19.01,5.78h0l11.17,11.18c1.05,1.05,2.75,1.06,3.8.02,0,0,.01-.01.02-.02l20.6-20.6h.01Z"/></svg>