<svg id="Layer_1" data-name="Layer 1" xmlns="http://www.w3.org/2000/svg" xmlns:xlink="http://www.w3.org/1999/xlink" viewBox="0 0 31.68 31.68"><defs><style>.cls-1,.cls-7,.cls-8{fill:none;}.cls-11,.cls-2{fill:#fcc900;}.cls-3{opacity:0.8;fill:url(#linear-gradient);}.cls-4,.cls-9{fill:gray;}.cls-4,.cls-6{stroke:#fff;stroke-width:1.5px;}.cls-4,.cls-6,.cls-7,.cls-8{stroke-miterlimit:10;}.cls-5{clip-path:url(#clip-path);}.cls-10,.cls-6{fill:#f18a00;}.cls-11,.cls-7,.cls-8{stroke:gray;}.cls-7,.cls-8{stroke-width:1.09px;}.cls-8{stroke-dasharray:1.48 1.48;}.cls-11{stroke-linecap:square;stroke-linejoin:bevel;stroke-width:0.41px;opacity:0.34;}</style><linearGradient id="linear-gradient" y1="14.14" x2="23.5" y2="14.14" gradientUnits="userSpaceOnUse"><stop offset="0.54" stop-color="#fff"/><stop offset="1" stop-color="#fff" stop-opacity="0"/></linearGradient><clipPath id="clip-path"><polygon class="cls-1" points="29.95 29.18 4.61 27.85 4.61 2.5 29.95 3.83 29.95 29.18"/></clipPath></defs><polygon class="cls-2" points="0 0.07 20.95 1.13 20.95 28.21 0 23.4 0 0.07"/><polygon class="cls-2" points="20.95 17.16 23.5 17.61 23.5 27.17 20.95 26.73 20.95 17.16"/><path class="cls-3" d="M0,.07,21,1.13V28.21L0,23.4ZM21,26.73l2.55.44V17.61L21,17.16Z"/><rect class="cls-4" x="8.48" y="9.26" width="1" height="8.75" transform="translate(-5.11 21.88) rotate(-87.01)"/><rect class="cls-4" x="8.48" y="13.36" width="1" height="8.75" transform="translate(-9.2 25.77) rotate(-87)"/><rect class="cls-4" x="25.08" y="10.13" width="1" height="8.75" transform="translate(9.76 39.29) rotate(-87)"/><rect class="cls-4" x="25.08" y="14.23" width="1" height="8.75" transform="translate(5.67 43.18) rotate(-87)"/><rect class="cls-4" x="16.78" y="7.24" width="1" height="0.8"/><path class="cls-4" d="M17.78,26.2h-1V24.69h1Zm0-3h-1V21.66h1Zm0-3h-1V18.63h1Zm0-3h-1V15.61h1Zm0-3h-1V12.58h1Zm0-3h-1V9.56h1Z"/><rect class="cls-4" x="16.78" y="27.71" width="1" height="0.8"/><polygon class="cls-4" points="15.94 8.15 17.28 3.17 18.62 8.15 15.94 8.15"/><g class="cls-5"><path class="cls-6" d="M24.13,16.2c0,7.7-3.07,13.79-6.85,13.59s-6.85-6.6-6.85-14.31S13.5,1.69,17.28,1.89,24.13,8.49,24.13,16.2ZM19.68,1.59l-4.8-.25v29.9l4.8.25Z"/></g><line class="cls-7" x1="4.61" y1="13.4" x2="13.34" y2="13.86"/><line class="cls-7" x1="4.61" y1="17.5" x2="13.34" y2="17.96"/><line class="cls-7" x1="21.22" y1="14.27" x2="29.95" y2="14.73"/><line class="cls-7" x1="21.22" y1="18.37" x2="29.95" y2="18.83"/><line class="cls-7" x1="17.28" y1="7.63" x2="17.28" y2="8.43"/><line class="cls-8" x1="17.28" y1="9.91" x2="17.28" y2="26.97"/><line class="cls-7" x1="17.28" y1="27.71" x2="17.28" y2="28.51"/><polygon class="cls-9" points="15.82 8.63 17.28 3.17 18.74 8.63 15.82 8.63"/><g class="cls-5"><path class="cls-10" d="M24.13,16.2c0,7.7-3.07,13.79-6.85,13.59s-6.85-6.6-6.85-14.31S13.5,1.69,17.28,1.89,24.13,8.49,24.13,16.2ZM19.68,1.59l-4.8-.25v29.9l4.8.25Z"/></g><polygon class="cls-2" points="0 0.07 7.57 5.04 7.57 29.54 7.57 31.68 0 24.56 0 0.07"/><polyline class="cls-11" points="0.36 0.31 7.57 5.04 7.57 29.54 7.57 31.68 0.23 24.82"/></svg>