<svg id="Layer_1" data-name="Layer 1" xmlns="http://www.w3.org/2000/svg" xmlns:xlink="http://www.w3.org/1999/xlink" viewBox="0 0 128.16 128.16"><defs><style>.cls-1{isolation:isolate;}.cls-2{fill:#fff;}</style></defs><image class="cls-1" width="128" height="128" transform="translate(9.93 9.93) scale(0.86)" xlink:href="../13885%20Bayer%20Icons/FINAL%20PNG%20Files/May%2018/Liver.png"/><path class="cls-2" d="M41.81,43.92a18.2,18.2,0,0,1,7.07,1.21,13.15,13.15,0,0,1,4.74,3.19,12.17,12.17,0,0,1,2.67,4.53,16.86,16.86,0,0,1,0,10.51,12.36,12.36,0,0,1-2.67,4.56,13.3,13.3,0,0,1-4.74,3.2,18.57,18.57,0,0,1-7.07,1.21H31.58V88.2H21.85V43.92ZM39.15,64.76a20.45,20.45,0,0,0,3.22-.25,7.43,7.43,0,0,0,2.73-1,5.34,5.34,0,0,0,1.89-2,8.47,8.47,0,0,0,0-6.79,5.42,5.42,0,0,0-1.89-2,7.88,7.88,0,0,0-2.73-1,20.45,20.45,0,0,0-3.22-.25H31.58V64.76Z"/><path class="cls-2" d="M83.17,43.92a18.12,18.12,0,0,1,7.06,1.21A13,13,0,0,1,95,48.33a12.28,12.28,0,0,1,2.66,4.53,16.86,16.86,0,0,1,0,10.51A12.3,12.3,0,0,1,95,67.92a13.25,13.25,0,0,1-4.75,3.2,18.49,18.49,0,0,1-7.06,1.21H73V88.2H63.2V43.92ZM80.5,64.76a20.45,20.45,0,0,0,3.22-.25,7.43,7.43,0,0,0,2.73-1,5.12,5.12,0,0,0,1.89-2,7.06,7.06,0,0,0,.72-3.41,7.06,7.06,0,0,0-.72-3.41,5.12,5.12,0,0,0-1.89-2,7.5,7.5,0,0,0-2.73-1,20.45,20.45,0,0,0-3.22-.25H73V64.76Z"/></svg>