<?xml version="1.0" encoding="utf-8"?>
<!-- Generator: Adobe Illustrator 24.3.0, SVG Export Plug-In . SVG Version: 6.00 Build 0)  -->
<svg version="1.1" id="Layer_1" xmlns="http://www.w3.org/2000/svg" xmlns:xlink="http://www.w3.org/1999/xlink" x="0px" y="0px"
	 viewBox="0 0 128.2 128.2" style="enable-background:new 0 0 128.2 128.2;" xml:space="preserve">
<style type="text/css">
	.st0{fill:url(#SVGID_1_);}
	.st1{fill:none;stroke:#362922;stroke-linecap:round;stroke-linejoin:round;stroke-miterlimit:10;}
	.st2{fill:url(#SVGID_2_);stroke:url(#SVGID_3_);stroke-miterlimit:10;}
	.st3{fill:url(#SVGID_4_);stroke:url(#SVGID_5_);stroke-miterlimit:10;}
	.st4{fill:url(#SVGID_6_);}
	.st5{fill:none;stroke:#362922;stroke-miterlimit:10;}
	.st6{fill:#C39789;}
	.st7{fill:#362922;}
	.st8{fill:#FFFFFF;}
</style>
<g>
	<g>
		
			<linearGradient id="SVGID_1_" gradientUnits="userSpaceOnUse" x1="62.9384" y1="93.1077" x2="92.9499" y2="93.1077" gradientTransform="matrix(1 0 0 -1 0 130)">
			<stop  offset="0" style="stop-color:#773F2F"/>
			<stop  offset="1" style="stop-color:#A85F46"/>
		</linearGradient>
		<path class="st0" d="M62.9,32.4c0,0,2.6-2.8,11.4-3.5S89,30.8,92,33.6c3.1,2.8-2.4,8.5-2.4,8.5L75.7,45L62.9,32.4z"/>
		<path class="st1" d="M62.9,32.4c0,0,2.6-2.8,11.4-3.5S89,30.8,92,33.6"/>
	</g>
	<g>
		
			<linearGradient id="SVGID_2_" gradientUnits="userSpaceOnUse" x1="78.025" y1="74.8167" x2="126.0374" y2="74.8167" gradientTransform="matrix(1 0 0 -1 0 130)">
			<stop  offset="0" style="stop-color:#773F2F"/>
			<stop  offset="0.8022" style="stop-color:#B57355"/>
		</linearGradient>
		
			<linearGradient id="SVGID_3_" gradientUnits="userSpaceOnUse" x1="77.525" y1="74.6784" x2="126.5374" y2="74.6784" gradientTransform="matrix(1 0 0 -1 0 130)">
			<stop  offset="0" style="stop-color:#773F2F"/>
			<stop  offset="1" style="stop-color:#A85F46"/>
		</linearGradient>
		<path class="st2" d="M95.6,31.2c4-2.9,7.4-2.6,12.8-6.2s8.1-5.9,10.7-7.7c2.7-1.8,7.1-2.1,6.8,6.3s-1,26.8-2.4,32.2
			s-4.6,11-10.7,17.4c-6.1,6.4-11.9,12.6-18.8,15.6c-7,3.1-10.3,4.3-12.1,4.5s-3.6,0.8-3.6,0.8s2.9-9.9,2.2-15
			c-0.7-5.1-2.2-21.6-2.2-21.6s-1.1-14,1.1-17C81.7,37.7,95.6,31.2,95.6,31.2z"/>
		<path class="st1" d="M95.6,31.2c4-2.9,7.4-2.6,12.8-6.2s8.1-5.9,10.7-7.7c2.7-1.8,7.1-2.1,6.8,6.3s-1,26.8-2.4,32.2
			s-4.6,11-10.7,17.4c-6.1,6.4-11.9,12.6-18.8,15.6c-7,3.1-10.3,4.3-12.1,4.5s-3.6,0.8-3.6,0.8s2.9-9.9,2.2-15
			c-0.7-5.1-2.2-21.6-2.2-21.6s-1.1-14,1.1-17C81.7,37.7,95.6,31.2,95.6,31.2z"/>
	</g>
	
		<linearGradient id="SVGID_4_" gradientUnits="userSpaceOnUse" x1="24.435" y1="59.7575" x2="76.2503" y2="59.7575" gradientTransform="matrix(1 0 0 -1 0 130)">
		<stop  offset="0" style="stop-color:#773F2F"/>
		<stop  offset="0.8022" style="stop-color:#B57355"/>
	</linearGradient>
	
		<linearGradient id="SVGID_5_" gradientUnits="userSpaceOnUse" x1="4.5579" y1="59.7575" x2="80.9183" y2="59.7575" gradientTransform="matrix(1 0 0 -1 0 130)">
		<stop  offset="0" style="stop-color:#773F2F"/>
		<stop  offset="1" style="stop-color:#A85F46"/>
	</linearGradient>
	<path class="st3" d="M61.6,99c0,0-6.3,10.8-23.8,12.3S8.8,109.8,6.9,99s-4.5-23.8,4.8-45.4S39.2,29,39.2,29s10.4-1.1,20.5,2.2
		s18.6,6.7,19.7,9.3c1.1,2.6,0.7,6,0,12.3s-0.4,7.6-0.5,11.5C78.7,71,82.8,90,78.3,94.1c-4.5,4.1-15.3,10.2-18.9,7.6
		C55.8,99.2,61.6,99,61.6,99z"/>
	<path class="st1" d="M61.6,99c0,0-6.3,10.8-23.8,12.3S8.8,109.8,6.9,99s-4.5-23.8,4.8-45.4S39.2,29,39.2,29s10.4-1.1,20.5,2.2
		s18.6,6.7,19.7,9.3c1.1,2.6,0.7,6,0,12.3s-1.1,4.7-0.5,11.5c0.6,6.7,3.9,25.7-0.6,29.8c-4.5,4.1-16.6,11.4-18.9,7.6L61.6,99z"/>
	
		<linearGradient id="SVGID_6_" gradientUnits="userSpaceOnUse" x1="42.4256" y1="64.4875" x2="75.7338" y2="64.4875" gradientTransform="matrix(1 0 0 -1 0 130)">
		<stop  offset="0" style="stop-color:#773F2F"/>
		<stop  offset="1" style="stop-color:#C27E5C"/>
	</linearGradient>
	<path class="st4" d="M53.2,34.2c0,0-0.8,10.6-5.6,16.5s-6.1,15.9-4.7,22.6C44.3,80,48.5,88,53.2,91.7s7.3,4.5,7.3,4.5
		s0.8,2.5,8.4-2.5c7.5-5,7.8-14,5.9-24.6s-0.6-14-1.4-19.5s-5.3-10.3-10-12.8C58.5,34.2,53.2,34.2,53.2,34.2z"/>
	<path class="st5" d="M53.2,34.2c0,0-0.8,10.6-5.6,16.5s-6.1,15.9-4.7,22.6C44.3,80,48.5,88,53.2,91.7s7.3,4.5,7.3,4.5"/>
	<path class="st6" d="M15,94.2c0,0-2.5-3.6,0-19s1.4-18.7,7.8-26.8s12.3-10,12.3-10s2.5-0.6-3.1,4.2S21.7,51,20.6,58.2
		c-1.1,7.3-2.5,15.9-1.4,22.9s3.9,13,1.1,15.7C17.5,99.5,15,94.2,15,94.2z"/>
	<path class="st6" d="M89.2,58.2c-0.5,1.2-2.3,1-2.5-0.3c-0.6-4.8-0.8-12.2,2.9-15.7c5.7-5.4,12.4-8,12.4-8s0.3,0.2-3.4,4.2
		c-3.6,3.9-8.1,3.8-9.5,9.9S90.9,54,89.2,58.2L89.2,58.2z"/>
	<path class="st7" d="M80,93.7c-0.8,0-0.1-4-0.2-4.8c0-0.2,0.1-15.2-0.9-24.5c-1.1-9.5-0.1-24.1-0.1-24.7c0.1-0.8,0.8-1.4,1.7-1.3
		c0.8,0.1,1.4,0.8,1.3,1.7c0,0.1-4.5,14.6-3.5,23.8c1.1,9.4,4.5,24.9,4.5,25c0,0.8-0.6,1.5-1.5,1.5C81.4,90.3,80.1,93.7,80,93.7z"/>
</g>
<g>
	<path class="st8" d="M43.3,43.8c2.4-0.1,4.8,0.3,7.1,1.2c1.8,0.7,3.4,1.8,4.7,3.2c1.2,1.3,2.1,2.8,2.7,4.5c1.1,3.4,1.1,7.1,0,10.5
		c-0.5,1.7-1.5,3.3-2.7,4.6c-1.3,1.4-2.9,2.5-4.7,3.2c-2.3,0.9-4.7,1.3-7.1,1.2H33.1v15.9h-9.7V43.8H43.3z M40.6,64.6
		c1.1,0,2.2-0.1,3.2-0.2s1.9-0.5,2.7-1s1.4-1.2,1.9-2c0.5-1.1,0.8-2.2,0.7-3.4c0-1.2-0.2-2.3-0.7-3.4c-0.4-0.8-1.1-1.5-1.9-2
		c-0.8-0.5-1.8-0.8-2.7-1c-1.1-0.2-2.1-0.2-3.2-0.2H33v13.3L40.6,64.6L40.6,64.6z"/>
	<path class="st8" d="M84.7,43.8c2.4-0.1,4.8,0.3,7.1,1.2c1.8,0.7,3.4,1.8,4.8,3.2c1.2,1.3,2.1,2.8,2.7,4.5c1.1,3.4,1.1,7.1,0,10.5
		c-0.5,1.7-1.5,3.2-2.7,4.6c-1.3,1.4-3,2.5-4.8,3.2c-2.3,0.9-4.7,1.3-7.1,1.2H74.5v15.9h-9.8V43.8H84.7z M82,64.6
		c1.1,0,2.2-0.1,3.2-0.2s1.9-0.5,2.7-1c0.8-0.5,1.5-1.2,1.9-2c0.5-1.1,0.8-2.2,0.7-3.4c0.1-1.2-0.2-2.4-0.7-3.4
		c-0.4-0.8-1.1-1.5-1.9-2s-1.8-0.8-2.7-1c-1.1-0.2-2.1-0.2-3.2-0.2h-7.5v13.3L82,64.6L82,64.6z"/>
</g>
</svg>
