<svg id="Layer_1" data-name="Layer 1" xmlns="http://www.w3.org/2000/svg" xmlns:xlink="http://www.w3.org/1999/xlink" viewBox="0 0 128.16 128.16"><defs><style>.cls-1{isolation:isolate;}.cls-2{fill:#fff;}</style></defs><image class="cls-1" width="128" height="128" transform="translate(9.93 9.93) scale(0.86)" xlink:href="../13885%20Bayer%20Icons/FINAL%20PNG%20Files/May%2018/Liver.png"/><path class="cls-2" d="M42.08,43.92a18.2,18.2,0,0,1,7.07,1.21,13.15,13.15,0,0,1,4.74,3.19,12.17,12.17,0,0,1,2.67,4.53,17.15,17.15,0,0,1,0,10.51,12.36,12.36,0,0,1-2.67,4.56,13.3,13.3,0,0,1-4.74,3.2,18.57,18.57,0,0,1-7.07,1.21H31.85V88.2H22.12V43.92ZM39.41,64.76a20.58,20.58,0,0,0,3.23-.25,7.43,7.43,0,0,0,2.73-1,5.34,5.34,0,0,0,1.89-2A7.31,7.31,0,0,0,48,58.13a7.17,7.17,0,0,0-.71-3.41,5.42,5.42,0,0,0-1.89-2,7.88,7.88,0,0,0-2.73-1,20.58,20.58,0,0,0-3.23-.25H31.85V64.76Z"/><path class="cls-2" d="M91.87,55.74a9.86,9.86,0,0,0-5.12-4.09,10.12,10.12,0,0,0-3.44-.59,11.27,11.27,0,0,0-5.58,1.27A10.38,10.38,0,0,0,74,55.74a15,15,0,0,0-2.08,4.87,23.81,23.81,0,0,0-.65,5.64,22.57,22.57,0,0,0,.65,5.42A14.83,14.83,0,0,0,74,76.42a10.78,10.78,0,0,0,3.72,3.38,11.49,11.49,0,0,0,5.58,1.27,9,9,0,0,0,7-2.73,12.63,12.63,0,0,0,3.07-7.19h9.43a22.92,22.92,0,0,1-1.92,7.5,18,18,0,0,1-4.1,5.7,17.51,17.51,0,0,1-6,3.6,21.78,21.78,0,0,1-7.5,1.24,22.78,22.78,0,0,1-9.15-1.77,19.75,19.75,0,0,1-6.85-4.86A21.62,21.62,0,0,1,63,75.27a26.52,26.52,0,0,1-1.49-9A27.48,27.48,0,0,1,63,57.06a22.15,22.15,0,0,1,4.27-7.41,19.6,19.6,0,0,1,6.85-5,23.77,23.77,0,0,1,16.1-.73A18.74,18.74,0,0,1,96.05,47a16.62,16.62,0,0,1,4.25,5,18,18,0,0,1,2.11,6.82H93A8,8,0,0,0,91.87,55.74Z"/></svg>