<?xml version="1.0" encoding="utf-8"?>
<!-- Generator: Adobe Illustrator 24.3.0, SVG Export Plug-In . SVG Version: 6.00 Build 0)  -->
<svg version="1.1" id="Layer_1" xmlns="http://www.w3.org/2000/svg" xmlns:xlink="http://www.w3.org/1999/xlink" x="0px" y="0px"
	 viewBox="0 0 128.2 128.2" style="enable-background:new 0 0 128.2 128.2;" xml:space="preserve">
<style type="text/css">
	.st0{fill:#D5D5D5;stroke:#A0A0A1;stroke-width:0.341;stroke-miterlimit:10;}
	.st1{opacity:0.5;fill:#00AEEF;enable-background:new    ;}
	.st2{fill:#62BB46;stroke:#FFFFFF;stroke-miterlimit:10;}
	.st3{fill:#00AEEF;stroke:#FFFFFF;stroke-width:0.75;stroke-miterlimit:10;}
	.st4{fill:#00AEEF;stroke:#FFFFFF;stroke-width:0.8571;stroke-miterlimit:10;}
	.st5{fill:#00AEEF;stroke:#FFFFFF;stroke-width:0.9872;stroke-miterlimit:10;}
	.st6{fill:#00AEEF;stroke:#FFFFFF;stroke-width:0.7916;stroke-miterlimit:10;}
	.st7{fill:#00AEEF;}
</style>
<g>
	<path class="st0" d="M42.4,38.9L3.7,79.2l85.1,10.3l38.7-40.3L42.4,38.9z M87.7,51c1-1.1,3.3-1.8,5-1.6s2.3,1.3,1.3,2.3
		c-1,1.1-3.3,1.8-5,1.6S86.7,52.1,87.7,51z M88.3,57.7c-1,1.1-3.3,1.8-5,1.6C81.6,59.1,81,58,82,57c1-1.1,3.3-1.8,5-1.6
		C88.8,55.6,89.4,56.6,88.3,57.7z M76.1,49.6c1-1.1,3.3-1.8,5-1.6s2.3,1.3,1.3,2.3c-1,1.1-3.3,1.8-5,1.6
		C75.6,51.7,75,50.7,76.1,49.6z M82.6,63.7c-1,1.1-3.3,1.8-5,1.6S75.3,64,76.3,63c1-1.1,3.3-1.8,5-1.6
		C83.1,61.6,83.7,62.6,82.6,63.7z M76.7,56.3c-1,1.1-3.3,1.8-5,1.6s-2.3-1.3-1.3-2.3c1-1.1,3.3-1.8,5-1.6S77.7,55.2,76.7,56.3z
		 M64,48.1c1-1.1,3.3-1.8,5-1.6s2.3,1.3,1.3,2.3c-1,1.1-3.3,1.8-5,1.6C63.5,50.3,62.9,49.2,64,48.1z M71,62.3c-1,1.1-3.3,1.8-5,1.6
		s-2.3-1.3-1.3-2.3c1-1.1,3.3-1.8,5-1.6C71.4,60.1,72,61.2,71,62.3z M64.5,54.8c-1,1.1-3.3,1.8-5,1.6s-2.3-1.3-1.3-2.3
		c1-1.1,3.3-1.8,5-1.6C65,52.7,65.6,53.8,64.5,54.8z M65.3,68.2c-1,1.1-3.3,1.8-5,1.6c-1.7-0.2-2.3-1.3-1.3-2.3c1-1.1,3.3-1.8,5-1.6
		S66.3,67.1,65.3,68.2z M52.5,46.8c1-1.1,3.3-1.8,5-1.6s2.3,1.3,1.3,2.3c-1,1.1-3.3,1.8-5,1.6C52.1,48.9,51.5,47.8,52.5,46.8z
		 M58.8,60.8c-1,1.1-3.3,1.8-5,1.6s-2.3-1.3-1.3-2.3c1-1.1,3.3-1.8,5-1.6C59.3,58.7,59.9,59.7,58.8,60.8z M53.1,53.5
		c-1,1.1-3.3,1.8-5,1.6s-2.3-1.3-1.3-2.3c1-1.1,3.3-1.8,5-1.6C53.6,51.3,54.1,52.4,53.1,53.5z M53.1,66.7c-1,1.1-3.3,1.8-5,1.6
		c-1.7-0.2-2.3-1.3-1.3-2.3c1-1.1,3.3-1.8,5-1.6S54.2,65.7,53.1,66.7z M42,45.5c1-1.1,3.3-1.8,5-1.6s2.3,1.3,1.3,2.3
		c-1,1.1-3.3,1.8-5,1.6C41.5,47.6,40.9,46.6,42,45.5z M47.4,59.4c-1,1.1-3.3,1.8-5,1.6s-2.3-1.3-1.3-2.3c1-1.1,3.3-1.8,5-1.6
		C47.9,57.3,48.4,58.3,47.4,59.4z M36.2,51.4c1-1.1,3.3-1.8,5-1.6s2.3,1.3,1.3,2.3c-1,1.1-3.3,1.8-5,1.6S35.2,52.5,36.2,51.4z
		 M30.5,57.4c1-1.1,3.3-1.8,5-1.6s2.3,1.3,1.3,2.3c-1,1.1-3.3,1.8-5,1.6C30.1,59.5,29.5,58.4,30.5,57.4z M19.7,76
		c-1,1.1-3.3,1.8-5,1.6c-1.7-0.2-2.3-1.3-1.3-2.3c1-1.1,3.3-1.8,5-1.6S20.7,74.9,19.7,76z M19.1,69.3c1-1.1,3.3-1.8,5-1.6
		s2.3,1.3,1.3,2.3c-1,1.1-3.3,1.8-5,1.6C18.7,71.4,18.1,70.3,19.1,69.3z M30.3,77.3c-1,1.1-3.3,1.8-5,1.6c-1.7-0.2-2.3-1.3-1.3-2.3
		c1-1.1,3.3-1.8,5-1.6C30.8,75.1,31.3,76.2,30.3,77.3z M24.8,63.3c1-1.1,3.3-1.8,5-1.6s2.3,1.3,1.3,2.3c-1,1.1-3.3,1.8-5,1.6
		C24.4,65.4,23.8,64.4,24.8,63.3z M29.7,70.5c1-1.1,3.3-1.8,5-1.6c1.7,0.2,2.3,1.3,1.3,2.3c-1,1.1-3.3,1.8-5,1.6
		C29.2,72.7,28.7,71.6,29.7,70.5z M41.7,78.6c-1,1.1-3.3,1.8-5,1.6C35,80,34.4,79,35.4,77.9s3.3-1.8,5-1.6
		C42.2,76.5,42.8,77.6,41.7,78.6z M35.4,64.6c1-1.1,3.3-1.8,5-1.6s2.3,1.3,1.3,2.3s-3.3,1.8-5,1.6C34.9,66.7,34.4,65.7,35.4,64.6z
		 M41.1,71.9c1-1.1,3.3-1.8,5-1.6c1.7,0.2,2.3,1.3,1.3,2.3c-1,1.1-3.3,1.8-5,1.6C40.7,74,40.1,73,41.1,71.9z M53.8,80.1
		c-1,1.1-3.3,1.8-5,1.6c-1.7-0.2-2.3-1.3-1.3-2.3c1-1.1,3.3-1.8,5-1.6C54.3,78,54.9,79,53.8,80.1z M53.3,73.4c1-1.1,3.3-1.8,5-1.6
		s2.3,1.3,1.3,2.3c-1,1.1-3.3,1.8-5,1.6C52.8,75.5,52.2,74.5,53.3,73.4z M65.5,81.5c-1,1.1-3.3,1.8-5,1.6c-1.7-0.2-2.3-1.3-1.3-2.3
		c1-1.1,3.3-1.8,5-1.6C66,79.4,66.5,80.4,65.5,81.5z M64.9,74.8c1-1.1,3.3-1.8,5-1.6c1.7,0.2,2.3,1.3,1.3,2.3c-1,1.1-3.3,1.8-5,1.6
		C64.5,76.9,63.9,75.9,64.9,74.8z M76.9,82.9c-1,1.1-3.3,1.8-5,1.6c-1.7-0.2-2.3-1.3-1.3-2.3c1-1.1,3.3-1.8,5-1.6
		C77.4,80.8,78,81.8,76.9,82.9z M70.6,68.9c1-1.1,3.3-1.8,5-1.6s2.3,1.3,1.3,2.3c-1,1.1-3.3,1.8-5,1.6C70.2,71,69.6,69.9,70.6,68.9z
		 M76.4,76.2c1-1.1,3.3-1.8,5-1.6c1.7,0.2,2.3,1.3,1.3,2.3c-1,1.1-3.3,1.8-5,1.6C75.9,78.3,75.3,77.3,76.4,76.2z M88.1,84.3
		c-1,1.1-3.3,1.8-5,1.6c-1.7-0.2-2.3-1.3-1.3-2.3c1-1.1,3.3-1.8,5-1.6C88.6,82.1,89.2,83.2,88.1,84.3z M82.1,70.2
		c1-1.1,3.3-1.8,5-1.6c1.7,0.2,2.3,1.3,1.3,2.3c-1,1.1-3.3,1.8-5,1.6C81.6,72.4,81,71.3,82.1,70.2z M93.9,78.3c-1,1.1-3.3,1.8-5,1.6
		c-1.7-0.2-2.3-1.3-1.3-2.3c1-1.1,3.3-1.8,5-1.6C94.3,76.2,94.9,77.2,93.9,78.3z M87.8,64.3c1-1.1,3.3-1.8,5-1.6s2.3,1.3,1.3,2.3
		c-1,1.1-3.3,1.8-5,1.6C87.3,66.4,86.7,65.4,87.8,64.3z M99.6,72.4c-1,1.1-3.3,1.8-5,1.6c-1.7-0.2-2.3-1.3-1.3-2.3
		c1-1.1,3.3-1.8,5-1.6C100,70.2,100.6,71.3,99.6,72.4z M93.5,58.3c1-1.1,3.3-1.8,5-1.6s2.3,1.3,1.3,2.3c-1,1.1-3.3,1.8-5,1.6
		C93,60.5,92.4,59.4,93.5,58.3z M105.3,66.4c-1,1.1-3.3,1.8-5,1.6c-1.7-0.2-2.3-1.3-1.3-2.3c1-1.1,3.3-1.8,5-1.6
		C105.7,64.3,106.3,65.3,105.3,66.4z M99.2,52.4c1-1.1,3.3-1.8,5-1.6s2.3,1.3,1.3,2.3c-1,1.1-3.3,1.8-5,1.6
		C98.7,54.5,98.1,53.5,99.2,52.4z M111,60.5c-1,1.1-3.3,1.8-5,1.6s-2.3-1.3-1.3-2.3c1-1.1,3.3-1.8,5-1.6
		C111.4,58.3,112,59.4,111,60.5z M111.7,56.1c-1.7-0.2-2.3-1.3-1.3-2.3c1-1.1,3.3-1.8,5-1.6s2.3,1.3,1.3,2.3
		C115.6,55.6,113.4,56.3,111.7,56.1z"/>
</g>
<path class="st1" d="M58.1,62.4c-0.4,4-1.5,10-2.3,13.3c-0.2,0.8-0.8,1.3-1.6,1.5c-5.4,0.9-6.2,3.2-7,7L47,84.8
	c-0.4,1.7-1.2,6.9-2.4,15.5l-7.5-1l10.3,13.5L61,102.6l-7.5-1c1.5-10.8,2-13.9,2.2-14.8l0.2-0.7c0.1-0.4,0.2-1,0.3-1.4
	c0.4-0.1,1.1-0.2,2.3-0.2c5.2,0,6.3-6.5,7.3-12.3c0.7-4.4,1.2-8.7,1.2-8.8L58.1,62.4z"/>
<circle class="st2" cx="20" cy="60.2" r="3.8"/>
<circle class="st2" cx="43.3" cy="26.1" r="3.8"/>
<circle class="st2" cx="74.3" cy="23.9" r="3.8"/>
<circle class="st2" cx="113.3" cy="30.2" r="3.8"/>
<circle class="st2" cx="111.6" cy="50.5" r="3.8"/>
<circle class="st2" cx="50" cy="65.8" r="3.8"/>
<circle class="st2" cx="74.3" cy="58" r="3.8"/>
<circle class="st2" cx="85.7" cy="37.9" r="3.8"/>
<circle class="st3" cx="35.5" cy="37.3" r="2.3"/>
<circle class="st4" cx="37.2" cy="58.4" r="2.7"/>
<circle class="st5" cx="46.3" cy="75.2" r="3.1"/>
<circle class="st1" cx="91.7" cy="99.2" r="3.1"/>
<circle class="st5" cx="77.3" cy="73.5" r="3.1"/>
<circle class="st5" cx="71.2" cy="46.7" r="3.1"/>
<circle class="st5" cx="73.6" cy="36.5" r="3.1"/>
<circle class="st5" cx="103.9" cy="43.1" r="3.1"/>
<circle class="st5" cx="117.6" cy="44.1" r="3.1"/>
<circle class="st5" cx="110.2" cy="61.8" r="3.1"/>
<circle class="st1" cx="34.5" cy="72.4" r="3.1"/>
<circle class="st1" cx="7.4" cy="96.8" r="2.3"/>
<circle class="st1" cx="19.1" cy="86.6" r="2.3"/>
<circle class="st1" cx="37.6" cy="86" r="2.3"/>
<circle class="st1" cx="26.1" cy="100.6" r="2.3"/>
<circle class="st1" cx="37.6" cy="86" r="2.3"/>
<circle class="st1" cx="71.9" cy="91.3" r="2.3"/>
<circle class="st1" cx="92.5" cy="79" r="2.3"/>
<circle class="st1" cx="79.7" cy="108.3" r="2.3"/>
<circle class="st1" cx="63.2" cy="108.7" r="2.3"/>
<circle class="st6" cx="103" cy="52.7" r="2.5"/>
<circle class="st5" cx="55.2" cy="25.4" r="3.1"/>
<circle class="st5" cx="85.7" cy="28.2" r="3.1"/>
<circle class="st2" cx="99.3" cy="69.8" r="3.8"/>
<path class="st7" d="M94.1,17.3c-0.4,4-1.5,10-2.3,13.3c-0.2,0.8-0.8,1.3-1.6,1.5c-5.4,0.9-6.2,3.2-7,7L83,39.8
	c-0.4,1.7-1.2,6.9-2.4,15.5l-7.5-1l10.3,13.5L97,57.5l-7.5-1c1.5-10.8,2-13.9,2.2-14.8l0.2-0.7c0.1-0.4,0.2-1,0.3-1.4
	c0.4-0.1,1.1-0.2,2.3-0.2c5.2,0,6.3-6.5,7.3-12.3c0.7-4.4,1.2-8.7,1.2-8.8L94.1,17.3z"/>
<path class="st7" d="M64.2,12.7c-0.4,4.3-1.7,10.6-2.4,13.8c-0.1,0.5-0.5,0.8-1,0.9c-5.9,0.9-6.7,3.2-7.5,7.1l-0.1,0.7
	c-0.4,1.7-1.2,6.9-2.4,15.5l-7.5-1l10.3,13.5l13.5-10.3l-7.5-1c1.5-10.8,2-13.9,2.2-14.8l0.2-0.7c0.1-0.4,0.2-1,0.3-1.4
	c0.4-0.1,1.1-0.2,2.3-0.2c5.2,0,6.3-6.5,7.3-12.3c0.7-4.4,1.2-8.7,1.2-8.8L64.2,12.7z"/>
</svg>
