<svg id="Layer_1" data-name="Layer 1" xmlns="http://www.w3.org/2000/svg" viewBox="0 0 128.16 128.16"><defs><style>.cls-1{fill:gray;}.cls-2{fill:#00aeef;}.cls-3{fill:#f18a00;}</style></defs><path class="cls-1" d="M32.93,81C13.61,76.84.59,68.94.59,59.87V87.66h30L32.86,81Z"/><path class="cls-1" d="M128.87,59.87h-.06c0,9.06-13,17-32.33,21.17l2.29,6.62h30.1Z"/><path class="cls-2" d="M107.61,113.19,98.77,87.66,96.48,81h0c-4.4.94-8.83,1.64-13.29,2.16-1,.11-2,.22-3,.31l-2.37.2q-6.55.54-13.15.54A151.43,151.43,0,0,1,32.93,81h-.07l-2.31,6.63-8.9,25.53a4.07,4.07,0,0,0,2.53,5.19,4.2,4.2,0,0,0,1.32.22h78.27a4.09,4.09,0,0,0,3.84-5.41Z"/><path class="cls-2" d="M105.1,11.11a4.12,4.12,0,0,0-1.35-.23H84.15v0H25.58a4.08,4.08,0,0,0-4.08,4.08,4.19,4.19,0,0,0,.24,1.36l7.11,15.54A146.71,146.71,0,0,0,64.7,36a137.4,137.4,0,0,0,17.09-.88c.63-.06,1.26-.13,1.88-.21l.48,0h0a136.62,136.62,0,0,0,16.3-3l7.14-15.53A4.08,4.08,0,0,0,105.1,11.11Z"/><path class="cls-3" d="M93,40.61l3.62,11.44c-30,7.23-57.26,4.56-86.19-8.39L5.7,53C37,67.1,67.2,70.05,99.77,62l3,9.58C114,61.22,119,55.58,127.63,43.92,113.11,44,106.12,43.28,93,40.61Z"/></svg>