<svg id="Layer_1" data-name="Layer 1" xmlns="http://www.w3.org/2000/svg" viewBox="0 0 128.16 128.16"><defs><style>.cls-1{fill:#62bb46;}.cls-2{fill:#00aeef;}.cls-3{fill:gray;}.cls-4{fill:#f18a00;}.cls-5{fill:#fff;}</style></defs><path class="cls-1" d="M18.23,73.82C17.44,76,16.69,78.25,16,80.59a69,69,0,0,0,10.38,9.79c14.56,10.94,28.83,14.51,40.17,16.13v-6.13C56,98.79,43,95.34,30,85.54A65.84,65.84,0,0,1,18.23,73.82Z"/><path class="cls-1" d="M14,68A109,109,0,0,1,3.62,48.62l-.41.15V61.92a110.51,110.51,0,0,0,8.22,13C12.24,72.53,13.1,70.22,14,68Z"/><path class="cls-2" d="M56.22,72.17c-3.36-4.31-5.92-8.18-8-11.29-1.33-2-2.47-3.74-3.53-5.13-2.74-3.67-6.15-8.24-11.22-8.64-3.13-.26-6.31,1.18-9.46,4.25C20.18,55.1,16.87,61,14,68c-.9,2.2-1.76,4.51-2.57,6.91A274.19,274.19,0,0,0,3.21,106.7v12.06c0,2.43,1.18,4.49,2.83,5.17,2.38-12.87,5.59-29.4,9.92-43.34.73-2.34,1.48-4.6,2.27-6.77,2.88-7.88,6.2-14.4,10-18.12C30.1,53.9,31.7,53,33,53.14c2.34.19,4.84,3.54,6.86,6.25,1,1.25,2.05,2.91,3.32,4.83,2.11,3.2,4.75,7.18,8.26,11.68,3.81,4.87,9.31,8.33,15.06,10.81V80.05A29.52,29.52,0,0,1,56.22,72.17Z"/><path class="cls-3" d="M99,128.21H8a7.55,7.55,0,0,1-7.22-7.84V8.84A7.54,7.54,0,0,1,8,1H99a7.58,7.58,0,0,1,7.23,7.83V120.37A7.59,7.59,0,0,1,99,128.21ZM9.14,119.85H97.67V9.36H8.86Z"/><circle class="cls-4" cx="90.65" cy="90.42" r="35.85"/><path class="cls-5" d="M90.65,52.4a38,38,0,1,1-38,38h0A38,38,0,0,1,90.65,52.4Zm0,71.65A33.67,33.67,0,1,0,57,90.38v0A33.67,33.67,0,0,0,90.65,124.05Z"/><path class="cls-5" d="M71,94.74h8.39v13.73a3.4,3.4,0,0,0,3.4,3.39H98.84a3.39,3.39,0,0,0,3.39-3.39V94.74h8.44c1.45,0,2-.81,2-1.53a2.86,2.86,0,0,0-.77-1.74L93.15,70.16A3.09,3.09,0,0,0,90.81,69a3,3,0,0,0-2.34,1.13L69.78,91.47a2.63,2.63,0,0,0-.73,1.74C69.05,93.93,69.53,94.74,71,94.74Z"/><path class="cls-3" d="M48.75,12a7.25,7.25,0,0,1,4,1.05,3.07,3.07,0,0,1,1.66,2.66,1.58,1.58,0,0,1-1.35,1.78,1.55,1.55,0,0,1-.43,0,3.36,3.36,0,0,1-2.38-1.09c-1.13-1.21-1.82-1.9-2-2.06a1.53,1.53,0,0,0-.93-.24c-2.26,0-4,1.77-4.76,5.33a144.72,144.72,0,0,0-2.26,22.08A104.77,104.77,0,0,1,37.4,63.9a15.44,15.44,0,0,1-4.32,7.47A10.51,10.51,0,0,1,26,74.07a7,7,0,0,1-4-1,3,3,0,0,1-1.57-2.54A1.94,1.94,0,0,1,21,69.19a1.56,1.56,0,0,1,1.21-.61,2.75,2.75,0,0,1,2.1,1l1.5,1.62a2.58,2.58,0,0,0,1.85.89c3.27,0,5.25-4.4,6-13.29L34,54.49A35.12,35.12,0,0,1,34.21,50a46.88,46.88,0,0,1,.29-5.16l.36-4.4.36-4.48a55,55,0,0,1,3-15.87,14.49,14.49,0,0,1,4.4-5.89A9.51,9.51,0,0,1,48.75,12Z"/><path class="cls-3" d="M65.38,33.22c.84-2.38,1-3.15.4-3.51l-1-.69a.59.59,0,0,1,0-.6,16.12,16.12,0,0,1,5-.77l.2.24c-.77,2.34-1.41,4-2.67,7.47-4,11.55-6.17,18.29-6.58,19.58,0,.52,0,1,.29,1a13.87,13.87,0,0,0,4.64-3.8.57.57,0,0,1,.64.48.09.09,0,0,0,0,0c-1.18,2.34-5,5.81-7.19,5.81a1.32,1.32,0,0,1-1.37-1.29v-.08a7.2,7.2,0,0,1,.56-2.38l1.46-4h0c-2.91,4-6.1,8.07-10.18,8.07-1.65,0-2.54-1.37-2.54-3.06a17.67,17.67,0,0,1,5.61-11,12.36,12.36,0,0,1,7.59-3.76,2.62,2.62,0,0,1,2.14,1.29ZM56.9,43.68a38.23,38.23,0,0,0-6.06,8.07,8.63,8.63,0,0,0-1.29,4,.85.85,0,0,0,.81.88h0A11,11,0,0,0,56.05,53,18.75,18.75,0,0,0,61.34,45c.48-1.78,0-3.07-1.13-3.07A5.53,5.53,0,0,0,56.9,43.68Z"/><path class="cls-3" d="M75.47,43.23l-3.8,11.1c-.24.81,0,1.05.29,1.05a15,15,0,0,0,4.8-3.79c.44,0,.69.24.61.77a14,14,0,0,1-8.08,6.09,1.25,1.25,0,0,1-1.13-1.17,7.52,7.52,0,0,1,.61-2.38l4-11.67H69.41A1.1,1.1,0,0,1,69.9,42l3.35-.56,2.38-4a1.4,1.4,0,0,1,1.61.28l-1.25,4h4.65a1.25,1.25,0,0,1-.53,1.57Z"/></svg>