<svg id="Layer_1" data-name="Layer 1" xmlns="http://www.w3.org/2000/svg" viewBox="0 0 128.16 128.16"><defs><style>.cls-1{fill:#62bb46;}.cls-2{fill:#00aeef;}.cls-3{fill:gray;}.cls-4{fill:#f18a00;}.cls-5{fill:#fff;}</style></defs><path class="cls-1" d="M18.06,73.41c-.78,2.15-1.54,4.4-2.26,6.73a69.23,69.23,0,0,0,10.32,9.74c14.48,10.87,28.67,14.42,39.94,16V99.82c-10.45-1.58-23.34-5-36.32-14.76A65.72,65.72,0,0,1,18.06,73.41Z"/><path class="cls-1" d="M13.85,67.64A108.3,108.3,0,0,1,3.53,48.35l-.4.15V61.58a109,109,0,0,0,8.16,12.94C12.11,72.13,13,69.83,13.85,67.64Z"/><path class="cls-2" d="M55.83,71.77c-3.34-4.29-5.89-8.14-7.93-11.23-1.32-2-2.46-3.71-3.51-5.1-2.72-3.65-6.12-8.2-11.15-8.59C30.12,46.59,27,48,23.82,51.07c-3.82,3.73-7.11,9.57-10,16.57-.89,2.19-1.74,4.49-2.56,6.88a270.58,270.58,0,0,0-8.16,31.59v12c0,2.42,1.17,4.47,2.81,5.14C8.31,110.44,11.5,94,15.8,80.14c.72-2.33,1.48-4.58,2.26-6.73,2.87-7.83,6.16-14.32,10-18,1.84-1.79,3.43-2.66,4.74-2.54,2.32.18,4.81,3.51,6.82,6.21.94,1.25,2,2.9,3.3,4.8C45,67,47.6,71,51.09,75.48c3.8,4.84,9.26,8.28,15,10.75V79.6A29.36,29.36,0,0,1,55.83,71.77Z"/><path class="cls-3" d="M98.34,127.49H7.9A7.51,7.51,0,0,1,.72,119.7V8.8A7.5,7.5,0,0,1,7.9,1H98.34a7.54,7.54,0,0,1,7.18,7.79V119.7A7.55,7.55,0,0,1,98.34,127.49ZM9,119.18h88V9.32H8.74Z"/><circle class="cls-4" cx="90.07" cy="89.92" r="35.64"/><path class="cls-5" d="M90.07,127.73a37.81,37.81,0,1,1,37.81-37.81h0A37.81,37.81,0,0,1,90.07,127.73Zm0-71.25A33.48,33.48,0,1,0,123.54,90v0A33.47,33.47,0,0,0,90.07,56.48Z"/><path class="cls-5" d="M109.61,85.62h-8.34V72a3.37,3.37,0,0,0-3.38-3.37h-16A3.37,3.37,0,0,0,78.55,72V85.62H70.16c-1.45,0-2,.8-2,1.53A2.85,2.85,0,0,0,69,88.87l18.63,21.2a3.11,3.11,0,0,0,2.33,1.12,3,3,0,0,0,2.32-1.12l18.59-21.2a2.64,2.64,0,0,0,.72-1.72C111.54,86.42,111.06,85.62,109.61,85.62Z"/><path class="cls-3" d="M48.4,12a7.21,7.21,0,0,1,4,1,3,3,0,0,1,1.64,2.65,1.57,1.57,0,0,1-1.33,1.77,3.08,3.08,0,0,1-.43,0,3.34,3.34,0,0,1-2.37-1.09c-1.13-1.2-1.81-1.89-2-2.05a1.65,1.65,0,0,0-.92-.24c-2.25,0-4,1.77-4.74,5.3a144.42,144.42,0,0,0-2.25,22,103.65,103.65,0,0,1-2.89,22.24A15.29,15.29,0,0,1,32.83,71a10.48,10.48,0,0,1-7,2.69,7,7,0,0,1-4-1,3,3,0,0,1-1.57-2.53,2,2,0,0,1,.57-1.33,1.52,1.52,0,0,1,1.2-.6,2.75,2.75,0,0,1,2.09,1l1.48,1.61a2.55,2.55,0,0,0,1.85.88c3.25,0,5.22-4.37,5.94-13.2l.36-4.34A34.55,34.55,0,0,1,34,49.7a47.78,47.78,0,0,1,.28-5.14l.36-4.38L35,35.73a54.13,54.13,0,0,1,3-15.78,14.46,14.46,0,0,1,4.37-5.86A9.46,9.46,0,0,1,48.4,12Z"/><path class="cls-3" d="M64.94,33c.84-2.37,1-3.13.4-3.49l-1-.69a.59.59,0,0,1,0-.6,16.16,16.16,0,0,1,4.93-.76l.21.24c-.77,2.33-1.41,4-2.65,7.43-4,11.48-6.14,18.18-6.55,19.46,0,.53,0,1,.28,1a13.65,13.65,0,0,0,4.62-3.78.57.57,0,0,1,.64.48v.05c-1.16,2.32-5,5.78-7.14,5.78a1.34,1.34,0,0,1-1.37-1.29v-.08a7,7,0,0,1,.57-2.37l1.44-4h0c-2.89,4-6.06,8-10.11,8-1.65,0-2.53-1.37-2.53-3a17.56,17.56,0,0,1,5.58-11,12.2,12.2,0,0,1,7.54-3.73A2.61,2.61,0,0,1,62,42Zm-8.43,10.4a37.75,37.75,0,0,0-6,8,8.44,8.44,0,0,0-1.28,4,.83.83,0,0,0,.8.88h0a11,11,0,0,0,5.66-3.61,18.74,18.74,0,0,0,5.26-8c.48-1.77,0-3-1.13-3A5.5,5.5,0,0,0,56.51,43.44Z"/><path class="cls-3" d="M75,43,71.2,54c-.24.8,0,1,.28,1a14.78,14.78,0,0,0,4.78-3.78c.44,0,.68.24.6.77a13.93,13.93,0,0,1-8,6.06A1.25,1.25,0,0,1,67.71,57a7.59,7.59,0,0,1,.6-2.37l4-11.6H69a1.09,1.09,0,0,1,.49-1.2l3.33-.56,2.37-4a1.42,1.42,0,0,1,1.6.28l-1.24,4h4.61a1.23,1.23,0,0,1-.52,1.56Z"/></svg>