<svg id="Layer_1" data-name="Layer 1" xmlns="http://www.w3.org/2000/svg" viewBox="0 0 128.16 128.16"><defs><style>.cls-1{fill:gray;}.cls-2{fill:#f18a00;}.cls-3{fill:#fff;}.cls-4{isolation:isolate;}</style></defs><path class="cls-1" d="M93.69,119.43H8.11V8.73H93.69V15h8.09V8.21a7.44,7.44,0,0,0-7-7.85H7A7.44,7.44,0,0,0,0,8.21V120a7.44,7.44,0,0,0,7,7.85h87.8a7.44,7.44,0,0,0,7-7.85V78.17H93.69Z"/><circle class="cls-2" cx="90.05" cy="89.54" r="35.91"/><path class="cls-3" d="M90.05,127.64a38.1,38.1,0,1,1,38.1-38.1h0A38.14,38.14,0,0,1,90.05,127.64Zm0-71.83a33.73,33.73,0,1,0,33.73,33.73h0A33.77,33.77,0,0,0,90.05,55.81Z"/><path class="cls-3" d="M111,90.71,92.24,69.16A3.05,3.05,0,0,0,89.89,68a3.12,3.12,0,0,0-2.35,1.14L68.78,90.71a2.79,2.79,0,0,0-.73,1.7c0,.73.53,1.54,2,1.54h8.41v13.59a3.4,3.4,0,0,0,3.4,3.39h16.1a3.4,3.4,0,0,0,3.4-3.39V94h8.45c1.45,0,1.94-.81,1.94-1.54A2.6,2.6,0,0,0,111,90.71Z"/><g class="cls-4"><path class="cls-1" d="M16.56,46.39V21.78h8a28.65,28.65,0,0,1,5.91.37A6.43,6.43,0,0,1,34,24.56a7.62,7.62,0,0,1,1.43,4.79,8,8,0,0,1-.83,3.81,6.54,6.54,0,0,1-2.09,2.42,7.12,7.12,0,0,1-2.57,1.17,29,29,0,0,1-5.16.35H21.52v9.29Zm5-20.45v7h2.72a13.17,13.17,0,0,0,3.93-.38,3.24,3.24,0,0,0,1.55-1.21,3.29,3.29,0,0,0,.57-1.92,3.2,3.2,0,0,0-.79-2.21,3.42,3.42,0,0,0-2-1.09,24,24,0,0,0-3.58-.17Z"/><path class="cls-1" d="M39.55,46.39V21.78h5V32.7l10-10.92h6.68L52,31.36l9.77,15H55.31L48.55,34.84l-4,4.11v7.44Z"/><path class="cls-1" d="M64.24,46.39V21.78h7.44l4.47,16.78,4.41-16.78H88V46.39H83.4V27L78.51,46.39H73.73L68.86,27V46.39Z"/><path class="cls-1" d="M93.08,46.39V22h5V42.24h12.36v4.15Z"/></g></svg>