<svg id="Layer_1" data-name="Layer 1" xmlns="http://www.w3.org/2000/svg" viewBox="0 0 128.16 128.16"><defs><style>.cls-1{fill:gray;}.cls-2{isolation:isolate;}</style></defs><g id="Individual_Simulation_Export_Ribbon" data-name="Individual Simulation Export Ribbon"><path class="cls-1" d="M93.77,119.43H8.19V8.73H93.77V15h8.09V8.21a7.44,7.44,0,0,0-7-7.85H7.1a7.44,7.44,0,0,0-7,7.85V120a7.44,7.44,0,0,0,7,7.85H94.91a7.44,7.44,0,0,0,7-7.85V52H93.77Z"/><g class="cls-2"><path class="cls-1" d="M16.64,46.39V21.78h8a28.65,28.65,0,0,1,5.91.37,6.43,6.43,0,0,1,3.54,2.41,7.62,7.62,0,0,1,1.43,4.79,8,8,0,0,1-.82,3.81,6.72,6.72,0,0,1-2.09,2.42A7.24,7.24,0,0,1,30,36.75a27.94,27.94,0,0,1-5.15.35H21.61v9.29Zm5-20.45v7h2.72a12.8,12.8,0,0,0,3.92-.38,3.32,3.32,0,0,0,1.56-1.21,3.35,3.35,0,0,0,.56-1.91,3.16,3.16,0,0,0-.79-2.22,3.42,3.42,0,0,0-2-1.09A23.94,23.94,0,0,0,24,25.94Z"/><path class="cls-1" d="M39.64,46.39V21.78h5V32.71l10-10.93h6.68l-9.26,9.58,9.77,15H55.4L48.63,34.84,44.6,39v7.44Z"/><path class="cls-1" d="M64.33,46.39V21.78h7.43l4.47,16.78,4.41-16.78H88.1V46.39H83.48V27L78.6,46.39H73.81L68.94,27V46.39Z"/><path class="cls-1" d="M93.17,46.39V22h5V42.24h12.36v4.15Z"/></g></g></svg>