<svg id="Layer_1" data-name="Layer 1" xmlns="http://www.w3.org/2000/svg" xmlns:xlink="http://www.w3.org/1999/xlink" viewBox="0 0 128.16 128.16"><defs><style>.cls-1{fill:none;}.cls-2{clip-path:url(#clip-path);}.cls-3{fill:#00aeef;}.cls-4{fill:#6d6e70;}</style><clipPath id="clip-path"><path class="cls-1" d="M117.3,125.43H10.86a7.92,7.92,0,0,1-7.92-7.91V10.64a7.92,7.92,0,0,1,7.92-7.91H117.3a7.92,7.92,0,0,1,7.92,7.91V117.52A7.92,7.92,0,0,1,117.3,125.43Z"/></clipPath></defs><g id="Range"><g class="cls-2"><circle class="cls-3" cx="16.21" cy="15.59" r="5.67"/><path class="cls-3" d="M16.21,22.79a7.21,7.21,0,1,1,7.21-7.2A7.21,7.21,0,0,1,16.21,22.79Zm0-11.33a4.13,4.13,0,1,0,4.13,4.13A4.14,4.14,0,0,0,16.21,11.46Z"/><circle class="cls-3" cx="21.13" cy="31.65" r="5.67"/><path class="cls-3" d="M21.13,38.86a7.21,7.21,0,1,1,7.2-7.21A7.22,7.22,0,0,1,21.13,38.86Zm0-11.34a4.13,4.13,0,1,0,4.13,4.13A4.13,4.13,0,0,0,21.13,27.52Z"/><circle class="cls-3" cx="36.88" cy="38.15" r="5.67"/><path class="cls-3" d="M36.88,45.36a7.21,7.21,0,1,1,7.2-7.21A7.22,7.22,0,0,1,36.88,45.36Zm0-11.34A4.13,4.13,0,1,0,41,38.15,4.13,4.13,0,0,0,36.88,34Z"/><circle class="cls-3" cx="39.63" cy="78.65" r="5.67"/><path class="cls-3" d="M39.63,85.86a7.21,7.21,0,1,1,7.2-7.21A7.22,7.22,0,0,1,39.63,85.86Zm0-11.34a4.13,4.13,0,1,0,4.13,4.13A4.13,4.13,0,0,0,39.63,74.52Z"/><circle class="cls-3" cx="54.63" cy="98.68" r="5.67"/><path class="cls-3" d="M54.63,105.88a7.21,7.21,0,1,1,7.2-7.2A7.21,7.21,0,0,1,54.63,105.88Zm0-11.33a4.13,4.13,0,1,0,4.13,4.13A4.13,4.13,0,0,0,54.63,94.55Z"/><circle class="cls-3" cx="62.13" cy="116.83" r="5.67"/><path class="cls-3" d="M62.13,124a7.21,7.21,0,1,1,7.2-7.21A7.21,7.21,0,0,1,62.13,124Zm0-11.33a4.13,4.13,0,1,0,4.13,4.12A4.13,4.13,0,0,0,62.13,112.7Z"/><circle class="cls-3" cx="78.13" cy="83.4" r="5.67"/><path class="cls-3" d="M78.13,90.61a7.21,7.21,0,1,1,7.2-7.21A7.22,7.22,0,0,1,78.13,90.61Zm0-11.34a4.13,4.13,0,1,0,4.13,4.13A4.13,4.13,0,0,0,78.13,79.27Z"/><circle class="cls-3" cx="91.88" cy="60.15" r="5.67"/><path class="cls-3" d="M91.88,67.36a7.21,7.21,0,1,1,7.2-7.21A7.22,7.22,0,0,1,91.88,67.36Zm0-11.34A4.13,4.13,0,1,0,96,60.15,4.13,4.13,0,0,0,91.88,56Z"/><circle class="cls-3" cx="94.38" cy="41.73" r="5.67"/><path class="cls-3" d="M94.38,48.93a7.21,7.21,0,1,1,7.2-7.2A7.21,7.21,0,0,1,94.38,48.93Zm0-11.33a4.13,4.13,0,1,0,4.13,4.13A4.13,4.13,0,0,0,94.38,37.6Z"/><circle class="cls-3" cx="115.88" cy="11.4" r="5.67"/><path class="cls-3" d="M115.88,18.61a7.21,7.21,0,1,1,7.2-7.21A7.22,7.22,0,0,1,115.88,18.61Zm0-11.34A4.13,4.13,0,1,0,120,11.4,4.13,4.13,0,0,0,115.88,7.27Z"/></g><path class="cls-4" d="M117.3,126.07H10.86a8.57,8.57,0,0,1-8.56-8.55V10.64a8.57,8.57,0,0,1,8.56-8.55H117.3a8.57,8.57,0,0,1,8.56,8.55V117.52A8.57,8.57,0,0,1,117.3,126.07ZM10.86,3.36a7.29,7.29,0,0,0-7.28,7.28V117.52a7.29,7.29,0,0,0,7.28,7.28H117.3a7.29,7.29,0,0,0,7.28-7.28V10.64a7.29,7.29,0,0,0-7.28-7.28Z"/></g></svg>