<svg id="Layer_1" data-name="Layer 1" xmlns="http://www.w3.org/2000/svg" xmlns:xlink="http://www.w3.org/1999/xlink" viewBox="0 0 128.16 128.16"><defs><style>.cls-1,.cls-10,.cls-11,.cls-9{fill:none;}.cls-2{fill:gray;}.cls-3{clip-path:url(#clip-path);}.cls-4{fill:#e6e7e8;}.cls-5{fill:#62bb46;}.cls-6{fill:#b1d89b;}.cls-7{fill:#00aeef;}.cls-8{fill:#6dcff6;}.cls-10,.cls-9{stroke:#fff;}.cls-10,.cls-11,.cls-9{stroke-miterlimit:10;}.cls-9{stroke-width:2.62px;}.cls-10{stroke-width:2.62px;}.cls-11{stroke:#6d6e70;stroke-width:0.6px;}</style><clipPath id="clip-path"><path class="cls-1" d="M84.27,114.44H34.65A3.69,3.69,0,0,1,31,110.75V60.94a3.7,3.7,0,0,1,3.69-3.69H84.27A3.7,3.7,0,0,1,88,60.94v49.81A3.69,3.69,0,0,1,84.27,114.44Z"/></clipPath></defs><path class="cls-2" d="M92.25,118.18H8.56V10H92.25v6.16h7.89V9.48c0-4.24-3.06-7.69-6.82-7.69H7.48C3.72,1.79.66,5.24.66,9.48v109.2c0,4.24,3.06,7.69,6.82,7.69H93.32c3.76,0,6.82-3.45,6.82-7.69V52.23H92.25Z"/><path class="cls-2" d="M16.32,22.71h9.81a6.73,6.73,0,0,1,4.8,1.52,5.7,5.7,0,0,1,1.6,4.34,5.88,5.88,0,0,1-1.74,4.52q-1.74,1.63-5.31,1.63H22.25v7.09H16.32Zm5.93,8.14h1.44a3.76,3.76,0,0,0,2.4-.59,1.92,1.92,0,0,0,.69-1.52,2.1,2.1,0,0,0-.6-1.52,3.09,3.09,0,0,0-2.25-.63H22.25Z"/><path class="cls-2" d="M35.64,22.71h5.91v7.22l6.18-7.22h7.85l-7,7.21,7.28,11.89H48.62l-4-7.86-3,3.2v4.66H35.64Z"/><path class="cls-2" d="M56.82,35.49l5.61-.35a4.26,4.26,0,0,0,.75,2.08,3.08,3.08,0,0,0,2.6,1.16,2.84,2.84,0,0,0,2-.59,1.74,1.74,0,0,0,.68-1.37,1.73,1.73,0,0,0-.65-1.33,7.55,7.55,0,0,0-3-1.11,12.92,12.92,0,0,1-5.54-2.32A4.66,4.66,0,0,1,57.53,28a5,5,0,0,1,.86-2.78A5.68,5.68,0,0,1,61,23.13a12,12,0,0,1,4.7-.75,9.71,9.71,0,0,1,5.59,1.36,5.89,5.89,0,0,1,2.28,4.34L68,28.4A3,3,0,0,0,67,26.53a3,3,0,0,0-2-.59,2.35,2.35,0,0,0-1.55.43A1.36,1.36,0,0,0,63,27.44a1.08,1.08,0,0,0,.43.82,4.79,4.79,0,0,0,2,.7A24.87,24.87,0,0,1,71,30.65a5.79,5.79,0,0,1,2.44,2.12,5.42,5.42,0,0,1,.76,2.82,6,6,0,0,1-1,3.39,6.28,6.28,0,0,1-2.84,2.35,11.38,11.38,0,0,1-4.6.81q-4.87,0-6.75-1.88A7.37,7.37,0,0,1,56.82,35.49Z"/><path class="cls-2" d="M77.35,22.71h5.92v19.1H77.35Z"/><path class="cls-2" d="M87.44,22.71H95.2l3,11.62,3-11.62h7.76v19.1h-4.84V27.24l-3.72,14.57H96L92.27,27.24V41.81H87.44Z"/><path class="cls-2" d="M114,22.71h12.6v4.23h-8.53l-.46,2.87a9.09,9.09,0,0,1,1.76-.63,7.13,7.13,0,0,1,1.71-.2,6.37,6.37,0,0,1,4.65,1.73,5.82,5.82,0,0,1,1.79,4.36,7.44,7.44,0,0,1-.92,3.56A6.2,6.2,0,0,1,124,41.24a9.11,9.11,0,0,1-4.32.9,12.71,12.71,0,0,1-3.24-.36,6.65,6.65,0,0,1-2.29-1.07,6.29,6.29,0,0,1-1.53-1.61,8.48,8.48,0,0,1-1-2.24l5.37-.59a3.22,3.22,0,0,0,.91,2,2.41,2.41,0,0,0,1.71.67,2.3,2.3,0,0,0,1.83-.84,3.75,3.75,0,0,0,.72-2.5,3.62,3.62,0,0,0-.73-2.51,2.49,2.49,0,0,0-1.94-.79,3,3,0,0,0-1.48.38,4.25,4.25,0,0,0-1.18,1L112.3,33Z"/><g id="Simulation"><g id="Simulation-2" data-name="Simulation"><g id="Simulation-3" data-name="Simulation"><g class="cls-3"><path class="cls-4" d="M38.33,75.2c-.15-.19,0-.63,0-.63,2.31-6.38,4.9-11.37,7.88-14.18,2.4-2.27,4.85-3.25,7.29-2.89l.07-1.82L27.15,57.5V61l11,13.9"/><path class="cls-5" d="M57.36,91.28a117.35,117.35,0,0,1-15-10.7c-2.19-2.53-4.53-5.08-4.55-5A223.52,223.52,0,0,0,31,102.51v8.24a3.69,3.69,0,0,0,3.69,3.69H84.27A3.69,3.69,0,0,0,88,110.75V98.21C80.49,97.74,62.77,94.37,57.36,91.28Z"/><path class="cls-6" d="M25.14,109.62V59s3.53-2.23,4.79,1.74S38.42,75,38.42,75a212.67,212.67,0,0,0-7.27,27.51v8.24Z"/><path class="cls-7" d="M51.83,57.89c3.39.5,6.27,4.35,7.63,6.76.39.7,1.56,2.64,1.94,3.35,2.09,3.89,4.44,6.76,9.71,10.81C76.05,82.6,83.44,85,88,86.09V60.94a3.7,3.7,0,0,0-3.69-3.69H53"/><path class="cls-8" d="M88,97.82V86.09c-4.52-1.06-12.46-4.21-17.41-8-5.27-4-10.73-12.24-11.44-13.5-1.36-2.41-3.49-5.73-6.87-6.23-2.41-.36-3.41.29-5.77,2.56-2.94,2.81-5.42,7.91-7.69,14.3,0,0-.05.69.1.88a48.09,48.09,0,0,0,9.4,9.6c13.93,10.47,27.57,11.08,35.87,12l3.81.38Z"/><path class="cls-9" d="M30,113.56c3.26-17.77,8.13-43.79,16.86-52.3,5.35-5.21,8.69-1,11.58,2.85,1.87,2.46,4.24,6.62,8.2,11.68,7.9,10.09,27.61,11.14,27.61,11.14"/><path class="cls-10" d="M28.86,58.53S35.5,76.08,48.28,85.7c13.93,10.47,27.57,11.08,35.87,12s6.55.41,6.55.41"/></g></g><path class="cls-11" d="M84.27,114.44H34.65A3.69,3.69,0,0,1,31,110.75V60.94a3.7,3.7,0,0,1,3.69-3.69H84.27A3.7,3.7,0,0,1,88,60.94v49.81A3.69,3.69,0,0,1,84.27,114.44Z"/></g></g></svg>