<svg id="Layer_1" data-name="Layer 1" xmlns="http://www.w3.org/2000/svg" xmlns:xlink="http://www.w3.org/1999/xlink" viewBox="0 0 128.16 128.16"><defs><style>.cls-1{fill:#fff;}.cls-2{fill:#7cbc63;}.cls-3{fill:#8bc573;}.cls-4{fill:#a4cc8a;}.cls-5{fill:#73b358;}.cls-6{fill:#51abd4;}.cls-7{fill:#74bce6;}.cls-8{fill:#7cc5e5;}.cls-9{fill:#5bb4dd;}.cls-10{fill:#73bcdd;}.cls-11{fill:#3a9bd5;}.cls-12,.cls-13{fill:none;stroke-miterlimit:10;stroke-width:2.76px;}.cls-12{stroke:url(#linear-gradient);}.cls-13{stroke:#73b358;}.cls-14{fill:#9cd3f2;}.cls-15{fill:#1e5582;}</style><linearGradient id="linear-gradient" x1="5.04" y1="60.02" x2="122.24" y2="60.02" gradientUnits="userSpaceOnUse"><stop offset="0" stop-color="#73b358"/><stop offset="0.49" stop-color="#4c8b7b"/><stop offset="0.98" stop-color="#205da2"/></linearGradient></defs><rect class="cls-1" x="0.36" y="0.46" width="127.44" height="127.44" rx="24.61"/><path class="cls-2" d="M3.65,78.21l50.52-.57s13.31,6.12,24.43,9,45.85,10.05,45.85,10.05L3.65,99.23Z"/><path class="cls-3" d="M3.65,58.91H31.28s15.18,15,21.95,18.27,1.88,1,1.88,1H3.65Z"/><path class="cls-4" d="M3.65,26.17V60.6H32.88S20.46,46.88,14.56,38.07,3.65,22,3.65,22Z"/><path class="cls-5" d="M4.68,65.63l25.51,31h94.26s.86,7.24-1.9,13.44-8.27,14.13-18.61,14.48-76.68.51-82.2,0S4,117.16,3.48,109.4,4.68,65.63,4.68,65.63Z"/><path class="cls-6" d="M48.37,61.67H91.71a107.05,107.05,0,0,0,18.18,8c10,3.27,13.77,4.71,13.77,4.71V95.26a136.32,136.32,0,0,1-17.6-2.52c-11.7-2.27-33.68-6-45.11-11.92S48.8,74.76,48.8,74.76Z"/><path class="cls-7" d="M24.67,39.09H48.8v35.3s-10.7-7.81-17-14.93A160.59,160.59,0,0,1,21.24,46.22Z"/><path class="cls-8" d="M48.8,39.09H24.67s7.45-16.88,10.62-20,10.58-5,10.58-5l2.93,1.2V39.09Z"/><path class="cls-9" d="M50,61.67H90.84a155.37,155.37,0,0,1-17.4-21C64.13,27.37,50,12.9,50,12.9H48.8V61.67Z"/><path class="cls-10" d="M21.78,47.78S29,30.45,34.15,25.48c6.2-5.95,14.65-4.83,14.65-4.83V8.07a25.38,25.38,0,0,0-15,11.34c-5.62,9.34-11.56,23.85-11.56,23.85Z"/><path class="cls-11" d="M48.8,8.07V20.65s1.84,0,5.34,2.07c3.7,2.24,14,17.92,19.64,26.37S87.4,67.7,101.87,73.56s20.68,6.89,20.68,6.89l1.11-14.12s-.22,0-8-1.67c0,0-23.7-1.34-40.42-28.84C54.81,2.15,48.8,8.07,48.8,8.07Z"/><path class="cls-12" d="M122,66S103.74,63.18,91.88,54.6C75.68,42.88,74.3,30.48,62.58,15.66S38.11,8.42,27.08,30.82,6.41,113.19,6.41,113.19"/><path class="cls-13" d="M4.68,22.72S30.88,69.08,60,80.45,122.55,95.1,122.55,95.1"/><path class="cls-14" d="M103.19,6a19.12,19.12,0,0,1,19.1,19.09V103.3a19.12,19.12,0,0,1-19.1,19.09H25A19.12,19.12,0,0,1,5.87,103.3V25.07A19.12,19.12,0,0,1,25,6h78.22m0-5.52H25A24.68,24.68,0,0,0,.36,25.07V103.3A24.67,24.67,0,0,0,25,127.9h78.22a24.67,24.67,0,0,0,24.61-24.6V25.07A24.68,24.68,0,0,0,103.19.46Z"/><path class="cls-15" d="M103.19,3.22A21.87,21.87,0,0,1,125,25.07V103.3a21.88,21.88,0,0,1-21.85,21.85H25A21.88,21.88,0,0,1,3.12,103.3V25.07A21.87,21.87,0,0,1,25,3.22h78.22m0-2.76H25A24.68,24.68,0,0,0,.36,25.07V103.3A24.67,24.67,0,0,0,25,127.9h78.22a24.67,24.67,0,0,0,24.61-24.6V25.07A24.68,24.68,0,0,0,103.19.46Z"/></svg>