<?xml version="1.0" encoding="UTF-8"?><svg id="Layer_1" xmlns="http://www.w3.org/2000/svg" viewBox="0 0 128.16 128.16"><defs><style>.cls-1{fill:none;}.cls-2{fill:gray;}.cls-3{fill:#62bb46;}.cls-4{fill:#00aeef;}.cls-5{fill:#fff;}.cls-6{opacity:.9;}.cls-7{fill:#c32a1f;}</style></defs><rect class="cls-1" x="60.7" y="73.23" width="46.14" height="46.14"/><rect class="cls-1" x="8.8" y="73.23" width="46.14" height="46.14"/><path class="cls-3" d="M119.36,3.02h-46.14c-3.46,0-5.77,2.31-5.77,5.77v14.37h5.77v-14.37h46.14v46.14h-46.14v-13.5h-5.77v13.5c0,3.46,2.31,5.77,5.77,5.77h46.14c3.46,0,5.77-2.31,5.77-5.77V8.79c0-3.46-2.31-5.77-5.77-5.77Z"/><path class="cls-4" d="M54.94,67.46H8.8V21.32h46.14v1.77h5.77v-1.77c0-3.46-2.31-5.77-5.77-5.77H8.8c-3.46,0-5.77,2.31-5.77,5.77v98.06c0,3.46,2.31,5.77,5.77,5.77h98.05c3.46,0,5.77-2.31,5.77-5.77v-46.14c0-3.46-2.31-5.77-5.77-5.77h-46.14s0,0,0,0v-26.1h-5.77v26.1ZM54.93,119.37H8.8v-46.14h46.14v46.14ZM60.7,73.23h46.14v46.14h-46.14v-46.14Z"/><rect class="cls-4" x="88.84" y="24.53" width="14.91" height="14.91"/><path class="cls-2" d="M12.7,25.28h6.9c1.5,0,2.63.36,3.38,1.09.75.73,1.12,1.76,1.12,3.11s-.41,2.46-1.22,3.24-2.06,1.17-3.74,1.17h-2.27v5.07h-4.17v-13.67ZM16.87,31.11h1.02c.8,0,1.36-.14,1.69-.42s.49-.65.49-1.09-.14-.79-.42-1.09c-.28-.3-.81-.45-1.59-.45h-1.18v3.05Z"/><path class="cls-2" d="M26.29,25.28h4.15v5.17l4.35-5.17h5.52l-4.9,5.16,5.13,8.51h-5.11l-2.83-5.62-2.15,2.29v3.34h-4.15v-13.67Z"/><path class="cls-2" d="M41.19,34.43l3.95-.25c.09.65.26,1.15.52,1.49.43.55,1.04.83,1.83.83.59,0,1.05-.14,1.37-.42.32-.28.48-.61.48-.98s-.15-.67-.46-.95c-.31-.28-1.01-.54-2.13-.79-1.82-.42-3.12-.97-3.9-1.66-.78-.69-1.17-1.57-1.17-2.64,0-.7.2-1.37.6-1.99.4-.62,1-1.12,1.81-1.47.8-.36,1.91-.54,3.3-.54,1.72,0,3.03.33,3.93.97.9.65,1.44,1.68,1.61,3.1l-3.92.23c-.1-.62-.32-1.06-.66-1.34s-.79-.42-1.38-.42c-.48,0-.85.1-1.09.31-.24.21-.37.46-.37.76,0,.22.1.41.3.59.2.18.66.35,1.39.5,1.82.4,3.12.8,3.9,1.21.79.41,1.36.91,1.71,1.52.36.6.54,1.28.54,2.02,0,.88-.24,1.69-.71,2.42-.48.74-1.14,1.3-2,1.68-.86.38-1.93.57-3.24.57-2.29,0-3.87-.45-4.75-1.34s-1.38-2.03-1.49-3.41Z"/><path class="cls-2" d="M55.64,25.28h4.16v13.67h-4.16v-13.67Z"/><path class="cls-2" d="M62.74,25.28h5.46l2.11,8.32,2.09-8.32h5.46v13.67h-3.4v-10.43l-2.62,10.43h-3.08l-2.62-10.43v10.43h-3.4v-13.67Z"/><g class="cls-6"><circle class="cls-7" cx="29.73" cy="100.88" r="26.51"/></g><rect class="cls-5" x="24.78" y="79.77" width="9.9" height="27.23" rx="2.48" ry="2.48"/><circle class="cls-5" cx="29.73" cy="116.9" r="4.95"/></svg>