<?xml version="1.0" encoding="utf-8"?>
<!-- Generator: Adobe Illustrator 24.3.0, SVG Export Plug-In . SVG Version: 6.00 Build 0)  -->
<svg version="1.1" id="Layer_1" xmlns="http://www.w3.org/2000/svg" xmlns:xlink="http://www.w3.org/1999/xlink" x="0px" y="0px"
	 viewBox="0 0 128.2 128.2" style="enable-background:new 0 0 128.2 128.2;" xml:space="preserve">
<style type="text/css">
	.st0{fill:url(#SVGID_1_);stroke:#000000;stroke-width:0.28;stroke-miterlimit:10;}
	.st1{fill:url(#SVGID_2_);}
	.st2{fill:#FCBCA1;stroke:#000000;stroke-width:0.28;stroke-miterlimit:10;}
	.st3{fill:url(#SVGID_3_);stroke:#000000;stroke-width:0.28;stroke-miterlimit:10;}
	.st4{fill:url(#SVGID_4_);stroke:#000000;stroke-width:0.28;stroke-miterlimit:10;}
	.st5{fill:url(#SVGID_5_);stroke:#000000;stroke-width:0.28;stroke-miterlimit:10;}
	.st6{fill:url(#SVGID_6_);stroke:#000000;stroke-width:0.28;stroke-miterlimit:10;}
	.st7{fill:url(#SVGID_7_);stroke:#000000;stroke-width:0.28;stroke-miterlimit:10;}
	.st8{fill:url(#SVGID_8_);stroke:#000000;stroke-width:0.28;stroke-miterlimit:10;}
	.st9{fill:url(#SVGID_9_);stroke:#000000;stroke-width:0.28;stroke-miterlimit:10;}
	.st10{fill:url(#SVGID_10_);stroke:#000000;stroke-width:0.28;stroke-miterlimit:10;}
	.st11{fill:url(#SVGID_11_);stroke:#000000;stroke-width:0.28;stroke-miterlimit:10;}
	.st12{fill:url(#SVGID_12_);stroke:#000000;stroke-width:0.2796;stroke-miterlimit:9.985;}
	.st13{fill:url(#SVGID_13_);stroke:#000000;stroke-width:0.28;stroke-miterlimit:10;}
	.st14{fill:url(#SVGID_14_);stroke:#000000;stroke-width:0.2796;stroke-miterlimit:9.985;}
	.st15{fill:url(#SVGID_15_);stroke:#000000;stroke-width:0.28;stroke-miterlimit:10;}
	.st16{fill:url(#SVGID_16_);stroke:#000000;stroke-width:0.28;stroke-miterlimit:10;}
	.st17{fill:url(#SVGID_17_);stroke:#000000;stroke-width:0.28;stroke-miterlimit:10;}
	.st18{fill:url(#SVGID_18_);stroke:#000000;stroke-width:0.28;stroke-miterlimit:10;}
	.st19{fill:url(#SVGID_19_);stroke:#000000;stroke-width:0.28;stroke-miterlimit:10;}
	.st20{fill:url(#SVGID_20_);stroke:#000000;stroke-width:0.28;stroke-miterlimit:10;}
	.st21{fill:url(#SVGID_21_);stroke:#000000;stroke-width:0.28;stroke-miterlimit:10;}
	.st22{fill:url(#SVGID_22_);stroke:#000000;stroke-width:0.28;stroke-miterlimit:10;}
	.st23{fill:url(#SVGID_23_);stroke:#000000;stroke-width:0.28;stroke-miterlimit:10;}
	.st24{fill:url(#SVGID_24_);stroke:#000000;stroke-width:0.28;stroke-miterlimit:10;}
	.st25{fill:url(#SVGID_25_);stroke:#000000;stroke-width:0.28;stroke-miterlimit:10;}
	.st26{fill:url(#SVGID_26_);stroke:#000000;stroke-width:0.28;stroke-miterlimit:10;}
	.st27{fill:url(#SVGID_27_);stroke:#000000;stroke-width:0.28;stroke-miterlimit:10;}
	.st28{fill:url(#SVGID_28_);stroke:#000000;stroke-width:0.28;stroke-miterlimit:10;}
	.st29{fill:url(#SVGID_29_);stroke:#000000;stroke-width:0.28;stroke-miterlimit:10;}
	.st30{fill:url(#SVGID_30_);stroke:#000000;stroke-width:0.28;stroke-miterlimit:10;}
	.st31{fill:url(#SVGID_31_);stroke:#000000;stroke-width:0.28;stroke-miterlimit:10;}
	.st32{fill:url(#SVGID_32_);stroke:#000000;stroke-width:0.28;stroke-miterlimit:10;}
	.st33{fill:url(#SVGID_33_);stroke:#000000;stroke-width:0.28;stroke-miterlimit:10;}
	.st34{fill:url(#SVGID_34_);stroke:#000000;stroke-width:0.28;stroke-miterlimit:10;}
	.st35{fill:url(#SVGID_35_);stroke:#000000;stroke-width:0.28;stroke-miterlimit:10;}
	.st36{fill:url(#SVGID_36_);stroke:#000000;stroke-width:0.28;stroke-miterlimit:10;}
	.st37{fill:url(#SVGID_37_);stroke:#000000;stroke-width:0.28;stroke-miterlimit:10;}
	.st38{fill:url(#SVGID_38_);stroke:#000000;stroke-width:0.28;stroke-miterlimit:10;}
	.st39{fill:url(#SVGID_39_);stroke:#000000;stroke-width:0.28;stroke-miterlimit:10;}
	.st40{fill:url(#SVGID_40_);stroke:#000000;stroke-width:0.28;stroke-miterlimit:10;}
	.st41{fill:url(#SVGID_41_);stroke:#000000;stroke-width:0.28;stroke-miterlimit:10;}
	.st42{fill:#DF9C91;}
	.st43{fill:#5D2C28;}
	.st44{opacity:0.59;}
	.st45{fill:#ECBCB6;}
</style>
<g>
	<g id="Layer_1_1_">
		
			<radialGradient id="SVGID_1_" cx="64.0664" cy="-578.9406" r="55.7827" fx="106.3983" fy="-615.2686" gradientTransform="matrix(1 0 0 -1 0 -532)" gradientUnits="userSpaceOnUse">
			<stop  offset="0.58" style="stop-color:#B62209"/>
			<stop  offset="1" style="stop-color:#FFC0C1"/>
		</radialGradient>
		<path class="st0" d="M15.2,54.4c0,0-3.4-12.4,9.5-32.4S43.6,2.2,58.2,1.2s35.2,1.7,40.4,10.3S113.1,35,113.1,46s2.3,21.7-7.4,28.3
			S86.5,95.4,59.9,92.5S22.5,69.6,19.3,67.2S15.2,54.4,15.2,54.4z"/>
		
			<radialGradient id="SVGID_2_" cx="-1865.5354" cy="213.4068" r="36.48" gradientTransform="matrix(-0.51 -0.86 -0.61 0.37 -739.33 -1597.88)" gradientUnits="userSpaceOnUse">
			<stop  offset="0" style="stop-color:#EEC4A5"/>
			<stop  offset="0.27" style="stop-color:#F1C5AB"/>
			<stop  offset="0.64" style="stop-color:#F8C9BD"/>
			<stop  offset="0.89" style="stop-color:#FFCCCD"/>
		</radialGradient>
		<path class="st1" d="M83,127.1c-0.4,0-0.9,0-1.4,0c-12-0.7-21.1-5.6-24.3-8.7c-6.2-6-7.9-22.1-5.8-29.2
			c0.3-1.8,2.6-15.3,10.9-24.2c4.5-4.7,6.8-11.1,6.5-17.6c-0.1-1.3,0.9-2.4,2.2-2.5c1.2-0.1,2.2,0.7,2.4,1.9
			c0.5,7.8-2.3,15.5-7.7,21.2C58,76.4,56.1,89.8,56,90c0,0.1-0.1,0.3-0.1,0.4c-1.8,5.7-0.2,20,4.6,24.7c2.6,2.5,10.7,6.8,21.4,7.4
			c9.9,0.6,17.3-6.4,19.6-11c0.8-1.5,0.2-3-0.8-5.7s-2.3-5.7-1.6-9.5c1.4-7.6,10.1-11.2,10.5-11.4c1.2-0.4,2.5,0.2,2.9,1.4
			c0.4,1.1-0.1,2.4-1.2,2.9c-0.1,0-6.7,2.9-7.7,8c-0.5,2.4,0.4,4.6,1.3,6.9c1.1,2.8,2.4,6,0.7,9.5C102.9,118.9,94.4,127.1,83,127.1z
			"/>
		<path class="st2" d="M73.4,46.7c0.5,7.9-2.3,15.6-7.7,21.3C58,76.4,56.1,89.8,56,90c0,0.1-0.1,0.3-0.1,0.4
			c-1.8,5.7-0.2,20,4.6,24.7c2.6,2.5,10.7,6.8,21.4,7.4c9.9,0.6,17.3-6.4,19.6-11c0.8-1.5,0.2-3-0.8-5.7s-2.3-5.7-1.6-9.5
			c1.4-7.6,10.1-11.2,10.5-11.4c1.2-0.4,2.5,0.2,2.9,1.4c0.4,1.1-0.1,2.4-1.2,2.9c-0.1,0-6.7,2.9-7.7,8c-0.5,2.4,0.4,4.6,1.3,6.9
			c1.1,2.8,2.4,6,0.7,9.5c-2.7,5.4-11.2,13.5-22.6,13.5c-0.4,0-0.9,0-1.4,0c-12-0.7-21.1-5.6-24.3-8.7c-6.2-6-7.9-22.1-5.8-29.2
			C51.8,87.4,54.1,74,62.4,65c4.5-4.7,6.8-11.1,6.5-17.6"/>
		
			<radialGradient id="SVGID_3_" cx="71.14" cy="-577.099" r="1.0196" gradientTransform="matrix(1 0 0 -1 1.871652e-03 -531.9916)" gradientUnits="userSpaceOnUse">
			<stop  offset="0.65" style="stop-color:#B62209"/>
			<stop  offset="0.99" style="stop-color:#71210D"/>
		</radialGradient>
		<path class="st3" d="M70,45c0.1-0.5,0.6-0.8,1.2-0.7s1.1,0.5,1,1S71.7,46.1,71,46S70,45.4,70,45z"/>
		
			<radialGradient id="SVGID_4_" cx="71.14" cy="-581.02" r="1.0191" gradientTransform="matrix(1 0 0 -1 -1.141091e-03 -532.005)" gradientUnits="userSpaceOnUse">
			<stop  offset="0.65" style="stop-color:#B62209"/>
			<stop  offset="0.99" style="stop-color:#71210D"/>
		</radialGradient>
		<path class="st4" d="M70,48.9c0.1-0.5,0.6-0.8,1.2-0.7s1.1,0.5,1,1S71.6,50,71,49.9C70.4,49.8,69.9,49.3,70,48.9z"/>
		
			<radialGradient id="SVGID_5_" cx="70.62" cy="-585.1804" r="1.0202" gradientTransform="matrix(1 0 0 -1 1.011832e-02 -532.0034)" gradientUnits="userSpaceOnUse">
			<stop  offset="0.65" style="stop-color:#B62209"/>
			<stop  offset="0.99" style="stop-color:#71210D"/>
		</radialGradient>
		<path class="st5" d="M69.5,53c0.1-0.5,0.6-0.8,1.2-0.7s1.1,0.5,1,1s-0.6,0.8-1.2,0.7S69.4,53.5,69.5,53z"/>
		
			<radialGradient id="SVGID_6_" cx="69.4805" cy="-588.7612" r="1.0203" gradientTransform="matrix(1 0 0 -1 2.915695e-03 -531.9983)" gradientUnits="userSpaceOnUse">
			<stop  offset="0.65" style="stop-color:#B62209"/>
			<stop  offset="0.99" style="stop-color:#71210D"/>
		</radialGradient>
		<path class="st6" d="M68.4,56.6c0.1-0.5,0.6-0.8,1.2-0.7s1.1,0.5,1,1s-0.6,0.8-1.2,0.7S68.3,57.1,68.4,56.6z"/>
		
			<radialGradient id="SVGID_7_" cx="68.34" cy="-592.1087" r="1.0194" gradientTransform="matrix(1 0 0 -1 -3.177730e-03 -532.0005)" gradientUnits="userSpaceOnUse">
			<stop  offset="0.65" style="stop-color:#B62209"/>
			<stop  offset="0.99" style="stop-color:#71210D"/>
		</radialGradient>
		<path class="st7" d="M67.2,60c0.1-0.5,0.6-0.8,1.2-0.7s1.1,0.5,1,1s-0.6,0.8-1.2,0.7S67.1,60.4,67.2,60z"/>
		
			<radialGradient id="SVGID_8_" cx="66.53" cy="-595.4688" r="1.0199" gradientTransform="matrix(1 0 0 -1 -9.114326e-04 -532)" gradientUnits="userSpaceOnUse">
			<stop  offset="0.65" style="stop-color:#B62209"/>
			<stop  offset="0.99" style="stop-color:#71210D"/>
		</radialGradient>
		<path class="st8" d="M65.4,63.3c0.1-0.5,0.6-0.8,1.2-0.7s1.1,0.5,1,1s-0.6,0.8-1.2,0.7C65.8,64.3,65.3,63.8,65.4,63.3z"/>
		
			<radialGradient id="SVGID_9_" cx="64.2498" cy="-598.2702" r="1.0202" gradientTransform="matrix(1 0 0 -1 3.813911e-03 -531.9994)" gradientUnits="userSpaceOnUse">
			<stop  offset="0.65" style="stop-color:#B62209"/>
			<stop  offset="0.99" style="stop-color:#71210D"/>
		</radialGradient>
		<path class="st9" d="M63.1,66.1c0.1-0.5,0.6-0.8,1.2-0.7c0.6,0.1,1.1,0.5,1,1s-0.6,0.8-1.2,0.7C63.5,67.1,63.1,66.6,63.1,66.1z"/>
		
			<radialGradient id="SVGID_10_" cx="61.9712" cy="-600.8905" r="1.0195" gradientTransform="matrix(1 0 0 -1 -3.970928e-03 -531.9916)" gradientUnits="userSpaceOnUse">
			<stop  offset="0.65" style="stop-color:#B62209"/>
			<stop  offset="0.99" style="stop-color:#71210D"/>
		</radialGradient>
		<path class="st10" d="M60.8,68.7c0.1-0.5,0.6-0.8,1.2-0.7c0.6,0.1,1.1,0.5,1,1s-0.6,0.8-1.2,0.7C61.2,69.7,60.8,69.2,60.8,68.7z"
			/>
		
			<radialGradient id="SVGID_11_" cx="59.8787" cy="-603.9293" r="1.0204" gradientTransform="matrix(1 0 0 -1 3.755209e-03 -531.9948)" gradientUnits="userSpaceOnUse">
			<stop  offset="0.65" style="stop-color:#B62209"/>
			<stop  offset="0.99" style="stop-color:#71210D"/>
		</radialGradient>
		<path class="st11" d="M58.8,71.8c0.1-0.5,0.6-0.8,1.2-0.7c0.6,0.1,1.1,0.5,1,1s-0.6,0.8-1.2,0.7C59.1,72.7,58.7,72.3,58.8,71.8z"
			/>
		
			<radialGradient id="SVGID_12_" cx="56.4681" cy="-610.4666" r="1.0211" gradientTransform="matrix(0.9985 -2.772877e-03 -2.772877e-03 -0.9985 -0.1762 -534.5831)" gradientUnits="userSpaceOnUse">
			<stop  offset="0.65" style="stop-color:#B62209"/>
			<stop  offset="0.99" style="stop-color:#71210D"/>
		</radialGradient>
		<path class="st12" d="M56.8,74.7c0.1-0.5,0.6-0.8,1.2-0.7c0.6,0.1,1.1,0.5,1,1s-0.6,0.8-1.2,0.7C57.2,75.6,56.7,75.2,56.8,74.7z"
			/>
		
			<radialGradient id="SVGID_13_" cx="56.66" cy="-610.01" r="1.02" gradientTransform="matrix(1 0 0 -1 -1.921089e-03 -531.9913)" gradientUnits="userSpaceOnUse">
			<stop  offset="0.65" style="stop-color:#B62209"/>
			<stop  offset="0.99" style="stop-color:#71210D"/>
		</radialGradient>
		<path class="st13" d="M55.5,77.9c0.1-0.5,0.6-0.8,1.2-0.7c0.6,0.1,1.1,0.5,1,1s-0.6,0.8-1.2,0.7C55.9,78.8,55.5,78.3,55.5,77.9z"
			/>
		
			<radialGradient id="SVGID_14_" cx="53.84" cy="-617.1966" r="1.02" gradientTransform="matrix(0.9985 -2.772877e-03 -2.772877e-03 -0.9985 -0.2 -534.6008)" gradientUnits="userSpaceOnUse">
			<stop  offset="0.65" style="stop-color:#B62209"/>
			<stop  offset="0.99" style="stop-color:#71210D"/>
		</radialGradient>
		<path class="st14" d="M54.1,81.4c0.1-0.5,0.6-0.8,1.2-0.7c0.6,0.1,1.1,0.5,1,1s-0.6,0.8-1.2,0.7C54.5,82.3,54.1,81.9,54.1,81.4z"
			/>
		
			<radialGradient id="SVGID_15_" cx="54.379" cy="-617.7004" r="1.0207" gradientTransform="matrix(1 0 0 -1 -3.582213e-05 -532.004)" gradientUnits="userSpaceOnUse">
			<stop  offset="0.65" style="stop-color:#B62209"/>
			<stop  offset="0.99" style="stop-color:#71210D"/>
		</radialGradient>
		<path class="st15" d="M53.2,85.5c0.1-0.5,0.6-0.8,1.2-0.7c0.6,0.1,1.1,0.5,1,1s-0.6,0.8-1.2,0.7C53.6,86.5,53.2,86,53.2,85.5z"/>
		
			<radialGradient id="SVGID_16_" cx="53.2379" cy="-621.69" r="1.0212" gradientTransform="matrix(1 0 0 -1 4.076823e-03 -532.0074)" gradientUnits="userSpaceOnUse">
			<stop  offset="0.65" style="stop-color:#B62209"/>
			<stop  offset="0.99" style="stop-color:#71210D"/>
		</radialGradient>
		<path class="st16" d="M52.1,89.5c0.1-0.5,0.6-0.8,1.2-0.7c0.6,0.1,1.1,0.5,1,1s-0.6,0.8-1.2,0.7S52,90,52.1,89.5z"/>
		
			<radialGradient id="SVGID_17_" cx="52.92" cy="-625.7896" r="1.0198" gradientTransform="matrix(1 0 0 -1 2.354785e-03 -532.0006)" gradientUnits="userSpaceOnUse">
			<stop  offset="0.65" style="stop-color:#B62209"/>
			<stop  offset="0.99" style="stop-color:#71210D"/>
		</radialGradient>
		<path class="st17" d="M51.8,93.6c0.1-0.5,0.6-0.8,1.2-0.7c0.6,0.1,1.1,0.5,1,1s-0.6,0.8-1.2,0.7C52.2,94.6,51.7,94.1,51.8,93.6z"
			/>
		
			<radialGradient id="SVGID_18_" cx="52.92" cy="-630.5812" r="1.0205" gradientTransform="matrix(1 0 0 -1 -3.067559e-03 -531.9954)" gradientUnits="userSpaceOnUse">
			<stop  offset="0.65" style="stop-color:#B62209"/>
			<stop  offset="0.99" style="stop-color:#71210D"/>
		</radialGradient>
		<path class="st18" d="M51.8,98.4c0.1-0.5,0.6-0.8,1.2-0.7c0.6,0.1,1.1,0.5,1,1s-0.6,0.8-1.2,0.7C52.2,99.4,51.7,98.9,51.8,98.4z"
			/>
		
			<radialGradient id="SVGID_19_" cx="53.24" cy="-634.6699" r="1.02" gradientTransform="matrix(1 0 0 -1 3.925245e-03 -532.0075)" gradientUnits="userSpaceOnUse">
			<stop  offset="0.65" style="stop-color:#B62209"/>
			<stop  offset="0.99" style="stop-color:#71210D"/>
		</radialGradient>
		<path class="st19" d="M52.1,102.5c0.1-0.5,0.6-0.8,1.2-0.7c0.6,0.1,1.1,0.5,1,1s-0.6,0.8-1.2,0.7C52.5,103.5,52.1,103,52.1,102.5z
			"/>
		
			<radialGradient id="SVGID_20_" cx="54.06" cy="-639.0684" r="1.0193" gradientTransform="matrix(1 0 0 -1 1.341654e-03 -531.9937)" gradientUnits="userSpaceOnUse">
			<stop  offset="0.65" style="stop-color:#B62209"/>
			<stop  offset="0.99" style="stop-color:#71210D"/>
		</radialGradient>
		<path class="st20" d="M52.9,106.9c0.1-0.5,0.6-0.8,1.2-0.7c0.6,0.1,1.1,0.5,1,1s-0.6,0.8-1.2,0.7
			C53.3,107.9,52.9,107.4,52.9,106.9z"/>
		
			<radialGradient id="SVGID_21_" cx="55.52" cy="-643.07" r="1.02" gradientTransform="matrix(1 0 0 -1 -3.103125e-05 -532.0073)" gradientUnits="userSpaceOnUse">
			<stop  offset="0.65" style="stop-color:#B62209"/>
			<stop  offset="0.99" style="stop-color:#71210D"/>
		</radialGradient>
		<path class="st21" d="M54.4,110.9c0.1-0.5,0.6-0.8,1.2-0.7c0.6,0.1,1.1,0.5,1,1s-0.6,0.8-1.2,0.7
			C54.8,111.9,54.3,111.4,54.4,110.9z"/>
		
			<radialGradient id="SVGID_22_" cx="57.0091" cy="-646.9" r="1.0205" gradientTransform="matrix(1 0 0 -1 3.477702e-04 -532.0075)" gradientUnits="userSpaceOnUse">
			<stop  offset="0.65" style="stop-color:#B62209"/>
			<stop  offset="0.99" style="stop-color:#71210D"/>
		</radialGradient>
		<path class="st22" d="M55.9,114.8c0.1-0.5,0.6-0.8,1.2-0.7c0.6,0.1,1.1,0.5,1,1s-0.6,0.8-1.2,0.7S55.8,115.2,55.9,114.8z"/>
		
			<radialGradient id="SVGID_23_" cx="59.88" cy="-649.84" r="1.02" gradientTransform="matrix(1 0 0 -1 -4.026943e-04 -531.9995)" gradientUnits="userSpaceOnUse">
			<stop  offset="0.65" style="stop-color:#B62209"/>
			<stop  offset="0.99" style="stop-color:#71210D"/>
		</radialGradient>
		<path class="st23" d="M58.8,117.7c0.1-0.5,0.6-0.8,1.2-0.7c0.6,0.1,1.1,0.5,1,1s-0.6,0.8-1.2,0.7
			C59.1,118.6,58.7,118.2,58.8,117.7z"/>
		
			<radialGradient id="SVGID_24_" cx="64.1013" cy="-652.2187" r="0.9687" gradientTransform="matrix(1 0 0 -1 -1.324291e-03 -531.9966)" gradientUnits="userSpaceOnUse">
			<stop  offset="0.65" style="stop-color:#B62209"/>
			<stop  offset="0.99" style="stop-color:#71210D"/>
		</radialGradient>
		<path class="st24" d="M63,120.1c0.1-0.4,0.6-0.7,1.2-0.6s1.1,0.5,1,0.9S64.6,121,64,121C63.4,120.9,62.9,120.5,63,120.1z"/>
		
			<radialGradient id="SVGID_25_" cx="67.29" cy="-654.2096" r="0.9698" gradientTransform="matrix(1 0 0 -1 1.546344e-03 -531.9946)" gradientUnits="userSpaceOnUse">
			<stop  offset="0.65" style="stop-color:#B62209"/>
			<stop  offset="0.99" style="stop-color:#71210D"/>
		</radialGradient>
		<path class="st25" d="M66.2,122.1c0.1-0.4,0.6-0.7,1.2-0.6s1.1,0.5,1,0.9s-0.6,0.7-1.2,0.6S66.1,122.5,66.2,122.1z"/>
		
			<radialGradient id="SVGID_26_" cx="71.76" cy="-655.73" r="0.97" gradientTransform="matrix(1 0 0 -1 4.507546e-03 -532.0017)" gradientUnits="userSpaceOnUse">
			<stop  offset="0.65" style="stop-color:#B62209"/>
			<stop  offset="0.99" style="stop-color:#71210D"/>
		</radialGradient>
		<path class="st26" d="M70.6,123.6c0.1-0.4,0.6-0.7,1.2-0.6s1.1,0.5,1,0.9s-0.6,0.7-1.2,0.6S70.6,124,70.6,123.6z"/>
		
			<radialGradient id="SVGID_27_" cx="76.7917" cy="-656.49" r="0.969" gradientTransform="matrix(1 0 0 -1 2.311904e-03 -531.992)" gradientUnits="userSpaceOnUse">
			<stop  offset="0.65" style="stop-color:#B62209"/>
			<stop  offset="0.99" style="stop-color:#71210D"/>
		</radialGradient>
		<path class="st27" d="M75.7,124.3c0.1-0.4,0.6-0.7,1.2-0.6s1.1,0.5,1,0.9s-0.6,0.7-1.2,0.6C76.1,125.2,75.6,124.8,75.7,124.3z"/>
		
			<radialGradient id="SVGID_28_" cx="82.13" cy="-657.2497" r="0.9705" gradientTransform="matrix(1 0 0 -1 1.000596e-02 -531.9997)" gradientUnits="userSpaceOnUse">
			<stop  offset="0.65" style="stop-color:#B62209"/>
			<stop  offset="0.99" style="stop-color:#71210D"/>
		</radialGradient>
		<path class="st28" d="M81,125.1c0.1-0.4,0.6-0.7,1.2-0.6s1.1,0.5,1,0.9s-0.6,0.7-1.2,0.6S81,125.5,81,125.1z"/>
		
			<radialGradient id="SVGID_29_" cx="86.5986" cy="-656.49" r="0.9709" gradientTransform="matrix(1 0 0 -1 1.402655e-03 -531.9999)" gradientUnits="userSpaceOnUse">
			<stop  offset="0.65" style="stop-color:#B62209"/>
			<stop  offset="0.99" style="stop-color:#71210D"/>
		</radialGradient>
		<path class="st29" d="M85.5,124.3c0.1-0.4,0.6-0.7,1.2-0.6s1.1,0.5,1,0.9s-0.6,0.7-1.2,0.6C85.9,125.2,85.4,124.8,85.5,124.3z"/>
		
			<radialGradient id="SVGID_30_" cx="91.21" cy="-654.97" r="0.97" gradientTransform="matrix(1 0 0 -1 4.640680e-03 -531.9996)" gradientUnits="userSpaceOnUse">
			<stop  offset="0.65" style="stop-color:#B62209"/>
			<stop  offset="0.99" style="stop-color:#71210D"/>
		</radialGradient>
		<path class="st30" d="M90.1,122.8c0.1-0.4,0.6-0.7,1.2-0.6s1.1,0.5,1,0.9s-0.6,0.7-1.2,0.6C90.5,123.6,90,123.2,90.1,122.8z"/>
		
			<radialGradient id="SVGID_31_" cx="95.2108" cy="-652.98" r="0.9695" gradientTransform="matrix(1 0 0 -1 3.247645e-03 -532.0028)" gradientUnits="userSpaceOnUse">
			<stop  offset="0.65" style="stop-color:#B62209"/>
			<stop  offset="0.99" style="stop-color:#71210D"/>
		</radialGradient>
		<path class="st31" d="M94.1,120.8c0.1-0.4,0.6-0.7,1.2-0.6s1.1,0.5,1,0.9s-0.6,0.7-1.2,0.6C94.5,121.6,94,121.2,94.1,120.8z"/>
		
			<radialGradient id="SVGID_32_" cx="98.9609" cy="-650.5995" r="0.9693" gradientTransform="matrix(1 0 0 -1 2.879838e-03 -532.0034)" gradientUnits="userSpaceOnUse">
			<stop  offset="0.65" style="stop-color:#B62209"/>
			<stop  offset="0.99" style="stop-color:#71210D"/>
		</radialGradient>
		<path class="st32" d="M97.8,118.4c0.1-0.4,0.6-0.7,1.2-0.6s1.1,0.5,1,0.9s-0.6,0.7-1.2,0.6C98.2,119.3,97.8,118.9,97.8,118.4z"/>
		
			<radialGradient id="SVGID_33_" cx="101.8879" cy="-646.9" r="0.9712" gradientTransform="matrix(1 0 0 -1 -1.786132e-03 -531.9956)" gradientUnits="userSpaceOnUse">
			<stop  offset="0.65" style="stop-color:#B62209"/>
			<stop  offset="0.99" style="stop-color:#71210D"/>
		</radialGradient>
		<path class="st33" d="M100.8,114.8c0.1-0.4,0.6-0.7,1.2-0.6s1.1,0.5,1,0.9s-0.6,0.7-1.2,0.6C101.2,115.6,100.7,115.2,100.8,114.8z
			"/>
		
			<radialGradient id="SVGID_34_" cx="103.75" cy="-643.96" r="0.97" gradientTransform="matrix(1 0 0 -1 3.022771e-03 -532.0009)" gradientUnits="userSpaceOnUse">
			<stop  offset="0.65" style="stop-color:#B62209"/>
			<stop  offset="0.99" style="stop-color:#71210D"/>
		</radialGradient>
		<path class="st34" d="M102.6,111.8c0.1-0.4,0.6-0.7,1.2-0.6s1.1,0.5,1,0.9s-0.6,0.7-1.2,0.6C103,112.6,102.6,112.2,102.6,111.8z"
			/>
		
			<radialGradient id="SVGID_35_" cx="103.749" cy="-639.9488" r="0.9711" gradientTransform="matrix(1 0 0 -1 -3.890435e-03 -531.9988)" gradientUnits="userSpaceOnUse">
			<stop  offset="0.65" style="stop-color:#B62209"/>
			<stop  offset="0.99" style="stop-color:#71210D"/>
		</radialGradient>
		<path class="st35" d="M102.6,107.8c0.1-0.4,0.6-0.7,1.2-0.6s1.1,0.5,1,0.9s-0.6,0.7-1.2,0.6C103,108.6,102.6,108.2,102.6,107.8z"
			/>
		
			<radialGradient id="SVGID_36_" cx="101.8913" cy="-635.94" r="0.9693" gradientTransform="matrix(1 0 0 -1 8.727890e-03 -531.995)" gradientUnits="userSpaceOnUse">
			<stop  offset="0.65" style="stop-color:#B62209"/>
			<stop  offset="0.99" style="stop-color:#71210D"/>
		</radialGradient>
		<path class="st36" d="M100.8,103.8c0.1-0.4,0.6-0.7,1.2-0.6s1.1,0.5,1,0.9s-0.6,0.7-1.2,0.6C101.2,104.6,100.7,104.2,100.8,103.8z
			"/>
		
			<radialGradient id="SVGID_37_" cx="101.35" cy="-631.46" r="0.97" gradientTransform="matrix(1 0 0 -1 5.691056e-03 -531.994)" gradientUnits="userSpaceOnUse">
			<stop  offset="0.65" style="stop-color:#B62209"/>
			<stop  offset="0.99" style="stop-color:#71210D"/>
		</radialGradient>
		<path class="st37" d="M100.2,99.3c0.1-0.4,0.6-0.7,1.2-0.6s1.1,0.5,1,0.9s-0.6,0.7-1.2,0.6C100.6,100.1,100.2,99.7,100.2,99.3z"/>
		
			<radialGradient id="SVGID_38_" cx="101.89" cy="-626.9901" r="0.97" gradientTransform="matrix(1 0 0 -1 7.123217e-03 -531.9969)" gradientUnits="userSpaceOnUse">
			<stop  offset="0.65" style="stop-color:#B62209"/>
			<stop  offset="0.99" style="stop-color:#71210D"/>
		</radialGradient>
		<path class="st38" d="M100.8,94.8c0.1-0.4,0.6-0.7,1.2-0.6s1.1,0.5,1,0.9s-0.6,0.7-1.2,0.6C101.2,95.7,100.7,95.3,100.8,94.8z"/>
		
			<radialGradient id="SVGID_39_" cx="103.75" cy="-623.33" r="0.97" gradientTransform="matrix(1 0 0 -1 4.280922e-03 -531.9994)" gradientUnits="userSpaceOnUse">
			<stop  offset="0.65" style="stop-color:#B62209"/>
			<stop  offset="0.99" style="stop-color:#71210D"/>
		</radialGradient>
		<path class="st39" d="M102.6,91.2c0.1-0.4,0.6-0.7,1.2-0.6s1.1,0.5,1,0.9s-0.6,0.7-1.2,0.6S102.6,91.6,102.6,91.2z"/>
		
			<radialGradient id="SVGID_40_" cx="107" cy="-620.8" r="0.97" gradientTransform="matrix(1 0 0 -1 3.608279e-03 -531.9973)" gradientUnits="userSpaceOnUse">
			<stop  offset="0.65" style="stop-color:#B62209"/>
			<stop  offset="0.99" style="stop-color:#71210D"/>
		</radialGradient>
		<path class="st40" d="M105.9,88.7c0.1-0.4,0.6-0.7,1.2-0.6s1.1,0.5,1,0.9s-0.6,0.7-1.2,0.6S105.8,89.1,105.9,88.7z"/>
		
			<radialGradient id="SVGID_41_" cx="110.04" cy="-618.8903" r="0.9701" gradientTransform="matrix(1 0 0 -1 3.444319e-03 -532.0016)" gradientUnits="userSpaceOnUse">
			<stop  offset="0.65" style="stop-color:#B62209"/>
			<stop  offset="0.99" style="stop-color:#71210D"/>
		</radialGradient>
		<path class="st41" d="M108.9,86.7c0.1-0.4,0.6-0.7,1.2-0.6s1.1,0.5,1,0.9s-0.6,0.7-1.2,0.6S108.9,87.1,108.9,86.7z"/>
	</g>
</g>
<path class="st42" d="M47.1,73.4c1.5-3.6,3.2-4.5,2.2-8.3c-0.3-1.2-0.8-2.7,0.1-3.5c0.4-0.4,1-0.4,1.5-0.2c1.1,0.4,1.8,1.9,1.9,3.2
	c0.1,1.4-0.2,2.8-0.9,3.9c-2,3.3-2.9,4.9-3.8,8.5c-0.5,2.1-1.3,5.3-2.9,6.5C45.5,81,46.2,75.6,47.1,73.4z"/>
<path class="st42" d="M39.4,68c1-0.5,2-1,2.8-1.7c1.6-1.4,2.3-3.5,3.2-5.5c1.3-2.8,3-5.5,5.5-7.4s5.9-2.6,8.8-1.4
	c0.9,0.4,1.7,1,1.9,1.9c0.2,1.1-0.8,2.2-2,2.5c-1.1,0.3-2.3,0.2-3.5,0.2c-4.6,0-7.3,1.3-9,5.7c-0.6,1.6-2.7,5.2-3.8,6.5
	c-1.2,1.5-3.2,2.1-5.1,2.3c-1.4,0.2-6.7,1.5-7.7,0.3C32.3,70.2,37.4,69,39.4,68z"/>
<path class="st42" d="M32.9,42.1c-0.3-3.3-1.6-6.6-3.6-9.2c1.3,0.3,2.5,0.8,3.7,1.4c1.3,0.6,2.5,1.3,3.2,2.5s0.7,2.9-0.4,3.8
	c7.4-3.1,16.1-2.7,23.2,0.9c1,0.5,2,1.2,2,2.2s-1.1,1.7-2,1.7c-1,0-1.9-0.5-2.7-0.9c-4.2-2.2-9-3.8-13.7-3.3
	C40,41.5,37.5,42.4,35,43c-2.3,0.6-7,2-9.4,1.9C27.3,44.4,31.2,43,32.9,42.1z"/>
<path class="st42" d="M53.5,22.1c0.2,0.8,0.6,1.6,1.1,2.3c0.5,0.7,1.1,1.3,2,1.5s1.8-0.2,2.1-1c0.4-0.9-0.3-2-1.1-2.5
	c-0.8-0.6-1.8-0.9-2.5-1.5c-1.3-1-2.2-9-6.3-7.5C48.7,15.7,52.1,15.7,53.5,22.1z"/>
<path class="st42" d="M60.2,20.9c0.1,1.8,0.1,3.7-0.1,5.5c-0.4,2.4-1.4,4.7-1.2,7c0.2,2.2,1.5,4.2,3.3,5.5s4,2,6.2,2.1
	c0.8,0.1,1.7,0,2.1-0.7c0.6-0.8-0.1-1.9-0.9-2.6c-1.1-1-2.4-1.9-3.8-2.5c-0.8-0.3-1.6-0.6-2.2-1.2c-0.6-0.5-0.9-1.2-1.2-1.8
	c-2.8-6.5-0.7-13.9-0.8-20.9c0-0.8,0-2.9-1.2-2.6c-1,0.3-0.5,2.5-0.5,3.2C60,15,60.1,17.9,60.2,20.9z"/>
<path class="st42" d="M79.6,36.7c1.9-0.6,4-1.2,5-3c1.3-2.2,0-5,0.6-7.5c0.3-1.3,1-2.4,1.9-3.4c1.4-1.7,3.2-3,5.2-4
	c-3.6,1.7-6,5.6-6,9.5c0,2.1,0.7,4.3,0.5,6.4c-0.3,3.8-3.8,7.6-7.7,7.9c-1.6,0.2-3.5-0.7-3.5-2.5C75.6,38.2,77.9,37.3,79.6,36.7z"/>
<path class="st42" d="M82.8,52.7c1.2,0.8,2.5,1.6,3.9,2.2c1.1,0.6,2.3,1.1,3.6,1c0.7-0.1,1.3-0.3,2-0.2c1.1,0.1,2,0.9,2.4,1.9
	s0.5,2.1,0.4,3.2c-0.3,4.2-2.3,8.3-5.4,11.1c2.4-0.4,4.1-2.6,5.2-4.7c1.1-2.2,1.9-4.5,2.4-6.9c0.3-1.9,0.4-4.1-1-5.4
	c-1.7-1.8-4.7-1.2-7.1-2c-2.4-0.9-4.3-4-7-4C79.1,48.7,81.4,51.7,82.8,52.7z"/>
<path class="st42" d="M104.4,66.6c0.7-0.1,1.3-0.5,1.7-1.1c0.4-0.6,0.6-1.2,0.8-1.8c-0.3,1.1-0.6,2.2-1.1,3.3c-0.5,1-1.2,2-2.2,2.5
	c-3.3,1.8-6.9-3.2-4.6-6C102.2,59.6,101.5,66.8,104.4,66.6z"/>
<path class="st43" d="M41.4,29.7c-2.4-1.9-4.2-4.1-6-6.4c-0.5-0.6-2.6-4.8-0.2-4.5c1.2,0.2,1.6,2.3,1.9,3.2c0.9,2.7,3.1,4,4.5,6.3
	c1.2-1.7,1.6-3.9,1.3-6c-0.1-0.5-0.2-0.9,0-1.4s0.8-0.7,1.1-0.4c0.2,0.2,0.2,0.5,0.2,0.8c-0.2,1.9-0.4,3.8-0.5,5.8
	c-0.3,3.7,7.2,2.9,7,5.3c-0.2,2.6-7.6-1.6-8.4-2.2C41.9,30.1,41.6,29.9,41.4,29.7z"/>
<path class="st43" d="M73.5,18.1c0.1-2.1,0.2-4.4-0.8-6.2c-0.3-0.4-0.6-0.9-0.6-1.4s0.3-1.1,0.8-1c1.7,1.4,2.3,3.8,2.4,6.1
	c0,0.2,0,0.4,0.2,0.6c0.1,0.2,0.4,0.2,0.6,0.2c2.8,0.4,5.7-0.1,8.1-1.5c1.2-0.7,2.5-1.7,3.9-1.6c0.5,0.5-0.1,1.3-0.7,1.8
	c-3.2,2.3-7.4,3.2-11.3,2.5c-0.3-0.1-0.7-0.1-0.9,0.1c-0.2,0.2-0.3,0.5-0.3,0.8c-0.2,1.9-0.4,3.8-0.4,5.7c0,0.7,0.3,3.8-0.6,3.5
	C72.1,27.1,73.5,19.4,73.5,18.1z"/>
<path class="st43" d="M35.4,55.1c-0.2,0.1-0.4,0.3-0.7,0.3c-0.5,0.1-0.9-0.2-1.3-0.5c-1.7-1.3-4-2.2-6-1.6c-1.4,0.5-2.5,1.6-3.9,1.9
	c-0.8,0.2-1.8,0.1-2.2,0.9c-0.4,0.7,0.3,1.6,1.1,1.8c0.8,0.1,1.6-0.3,2.2-0.9c0.6-0.6,1.1-1.2,1.7-1.7c1.1-0.8,2.7-0.9,4-0.5
	s2.4,1.3,3.3,2.4c-1.9,1.3-3.7,2.9-5.3,4.7c-1.1,1.3-2.2,2.8-2.1,4.5c0,0.6,0.3,1.3,0.9,1.4c1.9,0.1,3.8-5.1,4.9-6.4
	c0.5-0.6,1.1-1,1.6-1.5c1.5-1.3,2.9-2.7,4.7-3.5c1.7-0.8,3.5-1.6,5.3-2.4c0.9-0.3,1.8-0.6,2.4-1.2c0.7-0.7,1.1-2.1,0-2.5
	c-0.8-0.3-2.9,0.9-3.7,1.2C40,52.3,37.6,53.6,35.4,55.1z"/>
<path class="st43" d="M80.6,72.6c-0.5,4.4-3.7,8.1-7.1,11c-1.4,1.2,0.3,1.3,1.3,0.8c1.2-0.6,1.9-1.8,2.7-2.9c2-2.6,4-4.7,4.1-8.1
	c0.9,1.1,2,2.1,3.3,2.4c1.4,0.3,3-0.2,3.6-1.5c-1.1-1-2.9-0.6-4.2-1.3c-1.4-0.7-1.9-2.5-2.3-4c-0.5-2-1-4-1.4-5.9
	c-0.2-0.8-1-3.4-1.7-1.6c-0.4,1.2,1,4.4,1.3,5.6C80.6,68.9,80.8,70.8,80.6,72.6z"/>
<path class="st43" d="M94.2,43.7c1.6-0.2,3.3-0.3,4.7-1.1c1.2-0.6,2.2-1.6,2.8-2.8c0.3-0.6,0.5-1.2,0.4-1.9c-0.2-1.9-2.2-2.9-4-3.5
	c-1.5-0.5-3-1.1-4.5-1.6c-0.5-0.2-1.2-0.6-1-1.1c0.2-0.5,1-0.5,1.5-0.3c2.6,0.9,5,2,7.4,3.2c0.6,0.3,1.1,0.6,1.5,1.1
	s0.6,1.1,0.6,1.7c0.2,1.8-0.7,3.6-1.9,4.9s-3,2.1-4.7,2.7c-3.1,1-10.5,2.1-13.5,0.3c-2.4-1.4,2.7-1.2,3.7-1.2
	C89.7,44.1,91.9,43.9,94.2,43.7z"/>
<path class="st43" d="M105.5,45.9c0.5,1,0.5,2.2,0.5,3.3s-0.1,2.3,0.3,3.4c0.3,0.3,0.9,0.1,1.2-0.3c0.3-0.4,0.3-0.8,0.3-1.3
	c0.1-1.3,0.1-2.6,0.1-3.9c0-1-0.1-2-0.7-2.8c-0.4-0.5-1-0.9-1.7-1.1c-1-0.4-2.2-0.7-3.2-0.1C102.5,44.4,104.8,44.5,105.5,45.9z"/>
<g class="st44">
	<path class="st45" d="M64.4,85.1c-22.7,0-41.3-15.8-42.5-35.7c0,0.7-0.1,1.4-0.1,2.1c0,20.9,19.1,37.8,42.6,37.8S107,72.4,107,51.5
		c0-0.7,0-1.4-0.1-2.1C105.7,69.2,87.1,85.1,64.4,85.1z"/>
</g>
</svg>
