<svg id="Layer_1" data-name="Layer 1" xmlns="http://www.w3.org/2000/svg" xmlns:xlink="http://www.w3.org/1999/xlink" viewBox="0 0 128.16 128.16"><defs><style>.cls-1{fill-rule:evenodd;fill:url(#linear-gradient);}</style><linearGradient id="linear-gradient" x1="33.54" y1="-675.28" x2="94.62" y2="-675.28" gradientTransform="matrix(1, 0, 0, -1, 0, -611.2)" gradientUnits="userSpaceOnUse"><stop offset="0" stop-color="#005496"/><stop offset="1" stop-color="#00aeef"/></linearGradient></defs><path class="cls-1" d="M81.23,107.85c-15.83,14-42.56,3.7-42.56-20.57a41.33,41.33,0,0,1,3.2-14.44c.2,23,13.08,32.75,28.57,35a10.47,10.47,0,0,0,3.38.52h4a10.65,10.65,0,0,0,3.32-.5Zm-17-99.34S94.62,63,94.62,87.19c0,43.27-61.08,43.27-61.08,0C33.54,63,63.92,8.51,63.92,8.51l.16.56Z"/></svg>