<svg id="Layer_1" data-name="Layer 1" xmlns="http://www.w3.org/2000/svg" xmlns:xlink="http://www.w3.org/1999/xlink" viewBox="0 0 128.16 128.16"><defs><style>.cls-1,.cls-6{fill:#fcc900;}.cls-2{opacity:0.8;fill:url(#linear-gradient);}.cls-3{fill:#fff;stroke:#fff;stroke-miterlimit:10;stroke-width:5.98px;}.cls-4{fill:#00aeef;}.cls-5{fill:#f18a00;}.cls-6{stroke:gray;stroke-linecap:square;stroke-linejoin:bevel;stroke-width:1.62px;opacity:0.34;}</style><linearGradient id="linear-gradient" x1="8.51" y1="57.16" x2="102.17" y2="57.16" gradientUnits="userSpaceOnUse"><stop offset="0.54" stop-color="#fff"/><stop offset="1" stop-color="#fff" stop-opacity="0"/></linearGradient></defs><polygon class="cls-1" points="8.51 1.08 91.99 5.33 91.99 113.23 8.51 94.09 8.51 1.08"/><polygon class="cls-1" points="91.99 69.22 102.17 70.99 102.17 109.11 91.99 107.34 91.99 69.22"/><path class="cls-2" d="M8.51,1.08,92,5.33v107.9L8.51,94.09ZM92,107.34l10.18,1.77V71L92,69.22Z"/><path class="cls-3" d="M64.54,50.92a5.89,5.89,0,0,0-6.26,5.93v48.86a6.68,6.68,0,0,0,6.26,6.58l48.86,2.56a5.88,5.88,0,0,0,6.25-5.93V60.06a6.67,6.67,0,0,0-6.25-6.58Z"/><path class="cls-3" d="M56.55,112.12a10.75,10.75,0,0,1-2.32-6.63V56.63a10.15,10.15,0,0,1,.43-2.94l-1.42-.07L29.73,52.39a5.74,5.74,0,0,0-6.1,5.78v46.18a6.51,6.51,0,0,0,6.1,6.42l25.71,1.35Z"/><path class="cls-3" d="M89,13.05A15,15,0,0,0,73,28.16,17,17,0,0,0,89,45a15,15,0,0,0,16-15.12A17,17,0,0,0,89,13.05Z"/><path class="cls-3" d="M52.82,16.6A14.35,14.35,0,0,0,37.56,31.07,16.28,16.28,0,0,0,52.82,47.13,14.35,14.35,0,0,0,68.08,32.67,16.29,16.29,0,0,0,52.82,16.6Z"/><path class="cls-4" d="M64.54,50.92a5.89,5.89,0,0,0-6.26,5.93v48.86a6.68,6.68,0,0,0,6.26,6.58l48.86,2.56a5.88,5.88,0,0,0,6.25-5.93V60.06a6.67,6.67,0,0,0-6.25-6.58Z"/><path class="cls-5" d="M56.55,112.12a10.75,10.75,0,0,1-2.32-6.63V56.63a10.15,10.15,0,0,1,.43-2.94l-1.42-.07L29.73,52.39a5.74,5.74,0,0,0-6.1,5.78v46.18a6.51,6.51,0,0,0,6.1,6.42l25.71,1.35Z"/><path class="cls-4" d="M89,13.05A15,15,0,0,0,73,28.16,17,17,0,0,0,89,45a15,15,0,0,0,16-15.12A17,17,0,0,0,89,13.05Z"/><path class="cls-5" d="M52.82,16.6A14.35,14.35,0,0,0,37.56,31.07,16.28,16.28,0,0,0,52.82,47.13,14.35,14.35,0,0,0,68.08,32.67,16.29,16.29,0,0,0,52.82,16.6Z"/><polygon class="cls-1" points="8.51 1.08 38.7 20.91 38.7 118.55 38.7 127.08 8.51 98.72 8.51 1.08"/><polyline class="cls-6" points="9.95 2.03 38.7 20.91 38.7 118.55 38.7 127.08 9.41 99.75"/></svg>