<svg id="Layer_1" data-name="Layer 1" xmlns="http://www.w3.org/2000/svg" xmlns:xlink="http://www.w3.org/1999/xlink" viewBox="0 0 31.68 31.68"><defs><style>.cls-1,.cls-6{fill:#fcc900;}.cls-2{opacity:0.8;fill:url(#linear-gradient);}.cls-3{fill:#fff;stroke:#fff;stroke-miterlimit:10;stroke-width:1.5px;}.cls-4{fill:#00aeef;}.cls-5{fill:#f18a00;}.cls-6{stroke:gray;stroke-linecap:square;stroke-linejoin:bevel;stroke-width:0.41px;opacity:0.34;}</style><linearGradient id="linear-gradient" y1="14.14" x2="23.5" y2="14.14" gradientUnits="userSpaceOnUse"><stop offset="0.54" stop-color="#fff"/><stop offset="1" stop-color="#fff" stop-opacity="0"/></linearGradient></defs><polygon class="cls-1" points="0 0.07 20.95 1.13 20.95 28.21 0 23.4 0 0.07"/><polygon class="cls-1" points="20.95 17.16 23.5 17.61 23.5 27.17 20.95 26.73 20.95 17.16"/><path class="cls-2" d="M0,.07,21,1.13V28.21L0,23.4ZM21,26.73l2.55.44V17.61L21,17.16Z"/><path class="cls-3" d="M14.06,12.57a1.48,1.48,0,0,0-1.57,1.49V26.32A1.68,1.68,0,0,0,14.06,28l12.26.64a1.48,1.48,0,0,0,1.57-1.49V14.87a1.69,1.69,0,0,0-1.57-1.66Z"/><path class="cls-3" d="M12.05,27.93a2.75,2.75,0,0,1-.58-1.67V14a2.55,2.55,0,0,1,.11-.74l-.36,0-5.89-.31a1.45,1.45,0,0,0-1.54,1.45V26a1.64,1.64,0,0,0,1.54,1.61l6.44.34Z"/><path class="cls-3" d="M20.19,3.07a3.77,3.77,0,0,0-4,3.79,4.26,4.26,0,0,0,4,4.21,3.76,3.76,0,0,0,4-3.79A4.28,4.28,0,0,0,20.19,3.07Z"/><path class="cls-3" d="M11.12,4A3.6,3.6,0,0,0,7.29,7.59a4.09,4.09,0,0,0,3.83,4A3.6,3.6,0,0,0,15,8,4.09,4.09,0,0,0,11.12,4Z"/><path class="cls-4" d="M14.06,12.57a1.48,1.48,0,0,0-1.57,1.49V26.32A1.68,1.68,0,0,0,14.06,28l12.26.64a1.48,1.48,0,0,0,1.57-1.49V14.87a1.69,1.69,0,0,0-1.57-1.66Z"/><path class="cls-5" d="M12.05,27.93a2.75,2.75,0,0,1-.58-1.67V14a2.55,2.55,0,0,1,.11-.74l-.36,0-5.89-.31a1.45,1.45,0,0,0-1.54,1.45V26a1.64,1.64,0,0,0,1.54,1.61l6.44.34Z"/><path class="cls-4" d="M20.19,3.07a3.77,3.77,0,0,0-4,3.79,4.26,4.26,0,0,0,4,4.21,3.76,3.76,0,0,0,4-3.79A4.28,4.28,0,0,0,20.19,3.07Z"/><path class="cls-5" d="M11.12,4A3.6,3.6,0,0,0,7.29,7.59a4.09,4.09,0,0,0,3.83,4A3.6,3.6,0,0,0,15,8,4.09,4.09,0,0,0,11.12,4Z"/><polygon class="cls-1" points="0 0.07 7.57 5.04 7.57 29.54 7.57 31.68 0 24.56 0 0.07"/><polyline class="cls-6" points="0.36 0.31 7.57 5.04 7.57 29.54 7.57 31.68 0.23 24.82"/></svg>