<svg id="Layer_1" data-name="Layer 1" xmlns="http://www.w3.org/2000/svg" viewBox="0 0 128.16 128.16"><defs><style>.cls-1{fill:#e6e6e6;}.cls-2{fill:#b1d89b;}.cls-3{fill:none;}.cls-4{fill:#62bb46;}.cls-5{fill:#00aeef;}.cls-6{fill:#6dcff6;}.cls-7{fill:#6d6f70;}.cls-8{fill:#fff;}.cls-9{fill:#929497;}</style></defs><path class="cls-1" d="M35,9.31c3.77-3.67,7.4-5.62,11-5.94H10.86a7.29,7.29,0,0,0-7.27,7A172.33,172.33,0,0,0,19,37.19C23.51,25.3,28.81,15.39,35,9.31Z"/><path class="cls-2" d="M3.58,23.06V94.21c3.49-17.1,7.72-35.12,13-50.59A165.36,165.36,0,0,1,3.58,23.06Z"/><path class="cls-3" d="M38.4,66a126.32,126.32,0,0,0,10.72,7.24A41.57,41.57,0,0,1,51.4,68q-4.78-2.91-9.62-6.53A102.64,102.64,0,0,1,23,42.59c4.55-12.69,9.84-23.25,16-29.26,3.19-3.1,6.11-4.57,8.7-4.39,4.48.34,8.47,5.57,12,10.19,1.48,1.95,3.16,4.49,5.11,7.44,3.2,4.84,7.18,10.87,12.49,17.66.74.94,1.55,1.86,2.4,2.75a41.09,41.09,0,0,1,7.41-.74,37.7,37.7,0,0,1-5.39-5.48c-5.16-6.6-9.08-12.53-12.22-17.29-2-3-3.73-5.64-5.32-7.74C60.24,10.64,55.45,4.37,48.85,3.44L49,3.37H10.86a7.29,7.29,0,0,0-7.27,7c0,.09,0,.17,0,.26V117.52a7.1,7.1,0,0,0,.67,3C8.09,99.68,13.4,71.75,20.8,48.92A105.54,105.54,0,0,0,38.4,66Z"/><path class="cls-3" d="M123,67.12l1.63.31v-3h0V61.69c-2-.37-4.17-.83-6.4-1.37A40.91,40.91,0,0,1,123,67.12Z"/><path class="cls-4" d="M46.76,86.89a40.67,40.67,0,0,1,2.36-13.66A126.32,126.32,0,0,1,38.4,66,105.54,105.54,0,0,1,20.8,48.92C13.4,71.75,8.09,99.68,4.25,120.54a7.29,7.29,0,0,0,6.61,4.25H72.7A40.68,40.68,0,0,1,46.76,86.89Z"/><path class="cls-5" d="M64.12,15.73c1.59,2.1,3.32,4.71,5.32,7.74,3.14,4.76,7.06,10.69,12.22,17.29a37.7,37.7,0,0,0,5.39,5.48h.37a40.56,40.56,0,0,1,30.76,14.09c2.23.54,4.39,1,6.4,1.37v-51a7.29,7.29,0,0,0-7.28-7.27H49l-.13.07C55.45,4.37,60.24,10.64,64.12,15.73Z"/><path class="cls-6" d="M124.58,70.39v-3L123,67.12C123.54,68.18,124.08,69.28,124.58,70.39Z"/><path class="cls-6" d="M79.64,47c-.85-.89-1.66-1.81-2.4-2.75C71.93,37.44,68,31.41,64.75,26.57c-2-2.95-3.63-5.49-5.11-7.44-3.51-4.62-7.5-9.85-12-10.19-2.59-.18-5.51,1.29-8.7,4.39-6.15,6-11.44,16.57-16,29.26A102.64,102.64,0,0,0,41.78,61.5Q46.61,65.13,51.4,68A40.73,40.73,0,0,1,79.64,47Z"/><path class="cls-7" d="M10.86,124.79a7.29,7.29,0,0,1-6.61-4.25,7.1,7.1,0,0,1-.67-3V10.64c0-.09,0-.17,0-.26a7.29,7.29,0,0,1,7.27-7H117.3a7.29,7.29,0,0,1,7.28,7.27v53.8h0v6c.47,1.07.9,2.15,1.28,3.26v-63a8.58,8.58,0,0,0-8.56-8.55H10.86A8.58,8.58,0,0,0,2.3,10.64V117.52a8.58,8.58,0,0,0,8.56,8.55h65.7a39.65,39.65,0,0,1-3.86-1.28Z"/><path class="cls-8" d="M87.42,127.55a40.56,40.56,0,0,0,10.86-1.48H76.56A40.56,40.56,0,0,0,87.42,127.55Z"/><path class="cls-8" d="M124.58,70.39c-.5-1.11-1-2.21-1.63-3.27A40.8,40.8,0,0,0,87.42,46.23h-.37A40.56,40.56,0,0,0,51.4,68a41.57,41.57,0,0,0-2.28,5.2A40.67,40.67,0,0,0,72.7,124.79a39.65,39.65,0,0,0,3.86,1.28H98.28a39.65,39.65,0,0,0,3.86-1.28,40.8,40.8,0,0,0,22.44-21.4c.47-1.07.9-2.15,1.28-3.26V73.65C125.48,72.54,125.05,71.46,124.58,70.39Z"/><rect class="cls-5" x="80.75" y="77.72" width="29.33" height="29.33" rx="2.99"/><path class="cls-9" d="M79.93,107.16a4.84,4.84,0,0,1-1.11-3.11V80.71A4.86,4.86,0,0,1,79,79.29H67.12a2.92,2.92,0,0,0-2.92,2.92v22.06a2.92,2.92,0,0,0,2.92,2.92H79.4Z"/><path class="cls-5" d="M95.42,59A7.62,7.62,0,1,0,103,66.66v0A7.64,7.64,0,0,0,95.42,59Z"/><path class="cls-9" d="M78.15,61.62a7.29,7.29,0,1,0,7.29,7.29h0A7.31,7.31,0,0,0,78.15,61.62Z"/></svg>