<svg id="Layer_1" data-name="Layer 1" xmlns="http://www.w3.org/2000/svg" viewBox="0 0 128.16 128.16"><defs><style>.cls-1{fill:#e6e6e6;}.cls-2{fill:#62bb46;}.cls-3{fill:#b1d89b;}.cls-4{fill:#00aeef;}.cls-5{fill:#6dcff6;}.cls-6{fill:#6d6f70;}.cls-7{fill:#f18a00;}.cls-8{fill:#fff;}.cls-9{fill:#6dbd45;opacity:0.9;isolation:isolate;}</style></defs><path class="cls-1" d="M35,9.31c3.77-3.67,7.4-5.62,11-5.94H10.86a7.29,7.29,0,0,0-7.27,7A172.33,172.33,0,0,0,19,37.19C23.51,25.3,28.81,15.39,35,9.31Z"/><path class="cls-2" d="M112.51,91.82C94.23,90,66.62,87.22,38.4,66A105.54,105.54,0,0,1,20.8,48.92C13.4,71.75,8.09,99.68,4.25,120.54a7.29,7.29,0,0,0,6.61,4.25H117.3a7.29,7.29,0,0,0,7.28-7.27V93c-2.13-.2-4.72-.46-7.79-.79Z"/><path class="cls-3" d="M3.58,23.06V94.21c3.49-17.1,7.72-35.12,13-50.59A165.36,165.36,0,0,1,3.58,23.06Z"/><path class="cls-4" d="M64.12,15.73c1.59,2.1,3.32,4.71,5.32,7.74,3.14,4.76,7.06,10.69,12.22,17.29,10,12.67,29.47,18.41,42.92,20.93v-51a7.29,7.29,0,0,0-7.28-7.27H49l-.13.07C55.45,4.37,60.24,10.64,64.12,15.73Z"/><path class="cls-5" d="M77.24,44.23C71.93,37.44,68,31.41,64.75,26.57c-2-2.95-3.63-5.49-5.11-7.44-3.51-4.62-7.5-9.85-12-10.19-2.59-.18-5.51,1.29-8.7,4.39-6.15,6-11.44,16.57-16,29.26A102.64,102.64,0,0,0,41.78,61.5c27,20.29,53.64,23,71.29,24.72l4.32.45c3,.32,5.36.55,7.19.72v-20c-3-.54-6.33-1.24-9.83-2.14C97.3,60.79,84.68,53.7,77.24,44.23Z"/><path class="cls-6" d="M117.3,2.09H10.86A8.58,8.58,0,0,0,2.3,10.64V117.52a8.58,8.58,0,0,0,8.56,8.55H117.3a8.58,8.58,0,0,0,8.56-8.55V10.64A8.58,8.58,0,0,0,117.3,2.09Zm7.28,59.6v2.75h0v53.08a7.29,7.29,0,0,1-7.28,7.27H10.86a7.29,7.29,0,0,1-6.61-4.25,7.1,7.1,0,0,1-.67-3V10.64c0-.09,0-.17,0-.26a7.29,7.29,0,0,1,7.27-7H117.3a7.29,7.29,0,0,1,7.28,7.27Z"/><circle class="cls-7" cx="87.42" cy="86.89" r="35.51"/><path class="cls-8" d="M87.42,124.56a37.67,37.67,0,1,1,37.67-37.67h0A37.7,37.7,0,0,1,87.42,124.56Zm0-71a33.35,33.35,0,1,0,33.35,33.35h0A33.38,33.38,0,0,0,87.42,53.54Z"/><rect class="cls-8" x="80.75" y="77.72" width="29.33" height="29.33" rx="2.99"/><path class="cls-8" d="M79.93,107.16a4.84,4.84,0,0,1-1.11-3.11V80.71A4.86,4.86,0,0,1,79,79.29H67.12a2.92,2.92,0,0,0-2.92,2.92v22.06a2.92,2.92,0,0,0,2.92,2.92H79.4Z"/><path class="cls-8" d="M95.42,59A7.62,7.62,0,1,0,103,66.66v0A7.64,7.64,0,0,0,95.42,59Z"/><path class="cls-8" d="M78.15,61.62a7.29,7.29,0,1,0,7.29,7.29h0A7.31,7.31,0,0,0,78.15,61.62Z"/><circle class="cls-9" cx="26.5" cy="101.66" r="26.5"/><path class="cls-8" d="M44.36,95.57a4.09,4.09,0,0,0-5.78-5.78L21.85,106.53l-7.32-7.32A4.09,4.09,0,0,0,8.76,105h0l11.17,11.18a2.69,2.69,0,0,0,3.8,0l0,0,20.6-20.6Z"/></svg>