<svg id="Layer_1" data-name="Layer 1" xmlns="http://www.w3.org/2000/svg" viewBox="0 0 128.16 128.16"><defs><style>.cls-1{fill:#00aeef;}.cls-2{fill:#f18a00;}.cls-3{opacity:0.9;}.cls-4{fill:#c32a1f;}.cls-5{fill:#fff;}</style></defs><g id="Create_Ribbon" data-name="Create Ribbon"><g id="Population"><rect class="cls-1" x="48.49" y="49.66" width="76.71" height="76.71" rx="7.81"/><path class="cls-2" d="M46.34,126.69a12.76,12.76,0,0,1-2.91-8V57.51a12.25,12.25,0,0,1,.56-3.7H12.82a7.65,7.65,0,0,0-7.65,7.61v57.7a7.66,7.66,0,0,0,7.65,7.65H44.94Z"/><path class="cls-1" d="M86.86.77a19.93,19.93,0,1,0,19.93,19.92h0A19.92,19.92,0,0,0,86.86.77Z"/><path class="cls-2" d="M41.67,7.58A19.09,19.09,0,1,0,60.76,26.67v0A19.09,19.09,0,0,0,41.67,7.58Z"/></g></g><g class="cls-3"><circle class="cls-4" cx="29.47" cy="100.88" r="26.51"/></g><rect class="cls-5" x="24.52" y="79.77" width="9.9" height="27.23" rx="2.48"/><circle class="cls-5" cx="29.47" cy="116.9" r="4.95"/></svg>