<svg id="Layer_1" data-name="Layer 1" xmlns="http://www.w3.org/2000/svg" viewBox="0 0 128.16 128.16"><defs><style>.cls-1{fill:#00aeef;}.cls-2{fill:#62bb46;}.cls-3{fill:#929497;}.cls-4{fill:#f18a00;}</style></defs><g id="IndividualSimulationComparison"><path class="cls-1" d="M124.39,66.77H3.77a2.69,2.69,0,0,1,0-5.38H124.39a2.69,2.69,0,0,1,0,5.38Z"/><path class="cls-1" d="M64.08,127.08a2.69,2.69,0,0,1-2.69-2.69V3.77a2.69,2.69,0,1,1,5.38,0V124.39A2.69,2.69,0,0,1,64.08,127.08Z"/><rect class="cls-2" x="17.99" y="27.15" width="28.58" height="28.58" rx="2.91"/><path class="cls-2" d="M32.28,8.91a7.43,7.43,0,1,0,7.43,7.43A7.45,7.45,0,0,0,32.28,8.91Z"/><rect class="cls-1" x="81.59" y="27.15" width="28.58" height="28.58" rx="2.91"/><path class="cls-1" d="M95.88,8.91a7.43,7.43,0,1,0,7.43,7.43A7.44,7.44,0,0,0,95.88,8.91Z"/><rect class="cls-3" x="17.99" y="90.66" width="28.58" height="28.58" rx="2.91"/><path class="cls-3" d="M32.28,72.43a7.43,7.43,0,1,0,7.43,7.43A7.44,7.44,0,0,0,32.28,72.43Z"/><rect class="cls-4" x="81.59" y="90.66" width="28.58" height="28.58" rx="2.91"/><path class="cls-4" d="M95.88,72.43a7.43,7.43,0,1,0,7.43,7.43A7.43,7.43,0,0,0,95.88,72.43Z"/></g></svg>