<svg id="Layer_1" data-name="Layer 1" xmlns="http://www.w3.org/2000/svg" viewBox="0 0 128.16 128.16"><defs><style>.cls-1{fill:gray;}.cls-2{fill:#f18a00;}.cls-3{fill:#fff;}</style></defs><path class="cls-1" d="M93.62,119.1H8.24V8.72H93.62V15h8.06V8.2c0-4.32-3.12-7.84-7-7.84H7.15c-3.84,0-7,3.52-7,7.84V119.61c0,4.33,3.12,7.85,7,7.85H94.72c3.84,0,7-3.52,7-7.85V78H93.62Z"/><path class="cls-1" d="M38.58,38.08l8.6,2.6a15.78,15.78,0,0,1-2.72,6,11.87,11.87,0,0,1-4.63,3.66,17.16,17.16,0,0,1-7,1.24,20.47,20.47,0,0,1-8.46-1.51,13.42,13.42,0,0,1-5.67-5.29,17.94,17.94,0,0,1-2.38-9.7q0-7.87,4.19-12.11t11.86-4.24c4,0,7.15.81,9.44,2.43a14.24,14.24,0,0,1,5.1,7.45l-8.66,1.93a7.48,7.48,0,0,0-1-2.12,5.77,5.77,0,0,0-2-1.74,5.86,5.86,0,0,0-2.67-.6,5.75,5.75,0,0,0-5.11,2.68q-1.35,2-1.35,6.25,0,5.3,1.61,7.24a5.49,5.49,0,0,0,4.51,2,5.48,5.48,0,0,0,4.25-1.58A9.71,9.71,0,0,0,38.58,38.08Z"/><path class="cls-1" d="M50.24,40.57,59.58,40a7.1,7.1,0,0,0,1.23,3.47,5.18,5.18,0,0,0,4.33,1.93,4.8,4.8,0,0,0,3.25-1,3,3,0,0,0,1.14-2.28,2.92,2.92,0,0,0-1.09-2.21c-.72-.65-2.4-1.27-5-1.84Q57,36.61,54.21,34.2a7.76,7.76,0,0,1-2.78-6.13,8.39,8.39,0,0,1,1.42-4.63A9.44,9.44,0,0,1,57.12,20a19.92,19.92,0,0,1,7.81-1.25q6.09,0,9.28,2.27T78,28.24l-9.26.54a5,5,0,0,0-1.54-3.12,5,5,0,0,0-3.26-1,3.93,3.93,0,0,0-2.58.72,2.24,2.24,0,0,0-.87,1.77,1.76,1.76,0,0,0,.72,1.36,7.71,7.71,0,0,0,3.29,1.17,41.32,41.32,0,0,1,9.22,2.81A9.79,9.79,0,0,1,77.79,36a9,9,0,0,1,1.27,4.7,10.09,10.09,0,0,1-1.7,5.64,10.47,10.47,0,0,1-4.72,3.9A19,19,0,0,1,65,51.62q-8.11,0-11.23-3.12A12.32,12.32,0,0,1,50.24,40.57Z"/><path class="cls-1" d="M80.87,19.31H91.13l7.15,22.86,7.06-22.86h10L103.51,51.08H92.87Z"/><circle class="cls-2" cx="89.99" cy="89.81" r="35.81"/><path class="cls-3" d="M90,127.8a38,38,0,1,1,38-38A38,38,0,0,1,90,127.8Zm0-71.61a33.63,33.63,0,1,0,33.63,33.62A33.66,33.66,0,0,0,90,56.19Z"/><path class="cls-3" d="M86.28,80.56h23.54a3,3,0,0,1,3,3v23.54a3,3,0,0,1-3,3H86.28a3,3,0,0,1-3-3V83.58A3,3,0,0,1,86.28,80.56Z"/><path class="cls-3" d="M82.43,110.26a5,5,0,0,1-1.12-3.14V83.58a5.15,5.15,0,0,1,.21-1.43h-12a2.94,2.94,0,0,0-2.94,2.94v22.25a2.94,2.94,0,0,0,2.94,2.94H81.89Z"/><path class="cls-3" d="M98.05,61.7a7.69,7.69,0,1,0,7.69,7.69A7.69,7.69,0,0,0,98.05,61.7Z"/><path class="cls-3" d="M80.63,64.33A7.36,7.36,0,1,0,88,71.68,7.36,7.36,0,0,0,80.63,64.33Z"/><path class="cls-2" d="M109.69,96.05,99.35,84.15a1.74,1.74,0,0,0-1.3-.61,1.71,1.71,0,0,0-1.29.61L86.42,96.05A1.47,1.47,0,0,0,86,97c0,.41.28.85,1.07.85h4.67v7.5a1.89,1.89,0,0,0,1.88,1.89h8.88a1.89,1.89,0,0,0,1.89-1.89v-7.5H109c.79,0,1.07-.44,1.07-.85A1.51,1.51,0,0,0,109.69,96.05Z"/></svg>