<svg id="Layer_1" data-name="Layer 1" xmlns="http://www.w3.org/2000/svg" viewBox="0 0 128.16 128.16"><defs><style>.cls-1{fill:#f18a00;}.cls-2{fill:#00aeef;}.cls-3{fill:#6d6e70;}.cls-4{opacity:0.9;}.cls-5{fill:#c32a1f;}.cls-6{fill:#fff;}</style></defs><path class="cls-1" d="M11.54,117.65l-3-3,7-7,3,3Zm14.11-14.11-3-3,7.06-7.06,3,3ZM39.76,89.43l-3-3,7.06-7.06,3,3ZM53.87,75.32l-3-3,7-7,3,3ZM68,61.22l-3-3,7-7.05,3,3ZM82.08,47.11l-3-3,7-7.05,3,3ZM96.19,33l-3-3,7-7,3,3ZM110.3,18.89l-3-3,7.06-7.06,3,3Z"/><circle class="cls-2" cx="34.26" cy="46.96" r="5.89"/><circle class="cls-2" cx="65.85" cy="38.31" r="5.89"/><circle class="cls-2" cx="72.89" cy="20.14" r="5.89"/><circle class="cls-2" cx="91.04" cy="16.44" r="5.89"/><circle class="cls-2" cx="52.44" cy="60.37" r="5.89"/><circle class="cls-2" cx="22.48" cy="78.54" r="5.89"/><circle class="cls-2" cx="42.1" cy="105.36" r="5.89"/><circle class="cls-2" cx="71.74" cy="84.44" r="5.89"/><circle class="cls-2" cx="83.88" cy="64.01" r="5.89"/><circle class="cls-2" cx="108.33" cy="71.53" r="5.89"/><circle class="cls-2" cx="106.08" cy="41.06" r="5.89"/><path class="cls-3" d="M117.35,2H10.81a8.66,8.66,0,0,0-8.65,8.65V117.51a8.66,8.66,0,0,0,8.65,8.65H117.35a8.68,8.68,0,0,0,8.65-8.57V10.65A8.66,8.66,0,0,0,117.35,2Zm7.37,59.34v56.25a7.4,7.4,0,0,1-7.37,7.29H10.81a7.38,7.38,0,0,1-7.37-7.37V10.65a7.38,7.38,0,0,1,7.37-7.37H117.35a7.38,7.38,0,0,1,7.37,7.37Z"/><g class="cls-4"><circle class="cls-5" cx="26.51" cy="101.65" r="26.51"/></g><rect class="cls-6" x="21.56" y="80.54" width="9.9" height="27.23" rx="2.48"/><circle class="cls-6" cx="26.51" cy="117.67" r="4.95"/></svg>