<svg id="Layer_1" data-name="Layer 1" xmlns="http://www.w3.org/2000/svg" viewBox="0 0 128.16 128.16"><defs><style>.cls-1{fill:#f18a00;}.cls-2{fill:#00aeef;}.cls-3{fill:#6d6e70;}</style></defs><path class="cls-1" d="M11.8,117.65l-3-3,7.05-7,3,3Zm14.11-14.11-3-3L30,93.51l3,3ZM40,89.43l-3-3L44.1,79.4l3,3ZM54.13,75.32l-3-3,7.05-7,3,3Zm14.1-14.1-3-3,7-7.05,3,3ZM82.34,47.11l-3-3,7-7.05,3,3ZM96.45,33l-3-3,7-7,3,3Zm14.11-14.11-3-3,7.06-7.06,3,3Z"/><circle class="cls-2" cx="34.52" cy="46.96" r="5.89"/><circle class="cls-2" cx="66.11" cy="38.31" r="5.89"/><circle class="cls-2" cx="73.15" cy="20.14" r="5.89"/><circle class="cls-2" cx="91.3" cy="16.44" r="5.89"/><circle class="cls-2" cx="52.7" cy="60.37" r="5.89"/><circle class="cls-2" cx="22.74" cy="78.54" r="5.89"/><circle class="cls-2" cx="42.36" cy="105.36" r="5.89"/><circle class="cls-2" cx="72" cy="84.44" r="5.89"/><circle class="cls-2" cx="84.14" cy="64.01" r="5.89"/><circle class="cls-2" cx="108.59" cy="71.53" r="5.89"/><circle class="cls-2" cx="106.34" cy="41.06" r="5.89"/><path class="cls-3" d="M117.61,2H11.07a8.66,8.66,0,0,0-8.65,8.65V117.51a8.66,8.66,0,0,0,8.65,8.65H117.61a8.68,8.68,0,0,0,8.65-8.57V10.65A8.66,8.66,0,0,0,117.61,2ZM125,61.34v56.25a7.4,7.4,0,0,1-7.37,7.29H11.07a7.38,7.38,0,0,1-7.37-7.37V10.65a7.38,7.38,0,0,1,7.37-7.37H117.61A7.38,7.38,0,0,1,125,10.65Z"/></svg>