<svg id="Layer_1" data-name="Layer 1" xmlns="http://www.w3.org/2000/svg" viewBox="0 0 128.16 128.16"><defs><style>.cls-1{fill:#62bb46;}.cls-2{fill:#f18a00;}.cls-3{fill:#fff;}</style></defs><path class="cls-1" d="M93.74,126.93H6.9c-3.8,0-6.9-3.49-6.9-7.78V8.67C0,4.38,3.1.89,6.9.89H93.74c3.81,0,6.9,3.49,6.9,7.78V119.11C100.64,123.44,97.55,126.93,93.74,126.93ZM8,118.64H92.66V9.18H8Z"/><circle class="cls-2" cx="90.49" cy="89.6" r="35.51"/><path class="cls-3" d="M90.49,127.27A37.67,37.67,0,1,1,128.16,89.6,37.68,37.68,0,0,1,90.49,127.27Zm0-71a33.35,33.35,0,1,0,33.35,33.35h0A33.38,33.38,0,0,0,90.49,56.25Z"/><path class="cls-3" d="M90.33,101.11a12.17,12.17,0,1,1,12.16-12.18v0A12.18,12.18,0,0,1,90.33,101.11Zm0-30.41C77.86,70.67,66,84.8,66,88.92s11.85,18.24,24.32,18.24S114.65,93,114.65,88.92,102.81,70.67,90.33,70.67Zm0,12.16A6.09,6.09,0,0,1,84.25,89a6.08,6.08,0,1,0,6.08-6.09Z"/><path class="cls-1" d="M15.62,19.93h11.7L33.4,30.5l5.92-10.57H50.9L40.2,36.57,51.9,54.29H40l-6.78-11-6.79,11H14.54L26.4,36.38Z"/></svg>