<svg id="Layer_1" data-name="Layer 1" xmlns="http://www.w3.org/2000/svg" viewBox="0 0 128.16 128.16"><defs><style>.cls-1{fill:#00aeef;}.cls-2{fill:none;stroke:#231f20;stroke-linecap:round;stroke-linejoin:round;stroke-width:3.41px;}</style></defs><path class="cls-1" d="M109.78,127.75H19.67c-3.94,0-7.16-3.49-7.16-7.78V9.49c0-4.29,3.22-7.78,7.16-7.78h90.11c4,0,7.16,3.49,7.16,7.78V120C116.94,124.26,113.73,127.75,109.78,127.75Zm-89-8.29h87.85V10H20.8Z"/><path d="M44.45,24.25c3.43-.76,6.81-1.85,7.17-1.85.54,0,.45.77.22,1.85C50,32.82,48.33,41.34,46.7,49.9c-.27,1.4-.36,1.89,0,1.89a13.08,13.08,0,0,0,3.38-2l.5.91c-2.25,2.25-6,4.28-6.67,4.28s-1.4-.5-.77-3.61l1.08-5.23h-.13a27,27,0,0,1-6.27,6.67c-.72.54-3.06,2.17-4.1,2.17s-2.88-1.26-2.88-5A17.07,17.07,0,0,1,36,37.86c1.8-1.62,5.45-3.56,8.16-3.56a13.4,13.4,0,0,1,2.39.18L48,27.32c.4-2,.31-2.26-1.13-2.26H44.45Zm-4,24.66a36.19,36.19,0,0,0,3.38-4.24c.94-1.44,2-5.63,2.39-7.93a7.5,7.5,0,0,0-3.34-.68,5.72,5.72,0,0,0-2.88.68,9.4,9.4,0,0,0-3.43,4.1,19.28,19.28,0,0,0-2,8.2c0,1.9.5,3.07,1.49,3.07S38.59,50.8,40.44,48.91Z"/><path d="M80.1,32.5c-.27-5.23-2.65-6.58-7.25-6.58-8.52,0-14.16,7.8-14.16,16,0,6.58,2.62,11.67,9.24,11.67,4.6,0,7.35-2.52,10.28-7.16l1.13.13c-1,1.94-2.48,5.55-3.56,7.26a32,32,0,0,1-8.16,1.26c-7.44,0-13.12-4.23-13.12-12.75,0-10.91,9.11-17.9,19.56-17.9a29.91,29.91,0,0,1,7.62,1.17c-.13,2.48-.27,4.47-.45,6.81Z"/><path d="M61.61,78.41c3.43-.76,6.81-1.85,7.17-1.85.54,0,.45.77.22,1.85C67.2,87,65.49,95.5,63.86,104.06c-.27,1.4-.36,1.89,0,1.89a13.43,13.43,0,0,0,3.39-2l.49.9c-2.25,2.25-6,4.28-6.67,4.28s-1.4-.5-.77-3.61l1.09-5.23h-.14A27.18,27.18,0,0,1,55,106.94c-.73.55-3.07,2.17-4.11,2.17s-2.88-1.26-2.88-5A17,17,0,0,1,53.18,92c1.81-1.63,5.46-3.57,8.16-3.57a13.4,13.4,0,0,1,2.39.18l1.4-7.16c.4-2,.31-2.26-1.13-2.26H61.61Zm-4,24.66A35.17,35.17,0,0,0,61,98.83c1-1.44,2-5.63,2.39-7.93A7.47,7.47,0,0,0,60,90.22a5.72,5.72,0,0,0-2.88.68A9.47,9.47,0,0,0,53.72,95a19.26,19.26,0,0,0-2,8.2c0,1.9.49,3.07,1.48,3.07S55.75,105,57.6,103.07Z"/><path d="M95.64,79.27c1.18,0,1.45-.27,2.35-1.13h.63c-.36,1.9-.72,5.19-1,7.8l-1.13.14c0-2.26-.27-3.52-.86-4.24s-2-1.08-4.73-1.08H87.85l-4.11,21.32c-.94,4.86-.63,5.18,3.83,5.45l-.22,1H74.41l.23-1c4.19-.27,4.6-.59,5.54-5.45l4.1-21.32h-2c-4,0-5.32.49-6.18,1.35a15.51,15.51,0,0,0-2.39,4H72.57c.76-2.75,1.57-5.64,2.11-7.94h.64c.45,1,.9,1.13,2.11,1.13Z"/><line class="cls-2" x1="31.13" y1="75.69" x2="98.33" y2="55.89"/></svg>