<svg id="Layer_1" data-name="Layer 1" xmlns="http://www.w3.org/2000/svg" viewBox="0 0 128.16 128.16"><defs><style>.cls-1{fill:#00aeef;}.cls-2{fill:none;stroke:#231f20;stroke-linecap:round;stroke-linejoin:round;stroke-width:3.41px;}</style></defs><path class="cls-1" d="M109.78,127.75H19.67c-3.94,0-7.16-3.49-7.16-7.78V9.49c0-4.29,3.22-7.78,7.16-7.78h90.11c4,0,7.16,3.49,7.16,7.78V120C116.94,124.26,113.73,127.75,109.78,127.75Zm-89-8.29h87.85V10H20.8Z"/><path d="M44.45,23.26c3.43-.77,6.81-1.85,7.17-1.85.54,0,.45.77.22,1.85C50,31.82,48.33,40.34,46.7,48.9c-.27,1.4-.36,1.9,0,1.9a13.4,13.4,0,0,0,3.38-2l.5.9c-2.25,2.25-6,4.28-6.67,4.28s-1.4-.49-.77-3.6l1.08-5.23h-.13a27.19,27.19,0,0,1-6.27,6.67c-.72.54-3.06,2.16-4.1,2.16s-2.88-1.26-2.88-5A17.07,17.07,0,0,1,36,36.87c1.8-1.62,5.45-3.56,8.16-3.56a13.4,13.4,0,0,1,2.39.18L48,26.32c.4-2,.31-2.25-1.13-2.25H44.45Zm-4,24.65a35.17,35.17,0,0,0,3.38-4.23c.94-1.45,2-5.64,2.39-7.94a7.65,7.65,0,0,0-3.34-.67,5.83,5.83,0,0,0-2.88.67,9.47,9.47,0,0,0-3.43,4.1,19.32,19.32,0,0,0-2,8.21c0,1.89.5,3.06,1.49,3.06S38.59,49.81,40.44,47.91Z"/><path d="M62.71,24.11l14.15,23.4H77L79,36.06c.86-4.73,1.22-7.21,1.31-8.61s-1-2.12-4-2.3l.18-1H87.41l-.18,1c-2.48.14-3.84.77-4.33,2.3a73.61,73.61,0,0,0-2,8.61L77.54,53.73H76.41L62,29.7h-.09l-2.2,11.77a73,73,0,0,0-1.27,8.47c-.09,1.67,1,2.26,4,2.43l-.18,1H51.35l.18-1c2.48-.13,3.74-.76,4.32-2.34a65,65,0,0,0,2-8.56l1.89-9.74c1.08-5.45.41-6.49-3.56-6.58l.23-1Z"/><path d="M61.61,77.35c3.43-.77,6.81-1.85,7.17-1.85.54,0,.45.77.22,1.85-1.8,8.57-3.51,17.08-5.14,25.65-.27,1.4-.36,1.89,0,1.89a13.57,13.57,0,0,0,3.39-2l.49.9c-2.25,2.26-6,4.29-6.67,4.29s-1.4-.5-.77-3.61l1.09-5.23h-.14A27.18,27.18,0,0,1,55,105.88c-.73.54-3.07,2.17-4.11,2.17s-2.88-1.26-2.88-5A17.07,17.07,0,0,1,53.18,91c1.81-1.62,5.46-3.56,8.16-3.56a13.4,13.4,0,0,1,2.39.18l1.4-7.16c.4-2,.31-2.26-1.13-2.26H61.61ZM57.6,102A35.17,35.17,0,0,0,61,97.77c1-1.44,2-5.63,2.39-7.93A7.47,7.47,0,0,0,60,89.16a5.72,5.72,0,0,0-2.88.68,9.41,9.41,0,0,0-3.43,4.1,19.26,19.26,0,0,0-2,8.2c0,1.9.49,3.07,1.48,3.07S55.75,103.9,57.6,102Z"/><path d="M95.64,78.21c1.18,0,1.45-.27,2.35-1.13h.63c-.36,1.89-.72,5.18-1,7.8L96.5,85c0-2.25-.27-3.51-.86-4.23s-2-1.08-4.73-1.08H87.85L83.74,101c-.94,4.86-.63,5.18,3.83,5.45l-.22,1H74.41l.23-1c4.19-.27,4.6-.59,5.54-5.45l4.1-21.32h-2c-4,0-5.32.49-6.18,1.35a15.59,15.59,0,0,0-2.39,4H72.57c.76-2.75,1.57-5.63,2.11-7.93h.64c.45,1,.9,1.13,2.11,1.13Z"/><line class="cls-2" x1="31.13" y1="74.63" x2="98.33" y2="54.83"/></svg>