<svg id="Layer_1" data-name="Layer 1" xmlns="http://www.w3.org/2000/svg" viewBox="0 0 128.16 128.16"><defs><style>.cls-1{fill:#00aeef;}.cls-2{fill:none;stroke:#231f20;stroke-linecap:round;stroke-linejoin:round;stroke-width:3.41px;}</style></defs><title>ProjectNewConcentration</title><path class="cls-1" d="M109.13,126H19c-4,0-7.16-3.49-7.16-7.78V7.78C11.87,3.49,15.08,0,19,0h90.1c4,0,7.16,3.49,7.16,7.78V118.26C116.29,122.55,113.08,126,109.13,126Zm-89-8.29H108V8.29H20.15Z"/><path d="M43.8,22.54c3.43-.76,6.81-1.85,7.17-1.85.54,0,.45.77.22,1.85-1.8,8.57-3.51,17.09-5.13,25.65-.28,1.4-.37,1.89,0,1.89a13.43,13.43,0,0,0,3.38-2l.49.91c-2.25,2.25-6,4.28-6.67,4.28s-1.4-.5-.77-3.61l1.09-5.23h-.14a27.18,27.18,0,0,1-6.26,6.67c-.73.54-3.07,2.17-4.11,2.17s-2.88-1.26-2.88-5a17.07,17.07,0,0,1,5.18-12.13c1.81-1.62,5.46-3.56,8.16-3.56a13.4,13.4,0,0,1,2.39.18l1.4-7.16c.4-2,.31-2.26-1.13-2.26H43.8Zm-4,24.66A35.17,35.17,0,0,0,43.17,43c.95-1.44,2-5.63,2.39-7.93a7.47,7.47,0,0,0-3.34-.68,5.75,5.75,0,0,0-2.88.68,9.47,9.47,0,0,0-3.43,4.1,19.26,19.26,0,0,0-2,8.2c0,1.9.49,3.07,1.48,3.07S37.94,49.09,39.79,47.2Z"/><path d="M79.46,30.79c-.27-5.23-2.66-6.58-7.26-6.58-8.52,0-14.15,7.8-14.15,16,0,6.58,2.61,11.68,9.24,11.68,4.59,0,7.34-2.53,10.27-7.17l1.13.13c-1,1.94-2.48,5.55-3.56,7.26A32,32,0,0,1,67,53.37c-7.44,0-13.12-4.23-13.12-12.75,0-10.91,9.11-17.9,19.57-17.9A29.89,29.89,0,0,1,81,23.89c-.13,2.48-.27,4.47-.45,6.81Z"/><path d="M61,76.7c3.43-.76,6.81-1.85,7.17-1.85.54,0,.45.77.23,1.85-1.81,8.57-3.52,17.09-5.14,25.65-.27,1.4-.36,1.89,0,1.89a13.43,13.43,0,0,0,3.38-2l.49.9c-2.25,2.25-6,4.28-6.67,4.28s-1.4-.5-.76-3.61l1.08-5.23H60.6a27,27,0,0,1-6.26,6.67c-.72.55-3.07,2.17-4.1,2.17s-2.89-1.26-2.89-5a17,17,0,0,1,5.18-12.12c1.81-1.63,5.46-3.57,8.16-3.57a13.34,13.34,0,0,1,2.39.18l1.4-7.16c.4-2,.31-2.26-1.13-2.26H61Zm-4,24.66a34.22,34.22,0,0,0,3.38-4.24c1-1.44,2-5.63,2.39-7.93a7.42,7.42,0,0,0-3.33-.68,5.76,5.76,0,0,0-2.89.68,9.4,9.4,0,0,0-3.42,4.1,19.13,19.13,0,0,0-2,8.2c0,1.9.49,3.07,1.48,3.07S55.1,103.25,57,101.36Z"/><path d="M95,77.56c1.17,0,1.44-.27,2.34-1.13H98c-.36,1.9-.72,5.19-1,7.8l-1.13.14c0-2.26-.27-3.52-.85-4.24s-2-1.08-4.74-1.08H87.2l-4.1,21.32c-.95,4.86-.63,5.18,3.83,5.45l-.23,1H73.77l.22-1c4.19-.27,4.6-.59,5.55-5.45l4.1-21.32h-2c-4,0-5.32.49-6.18,1.35a15.81,15.81,0,0,0-2.39,4H71.92c.76-2.75,1.58-5.64,2.12-7.94h.63c.45,1,.9,1.13,2.12,1.13Z"/><line class="cls-2" x1="30.48" y1="73.98" x2="97.68" y2="54.18"/></svg>