<svg id="Layer_1" data-name="Layer 1" xmlns="http://www.w3.org/2000/svg" viewBox="0 0 128.16 128.16"><defs><style>.cls-1{fill:#fff;}.cls-2{fill:none;}.cls-3{fill:#00aeef;}.cls-4{isolation:isolate;}.cls-5{fill:#6d6e70;}.cls-6{fill:#f18a00;}</style></defs><rect class="cls-1" x="6.36" y="6.08" width="103.88" height="82.82" rx="6.87"/><path class="cls-2" d="M55.24,84.13h48.12a2.1,2.1,0,0,0,2.1-2.1V13a2.1,2.1,0,0,0-2.1-2.1H13.23a2.1,2.1,0,0,0-2.1,2.1V82a2.1,2.1,0,0,0,2.1,2.1h31l5.5-5.5Z"/><path class="cls-3" d="M103.36,1.3H13.23A11.67,11.67,0,0,0,1.58,13V82A11.67,11.67,0,0,0,13.23,93.68H34.7L23.06,105.32H76.44L64.79,93.68h38.57A11.66,11.66,0,0,0,115,82V13A11.66,11.66,0,0,0,103.36,1.3ZM105.46,82a2.1,2.1,0,0,1-2.1,2.1H13.23a2.1,2.1,0,0,1-2.1-2.1V13a2.1,2.1,0,0,1,2.1-2.1h90.13a2.1,2.1,0,0,1,2.1,2.1Z"/><path class="cls-3" d="M55.58,71h-33A2.76,2.76,0,0,1,20,68.21V22.66a2.77,2.77,0,0,1,2.64-2.84H46l12.23,12v36.4A2.73,2.73,0,0,1,55.59,71Zm-30.16-6H52.74V34.84l-9.23-9H25.42Z"/><path class="cls-3" d="M39,19.82l18.38,19.3H45.55c-4.95,0-6.59-2.68-6.59-5.51Z"/><path class="cls-1" d="M52.74,34.84H47.51c-3.2,0-4.24-1.71-4.24-3.55V25.74Z"/><g class="cls-4"><path class="cls-5" d="M77.42,28.58c0,4.74-3,7.24-6.27,7.24C67.71,35.82,65,33.25,65,29c0-4,2.47-7.1,6.37-7.1S77.42,24.72,77.42,28.58Zm-8.5.28c0,2.37.81,4.07,2.34,4.07s2.22-1.53,2.22-4.11c0-2.29-.62-4.07-2.29-4.07S68.92,26.56,68.92,28.86ZM71.4,45.25l13-23.35h2.81l-13,23.35ZM93.71,38c0,4.7-3,7.2-6.27,7.2s-6.12-2.57-6.12-6.82c0-4,2.47-7.1,6.33-7.1S93.71,34.12,93.71,38Zm-8.46.24c0,2.37.8,4.08,2.3,4.08s2.23-1.54,2.23-4.08c0-2.29-.63-4.07-2.27-4.07S85.25,36,85.25,38.22Z"/></g><circle class="cls-6" cx="88.94" cy="89.22" r="35.48"/><path class="cls-1" d="M88.94,126.86a37.64,37.64,0,1,1,37.64-37.64h0A37.64,37.64,0,0,1,88.94,126.86Zm0-70.92a33.32,33.32,0,1,0,33.32,33.32v0A33.31,33.31,0,0,0,88.94,55.94Z"/><polygon class="cls-1" points="93.94 76.76 85.47 76.76 86.34 67.89 93.1 67.89 93.94 76.76"/><path class="cls-1" d="M111,93.38V86.62L104.83,86a15.9,15.9,0,0,0-1.61-4.09l4.1-5-4.75-4.8-4.87,4a16,16,0,0,0-4-1.8l-.61-6.45H86.34l-.62,6.26a15.73,15.73,0,0,0-4.06,1.57l-5-4.12-4.8,4.76,4,4.84a15.7,15.7,0,0,0-1.83,4l-6.4.63v6.76l6.1.57a15.78,15.78,0,0,0,1.59,4.26l-4,4.88,4.76,4.75,4.63-3.83A15.87,15.87,0,0,0,85,105.17l.6,6.15h6.76l.56-6a15.75,15.75,0,0,0,4.32-1.68l4.83,3.93,4.75-4.75-3.87-4.7A16.09,16.09,0,0,0,104.74,94ZM83.8,95.17a8,8,0,0,1-.21-11.3l.21-.21a8,8,0,1,1,0,11.51Z"/></svg>