<svg id="Layer_1" data-name="Layer 1" xmlns="http://www.w3.org/2000/svg" viewBox="0 0 128.16 128.16"><defs><style>.cls-1{fill:#00aeef;}.cls-2{fill:#f18a00;}.cls-3{fill:#fff;}</style></defs><title>ProjectOpen</title><path class="cls-1" d="M89.48,126H7.16C3.21,126,0,122.55,0,118.26V7.78C0,3.49,3.21,0,7.16,0H97.27c4,0,7.16,3.49,7.16,7.78V111.33C104.43,115.62,93.43,126,89.48,126ZM8.29,117.75H96.14V8.29H8.29Z"/><circle class="cls-2" cx="83.74" cy="83.74" r="41.87"/><path class="cls-3" d="M83.74,128.16a44.42,44.42,0,1,1,44.42-44.42A44.47,44.47,0,0,1,83.74,128.16Zm0-83.74a39.33,39.33,0,1,0,39.33,39.32A39.37,39.37,0,0,0,83.74,44.42Z"/><path class="cls-3" d="M82.69,70.34V61a3.63,3.63,0,0,0-6.21-2.57l-20,19.69a4.08,4.08,0,0,0,0,5.81l20,19.68a3.64,3.64,0,0,0,6.21-2.57V92c10,.25,21,2.06,29.12,14.52v-3.64A32.75,32.75,0,0,0,82.69,70.34Z"/></svg>