<svg id="Layer_1" data-name="Layer 1" xmlns="http://www.w3.org/2000/svg" viewBox="0 0 128.16 128.16"><defs><style>.cls-1{fill:#00aeef;}.cls-2{fill:none;stroke:#231f20;stroke-linecap:round;stroke-linejoin:round;stroke-width:3.41px;}</style></defs><title>ProjectNewAmount</title><path class="cls-1" d="M109.13,126H19c-4,0-7.16-3.49-7.16-7.78V7.78C11.87,3.49,15.08,0,19,0h90.1c4,0,7.16,3.49,7.16,7.78V118.26C116.29,122.55,113.08,126,109.13,126Zm-89-8.29H108V8.29H20.15Z"/><path d="M43.8,22.61c3.43-.77,6.81-1.85,7.17-1.85.54,0,.45.77.22,1.85-1.8,8.56-3.51,17.08-5.13,25.65-.28,1.39-.37,1.89,0,1.89a13.76,13.76,0,0,0,3.38-2l.49.9c-2.25,2.26-6,4.29-6.67,4.29s-1.4-.5-.77-3.61l1.09-5.23h-.14a27.18,27.18,0,0,1-6.26,6.67c-.73.54-3.07,2.17-4.11,2.17s-2.88-1.27-2.88-5a17.07,17.07,0,0,1,5.18-12.13c1.81-1.62,5.46-3.56,8.16-3.56a13.4,13.4,0,0,1,2.39.18l1.4-7.17c.4-2,.31-2.25-1.13-2.25H43.8Zm-4,24.66A35.17,35.17,0,0,0,43.17,43c.95-1.44,2-5.64,2.39-7.93a7.47,7.47,0,0,0-3.34-.68,5.75,5.75,0,0,0-2.88.68,9.41,9.41,0,0,0-3.43,4.1,19.26,19.26,0,0,0-2,8.2c0,1.89.49,3.07,1.48,3.07S37.94,49.16,39.79,47.27Z"/><path d="M62.06,23.47,76.21,46.86h.09l2.07-11.45c.86-4.73,1.22-7.21,1.31-8.61s-1-2.12-4-2.3l.18-1H86.76l-.18,1c-2.48.14-3.83.77-4.33,2.3a73.61,73.61,0,0,0-2,8.61L76.89,53.08H75.76l-14.42-24h-.09L59,40.82a74.71,74.71,0,0,0-1.26,8.47c-.09,1.67,1,2.26,4,2.44l-.18,1H50.7l.18-1c2.48-.14,3.74-.77,4.33-2.35a67,67,0,0,0,2-8.56l1.89-9.74c1.08-5.45.41-6.49-3.56-6.58l.23-1Z"/><path d="M61,76.7c3.43-.76,6.81-1.85,7.17-1.85.54,0,.45.77.23,1.85-1.81,8.57-3.52,17.09-5.14,25.65-.27,1.4-.36,1.89,0,1.89a13.43,13.43,0,0,0,3.38-2l.49.9c-2.25,2.25-6,4.28-6.67,4.28s-1.4-.5-.76-3.61l1.08-5.23H60.6a27,27,0,0,1-6.26,6.67c-.72.55-3.07,2.17-4.1,2.17s-2.89-1.26-2.89-5a17,17,0,0,1,5.18-12.12c1.81-1.63,5.46-3.57,8.16-3.57a13.34,13.34,0,0,1,2.39.18l1.4-7.16c.4-2,.31-2.26-1.13-2.26H61Zm-4,24.66a34.22,34.22,0,0,0,3.38-4.24c1-1.44,2-5.63,2.39-7.93a7.42,7.42,0,0,0-3.33-.68,5.76,5.76,0,0,0-2.89.68,9.4,9.4,0,0,0-3.42,4.1,19.13,19.13,0,0,0-2,8.2c0,1.9.49,3.07,1.48,3.07S55.1,103.25,57,101.36Z"/><path d="M95,77.56c1.17,0,1.44-.27,2.34-1.13H98c-.36,1.9-.72,5.19-1,7.8l-1.13.14c0-2.26-.27-3.52-.85-4.24s-2-1.08-4.74-1.08H87.2l-4.1,21.32c-.95,4.86-.63,5.18,3.83,5.45l-.23,1H73.77l.22-1c4.19-.27,4.6-.59,5.55-5.45l4.1-21.32h-2c-4,0-5.32.49-6.18,1.35a15.81,15.81,0,0,0-2.39,4H71.92c.76-2.75,1.58-5.64,2.12-7.94h.63c.45,1,.9,1.13,2.12,1.13Z"/><line class="cls-2" x1="30.48" y1="73.98" x2="97.68" y2="54.18"/></svg>