<svg id="Layer_1" data-name="Layer 1" xmlns="http://www.w3.org/2000/svg" viewBox="0 0 128.16 128.16"><defs><style>.cls-1{fill:#62bb46;}.cls-2{fill:#f18a00;}.cls-3{fill:#fff;}</style></defs><rect class="cls-1" x="0.59" y="44.1" width="13.33" height="13.33" rx="4.19"/><rect class="cls-1" x="0.59" y="75.95" width="13.33" height="13.33" rx="4.19"/><rect class="cls-1" x="0.59" y="107.6" width="13.33" height="13.33" rx="4.19"/><rect class="cls-1" x="22.67" y="44.1" width="104.63" height="13.33" rx="4.19"/><rect class="cls-1" x="22.67" y="75.95" width="104.63" height="13.33" rx="4.19"/><rect class="cls-1" x="22.67" y="107.6" width="104.63" height="13.33" rx="4.19"/><rect class="cls-1" x="0.59" y="3.17" width="126.71" height="26.26" rx="6.67"/><circle class="cls-2" cx="89.47" cy="86.89" r="35.91"/><path class="cls-3" d="M89.47,125a38.1,38.1,0,1,1,38.1-38.1A38.14,38.14,0,0,1,89.47,125Zm0-71.82A33.73,33.73,0,1,0,123.2,86.89,33.76,33.76,0,0,0,89.47,53.17Z"/><path class="cls-3" d="M82.76,62.74H96.17v9.13H82.76Zm0,13.31H96.17v35H82.76Z"/></svg>