<svg id="Layer_1" data-name="Layer 1" xmlns="http://www.w3.org/2000/svg" viewBox="0 0 128.16 128.16"><defs><style>.cls-1{fill:#00aeef;}.cls-2{fill:#f18a00;}.cls-3{fill:#fff;}.cls-4{fill:#6dbd45;opacity:0.9;isolation:isolate;}</style></defs><g id="Protocol"><path class="cls-1" d="M118.73,63.31A54.44,54.44,0,1,1,64.3,8.87h0A54.42,54.42,0,0,1,118.73,63.3ZM1.5,63.31A62.82,62.82,0,1,0,64.32.5h0A62.82,62.82,0,0,0,1.5,63.31Z"/><path class="cls-1" d="M66.39,18a6.26,6.26,0,0,1,6.27,6.26s0,0,0,0v41.4a6.27,6.27,0,0,1-6.25,6.28H31.84a6.28,6.28,0,0,1,0-12.56H60.11V24.24A6.27,6.27,0,0,1,66.36,18Z"/><circle class="cls-2" cx="89.99" cy="89" r="35.51"/><path class="cls-3" d="M90,126.67A37.67,37.67,0,1,1,127.66,89h0A37.7,37.7,0,0,1,90,126.67Zm0-71A33.35,33.35,0,1,0,123.35,89v0A33.38,33.38,0,0,0,90,55.65Z"/><polygon class="cls-3" points="95 76.5 86.5 76.5 87.38 67.63 94.13 67.63 95 76.5"/><path class="cls-3" d="M112.11,93.13V86.38l-6.28-.62a15.66,15.66,0,0,0-1.57-4.07l4.15-5-4.79-4.78-4.87,4a16,16,0,0,0-4-1.78l-.64-6.48H87.37l-.61,6.29a15.63,15.63,0,0,0-4.07,1.56l-5-4.14-4.79,4.77,4,4.88a15.66,15.66,0,0,0-1.79,4l-6.48.63v6.75l6.29.62a15.83,15.83,0,0,0,1.56,4.08l-4.14,5,4.78,4.78,4.87-4a15.69,15.69,0,0,0,4,1.78l.63,6.47h6.75l.61-6.27a15.93,15.93,0,0,0,4.09-1.57l5,4.14,4.78-4.78-4-4.87a15.57,15.57,0,0,0,1.79-4Zm-27.5,2a8.15,8.15,0,0,1,0-11.53v0a8.15,8.15,0,1,1,0,11.55Z"/></g><circle class="cls-4" cx="27" cy="101.16" r="26.5"/><path class="cls-3" d="M44.86,95.07a4.09,4.09,0,0,0-5.78-5.78L22.35,106,15,98.71a4.09,4.09,0,0,0-5.77,5.79h0l11.17,11.18a2.69,2.69,0,0,0,3.8,0l0,0,20.59-20.6Z"/></svg>