<svg id="Layer_1" data-name="Layer 1" xmlns="http://www.w3.org/2000/svg" viewBox="0 0 128.16 128.16"><defs><style>.cls-1{fill:#00aeef;}.cls-2{fill:#f18a00;}.cls-3{fill:#fff;}.cls-4{opacity:0.9;}.cls-5{fill:#c32a1f;}</style></defs><g id="Protocol"><path class="cls-1" d="M118.73,63.31A54.44,54.44,0,1,1,64.3,8.87h0A54.42,54.42,0,0,1,118.73,63.3ZM1.5,63.31A62.82,62.82,0,1,0,64.32.5h0A62.82,62.82,0,0,0,1.5,63.31Z"/><path class="cls-1" d="M66.39,18a6.26,6.26,0,0,1,6.27,6.26s0,0,0,0v41.4a6.27,6.27,0,0,1-6.25,6.28H31.84a6.28,6.28,0,0,1,0-12.56H60.11V24.24A6.27,6.27,0,0,1,66.36,18Z"/><circle class="cls-2" cx="89.99" cy="89" r="35.51"/><path class="cls-3" d="M90,126.67A37.67,37.67,0,1,1,127.66,89h0A37.7,37.7,0,0,1,90,126.67Zm0-71A33.35,33.35,0,1,0,123.35,89v0A33.38,33.38,0,0,0,90,55.65Z"/><polygon class="cls-3" points="95 76.5 86.5 76.5 87.38 67.63 94.13 67.63 95 76.5"/><path class="cls-3" d="M112.1,93.13V86.38l-6.27-.62a15.66,15.66,0,0,0-1.57-4.07l4.14-5-4.77-4.78-4.88,4a16,16,0,0,0-4-1.78l-.63-6.48H87.38l-.62,6.29a15.63,15.63,0,0,0-4.07,1.56l-5-4.14-4.77,4.77,4,4.88a15.66,15.66,0,0,0-1.79,4l-6.47.63v6.75l6.28.62a15.83,15.83,0,0,0,1.56,4.08l-4.14,5,4.77,4.78,4.88-4a15.69,15.69,0,0,0,4,1.78l.62,6.47h6.75l.62-6.27a15.93,15.93,0,0,0,4.09-1.57l5,4.14,4.77-4.78-4-4.87a15.57,15.57,0,0,0,1.79-4Zm-27.49,2a8.16,8.16,0,0,1,0-11.53l0,0a8.15,8.15,0,1,1,0,11.55Z"/></g><g class="cls-4"><circle class="cls-5" cx="27.01" cy="101.15" r="26.51"/></g><rect class="cls-3" x="22.06" y="80.04" width="9.9" height="27.23" rx="2.48"/><circle class="cls-3" cx="27.01" cy="117.17" r="4.95"/></svg>