<?xml version="1.0" encoding="utf-8"?>
<!-- Generator: Adobe Illustrator 24.3.0, SVG Export Plug-In . SVG Version: 6.00 Build 0)  -->
<svg version="1.1" id="Layer_1" xmlns="http://www.w3.org/2000/svg" xmlns:xlink="http://www.w3.org/1999/xlink" x="0px" y="0px"
	 viewBox="0 0 128.2 128.2" style="enable-background:new 0 0 128.2 128.2;" xml:space="preserve">
<style type="text/css">
	.st0{fill:url(#SVGID_1_);}
	.st1{enable-background:new    ;}
	.st2{fill:#2266B6;}
</style>
<g>
	
		<linearGradient id="SVGID_1_" gradientUnits="userSpaceOnUse" x1="1.6" y1="71.3" x2="126.6" y2="71.3" gradientTransform="matrix(1 0 0 -1 0 130)">
		<stop  offset="0" style="stop-color:#C1C3C6"/>
		<stop  offset="1" style="stop-color:#909197"/>
	</linearGradient>
	<path class="st0" d="M64.1,16.4c-34.5,0-62.5,18.9-62.5,42.3s28,42.3,62.5,42.3s62.5-18.9,62.5-42.3S98.6,16.4,64.1,16.4z
		 M73.2,92.4c-26.5,0-47.9-13.8-47.9-30.9s21.5-30.9,47.9-30.9c26.5,0,47.9,13.8,47.9,30.9S99.7,92.4,73.2,92.4z"/>
	<g class="st1">
		<path class="st2" d="M52.6,111.9V42.6h36.7c6.8,0,12,0.6,15.6,1.7c3.6,1.1,6.5,3.2,8.7,6.3s3.3,6.8,3.3,11.2
			c0,3.8-0.8,7.2-2.5,9.9c-1.7,2.8-4,5.1-6.9,6.8c-1.9,1.1-4.5,2-7.7,2.7c2.6,0.9,4.5,1.7,5.7,2.6c0.8,0.6,2,1.8,3.5,3.6
			s2.6,3.3,3.1,4.3l10.7,20.1h-25L86,90.7c-1.5-2.7-2.8-4.5-4-5.3c-1.6-1.1-3.4-1.6-5.4-1.6h-1.9v28.1
			C74.7,111.9,52.6,111.9,52.6,111.9z M74.7,70.6H84c1,0,2.9-0.3,5.8-0.9c1.5-0.3,2.6-1,3.6-2.2c0.9-1.2,1.4-2.5,1.4-4
			c0-2.2-0.7-4-2.2-5.2s-4.2-1.8-8.2-1.8h-9.7L74.7,70.6L74.7,70.6z"/>
	</g>
</g>
</svg>
