<svg id="Layer_1" data-name="Layer 1" xmlns="http://www.w3.org/2000/svg" viewBox="0 0 128.16 128.16"><defs><style>.cls-1{fill:none;}.cls-2{fill:#00aeef;}.cls-3{fill:#62bb46;}.cls-4{fill:#6d6e70;}</style></defs><path class="cls-1" d="M69,65.92l35.7,27.3L125,89V84.7l-19.22,4.08-36-27.62Q46.69,71,23.63,81.17L3.7,62.81v5.78L22.63,85.93Z"/><path class="cls-1" d="M69.7,85.25c-15.53,8-31,16.25-46.47,24.34L3.7,98.32v19.19a7.38,7.38,0,0,0,7.37,7.37H117.61a7.4,7.4,0,0,0,7.37-7.29v-7.5l-19.26,6.34Z"/><path class="cls-1" d="M69,25.06Q86.8,46.39,104.6,67.64c6.8-2.06,13.59-4.2,20.38-6.3V10.65a7.38,7.38,0,0,0-7.37-7.37H11.07A7.38,7.38,0,0,0,3.7,10.65v35l19.57,9.79Q46.06,40.19,69,25.06Z"/><path class="cls-2" d="M69.74,61.16l36,27.62L125,84.7V61.34c-6.79,2.1-13.58,4.24-20.38,6.3Q86.8,46.39,69,25.06,46,40.18,23.27,55.44L3.7,45.65V62.81L23.63,81.17Q46.69,71,69.74,61.16Z"/><path class="cls-3" d="M104.68,93.22,69,65.92l-46.35,20L3.7,68.59V98.32l19.53,11.27C38.72,101.5,54.17,93.26,69.7,85.25l36,31.18L125,110.09V89Z"/><path class="cls-4" d="M117.61,2H11.07a8.66,8.66,0,0,0-8.65,8.65V117.51a8.66,8.66,0,0,0,8.65,8.65H117.61a8.68,8.68,0,0,0,8.65-8.57V10.65A8.66,8.66,0,0,0,117.61,2ZM125,61.34v56.25a7.4,7.4,0,0,1-7.37,7.29H11.07a7.38,7.38,0,0,1-7.37-7.37V10.65a7.38,7.38,0,0,1,7.37-7.37H117.61A7.38,7.38,0,0,1,125,10.65Z"/></svg>