<svg id="Layer_1" data-name="Layer 1" xmlns="http://www.w3.org/2000/svg" viewBox="0 0 128.16 128.16"><defs><style>.cls-1,.cls-4{fill:#00aeef;}.cls-2{fill:#ccc;stroke:gray;stroke-width:4.57px;}.cls-2,.cls-3,.cls-4,.cls-5{stroke-miterlimit:10;}.cls-3{fill:#ea8b00;}.cls-3,.cls-4,.cls-5{stroke:#404040;stroke-width:1.67px;opacity:0.75;isolation:isolate;}.cls-5{fill:#62bb46;}</style></defs><rect class="cls-1" x="-0.42" y="-0.42" width="13.05" height="13.05"/><rect class="cls-1" x="21.2" y="-0.42" width="102.45" height="13.05"/><rect class="cls-1" x="-0.42" y="37.95" width="13.05" height="13.05"/><rect class="cls-1" x="21.2" y="37.95" width="102.45" height="13.05"/><rect class="cls-1" x="-0.42" y="77.55" width="13.05" height="13.05"/><rect class="cls-1" x="21.2" y="77.55" width="102.45" height="13.05"/><path class="cls-2" d="M33.7,111.58,72,56.82a3.93,3.93,0,0,1,5.55,0l38.31,54.76a3.92,3.92,0,0,1-2.77,6.7H36.48a3.93,3.93,0,0,1-2.78-6.7Z"/><circle class="cls-3" cx="74.79" cy="55.67" r="11.93"/><circle class="cls-4" cx="33.76" cy="115.81" r="11.93"/><circle class="cls-5" cx="115.81" cy="115.81" r="11.93"/></svg>