<svg id="Layer_1" data-name="Layer 1" xmlns="http://www.w3.org/2000/svg" viewBox="0 0 128.16 128.16"><defs><style>.cls-1{fill:#ccc;}.cls-2{fill:gray;}.cls-3{opacity:0.75;isolation:isolate;}.cls-4{fill:#e88b24;}.cls-5{fill:#404040;}.cls-6{fill:#00aeef;}.cls-7{fill:#62bb46;}.cls-8{opacity:0.9;}.cls-9{fill:#c32a1f;}.cls-10{fill:#fff;}</style></defs><path class="cls-1" d="M15.9,94.39,60.82,30.17a4.61,4.61,0,0,1,6.52,0h0l44.92,64.22a4.61,4.61,0,0,1-3.26,7.87H19.16a4.61,4.61,0,0,1-3.26-7.87Z"/><path class="cls-2" d="M19.16,104.94a7.3,7.3,0,0,1-5.34-12.26L58.76,28.44l.17-.17a7.29,7.29,0,0,1,10.3,0l.31.36,44.8,64.05A7.29,7.29,0,0,1,109,104.94Zm43.69-73L18,96.12l-.16.17a1.93,1.93,0,0,0,1.36,3.29H109a1.93,1.93,0,0,0,1.36-3.3l-.3-.35-44.75-64A1.94,1.94,0,0,0,62.85,31.94Z"/><g class="cls-3"><circle class="cls-4" cx="64.08" cy="28.82" r="13.98"/><path class="cls-5" d="M64.08,43.78a15,15,0,1,1,15-15A15,15,0,0,1,64.08,43.78Zm0-28a13,13,0,1,0,13,13A13,13,0,0,0,64.08,15.82Z"/></g><g class="cls-3"><circle class="cls-6" cx="15.97" cy="99.34" r="13.98"/><path class="cls-5" d="M16,114.3a15,15,0,1,1,15-15A15,15,0,0,1,16,114.3Zm0-28a13,13,0,1,0,13,13A13,13,0,0,0,16,86.34Z"/></g><g class="cls-3"><circle class="cls-7" cx="112.19" cy="99.34" r="13.98"/><path class="cls-5" d="M112.19,114.3a15,15,0,1,1,15-15A15,15,0,0,1,112.19,114.3Zm0-28a13,13,0,1,0,13,13A13,13,0,0,0,112.19,86.34Z"/></g><g class="cls-8"><circle class="cls-9" cx="26.51" cy="101.65" r="26.51"/></g><rect class="cls-10" x="21.56" y="80.54" width="9.9" height="27.23" rx="2.48"/><circle class="cls-10" cx="26.51" cy="117.67" r="4.95"/></svg>