<svg id="Layer_1" data-name="Layer 1" xmlns="http://www.w3.org/2000/svg" viewBox="0 0 128.16 128.16"><defs><style>.cls-1{fill:#ccc;}.cls-2{fill:gray;}.cls-3{opacity:0.75;}.cls-3,.cls-8{isolation:isolate;}.cls-4{fill:#e88b24;}.cls-5{fill:#404040;}.cls-6{fill:#00aeef;}.cls-7{fill:#62bb46;}.cls-8{fill:#6dbd45;opacity:0.9;}.cls-9{fill:#fff;}</style></defs><path class="cls-1" d="M15.9,94.39,60.82,30.17a4.61,4.61,0,0,1,6.52,0h0l44.92,64.22a4.61,4.61,0,0,1-3.26,7.87H19.16a4.61,4.61,0,0,1-3.26-7.87Z"/><path class="cls-2" d="M109,104.94H19.16a7.3,7.3,0,0,1-5.34-12.26L58.76,28.44l.16-.17a7.32,7.32,0,0,1,10.32,0l.3.36,44.8,64.05A7.29,7.29,0,0,1,109,104.94ZM19.16,99.58H109a2,2,0,0,0,1.37-.57,1.93,1.93,0,0,0,0-2.72l-.31-.36-44.75-64a1.93,1.93,0,0,0-2.46,0L18,96.12l-.17.17a1.93,1.93,0,0,0,1.37,3.29Z"/><g class="cls-3"><circle class="cls-4" cx="64.08" cy="28.82" r="13.98"/><path class="cls-5" d="M64.08,43.78a15,15,0,1,1,15-15A15,15,0,0,1,64.08,43.78Zm0-28a13,13,0,1,0,13,13A13,13,0,0,0,64.08,15.82Z"/></g><g class="cls-3"><circle class="cls-6" cx="15.97" cy="99.34" r="13.98"/><path class="cls-5" d="M16,114.3a15,15,0,1,1,15-15A15,15,0,0,1,16,114.3Zm0-28a13,13,0,1,0,13,13A13,13,0,0,0,16,86.34Z"/></g><g class="cls-3"><circle class="cls-7" cx="112.19" cy="99.34" r="13.98"/><path class="cls-5" d="M112.19,114.3a15,15,0,1,1,15-15A15,15,0,0,1,112.19,114.3Zm0-28a13,13,0,1,0,13,13A13,13,0,0,0,112.19,86.34Z"/></g><circle class="cls-8" cx="26.5" cy="101.66" r="26.5"/><path class="cls-9" d="M44.36,95.57a4.09,4.09,0,0,0-5.78-5.78L21.85,106.53l-7.32-7.32A4.09,4.09,0,0,0,8.76,105h0l11.17,11.18a2.69,2.69,0,0,0,3.8,0l0,0,20.6-20.6Z"/></svg>