<svg id="Layer_1" data-name="Layer 1" xmlns="http://www.w3.org/2000/svg" viewBox="0 0 128.16 128.16"><defs><style>.cls-1{fill:#62bb46;fill-rule:evenodd;}.cls-2{fill:#6d6e70;}.cls-3{fill:gray;}.cls-4{fill:#f18a00;}.cls-5{fill:#fff;}</style></defs><path class="cls-1" d="M29.43,42.75a2.9,2.9,0,0,0,4.08,0L45.73,30.52a2.88,2.88,0,0,0-4.07-4.07L31.47,36.63l-6.11-6.11a2.88,2.88,0,0,0-4.07,4.08Zm4.08,16.58A25.93,25.93,0,1,0,7.58,33.4,25.93,25.93,0,0,0,33.51,59.33Z"/><g id="Scatter"><g id="Simulation"><path class="cls-2" d="M117.3,126.07H10.86a8.57,8.57,0,0,1-8.56-8.55V10.64a8.57,8.57,0,0,1,8.56-8.55H117.3a8.57,8.57,0,0,1,8.56,8.55V117.52A8.57,8.57,0,0,1,117.3,126.07ZM10.86,3.37a7.28,7.28,0,0,0-7.28,7.27V117.52a7.28,7.28,0,0,0,7.28,7.27H117.3a7.28,7.28,0,0,0,7.28-7.27V10.64a7.28,7.28,0,0,0-7.28-7.27Z"/></g></g><path class="cls-3" d="M94.65,15.47A17.93,17.93,0,1,1,76.72,33.4,18,18,0,0,1,94.65,15.47m0-8A25.93,25.93,0,1,0,120.58,33.4,25.93,25.93,0,0,0,94.65,7.47Z"/><path class="cls-3" d="M33.51,76.83A17.93,17.93,0,1,1,15.58,94.76,17.95,17.95,0,0,1,33.51,76.83m0-8A25.93,25.93,0,1,0,59.44,94.76,25.93,25.93,0,0,0,33.51,68.83Z"/><circle class="cls-4" cx="90.49" cy="90.49" r="35.51"/><path class="cls-5" d="M90.49,52.82A37.67,37.67,0,1,1,52.82,90.49,37.71,37.71,0,0,1,90.49,52.82Zm0,71A33.35,33.35,0,1,0,57.14,90.49,33.39,33.39,0,0,0,90.49,123.84Z"/><path class="cls-5" d="M108.59,77.41A22,22,0,0,0,68.84,86H80.69a10.48,10.48,0,0,1,19.48-.16l-4,4h16.21V73.6Z"/><path class="cls-5" d="M79.77,89.81H68.34V106l3.93-3.92a22,22,0,0,0,39.83-8.46H100.24a10.49,10.49,0,0,1-19.54,0l3.85-3.84H79.77Z"/></svg>