<svg id="Layer_1" data-name="Layer 1" xmlns="http://www.w3.org/2000/svg" viewBox="0 0 128.16 128.16"><defs><style>.cls-1{fill:#00aeef;}.cls-2{fill:gray;stroke:gray;stroke-miterlimit:10;stroke-width:6.27px;}.cls-3{fill:#231f20;}</style></defs><title>Rename</title><path class="cls-1" d="M115.41,92.48H12.75A12.84,12.84,0,0,1-.07,79.65V48.51A12.84,12.84,0,0,1,12.75,35.68H115.41a12.84,12.84,0,0,1,12.82,12.83V79.65A12.84,12.84,0,0,1,115.41,92.48ZM12.75,44.83a3.67,3.67,0,0,0-3.67,3.68V79.65a3.67,3.67,0,0,0,3.67,3.68H115.41a3.67,3.67,0,0,0,3.67-3.68V48.51a3.67,3.67,0,0,0-3.67-3.68Z"/><path class="cls-2" d="M60.58,52.33V75.24h-40V52.33Z"/><path class="cls-3" d="M60.78,27.21H78v73.73H60.78v9.28h45.93v-9.28H90.63V27.21h16.08V17.94H60.78Z"/></svg>