<svg id="Layer_1" data-name="Layer 1" xmlns="http://www.w3.org/2000/svg" viewBox="0 0 128.16 128.16"><defs><style>.cls-1{fill:#00aeef;}.cls-2{fill:#f18a00;}.cls-3{fill:#6d6e70;}.cls-4{fill:#62bb46;opacity:0.9;isolation:isolate;}.cls-5{fill:#fff;}</style></defs><path class="cls-1" d="M100.43,103.81V83.34H89.6v9.71H82.76V66.5H73.92v-56H63.08V27.45H54.24V99.74H47.4V88H36.56v15.77H27.73v6H18.89v9.44h90.38V103.81Zm-72.7,13.42H20.89v-5.44h6.84Zm8.83,0H29.73V105.81h6.83Zm8.84,0H38.56V90H45.4v27.19Zm8.84,0H47.4V101.74h6.84Zm8.84,0H56.24V29.45h6.84Zm8.84,0H65.08V12.53h6.84v104.7Zm8.84,0H73.92V68.5h6.84v48.73Zm8.84,0H82.76V95.05H89.6Zm8.83,0H91.6V85.34h6.83v31.89Zm8.84,0h-6.84V105.81h6.84Z"/><path class="cls-2" d="M14.3,119.35a11.65,11.65,0,0,1-1.86-.13l.35-2c.05,0,4.46.73,10.51-2.27,5.63-2.78,13.89-9.45,21.19-25.36A182.15,182.15,0,0,0,55.82,57.26c2.37-8.95,3.67-13.89,9.26-13.89s7,6.39,8.83,15.24A109.72,109.72,0,0,0,79,77.31q1.32,3.33,2.47,6.3c5.18,13.28,8.31,21.3,14.12,25.83,6.63,5.19,20.66,7.89,20.8,7.91l-.37,2c-.59-.12-14.64-2.82-21.66-8.3C88.16,106.15,85,97.94,79.65,84.33c-.78-2-1.59-4.07-2.47-6.29A110.16,110.16,0,0,1,72,59c-1.85-9-3-13.64-6.87-13.64s-4.84,3-7.33,12.41A187.47,187.47,0,0,1,46.31,90.46C34.2,116.84,19.46,119.35,14.3,119.35Z"/><path class="cls-3" d="M117.27,1.45H10.73a8.66,8.66,0,0,0-8.65,8.64V117a8.65,8.65,0,0,0,8.65,8.64H117.27a8.68,8.68,0,0,0,8.65-8.56V10.09A8.66,8.66,0,0,0,117.27,1.45Zm7.37,59.33V117a7.4,7.4,0,0,1-7.37,7.29H10.73A7.37,7.37,0,0,1,3.36,117V10.09a7.37,7.37,0,0,1,7.37-7.36H117.27a7.37,7.37,0,0,1,7.37,7.36Z"/><circle class="cls-4" cx="29.72" cy="100.89" r="26.5"/><path class="cls-5" d="M47.58,94.8A4.09,4.09,0,0,0,41.8,89L25.07,105.76l-7.32-7.32A4.09,4.09,0,0,0,12,104.23h0l11.17,11.18a2.7,2.7,0,0,0,3.81,0v0l20.6-20.6Z"/></svg>