<svg id="Layer_1" data-name="Layer 1" xmlns="http://www.w3.org/2000/svg" viewBox="0 0 128.16 128.16"><defs><style>.cls-1{fill:#f18a00;}.cls-2{fill:#00aeef;}.cls-3{fill:#6d6e70;}.cls-4{opacity:0.9;}.cls-5{fill:#c32a1f;}.cls-6{fill:#fff;}</style></defs><rect class="cls-1" x="5.17" y="62.78" width="9.98" height="4.21"/><rect class="cls-1" x="23" y="62.78" width="9.98" height="4.21"/><rect class="cls-1" x="40.84" y="62.78" width="9.98" height="4.21"/><rect class="cls-1" x="58.67" y="62.78" width="9.98" height="4.21"/><rect class="cls-1" x="76.5" y="62.78" width="9.98" height="4.21"/><rect class="cls-1" x="94.34" y="62.78" width="9.98" height="4.21"/><rect class="cls-1" x="112.17" y="62.78" width="9.98" height="4.21"/><circle class="cls-2" cx="54.43" cy="31.47" r="5.89"/><circle class="cls-2" cx="111.27" cy="23.28" r="5.89"/><circle class="cls-2" cx="82.39" cy="47.62" r="5.89"/><circle class="cls-2" cx="23.88" cy="45.28" r="5.89"/><circle class="cls-2" cx="23.88" cy="97.28" r="5.89"/><circle class="cls-2" cx="54.43" cy="84.32" r="5.89"/><circle class="cls-2" cx="90" cy="102.38" r="5.89"/><circle class="cls-2" cx="109.37" cy="77.17" r="5.89"/><path class="cls-3" d="M117.27,1.45H10.73a8.66,8.66,0,0,0-8.65,8.64V117a8.65,8.65,0,0,0,8.65,8.64H117.27a8.68,8.68,0,0,0,8.65-8.56V10.09A8.66,8.66,0,0,0,117.27,1.45Zm7.37,59.33V117a7.4,7.4,0,0,1-7.37,7.29H10.73A7.37,7.37,0,0,1,3.36,117V10.09a7.37,7.37,0,0,1,7.37-7.36H117.27a7.37,7.37,0,0,1,7.37,7.36Z"/><g class="cls-4"><circle class="cls-5" cx="29.73" cy="100.88" r="26.51"/></g><rect class="cls-6" x="24.78" y="79.77" width="9.9" height="27.23" rx="2.48"/><circle class="cls-6" cx="29.73" cy="116.9" r="4.95"/></svg>