<svg id="Layer_1" data-name="Layer 1" xmlns="http://www.w3.org/2000/svg" viewBox="0 0 128.16 128.16"><defs><style>.cls-1{fill:gray;}.cls-2{fill:#f18a00;}.cls-3{fill:#fff;}.cls-4{isolation:isolate;}</style></defs><g id="Population_Simulation_Import_Ribbon" data-name="Population Simulation Import Ribbon"><path class="cls-1" d="M93.53,119.13H8.42V9H93.53v6.28h8V8.51A7.4,7.4,0,0,0,94.66.71H7.33a7.41,7.41,0,0,0-7,7.8V119.65a7.41,7.41,0,0,0,7,7.8H94.66a7.4,7.4,0,0,0,6.91-7.8V78.1h-8Z"/><circle class="cls-2" cx="89.91" cy="89.56" r="35.72"/><path class="cls-3" d="M89.91,127.45A37.89,37.89,0,1,1,127.8,89.56h0A37.88,37.88,0,0,1,89.91,127.45Zm0-71.39A33.55,33.55,0,1,0,123.46,89.6v0A33.55,33.55,0,0,0,89.91,56.06Z"/><path class="cls-3" d="M109.54,85.1h-8.41V71.58a3.38,3.38,0,0,0-3.38-3.38h-16a3.38,3.38,0,0,0-3.37,3.38V85.1H70c-1.45,0-2,.8-2,1.53a2.87,2.87,0,0,0,.72,1.89l18.67,21.23a3.08,3.08,0,0,0,2.33,1.13,3,3,0,0,0,2.33-1.13l18.62-21.4a2.61,2.61,0,0,0,.77-1.72C111.47,85.9,111,85.1,109.54,85.1Z"/><g class="cls-4"><path class="cls-1" d="M37.81,39.3l6.2,2A13.9,13.9,0,0,1,39.27,49a13.5,13.5,0,0,1-8.41,2.52,13.63,13.63,0,0,1-10.37-4.31c-2.71-2.88-4.07-6.8-4.07-11.79q0-7.91,4.09-12.28a14,14,0,0,1,10.74-4.37,13.18,13.18,0,0,1,9.44,3.43A12.54,12.54,0,0,1,43.93,28L37.6,29.52a6.56,6.56,0,0,0-6.68-5.32,7.21,7.21,0,0,0-5.71,2.53c-1.47,1.69-2.2,4.41-2.2,8.19,0,4,.73,6.85,2.16,8.55A7,7,0,0,0,30.79,46a6.43,6.43,0,0,0,4.39-1.62A9.42,9.42,0,0,0,37.81,39.3Z"/><path class="cls-1" d="M47.88,40.64,54.1,40a7.67,7.67,0,0,0,2.28,4.6A6.9,6.9,0,0,0,61,46.11a7.1,7.1,0,0,0,4.65-1.31,3.87,3.87,0,0,0,1.57-3.06,2.88,2.88,0,0,0-.66-1.91,5.26,5.26,0,0,0-2.3-1.37q-1.12-.39-5.12-1.38c-3.43-.85-5.83-1.9-7.22-3.13A8.27,8.27,0,0,1,49,27.57a8.07,8.07,0,0,1,1.37-4.52,8.5,8.5,0,0,1,4-3.21,15.74,15.74,0,0,1,6.23-1.1q6,0,9,2.61a9.22,9.22,0,0,1,3.17,7l-6.4.28a5.4,5.4,0,0,0-1.76-3.51,6.46,6.46,0,0,0-4-1.07,7.31,7.31,0,0,0-4.36,1.14,2.31,2.31,0,0,0-1,2,2.43,2.43,0,0,0,1,1.92c.81.68,2.77,1.38,5.88,2.12a30.49,30.49,0,0,1,6.9,2.28,8.93,8.93,0,0,1,3.5,3.22,9.42,9.42,0,0,1,1.26,5,9.29,9.29,0,0,1-1.51,5.1,9,9,0,0,1-4.28,3.53A17.93,17.93,0,0,1,61,51.51c-4,0-7.08-.93-9.22-2.78S48.3,44.18,47.88,40.64Z"/><path class="cls-1" d="M87.09,51,75.77,19.28h6.94l8,23.43,7.76-23.43h6.78L93.92,51Z"/></g></g></svg>