<svg id="Layer_1" data-name="Layer 1" xmlns="http://www.w3.org/2000/svg" viewBox="0 0 128.16 128.16"><defs><style>.cls-1,.cls-4{fill:gray;}.cls-2{fill:#f18a00;}.cls-3{fill:none;stroke:#f18a00;stroke-width:4px;}.cls-3,.cls-4{stroke-miterlimit:10;}.cls-4{stroke:gray;stroke-width:2.74px;}</style></defs><title>SaveAs</title><path class="cls-1" d="M115.53,111.2a4.65,4.65,0,1,1,4.64-4.65A4.65,4.65,0,0,1,115.53,111.2Zm-11.62,0a4.65,4.65,0,1,1,4.64-4.65A4.65,4.65,0,0,1,103.91,111.2Zm-11.62,0a4.65,4.65,0,1,1,4.65-4.65A4.65,4.65,0,0,1,92.29,111.2Zm32-21.26H3.84a3.41,3.41,0,0,0-3.4,3.4v26.43a3.41,3.41,0,0,0,3.4,3.4H124.32a3.41,3.41,0,0,0,3.4-3.4V93.34A3.41,3.41,0,0,0,124.32,89.94Z"/><path class="cls-2" d="M104.56,66.1c0-1.39-1-2.88-3.64-2.88H26.52c-2.69,0-3.65,1.49-3.65,2.88a5,5,0,0,0,1.45,3.22l35,40.29a5.66,5.66,0,0,0,8.78,0l35-40.29A5,5,0,0,0,104.56,66.1Z"/><rect class="cls-2" x="42.3" y="31.41" width="42.83" height="42.83" rx="6.39" ry="6.39"/><rect class="cls-3" x="17.83" y="4.48" width="92.5" height="20.83" rx="3.61" ry="3.61"/><path class="cls-4" d="M25.67,9.76v10h-.81v-10Z"/></svg>