<svg id="Layer_1" data-name="Layer 1" xmlns="http://www.w3.org/2000/svg" viewBox="0 0 128.16 128.16"><defs><style>.cls-1{fill:gray;}.cls-2{fill:#f18a00;}</style></defs><title>Save</title><path class="cls-1" d="M116,111.2a4.65,4.65,0,1,1,4.64-4.65A4.65,4.65,0,0,1,116,111.2Zm-11.62,0a4.65,4.65,0,1,1,4.64-4.65A4.64,4.64,0,0,1,104.36,111.2Zm-11.62,0a4.65,4.65,0,1,1,4.64-4.65A4.65,4.65,0,0,1,92.74,111.2Zm32-21.26H4.29a3.4,3.4,0,0,0-3.4,3.4v26.43a3.4,3.4,0,0,0,3.4,3.4H124.76a3.4,3.4,0,0,0,3.4-3.4V93.34A3.4,3.4,0,0,0,124.76,89.94Z"/><path class="cls-2" d="M105,39.68c0-1.39-1-2.88-3.65-2.88H27c-2.68,0-3.64,1.49-3.64,2.88a5,5,0,0,0,1.45,3.22l35,40.29a5.65,5.65,0,0,0,8.77,0l35-40.29A5,5,0,0,0,105,39.68Z"/><rect class="cls-2" x="42.75" y="4.99" width="42.83" height="42.83" rx="6.39" ry="6.39"/></svg>