<svg id="Layer_1" data-name="Layer 1" xmlns="http://www.w3.org/2000/svg" viewBox="0 0 128.16 128.16"><defs><style>.cls-1{fill:#f18a00;}.cls-2{fill:#00aeef;}</style></defs><path class="cls-1" d="M30.35,35.31l5.26-4.94a2.07,2.07,0,0,0,.07-2.93.46.46,0,0,0-.07-.07l-12-12.06a2.09,2.09,0,0,1-.06-2.88l6.34-6.95A2.08,2.08,0,0,0,28.33,2H4.08A2.08,2.08,0,0,0,2,4.08V28.33a2.08,2.08,0,0,0,3.48,1.53l7-6.37a2.09,2.09,0,0,1,2.85,0l12.15,11.8A2.08,2.08,0,0,0,30.35,35.31Z"/><path class="cls-1" d="M96.93,5.52l6.61,6.91a2.08,2.08,0,0,1,0,2.91L91.41,27.43a2.08,2.08,0,0,0,0,2.94l4.87,4.87a2.08,2.08,0,0,0,2.89,0L112.34,23a2.09,2.09,0,0,1,2.82,0l7.52,6.89a2.08,2.08,0,0,0,3.48-1.53V4.08A2.08,2.08,0,0,0,124.08,2H98.43a2.08,2.08,0,0,0-1.5,3.52Z"/><path class="cls-1" d="M97.8,91.31l-5.32,5a2.07,2.07,0,0,0-.1,2.91l12.33,13.17a2.07,2.07,0,0,1,.05,2.76l-6.66,7.61a2.06,2.06,0,0,0,1.55,3.41H124.1a2.06,2.06,0,0,0,2.06-2.06V98.38a2.06,2.06,0,0,0-3.48-1.49l-7,6.67a2.05,2.05,0,0,1-2.87,0L100.66,91.35A2.06,2.06,0,0,0,97.8,91.31Z"/><path class="cls-1" d="M28.88,91.42l-13,12.19a2.15,2.15,0,0,1-2.9,0L5.59,97.22a2.17,2.17,0,0,0-3.06.22A2.15,2.15,0,0,0,2,98.85V124a2.17,2.17,0,0,0,2.17,2.17H29.68a2.17,2.17,0,0,0,1.59-3.63l-6.68-7.29a2.16,2.16,0,0,1,0-3L36.78,99.7a2.16,2.16,0,0,0,0-3L31.9,91.5A2.16,2.16,0,0,0,28.88,91.42Z"/><path class="cls-2" d="M89.33,58.78v10.7H38.83V58.78ZM58.18,37.33a8.36,8.36,0,0,1,5.95-2.45,8,8,0,0,1,3.2.65A8.33,8.33,0,0,1,70,37.33,9.26,9.26,0,0,1,71.83,40a8.05,8.05,0,0,1,.7,3.35,7.24,7.24,0,0,1-.7,3.1,10.7,10.7,0,0,1-1.8,2.7,8.27,8.27,0,0,1-2.6,1.9,7.36,7.36,0,0,1-3.2.7,8.54,8.54,0,0,1-3.35-.65,8.35,8.35,0,0,1-2.7-1.8,9.27,9.27,0,0,1-1.85-2.7,7.76,7.76,0,0,1-.7-3.25A8.06,8.06,0,0,1,58.18,37.33ZM56.33,81.58a9.37,9.37,0,0,1,1.85-2.65,8.44,8.44,0,0,1,5.95-2.45,8,8,0,0,1,3.2.65A8.33,8.33,0,0,1,70,78.93a9.37,9.37,0,0,1,1.85,2.65,7.65,7.65,0,0,1,.7,3.3,7.1,7.1,0,0,1-.7,3,10.7,10.7,0,0,1-1.8,2.7,8.91,8.91,0,0,1-2.6,2,7.1,7.1,0,0,1-3.2.75,8.05,8.05,0,0,1-3.35-.7A8.94,8.94,0,0,1,56.33,88a7.46,7.46,0,0,1-.7-3.15A7.69,7.69,0,0,1,56.33,81.58Z"/></svg>