<svg id="Layer_1" data-name="Layer 1" xmlns="http://www.w3.org/2000/svg" viewBox="0 0 128.16 128.16"><defs><style>.cls-1{fill:#6d6e70;}.cls-2{fill:#00aeef;}.cls-3,.cls-5{fill:#62bb46;}.cls-4{fill:#f18a00;}.cls-5{opacity:0.9;isolation:isolate;}.cls-6{fill:#fff;}</style></defs><g id="Population_Simulation_Analyses" data-name="Population Simulation Analyses"><g id="Scatter"><g id="Simulation"><path class="cls-1" d="M117.29,126.08H10.87a8.64,8.64,0,0,1-8.63-8.63V10.71a8.64,8.64,0,0,1,8.63-8.63H117.29a8.64,8.64,0,0,1,8.63,8.63V117.53A8.66,8.66,0,0,1,117.29,126.08ZM10.87,3.36a7.36,7.36,0,0,0-7.35,7.35V117.45a7.36,7.36,0,0,0,7.35,7.35H117.29a7.38,7.38,0,0,0,7.35-7.28V10.71a7.36,7.36,0,0,0-7.35-7.35Z"/></g><circle class="cls-2" cx="22.23" cy="50.01" r="12.95"/><circle class="cls-3" cx="99.9" cy="31.66" r="12.95"/><path class="cls-2" d="M64.72,55.21a7.76,7.76,0,1,1-.49,0h.49m0-5.2a13,13,0,1,0,13,13v0A13,13,0,0,0,64.76,50Z"/><path class="cls-3" d="M43.85,17.43a7.8,7.8,0,1,1-7.75,8,8,8,0,0,1,7.75-7.8m0-5.2A13,13,0,1,0,56.73,25.54c0-.1,0-.21,0-.31a13,13,0,0,0-12.91-13h-.08Z"/><circle class="cls-3" cx="41.73" cy="104.77" r="12.95"/><circle class="cls-4" cx="95.9" cy="98.82" r="12.95"/></g></g><circle class="cls-5" cx="29.72" cy="100.89" r="26.5"/><path class="cls-6" d="M47.58,94.8A4.09,4.09,0,0,0,41.8,89L25.07,105.76l-7.32-7.32A4.09,4.09,0,0,0,12,104.23h0l11.17,11.18a2.7,2.7,0,0,0,3.81,0v0l20.6-20.6Z"/></svg>