<svg id="Layer_1" data-name="Layer 1" xmlns="http://www.w3.org/2000/svg" xmlns:xlink="http://www.w3.org/1999/xlink" viewBox="0 0 128.16 128.16"><defs><style>.cls-1,.cls-7{fill:#fcc900;}.cls-2{opacity:0.8;fill:url(#linear-gradient);}.cls-3{fill:#62bb46;}.cls-4{fill:#f18a00;}.cls-5,.cls-6{fill:#fff;}.cls-6{fill-rule:evenodd;}.cls-7{stroke:gray;stroke-linecap:square;stroke-linejoin:bevel;stroke-width:1.63px;opacity:0.34;}</style><linearGradient id="linear-gradient" x1="6.91" y1="57.13" x2="100.91" y2="57.13" gradientUnits="userSpaceOnUse"><stop offset="0.54" stop-color="#fff"/><stop offset="1" stop-color="#fff" stop-opacity="0"/></linearGradient></defs><polygon class="cls-1" points="6.91 0.86 90.69 5.12 90.69 113.41 6.91 94.19 6.91 0.86"/><polygon class="cls-1" points="90.69 69.24 100.91 71.02 100.91 109.27 90.69 107.49 90.69 69.24"/><path class="cls-2" d="M6.91.86,90.69,5.12V113.41L6.91,94.19ZM90.69,107.49l10.22,1.78V71L90.69,69.24Z"/><path class="cls-3" d="M26.28,55l-4-.35A3.73,3.73,0,0,1,19,51V47A3,3,0,0,1,22.32,44l4,.35A3.73,3.73,0,0,1,29.63,48v4A3,3,0,0,1,26.28,55Z"/><path class="cls-3" d="M26.28,80.46l-4-.35A3.73,3.73,0,0,1,19,76.47v-4a3,3,0,0,1,3.35-3.06l4,.35a3.73,3.73,0,0,1,3.35,3.64v4A3,3,0,0,1,26.28,80.46Z"/><path class="cls-3" d="M26.28,105.78l-4-.35A3.73,3.73,0,0,1,19,101.79v-4a3,3,0,0,1,3.35-3.06l4,.35a3.73,3.73,0,0,1,3.35,3.64v4A3,3,0,0,1,26.28,105.78Z"/><path class="cls-3" d="M117,62.92,40,56.19a3.74,3.74,0,0,1-3.35-3.65v-4A3,3,0,0,1,40,45.52l77,6.74a3.73,3.73,0,0,1,3.35,3.64v4A3,3,0,0,1,117,62.92Z"/><path class="cls-3" d="M117,88.4,40,81.66A3.73,3.73,0,0,1,36.63,78v-4A3,3,0,0,1,40,71l77,6.73a3.74,3.74,0,0,1,3.35,3.65v4A3,3,0,0,1,117,88.4Z"/><path class="cls-3" d="M117,113.72,40,107a3.73,3.73,0,0,1-3.35-3.64v-4A3,3,0,0,1,40,96.32l77,6.73a3.74,3.74,0,0,1,3.35,3.65v4A3,3,0,0,1,117,113.72Z"/><path class="cls-3" d="M115,40.35,24.3,32.41A5.94,5.94,0,0,1,19,26.61V16.27A4.82,4.82,0,0,1,24.3,11.4L115,19.34a5.94,5.94,0,0,1,5.34,5.8V35.48A4.81,4.81,0,0,1,115,40.35Z"/><ellipse class="cls-4" cx="90.78" cy="85.45" rx="27.19" ry="29.68" transform="translate(-33.89 86.5) rotate(-43.75)"/><path class="cls-5" d="M90.78,115.59c-16.61-1.46-30.13-16.16-30.13-32.78S74.17,53.86,90.78,55.32s30.14,16.15,30.14,32.77S107.4,117,90.78,115.59Zm0-56.82C76.07,57.49,64.1,68.41,64.1,83.12s12,27.72,26.68,29,26.68-9.63,26.68-24.35S105.49,60.06,90.78,58.77Z"/><path class="cls-6" d="M111.69,74.68,93.08,73.05a9.32,9.32,0,0,0-7.85-6.26,7.5,7.5,0,0,0-7.84,4.89L69.92,71a1.28,1.28,0,0,0-1.42,1.27v2.79a1.56,1.56,0,0,0,1.42,1.51l7.47.66a9.29,9.29,0,0,0,7.84,6.25,7.49,7.49,0,0,0,7.85-4.88l18.61,1.63A1.24,1.24,0,0,0,113.06,79V76.19A1.53,1.53,0,0,0,111.69,74.68Z"/><path class="cls-6" d="M69.87,96.22l18.62,1.63a9.32,9.32,0,0,0,7.84,6.26,7.51,7.51,0,0,0,7.85-4.88l7.47.65a1.27,1.27,0,0,0,1.41-1.27V95.83a1.57,1.57,0,0,0-1.41-1.52l-7.48-.65a9.32,9.32,0,0,0-7.84-6.26,7.49,7.49,0,0,0-7.84,4.88L69.87,90.65a1.25,1.25,0,0,0-1.37,1.28v2.78A1.52,1.52,0,0,0,69.87,96.22Z"/><polygon class="cls-1" points="6.91 0.86 37.21 20.76 37.21 118.74 37.21 127.3 6.91 98.84 6.91 0.86"/><polyline class="cls-7" points="8.37 1.81 37.21 20.76 37.21 118.74 37.21 127.3 7.82 99.88"/></svg>