<svg id="Layer_1" data-name="Layer 1" xmlns="http://www.w3.org/2000/svg" xmlns:xlink="http://www.w3.org/1999/xlink" viewBox="0 0 31.68 31.68"><defs><style>.cls-1,.cls-10,.cls-11,.cls-12{fill:none;}.cls-15,.cls-2{fill:#fcc900;}.cls-3{opacity:0.8;fill:url(#linear-gradient);}.cls-4{clip-path:url(#clip-path);}.cls-5{fill:#e6e7e8;}.cls-6{fill:#62bb46;}.cls-7{fill:#b1d89b;}.cls-8{fill:#00aeef;}.cls-9{fill:#6dcff6;}.cls-10,.cls-11{stroke:#fff;}.cls-10,.cls-11,.cls-12{stroke-miterlimit:10;}.cls-10{stroke-width:1.12px;}.cls-11{stroke-width:1.12px;}.cls-12{stroke:#6d6e70;stroke-width:0.26px;}.cls-13{fill:#f18a00;}.cls-14{fill:#fff;}.cls-15{stroke:gray;stroke-linecap:square;stroke-linejoin:bevel;stroke-width:0.41px;opacity:0.34;}</style><linearGradient id="linear-gradient" y1="14.14" x2="23.5" y2="14.14" gradientUnits="userSpaceOnUse"><stop offset="0.54" stop-color="#fff"/><stop offset="1" stop-color="#fff" stop-opacity="0"/></linearGradient><clipPath id="clip-path"><path class="cls-1" d="M26.15,28.5,4.86,27.39a1.7,1.7,0,0,1-1.58-1.67V4.35A1.49,1.49,0,0,1,4.86,2.84L26.15,4a1.69,1.69,0,0,1,1.59,1.67V27A1.49,1.49,0,0,1,26.15,28.5Z"/></clipPath></defs><polygon class="cls-2" points="0 0.07 20.95 1.13 20.95 28.21 0 23.4 0 0.07"/><polygon class="cls-2" points="20.95 17.16 23.5 17.61 23.5 27.17 20.95 26.73 20.95 17.16"/><path class="cls-3" d="M0,.07,21,1.13V28.21L0,23.4ZM21,26.73l2.55.44V17.61L21,17.16Z"/><g id="Simulation"><g id="Simulation-2" data-name="Simulation"><g id="Simulation-3" data-name="Simulation"><g class="cls-4"><path class="cls-5" d="M6.44,10.63c-.06-.09,0-.27,0-.27,1-2.69,2.1-4.77,3.38-5.91A3.59,3.59,0,0,1,13,3.38l0-.79L1.64,2.78v1.5L6.35,10.5"/><path class="cls-6" d="M14.61,18A55.41,55.41,0,0,1,8.17,13c-.94-1.14-1.94-2.28-1.95-2.25a91.37,91.37,0,0,0-2.94,11.4v3.54a1.7,1.7,0,0,0,1.58,1.67L26.15,28.5A1.49,1.49,0,0,0,27.74,27V21.62C24.53,21.25,16.93,19.41,14.61,18Z"/><path class="cls-7" d="M.78,25.1V3.38a1.33,1.33,0,0,1,2.05.85C3.37,6,6.48,10.55,6.48,10.55A87.23,87.23,0,0,0,3.36,22.19v3.53Z"/><path class="cls-8" d="M12.23,3.5c1.46.3,2.7,2,3.28,3.08.17.31.67,1.16.83,1.48a14.26,14.26,0,0,0,4.17,4.85,22,22,0,0,0,7.23,3.51V5.63A1.69,1.69,0,0,0,26.15,4l-13.42-.7"/><path class="cls-9" d="M27.74,21.45v-5a24.36,24.36,0,0,1-7.47-3.83,27.07,27.07,0,0,1-4.91-6c-.58-1.06-1.5-2.54-2.95-2.83-1-.21-1.46,0-2.48,1-1.26,1.15-2.32,3.28-3.3,6a.83.83,0,0,0,0,.38,22.76,22.76,0,0,0,4,4.33c6,4.81,11.83,5.37,15.39,5.94.7.12,1.64.25,1.64.25Z"/><path class="cls-10" d="M2.86,26.9C4.26,19.35,6.35,8.29,10.1,4.84c2.29-2.12,3.72-.22,5,1.48.8,1.1,1.81,2.94,3.51,5.2,3.4,4.51,11.85,5.4,11.85,5.4"/><path class="cls-11" d="M2.38,3.26s2.84,7.68,8.33,12.1c6,4.81,11.83,5.37,15.39,5.94s2.81.33,2.81.33"/></g></g><path class="cls-12" d="M26.15,28.5,4.86,27.39a1.7,1.7,0,0,1-1.58-1.67V4.35A1.49,1.49,0,0,1,4.86,2.84L26.15,4a1.69,1.69,0,0,1,1.59,1.67V27A1.49,1.49,0,0,1,26.15,28.5Z"/></g></g><ellipse class="cls-13" cx="20.87" cy="21.29" rx="6.92" ry="7.29" transform="translate(-8.94 20.6) rotate(-44.25)"/><path class="cls-14" d="M20.87,28.83a8,8,0,0,1-7.54-7.93,7.08,7.08,0,0,1,7.54-7.14,8,8,0,0,1,7.53,7.93A7.09,7.09,0,0,1,20.87,28.83Zm0-14.21a6.28,6.28,0,0,0-6.67,6.32,7.11,7.11,0,0,0,6.67,7,6.27,6.27,0,0,0,6.67-6.32A7.13,7.13,0,0,0,20.87,14.62Z"/><path class="cls-14" d="M25.8,19.84a.4.4,0,0,0-.46-.1.07.07,0,0,1-.1,0c-.8-1.54-2.43-3.24-4.33-2.44-.34.17-.14.33,0,.4a.3.3,0,0,0,.15,0c2.1.4,1.34,1.22,1.48,1.57,0,0,0,.1,0,.12l-1.43,1.35s0,0-.06,0a.48.48,0,0,0-.58.05l-3.06,2.9a.49.49,0,0,0,0,.69l.84.89a.49.49,0,0,0,.69,0L22,22.43a.46.46,0,0,0,.08-.57.09.09,0,0,1,0-.07l1.41-1.33a.09.09,0,0,1,.11,0c.22.18.49,0,.72.14,0,0,0,.08,0,.12a.41.41,0,0,0,.06.48l.31.32a.39.39,0,0,0,.55,0l.88-.84a.39.39,0,0,0,0-.55Z"/><path class="cls-14" d="M18.23,20.74l.8.91a.11.11,0,0,0,.16,0l1.07-1,0,0s0-.07,0-.12l-.87-.85a.37.37,0,0,1-.08-.36A1.9,1.9,0,0,0,17,16.89c-.12,0-.14.12-.05.22l.78.82a.68.68,0,0,1,0,.95l-.12.11a.67.67,0,0,1-.95,0l-.78-.82c-.09-.09-.19-.07-.22,0a1.89,1.89,0,0,0,2.26,2.48A.4.4,0,0,1,18.23,20.74Z"/><path class="cls-14" d="M23.19,24.79a.48.48,0,1,1,0-.64A.46.46,0,0,1,23.19,24.79Zm0-1.45-.82-.81a.09.09,0,0,0-.14,0l-.07.08L21,23.69a.12.12,0,0,0,0,.17l.74.83a1.5,1.5,0,0,1,.2.4.84.84,0,0,0,.19.31,1.21,1.21,0,0,0,1.73-1.64.79.79,0,0,0-.31-.2A1.45,1.45,0,0,1,23.16,23.34Z"/><polygon class="cls-2" points="0 0.07 7.57 5.04 7.57 29.54 7.57 31.68 0 24.56 0 0.07"/><polyline class="cls-15" points="0.36 0.31 7.57 5.04 7.57 29.54 7.57 31.68 0.23 24.82"/></svg>