<svg id="Layer_1" data-name="Layer 1" xmlns="http://www.w3.org/2000/svg" xmlns:xlink="http://www.w3.org/1999/xlink" viewBox="0 0 31.68 31.68"><defs><style>.cls-1,.cls-10,.cls-11,.cls-12{fill:none;}.cls-13,.cls-2{fill:#fcc900;}.cls-3{opacity:0.8;fill:url(#linear-gradient);}.cls-4{clip-path:url(#clip-path);}.cls-5{fill:#e6e7e8;}.cls-6{fill:#62bb46;}.cls-7{fill:#b1d89b;}.cls-8{fill:#00aeef;}.cls-9{fill:#6dcff6;}.cls-10,.cls-11{stroke:#fff;}.cls-10,.cls-11,.cls-12{stroke-miterlimit:10;}.cls-10{stroke-width:1.12px;}.cls-11{stroke-width:1.12px;}.cls-12{stroke:#6d6e70;stroke-width:0.26px;}.cls-13{stroke:gray;stroke-linecap:square;stroke-linejoin:bevel;stroke-width:0.41px;opacity:0.34;}</style><linearGradient id="linear-gradient" y1="14.14" x2="23.5" y2="14.14" gradientUnits="userSpaceOnUse"><stop offset="0.54" stop-color="#fff"/><stop offset="1" stop-color="#fff" stop-opacity="0"/></linearGradient><clipPath id="clip-path"><path class="cls-1" d="M26.31,28.55,5,27.44a1.7,1.7,0,0,1-1.59-1.67V4.39A1.5,1.5,0,0,1,5,2.89L26.31,4a1.69,1.69,0,0,1,1.58,1.67V27.05A1.49,1.49,0,0,1,26.31,28.55Z"/></clipPath></defs><polygon class="cls-2" points="0 0.07 20.95 1.13 20.95 28.21 0 23.4 0 0.07"/><polygon class="cls-2" points="20.95 17.16 23.5 17.61 23.5 27.17 20.95 26.73 20.95 17.16"/><path class="cls-3" d="M0,.07,21,1.13V28.21L0,23.4ZM21,26.73l2.55.44V17.61L21,17.16Z"/><g id="Simulation"><g id="Simulation-2" data-name="Simulation"><g id="Simulation-3" data-name="Simulation"><g class="cls-4"><path class="cls-5" d="M6.6,10.68c-.07-.09,0-.27,0-.27C7.59,7.72,8.7,5.64,10,4.5a3.57,3.57,0,0,1,3.13-1.07l0-.79L1.8,2.83v1.5l4.7,6.22"/><path class="cls-6" d="M14.76,18a53.28,53.28,0,0,1-6.43-4.92c-.94-1.14-1.94-2.29-2-2.25a92.68,92.68,0,0,0-2.94,11.4v3.54A1.7,1.7,0,0,0,5,27.44l21.29,1.11a1.49,1.49,0,0,0,1.58-1.5V21.67C24.69,21.3,17.08,19.46,14.76,18Z"/><path class="cls-7" d="M.93,25.15V3.43A1.34,1.34,0,0,1,3,4.28C3.53,6,6.63,10.6,6.63,10.6A88.78,88.78,0,0,0,3.51,22.24v3.53Z"/><path class="cls-8" d="M12.39,3.55c1.45.3,2.69,2,3.27,3.08.17.3.67,1.16.83,1.48A14.49,14.49,0,0,0,20.66,13a22,22,0,0,0,7.23,3.51V5.68A1.69,1.69,0,0,0,26.31,4l-13.43-.7"/><path class="cls-9" d="M27.89,21.5v-5a24.36,24.36,0,0,1-7.47-3.83,27.67,27.67,0,0,1-4.91-6.05C14.93,5.53,14,4.05,12.56,3.76c-1-.21-1.46.05-2.47,1C8.83,5.87,7.76,8,6.79,10.7a.94.94,0,0,0,0,.38,22.76,22.76,0,0,0,4,4.33c6,4.8,11.83,5.37,15.4,5.94.69.12,1.63.25,1.63.25Z"/><path class="cls-10" d="M3,27C4.42,19.4,6.51,8.34,10.25,4.89c2.3-2.12,3.73-.22,5,1.48.8,1.1,1.82,2.94,3.52,5.2C22.13,16.08,30.59,17,30.59,17"/><path class="cls-11" d="M2.53,3.31S5.38,11,10.86,15.41c6,4.8,11.83,5.37,15.4,5.94s2.81.33,2.81.33"/></g></g><path class="cls-12" d="M26.31,28.55,5,27.44a1.7,1.7,0,0,1-1.59-1.67V4.39A1.5,1.5,0,0,1,5,2.89L26.31,4a1.69,1.69,0,0,1,1.58,1.67V27.05A1.49,1.49,0,0,1,26.31,28.55Z"/></g></g><polygon class="cls-2" points="0 0.07 7.57 5.04 7.57 29.54 7.57 31.68 0 24.56 0 0.07"/><polyline class="cls-13" points="0.36 0.31 7.57 5.04 7.57 29.54 7.57 31.68 0.23 24.82"/></svg>