<svg id="Layer_1" data-name="Layer 1" xmlns="http://www.w3.org/2000/svg" viewBox="0 0 128.16 128.16"><defs><style>.cls-1{fill:#00aeef;}.cls-2{fill:#fff;}</style></defs><path class="cls-1" d="M120.4,23H96.16V13.56a3.83,3.83,0,0,0-3.73-3.92H35.73A3.83,3.83,0,0,0,32,13.56V23H7.76A7.61,7.61,0,0,0,.35,30.82V109.5a7.61,7.61,0,0,0,7.41,7.78H120.4a7.61,7.61,0,0,0,7.41-7.78V30.82A7.61,7.61,0,0,0,120.4,23Z"/><circle class="cls-1" cx="64.08" cy="67.68" r="26.75"/><path class="cls-2" d="M64.08,98.43A30.75,30.75,0,1,1,94.83,67.68,30.79,30.79,0,0,1,64.08,98.43Zm0-53.5A22.75,22.75,0,1,0,86.83,67.68,22.77,22.77,0,0,0,64.08,44.93Z"/></svg>