<svg id="Layer_1" data-name="Layer 1" xmlns="http://www.w3.org/2000/svg" viewBox="0 0 128.16 128.16"><defs><style>.cls-1{fill:#929497;fill-rule:evenodd;}.cls-2{fill:#f18a00;}.cls-3{fill:#fff;}</style></defs><path class="cls-1" d="M1,115.67,30.59,63.9,1,12.14A8,8,0,0,1,8,.24L79.57.3a8,8,0,0,1,8,8h0V24.1a8,8,0,1,1-15.9,1.79,8.92,8.92,0,0,1,0-1.79V16.21l-50-.05L46.67,60a8,8,0,0,1,0,7.91l-25,43.79H71.58v-8a8,8,0,0,1,15.9-.5c0,.19,0,.38,0,.56l-.06,15.91a7.93,7.93,0,0,1-7.94,7.93H8a8,8,0,0,1-7.95-8A8.08,8.08,0,0,1,1,115.67Z"/><circle class="cls-2" cx="90.47" cy="90.24" r="35.51"/><path class="cls-3" d="M90.47,127.92a37.68,37.68,0,1,1,37.67-37.67A37.68,37.68,0,0,1,90.47,127.92Zm0-71a33.36,33.36,0,1,0,33.35,33.36h0A33.4,33.4,0,0,0,90.47,56.89Z"/><polygon class="cls-3" points="95.47 77.75 86.99 77.75 87.85 68.88 94.61 68.88 95.47 77.75"/><path class="cls-3" d="M112.59,94.38V87.62l-6.28-.6a15.59,15.59,0,0,0-1.57-4.08l4.14-5-4.78-4.78-4.87,4a16,16,0,0,0-4-1.78l-.63-6.49H87.85l-.61,6.3a15.28,15.28,0,0,0-4.07,1.56l-5-4.14-4.77,4.78,4,4.86a15.72,15.72,0,0,0-1.79,4l-6.48.63v6.76l6.29.6A15.35,15.35,0,0,0,77,98.3l-4.14,5,4.78,4.78,4.87-4a15.57,15.57,0,0,0,4,1.79l.62,6.48h6.76l.61-6.29a15.7,15.7,0,0,0,4.08-1.56l5,4.13,4.78-4.78-4-4.86a15.72,15.72,0,0,0,1.79-4Zm-27.5,2a8.15,8.15,0,1,1,11.52,0A8.14,8.14,0,0,1,85.09,96.38Z"/></svg>