<svg id="Layer_1" data-name="Layer 1" xmlns="http://www.w3.org/2000/svg" viewBox="0 0 128.16 128.16"><defs><style>.cls-1{fill:#00aeef;}.cls-2,.cls-3{fill:#f18a00;}.cls-3{stroke:#f18a00;stroke-miterlimit:10;stroke-width:2px;}.cls-4{opacity:0.9;}.cls-5{fill:#c32a1f;}.cls-6{fill:#fff;}</style></defs><path class="cls-1" d="M117,6.52A6.4,6.4,0,0,1,123.31,13V116.8a6.41,6.41,0,0,1-6.32,6.48H14.75a6.41,6.41,0,0,1-6.32-6.48V13a6.41,6.41,0,0,1,6.32-6.47H117m0-4H14.75A10.4,10.4,0,0,0,4.43,13V116.8a10.41,10.41,0,0,0,10.32,10.48H117a10.41,10.41,0,0,0,10.32-10.48h0V13A10.41,10.41,0,0,0,117,2.52h0Z"/><path class="cls-2" d="M10.74,13.24H3.14A2.31,2.31,0,0,1,.85,10.92V3.2A2.31,2.31,0,0,1,3.14.88h7.6A2.31,2.31,0,0,1,13,3.2v7.72A2.31,2.31,0,0,1,10.74,13.24Z"/><path class="cls-1" d="M108.47,23.72a.43.43,0,0,1,.4.46h0V68.36a.43.43,0,0,1-.4.46H24.8a.43.43,0,0,1-.4-.46V24.18a.43.43,0,0,1,.4-.46h83.67m0-4H24.8a4.43,4.43,0,0,0-4.4,4.46h0V68.36a4.43,4.43,0,0,0,4.4,4.46h83.67a4.43,4.43,0,0,0,4.4-4.46h0V24.18a4.43,4.43,0,0,0-4.4-4.46Z"/><path class="cls-3" d="M23.09,24.28H19.85a1,1,0,0,1-1-1V20a1,1,0,0,1,1-1h3.24a1,1,0,0,1,1,1v3.28A1,1,0,0,1,23.09,24.28Z"/><path class="cls-1" d="M88.42,35.33a.42.42,0,0,1,.39.45h0V57.44a.42.42,0,0,1-.38.46H44.85a.43.43,0,0,1-.4-.46h0V35.78a.44.44,0,0,1,.4-.45H88.42m0-4H44.85a4.42,4.42,0,0,0-4.4,4.44h0V57.44a4.43,4.43,0,0,0,4.4,4.46H88.42a4.42,4.42,0,0,0,4.39-4.45h0V35.78a4.42,4.42,0,0,0-4.39-4.45Z"/><path class="cls-3" d="M43.14,35.89H39.9a1,1,0,0,1-1-1V31.62a1,1,0,0,1,1-1h3.24a1,1,0,0,1,1,1V34.9A1,1,0,0,1,43.14,35.89Z"/><path class="cls-1" d="M108.47,86.11a.43.43,0,0,1,.4.46h0v21.66a.44.44,0,0,1-.4.45H24.8a.44.44,0,0,1-.4-.45V86.57a.43.43,0,0,1,.4-.46h83.67m0-4H24.8a4.43,4.43,0,0,0-4.4,4.46h0v21.66a4.42,4.42,0,0,0,4.39,4.45h83.68a4.42,4.42,0,0,0,4.4-4.44h0V86.57a4.43,4.43,0,0,0-4.4-4.46Z"/><path class="cls-3" d="M23.09,86.67H19.85a1,1,0,0,1-1-1V82.4a1,1,0,0,1,1-1h3.24a1,1,0,0,1,1,1v3.28A1,1,0,0,1,23.09,86.67Z"/><g class="cls-4"><circle class="cls-5" cx="26.51" cy="101.65" r="26.51"/></g><rect class="cls-6" x="21.56" y="80.54" width="9.9" height="27.23" rx="2.48"/><circle class="cls-6" cx="26.51" cy="117.67" r="4.95"/></svg>