<svg id="Layer_1" data-name="Layer 1" xmlns="http://www.w3.org/2000/svg" xmlns:xlink="http://www.w3.org/1999/xlink" viewBox="0 0 31.68 31.68"><defs><style>.cls-1,.cls-9{fill:#fcc900;}.cls-2{opacity:0.8;fill:url(#linear-gradient);}.cls-3{fill:#fff;}.cls-4,.cls-5,.cls-7,.cls-8{fill:#f18a00;}.cls-4,.cls-5{stroke:#fff;}.cls-4,.cls-5,.cls-8{stroke-miterlimit:10;}.cls-5{stroke-width:1.5px;}.cls-6{fill:#00aeef;}.cls-8{stroke:#f18a00;stroke-width:0.4px;}.cls-9{stroke:gray;stroke-linecap:square;stroke-linejoin:bevel;stroke-width:0.41px;opacity:0.34;}</style><linearGradient id="linear-gradient" y1="14.14" x2="23.5" y2="14.14" gradientUnits="userSpaceOnUse"><stop offset="0.54" stop-color="#fff"/><stop offset="1" stop-color="#fff" stop-opacity="0"/></linearGradient></defs><polygon class="cls-1" points="0 0.07 20.95 1.13 20.95 28.21 0 23.4 0 0.07"/><polygon class="cls-1" points="20.95 17.16 23.5 17.61 23.5 27.17 20.95 26.73 20.95 17.16"/><path class="cls-2" d="M0,.07,21,1.13V28.21L0,23.4ZM21,26.73l2.55.44V17.61L21,17.16Z"/><path class="cls-3" d="M6,27.26A1.47,1.47,0,0,1,4.66,25.8V5A1.21,1.21,0,0,1,5.87,3.8L26.38,4.87a1.46,1.46,0,0,1,1.36,1.46V27.09a1.21,1.21,0,0,1-1.21,1.24Z"/><path class="cls-3" d="M5.87,3.05l0,1.5L26.34,5.62a.72.72,0,0,1,.65.71V27.09a.47.47,0,0,1-.49.49h0L6.05,26.51a.72.72,0,0,1-.64-.71V5a.45.45,0,0,1,.46-.49V3.05m0,0a2,2,0,0,0-2,2V25.8A2.21,2.21,0,0,0,6,28l20.45,1.08h.11a2,2,0,0,0,2-2V6.33a2.23,2.23,0,0,0-2.07-2.21L6,3.05Z"/><path class="cls-4" d="M5.17,5.15,3.65,5.07a.49.49,0,0,1-.46-.48V3a.44.44,0,0,1,.46-.44l1.52.08a.5.5,0,0,1,.46.49V4.71A.43.43,0,0,1,5.17,5.15Z"/><path class="cls-3" d="M8.6,8.13l15.5.81v7.62L8.6,15.75V8.13M7.94,6.6a.83.83,0,0,0-.84.84v8.84a1,1,0,0,0,.88.94l16.74.87h0a.83.83,0,0,0,.84-.84V8.41a1,1,0,0,0-.88-.94L8,6.6Z"/><path class="cls-5" d="M7.64,7.49,7,7.46a.22.22,0,0,1-.19-.21V6.59A.18.18,0,0,1,7,6.41l.65,0a.21.21,0,0,1,.2.21V7.3A.19.19,0,0,1,7.64,7.49Z"/><path class="cls-3" d="M12.61,10.66l7.48.39v3.12l-7.48-.4V10.66M12,9.13a.83.83,0,0,0-.84.84v4.34a.94.94,0,0,0,.88.93l8.72.46h0a.83.83,0,0,0,.84-.85V10.52a.94.94,0,0,0-.88-.93L12,9.13Z"/><path class="cls-5" d="M11.65,10,11,10a.22.22,0,0,1-.19-.21V9.12A.18.18,0,0,1,11,8.94l.65,0a.22.22,0,0,1,.2.21v.66A.18.18,0,0,1,11.65,10Z"/><path class="cls-3" d="M8.6,20.61l15.5.81v3.11L8.6,23.72V20.61m-.66-1.54a.83.83,0,0,0-.84.85v4.33a1,1,0,0,0,.88.94l16.74.88h0a.83.83,0,0,0,.84-.85V20.89a1,1,0,0,0-.88-.94L8,19.07Z"/><path class="cls-5" d="M7.64,20l-.65,0a.22.22,0,0,1-.19-.21v-.66A.19.19,0,0,1,7,18.88l.65,0a.21.21,0,0,1,.2.21v.65A.19.19,0,0,1,7.64,20Z"/><path class="cls-6" d="M5.87,3.85h.06L26.38,4.92a1.42,1.42,0,0,1,1.31,1.41V27.09a1.16,1.16,0,0,1-1.16,1.19h-.07L6,27.21A1.42,1.42,0,0,1,4.71,25.8V5A1.16,1.16,0,0,1,5.87,3.85m0-.8a2,2,0,0,0-2,2V25.8A2.21,2.21,0,0,0,6,28l20.45,1.08h.11a2,2,0,0,0,2-2V6.33a2.23,2.23,0,0,0-2.07-2.21L6,3.05Z"/><path class="cls-7" d="M5.17,5.15,3.65,5.07a.49.49,0,0,1-.46-.48V3a.44.44,0,0,1,.46-.44l1.52.08a.5.5,0,0,1,.46.49V4.71A.43.43,0,0,1,5.17,5.15Z"/><path class="cls-6" d="M7.94,6.6v.8l16.74.87a.16.16,0,0,1,.12.14v8.84s0,0,0,0h0L8,16.42a.16.16,0,0,1-.13-.14V7.44a0,0,0,0,1,0,0V6.6m0,0a.83.83,0,0,0-.84.84v8.84a1,1,0,0,0,.88.94l16.74.87h0a.83.83,0,0,0,.84-.84V8.41a1,1,0,0,0-.88-.94L8,6.6Z"/><path class="cls-8" d="M7.64,7.49,7,7.46a.22.22,0,0,1-.19-.21V6.59A.18.18,0,0,1,7,6.41l.65,0a.21.21,0,0,1,.2.21V7.3A.19.19,0,0,1,7.64,7.49Z"/><path class="cls-6" d="M12,9.13v.8l8.72.45a.16.16,0,0,1,.12.14v4.33c0,.05,0,.05,0,.05h0L12,14.45a.16.16,0,0,1-.13-.14V10a0,0,0,0,1,0,0v-.8m0,0a.83.83,0,0,0-.84.84v4.34a.94.94,0,0,0,.88.93l8.72.46h0a.83.83,0,0,0,.84-.85V10.52a.94.94,0,0,0-.88-.93L12,9.13Z"/><path class="cls-8" d="M11.65,10,11,10a.22.22,0,0,1-.19-.21V9.12A.18.18,0,0,1,11,8.94l.65,0a.22.22,0,0,1,.2.21v.66A.18.18,0,0,1,11.65,10Z"/><path class="cls-6" d="M7.94,19.07v.8l16.74.88a.15.15,0,0,1,.12.14v4.33c0,.05,0,.05,0,.05h0L8,24.39a.14.14,0,0,1-.13-.14V19.92c0-.05,0-.05,0-.05v-.8m0,0a.83.83,0,0,0-.84.85v4.33a1,1,0,0,0,.88.94l16.74.88h0a.83.83,0,0,0,.84-.85V20.89a1,1,0,0,0-.88-.94L8,19.07Z"/><path class="cls-8" d="M7.64,20l-.65,0a.22.22,0,0,1-.19-.21v-.66A.19.19,0,0,1,7,18.88l.65,0a.21.21,0,0,1,.2.21v.65A.19.19,0,0,1,7.64,20Z"/><polygon class="cls-1" points="0 0.07 7.57 5.04 7.57 29.54 7.57 31.68 0 24.56 0 0.07"/><polyline class="cls-9" points="0.36 0.31 7.57 5.04 7.57 29.54 7.57 31.68 0.23 24.82"/></svg>