<svg id="Layer_1" data-name="Layer 1" xmlns="http://www.w3.org/2000/svg" viewBox="0 0 128.16 128.16"><defs><style>.cls-1{fill:#00aeef;}.cls-2,.cls-3{fill:#f18a00;}.cls-3{stroke:#f18a00;stroke-miterlimit:10;stroke-width:2px;}</style></defs><path class="cls-1" d="M117,6.5a6.51,6.51,0,0,1,6.3,6.5V116.8a6.51,6.51,0,0,1-6.3,6.5H14.8a6.32,6.32,0,0,1-6.3-6.5V13a6.51,6.51,0,0,1,6.3-6.5H117m0-4H14.8A10.54,10.54,0,0,0,4.4,13V116.8a10.52,10.52,0,0,0,10.3,10.5H117a10.33,10.33,0,0,0,10.3-10.5h0V13A10.46,10.46,0,0,0,117,2.5Z"/><path class="cls-2" d="M10.7,13.2H3.1A2.26,2.26,0,0,1,.8,10.9V3.2A2.26,2.26,0,0,1,3.1.9h7.6A2.26,2.26,0,0,1,13,3.2v7.7A2.26,2.26,0,0,1,10.7,13.2Z"/><path class="cls-1" d="M108.5,23.7a.46.46,0,0,1,.4.5h0V68.4a.66.66,0,0,1-.4.5H24.8a.46.46,0,0,1-.4-.5V24.2a.66.66,0,0,1,.4-.5h83.7m0-4H24.8a4.46,4.46,0,0,0-4.4,4.5h0V68.4a4.6,4.6,0,0,0,4.4,4.5h83.7a4.46,4.46,0,0,0,4.4-4.5h0V24.2a4.46,4.46,0,0,0-4.4-4.5Z"/><path class="cls-3" d="M23.1,24.3H19.9a.94.94,0,0,1-1-1V20a.94.94,0,0,1,1-1h3.2a.94.94,0,0,1,1,1v3.3A1.08,1.08,0,0,1,23.1,24.3Z"/><path class="cls-1" d="M88.4,35.3a.43.43,0,0,1,.4.4h0V57.4a.51.51,0,0,1-.4.5H44.8a.46.46,0,0,1-.4-.5h0V35.8a.66.66,0,0,1,.4-.5H88.4m0-4H44.8a4.44,4.44,0,0,0-4.4,4.4h0V57.4a4.6,4.6,0,0,0,4.4,4.5H88.4a4.44,4.44,0,0,0,4.4-4.4h0V35.8a4.4,4.4,0,0,0-4.4-4.5Z"/><path class="cls-3" d="M43.1,35.9H39.9a.94.94,0,0,1-1-1V31.6a.94.94,0,0,1,1-1h3.2a.94.94,0,0,1,1,1v3.3A1,1,0,0,1,43.1,35.9Z"/><path class="cls-1" d="M108.5,86.1a.46.46,0,0,1,.4.5h0v21.7a.43.43,0,0,1-.4.4H24.8a.43.43,0,0,1-.4-.4V86.6a.66.66,0,0,1,.4-.5h83.7m0-4H24.8a4.46,4.46,0,0,0-4.4,4.5h0v21.7a4.37,4.37,0,0,0,4.4,4.4h83.7a4.44,4.44,0,0,0,4.4-4.4h0V86.6a4.46,4.46,0,0,0-4.4-4.5Z"/><path class="cls-3" d="M23.1,86.7H19.9a.94.94,0,0,1-1-1V82.4a.94.94,0,0,1,1-1h3.2a.94.94,0,0,1,1,1v3.3A1.08,1.08,0,0,1,23.1,86.7Z"/></svg>