<?xml version="1.0" encoding="utf-8"?>
<!-- Generator: Adobe Illustrator 24.3.0, SVG Export Plug-In . SVG Version: 6.00 Build 0)  -->
<svg version="1.1" id="Layer_1" xmlns="http://www.w3.org/2000/svg" xmlns:xlink="http://www.w3.org/1999/xlink" x="0px" y="0px"
	 viewBox="0 0 128.2 128.2" style="enable-background:new 0 0 128.2 128.2;" xml:space="preserve">
<style type="text/css">
	.st0{fill:none;}
	.st1{fill:#62BB46;}
	.st2{fill:#00AEEF;}
</style>
<g>
	<path class="st0" d="M92.2,69.6c3.7-1.8,8.7-6.9,10.7-13.7c0.9-2.9,1.1-5.9,0.8-9c-5.2,5.8-9,14-12.3,23.1
		C91.6,69.9,91.9,69.7,92.2,69.6z"/>
	<path class="st0" d="M45.3,104.4c-0.1,0.2-0.2,0.4-0.3,0.6c2.1,0.3,4.3,0.4,6.4,0.1c5.4-0.7,14.7-4.1,21.2-17.8
		c-4.1,0.9-7.8,1.9-9.9,2.8C55.7,93.5,49.5,96.8,45.3,104.4z"/>
	<path class="st0" d="M99.3,34.4c-0.2-0.4-0.5-0.8-0.8-1.3c-1.2-1.9-2.7-3.6-4.4-5c-0.3,0.5-0.6,1-0.9,1.5
		C87.1,40.1,78.8,45,70.6,48.9c-3.9,1.8-9.6,3.1-16.3,4.5c-1.1,0.2-2.3,0.5-3.5,0.8c-4.7,14.7-10.1,28.3-19.6,37.5
		c-0.7,0.7-1.5,1.4-2.4,2.1c0.2,0.4,0.5,0.8,0.8,1.3c1.2,1.9,2.7,3.6,4.4,5c0.3-0.5,0.6-1,0.9-1.5C41,88.1,49.3,83.2,57.6,79.3
		c3.9-1.8,9.6-3.1,16.3-4.5c1.1-0.2,2.3-0.5,3.5-0.8C82,59.3,87.4,45.7,97,36.5C97.7,35.8,98.5,35.1,99.3,34.4z"/>
	<path class="st0" d="M82.9,23.8c0.1-0.2,0.2-0.4,0.3-0.6c-2.1-0.3-4.3-0.4-6.4-0.1c-5.4,0.7-14.7,4.1-21.2,17.8
		c4.1-0.9,7.8-1.9,9.9-2.8C72.5,34.7,78.6,31.3,82.9,23.8z"/>
	<path class="st0" d="M36,58.5c-3.7,1.8-8.7,6.9-10.7,13.7c-0.9,2.9-1.1,5.9-0.8,9c5.2-5.8,9-14,12.3-23.1
		C36.5,58.3,36.3,58.4,36,58.5z"/>
	<g>
		<path class="st1" d="M114.2,38.8c-3.1,1.7-6.3,3.9-8.9,6.4c-0.6,0.5-1.1,1.1-1.7,1.7c0.3,3.1,0.1,6.1-0.8,9
			c-2,6.9-6.9,11.9-10.7,13.7c-0.3,0.1-0.5,0.2-0.8,0.4c-3.6,1.6-8.9,2.8-14,4c-1.2,0.3-2.3,0.5-3.5,0.8c-6.7,1.4-12.4,2.7-16.3,4.5
			c-8.3,3.9-16.5,8.8-22.8,19.2c-0.3,0.5-0.6,1-0.9,1.5c3.1,2.6,6.9,4.4,11,5c0.1-0.2,0.2-0.4,0.3-0.6c4.2-7.6,10.4-10.9,17.4-14.3
			c2-1,5.8-1.9,9.9-2.8c1.3-0.3,2.6-0.6,3.8-0.8c3.5-0.8,7-1.5,10.3-2.4c3.9-1,7.6-2.2,10.6-3.6c5.8-2.8,13.7-10,17-21.2
			C115.8,54.2,116.6,47.2,114.2,38.8z"/>
		<path class="st1" d="M98.6,33.2c0.3,0.4,0.5,0.8,0.8,1.3c3.1-2.5,6.6-4.6,10.1-6.4c-0.2-0.4-0.4-0.8-0.7-1.2
			c-2.4-3.9-5.6-7.1-9.3-9.7c-1.6,3.7-3.4,7.6-5.3,11C95.9,29.6,97.4,31.3,98.6,33.2z"/>
		<path class="st1" d="M31.2,91.6c9.5-9.2,14.9-22.8,19.6-37.5c0.6-1.8,1.1-3.5,1.7-5.3c0.9-3,2-5.7,3.1-8
			c6.5-13.7,15.8-17,21.2-17.8c2.2-0.3,4.3-0.2,6.4,0.1c1.8-3.3,3.5-7.3,5-11.1c-4.2-1.1-8.6-1.4-13-0.9c-15.4,2-27.6,14-33.8,32.9
			c-0.1,0.4-0.3,0.8-0.4,1.3c-1.3,4.4-2.7,8.7-4.2,12.8c-3.3,9.1-7.1,17.3-12.3,23.1c0.4,4.1,1.8,8.2,4.3,12.5
			C29.6,93,30.4,92.4,31.2,91.6z"/>
		<path class="st1" d="M22.4,128.2h13.2c0-0.1,1.8-5.7,4.3-12c-4-1-7.8-2.8-11.2-5.1C25,119.7,22.5,127.7,22.4,128.2z"/>
		<path class="st1" d="M0,95.2l0.1,12.2c0.5-0.1,9.5-2.6,18.6-7.3c-2.2-3.8-3.8-7.4-4.7-10.8C6.9,93.2,0.1,95.1,0,95.2z"/>
	</g>
	<g>
		<path class="st2" d="M70.6,48.9c8.3-3.9,16.5-8.8,22.8-19.2c0.3-0.5,0.6-1,0.9-1.5c1.9-3.4,3.7-7.3,5.3-11
			c3.7-8.7,6.1-16.7,6.3-17.2H92.6c0,0.1-1.8,5.7-4.3,12c-1.5,3.8-3.3,7.9-5,11.1c-0.1,0.2-0.2,0.4-0.3,0.6
			c-4.4,7.6-10.5,11-17.6,14.3c-2,1-5.8,1.9-9.9,2.8c-1.1,2.4-2.2,5-3.1,8c-0.5,1.8-1.1,3.5-1.7,5.3c1.2-0.3,2.3-0.5,3.5-0.8
			C60.9,52,66.7,50.7,70.6,48.9z"/>
		<path class="st2" d="M128.1,20.8c-0.5,0.1-9.5,2.6-18.6,7.3c-3.5,1.8-7.1,4-10.1,6.4c-0.8,0.7-1.6,1.4-2.4,2.1
			C87.4,45.7,82,59.3,77.3,74c5.1-1.1,10.4-2.4,14-4c3.3-9.1,7.1-17.3,12.3-23.1c0.5-0.6,1.1-1.2,1.7-1.7c2.6-2.5,5.8-4.6,8.9-6.4
			c7-3.9,13.8-5.8,13.9-5.8V20.8z"/>
		<path class="st2" d="M72.6,87.3c-6.5,13.7-15.8,17.1-21.2,17.8c-2.2,0.3-4.3,0.2-6.4-0.1c-4-0.7-7.9-2.4-11-5
			c-1.7-1.4-3.2-3.1-4.4-5c-0.3-0.4-0.5-0.8-0.8-1.3c-2.4-4.2-3.9-8.4-4.3-12.5c-0.3-3.1-0.1-6.1,0.8-9c2-6.9,6.9-11.9,10.7-13.7
			c0.3-0.1,0.5-0.2,0.8-0.4c1.5-4.1,2.8-8.4,4.2-12.8c0.1-0.4,0.3-0.9,0.4-1.3c-3.9,1-7.6,2.2-10.6,3.6c-5.8,2.8-13.7,10-17,21.2
			c-1.5,5-2.3,12.1,0.1,20.4c1,3.4,2.5,7,4.7,10.8c0.2,0.4,0.4,0.8,0.7,1.2c2.4,3.9,5.6,7.1,9.3,9.7c3.4,2.4,7.2,4.1,11.2,5.1
			c4.2,1.1,8.6,1.4,13,0.9c15.4-2,27.6-14,33.8-32.9c-3.3,0.9-6.9,1.6-10.3,2.4C75.1,86.7,73.8,87,72.6,87.3z"/>
	</g>
</g>
</svg>
