<svg id="Layer_1" data-name="Layer 1" xmlns="http://www.w3.org/2000/svg" xmlns:xlink="http://www.w3.org/1999/xlink" viewBox="0 0 128.16 128.16"><defs><style>.cls-1,.cls-5{fill:none;}.cls-2{fill:#f8e4de;}.cls-3{fill:#e5c66e;}.cls-4{fill:#ffbeab;}.cls-5{stroke:#000;stroke-miterlimit:10;stroke-width:2px;}.cls-6{clip-path:url(#clip-path);}.cls-7{fill:gray;}.cls-8{fill:#00aeef;}</style><clipPath id="clip-path"><rect class="cls-1" x="0.72" width="126.73" height="128.16"/></clipPath></defs><rect class="cls-2" x="4.76" y="66.89" width="120.06" height="20.82"/><rect class="cls-3" x="4.76" y="85.94" width="120.06" height="20.09"/><rect class="cls-4" x="4.76" y="104.99" width="120.06" height="18.81"/><line class="cls-5" x1="4.76" y1="66.89" x2="124.83" y2="66.89"/><line class="cls-5" x1="4.76" y1="85.94" x2="124.83" y2="85.94"/><line class="cls-5" x1="4.76" y1="104.99" x2="124.83" y2="104.99"/><g class="cls-6"><path class="cls-7" d="M24.3,52.52l6.41,4.22,5.91,3.9A6.2,6.2,0,0,0,44,59.89l.26-.26,51.21,51.53,9.95,1.88-57-57.57.27-.26a6.26,6.26,0,0,0,.82-7.44L48,45.34l-7.74-9.15Z"/><path class="cls-8" d="M-46.89-6.93a5,5,0,0,0,0,7.07,5,5,0,0,0,7,0l.71-.71L9.48,48.84a8.28,8.28,0,0,0,11.73,0L38,32.17a8.35,8.35,0,0,0,.06-11.78L-10.57-29l.72-.72a5,5,0,0,0,0-7.07,5,5,0,0,0-7,0m31.6,76.56a2.34,2.34,0,0,1-3.32,0l-41.36-42,2-2,13.56-13.48,2-2,41.35,42a2.42,2.42,0,0,1,0,3.34"/></g></svg>