<svg id="Layer_1" data-name="Layer 1" xmlns="http://www.w3.org/2000/svg" viewBox="0 0 128.16 128.16"><defs><style>.cls-1{fill:#62bb46;}.cls-2{fill:#00aeef;}</style></defs><path class="cls-1" d="M69.49,38.83l-28.63-1a3.47,3.47,0,0,1-3.35-3.24L36.46,19a3.47,3.47,0,0,0-5.92-2.22L2,45.3a3.46,3.46,0,0,0,0,4.91l29,29a3.47,3.47,0,0,0,5.92-2.31L37.57,61A3.48,3.48,0,0,1,41,57.68l28.09-.47a3.47,3.47,0,0,0,3.41-3.36l.37-11.44A3.47,3.47,0,0,0,69.49,38.83Z"/><path class="cls-2" d="M58.67,89.33l28.63,1a3.47,3.47,0,0,1,3.35,3.24l1,15.66a3.47,3.47,0,0,0,5.92,2.22l28.55-28.55a3.46,3.46,0,0,0,0-4.91l-29-29a3.47,3.47,0,0,0-5.92,2.31l-.69,15.87a3.48,3.48,0,0,1-3.41,3.32L59.09,71a3.47,3.47,0,0,0-3.41,3.36l-.37,11.44A3.47,3.47,0,0,0,58.67,89.33Z"/></svg>