<svg id="Layer_1" data-name="Layer 1" xmlns="http://www.w3.org/2000/svg" viewBox="0 0 128.16 128.16"><defs><style>.cls-1{fill:#00aeef;}.cls-2{fill:#fff;}</style></defs><path class="cls-1" d="M45.45,123.51,4.61,82.67a6.78,6.78,0,0,1,0-9.59L71.5,6.19A11,11,0,0,1,78.2,3c9.33-.91,29.53.25,40.79-.16a6.29,6.29,0,0,1,6.51,6.55c-.47,11.22.58,31.28-.38,40.55A11,11,0,0,1,122,56.6L55,123.51A6.78,6.78,0,0,1,45.45,123.51Z"/><rect class="cls-2" x="40.35" y="23.44" width="48.75" height="81.32" rx="6.89" transform="translate(64.28 -27) rotate(45)"/></svg>