<svg id="Layer_1" data-name="Layer 1" xmlns="http://www.w3.org/2000/svg" viewBox="0 0 128.16 128.16"><defs><style>.cls-1{fill:#fff;}.cls-2{fill:#00aeef;}</style></defs><path class="cls-1" d="M52.69,66.23V29.28a9.6,9.6,0,0,1,19.19-.62c0,.21,0,.41,0,.62V56.63H93.12a9.6,9.6,0,0,1,0,19.19H62.29A9.61,9.61,0,0,1,52.69,66.23ZM63.9,64.61V29.28A1.62,1.62,0,1,0,60.67,29a1,1,0,0,0,0,.25v37a1.6,1.6,0,0,0,1.59,1.61H93.12a1.62,1.62,0,0,0,0-3.23Z"/><g id="Protocol-2"><path class="cls-2" d="M64.16,4.2A60,60,0,1,0,124.1,64.26,60,60,0,0,0,64.16,4.2Zm0,15.35h0A44.6,44.6,0,1,1,19.55,64.14,44.6,44.6,0,0,1,64.16,19.55Z"/><path class="cls-2" d="M62.29,23.67a5.6,5.6,0,0,0-5.61,5.59v37a5.59,5.59,0,0,0,5.58,5.6H93.12a5.61,5.61,0,0,0,0-11.21H67.89V29.28a5.59,5.59,0,0,0-5.57-5.61Z"/></g></svg>