<svg id="Layer_1" data-name="Layer 1" xmlns="http://www.w3.org/2000/svg" xmlns:xlink="http://www.w3.org/1999/xlink" viewBox="0 0 128.16 128.16"><defs><style>.cls-1{fill:none;}.cls-2{clip-path:url(#clip-path);}.cls-3{fill:#62bb46;stroke:#62bb46;stroke-miterlimit:10;stroke-width:14px;}.cls-4{fill:gray;}.cls-5{fill:#6d6e70;}</style><clipPath id="clip-path"><path class="cls-1" d="M117.3,125.43H10.86a7.92,7.92,0,0,1-7.92-7.91V10.64a7.92,7.92,0,0,1,7.92-7.91H117.3a7.92,7.92,0,0,1,7.92,7.91V117.52A7.92,7.92,0,0,1,117.3,125.43Z"/></clipPath></defs><g id="Range"><g class="cls-2"><path class="cls-3" d="M-3.49,29.62A282.84,282.84,0,0,0,18.35,70.87c7.62,12,15.92,13,32.58,16.1,15.1,2.85,83.53,13.08,83.53,13.08v4S65.37,93.66,48.71,90.52s-25-4.07-32.58-16.11S-5,34.8-5,34.8Z"/><path class="cls-4" d="M-7.85,38.4S8.25,90.42,12.69,96s6.48,3.15,11.66,7,5.93,6.85,14.63,5.74,18.51-5,33.5-5,59.1,29.07,59.1,29.07V107.67S62.49,97.26,45.83,94.12,20.84,90.05,13.25,78-7.85,38.4-7.85,38.4Z"/><path class="cls-4" d="M-.72,25.3S2.45,32.48,7.33,35c13.12,6.82,16.94,20.55,18,22.77s6.11,4.72,11.38,5.28S57.59,72.5,62.87,75.28s9.71,8,29.71,6.38c20.47-1.7,44.65-9.72,44.65-9.72V95.73S68.8,85.5,53.7,82.65c-16.66-3.14-25-4.09-32.58-16.1A282.84,282.84,0,0,1-.72,25.3Z"/></g><path class="cls-5" d="M117.3,126.07H10.86a8.57,8.57,0,0,1-8.56-8.55V10.64a8.57,8.57,0,0,1,8.56-8.55H117.3a8.57,8.57,0,0,1,8.56,8.55V117.52A8.57,8.57,0,0,1,117.3,126.07ZM10.86,3.36a7.29,7.29,0,0,0-7.28,7.28V117.52a7.29,7.29,0,0,0,7.28,7.28H117.3a7.29,7.29,0,0,0,7.28-7.28V10.64a7.29,7.29,0,0,0-7.28-7.28Z"/></g><path class="cls-4" d="M10.08,9.93h11.1l7.74,24.72L36.55,9.93H47.33L34.57,44.29H23.06Z"/><path class="cls-4" d="M50.75,9.93H68.4q5.76,0,8.63,2.74C79,14.5,79.9,17.1,79.9,20.48a10.63,10.63,0,0,1-3.12,8.13q-3.14,2.92-9.55,2.93H61.41V44.29H50.75ZM61.41,24.58H64c2,0,3.49-.36,4.32-1.07a3.46,3.46,0,0,0,1.24-2.73A3.8,3.8,0,0,0,68.49,18c-.72-.75-2.07-1.13-4-1.13h-3Z"/><path class="cls-4" d="M108.33,30.23,117.64,33a17.29,17.29,0,0,1-3,6.54,12.89,12.89,0,0,1-5,4,18.73,18.73,0,0,1-7.6,1.33,22.21,22.21,0,0,1-9.16-1.62,14.54,14.54,0,0,1-6.12-5.73A19.39,19.39,0,0,1,84.22,27q0-8.54,4.53-13.11t12.83-4.58q6.49,0,10.21,2.63A15.36,15.36,0,0,1,117.31,20l-9.37,2.09a8,8,0,0,0-1-2.3,6.19,6.19,0,0,0-2.17-1.88,6.39,6.39,0,0,0-2.89-.65,6.25,6.25,0,0,0-5.53,2.9c-1,1.44-1.45,3.69-1.45,6.77q0,5.7,1.73,7.83a6.86,6.86,0,0,0,9.48.4A10.46,10.46,0,0,0,108.33,30.23Z"/></svg>