<?xml version="1.0" encoding="UTF-8" standalone="no"?>
<svg
   id="Layer_1"
   data-name="Layer 1"
   viewBox="0 0 128.16 128.16"
   version="1.1"
   sodipodi:docname="TransporterRed.svg"
   inkscape:version="1.3 (0e150ed6c4, 2023-07-21)"
   xmlns:inkscape="http://www.inkscape.org/namespaces/inkscape"
   xmlns:sodipodi="http://sodipodi.sourceforge.net/DTD/sodipodi-0.dtd"
   xmlns="http://www.w3.org/2000/svg"
   xmlns:svg="http://www.w3.org/2000/svg">
  <sodipodi:namedview
     id="namedview16"
     pagecolor="#ffffff"
     bordercolor="#000000"
     borderopacity="0.25"
     inkscape:showpageshadow="2"
     inkscape:pageopacity="0.0"
     inkscape:pagecheckerboard="0"
     inkscape:deskcolor="#d1d1d1"
     inkscape:zoom="14.770599"
     inkscape:cx="64.080002"
     inkscape:cy="64.080002"
     inkscape:window-width="3840"
     inkscape:window-height="2089"
     inkscape:window-x="-8"
     inkscape:window-y="-8"
     inkscape:window-maximized="1"
     inkscape:current-layer="Layer_1" />
  <defs
     id="defs1">
    <style
       id="style1">.cls-1{fill:none;}.cls-2{clip-path:url(#clip-path);}.cls-3{fill:#00aeef;}.cls-4,.cls-5{fill:#62bb46;}.cls-5{stroke:#62bb46;stroke-linecap:round;stroke-linejoin:round;stroke-width:0.26px;}</style>
    <clipPath
       id="clip-path">
      <rect
         class="cls-1"
         width="128.16"
         height="128.16"
         id="rect1" />
    </clipPath>
  </defs>
  <g
     class="cls-2"
     clip-path="url(#clip-path)"
     id="g16">
    <path
       class="cls-3"
       d="M81.42,2.38C68,2.13,56.31,6.55,55.34,12.26a4.58,4.58,0,0,0,0,1.61c1.42-5.52,12.84-8.25,26-8,12.15.22,21.55,2.71,22.53,7.68,0-.13.09-.25.11-.39C105,7.46,94.85,2.63,81.42,2.38Z"
       id="path1" />
    <path
       class="cls-4"
       d="M18.73,125.69c15.08-2.77,26.94-10.74,26.51-17.81a6,6,0,0,0-.49-1.91c-.12,6.94-11.75,14.6-26.48,17.31-13.64,2.5-25.19-.12-27.61-5.86,0,.16,0,.33,0,.49C-8.93,125,3.65,128.46,18.73,125.69Z"
       id="path2" />
    <path
       class="cls-4"
       d="M106.78,125.69c-10.26-1.38-17.49-7.68-16.15-14.08a8,8,0,0,1,.62-1.76c-.92,6.24,6.18,12.29,16.21,13.63a24.55,24.55,0,0,0,23.72-11C129.89,122,117.31,127.1,106.78,125.69Z"
       id="path3" />
    <path
       class="cls-4"
       d="M118.23,125.52c10.53-3.7,17.19-12,14.89-18.6a8.12,8.12,0,0,0-.9-1.76c1.85,6.5-4.73,14.53-15,18.14-9.52,3.34-21.87-1.66-25.29-6.86,0,.15.07.31.13.46C94.35,123.48,107.71,129.21,118.23,125.52Z"
       id="path4" />
    <path
       class="cls-5"
       d="M32.62,76.73l-.28-.08c-5.61-1.52-10.17-2.83-11.45-3.36a6.54,6.54,0,0,1-1.37-.82l-.09-.06,23.23-6.09.21.06L55.6,70l.21.06Z"
       id="path5" />
    <path
       class="cls-5"
       d="M32.62,51.69l-.28-.08c-5.61-1.52-10.17-2.82-11.45-3.35a7.53,7.53,0,0,1-1.37-.82l-.09-.07,23.23-6.09.21.06L55.6,45l.21.07Z"
       id="path6" />
    <path
       class="cls-3"
       d="M17.91,33.4V46.19s24-6.92,28.91-8.38c10.36-3.09,6.65-22.11,6.65-22.11s-.59,6.91-10.9,10.17C33,28.89,17.91,33.4,17.91,33.4Z"
       id="path7" />
    <path
       class="cls-3"
       d="M18.4,70.51c4.28-1.09,35.44-9.07,39.12-10.6,2.72-1.14,3.06-2.73,3.06-4.45V46.34a.39.39,0,0,0-.51-.37L18.2,58a.41.41,0,0,0-.29.38v11.8A.39.39,0,0,0,18.4,70.51Z"
       id="path8" />
    <path
       class="cls-3"
       d="M17.91,95.82s35.66-9.09,39.61-10.73c2.72-1.13,3.06-2.73,3.06-4.45V71L17.91,83.22Z"
       id="path9" />
    <path
       class="cls-4"
       d="M42,107s-16.3-3.72-20.25-5.36a5.05,5.05,0,0,1-3.06-3.73l13.12-3.38s5,.75,8.25,3.3S42,107,42,107Z"
       id="path10" />
    <path
       class="cls-5"
       d="M82.29,76.73,82,76.65c-5.61-1.52-10.17-2.83-11.45-3.36a6.88,6.88,0,0,1-1.38-.82l-.08-.06,23.23-6.09.21.06L105.27,70l.21.06Z"
       id="path11" />
    <path
       class="cls-5"
       d="M82.29,51.69,82,51.61c-5.61-1.52-10.17-2.82-11.45-3.35a8,8,0,0,1-1.38-.82l-.08-.07,23.23-6.09.21.06L105.27,45l.21.07Z"
       id="path12" />
    <path
       class="cls-3"
       d="M67.58,33.4V46.19s24-6.92,28.91-8.38c10.36-3.09,6.65-22.11,6.65-22.11s-.59,6.91-10.9,10.17C82.71,28.89,67.58,33.4,67.58,33.4Z"
       id="path13" />
    <path
       class="cls-3"
       d="M68.07,70.51c4.28-1.09,35.44-9.07,39.12-10.6,2.72-1.14,3.06-2.73,3.06-4.45V46.34a.39.39,0,0,0-.51-.37L67.87,58a.41.41,0,0,0-.29.38v11.8A.39.39,0,0,0,68.07,70.51Z"
       id="path14" />
    <path
       class="cls-3"
       d="M67.58,95.82s35.66-9.09,39.61-10.73c2.72-1.13,3.06-2.73,3.06-4.45V71L67.58,83.22Z"
       id="path15" />
    <path
       class="cls-4"
       d="M91.68,107s-16.3-3.72-20.25-5.36a5,5,0,0,1-3.06-3.73l13.12-3.38s5,.75,8.25,3.3S91.68,107,91.68,107Z"
       id="path16" />
  </g>
  <g
     class="cls-8"
     id="g6"
     style="opacity:0.9"
     transform="translate(0.35765344,-0.37778125)">
    <circle
       class="cls-9"
       cx="26.51"
       cy="101.65"
       r="26.51"
       id="circle5"
       style="fill:#c32a1f" />
  </g>
  <rect
     class="cls-10"
     x="21.91765"
     y="80.162224"
     width="9.8999996"
     height="27.23"
     rx="2.48"
     id="rect6"
     style="fill:#ffffff" />
  <circle
     class="cls-10"
     cx="26.867655"
     cy="117.29222"
     r="4.9499998"
     id="circle6"
     style="fill:#ffffff" />
</svg>
