<svg id="Layer_1" data-name="Layer 1" xmlns="http://www.w3.org/2000/svg" viewBox="0 0 128.16 128.16"><defs><style>.cls-1{fill:#c32a1f;}.cls-2{fill:#e5c66e;}.cls-3{fill:#fff;}</style></defs><path class="cls-1" d="M6,18.73A68.24,68.24,0,0,0,2,37.37h5.8a67.08,67.08,0,0,1,1.82-11.5s.64-3.1,2.22-3.14S16.13,27.33,22,27.5c1.61.05,8.89-1.76,8.89-8.71v-.06c0-6.94-7.28-8.75-8.89-8.7-5.82.17-8.51,4.82-10.08,4.77s-2.22-3.14-2.22-3.14A67.08,67.08,0,0,1,7.83.16H2A68.09,68.09,0,0,0,6,18.79Z"/><path class="cls-2" d="M38.57,15.17a13,13,0,0,1-3-.68c-2.52-.73-3.93-4.85-4.73-6.16S27.91,3.92,21,3.92,11.14,7.36,10.56,9.11a6.24,6.24,0,0,0-.1,2.66,1.7,1.7,0,0,0,2.91,1.17C14.53,12,18.6,9,22.09,9s9.84,2.86,9.84,10.91S23.5,29,21.42,29s-3.74-.39-7.57-3S9.54,28,10,29.32s4.07,5.57,11.68,5.57S30.87,30,33,26.94s4.26-4.57,7.68-4.75S54.3,21.55,60,20.58s4.16-.44,4.16,3.71.1,32,0,34.65.17,5,1,6.5c.63,1.16,1.85,1.42,2,3v32.67S67.8,115.94,79,115.94c14.83,0,14.83-17.31,14.83-17.31V95.19s2.58-.75,2.58-4.75c0-10.7-.08-55.67-.08-55.67s-.5-5.83,5.83-5.83c4.42,0,4,6.5,4,6.5v92.72h20V0H106.05V22.52S87.55,18,87.55,32.77v58.5A5,5,0,0,0,90,95.19s-.17,15.92-9.42,15.92-8.33-10.59-8.33-12.5V68.52c0-1.66,2-2,2.91-3.16s1.25-4.34,1.25-6.92V16.61s-.25-4.68-6.91-4.26S62.88,15,56.72,15.52,38.57,15.17,38.57,15.17Z"/><path class="cls-3" d="M21.22,14.39a22.59,22.59,0,0,0,5-.73.16.16,0,0,0,.11-.13.15.15,0,0,0-.08-.14A13.23,13.23,0,0,0,21,12.21a9.76,9.76,0,0,0-4.83,1.18.15.15,0,0,0-.06.15.14.14,0,0,0,.1.12A22.83,22.83,0,0,0,21.22,14.39Z"/><path class="cls-3" d="M21.22,18.12a65.8,65.8,0,0,0,6.71-.58.15.15,0,0,0,0-.28,18.82,18.82,0,0,0-7.24-1.37,13.9,13.9,0,0,0-6.46,1.38.12.12,0,0,0-.07.15.15.15,0,0,0,.12.12S18.82,18.12,21.22,18.12Z"/><path class="cls-3" d="M21,23.2a22,22,0,0,0-5,.73.16.16,0,0,0-.11.13.16.16,0,0,0,.08.14,13.23,13.23,0,0,0,5.3,1.18,9.58,9.58,0,0,0,4.83-1.19.15.15,0,0,0,0-.26A22.07,22.07,0,0,0,21,23.2Z"/><path class="cls-3" d="M21,19.47a65.8,65.8,0,0,0-6.71.58.15.15,0,0,0-.12.12.13.13,0,0,0,.08.15,18.07,18.07,0,0,0,7,1.38h.21A13.85,13.85,0,0,0,28,20.32a.14.14,0,0,0,.07-.16.14.14,0,0,0-.12-.11C27.88,20,23.43,19.47,21,19.47Z"/><path class="cls-3" d="M8.82,26.08l-1-3.79L5,25l1.47.41C5.64,29.19,4.86,33.9,4.85,34l.86.14c0-.05.78-4.71,1.64-8.41Z"/><path class="cls-3" d="M8.28,14.71c0-.05-1.27-4.6-2-8.33l1.5-.25-2.5-3L3.87,6.78l1.51-.25c.78,3.76,2.05,8.36,2.06,8.41Z"/><polygon points="66.11 41.04 23.87 48.19 33.62 59.96 6.51 82.4 14.34 91.85 41.44 69.42 51.19 81.19 66.11 41.04"/><polygon class="cls-1" points="119.47 35.11 119.47 13.3 112.47 13.3 112.47 35.11 108.98 35.11 115.97 47.2 122.95 35.11 119.47 35.11"/></svg>