<svg id="Layer_1" data-name="Layer 1" xmlns="http://www.w3.org/2000/svg" viewBox="0 0 128.16 128.16"><defs><style>.cls-1{fill:#62bb46;fill-rule:evenodd;}.cls-2{fill:#6d6e70;}.cls-3{fill:gray;}.cls-4{fill:#f18a00;}.cls-5{fill:#fff;}</style></defs><path class="cls-1" d="M29.43,42.54a2.9,2.9,0,0,0,4.08,0L45.73,30.38a2.86,2.86,0,0,0-.15-4.05,2.89,2.89,0,0,0-3.92,0L31.47,36.45l-6.11-6.07a2.9,2.9,0,0,0-4.08,0,2.85,2.85,0,0,0,0,4.05ZM33.51,59A25.8,25.8,0,1,0,7.58,33.24,25.87,25.87,0,0,0,33.51,59Z"/><g id="Scatter"><g id="Simulation"><path class="cls-2" d="M117.3,125.44H10.86a8.56,8.56,0,0,1-8.56-8.51V10.6a8.56,8.56,0,0,1,8.56-8.51H117.3a8.56,8.56,0,0,1,8.56,8.51V116.93A8.56,8.56,0,0,1,117.3,125.44ZM10.86,3.36A7.28,7.28,0,0,0,3.58,10.6V116.93a7.27,7.27,0,0,0,7.28,7.23H117.3a7.27,7.27,0,0,0,7.28-7.23V10.6a7.28,7.28,0,0,0-7.28-7.24Z"/></g></g><path class="cls-3" d="M94.65,15.4A17.84,17.84,0,1,1,76.72,33.24,17.89,17.89,0,0,1,94.65,15.4m0-8a25.8,25.8,0,1,0,25.93,25.8A25.87,25.87,0,0,0,94.65,7.44Z"/><path class="cls-3" d="M33.51,76.45A17.84,17.84,0,1,1,15.58,94.29h0A17.9,17.9,0,0,1,33.51,76.45m0-8a25.8,25.8,0,1,0,25.93,25.8h0A25.87,25.87,0,0,0,33.51,68.49Z"/><path class="cls-3" d="M94.65,76.45A17.84,17.84,0,1,1,76.72,94.29h0A17.9,17.9,0,0,1,94.65,76.45m0-8a25.8,25.8,0,1,0,25.93,25.8h0A25.87,25.87,0,0,0,94.65,68.49Z"/><circle class="cls-4" cx="90.49" cy="90.49" r="35.51"/><path class="cls-5" d="M90.49,128.16a37.67,37.67,0,1,1,37.67-37.67A37.71,37.71,0,0,1,90.49,128.16Zm0-71a33.35,33.35,0,1,0,33.35,33.35A33.39,33.39,0,0,0,90.49,57.14Z"/><path class="cls-5" d="M102.26,71.25,90.49,83,78.72,71.25a5.28,5.28,0,0,0-7.47,7.47L83,90.49,71.25,102.26a5.28,5.28,0,0,0,7.47,7.47h0L90.49,98l11.76,11.77h0a5.28,5.28,0,0,0,7.47-7.47L98,90.49l11.77-11.76h0a5.28,5.28,0,0,0-7.47-7.47Z"/></svg>