<?xml version="1.0" encoding="utf-8"?>
<!-- Generator: Adobe Illustrator 24.3.0, SVG Export Plug-In . SVG Version: 6.00 Build 0)  -->
<svg version="1.1" id="Layer_1" xmlns="http://www.w3.org/2000/svg" xmlns:xlink="http://www.w3.org/1999/xlink" x="0px" y="0px"
	 viewBox="0 0 128.2 128.2" style="enable-background:new 0 0 128.2 128.2;" xml:space="preserve">
<style type="text/css">
	.st0{fill:#00AEEF;}
	.st1{fill:#62BB46;}
</style>
<g>
	<circle class="st0" cx="23.3" cy="23.7" r="22.8"/>
	<circle class="st1" cx="104.8" cy="23.7" r="22.8"/>
	<polygon points="75.5,22.7 50.4,37 57.4,23.3 50.4,9.6 	"/>
	<path d="M89.8,73.4H65.6V60.2H82c0.8,0,1.5-0.7,1.5-1.5s-0.7-1.5-1.5-1.5H46.2c-0.8,0-1.5,0.7-1.5,1.5s0.7,1.5,1.5,1.5h16.4v13.2
		H37.9c-0.6,0-1,0.4-1,1v51.9c0,0.6,0.4,1,1,1h51.9c0.6,0,1-0.4,1-1V74.4C90.8,73.9,90.3,73.4,89.8,73.4z M88.8,125.3H38.9V75.4
		h49.9V125.3z"/>
	<g>
		<path d="M54.2,86h5.2v13.4c0,2.1,0.1,3.5,0.2,4.1c0.2,1,0.8,1.8,1.6,2.4s2,0.9,3.5,0.9c1.5,0,2.6-0.3,3.4-0.9s1.2-1.3,1.4-2.1
			c0.2-0.8,0.2-2.2,0.2-4.2V86h5.2v13c0,3-0.1,5.1-0.4,6.3c-0.3,1.2-0.8,2.3-1.6,3.1c-0.8,0.8-1.8,1.5-3,2c-1.3,0.5-2.9,0.7-5,0.7
			c-2.5,0-4.3-0.3-5.6-0.8s-2.3-1.3-3-2.1c-0.7-0.9-1.2-1.8-1.5-2.7c-0.3-1.4-0.5-3.5-0.5-6.3L54.2,86L54.2,86z"/>
	</g>
</g>
</svg>
