<svg id="Layer_1" data-name="Layer 1" xmlns="http://www.w3.org/2000/svg" viewBox="0 0 128.16 128.16"><defs><style>.cls-1{fill:#00aeef;fill-rule:evenodd;}.cls-2{fill:#fff;}</style></defs><path class="cls-1" d="M38.55,2.17H89.61c8.73,0,8.73,14.62,0,14.62-20.56,0-20.87,26.27.38,26.27a13,13,0,0,1,13,13V113a13,13,0,0,1-13,13H38.17a13,13,0,0,1-13-13V56.06a13,13,0,0,1,13-13c21.25,0,20.94-26.27.38-26.27C29.82,16.79,29.82,2.17,38.55,2.17Z"/><path class="cls-2" d="M75.12,53.43c0,5.76-4.32,10.32-11.16,10.32S53,59.19,53,53.43s4.32-10.21,11-10.21S75,47.55,75.12,53.43ZM53.28,115.31V69.75h21.6v45.56Z"/></svg>