<svg id="Layer_1" data-name="Layer 1" xmlns="http://www.w3.org/2000/svg" viewBox="0 0 128.16 128.16"><defs><style>.cls-1{fill:#f18a00;}.cls-2{fill:#fff;}</style></defs><g id="Simulation_Run_Ribbon" data-name="Simulation Run Ribbon"><path class="cls-1" d="M1.08,64.08a63,63,0,1,0,63-63A63,63,0,0,0,1.08,64.08Z"/><path class="cls-2" d="M105,80.29c0,1.41-1,2.9-3.66,2.9H26.79c-2.7,0-3.62-1.49-3.62-2.9a5,5,0,0,1,1.44-3.22L59.69,36.84A5.64,5.64,0,0,1,67.61,36a6.28,6.28,0,0,1,.86.85l35.08,40.23A5,5,0,0,1,105,80.29Z"/></g></svg>