<svg id="Layer_1" data-name="Layer 1" xmlns="http://www.w3.org/2000/svg" viewBox="0 0 128.16 128.16"><defs><style>.cls-1{fill:#fff;}.cls-2{fill:none;}.cls-3{fill:#00aeef;}.cls-4{isolation:isolate;}.cls-5{fill:#6d6e70;}.cls-6{fill:#f18a00;}</style></defs><g id="Extras_Display_Units_and_Favorites_Ribbon" data-name="Extras Display Units and Favorites Ribbon"><rect class="cls-1" x="6.28" y="5.76" width="105.43" height="84.07" rx="7"/><path class="cls-2" d="M55.93,85h48.78a2.15,2.15,0,0,0,2.15-2.15V12.76a2.15,2.15,0,0,0-2.15-2.15H13.28a2.15,2.15,0,0,0-2.15,2.15V82.83A2.15,2.15,0,0,0,13.28,85H44.72l5.61-5.61Z"/><path class="cls-3" d="M104.71.91H13.28A11.86,11.86,0,0,0,1.44,12.76V82.83A11.85,11.85,0,0,0,13.28,94.67H35l-11.8,11.81H77.4L65.61,94.67h39.1a11.86,11.86,0,0,0,11.85-11.84V12.76A11.87,11.87,0,0,0,104.71.91Zm2.15,81.92A2.15,2.15,0,0,1,104.71,85H13.28a2.15,2.15,0,0,1-2.15-2.15V12.76a2.15,2.15,0,0,1,2.15-2.15h91.43a2.15,2.15,0,0,1,2.15,2.15Z"/><rect class="cls-3" x="20.4" y="34.48" width="29.93" height="35.88" rx="3.78"/><path class="cls-3" d="M43.57,24.87a8,8,0,0,1-8,8h0a8.26,8.26,0,0,1-8-8h0a8,8,0,0,1,8-8h.21a8,8,0,0,1,8,8.05Z"/><g class="cls-4"><path class="cls-5" d="M72.55,28.55c0,4.81-3,7.35-6.36,7.35-3.5,0-6.26-2.61-6.26-7,0-4.1,2.51-7.21,6.47-7.21S72.55,24.63,72.55,28.55Zm-8.62.28c0,2.41.81,4.14,2.36,4.14s2.27-1.56,2.27-4.17c0-2.33-.64-4.14-2.34-4.14S63.93,26.5,63.93,28.83Zm2.51,16.66L79.66,21.76h2.86L69.33,45.49ZM89.1,38.1c0,4.77-3,7.32-6.37,7.32s-6.22-2.62-6.22-6.93c0-4.11,2.51-7.22,6.44-7.22S89.1,34.17,89.1,38.1Zm-8.59.24c0,2.41.81,4.14,2.33,4.14s2.26-1.55,2.26-4.14c0-2.33-.63-4.13-2.29-4.13S80.51,36.05,80.51,38.34Z"/></g><circle class="cls-6" cx="90.27" cy="90.27" r="35.72"/><path class="cls-1" d="M90.27,128.16a37.89,37.89,0,1,1,37.89-37.89h0A37.88,37.88,0,0,1,90.27,128.16Zm0-71.4a33.55,33.55,0,1,0,33.55,33.55v0A33.56,33.56,0,0,0,90.27,56.76Z"/><polygon class="cls-1" points="95.3 77.72 86.77 77.72 87.66 68.79 94.45 68.79 95.3 77.72"/><path class="cls-1" d="M112.51,94.45v-6.8L106.27,87a16,16,0,0,0-1.63-4.12l4.13-5L104,73.05l-4.91,4a15.7,15.7,0,0,0-4-1.81l-.62-6.5H87.66L87,75.1a15.47,15.47,0,0,0-4.09,1.58l-5.06-4.15-4.83,4.79,4,4.88a16.08,16.08,0,0,0-1.85,4l-6.44.64v6.8l6.15.58a16,16,0,0,0,1.59,4.28l-4,4.91,4.79,4.79L82,104.39a15.58,15.58,0,0,0,4.29,1.93l.61,6.19h6.8l.57-6a15.93,15.93,0,0,0,4.34-1.7l4.86,4,4.79-4.78-3.9-4.73a15.66,15.66,0,0,0,1.82-4.21Zm-27.42,1.8a8,8,0,0,1-.21-11.37l.21-.21a8,8,0,1,1,0,11.58Z"/></g></svg>