<svg id="Layer_1" data-name="Layer 1" xmlns="http://www.w3.org/2000/svg" viewBox="0 0 128.16 128.16"><defs><style>.cls-1{fill:#f18a00;}.cls-2{fill:#00aeef;}</style></defs><path class="cls-1" d="M58,.18A23.53,23.53,0,0,0,32.79,19.57H15.51V11.86a2,2,0,0,0-3.44-1.43L.59,21.91a2,2,0,0,0,0,2.88l11.48,11a2,2,0,0,0,3.41-1.46V26.69h17a23.46,23.46,0,0,0,14.24,19A11.12,11.12,0,0,1,44.66,39V27.88A11.4,11.4,0,0,1,58.13,16.67a11.65,11.65,0,0,1,9.31,11.57V39a12.25,12.25,0,0,1-2.13,6.64A23.73,23.73,0,0,0,58,.18Z"/><path class="cls-1" d="M75.66,19.66H98.57V12.59a2.21,2.21,0,0,1,3.81-1.53l10.36,10.83a2.21,2.21,0,0,1,0,3.09L102.35,35.35a2.22,2.22,0,0,1-3.78-1.57v-7H76.82"/><path class="cls-2" d="M56.29,13.88h0A13,13,0,0,0,43.47,26.69V88.17H26.14C20.92,88.17,15,89.36,14,98.62c-.95,10.68,10.44,14,15.42,15.43l4.28,1.18a16.42,16.42,0,0,1,3.56,1.67c5.93,3.79,8.07,11.15,8.07,11.15h82.79V77.25a12.76,12.76,0,0,0-12.82-12.81,13.68,13.68,0,0,0-3.08.47,14.56,14.56,0,0,0-4.75,2.14c-1.19-4.75-5-9-9.73-10a11.45,11.45,0,0,0-2.85-.24,12,12,0,0,0-8.07,2.85A13.27,13.27,0,0,0,77.6,50a13.79,13.79,0,0,0-3.09-.48,13.32,13.32,0,0,0-5.15,1l0-23.27A13.74,13.74,0,0,0,58.9,14.11,11,11,0,0,0,56.29,13.88Zm0,4.74a4.59,4.59,0,0,1,1.66.24c3.56.71,6.41,4.75,6.41,8.31v51c1.19,1.43,2.14,2.38,3.32,3.8l1.43-.24V62.3c0-4.51.66-8.07,5.17-8.07a4.53,4.53,0,0,1,1.89.24,8.41,8.41,0,0,1,6.18,8.3V82.48c1.18,1.18,1.9,1.66,3.08,2.85h1.43V69.18a7.7,7.7,0,0,1,7.83-7.59,5.39,5.39,0,0,1,1.9.23A8.64,8.64,0,0,1,103,69.9V86.51l3.08,3.09h1.43V77a7.44,7.44,0,0,1,5.7-7.6,5.8,5.8,0,0,1,1.89-.24,8,8,0,0,1,8.08,8.07v46.32H49s-3.13-10.75-18.58-14c-5.8-1.24-12.58-4.28-11.86-10.45.47-5,2.37-6.17,7.35-6.17H43.23c3.56,0,4.75-1.66,4.75-5.46V26.69a8.37,8.37,0,0,1,8.31-8.07"/></svg>