<svg id="Layer_1" data-name="Layer 1" xmlns="http://www.w3.org/2000/svg" viewBox="0 0 128.16 128.16"><defs><style>.cls-1{fill:#00aeef;}.cls-2{fill:#fff;}</style></defs><rect class="cls-1" x="2.42" y="2.21" width="123.32" height="123.74" rx="9.58"/><path class="cls-2" d="M85.91,113.6c-2.22-1.13-12.07-5.36-14-7.09-5.09-4.62-8.86-10.3-9.75-17.13-1.66-12.67,4.48-23.22,16.5-27.62.29-.11.62-1.62.8-1.88a15.59,15.59,0,0,0,1.08-1.8,4.14,4.14,0,0,0-.36-4.58l-.3-.43a4,4,0,0,1-.63-3.84,35.34,35.34,0,0,0,1.77-9.67,15.53,15.53,0,0,0-1.47-7.11,20.73,20.73,0,0,0-4.8-7,4.13,4.13,0,0,0-3.31-1.14,6.37,6.37,0,0,1-5.92-2.63,5.76,5.76,0,0,0-3.82-2.28,38,38,0,0,0-10-.36,21.46,21.46,0,0,0-6.65,1.53,16,16,0,0,0-9.25,10.17,30.82,30.82,0,0,0-1.61,11.63,20.16,20.16,0,0,0,1.5,7,4.1,4.1,0,0,1-.35,4.4A4.23,4.23,0,0,0,35,58.4a12.1,12.1,0,0,0,3.15,4.43,8.82,8.82,0,0,1,2.19,3.08c1,2.19,1.91,4.42,2.9,6.62a12,12,0,0,0,3.26,4.54,9.07,9.07,0,0,0,1,.66,4,4,0,0,1,1.92,3.33,11.87,11.87,0,0,1-1.27,6.65,11,11,0,0,1-8.69,5.71,25,25,0,0,0-12.18,4.63A14.89,14.89,0,0,0,21,107.79a24.93,24.93,0,0,0-.24,2.73c-.12,2.12-1.56,3.21-3.56,3.42Zm2.56-7.09A20,20,0,0,0,108.35,86.6c0-11-9.9-20.88-20.87-20.89a20,20,0,0,0-20,19.91C67.5,96.55,77.51,106.52,88.47,106.51Z"/><path d="M58.28,11.46c1,.11,2,.19,3,.32a16.08,16.08,0,0,1,8.11,3.05,21.65,21.65,0,0,1,1.67,1.65c.14.13.33.3.49.29A11.28,11.28,0,0,1,80,20.09a28.21,28.21,0,0,1,7,10.36,23.69,23.69,0,0,1,1.55,12.61c-.3,2.21-.86,4.4-1.29,6.6a1,1,0,0,0,0,.58c1.7,3.45,1.88,4.65,1.27,8.45,1.18.12,2.36.18,3.53.36a27.19,27.19,0,0,1,18.42,11.09,25.8,25.8,0,0,1,5.3,16c-.18,11.24-5.33,19.62-15.26,24.81a27.59,27.59,0,0,1-39.7-21.22A27.68,27.68,0,0,1,78.6,60.5a1.71,1.71,0,0,0,.74-.59,15.39,15.39,0,0,0,1.07-1.79,4.11,4.11,0,0,0-.35-4.53l-.31-.42a4.07,4.07,0,0,1-.62-3.81,35,35,0,0,0,1.76-9.57,15.52,15.52,0,0,0-1.46-7,20.56,20.56,0,0,0-4.75-6.93,4.13,4.13,0,0,0-3.28-1.13,6.34,6.34,0,0,1-5.86-2.6,5.71,5.71,0,0,0-3.78-2.26,37.24,37.24,0,0,0-9.89-.36A21.37,21.37,0,0,0,45.28,21a15.8,15.8,0,0,0-9.16,10.06,30.66,30.66,0,0,0-1.59,11.52A19.72,19.72,0,0,0,36,49.48a4.07,4.07,0,0,1-.35,4.36,4.18,4.18,0,0,0-.39,4.61,11.92,11.92,0,0,0,3.13,4.38,8.88,8.88,0,0,1,2.16,3c1,2.17,1.89,4.38,2.87,6.55a11.76,11.76,0,0,0,3.23,4.5c.3.24.63.44.95.65a4,4,0,0,1,1.9,3.3,11.73,11.73,0,0,1-1.26,6.58,10.91,10.91,0,0,1-8.61,5.66,24.66,24.66,0,0,0-12,4.58,14.75,14.75,0,0,0-6.18,9.64c-.14.89-.18,1.8-.24,2.71a3.93,3.93,0,0,1-7.79.75,1.11,1.11,0,0,0-.09-.19v-2.2c.09-.63.16-1.27.25-1.9A22,22,0,0,1,21,92.93a31.74,31.74,0,0,1,17.53-7.64,3.32,3.32,0,0,0,2.9-1.84.46.46,0,0,0-.11-.64,21.41,21.41,0,0,1-5.54-8.06c-.74-1.73-1.43-3.47-2.17-5.2a2.91,2.91,0,0,0-.61-1,20.61,20.61,0,0,1-5.44-8.25A11,11,0,0,1,28,51.18a.85.85,0,0,0,0-.59,29.75,29.75,0,0,1-1.23-6.34,36.84,36.84,0,0,1,1.66-15A25.35,25.35,0,0,1,35.57,18,25.9,25.9,0,0,1,50,11.78c1.07-.13,2.14-.21,3.22-.32Zm30,94.62A19.71,19.71,0,1,0,68.46,86.39,19.75,19.75,0,0,0,88.24,106.08Z"/><path d="M85.83,88.72h-.68c-2.44,0-4.88,0-7.32,0a2.37,2.37,0,1,1,0-4.73c2.42,0,4.84,0,7.26,0h.69v-.66c0-2.46,0-4.92,0-7.37a2.34,2.34,0,0,1,2.1-2.5,2.28,2.28,0,0,1,2.54,1.82,4.35,4.35,0,0,1,.07.88q0,3.55,0,7.11V84h.63c2.45,0,4.91,0,7.37,0a2.41,2.41,0,0,1,2.5,1.8,2.32,2.32,0,0,1-1.82,2.87,5.21,5.21,0,0,1-.88.06h-7.8v.65c0,2.46,0,4.92,0,7.37a2.33,2.33,0,0,1-2.09,2.51,2.3,2.3,0,0,1-2.58-2c-.08-.93,0-1.88,0-2.82Z"/></svg>