<svg id="Layer_1" data-name="Layer 1" xmlns="http://www.w3.org/2000/svg" viewBox="0 0 128.16 128.16"><defs><style>.cls-1{fill:#00aeef;}</style></defs><g id="ValueOriginSourceDatabase.png_" data-name="ValueOriginSourceDatabase.png
"><path class="cls-1" d="M125.72,119.32c0,4.29-3.21,7.78-7.17,7.78H9.61c-4,0-7.17-3.49-7.17-7.78V8.84c0-4.29,3.21-7.78,7.17-7.78H118.55c4,0,7.17,3.49,7.17,7.78Zm-8.3-110H10.74V118.81H117.42Z"/><path class="cls-1" d="M64.08,24.56c-20.46,0-37,3.54-37,7.91V44.19c0,4.37,16.59,7.92,37.05,7.92s37.05-3.55,37.05-7.92V32.47C101.13,28.1,84.54,24.56,64.08,24.56Zm0,9.21c-16.18,0-29.29-1.38-29.29-3.07s13.11-3.07,29.29-3.07S93.37,29,93.37,30.7,80.26,33.77,64.08,33.77Z"/><path class="cls-1" d="M100,55.8a34.85,34.85,0,0,1-9.09,3,134.6,134.6,0,0,1-26.84,2.39,134.6,134.6,0,0,1-26.84-2.39,34.85,34.85,0,0,1-9.09-3A2.62,2.62,0,0,0,27,57.73V69.45c0,4.37,16.59,7.92,37.05,7.92s37.05-3.55,37.05-7.92V57.73A2.62,2.62,0,0,0,100,55.8Z"/><path class="cls-1" d="M99.23,81.46a38.57,38.57,0,0,1-8.31,2.59,134.6,134.6,0,0,1-26.84,2.39,134.6,134.6,0,0,1-26.84-2.39,38.57,38.57,0,0,1-8.31-2.59C27.7,82.24,27,83.09,27,84V95.69c0,4.37,16.59,7.91,37.05,7.91s37.05-3.54,37.05-7.91V84C101.13,83.09,100.46,82.24,99.23,81.46Z"/></g></svg>