<svg id="Layer_1" data-name="Layer 1" xmlns="http://www.w3.org/2000/svg" viewBox="0 0 128.16 128.16"><defs><style>.cls-1{fill:#00aeef;}.cls-2{fill:none;}.cls-3{fill:#fff;}</style></defs><g id="ValueOriginSourceParameterIdentification.png_" data-name="ValueOriginSourceParameterIdentification.png
"><path class="cls-1" d="M125.72,119.32c0,4.29-3.21,7.78-7.17,7.78H9.61c-4,0-7.17-3.49-7.17-7.78V8.84c0-4.29,3.21-7.78,7.17-7.78H118.55c4,0,7.17,3.49,7.17,7.78Zm-8.3-110H10.74V118.81H117.42Z"/><path class="cls-2" d="M64.08,21.36A42.72,42.72,0,1,0,106.8,64.08,42.77,42.77,0,0,0,64.08,21.36Zm24,66a33.32,33.32,0,1,1-6.48-52.12l0,.38-5.44,5.92a25.13,25.13,0,1,0,10.6,10.6l5.93-5.44.38,0A33.3,33.3,0,0,1,88.06,87.37ZM60.3,67.59c3.31,3.31,5.13,4.43,8.44,1.13,1.37-1.38,3.89-2,4.12-3.8l7.28-6.69A16.65,16.65,0,1,1,70.08,48.17L63.4,55.45c-1.79.24-1.72,3.09-3.1,4.46C57,63.22,57,64.29,60.3,67.59Z"/><path class="cls-1" d="M64.08,21.36A42.72,42.72,0,1,0,106.8,64.08,42.77,42.77,0,0,0,64.08,21.36Z"/><path class="cls-3" d="M93.07,46.73l-.38,0-5.93,5.44a25.12,25.12,0,1,1-10.6-10.6l5.44-5.92,0-.38A33.3,33.3,0,1,0,93.07,46.73Z"/><path class="cls-3" d="M80.14,58.23l-7.28,6.69c-2.11,1.82-2.61,2.58-4.12,3.8-3.29,2.64-5.12,1.85-8.44-1.13-3.48-3.12-3.3-4.37,0-7.68a21.49,21.49,0,0,0,3.1-4.46l6.68-7.28A16.66,16.66,0,1,0,80.14,58.23Z"/><path class="cls-1" d="M64.7,68.62a5.3,5.3,0,0,1-5-5,4.11,4.11,0,0,1,1.27-3L83.37,36.26,83,29.91a3.54,3.54,0,0,1,.64-2.21L92,15.88a2.7,2.7,0,0,1,2.19-1.14,2.34,2.34,0,0,1,.38,0,2.62,2.62,0,0,1,2.16,1.79l3.85,11.21,11.23,3.86a2.68,2.68,0,0,1,.66,4.73L100.6,44.65a3.46,3.46,0,0,1-2,.64h-.18L92.05,45,67.61,67.41A4,4,0,0,1,64.7,68.62Z"/><path class="cls-3" d="M94.15,16.62h.12a.79.79,0,0,1,.64.53l4.15,12.09,12.1,4.16a.78.78,0,0,1,.53.64.76.76,0,0,1-.33.76L99.52,43.12a1.63,1.63,0,0,1-.93.29h-.08L91.36,43l-25,23a2.28,2.28,0,0,1-1.64.71,3,3,0,0,1-2.13-1c-1.13-1.12-1.4-2.66-.28-3.77l23-25-.37-7.14a1.58,1.58,0,0,1,.29-1L93.5,17a.81.81,0,0,1,.65-.33m0-3.76a4.56,4.56,0,0,0-3.7,1.9L82.12,26.64a5.38,5.38,0,0,0-1,3.37l.3,5.56L59.56,59.39a6,6,0,0,0-1.75,4.23A7.17,7.17,0,0,0,64.7,70.5a6,6,0,0,0,4.23-1.75L92.74,46.87l5.57.29h.28a5.41,5.41,0,0,0,3.09-1l11.84-8.31a4.56,4.56,0,0,0-1.15-8L102,26.29,98.47,15.94a4.52,4.52,0,0,0-3.69-3,4.17,4.17,0,0,0-.63,0Z"/></g></svg>