<svg id="Layer_1" data-name="Layer 1" xmlns="http://www.w3.org/2000/svg" viewBox="0 0 128.16 128.16"><defs><style>.cls-1{fill:#00aeef;}</style></defs><path class="cls-1" d="M118.55,1.06H9.61c-4,0-7.17,3.49-7.17,7.78V119.32c0,4.29,3.21,7.78,7.17,7.78H118.55c4,0,7.17-3.49,7.17-7.78V8.84C125.72,4.55,122.51,1.06,118.55,1.06Zm-1.13,117.75H10.74V9.35H117.42Z"/><path class="cls-1" d="M64.08,109.4a45.31,45.31,0,0,0,36.23-72.53l.13-.07L97,32.86l-.63-.65,0,0a45.23,45.23,0,0,0-64.39,0l-.07,0-3.2,3.61-.82,1,.07,0A45.3,45.3,0,0,0,64.08,109.4ZM41.31,67.6a80,80,0,0,0,2.22,16.12,51.08,51.08,0,0,0-10.7,4A38.91,38.91,0,0,1,25,67.6Zm7,0h12.2V81.26a85.51,85.51,0,0,0-10.15,1A71.88,71.88,0,0,1,48.36,67.6Zm-3.07,22a41.69,41.69,0,0,0,5.62,10.83,39.29,39.29,0,0,1-13.44-8.14A50,50,0,0,1,45.29,89.57Zm15.27-2.21V100c-3.12-1.9-6.11-6.16-8.3-11.87A77.51,77.51,0,0,1,60.56,87.36Zm-10-42.07.71.11.31,0,1,.15,1.1.13,3.4.34c.45,0,.91.07,1.36.09h.1l.84.05,1.17,0v14.3H48.36A71,71,0,0,1,50.56,45.29Zm8.16-5.22L57.8,40l-.87-.07-1.19-.11-.94-.11-1.08-.13-.88-.12-.35-.05c2.19-5.49,5-9.46,8.07-11.28v12l-.69,0ZM45.51,38,45.23,38l-1.74-.48-.29-.09-1.43-.45-.61-.21-1-.37L39.21,36l-.64-.26L38,35.5l-.09,0-.45-.2a39.25,39.25,0,0,1,14.11-8.35A39.28,39.28,0,0,0,45.51,38Zm-9.82,3.12.58.24.25.1.93.38.7.26.13,0c.33.13.67.25,1,.36l.91.31,1,.32.91.27,1.06.3.52.13a79.29,79.29,0,0,0-2.37,16.71H25a39,39,0,0,1,8.15-20.62c.28.15.55.29.83.42l.46.22.61.27Zm40.22,47c-2.2,5.71-5.19,10-8.31,11.87V87.36A78,78,0,0,1,75.91,88.16Zm14.34-52.7-.09,0-.58.24L88.9,36l-.87.34-1,.37-.6.21-1.53.48-.18.05L82.93,38l-.28.07a39.28,39.28,0,0,0-6.07-11.11,39.25,39.25,0,0,1,14.11,8.35Zm-14.94,4-.86.12-1.16.14-.87.1-1.2.11-.85.07-1,.07-1.13.07-.69,0v-12c3,1.82,5.89,5.8,8.08,11.29Zm-5.75,6.7h.15l1.37-.09,3.4-.34,1.09-.13,1-.15.3,0,.72-.11a70.75,70.75,0,0,1,2.2,15.27H67.6V46.26l1.16,0Zm17.29,14.4a78.65,78.65,0,0,0-2.37-16.71l.53-.14,1-.29.91-.27,1-.33.86-.29c.34-.11.67-.23,1-.36l.13-.05.69-.26,1-.4.17-.07.62-.26.69-.31.49-.22.5-.24c.29-.13.56-.27.84-.42a39,39,0,0,1,8.15,20.62Zm3.84,31.7a39.29,39.29,0,0,1-13.44,8.14,41.69,41.69,0,0,0,5.62-10.83A50,50,0,0,1,90.69,92.26Zm-23.09-11V67.6H79.8a72,72,0,0,1-2,14.67A85.51,85.51,0,0,0,67.6,81.26ZM103.15,67.6a39,39,0,0,1-7.82,20.16,52,52,0,0,0-10.7-4A79.25,79.25,0,0,0,86.84,67.6Z"/></svg>