<svg id="Layer_1" data-name="Layer 1" xmlns="http://www.w3.org/2000/svg" viewBox="0 0 128.16 128.16"><defs><style>.cls-1{fill:#00aeef;}</style></defs><g id="ValueOriginSourceUnknown.png"><path class="cls-1" d="M125.72,119.32c0,4.29-3.21,7.78-7.17,7.78H9.61c-4,0-7.17-3.49-7.17-7.78V8.84c0-4.29,3.21-7.78,7.17-7.78H118.55c4,0,7.17,3.49,7.17,7.78Zm-8.3-110H10.74V118.81H117.42Z"/><path class="cls-1" d="M71.17,76.77H54.28V75.08a20.87,20.87,0,0,1,1-7,15.46,15.46,0,0,1,2.91-4.91,88.81,88.81,0,0,1,8.69-7.82q3.6-2.94,3.6-5.38A5,5,0,0,0,69,46.17a6.2,6.2,0,0,0-4.37-1.35,7,7,0,0,0-5.22,2.09Q57.35,49,56.77,54.19L39.53,52.06q.88-9.51,6.91-15.31T64.9,31Q74.59,31,80.54,35q8.08,5.46,8.09,14.57a14.09,14.09,0,0,1-2.09,7.29Q84.46,60.37,78,65.44q-4.49,3.56-5.67,5.7A11.8,11.8,0,0,0,71.17,76.77ZM53.7,81.25H71.79v16H53.7Z"/></g></svg>