<svg id="Layer_1" data-name="Layer 1" xmlns="http://www.w3.org/2000/svg" viewBox="0 0 128.16 128.16"><defs><style>.cls-1{fill:#62bb46;}</style></defs><g id="ValueOriginMethodAssumption.png_" data-name="ValueOriginMethodAssumption.png
"><path class="cls-1" d="M125.72,119.32c0,4.29-3.21,7.78-7.17,7.78H9.61c-4,0-7.17-3.49-7.17-7.78V8.84c0-4.29,3.21-7.78,7.17-7.78H118.55c4,0,7.17,3.49,7.17,7.78Zm-8.3-110H10.74V118.81H117.42Z"/><path class="cls-1" d="M17.94,46.05l9.26-.58a7,7,0,0,0,1.23,3.44,5.14,5.14,0,0,0,4.29,1.91,4.75,4.75,0,0,0,3.22-1,2.91,2.91,0,0,0,1.12-2.26A2.86,2.86,0,0,0,36,45.39q-1.08-1-5-1.83-6.39-1.44-9.13-3.82a7.71,7.71,0,0,1-2.75-6.08,8.25,8.25,0,0,1,1.41-4.59,9.4,9.4,0,0,1,4.23-3.4,19.89,19.89,0,0,1,7.75-1.23q6,0,9.2,2.24c2.12,1.5,3.37,3.88,3.78,7.15l-9.18.53a4.94,4.94,0,0,0-1.53-3.09,5,5,0,0,0-3.24-1A3.88,3.88,0,0,0,29,31a2.19,2.19,0,0,0-.86,1.75,1.75,1.75,0,0,0,.7,1.36,8.12,8.12,0,0,0,3.27,1.16,41,41,0,0,1,9.14,2.78,9.64,9.64,0,0,1,4,3.49,8.83,8.83,0,0,1,1.26,4.66,10,10,0,0,1-1.68,5.59,10.55,10.55,0,0,1-4.68,3.88A19,19,0,0,1,32.57,57q-8,0-11.13-3.09A12.24,12.24,0,0,1,17.94,46.05Z"/><path class="cls-1" d="M51.39,25H77.48V31.7H61.15v5H76.29v6.42H61.15v6.21H78v7.13H51.39Z"/><path class="cls-1" d="M81,25h29.58v7.77h-9.92V56.47H90.9V32.75H81Z"/></g></svg>