<svg id="Layer_1" data-name="Layer 1" xmlns="http://www.w3.org/2000/svg" viewBox="0 0 128.16 128.16"><defs><style>.cls-1{fill:#62bb46;}.cls-2{fill:gray;}.cls-3{fill:none;}.cls-4{fill:#fff;}</style></defs><g id="ValueOriginMethodInVivo.png"><path class="cls-1" d="M125.72,119.32c0,4.29-3.21,7.78-7.17,7.78H9.61c-4,0-7.17-3.49-7.17-7.78V8.84c0-4.29,3.21-7.78,7.17-7.78H118.55c4,0,7.17,3.49,7.17,7.78Zm-8.3-110H10.74V118.81H117.42Z"/><path class="cls-2" d="M70.81,98.53l4.18,3,3.85,2.83a4.18,4.18,0,0,0,5-.26L84,104l6.11,6.75,6.63,1.6-9.79-11,.19-.17a4.22,4.22,0,0,0,.8-5l-1-1.69-4.91-6.43C82.06,88.12,70.87,98.47,70.81,98.53Z"/><path class="cls-3" d="M52.22,53l.15-.14L48.6,48.64l-1.44,1.29-9.58,8.63-1.44,1.29.63.71a26.32,26.32,0,0,1,8.9-1.35C53.47,59.21,52.22,53,52.22,53Z"/><path class="cls-1" d="M81.17,77.36,50.07,42.49l.51-.46a3.36,3.36,0,0,0-4.48-5L24.87,56.12a3.36,3.36,0,0,0,4.48,5l.51-.46L61,95.55a5.59,5.59,0,0,0,7.9.43L80.74,85.29a5.63,5.63,0,0,0,.43-7.93ZM37.58,58.56l9.58-8.63,1.44-1.29,3.77,4.23-.15.14s1.25,6.2-6.55,6.2a26.32,26.32,0,0,0-8.9,1.35l-.63-.71Z"/><path class="cls-2" d="M39.94,37.06l-2.58-2.84a3.35,3.35,0,0,0-4.55-4.92L19,41.74a3.38,3.38,0,0,0-.27,4.76,3.34,3.34,0,0,0,4.41.5l2.65,2.91Z"/><path class="cls-1" d="M98.07,46.68a15.47,15.47,0,1,1-30.94,0c0-8.54,15.47-25.47,15.47-25.47S98.07,38.14,98.07,46.68Z"/><path class="cls-4" d="M91.93,47.44A7.58,7.58,0,0,1,84.35,55c-4.19,0,1.89-3.42,2.33-7.58a22.68,22.68,0,0,0-2.33-12.5S91.93,43.25,91.93,47.44Z"/></g></svg>