<svg id="Layer_1" data-name="Layer 1" xmlns="http://www.w3.org/2000/svg" viewBox="0 0 128.16 128.16"><defs><style>.cls-1{fill:#62bb46;}</style></defs><g id="ValueOriginMethodOther.png_" data-name="ValueOriginMethodOther.png
"><path class="cls-1" d="M30.13,64.08c0-5,3.37-8.5,8.1-8.5s8,3.51,8,8.5-3.1,8.5-8.1,8.5C33.37,72.58,30.13,68.94,30.13,64.08Z"/><path class="cls-1" d="M56.05,64.08c0-5,3.37-8.5,8.1-8.5s8,3.51,8,8.5-3.1,8.5-8.1,8.5C59.29,72.58,56.05,68.94,56.05,64.08Z"/><path class="cls-1" d="M82,64.08c0-5,3.37-8.5,8.1-8.5s8,3.51,8,8.5-3.1,8.5-8.1,8.5C85.21,72.58,82,68.94,82,64.08Z"/><path class="cls-1" d="M125.72,119.32c0,4.29-3.21,7.78-7.17,7.78H9.61c-4,0-7.17-3.49-7.17-7.78V8.84c0-4.29,3.21-7.78,7.17-7.78H118.55c4,0,7.17,3.49,7.17,7.78Zm-8.3-110H10.74V118.81H117.42Z"/></g></svg>