<svg id="Layer_1" data-name="Layer 1" xmlns="http://www.w3.org/2000/svg" viewBox="0 0 128.16 128.16"><defs><style>.cls-1{fill:#62bb46;}</style></defs><g id="ValueOriginMethodInVitro.png"><path class="cls-1" d="M125.72,119.32c0,4.29-3.21,7.78-7.17,7.78H9.61c-4,0-7.17-3.49-7.17-7.78V8.84c0-4.29,3.21-7.78,7.17-7.78H118.55c4,0,7.17,3.49,7.17,7.78Zm-8.3-110H10.74V118.81H117.42Z"/><path class="cls-1" d="M44.53,78.14,59.47,54.58l1.1-1.7V28.94h7V52.88l1.1,1.7L83.63,78.14Zm57.72,16.25L74.62,50.85V28.94h3.52a3.4,3.4,0,0,0,2.47-1,3.52,3.52,0,0,0-2.47-6H50a3.52,3.52,0,0,0,0,7h3.52V50.85L25.91,94.39q-3.07,4.89-1.18,8.37c1.27,2.32,3.84,3.49,7.72,3.49H95.71c3.88,0,6.45-1.17,7.72-3.49S104.3,97.65,102.25,94.39Z"/></g></svg>