<svg id="Layer_1" data-name="Layer 1" xmlns="http://www.w3.org/2000/svg" viewBox="0 0 128.16 128.16"><defs><style>.cls-1{fill:#62bb46;}.cls-2{fill:#fff;}</style></defs><g id="ValueOriginMethodParameterIdentification.png_" data-name="ValueOriginMethodParameterIdentification.png
"><path class="cls-1" d="M125.72,119.32c0,4.29-3.21,7.78-7.17,7.78H9.61c-4,0-7.17-3.49-7.17-7.78V8.84c0-4.29,3.21-7.78,7.17-7.78H118.55c4,0,7.17,3.49,7.17,7.78Zm-8.3-110H10.74V118.81H117.42Z"/><circle class="cls-1" cx="64.08" cy="64.08" r="45.49"/><path class="cls-2" d="M64.08,112.33a48.25,48.25,0,1,1,48.25-48.25A48.3,48.3,0,0,1,64.08,112.33Zm0-91A42.72,42.72,0,1,0,106.8,64.08,42.77,42.77,0,0,0,64.08,21.36Z"/><path class="cls-2" d="M92.69,46.71l-5.93,5.44a25.12,25.12,0,1,1-10.6-10.6l5.44-5.92,0-.38A33.3,33.3,0,1,0,93.07,46.73Z"/><path class="cls-2" d="M72.86,64.92l7.28-6.69A16.65,16.65,0,1,1,70.08,48.17L63.4,55.45c-1.79.24-1.72,3.09-3.1,4.46-3.3,3.31-3.3,4.38,0,7.68s5.13,4.43,8.44,1.13C70.11,67.34,72.63,66.7,72.86,64.92Z"/><path class="cls-1" d="M64.7,68.62a5.3,5.3,0,0,1-5-5,4.11,4.11,0,0,1,1.27-3L83.37,36.26,83,29.91a3.54,3.54,0,0,1,.64-2.21L92,15.88a2.7,2.7,0,0,1,2.19-1.14l.39,0a2.68,2.68,0,0,1,2.15,1.79l3.85,11.21,11.23,3.86a2.68,2.68,0,0,1,.66,4.73L100.6,44.65a3.46,3.46,0,0,1-2,.64h-.18L92.05,45,67.61,67.41A4,4,0,0,1,64.7,68.62Z"/><path class="cls-2" d="M94.15,16.62h.12a.79.79,0,0,1,.64.53l4.15,12.09,12.1,4.16a.78.78,0,0,1,.53.64.76.76,0,0,1-.33.76L99.52,43.12a1.63,1.63,0,0,1-.93.29h-.08L91.36,43l-25,23a2.28,2.28,0,0,1-1.64.71,3,3,0,0,1-2.13-1c-1.13-1.12-1.4-2.66-.28-3.77l23-25-.37-7.14a1.58,1.58,0,0,1,.29-1L93.5,17a.81.81,0,0,1,.65-.33m0-3.76a4.56,4.56,0,0,0-3.7,1.9L82.12,26.64a5.38,5.38,0,0,0-1,3.37l.3,5.56L59.56,59.39a6,6,0,0,0-1.75,4.23A7.17,7.17,0,0,0,64.7,70.5a6,6,0,0,0,4.23-1.75L92.74,46.87l5.57.29h.28a5.41,5.41,0,0,0,3.09-1l11.84-8.31a4.56,4.56,0,0,0-1.15-8L102,26.29,98.47,15.94a4.52,4.52,0,0,0-3.69-3,4.17,4.17,0,0,0-.63,0Z"/></g></svg>