<svg id="Layer_1" data-name="Layer 1" xmlns="http://www.w3.org/2000/svg" viewBox="0 0 128.16 128.16"><defs><style>.cls-1{fill:#00aeef;}</style></defs><path class="cls-1" d="M120.56,1.06H15.72c-3.81,0-6.9,3.49-6.9,7.78V25.42H6.5A5.8,5.8,0,0,0,6.5,37H8.82V47.53H6.5a5.8,5.8,0,0,0,0,11.6H8.82V70H6.5a5.8,5.8,0,1,0,0,11.59H8.82V90.3H6.5a5.8,5.8,0,1,0,0,11.59H8.82v17.43c0,4.29,3.09,7.78,6.9,7.78H120.56c3.8,0,6.9-3.49,6.9-7.78V8.84C127.46,4.55,124.36,1.06,120.56,1.06Zm-1.09,117.75H16.8V101.89h3.47a5.8,5.8,0,1,0,0-11.59H16.8V81.62h3.47a5.8,5.8,0,1,0,0-11.59H16.8V59.13h3.47a5.8,5.8,0,1,0,0-11.6H16.8V37h3.47a5.8,5.8,0,0,0,0-11.6H16.8V9.35H119.47Z"/><path class="cls-1" d="M42,41H97.37a4,4,0,0,0,0-8H42a4,4,0,0,0,0,8Z"/><path class="cls-1" d="M42,65.61H97.37a4,4,0,0,0,0-8H42a4,4,0,0,0,0,8Z"/><path class="cls-1" d="M42,90.2H97.37a4,4,0,0,0,0-8H42a4,4,0,1,0,0,8Z"/></svg>