<svg id="Layer_1" data-name="Layer 1" xmlns="http://www.w3.org/2000/svg" viewBox="0 0 128.16 128.16"><defs><style>.cls-1{fill:#00aeef;}.cls-2{fill:#f18a00;}</style></defs><path class="cls-1" d="M84.77,84.77H43.39V43.39H84.77Zm0-46.56H43.39a4.89,4.89,0,0,0-5.18,5.18V84.77A4.89,4.89,0,0,0,43.39,90H84.77A4.89,4.89,0,0,0,90,84.77V43.39A4.89,4.89,0,0,0,84.77,38.21Z"/><path class="cls-2" d="M30.35,35.31l5.26-4.94a2.07,2.07,0,0,0,0-3L23.58,15.31a2.09,2.09,0,0,1-.06-2.88l6.34-6.95A2.08,2.08,0,0,0,28.33,2H4.08A2.08,2.08,0,0,0,2,4.08V28.33a2.08,2.08,0,0,0,3.48,1.53l7-6.37a2.09,2.09,0,0,1,2.85,0L27.48,35.29A2.08,2.08,0,0,0,30.35,35.31Z"/><path class="cls-2" d="M96.93,5.52l6.61,6.91a2.08,2.08,0,0,1,0,2.91L91.41,27.43a2.08,2.08,0,0,0,0,2.94l4.87,4.87a2.08,2.08,0,0,0,2.89,0L112.34,23a2.08,2.08,0,0,1,2.82,0l7.52,6.89a2.08,2.08,0,0,0,3.48-1.53V4.08A2.08,2.08,0,0,0,124.08,2H98.43A2.08,2.08,0,0,0,96.93,5.52Z"/><path class="cls-2" d="M97.8,91.31l-5.32,5a2.07,2.07,0,0,0-.1,2.91l12.33,13.17a2.07,2.07,0,0,1,.05,2.76l-6.66,7.61a2.06,2.06,0,0,0,1.55,3.41H124.1a2.06,2.06,0,0,0,2.06-2.06V98.38a2.06,2.06,0,0,0-3.48-1.49l-7,6.67a2.05,2.05,0,0,1-2.87,0L100.66,91.35A2.06,2.06,0,0,0,97.8,91.31Z"/><path class="cls-2" d="M28.88,91.42l-13,12.19a2.16,2.16,0,0,1-2.9,0L5.59,97.22A2.17,2.17,0,0,0,2,98.85V124a2.17,2.17,0,0,0,2.17,2.17H29.68a2.17,2.17,0,0,0,1.59-3.63l-6.68-7.29a2.15,2.15,0,0,1,0-3L36.78,99.7a2.15,2.15,0,0,0,0-3l-4.88-5.2A2.16,2.16,0,0,0,28.88,91.42Z"/><path class="cls-2" d="M76.93,61H67.18V51.24a3.1,3.1,0,0,0-6.2,0V61H51.23a3.1,3.1,0,0,0,0,6.2H61v9.74h0a3.1,3.1,0,1,0,6.2,0V67.18h9.75a3.1,3.1,0,0,0,0-6.2Z"/></svg>