<svg id="Layer_1" data-name="Layer 1" xmlns="http://www.w3.org/2000/svg" viewBox="0 0 128.16 128.16"><defs><style>.cls-1{fill:#00aeef;}.cls-2{fill:#f18a00;}</style></defs><path class="cls-1" d="M84.77,84.77H43.39V43.39H84.77ZM90,43.39a4.89,4.89,0,0,0-5.18-5.18H43.39a4.89,4.89,0,0,0-5.18,5.18V84.77A4.89,4.89,0,0,0,43.39,90H84.77A4.89,4.89,0,0,0,90,84.77Z"/><path class="cls-2" d="M10.59,38.21H36.2a2,2,0,0,0,2-2V10.07a2,2,0,0,0-3.34-1.52l-7.7,6.74a2,2,0,0,1-2.7,0L11.66,3.29a2,2,0,0,0-2.76,0L3.47,8.38a2,2,0,0,0-.09,2.86L15.76,24.47a2,2,0,0,1,0,2.7l-6.73,7.7A2,2,0,0,0,10.59,38.21Z"/><path class="cls-2" d="M113,24.4,124.8,11.73a2.12,2.12,0,0,0,0-2.9l-5-5.28a2.11,2.11,0,0,0-3-.1L103.76,15.7a2.12,2.12,0,0,1-2.84,0L93.46,9.22A2.11,2.11,0,0,0,90,10.81V36.1a2.1,2.1,0,0,0,2.11,2.11h25.81a2.11,2.11,0,0,0,1.59-3.51l-6.53-7.46A2.13,2.13,0,0,1,113,24.4Z"/><path class="cls-2" d="M117.12,90h-25A2.21,2.21,0,0,0,90,92.17v25.47a2.22,2.22,0,0,0,3.68,1.67l7.22-6.31a2.21,2.21,0,0,1,3,0l12.53,11.7a2.23,2.23,0,0,0,3,0l5.14-4.81a2.23,2.23,0,0,0,.1-3.14l-12.11-13a2.22,2.22,0,0,1,0-3l6.31-7.22A2.22,2.22,0,0,0,117.12,90Z"/><path class="cls-2" d="M15.2,103.74,3.34,116.45a2.1,2.1,0,0,0,0,2.86l5,5.32a2.1,2.1,0,0,0,3,.1l13.09-12.25a2.11,2.11,0,0,1,2.85,0l7.48,6.86a2.09,2.09,0,0,0,3.5-1.54V92A2.08,2.08,0,0,0,36.12,90H10.24a2.09,2.09,0,0,0-1.58,3.47l6.58,7.52A2.08,2.08,0,0,1,15.2,103.74Z"/><path class="cls-2" d="M76.93,61H51.23a3.1,3.1,0,0,0,0,6.2h25.7a3.1,3.1,0,0,0,0-6.2Z"/></svg>